%TF.GenerationSoftware,KiCad,Pcbnew,10.0.5*%
%TF.CreationDate,2026-08-22T00:33:12-07:00*%
%TF.ProjectId,klaw_1,6b6c6177-5f31-42e6-9b69-6361645f7063,v1*%
%TF.SameCoordinates,Original*%
%TF.FileFunction,Legend,Top*%
%TF.FilePolarity,Positive*%
%FSLAX46Y46*%
G04 Gerber Fmt 4.6, Leading zero omitted, Abs format (unit mm)*
G04 Created by KiCad (PCBNEW 10.0.5) date 2026-08-22 00:33:12*
%MOMM*%
%LPD*%
G01*
G04 APERTURE LIST*
%ADD10C,0.150000*%
%ADD11C,0.569975*%
%ADD12C,0.127000*%
%ADD13C,0.100000*%
%ADD14C,0.200000*%
%ADD15C,0.120000*%
%ADD16C,0.300000*%
%ADD17C,1.200000*%
%ADD18O,2.500000X1.700000*%
%ADD19C,1.524000*%
G04 APERTURE END LIST*
D10*
X84643747Y-60623772D02*
G75*
G02*
X83653797Y-60623772I-494975J0D01*
G01*
X83653797Y-60623772D02*
G75*
G02*
X84643747Y-60623772I494975J0D01*
G01*
D11*
X84433759Y-71123772D02*
G75*
G02*
X83863785Y-71123772I-284987J0D01*
G01*
X83863785Y-71123772D02*
G75*
G02*
X84433759Y-71123772I284987J0D01*
G01*
D10*
X86317798Y-110933549D02*
X86317798Y-111518549D01*
X86608798Y-111225049D02*
X86023798Y-111225049D01*
X86618798Y-114850049D02*
X86033798Y-114850049D01*
X91368309Y-104192337D02*
X91368309Y-105261337D01*
X91899446Y-106157204D02*
X90830446Y-106157204D01*
X91914309Y-104743337D02*
X90845309Y-104743337D01*
D12*
X143043000Y-118997000D02*
X143043000Y-116440000D01*
D13*
X106051646Y-58037800D02*
X106508789Y-58037800D01*
X106794503Y-58037800D02*
X107251646Y-58037800D01*
X107823074Y-58266371D02*
X107537360Y-58266371D01*
X107537360Y-58266371D02*
X107537360Y-57666371D01*
X108023074Y-57952085D02*
X108223074Y-57952085D01*
X108308788Y-58266371D02*
X108023074Y-58266371D01*
X108023074Y-58266371D02*
X108023074Y-57666371D01*
X108023074Y-57666371D02*
X108308788Y-57666371D01*
X108565931Y-58266371D02*
X108565931Y-57666371D01*
X108565931Y-57666371D02*
X108708788Y-57666371D01*
X108708788Y-57666371D02*
X108794502Y-57694942D01*
X108794502Y-57694942D02*
X108851645Y-57752085D01*
X108851645Y-57752085D02*
X108880216Y-57809228D01*
X108880216Y-57809228D02*
X108908788Y-57923514D01*
X108908788Y-57923514D02*
X108908788Y-58009228D01*
X108908788Y-58009228D02*
X108880216Y-58123514D01*
X108880216Y-58123514D02*
X108851645Y-58180657D01*
X108851645Y-58180657D02*
X108794502Y-58237800D01*
X108794502Y-58237800D02*
X108708788Y-58266371D01*
X108708788Y-58266371D02*
X108565931Y-58266371D01*
X106051646Y-60577800D02*
X106508789Y-60577800D01*
X106794503Y-60577800D02*
X107251646Y-60577800D01*
X107451645Y-60206371D02*
X107794503Y-60206371D01*
X107623074Y-60806371D02*
X107623074Y-60206371D01*
X107937360Y-60206371D02*
X108337360Y-60806371D01*
X108337360Y-60206371D02*
X107937360Y-60806371D01*
X106051646Y-63117800D02*
X106508789Y-63117800D01*
X106794503Y-63117800D02*
X107251646Y-63117800D01*
X107851645Y-62774942D02*
X107794503Y-62746371D01*
X107794503Y-62746371D02*
X107708788Y-62746371D01*
X107708788Y-62746371D02*
X107623074Y-62774942D01*
X107623074Y-62774942D02*
X107565931Y-62832085D01*
X107565931Y-62832085D02*
X107537360Y-62889228D01*
X107537360Y-62889228D02*
X107508788Y-63003514D01*
X107508788Y-63003514D02*
X107508788Y-63089228D01*
X107508788Y-63089228D02*
X107537360Y-63203514D01*
X107537360Y-63203514D02*
X107565931Y-63260657D01*
X107565931Y-63260657D02*
X107623074Y-63317800D01*
X107623074Y-63317800D02*
X107708788Y-63346371D01*
X107708788Y-63346371D02*
X107765931Y-63346371D01*
X107765931Y-63346371D02*
X107851645Y-63317800D01*
X107851645Y-63317800D02*
X107880217Y-63289228D01*
X107880217Y-63289228D02*
X107880217Y-63089228D01*
X107880217Y-63089228D02*
X107765931Y-63089228D01*
X108137360Y-63346371D02*
X108137360Y-62746371D01*
X108137360Y-62746371D02*
X108480217Y-63346371D01*
X108480217Y-63346371D02*
X108480217Y-62746371D01*
X108765931Y-63346371D02*
X108765931Y-62746371D01*
X108765931Y-62746371D02*
X108908788Y-62746371D01*
X108908788Y-62746371D02*
X108994502Y-62774942D01*
X108994502Y-62774942D02*
X109051645Y-62832085D01*
X109051645Y-62832085D02*
X109080216Y-62889228D01*
X109080216Y-62889228D02*
X109108788Y-63003514D01*
X109108788Y-63003514D02*
X109108788Y-63089228D01*
X109108788Y-63089228D02*
X109080216Y-63203514D01*
X109080216Y-63203514D02*
X109051645Y-63260657D01*
X109051645Y-63260657D02*
X108994502Y-63317800D01*
X108994502Y-63317800D02*
X108908788Y-63346371D01*
X108908788Y-63346371D02*
X108765931Y-63346371D01*
X106051646Y-65657800D02*
X106508789Y-65657800D01*
X106794503Y-65657800D02*
X107251646Y-65657800D01*
X107851645Y-65314942D02*
X107794503Y-65286371D01*
X107794503Y-65286371D02*
X107708788Y-65286371D01*
X107708788Y-65286371D02*
X107623074Y-65314942D01*
X107623074Y-65314942D02*
X107565931Y-65372085D01*
X107565931Y-65372085D02*
X107537360Y-65429228D01*
X107537360Y-65429228D02*
X107508788Y-65543514D01*
X107508788Y-65543514D02*
X107508788Y-65629228D01*
X107508788Y-65629228D02*
X107537360Y-65743514D01*
X107537360Y-65743514D02*
X107565931Y-65800657D01*
X107565931Y-65800657D02*
X107623074Y-65857800D01*
X107623074Y-65857800D02*
X107708788Y-65886371D01*
X107708788Y-65886371D02*
X107765931Y-65886371D01*
X107765931Y-65886371D02*
X107851645Y-65857800D01*
X107851645Y-65857800D02*
X107880217Y-65829228D01*
X107880217Y-65829228D02*
X107880217Y-65629228D01*
X107880217Y-65629228D02*
X107765931Y-65629228D01*
X108137360Y-65886371D02*
X108137360Y-65286371D01*
X108137360Y-65286371D02*
X108480217Y-65886371D01*
X108480217Y-65886371D02*
X108480217Y-65286371D01*
X108765931Y-65886371D02*
X108765931Y-65286371D01*
X108765931Y-65286371D02*
X108908788Y-65286371D01*
X108908788Y-65286371D02*
X108994502Y-65314942D01*
X108994502Y-65314942D02*
X109051645Y-65372085D01*
X109051645Y-65372085D02*
X109080216Y-65429228D01*
X109080216Y-65429228D02*
X109108788Y-65543514D01*
X109108788Y-65543514D02*
X109108788Y-65629228D01*
X109108788Y-65629228D02*
X109080216Y-65743514D01*
X109080216Y-65743514D02*
X109051645Y-65800657D01*
X109051645Y-65800657D02*
X108994502Y-65857800D01*
X108994502Y-65857800D02*
X108908788Y-65886371D01*
X108908788Y-65886371D02*
X108765931Y-65886371D01*
X106051646Y-68197800D02*
X106508789Y-68197800D01*
X106794503Y-68197800D02*
X107251646Y-68197800D01*
X107508788Y-68397800D02*
X107594503Y-68426371D01*
X107594503Y-68426371D02*
X107737360Y-68426371D01*
X107737360Y-68426371D02*
X107794503Y-68397800D01*
X107794503Y-68397800D02*
X107823074Y-68369228D01*
X107823074Y-68369228D02*
X107851645Y-68312085D01*
X107851645Y-68312085D02*
X107851645Y-68254942D01*
X107851645Y-68254942D02*
X107823074Y-68197800D01*
X107823074Y-68197800D02*
X107794503Y-68169228D01*
X107794503Y-68169228D02*
X107737360Y-68140657D01*
X107737360Y-68140657D02*
X107623074Y-68112085D01*
X107623074Y-68112085D02*
X107565931Y-68083514D01*
X107565931Y-68083514D02*
X107537360Y-68054942D01*
X107537360Y-68054942D02*
X107508788Y-67997800D01*
X107508788Y-67997800D02*
X107508788Y-67940657D01*
X107508788Y-67940657D02*
X107537360Y-67883514D01*
X107537360Y-67883514D02*
X107565931Y-67854942D01*
X107565931Y-67854942D02*
X107623074Y-67826371D01*
X107623074Y-67826371D02*
X107765931Y-67826371D01*
X107765931Y-67826371D02*
X107851645Y-67854942D01*
X108108789Y-68426371D02*
X108108789Y-67826371D01*
X108108789Y-67826371D02*
X108251646Y-67826371D01*
X108251646Y-67826371D02*
X108337360Y-67854942D01*
X108337360Y-67854942D02*
X108394503Y-67912085D01*
X108394503Y-67912085D02*
X108423074Y-67969228D01*
X108423074Y-67969228D02*
X108451646Y-68083514D01*
X108451646Y-68083514D02*
X108451646Y-68169228D01*
X108451646Y-68169228D02*
X108423074Y-68283514D01*
X108423074Y-68283514D02*
X108394503Y-68340657D01*
X108394503Y-68340657D02*
X108337360Y-68397800D01*
X108337360Y-68397800D02*
X108251646Y-68426371D01*
X108251646Y-68426371D02*
X108108789Y-68426371D01*
X108680217Y-68254942D02*
X108965932Y-68254942D01*
X108623074Y-68426371D02*
X108823074Y-67826371D01*
X108823074Y-67826371D02*
X109023074Y-68426371D01*
X106051646Y-70737800D02*
X106508789Y-70737800D01*
X106794503Y-70737800D02*
X107251646Y-70737800D01*
X107508788Y-70937800D02*
X107594503Y-70966371D01*
X107594503Y-70966371D02*
X107737360Y-70966371D01*
X107737360Y-70966371D02*
X107794503Y-70937800D01*
X107794503Y-70937800D02*
X107823074Y-70909228D01*
X107823074Y-70909228D02*
X107851645Y-70852085D01*
X107851645Y-70852085D02*
X107851645Y-70794942D01*
X107851645Y-70794942D02*
X107823074Y-70737800D01*
X107823074Y-70737800D02*
X107794503Y-70709228D01*
X107794503Y-70709228D02*
X107737360Y-70680657D01*
X107737360Y-70680657D02*
X107623074Y-70652085D01*
X107623074Y-70652085D02*
X107565931Y-70623514D01*
X107565931Y-70623514D02*
X107537360Y-70594942D01*
X107537360Y-70594942D02*
X107508788Y-70537800D01*
X107508788Y-70537800D02*
X107508788Y-70480657D01*
X107508788Y-70480657D02*
X107537360Y-70423514D01*
X107537360Y-70423514D02*
X107565931Y-70394942D01*
X107565931Y-70394942D02*
X107623074Y-70366371D01*
X107623074Y-70366371D02*
X107765931Y-70366371D01*
X107765931Y-70366371D02*
X107851645Y-70394942D01*
X108451646Y-70909228D02*
X108423074Y-70937800D01*
X108423074Y-70937800D02*
X108337360Y-70966371D01*
X108337360Y-70966371D02*
X108280217Y-70966371D01*
X108280217Y-70966371D02*
X108194503Y-70937800D01*
X108194503Y-70937800D02*
X108137360Y-70880657D01*
X108137360Y-70880657D02*
X108108789Y-70823514D01*
X108108789Y-70823514D02*
X108080217Y-70709228D01*
X108080217Y-70709228D02*
X108080217Y-70623514D01*
X108080217Y-70623514D02*
X108108789Y-70509228D01*
X108108789Y-70509228D02*
X108137360Y-70452085D01*
X108137360Y-70452085D02*
X108194503Y-70394942D01*
X108194503Y-70394942D02*
X108280217Y-70366371D01*
X108280217Y-70366371D02*
X108337360Y-70366371D01*
X108337360Y-70366371D02*
X108423074Y-70394942D01*
X108423074Y-70394942D02*
X108451646Y-70423514D01*
X108994503Y-70966371D02*
X108708789Y-70966371D01*
X108708789Y-70966371D02*
X108708789Y-70366371D01*
X106051646Y-73277800D02*
X106508789Y-73277800D01*
X106794503Y-73277800D02*
X107251646Y-73277800D01*
X107880217Y-73506371D02*
X107680217Y-73220657D01*
X107537360Y-73506371D02*
X107537360Y-72906371D01*
X107537360Y-72906371D02*
X107765931Y-72906371D01*
X107765931Y-72906371D02*
X107823074Y-72934942D01*
X107823074Y-72934942D02*
X107851645Y-72963514D01*
X107851645Y-72963514D02*
X107880217Y-73020657D01*
X107880217Y-73020657D02*
X107880217Y-73106371D01*
X107880217Y-73106371D02*
X107851645Y-73163514D01*
X107851645Y-73163514D02*
X107823074Y-73192085D01*
X107823074Y-73192085D02*
X107765931Y-73220657D01*
X107765931Y-73220657D02*
X107537360Y-73220657D01*
X108080217Y-72906371D02*
X108480217Y-73506371D01*
X108480217Y-72906371D02*
X108080217Y-73506371D01*
X106051646Y-75817800D02*
X106508789Y-75817800D01*
X106794503Y-75817800D02*
X107251646Y-75817800D01*
X107880217Y-76046371D02*
X107680217Y-75760657D01*
X107537360Y-76046371D02*
X107537360Y-75446371D01*
X107537360Y-75446371D02*
X107765931Y-75446371D01*
X107765931Y-75446371D02*
X107823074Y-75474942D01*
X107823074Y-75474942D02*
X107851645Y-75503514D01*
X107851645Y-75503514D02*
X107880217Y-75560657D01*
X107880217Y-75560657D02*
X107880217Y-75646371D01*
X107880217Y-75646371D02*
X107851645Y-75703514D01*
X107851645Y-75703514D02*
X107823074Y-75732085D01*
X107823074Y-75732085D02*
X107765931Y-75760657D01*
X107765931Y-75760657D02*
X107537360Y-75760657D01*
X108251645Y-75446371D02*
X108365931Y-75446371D01*
X108365931Y-75446371D02*
X108423074Y-75474942D01*
X108423074Y-75474942D02*
X108480217Y-75532085D01*
X108480217Y-75532085D02*
X108508788Y-75646371D01*
X108508788Y-75646371D02*
X108508788Y-75846371D01*
X108508788Y-75846371D02*
X108480217Y-75960657D01*
X108480217Y-75960657D02*
X108423074Y-76017800D01*
X108423074Y-76017800D02*
X108365931Y-76046371D01*
X108365931Y-76046371D02*
X108251645Y-76046371D01*
X108251645Y-76046371D02*
X108194503Y-76017800D01*
X108194503Y-76017800D02*
X108137360Y-75960657D01*
X108137360Y-75960657D02*
X108108788Y-75846371D01*
X108108788Y-75846371D02*
X108108788Y-75646371D01*
X108108788Y-75646371D02*
X108137360Y-75532085D01*
X108137360Y-75532085D02*
X108194503Y-75474942D01*
X108194503Y-75474942D02*
X108251645Y-75446371D01*
X108708788Y-75446371D02*
X108851645Y-76046371D01*
X108851645Y-76046371D02*
X108965931Y-75617800D01*
X108965931Y-75617800D02*
X109080216Y-76046371D01*
X109080216Y-76046371D02*
X109223074Y-75446371D01*
X109565930Y-75446371D02*
X109623073Y-75446371D01*
X109623073Y-75446371D02*
X109680216Y-75474942D01*
X109680216Y-75474942D02*
X109708788Y-75503514D01*
X109708788Y-75503514D02*
X109737359Y-75560657D01*
X109737359Y-75560657D02*
X109765930Y-75674942D01*
X109765930Y-75674942D02*
X109765930Y-75817800D01*
X109765930Y-75817800D02*
X109737359Y-75932085D01*
X109737359Y-75932085D02*
X109708788Y-75989228D01*
X109708788Y-75989228D02*
X109680216Y-76017800D01*
X109680216Y-76017800D02*
X109623073Y-76046371D01*
X109623073Y-76046371D02*
X109565930Y-76046371D01*
X109565930Y-76046371D02*
X109508788Y-76017800D01*
X109508788Y-76017800D02*
X109480216Y-75989228D01*
X109480216Y-75989228D02*
X109451645Y-75932085D01*
X109451645Y-75932085D02*
X109423073Y-75817800D01*
X109423073Y-75817800D02*
X109423073Y-75674942D01*
X109423073Y-75674942D02*
X109451645Y-75560657D01*
X109451645Y-75560657D02*
X109480216Y-75503514D01*
X109480216Y-75503514D02*
X109508788Y-75474942D01*
X109508788Y-75474942D02*
X109565930Y-75446371D01*
X106051646Y-78357800D02*
X106508789Y-78357800D01*
X106794503Y-78357800D02*
X107251646Y-78357800D01*
X107880217Y-78586371D02*
X107680217Y-78300657D01*
X107537360Y-78586371D02*
X107537360Y-77986371D01*
X107537360Y-77986371D02*
X107765931Y-77986371D01*
X107765931Y-77986371D02*
X107823074Y-78014942D01*
X107823074Y-78014942D02*
X107851645Y-78043514D01*
X107851645Y-78043514D02*
X107880217Y-78100657D01*
X107880217Y-78100657D02*
X107880217Y-78186371D01*
X107880217Y-78186371D02*
X107851645Y-78243514D01*
X107851645Y-78243514D02*
X107823074Y-78272085D01*
X107823074Y-78272085D02*
X107765931Y-78300657D01*
X107765931Y-78300657D02*
X107537360Y-78300657D01*
X108251645Y-77986371D02*
X108365931Y-77986371D01*
X108365931Y-77986371D02*
X108423074Y-78014942D01*
X108423074Y-78014942D02*
X108480217Y-78072085D01*
X108480217Y-78072085D02*
X108508788Y-78186371D01*
X108508788Y-78186371D02*
X108508788Y-78386371D01*
X108508788Y-78386371D02*
X108480217Y-78500657D01*
X108480217Y-78500657D02*
X108423074Y-78557800D01*
X108423074Y-78557800D02*
X108365931Y-78586371D01*
X108365931Y-78586371D02*
X108251645Y-78586371D01*
X108251645Y-78586371D02*
X108194503Y-78557800D01*
X108194503Y-78557800D02*
X108137360Y-78500657D01*
X108137360Y-78500657D02*
X108108788Y-78386371D01*
X108108788Y-78386371D02*
X108108788Y-78186371D01*
X108108788Y-78186371D02*
X108137360Y-78072085D01*
X108137360Y-78072085D02*
X108194503Y-78014942D01*
X108194503Y-78014942D02*
X108251645Y-77986371D01*
X108708788Y-77986371D02*
X108851645Y-78586371D01*
X108851645Y-78586371D02*
X108965931Y-78157800D01*
X108965931Y-78157800D02*
X109080216Y-78586371D01*
X109080216Y-78586371D02*
X109223074Y-77986371D01*
X109765930Y-78586371D02*
X109423073Y-78586371D01*
X109594502Y-78586371D02*
X109594502Y-77986371D01*
X109594502Y-77986371D02*
X109537359Y-78072085D01*
X109537359Y-78072085D02*
X109480216Y-78129228D01*
X109480216Y-78129228D02*
X109423073Y-78157800D01*
X106051646Y-80897800D02*
X106508789Y-80897800D01*
X106794503Y-80897800D02*
X107251646Y-80897800D01*
X107880217Y-81126371D02*
X107680217Y-80840657D01*
X107537360Y-81126371D02*
X107537360Y-80526371D01*
X107537360Y-80526371D02*
X107765931Y-80526371D01*
X107765931Y-80526371D02*
X107823074Y-80554942D01*
X107823074Y-80554942D02*
X107851645Y-80583514D01*
X107851645Y-80583514D02*
X107880217Y-80640657D01*
X107880217Y-80640657D02*
X107880217Y-80726371D01*
X107880217Y-80726371D02*
X107851645Y-80783514D01*
X107851645Y-80783514D02*
X107823074Y-80812085D01*
X107823074Y-80812085D02*
X107765931Y-80840657D01*
X107765931Y-80840657D02*
X107537360Y-80840657D01*
X108251645Y-80526371D02*
X108365931Y-80526371D01*
X108365931Y-80526371D02*
X108423074Y-80554942D01*
X108423074Y-80554942D02*
X108480217Y-80612085D01*
X108480217Y-80612085D02*
X108508788Y-80726371D01*
X108508788Y-80726371D02*
X108508788Y-80926371D01*
X108508788Y-80926371D02*
X108480217Y-81040657D01*
X108480217Y-81040657D02*
X108423074Y-81097800D01*
X108423074Y-81097800D02*
X108365931Y-81126371D01*
X108365931Y-81126371D02*
X108251645Y-81126371D01*
X108251645Y-81126371D02*
X108194503Y-81097800D01*
X108194503Y-81097800D02*
X108137360Y-81040657D01*
X108137360Y-81040657D02*
X108108788Y-80926371D01*
X108108788Y-80926371D02*
X108108788Y-80726371D01*
X108108788Y-80726371D02*
X108137360Y-80612085D01*
X108137360Y-80612085D02*
X108194503Y-80554942D01*
X108194503Y-80554942D02*
X108251645Y-80526371D01*
X108708788Y-80526371D02*
X108851645Y-81126371D01*
X108851645Y-81126371D02*
X108965931Y-80697800D01*
X108965931Y-80697800D02*
X109080216Y-81126371D01*
X109080216Y-81126371D02*
X109223074Y-80526371D01*
X109423073Y-80583514D02*
X109451645Y-80554942D01*
X109451645Y-80554942D02*
X109508788Y-80526371D01*
X109508788Y-80526371D02*
X109651645Y-80526371D01*
X109651645Y-80526371D02*
X109708788Y-80554942D01*
X109708788Y-80554942D02*
X109737359Y-80583514D01*
X109737359Y-80583514D02*
X109765930Y-80640657D01*
X109765930Y-80640657D02*
X109765930Y-80697800D01*
X109765930Y-80697800D02*
X109737359Y-80783514D01*
X109737359Y-80783514D02*
X109394502Y-81126371D01*
X109394502Y-81126371D02*
X109765930Y-81126371D01*
X106051646Y-83437800D02*
X106508789Y-83437800D01*
X106794503Y-83437800D02*
X107251646Y-83437800D01*
X107880217Y-83666371D02*
X107680217Y-83380657D01*
X107537360Y-83666371D02*
X107537360Y-83066371D01*
X107537360Y-83066371D02*
X107765931Y-83066371D01*
X107765931Y-83066371D02*
X107823074Y-83094942D01*
X107823074Y-83094942D02*
X107851645Y-83123514D01*
X107851645Y-83123514D02*
X107880217Y-83180657D01*
X107880217Y-83180657D02*
X107880217Y-83266371D01*
X107880217Y-83266371D02*
X107851645Y-83323514D01*
X107851645Y-83323514D02*
X107823074Y-83352085D01*
X107823074Y-83352085D02*
X107765931Y-83380657D01*
X107765931Y-83380657D02*
X107537360Y-83380657D01*
X108251645Y-83066371D02*
X108365931Y-83066371D01*
X108365931Y-83066371D02*
X108423074Y-83094942D01*
X108423074Y-83094942D02*
X108480217Y-83152085D01*
X108480217Y-83152085D02*
X108508788Y-83266371D01*
X108508788Y-83266371D02*
X108508788Y-83466371D01*
X108508788Y-83466371D02*
X108480217Y-83580657D01*
X108480217Y-83580657D02*
X108423074Y-83637800D01*
X108423074Y-83637800D02*
X108365931Y-83666371D01*
X108365931Y-83666371D02*
X108251645Y-83666371D01*
X108251645Y-83666371D02*
X108194503Y-83637800D01*
X108194503Y-83637800D02*
X108137360Y-83580657D01*
X108137360Y-83580657D02*
X108108788Y-83466371D01*
X108108788Y-83466371D02*
X108108788Y-83266371D01*
X108108788Y-83266371D02*
X108137360Y-83152085D01*
X108137360Y-83152085D02*
X108194503Y-83094942D01*
X108194503Y-83094942D02*
X108251645Y-83066371D01*
X108708788Y-83066371D02*
X108851645Y-83666371D01*
X108851645Y-83666371D02*
X108965931Y-83237800D01*
X108965931Y-83237800D02*
X109080216Y-83666371D01*
X109080216Y-83666371D02*
X109223074Y-83066371D01*
X109394502Y-83066371D02*
X109765930Y-83066371D01*
X109765930Y-83066371D02*
X109565930Y-83294942D01*
X109565930Y-83294942D02*
X109651645Y-83294942D01*
X109651645Y-83294942D02*
X109708788Y-83323514D01*
X109708788Y-83323514D02*
X109737359Y-83352085D01*
X109737359Y-83352085D02*
X109765930Y-83409228D01*
X109765930Y-83409228D02*
X109765930Y-83552085D01*
X109765930Y-83552085D02*
X109737359Y-83609228D01*
X109737359Y-83609228D02*
X109708788Y-83637800D01*
X109708788Y-83637800D02*
X109651645Y-83666371D01*
X109651645Y-83666371D02*
X109480216Y-83666371D01*
X109480216Y-83666371D02*
X109423073Y-83637800D01*
X109423073Y-83637800D02*
X109394502Y-83609228D01*
X106051646Y-85977800D02*
X106508789Y-85977800D01*
X106794503Y-85977800D02*
X107251646Y-85977800D01*
X107508788Y-86034942D02*
X107794503Y-86034942D01*
X107451645Y-86206371D02*
X107651645Y-85606371D01*
X107651645Y-85606371D02*
X107851645Y-86206371D01*
X108051646Y-85606371D02*
X108051646Y-86092085D01*
X108051646Y-86092085D02*
X108080217Y-86149228D01*
X108080217Y-86149228D02*
X108108789Y-86177800D01*
X108108789Y-86177800D02*
X108165931Y-86206371D01*
X108165931Y-86206371D02*
X108280217Y-86206371D01*
X108280217Y-86206371D02*
X108337360Y-86177800D01*
X108337360Y-86177800D02*
X108365931Y-86149228D01*
X108365931Y-86149228D02*
X108394503Y-86092085D01*
X108394503Y-86092085D02*
X108394503Y-85606371D01*
X108680217Y-86206371D02*
X108680217Y-85606371D01*
X108680217Y-85606371D02*
X108823074Y-85606371D01*
X108823074Y-85606371D02*
X108908788Y-85634942D01*
X108908788Y-85634942D02*
X108965931Y-85692085D01*
X108965931Y-85692085D02*
X108994502Y-85749228D01*
X108994502Y-85749228D02*
X109023074Y-85863514D01*
X109023074Y-85863514D02*
X109023074Y-85949228D01*
X109023074Y-85949228D02*
X108994502Y-86063514D01*
X108994502Y-86063514D02*
X108965931Y-86120657D01*
X108965931Y-86120657D02*
X108908788Y-86177800D01*
X108908788Y-86177800D02*
X108823074Y-86206371D01*
X108823074Y-86206371D02*
X108680217Y-86206371D01*
X109280217Y-86206371D02*
X109280217Y-85606371D01*
X109680216Y-85606371D02*
X109794502Y-85606371D01*
X109794502Y-85606371D02*
X109851645Y-85634942D01*
X109851645Y-85634942D02*
X109908788Y-85692085D01*
X109908788Y-85692085D02*
X109937359Y-85806371D01*
X109937359Y-85806371D02*
X109937359Y-86006371D01*
X109937359Y-86006371D02*
X109908788Y-86120657D01*
X109908788Y-86120657D02*
X109851645Y-86177800D01*
X109851645Y-86177800D02*
X109794502Y-86206371D01*
X109794502Y-86206371D02*
X109680216Y-86206371D01*
X109680216Y-86206371D02*
X109623074Y-86177800D01*
X109623074Y-86177800D02*
X109565931Y-86120657D01*
X109565931Y-86120657D02*
X109537359Y-86006371D01*
X109537359Y-86006371D02*
X109537359Y-85806371D01*
X109537359Y-85806371D02*
X109565931Y-85692085D01*
X109565931Y-85692085D02*
X109623074Y-85634942D01*
X109623074Y-85634942D02*
X109680216Y-85606371D01*
X86186497Y-75999228D02*
X86157925Y-76027800D01*
X86157925Y-76027800D02*
X86072211Y-76056371D01*
X86072211Y-76056371D02*
X86015068Y-76056371D01*
X86015068Y-76056371D02*
X85929354Y-76027800D01*
X85929354Y-76027800D02*
X85872211Y-75970657D01*
X85872211Y-75970657D02*
X85843640Y-75913514D01*
X85843640Y-75913514D02*
X85815068Y-75799228D01*
X85815068Y-75799228D02*
X85815068Y-75713514D01*
X85815068Y-75713514D02*
X85843640Y-75599228D01*
X85843640Y-75599228D02*
X85872211Y-75542085D01*
X85872211Y-75542085D02*
X85929354Y-75484942D01*
X85929354Y-75484942D02*
X86015068Y-75456371D01*
X86015068Y-75456371D02*
X86072211Y-75456371D01*
X86072211Y-75456371D02*
X86157925Y-75484942D01*
X86157925Y-75484942D02*
X86186497Y-75513514D01*
X86557925Y-75456371D02*
X86672211Y-75456371D01*
X86672211Y-75456371D02*
X86729354Y-75484942D01*
X86729354Y-75484942D02*
X86786497Y-75542085D01*
X86786497Y-75542085D02*
X86815068Y-75656371D01*
X86815068Y-75656371D02*
X86815068Y-75856371D01*
X86815068Y-75856371D02*
X86786497Y-75970657D01*
X86786497Y-75970657D02*
X86729354Y-76027800D01*
X86729354Y-76027800D02*
X86672211Y-76056371D01*
X86672211Y-76056371D02*
X86557925Y-76056371D01*
X86557925Y-76056371D02*
X86500783Y-76027800D01*
X86500783Y-76027800D02*
X86443640Y-75970657D01*
X86443640Y-75970657D02*
X86415068Y-75856371D01*
X86415068Y-75856371D02*
X86415068Y-75656371D01*
X86415068Y-75656371D02*
X86443640Y-75542085D01*
X86443640Y-75542085D02*
X86500783Y-75484942D01*
X86500783Y-75484942D02*
X86557925Y-75456371D01*
X87357925Y-76056371D02*
X87072211Y-76056371D01*
X87072211Y-76056371D02*
X87072211Y-75456371D01*
X87872210Y-76056371D02*
X87529353Y-76056371D01*
X87700782Y-76056371D02*
X87700782Y-75456371D01*
X87700782Y-75456371D02*
X87643639Y-75542085D01*
X87643639Y-75542085D02*
X87586496Y-75599228D01*
X87586496Y-75599228D02*
X87529353Y-75627800D01*
X88129354Y-75827800D02*
X88586497Y-75827800D01*
X88872211Y-75827800D02*
X89329354Y-75827800D01*
X85562925Y-57962085D02*
X85648639Y-57990657D01*
X85648639Y-57990657D02*
X85677210Y-58019228D01*
X85677210Y-58019228D02*
X85705782Y-58076371D01*
X85705782Y-58076371D02*
X85705782Y-58162085D01*
X85705782Y-58162085D02*
X85677210Y-58219228D01*
X85677210Y-58219228D02*
X85648639Y-58247800D01*
X85648639Y-58247800D02*
X85591496Y-58276371D01*
X85591496Y-58276371D02*
X85362925Y-58276371D01*
X85362925Y-58276371D02*
X85362925Y-57676371D01*
X85362925Y-57676371D02*
X85562925Y-57676371D01*
X85562925Y-57676371D02*
X85620068Y-57704942D01*
X85620068Y-57704942D02*
X85648639Y-57733514D01*
X85648639Y-57733514D02*
X85677210Y-57790657D01*
X85677210Y-57790657D02*
X85677210Y-57847800D01*
X85677210Y-57847800D02*
X85648639Y-57904942D01*
X85648639Y-57904942D02*
X85620068Y-57933514D01*
X85620068Y-57933514D02*
X85562925Y-57962085D01*
X85562925Y-57962085D02*
X85362925Y-57962085D01*
X85934353Y-58104942D02*
X86220068Y-58104942D01*
X85877210Y-58276371D02*
X86077210Y-57676371D01*
X86077210Y-57676371D02*
X86277210Y-58276371D01*
X86391496Y-57676371D02*
X86734354Y-57676371D01*
X86562925Y-58276371D02*
X86562925Y-57676371D01*
X86848639Y-57676371D02*
X87191497Y-57676371D01*
X87020068Y-58276371D02*
X87020068Y-57676371D01*
X87391497Y-58047800D02*
X87848640Y-58047800D01*
X87620068Y-58276371D02*
X87620068Y-57819228D01*
X88134354Y-58047800D02*
X88591497Y-58047800D01*
X88877211Y-58047800D02*
X89334354Y-58047800D01*
X86620068Y-60244942D02*
X86562926Y-60216371D01*
X86562926Y-60216371D02*
X86477211Y-60216371D01*
X86477211Y-60216371D02*
X86391497Y-60244942D01*
X86391497Y-60244942D02*
X86334354Y-60302085D01*
X86334354Y-60302085D02*
X86305783Y-60359228D01*
X86305783Y-60359228D02*
X86277211Y-60473514D01*
X86277211Y-60473514D02*
X86277211Y-60559228D01*
X86277211Y-60559228D02*
X86305783Y-60673514D01*
X86305783Y-60673514D02*
X86334354Y-60730657D01*
X86334354Y-60730657D02*
X86391497Y-60787800D01*
X86391497Y-60787800D02*
X86477211Y-60816371D01*
X86477211Y-60816371D02*
X86534354Y-60816371D01*
X86534354Y-60816371D02*
X86620068Y-60787800D01*
X86620068Y-60787800D02*
X86648640Y-60759228D01*
X86648640Y-60759228D02*
X86648640Y-60559228D01*
X86648640Y-60559228D02*
X86534354Y-60559228D01*
X86905783Y-60816371D02*
X86905783Y-60216371D01*
X86905783Y-60216371D02*
X87248640Y-60816371D01*
X87248640Y-60816371D02*
X87248640Y-60216371D01*
X87534354Y-60816371D02*
X87534354Y-60216371D01*
X87534354Y-60216371D02*
X87677211Y-60216371D01*
X87677211Y-60216371D02*
X87762925Y-60244942D01*
X87762925Y-60244942D02*
X87820068Y-60302085D01*
X87820068Y-60302085D02*
X87848639Y-60359228D01*
X87848639Y-60359228D02*
X87877211Y-60473514D01*
X87877211Y-60473514D02*
X87877211Y-60559228D01*
X87877211Y-60559228D02*
X87848639Y-60673514D01*
X87848639Y-60673514D02*
X87820068Y-60730657D01*
X87820068Y-60730657D02*
X87762925Y-60787800D01*
X87762925Y-60787800D02*
X87677211Y-60816371D01*
X87677211Y-60816371D02*
X87534354Y-60816371D01*
X88134354Y-60587800D02*
X88591497Y-60587800D01*
X88877211Y-60587800D02*
X89334354Y-60587800D01*
X86848639Y-63356371D02*
X86648639Y-63070657D01*
X86505782Y-63356371D02*
X86505782Y-62756371D01*
X86505782Y-62756371D02*
X86734353Y-62756371D01*
X86734353Y-62756371D02*
X86791496Y-62784942D01*
X86791496Y-62784942D02*
X86820067Y-62813514D01*
X86820067Y-62813514D02*
X86848639Y-62870657D01*
X86848639Y-62870657D02*
X86848639Y-62956371D01*
X86848639Y-62956371D02*
X86820067Y-63013514D01*
X86820067Y-63013514D02*
X86791496Y-63042085D01*
X86791496Y-63042085D02*
X86734353Y-63070657D01*
X86734353Y-63070657D02*
X86505782Y-63070657D01*
X87077210Y-63327800D02*
X87162925Y-63356371D01*
X87162925Y-63356371D02*
X87305782Y-63356371D01*
X87305782Y-63356371D02*
X87362925Y-63327800D01*
X87362925Y-63327800D02*
X87391496Y-63299228D01*
X87391496Y-63299228D02*
X87420067Y-63242085D01*
X87420067Y-63242085D02*
X87420067Y-63184942D01*
X87420067Y-63184942D02*
X87391496Y-63127800D01*
X87391496Y-63127800D02*
X87362925Y-63099228D01*
X87362925Y-63099228D02*
X87305782Y-63070657D01*
X87305782Y-63070657D02*
X87191496Y-63042085D01*
X87191496Y-63042085D02*
X87134353Y-63013514D01*
X87134353Y-63013514D02*
X87105782Y-62984942D01*
X87105782Y-62984942D02*
X87077210Y-62927800D01*
X87077210Y-62927800D02*
X87077210Y-62870657D01*
X87077210Y-62870657D02*
X87105782Y-62813514D01*
X87105782Y-62813514D02*
X87134353Y-62784942D01*
X87134353Y-62784942D02*
X87191496Y-62756371D01*
X87191496Y-62756371D02*
X87334353Y-62756371D01*
X87334353Y-62756371D02*
X87420067Y-62784942D01*
X87591496Y-62756371D02*
X87934354Y-62756371D01*
X87762925Y-63356371D02*
X87762925Y-62756371D01*
X88134354Y-63127800D02*
X88591497Y-63127800D01*
X88877211Y-63127800D02*
X89334354Y-63127800D01*
X86334353Y-65296371D02*
X86534353Y-65896371D01*
X86534353Y-65896371D02*
X86734353Y-65296371D01*
X87277211Y-65839228D02*
X87248639Y-65867800D01*
X87248639Y-65867800D02*
X87162925Y-65896371D01*
X87162925Y-65896371D02*
X87105782Y-65896371D01*
X87105782Y-65896371D02*
X87020068Y-65867800D01*
X87020068Y-65867800D02*
X86962925Y-65810657D01*
X86962925Y-65810657D02*
X86934354Y-65753514D01*
X86934354Y-65753514D02*
X86905782Y-65639228D01*
X86905782Y-65639228D02*
X86905782Y-65553514D01*
X86905782Y-65553514D02*
X86934354Y-65439228D01*
X86934354Y-65439228D02*
X86962925Y-65382085D01*
X86962925Y-65382085D02*
X87020068Y-65324942D01*
X87020068Y-65324942D02*
X87105782Y-65296371D01*
X87105782Y-65296371D02*
X87162925Y-65296371D01*
X87162925Y-65296371D02*
X87248639Y-65324942D01*
X87248639Y-65324942D02*
X87277211Y-65353514D01*
X87877211Y-65839228D02*
X87848639Y-65867800D01*
X87848639Y-65867800D02*
X87762925Y-65896371D01*
X87762925Y-65896371D02*
X87705782Y-65896371D01*
X87705782Y-65896371D02*
X87620068Y-65867800D01*
X87620068Y-65867800D02*
X87562925Y-65810657D01*
X87562925Y-65810657D02*
X87534354Y-65753514D01*
X87534354Y-65753514D02*
X87505782Y-65639228D01*
X87505782Y-65639228D02*
X87505782Y-65553514D01*
X87505782Y-65553514D02*
X87534354Y-65439228D01*
X87534354Y-65439228D02*
X87562925Y-65382085D01*
X87562925Y-65382085D02*
X87620068Y-65324942D01*
X87620068Y-65324942D02*
X87705782Y-65296371D01*
X87705782Y-65296371D02*
X87762925Y-65296371D01*
X87762925Y-65296371D02*
X87848639Y-65324942D01*
X87848639Y-65324942D02*
X87877211Y-65353514D01*
X88134354Y-65667800D02*
X88591497Y-65667800D01*
X88877211Y-65667800D02*
X89334354Y-65667800D01*
X85391497Y-68122085D02*
X85591497Y-68122085D01*
X85677211Y-68436371D02*
X85391497Y-68436371D01*
X85391497Y-68436371D02*
X85391497Y-67836371D01*
X85391497Y-67836371D02*
X85677211Y-67836371D01*
X85934354Y-68436371D02*
X85934354Y-67836371D01*
X85934354Y-67836371D02*
X86277211Y-68436371D01*
X86277211Y-68436371D02*
X86277211Y-67836371D01*
X86905782Y-68379228D02*
X86877210Y-68407800D01*
X86877210Y-68407800D02*
X86791496Y-68436371D01*
X86791496Y-68436371D02*
X86734353Y-68436371D01*
X86734353Y-68436371D02*
X86648639Y-68407800D01*
X86648639Y-68407800D02*
X86591496Y-68350657D01*
X86591496Y-68350657D02*
X86562925Y-68293514D01*
X86562925Y-68293514D02*
X86534353Y-68179228D01*
X86534353Y-68179228D02*
X86534353Y-68093514D01*
X86534353Y-68093514D02*
X86562925Y-67979228D01*
X86562925Y-67979228D02*
X86591496Y-67922085D01*
X86591496Y-67922085D02*
X86648639Y-67864942D01*
X86648639Y-67864942D02*
X86734353Y-67836371D01*
X86734353Y-67836371D02*
X86791496Y-67836371D01*
X86791496Y-67836371D02*
X86877210Y-67864942D01*
X86877210Y-67864942D02*
X86905782Y-67893514D01*
X87591496Y-68264942D02*
X87877211Y-68264942D01*
X87534353Y-68436371D02*
X87734353Y-67836371D01*
X87734353Y-67836371D02*
X87934353Y-68436371D01*
X88134354Y-68207800D02*
X88591497Y-68207800D01*
X88877211Y-68207800D02*
X89334354Y-68207800D01*
X85305783Y-70662085D02*
X85505783Y-70662085D01*
X85591497Y-70976371D02*
X85305783Y-70976371D01*
X85305783Y-70976371D02*
X85305783Y-70376371D01*
X85305783Y-70376371D02*
X85591497Y-70376371D01*
X85848640Y-70976371D02*
X85848640Y-70376371D01*
X85848640Y-70376371D02*
X86191497Y-70976371D01*
X86191497Y-70976371D02*
X86191497Y-70376371D01*
X86820068Y-70919228D02*
X86791496Y-70947800D01*
X86791496Y-70947800D02*
X86705782Y-70976371D01*
X86705782Y-70976371D02*
X86648639Y-70976371D01*
X86648639Y-70976371D02*
X86562925Y-70947800D01*
X86562925Y-70947800D02*
X86505782Y-70890657D01*
X86505782Y-70890657D02*
X86477211Y-70833514D01*
X86477211Y-70833514D02*
X86448639Y-70719228D01*
X86448639Y-70719228D02*
X86448639Y-70633514D01*
X86448639Y-70633514D02*
X86477211Y-70519228D01*
X86477211Y-70519228D02*
X86505782Y-70462085D01*
X86505782Y-70462085D02*
X86562925Y-70404942D01*
X86562925Y-70404942D02*
X86648639Y-70376371D01*
X86648639Y-70376371D02*
X86705782Y-70376371D01*
X86705782Y-70376371D02*
X86791496Y-70404942D01*
X86791496Y-70404942D02*
X86820068Y-70433514D01*
X87734354Y-70662085D02*
X87820068Y-70690657D01*
X87820068Y-70690657D02*
X87848639Y-70719228D01*
X87848639Y-70719228D02*
X87877211Y-70776371D01*
X87877211Y-70776371D02*
X87877211Y-70862085D01*
X87877211Y-70862085D02*
X87848639Y-70919228D01*
X87848639Y-70919228D02*
X87820068Y-70947800D01*
X87820068Y-70947800D02*
X87762925Y-70976371D01*
X87762925Y-70976371D02*
X87534354Y-70976371D01*
X87534354Y-70976371D02*
X87534354Y-70376371D01*
X87534354Y-70376371D02*
X87734354Y-70376371D01*
X87734354Y-70376371D02*
X87791497Y-70404942D01*
X87791497Y-70404942D02*
X87820068Y-70433514D01*
X87820068Y-70433514D02*
X87848639Y-70490657D01*
X87848639Y-70490657D02*
X87848639Y-70547800D01*
X87848639Y-70547800D02*
X87820068Y-70604942D01*
X87820068Y-70604942D02*
X87791497Y-70633514D01*
X87791497Y-70633514D02*
X87734354Y-70662085D01*
X87734354Y-70662085D02*
X87534354Y-70662085D01*
X88134354Y-70747800D02*
X88591497Y-70747800D01*
X88877211Y-70747800D02*
X89334354Y-70747800D01*
X86191497Y-73459228D02*
X86162925Y-73487800D01*
X86162925Y-73487800D02*
X86077211Y-73516371D01*
X86077211Y-73516371D02*
X86020068Y-73516371D01*
X86020068Y-73516371D02*
X85934354Y-73487800D01*
X85934354Y-73487800D02*
X85877211Y-73430657D01*
X85877211Y-73430657D02*
X85848640Y-73373514D01*
X85848640Y-73373514D02*
X85820068Y-73259228D01*
X85820068Y-73259228D02*
X85820068Y-73173514D01*
X85820068Y-73173514D02*
X85848640Y-73059228D01*
X85848640Y-73059228D02*
X85877211Y-73002085D01*
X85877211Y-73002085D02*
X85934354Y-72944942D01*
X85934354Y-72944942D02*
X86020068Y-72916371D01*
X86020068Y-72916371D02*
X86077211Y-72916371D01*
X86077211Y-72916371D02*
X86162925Y-72944942D01*
X86162925Y-72944942D02*
X86191497Y-72973514D01*
X86562925Y-72916371D02*
X86677211Y-72916371D01*
X86677211Y-72916371D02*
X86734354Y-72944942D01*
X86734354Y-72944942D02*
X86791497Y-73002085D01*
X86791497Y-73002085D02*
X86820068Y-73116371D01*
X86820068Y-73116371D02*
X86820068Y-73316371D01*
X86820068Y-73316371D02*
X86791497Y-73430657D01*
X86791497Y-73430657D02*
X86734354Y-73487800D01*
X86734354Y-73487800D02*
X86677211Y-73516371D01*
X86677211Y-73516371D02*
X86562925Y-73516371D01*
X86562925Y-73516371D02*
X86505783Y-73487800D01*
X86505783Y-73487800D02*
X86448640Y-73430657D01*
X86448640Y-73430657D02*
X86420068Y-73316371D01*
X86420068Y-73316371D02*
X86420068Y-73116371D01*
X86420068Y-73116371D02*
X86448640Y-73002085D01*
X86448640Y-73002085D02*
X86505783Y-72944942D01*
X86505783Y-72944942D02*
X86562925Y-72916371D01*
X87362925Y-73516371D02*
X87077211Y-73516371D01*
X87077211Y-73516371D02*
X87077211Y-72916371D01*
X87677210Y-72916371D02*
X87734353Y-72916371D01*
X87734353Y-72916371D02*
X87791496Y-72944942D01*
X87791496Y-72944942D02*
X87820068Y-72973514D01*
X87820068Y-72973514D02*
X87848639Y-73030657D01*
X87848639Y-73030657D02*
X87877210Y-73144942D01*
X87877210Y-73144942D02*
X87877210Y-73287800D01*
X87877210Y-73287800D02*
X87848639Y-73402085D01*
X87848639Y-73402085D02*
X87820068Y-73459228D01*
X87820068Y-73459228D02*
X87791496Y-73487800D01*
X87791496Y-73487800D02*
X87734353Y-73516371D01*
X87734353Y-73516371D02*
X87677210Y-73516371D01*
X87677210Y-73516371D02*
X87620068Y-73487800D01*
X87620068Y-73487800D02*
X87591496Y-73459228D01*
X87591496Y-73459228D02*
X87562925Y-73402085D01*
X87562925Y-73402085D02*
X87534353Y-73287800D01*
X87534353Y-73287800D02*
X87534353Y-73144942D01*
X87534353Y-73144942D02*
X87562925Y-73030657D01*
X87562925Y-73030657D02*
X87591496Y-72973514D01*
X87591496Y-72973514D02*
X87620068Y-72944942D01*
X87620068Y-72944942D02*
X87677210Y-72916371D01*
X88134354Y-73287800D02*
X88591497Y-73287800D01*
X88877211Y-73287800D02*
X89334354Y-73287800D01*
X86191497Y-78539228D02*
X86162925Y-78567800D01*
X86162925Y-78567800D02*
X86077211Y-78596371D01*
X86077211Y-78596371D02*
X86020068Y-78596371D01*
X86020068Y-78596371D02*
X85934354Y-78567800D01*
X85934354Y-78567800D02*
X85877211Y-78510657D01*
X85877211Y-78510657D02*
X85848640Y-78453514D01*
X85848640Y-78453514D02*
X85820068Y-78339228D01*
X85820068Y-78339228D02*
X85820068Y-78253514D01*
X85820068Y-78253514D02*
X85848640Y-78139228D01*
X85848640Y-78139228D02*
X85877211Y-78082085D01*
X85877211Y-78082085D02*
X85934354Y-78024942D01*
X85934354Y-78024942D02*
X86020068Y-77996371D01*
X86020068Y-77996371D02*
X86077211Y-77996371D01*
X86077211Y-77996371D02*
X86162925Y-78024942D01*
X86162925Y-78024942D02*
X86191497Y-78053514D01*
X86562925Y-77996371D02*
X86677211Y-77996371D01*
X86677211Y-77996371D02*
X86734354Y-78024942D01*
X86734354Y-78024942D02*
X86791497Y-78082085D01*
X86791497Y-78082085D02*
X86820068Y-78196371D01*
X86820068Y-78196371D02*
X86820068Y-78396371D01*
X86820068Y-78396371D02*
X86791497Y-78510657D01*
X86791497Y-78510657D02*
X86734354Y-78567800D01*
X86734354Y-78567800D02*
X86677211Y-78596371D01*
X86677211Y-78596371D02*
X86562925Y-78596371D01*
X86562925Y-78596371D02*
X86505783Y-78567800D01*
X86505783Y-78567800D02*
X86448640Y-78510657D01*
X86448640Y-78510657D02*
X86420068Y-78396371D01*
X86420068Y-78396371D02*
X86420068Y-78196371D01*
X86420068Y-78196371D02*
X86448640Y-78082085D01*
X86448640Y-78082085D02*
X86505783Y-78024942D01*
X86505783Y-78024942D02*
X86562925Y-77996371D01*
X87362925Y-78596371D02*
X87077211Y-78596371D01*
X87077211Y-78596371D02*
X87077211Y-77996371D01*
X87534353Y-78053514D02*
X87562925Y-78024942D01*
X87562925Y-78024942D02*
X87620068Y-77996371D01*
X87620068Y-77996371D02*
X87762925Y-77996371D01*
X87762925Y-77996371D02*
X87820068Y-78024942D01*
X87820068Y-78024942D02*
X87848639Y-78053514D01*
X87848639Y-78053514D02*
X87877210Y-78110657D01*
X87877210Y-78110657D02*
X87877210Y-78167800D01*
X87877210Y-78167800D02*
X87848639Y-78253514D01*
X87848639Y-78253514D02*
X87505782Y-78596371D01*
X87505782Y-78596371D02*
X87877210Y-78596371D01*
X88134354Y-78367800D02*
X88591497Y-78367800D01*
X88877211Y-78367800D02*
X89334354Y-78367800D01*
X86191497Y-81079228D02*
X86162925Y-81107800D01*
X86162925Y-81107800D02*
X86077211Y-81136371D01*
X86077211Y-81136371D02*
X86020068Y-81136371D01*
X86020068Y-81136371D02*
X85934354Y-81107800D01*
X85934354Y-81107800D02*
X85877211Y-81050657D01*
X85877211Y-81050657D02*
X85848640Y-80993514D01*
X85848640Y-80993514D02*
X85820068Y-80879228D01*
X85820068Y-80879228D02*
X85820068Y-80793514D01*
X85820068Y-80793514D02*
X85848640Y-80679228D01*
X85848640Y-80679228D02*
X85877211Y-80622085D01*
X85877211Y-80622085D02*
X85934354Y-80564942D01*
X85934354Y-80564942D02*
X86020068Y-80536371D01*
X86020068Y-80536371D02*
X86077211Y-80536371D01*
X86077211Y-80536371D02*
X86162925Y-80564942D01*
X86162925Y-80564942D02*
X86191497Y-80593514D01*
X86562925Y-80536371D02*
X86677211Y-80536371D01*
X86677211Y-80536371D02*
X86734354Y-80564942D01*
X86734354Y-80564942D02*
X86791497Y-80622085D01*
X86791497Y-80622085D02*
X86820068Y-80736371D01*
X86820068Y-80736371D02*
X86820068Y-80936371D01*
X86820068Y-80936371D02*
X86791497Y-81050657D01*
X86791497Y-81050657D02*
X86734354Y-81107800D01*
X86734354Y-81107800D02*
X86677211Y-81136371D01*
X86677211Y-81136371D02*
X86562925Y-81136371D01*
X86562925Y-81136371D02*
X86505783Y-81107800D01*
X86505783Y-81107800D02*
X86448640Y-81050657D01*
X86448640Y-81050657D02*
X86420068Y-80936371D01*
X86420068Y-80936371D02*
X86420068Y-80736371D01*
X86420068Y-80736371D02*
X86448640Y-80622085D01*
X86448640Y-80622085D02*
X86505783Y-80564942D01*
X86505783Y-80564942D02*
X86562925Y-80536371D01*
X87362925Y-81136371D02*
X87077211Y-81136371D01*
X87077211Y-81136371D02*
X87077211Y-80536371D01*
X87505782Y-80536371D02*
X87877210Y-80536371D01*
X87877210Y-80536371D02*
X87677210Y-80764942D01*
X87677210Y-80764942D02*
X87762925Y-80764942D01*
X87762925Y-80764942D02*
X87820068Y-80793514D01*
X87820068Y-80793514D02*
X87848639Y-80822085D01*
X87848639Y-80822085D02*
X87877210Y-80879228D01*
X87877210Y-80879228D02*
X87877210Y-81022085D01*
X87877210Y-81022085D02*
X87848639Y-81079228D01*
X87848639Y-81079228D02*
X87820068Y-81107800D01*
X87820068Y-81107800D02*
X87762925Y-81136371D01*
X87762925Y-81136371D02*
X87591496Y-81136371D01*
X87591496Y-81136371D02*
X87534353Y-81107800D01*
X87534353Y-81107800D02*
X87505782Y-81079228D01*
X88134354Y-80907800D02*
X88591497Y-80907800D01*
X88877211Y-80907800D02*
X89334354Y-80907800D01*
X86191497Y-83619228D02*
X86162925Y-83647800D01*
X86162925Y-83647800D02*
X86077211Y-83676371D01*
X86077211Y-83676371D02*
X86020068Y-83676371D01*
X86020068Y-83676371D02*
X85934354Y-83647800D01*
X85934354Y-83647800D02*
X85877211Y-83590657D01*
X85877211Y-83590657D02*
X85848640Y-83533514D01*
X85848640Y-83533514D02*
X85820068Y-83419228D01*
X85820068Y-83419228D02*
X85820068Y-83333514D01*
X85820068Y-83333514D02*
X85848640Y-83219228D01*
X85848640Y-83219228D02*
X85877211Y-83162085D01*
X85877211Y-83162085D02*
X85934354Y-83104942D01*
X85934354Y-83104942D02*
X86020068Y-83076371D01*
X86020068Y-83076371D02*
X86077211Y-83076371D01*
X86077211Y-83076371D02*
X86162925Y-83104942D01*
X86162925Y-83104942D02*
X86191497Y-83133514D01*
X86562925Y-83076371D02*
X86677211Y-83076371D01*
X86677211Y-83076371D02*
X86734354Y-83104942D01*
X86734354Y-83104942D02*
X86791497Y-83162085D01*
X86791497Y-83162085D02*
X86820068Y-83276371D01*
X86820068Y-83276371D02*
X86820068Y-83476371D01*
X86820068Y-83476371D02*
X86791497Y-83590657D01*
X86791497Y-83590657D02*
X86734354Y-83647800D01*
X86734354Y-83647800D02*
X86677211Y-83676371D01*
X86677211Y-83676371D02*
X86562925Y-83676371D01*
X86562925Y-83676371D02*
X86505783Y-83647800D01*
X86505783Y-83647800D02*
X86448640Y-83590657D01*
X86448640Y-83590657D02*
X86420068Y-83476371D01*
X86420068Y-83476371D02*
X86420068Y-83276371D01*
X86420068Y-83276371D02*
X86448640Y-83162085D01*
X86448640Y-83162085D02*
X86505783Y-83104942D01*
X86505783Y-83104942D02*
X86562925Y-83076371D01*
X87362925Y-83676371D02*
X87077211Y-83676371D01*
X87077211Y-83676371D02*
X87077211Y-83076371D01*
X87820068Y-83276371D02*
X87820068Y-83676371D01*
X87677210Y-83047800D02*
X87534353Y-83476371D01*
X87534353Y-83476371D02*
X87905782Y-83476371D01*
X88134354Y-83447800D02*
X88591497Y-83447800D01*
X88877211Y-83447800D02*
X89334354Y-83447800D01*
X86191497Y-86159228D02*
X86162925Y-86187800D01*
X86162925Y-86187800D02*
X86077211Y-86216371D01*
X86077211Y-86216371D02*
X86020068Y-86216371D01*
X86020068Y-86216371D02*
X85934354Y-86187800D01*
X85934354Y-86187800D02*
X85877211Y-86130657D01*
X85877211Y-86130657D02*
X85848640Y-86073514D01*
X85848640Y-86073514D02*
X85820068Y-85959228D01*
X85820068Y-85959228D02*
X85820068Y-85873514D01*
X85820068Y-85873514D02*
X85848640Y-85759228D01*
X85848640Y-85759228D02*
X85877211Y-85702085D01*
X85877211Y-85702085D02*
X85934354Y-85644942D01*
X85934354Y-85644942D02*
X86020068Y-85616371D01*
X86020068Y-85616371D02*
X86077211Y-85616371D01*
X86077211Y-85616371D02*
X86162925Y-85644942D01*
X86162925Y-85644942D02*
X86191497Y-85673514D01*
X86562925Y-85616371D02*
X86677211Y-85616371D01*
X86677211Y-85616371D02*
X86734354Y-85644942D01*
X86734354Y-85644942D02*
X86791497Y-85702085D01*
X86791497Y-85702085D02*
X86820068Y-85816371D01*
X86820068Y-85816371D02*
X86820068Y-86016371D01*
X86820068Y-86016371D02*
X86791497Y-86130657D01*
X86791497Y-86130657D02*
X86734354Y-86187800D01*
X86734354Y-86187800D02*
X86677211Y-86216371D01*
X86677211Y-86216371D02*
X86562925Y-86216371D01*
X86562925Y-86216371D02*
X86505783Y-86187800D01*
X86505783Y-86187800D02*
X86448640Y-86130657D01*
X86448640Y-86130657D02*
X86420068Y-86016371D01*
X86420068Y-86016371D02*
X86420068Y-85816371D01*
X86420068Y-85816371D02*
X86448640Y-85702085D01*
X86448640Y-85702085D02*
X86505783Y-85644942D01*
X86505783Y-85644942D02*
X86562925Y-85616371D01*
X87362925Y-86216371D02*
X87077211Y-86216371D01*
X87077211Y-86216371D02*
X87077211Y-85616371D01*
X87848639Y-85616371D02*
X87562925Y-85616371D01*
X87562925Y-85616371D02*
X87534353Y-85902085D01*
X87534353Y-85902085D02*
X87562925Y-85873514D01*
X87562925Y-85873514D02*
X87620068Y-85844942D01*
X87620068Y-85844942D02*
X87762925Y-85844942D01*
X87762925Y-85844942D02*
X87820068Y-85873514D01*
X87820068Y-85873514D02*
X87848639Y-85902085D01*
X87848639Y-85902085D02*
X87877210Y-85959228D01*
X87877210Y-85959228D02*
X87877210Y-86102085D01*
X87877210Y-86102085D02*
X87848639Y-86159228D01*
X87848639Y-86159228D02*
X87820068Y-86187800D01*
X87820068Y-86187800D02*
X87762925Y-86216371D01*
X87762925Y-86216371D02*
X87620068Y-86216371D01*
X87620068Y-86216371D02*
X87562925Y-86187800D01*
X87562925Y-86187800D02*
X87534353Y-86159228D01*
X88134354Y-85987800D02*
X88591497Y-85987800D01*
X88877211Y-85987800D02*
X89334354Y-85987800D01*
D10*
X92559398Y-105319771D02*
X92359398Y-105034057D01*
X92216541Y-105319771D02*
X92216541Y-104719771D01*
X92216541Y-104719771D02*
X92445112Y-104719771D01*
X92445112Y-104719771D02*
X92502255Y-104748342D01*
X92502255Y-104748342D02*
X92530826Y-104776914D01*
X92530826Y-104776914D02*
X92559398Y-104834057D01*
X92559398Y-104834057D02*
X92559398Y-104919771D01*
X92559398Y-104919771D02*
X92530826Y-104976914D01*
X92530826Y-104976914D02*
X92502255Y-105005485D01*
X92502255Y-105005485D02*
X92445112Y-105034057D01*
X92445112Y-105034057D02*
X92216541Y-105034057D01*
X92816541Y-105005485D02*
X93016541Y-105005485D01*
X93102255Y-105319771D02*
X92816541Y-105319771D01*
X92816541Y-105319771D02*
X92816541Y-104719771D01*
X92816541Y-104719771D02*
X93102255Y-104719771D01*
X93359398Y-105319771D02*
X93359398Y-104719771D01*
X93359398Y-104719771D02*
X93502255Y-104719771D01*
X93502255Y-104719771D02*
X93587969Y-104748342D01*
X93587969Y-104748342D02*
X93645112Y-104805485D01*
X93645112Y-104805485D02*
X93673683Y-104862628D01*
X93673683Y-104862628D02*
X93702255Y-104976914D01*
X93702255Y-104976914D02*
X93702255Y-105062628D01*
X93702255Y-105062628D02*
X93673683Y-105176914D01*
X93673683Y-105176914D02*
X93645112Y-105234057D01*
X93645112Y-105234057D02*
X93587969Y-105291200D01*
X93587969Y-105291200D02*
X93502255Y-105319771D01*
X93502255Y-105319771D02*
X93359398Y-105319771D01*
X92416541Y-106405485D02*
X92502255Y-106434057D01*
X92502255Y-106434057D02*
X92530826Y-106462628D01*
X92530826Y-106462628D02*
X92559398Y-106519771D01*
X92559398Y-106519771D02*
X92559398Y-106605485D01*
X92559398Y-106605485D02*
X92530826Y-106662628D01*
X92530826Y-106662628D02*
X92502255Y-106691200D01*
X92502255Y-106691200D02*
X92445112Y-106719771D01*
X92445112Y-106719771D02*
X92216541Y-106719771D01*
X92216541Y-106719771D02*
X92216541Y-106119771D01*
X92216541Y-106119771D02*
X92416541Y-106119771D01*
X92416541Y-106119771D02*
X92473684Y-106148342D01*
X92473684Y-106148342D02*
X92502255Y-106176914D01*
X92502255Y-106176914D02*
X92530826Y-106234057D01*
X92530826Y-106234057D02*
X92530826Y-106291200D01*
X92530826Y-106291200D02*
X92502255Y-106348342D01*
X92502255Y-106348342D02*
X92473684Y-106376914D01*
X92473684Y-106376914D02*
X92416541Y-106405485D01*
X92416541Y-106405485D02*
X92216541Y-106405485D01*
X93102255Y-106719771D02*
X92816541Y-106719771D01*
X92816541Y-106719771D02*
X92816541Y-106119771D01*
X93302255Y-106719771D02*
X93302255Y-106119771D01*
X93645112Y-106719771D02*
X93387969Y-106376914D01*
X93645112Y-106119771D02*
X93302255Y-106462628D01*
D12*
X91674714Y-103909626D02*
X91783572Y-103945911D01*
X91783572Y-103945911D02*
X91965000Y-103945911D01*
X91965000Y-103945911D02*
X92037572Y-103909626D01*
X92037572Y-103909626D02*
X92073857Y-103873340D01*
X92073857Y-103873340D02*
X92110143Y-103800768D01*
X92110143Y-103800768D02*
X92110143Y-103728197D01*
X92110143Y-103728197D02*
X92073857Y-103655626D01*
X92073857Y-103655626D02*
X92037572Y-103619340D01*
X92037572Y-103619340D02*
X91965000Y-103583054D01*
X91965000Y-103583054D02*
X91819857Y-103546768D01*
X91819857Y-103546768D02*
X91747286Y-103510483D01*
X91747286Y-103510483D02*
X91711000Y-103474197D01*
X91711000Y-103474197D02*
X91674714Y-103401626D01*
X91674714Y-103401626D02*
X91674714Y-103329054D01*
X91674714Y-103329054D02*
X91711000Y-103256483D01*
X91711000Y-103256483D02*
X91747286Y-103220197D01*
X91747286Y-103220197D02*
X91819857Y-103183911D01*
X91819857Y-103183911D02*
X92001286Y-103183911D01*
X92001286Y-103183911D02*
X92110143Y-103220197D01*
X92436714Y-103945911D02*
X92436714Y-103183911D01*
X92436714Y-103183911D02*
X92618143Y-103183911D01*
X92618143Y-103183911D02*
X92727000Y-103220197D01*
X92727000Y-103220197D02*
X92799571Y-103292768D01*
X92799571Y-103292768D02*
X92835857Y-103365340D01*
X92835857Y-103365340D02*
X92872143Y-103510483D01*
X92872143Y-103510483D02*
X92872143Y-103619340D01*
X92872143Y-103619340D02*
X92835857Y-103764483D01*
X92835857Y-103764483D02*
X92799571Y-103837054D01*
X92799571Y-103837054D02*
X92727000Y-103909626D01*
X92727000Y-103909626D02*
X92618143Y-103945911D01*
X92618143Y-103945911D02*
X92436714Y-103945911D01*
X93162428Y-103728197D02*
X93525286Y-103728197D01*
X93089857Y-103945911D02*
X93343857Y-103183911D01*
X93343857Y-103183911D02*
X93597857Y-103945911D01*
X94157517Y-103925626D02*
X94266375Y-103961911D01*
X94266375Y-103961911D02*
X94447803Y-103961911D01*
X94447803Y-103961911D02*
X94520375Y-103925626D01*
X94520375Y-103925626D02*
X94556660Y-103889340D01*
X94556660Y-103889340D02*
X94592946Y-103816768D01*
X94592946Y-103816768D02*
X94592946Y-103744197D01*
X94592946Y-103744197D02*
X94556660Y-103671626D01*
X94556660Y-103671626D02*
X94520375Y-103635340D01*
X94520375Y-103635340D02*
X94447803Y-103599054D01*
X94447803Y-103599054D02*
X94302660Y-103562768D01*
X94302660Y-103562768D02*
X94230089Y-103526483D01*
X94230089Y-103526483D02*
X94193803Y-103490197D01*
X94193803Y-103490197D02*
X94157517Y-103417626D01*
X94157517Y-103417626D02*
X94157517Y-103345054D01*
X94157517Y-103345054D02*
X94193803Y-103272483D01*
X94193803Y-103272483D02*
X94230089Y-103236197D01*
X94230089Y-103236197D02*
X94302660Y-103199911D01*
X94302660Y-103199911D02*
X94484089Y-103199911D01*
X94484089Y-103199911D02*
X94592946Y-103236197D01*
X95354946Y-103889340D02*
X95318660Y-103925626D01*
X95318660Y-103925626D02*
X95209803Y-103961911D01*
X95209803Y-103961911D02*
X95137231Y-103961911D01*
X95137231Y-103961911D02*
X95028374Y-103925626D01*
X95028374Y-103925626D02*
X94955803Y-103853054D01*
X94955803Y-103853054D02*
X94919517Y-103780483D01*
X94919517Y-103780483D02*
X94883231Y-103635340D01*
X94883231Y-103635340D02*
X94883231Y-103526483D01*
X94883231Y-103526483D02*
X94919517Y-103381340D01*
X94919517Y-103381340D02*
X94955803Y-103308768D01*
X94955803Y-103308768D02*
X95028374Y-103236197D01*
X95028374Y-103236197D02*
X95137231Y-103199911D01*
X95137231Y-103199911D02*
X95209803Y-103199911D01*
X95209803Y-103199911D02*
X95318660Y-103236197D01*
X95318660Y-103236197D02*
X95354946Y-103272483D01*
X96044374Y-103961911D02*
X95681517Y-103961911D01*
X95681517Y-103961911D02*
X95681517Y-103199911D01*
X96538000Y-103199911D02*
X96792000Y-103961911D01*
X96792000Y-103961911D02*
X97046000Y-103199911D01*
X97735429Y-103889340D02*
X97699143Y-103925626D01*
X97699143Y-103925626D02*
X97590286Y-103961911D01*
X97590286Y-103961911D02*
X97517714Y-103961911D01*
X97517714Y-103961911D02*
X97408857Y-103925626D01*
X97408857Y-103925626D02*
X97336286Y-103853054D01*
X97336286Y-103853054D02*
X97300000Y-103780483D01*
X97300000Y-103780483D02*
X97263714Y-103635340D01*
X97263714Y-103635340D02*
X97263714Y-103526483D01*
X97263714Y-103526483D02*
X97300000Y-103381340D01*
X97300000Y-103381340D02*
X97336286Y-103308768D01*
X97336286Y-103308768D02*
X97408857Y-103236197D01*
X97408857Y-103236197D02*
X97517714Y-103199911D01*
X97517714Y-103199911D02*
X97590286Y-103199911D01*
X97590286Y-103199911D02*
X97699143Y-103236197D01*
X97699143Y-103236197D02*
X97735429Y-103272483D01*
X98497429Y-103889340D02*
X98461143Y-103925626D01*
X98461143Y-103925626D02*
X98352286Y-103961911D01*
X98352286Y-103961911D02*
X98279714Y-103961911D01*
X98279714Y-103961911D02*
X98170857Y-103925626D01*
X98170857Y-103925626D02*
X98098286Y-103853054D01*
X98098286Y-103853054D02*
X98062000Y-103780483D01*
X98062000Y-103780483D02*
X98025714Y-103635340D01*
X98025714Y-103635340D02*
X98025714Y-103526483D01*
X98025714Y-103526483D02*
X98062000Y-103381340D01*
X98062000Y-103381340D02*
X98098286Y-103308768D01*
X98098286Y-103308768D02*
X98170857Y-103236197D01*
X98170857Y-103236197D02*
X98279714Y-103199911D01*
X98279714Y-103199911D02*
X98352286Y-103199911D01*
X98352286Y-103199911D02*
X98461143Y-103236197D01*
X98461143Y-103236197D02*
X98497429Y-103272483D01*
X99618715Y-103236197D02*
X99546144Y-103199911D01*
X99546144Y-103199911D02*
X99437286Y-103199911D01*
X99437286Y-103199911D02*
X99328429Y-103236197D01*
X99328429Y-103236197D02*
X99255858Y-103308768D01*
X99255858Y-103308768D02*
X99219572Y-103381340D01*
X99219572Y-103381340D02*
X99183286Y-103526483D01*
X99183286Y-103526483D02*
X99183286Y-103635340D01*
X99183286Y-103635340D02*
X99219572Y-103780483D01*
X99219572Y-103780483D02*
X99255858Y-103853054D01*
X99255858Y-103853054D02*
X99328429Y-103925626D01*
X99328429Y-103925626D02*
X99437286Y-103961911D01*
X99437286Y-103961911D02*
X99509858Y-103961911D01*
X99509858Y-103961911D02*
X99618715Y-103925626D01*
X99618715Y-103925626D02*
X99655001Y-103889340D01*
X99655001Y-103889340D02*
X99655001Y-103635340D01*
X99655001Y-103635340D02*
X99509858Y-103635340D01*
X99981572Y-103961911D02*
X99981572Y-103199911D01*
X99981572Y-103199911D02*
X100417001Y-103961911D01*
X100417001Y-103961911D02*
X100417001Y-103199911D01*
X100779858Y-103961911D02*
X100779858Y-103199911D01*
X100779858Y-103199911D02*
X100961287Y-103199911D01*
X100961287Y-103199911D02*
X101070144Y-103236197D01*
X101070144Y-103236197D02*
X101142715Y-103308768D01*
X101142715Y-103308768D02*
X101179001Y-103381340D01*
X101179001Y-103381340D02*
X101215287Y-103526483D01*
X101215287Y-103526483D02*
X101215287Y-103635340D01*
X101215287Y-103635340D02*
X101179001Y-103780483D01*
X101179001Y-103780483D02*
X101142715Y-103853054D01*
X101142715Y-103853054D02*
X101070144Y-103925626D01*
X101070144Y-103925626D02*
X100961287Y-103961911D01*
X100961287Y-103961911D02*
X100779858Y-103961911D01*
X136969341Y-116188626D02*
X137078199Y-116224911D01*
X137078199Y-116224911D02*
X137259627Y-116224911D01*
X137259627Y-116224911D02*
X137332199Y-116188626D01*
X137332199Y-116188626D02*
X137368484Y-116152340D01*
X137368484Y-116152340D02*
X137404770Y-116079768D01*
X137404770Y-116079768D02*
X137404770Y-116007197D01*
X137404770Y-116007197D02*
X137368484Y-115934626D01*
X137368484Y-115934626D02*
X137332199Y-115898340D01*
X137332199Y-115898340D02*
X137259627Y-115862054D01*
X137259627Y-115862054D02*
X137114484Y-115825768D01*
X137114484Y-115825768D02*
X137041913Y-115789483D01*
X137041913Y-115789483D02*
X137005627Y-115753197D01*
X137005627Y-115753197D02*
X136969341Y-115680626D01*
X136969341Y-115680626D02*
X136969341Y-115608054D01*
X136969341Y-115608054D02*
X137005627Y-115535483D01*
X137005627Y-115535483D02*
X137041913Y-115499197D01*
X137041913Y-115499197D02*
X137114484Y-115462911D01*
X137114484Y-115462911D02*
X137295913Y-115462911D01*
X137295913Y-115462911D02*
X137404770Y-115499197D01*
X137731341Y-116224911D02*
X137731341Y-115462911D01*
X137731341Y-115462911D02*
X137912770Y-115462911D01*
X137912770Y-115462911D02*
X138021627Y-115499197D01*
X138021627Y-115499197D02*
X138094198Y-115571768D01*
X138094198Y-115571768D02*
X138130484Y-115644340D01*
X138130484Y-115644340D02*
X138166770Y-115789483D01*
X138166770Y-115789483D02*
X138166770Y-115898340D01*
X138166770Y-115898340D02*
X138130484Y-116043483D01*
X138130484Y-116043483D02*
X138094198Y-116116054D01*
X138094198Y-116116054D02*
X138021627Y-116188626D01*
X138021627Y-116188626D02*
X137912770Y-116224911D01*
X137912770Y-116224911D02*
X137731341Y-116224911D01*
X138457055Y-116007197D02*
X138819913Y-116007197D01*
X138384484Y-116224911D02*
X138638484Y-115462911D01*
X138638484Y-115462911D02*
X138892484Y-116224911D01*
X139552857Y-116188626D02*
X139661715Y-116224911D01*
X139661715Y-116224911D02*
X139843143Y-116224911D01*
X139843143Y-116224911D02*
X139915715Y-116188626D01*
X139915715Y-116188626D02*
X139952000Y-116152340D01*
X139952000Y-116152340D02*
X139988286Y-116079768D01*
X139988286Y-116079768D02*
X139988286Y-116007197D01*
X139988286Y-116007197D02*
X139952000Y-115934626D01*
X139952000Y-115934626D02*
X139915715Y-115898340D01*
X139915715Y-115898340D02*
X139843143Y-115862054D01*
X139843143Y-115862054D02*
X139698000Y-115825768D01*
X139698000Y-115825768D02*
X139625429Y-115789483D01*
X139625429Y-115789483D02*
X139589143Y-115753197D01*
X139589143Y-115753197D02*
X139552857Y-115680626D01*
X139552857Y-115680626D02*
X139552857Y-115608054D01*
X139552857Y-115608054D02*
X139589143Y-115535483D01*
X139589143Y-115535483D02*
X139625429Y-115499197D01*
X139625429Y-115499197D02*
X139698000Y-115462911D01*
X139698000Y-115462911D02*
X139879429Y-115462911D01*
X139879429Y-115462911D02*
X139988286Y-115499197D01*
X140750286Y-116152340D02*
X140714000Y-116188626D01*
X140714000Y-116188626D02*
X140605143Y-116224911D01*
X140605143Y-116224911D02*
X140532571Y-116224911D01*
X140532571Y-116224911D02*
X140423714Y-116188626D01*
X140423714Y-116188626D02*
X140351143Y-116116054D01*
X140351143Y-116116054D02*
X140314857Y-116043483D01*
X140314857Y-116043483D02*
X140278571Y-115898340D01*
X140278571Y-115898340D02*
X140278571Y-115789483D01*
X140278571Y-115789483D02*
X140314857Y-115644340D01*
X140314857Y-115644340D02*
X140351143Y-115571768D01*
X140351143Y-115571768D02*
X140423714Y-115499197D01*
X140423714Y-115499197D02*
X140532571Y-115462911D01*
X140532571Y-115462911D02*
X140605143Y-115462911D01*
X140605143Y-115462911D02*
X140714000Y-115499197D01*
X140714000Y-115499197D02*
X140750286Y-115535483D01*
X141439714Y-116224911D02*
X141076857Y-116224911D01*
X141076857Y-116224911D02*
X141076857Y-115462911D01*
X141933340Y-115462911D02*
X142187340Y-116224911D01*
X142187340Y-116224911D02*
X142441340Y-115462911D01*
X143130769Y-116152340D02*
X143094483Y-116188626D01*
X143094483Y-116188626D02*
X142985626Y-116224911D01*
X142985626Y-116224911D02*
X142913054Y-116224911D01*
X142913054Y-116224911D02*
X142804197Y-116188626D01*
X142804197Y-116188626D02*
X142731626Y-116116054D01*
X142731626Y-116116054D02*
X142695340Y-116043483D01*
X142695340Y-116043483D02*
X142659054Y-115898340D01*
X142659054Y-115898340D02*
X142659054Y-115789483D01*
X142659054Y-115789483D02*
X142695340Y-115644340D01*
X142695340Y-115644340D02*
X142731626Y-115571768D01*
X142731626Y-115571768D02*
X142804197Y-115499197D01*
X142804197Y-115499197D02*
X142913054Y-115462911D01*
X142913054Y-115462911D02*
X142985626Y-115462911D01*
X142985626Y-115462911D02*
X143094483Y-115499197D01*
X143094483Y-115499197D02*
X143130769Y-115535483D01*
X143892769Y-116152340D02*
X143856483Y-116188626D01*
X143856483Y-116188626D02*
X143747626Y-116224911D01*
X143747626Y-116224911D02*
X143675054Y-116224911D01*
X143675054Y-116224911D02*
X143566197Y-116188626D01*
X143566197Y-116188626D02*
X143493626Y-116116054D01*
X143493626Y-116116054D02*
X143457340Y-116043483D01*
X143457340Y-116043483D02*
X143421054Y-115898340D01*
X143421054Y-115898340D02*
X143421054Y-115789483D01*
X143421054Y-115789483D02*
X143457340Y-115644340D01*
X143457340Y-115644340D02*
X143493626Y-115571768D01*
X143493626Y-115571768D02*
X143566197Y-115499197D01*
X143566197Y-115499197D02*
X143675054Y-115462911D01*
X143675054Y-115462911D02*
X143747626Y-115462911D01*
X143747626Y-115462911D02*
X143856483Y-115499197D01*
X143856483Y-115499197D02*
X143892769Y-115535483D01*
X145014055Y-115499197D02*
X144941484Y-115462911D01*
X144941484Y-115462911D02*
X144832626Y-115462911D01*
X144832626Y-115462911D02*
X144723769Y-115499197D01*
X144723769Y-115499197D02*
X144651198Y-115571768D01*
X144651198Y-115571768D02*
X144614912Y-115644340D01*
X144614912Y-115644340D02*
X144578626Y-115789483D01*
X144578626Y-115789483D02*
X144578626Y-115898340D01*
X144578626Y-115898340D02*
X144614912Y-116043483D01*
X144614912Y-116043483D02*
X144651198Y-116116054D01*
X144651198Y-116116054D02*
X144723769Y-116188626D01*
X144723769Y-116188626D02*
X144832626Y-116224911D01*
X144832626Y-116224911D02*
X144905198Y-116224911D01*
X144905198Y-116224911D02*
X145014055Y-116188626D01*
X145014055Y-116188626D02*
X145050341Y-116152340D01*
X145050341Y-116152340D02*
X145050341Y-115898340D01*
X145050341Y-115898340D02*
X144905198Y-115898340D01*
X145376912Y-116224911D02*
X145376912Y-115462911D01*
X145376912Y-115462911D02*
X145812341Y-116224911D01*
X145812341Y-116224911D02*
X145812341Y-115462911D01*
X146175198Y-116224911D02*
X146175198Y-115462911D01*
X146175198Y-115462911D02*
X146356627Y-115462911D01*
X146356627Y-115462911D02*
X146465484Y-115499197D01*
X146465484Y-115499197D02*
X146538055Y-115571768D01*
X146538055Y-115571768D02*
X146574341Y-115644340D01*
X146574341Y-115644340D02*
X146610627Y-115789483D01*
X146610627Y-115789483D02*
X146610627Y-115898340D01*
X146610627Y-115898340D02*
X146574341Y-116043483D01*
X146574341Y-116043483D02*
X146538055Y-116116054D01*
X146538055Y-116116054D02*
X146465484Y-116188626D01*
X146465484Y-116188626D02*
X146356627Y-116224911D01*
X146356627Y-116224911D02*
X146175198Y-116224911D01*
X132974305Y-118823523D02*
X133409734Y-118823523D01*
X133192019Y-119585523D02*
X133192019Y-118823523D01*
X134099162Y-119585523D02*
X133845162Y-119222666D01*
X133663733Y-119585523D02*
X133663733Y-118823523D01*
X133663733Y-118823523D02*
X133954019Y-118823523D01*
X133954019Y-118823523D02*
X134026590Y-118859809D01*
X134026590Y-118859809D02*
X134062876Y-118896095D01*
X134062876Y-118896095D02*
X134099162Y-118968666D01*
X134099162Y-118968666D02*
X134099162Y-119077523D01*
X134099162Y-119077523D02*
X134062876Y-119150095D01*
X134062876Y-119150095D02*
X134026590Y-119186380D01*
X134026590Y-119186380D02*
X133954019Y-119222666D01*
X133954019Y-119222666D02*
X133663733Y-119222666D01*
X134389447Y-119367809D02*
X134752305Y-119367809D01*
X134316876Y-119585523D02*
X134570876Y-118823523D01*
X134570876Y-118823523D02*
X134824876Y-119585523D01*
X135514305Y-119512952D02*
X135478019Y-119549238D01*
X135478019Y-119549238D02*
X135369162Y-119585523D01*
X135369162Y-119585523D02*
X135296590Y-119585523D01*
X135296590Y-119585523D02*
X135187733Y-119549238D01*
X135187733Y-119549238D02*
X135115162Y-119476666D01*
X135115162Y-119476666D02*
X135078876Y-119404095D01*
X135078876Y-119404095D02*
X135042590Y-119258952D01*
X135042590Y-119258952D02*
X135042590Y-119150095D01*
X135042590Y-119150095D02*
X135078876Y-119004952D01*
X135078876Y-119004952D02*
X135115162Y-118932380D01*
X135115162Y-118932380D02*
X135187733Y-118859809D01*
X135187733Y-118859809D02*
X135296590Y-118823523D01*
X135296590Y-118823523D02*
X135369162Y-118823523D01*
X135369162Y-118823523D02*
X135478019Y-118859809D01*
X135478019Y-118859809D02*
X135514305Y-118896095D01*
X135840876Y-119585523D02*
X135840876Y-118823523D01*
X136276305Y-119585523D02*
X135949733Y-119150095D01*
X136276305Y-118823523D02*
X135840876Y-119258952D01*
X134208019Y-120413157D02*
X134316876Y-120449443D01*
X134316876Y-120449443D02*
X134353162Y-120485729D01*
X134353162Y-120485729D02*
X134389448Y-120558300D01*
X134389448Y-120558300D02*
X134389448Y-120667157D01*
X134389448Y-120667157D02*
X134353162Y-120739729D01*
X134353162Y-120739729D02*
X134316876Y-120776015D01*
X134316876Y-120776015D02*
X134244305Y-120812300D01*
X134244305Y-120812300D02*
X133954019Y-120812300D01*
X133954019Y-120812300D02*
X133954019Y-120050300D01*
X133954019Y-120050300D02*
X134208019Y-120050300D01*
X134208019Y-120050300D02*
X134280591Y-120086586D01*
X134280591Y-120086586D02*
X134316876Y-120122872D01*
X134316876Y-120122872D02*
X134353162Y-120195443D01*
X134353162Y-120195443D02*
X134353162Y-120268015D01*
X134353162Y-120268015D02*
X134316876Y-120340586D01*
X134316876Y-120340586D02*
X134280591Y-120376872D01*
X134280591Y-120376872D02*
X134208019Y-120413157D01*
X134208019Y-120413157D02*
X133954019Y-120413157D01*
X134679733Y-120594586D02*
X135042591Y-120594586D01*
X134607162Y-120812300D02*
X134861162Y-120050300D01*
X134861162Y-120050300D02*
X135115162Y-120812300D01*
X135732019Y-120812300D02*
X135369162Y-120812300D01*
X135369162Y-120812300D02*
X135369162Y-120050300D01*
X136348876Y-120812300D02*
X135986019Y-120812300D01*
X135986019Y-120812300D02*
X135986019Y-120050300D01*
D10*
X106021303Y-123268318D02*
X105754636Y-122887365D01*
X105564160Y-123268318D02*
X105564160Y-122468318D01*
X105564160Y-122468318D02*
X105868922Y-122468318D01*
X105868922Y-122468318D02*
X105945112Y-122506413D01*
X105945112Y-122506413D02*
X105983207Y-122544508D01*
X105983207Y-122544508D02*
X106021303Y-122620699D01*
X106021303Y-122620699D02*
X106021303Y-122734984D01*
X106021303Y-122734984D02*
X105983207Y-122811175D01*
X105983207Y-122811175D02*
X105945112Y-122849270D01*
X105945112Y-122849270D02*
X105868922Y-122887365D01*
X105868922Y-122887365D02*
X105564160Y-122887365D01*
X106364160Y-122849270D02*
X106630826Y-122849270D01*
X106745112Y-123268318D02*
X106364160Y-123268318D01*
X106364160Y-123268318D02*
X106364160Y-122468318D01*
X106364160Y-122468318D02*
X106745112Y-122468318D01*
X106973684Y-122468318D02*
X107240351Y-123268318D01*
X107240351Y-123268318D02*
X107507017Y-122468318D01*
X107773684Y-123268318D02*
X107773684Y-122468318D01*
X108116540Y-123230223D02*
X108230826Y-123268318D01*
X108230826Y-123268318D02*
X108421302Y-123268318D01*
X108421302Y-123268318D02*
X108497493Y-123230223D01*
X108497493Y-123230223D02*
X108535588Y-123192127D01*
X108535588Y-123192127D02*
X108573683Y-123115937D01*
X108573683Y-123115937D02*
X108573683Y-123039746D01*
X108573683Y-123039746D02*
X108535588Y-122963556D01*
X108535588Y-122963556D02*
X108497493Y-122925461D01*
X108497493Y-122925461D02*
X108421302Y-122887365D01*
X108421302Y-122887365D02*
X108268921Y-122849270D01*
X108268921Y-122849270D02*
X108192731Y-122811175D01*
X108192731Y-122811175D02*
X108154636Y-122773080D01*
X108154636Y-122773080D02*
X108116540Y-122696889D01*
X108116540Y-122696889D02*
X108116540Y-122620699D01*
X108116540Y-122620699D02*
X108154636Y-122544508D01*
X108154636Y-122544508D02*
X108192731Y-122506413D01*
X108192731Y-122506413D02*
X108268921Y-122468318D01*
X108268921Y-122468318D02*
X108459398Y-122468318D01*
X108459398Y-122468318D02*
X108573683Y-122506413D01*
X108916541Y-123268318D02*
X108916541Y-122468318D01*
X109449874Y-122468318D02*
X109602255Y-122468318D01*
X109602255Y-122468318D02*
X109678445Y-122506413D01*
X109678445Y-122506413D02*
X109754636Y-122582603D01*
X109754636Y-122582603D02*
X109792731Y-122734984D01*
X109792731Y-122734984D02*
X109792731Y-123001651D01*
X109792731Y-123001651D02*
X109754636Y-123154032D01*
X109754636Y-123154032D02*
X109678445Y-123230223D01*
X109678445Y-123230223D02*
X109602255Y-123268318D01*
X109602255Y-123268318D02*
X109449874Y-123268318D01*
X109449874Y-123268318D02*
X109373683Y-123230223D01*
X109373683Y-123230223D02*
X109297493Y-123154032D01*
X109297493Y-123154032D02*
X109259397Y-123001651D01*
X109259397Y-123001651D02*
X109259397Y-122734984D01*
X109259397Y-122734984D02*
X109297493Y-122582603D01*
X109297493Y-122582603D02*
X109373683Y-122506413D01*
X109373683Y-122506413D02*
X109449874Y-122468318D01*
X110135588Y-123268318D02*
X110135588Y-122468318D01*
X110135588Y-122468318D02*
X110592731Y-123268318D01*
X110592731Y-123268318D02*
X110592731Y-122468318D01*
X112002254Y-123268318D02*
X111545111Y-123268318D01*
X111773683Y-123268318D02*
X111773683Y-122468318D01*
X111773683Y-122468318D02*
X111697492Y-122582603D01*
X111697492Y-122582603D02*
X111621302Y-122658794D01*
X111621302Y-122658794D02*
X111545111Y-122696889D01*
X105564160Y-124556273D02*
X105564160Y-123756273D01*
X105564160Y-124061035D02*
X105640350Y-124022939D01*
X105640350Y-124022939D02*
X105792731Y-124022939D01*
X105792731Y-124022939D02*
X105868922Y-124061035D01*
X105868922Y-124061035D02*
X105907017Y-124099130D01*
X105907017Y-124099130D02*
X105945112Y-124175320D01*
X105945112Y-124175320D02*
X105945112Y-124403892D01*
X105945112Y-124403892D02*
X105907017Y-124480082D01*
X105907017Y-124480082D02*
X105868922Y-124518178D01*
X105868922Y-124518178D02*
X105792731Y-124556273D01*
X105792731Y-124556273D02*
X105640350Y-124556273D01*
X105640350Y-124556273D02*
X105564160Y-124518178D01*
X106211779Y-124022939D02*
X106402255Y-124556273D01*
X106592732Y-124022939D02*
X106402255Y-124556273D01*
X106402255Y-124556273D02*
X106326065Y-124746749D01*
X106326065Y-124746749D02*
X106287970Y-124784844D01*
X106287970Y-124784844D02*
X106211779Y-124822939D01*
X107468922Y-124518178D02*
X107583208Y-124556273D01*
X107583208Y-124556273D02*
X107773684Y-124556273D01*
X107773684Y-124556273D02*
X107849875Y-124518178D01*
X107849875Y-124518178D02*
X107887970Y-124480082D01*
X107887970Y-124480082D02*
X107926065Y-124403892D01*
X107926065Y-124403892D02*
X107926065Y-124327701D01*
X107926065Y-124327701D02*
X107887970Y-124251511D01*
X107887970Y-124251511D02*
X107849875Y-124213416D01*
X107849875Y-124213416D02*
X107773684Y-124175320D01*
X107773684Y-124175320D02*
X107621303Y-124137225D01*
X107621303Y-124137225D02*
X107545113Y-124099130D01*
X107545113Y-124099130D02*
X107507018Y-124061035D01*
X107507018Y-124061035D02*
X107468922Y-123984844D01*
X107468922Y-123984844D02*
X107468922Y-123908654D01*
X107468922Y-123908654D02*
X107507018Y-123832463D01*
X107507018Y-123832463D02*
X107545113Y-123794368D01*
X107545113Y-123794368D02*
X107621303Y-123756273D01*
X107621303Y-123756273D02*
X107811780Y-123756273D01*
X107811780Y-123756273D02*
X107926065Y-123794368D01*
X108611780Y-124518178D02*
X108535589Y-124556273D01*
X108535589Y-124556273D02*
X108383208Y-124556273D01*
X108383208Y-124556273D02*
X108307018Y-124518178D01*
X108307018Y-124518178D02*
X108268923Y-124480082D01*
X108268923Y-124480082D02*
X108230827Y-124403892D01*
X108230827Y-124403892D02*
X108230827Y-124175320D01*
X108230827Y-124175320D02*
X108268923Y-124099130D01*
X108268923Y-124099130D02*
X108307018Y-124061035D01*
X108307018Y-124061035D02*
X108383208Y-124022939D01*
X108383208Y-124022939D02*
X108535589Y-124022939D01*
X108535589Y-124022939D02*
X108611780Y-124061035D01*
X108954637Y-124556273D02*
X108954637Y-124022939D01*
X108954637Y-124175320D02*
X108992732Y-124099130D01*
X108992732Y-124099130D02*
X109030827Y-124061035D01*
X109030827Y-124061035D02*
X109107018Y-124022939D01*
X109107018Y-124022939D02*
X109183208Y-124022939D01*
X109792732Y-124556273D02*
X109792732Y-124137225D01*
X109792732Y-124137225D02*
X109754637Y-124061035D01*
X109754637Y-124061035D02*
X109678446Y-124022939D01*
X109678446Y-124022939D02*
X109526065Y-124022939D01*
X109526065Y-124022939D02*
X109449875Y-124061035D01*
X109792732Y-124518178D02*
X109716541Y-124556273D01*
X109716541Y-124556273D02*
X109526065Y-124556273D01*
X109526065Y-124556273D02*
X109449875Y-124518178D01*
X109449875Y-124518178D02*
X109411779Y-124441987D01*
X109411779Y-124441987D02*
X109411779Y-124365797D01*
X109411779Y-124365797D02*
X109449875Y-124289606D01*
X109449875Y-124289606D02*
X109526065Y-124251511D01*
X109526065Y-124251511D02*
X109716541Y-124251511D01*
X109716541Y-124251511D02*
X109792732Y-124213416D01*
X110173685Y-124556273D02*
X110173685Y-124022939D01*
X110173685Y-124099130D02*
X110211780Y-124061035D01*
X110211780Y-124061035D02*
X110287970Y-124022939D01*
X110287970Y-124022939D02*
X110402256Y-124022939D01*
X110402256Y-124022939D02*
X110478447Y-124061035D01*
X110478447Y-124061035D02*
X110516542Y-124137225D01*
X110516542Y-124137225D02*
X110516542Y-124556273D01*
X110516542Y-124137225D02*
X110554637Y-124061035D01*
X110554637Y-124061035D02*
X110630828Y-124022939D01*
X110630828Y-124022939D02*
X110745113Y-124022939D01*
X110745113Y-124022939D02*
X110821304Y-124061035D01*
X110821304Y-124061035D02*
X110859399Y-124137225D01*
X110859399Y-124137225D02*
X110859399Y-124556273D01*
X111240352Y-124556273D02*
X111240352Y-123756273D01*
X111240352Y-124061035D02*
X111316542Y-124022939D01*
X111316542Y-124022939D02*
X111468923Y-124022939D01*
X111468923Y-124022939D02*
X111545114Y-124061035D01*
X111545114Y-124061035D02*
X111583209Y-124099130D01*
X111583209Y-124099130D02*
X111621304Y-124175320D01*
X111621304Y-124175320D02*
X111621304Y-124403892D01*
X111621304Y-124403892D02*
X111583209Y-124480082D01*
X111583209Y-124480082D02*
X111545114Y-124518178D01*
X111545114Y-124518178D02*
X111468923Y-124556273D01*
X111468923Y-124556273D02*
X111316542Y-124556273D01*
X111316542Y-124556273D02*
X111240352Y-124518178D01*
X112078447Y-124556273D02*
X112002257Y-124518178D01*
X112002257Y-124518178D02*
X111964162Y-124441987D01*
X111964162Y-124441987D02*
X111964162Y-123756273D01*
X112687972Y-124518178D02*
X112611781Y-124556273D01*
X112611781Y-124556273D02*
X112459400Y-124556273D01*
X112459400Y-124556273D02*
X112383210Y-124518178D01*
X112383210Y-124518178D02*
X112345114Y-124441987D01*
X112345114Y-124441987D02*
X112345114Y-124137225D01*
X112345114Y-124137225D02*
X112383210Y-124061035D01*
X112383210Y-124061035D02*
X112459400Y-124022939D01*
X112459400Y-124022939D02*
X112611781Y-124022939D01*
X112611781Y-124022939D02*
X112687972Y-124061035D01*
X112687972Y-124061035D02*
X112726067Y-124137225D01*
X112726067Y-124137225D02*
X112726067Y-124213416D01*
X112726067Y-124213416D02*
X112345114Y-124289606D01*
X159730826Y-108293247D02*
X159845112Y-108331342D01*
X159845112Y-108331342D02*
X159883207Y-108369438D01*
X159883207Y-108369438D02*
X159921303Y-108445628D01*
X159921303Y-108445628D02*
X159921303Y-108559914D01*
X159921303Y-108559914D02*
X159883207Y-108636104D01*
X159883207Y-108636104D02*
X159845112Y-108674200D01*
X159845112Y-108674200D02*
X159768922Y-108712295D01*
X159768922Y-108712295D02*
X159464160Y-108712295D01*
X159464160Y-108712295D02*
X159464160Y-107912295D01*
X159464160Y-107912295D02*
X159730826Y-107912295D01*
X159730826Y-107912295D02*
X159807017Y-107950390D01*
X159807017Y-107950390D02*
X159845112Y-107988485D01*
X159845112Y-107988485D02*
X159883207Y-108064676D01*
X159883207Y-108064676D02*
X159883207Y-108140866D01*
X159883207Y-108140866D02*
X159845112Y-108217057D01*
X159845112Y-108217057D02*
X159807017Y-108255152D01*
X159807017Y-108255152D02*
X159730826Y-108293247D01*
X159730826Y-108293247D02*
X159464160Y-108293247D01*
X160264160Y-107912295D02*
X160264160Y-108559914D01*
X160264160Y-108559914D02*
X160302255Y-108636104D01*
X160302255Y-108636104D02*
X160340350Y-108674200D01*
X160340350Y-108674200D02*
X160416541Y-108712295D01*
X160416541Y-108712295D02*
X160568922Y-108712295D01*
X160568922Y-108712295D02*
X160645112Y-108674200D01*
X160645112Y-108674200D02*
X160683207Y-108636104D01*
X160683207Y-108636104D02*
X160721303Y-108559914D01*
X160721303Y-108559914D02*
X160721303Y-107912295D01*
X161026064Y-107912295D02*
X161559398Y-107912295D01*
X161559398Y-107912295D02*
X161026064Y-108712295D01*
X161026064Y-108712295D02*
X161559398Y-108712295D01*
X161787969Y-107912295D02*
X162321303Y-107912295D01*
X162321303Y-107912295D02*
X161787969Y-108712295D01*
X161787969Y-108712295D02*
X162321303Y-108712295D01*
X162626065Y-108293247D02*
X162892731Y-108293247D01*
X163007017Y-108712295D02*
X162626065Y-108712295D01*
X162626065Y-108712295D02*
X162626065Y-107912295D01*
X162626065Y-107912295D02*
X163007017Y-107912295D01*
X163807018Y-108712295D02*
X163540351Y-108331342D01*
X163349875Y-108712295D02*
X163349875Y-107912295D01*
X163349875Y-107912295D02*
X163654637Y-107912295D01*
X163654637Y-107912295D02*
X163730827Y-107950390D01*
X163730827Y-107950390D02*
X163768922Y-107988485D01*
X163768922Y-107988485D02*
X163807018Y-108064676D01*
X163807018Y-108064676D02*
X163807018Y-108178961D01*
X163807018Y-108178961D02*
X163768922Y-108255152D01*
X163768922Y-108255152D02*
X163730827Y-108293247D01*
X163730827Y-108293247D02*
X163654637Y-108331342D01*
X163654637Y-108331342D02*
X163349875Y-108331342D01*
X83663559Y-112993296D02*
X83777845Y-113031391D01*
X83777845Y-113031391D02*
X83815940Y-113069487D01*
X83815940Y-113069487D02*
X83854036Y-113145677D01*
X83854036Y-113145677D02*
X83854036Y-113259963D01*
X83854036Y-113259963D02*
X83815940Y-113336153D01*
X83815940Y-113336153D02*
X83777845Y-113374249D01*
X83777845Y-113374249D02*
X83701655Y-113412344D01*
X83701655Y-113412344D02*
X83396893Y-113412344D01*
X83396893Y-113412344D02*
X83396893Y-112612344D01*
X83396893Y-112612344D02*
X83663559Y-112612344D01*
X83663559Y-112612344D02*
X83739750Y-112650439D01*
X83739750Y-112650439D02*
X83777845Y-112688534D01*
X83777845Y-112688534D02*
X83815940Y-112764725D01*
X83815940Y-112764725D02*
X83815940Y-112840915D01*
X83815940Y-112840915D02*
X83777845Y-112917106D01*
X83777845Y-112917106D02*
X83739750Y-112955201D01*
X83739750Y-112955201D02*
X83663559Y-112993296D01*
X83663559Y-112993296D02*
X83396893Y-112993296D01*
X84158797Y-113183772D02*
X84539750Y-113183772D01*
X84082607Y-113412344D02*
X84349274Y-112612344D01*
X84349274Y-112612344D02*
X84615940Y-113412344D01*
X84768321Y-112612344D02*
X85225464Y-112612344D01*
X84996892Y-113412344D02*
X84996892Y-112612344D01*
X85377845Y-112612344D02*
X85834988Y-112612344D01*
X85606416Y-113412344D02*
X85606416Y-112612344D01*
X86886905Y-123042061D02*
X86620238Y-122661108D01*
X86429762Y-123042061D02*
X86429762Y-122242061D01*
X86429762Y-122242061D02*
X86734524Y-122242061D01*
X86734524Y-122242061D02*
X86810714Y-122280156D01*
X86810714Y-122280156D02*
X86848809Y-122318251D01*
X86848809Y-122318251D02*
X86886905Y-122394442D01*
X86886905Y-122394442D02*
X86886905Y-122508727D01*
X86886905Y-122508727D02*
X86848809Y-122584918D01*
X86848809Y-122584918D02*
X86810714Y-122623013D01*
X86810714Y-122623013D02*
X86734524Y-122661108D01*
X86734524Y-122661108D02*
X86429762Y-122661108D01*
X87191666Y-123003966D02*
X87305952Y-123042061D01*
X87305952Y-123042061D02*
X87496428Y-123042061D01*
X87496428Y-123042061D02*
X87572619Y-123003966D01*
X87572619Y-123003966D02*
X87610714Y-122965870D01*
X87610714Y-122965870D02*
X87648809Y-122889680D01*
X87648809Y-122889680D02*
X87648809Y-122813489D01*
X87648809Y-122813489D02*
X87610714Y-122737299D01*
X87610714Y-122737299D02*
X87572619Y-122699204D01*
X87572619Y-122699204D02*
X87496428Y-122661108D01*
X87496428Y-122661108D02*
X87344047Y-122623013D01*
X87344047Y-122623013D02*
X87267857Y-122584918D01*
X87267857Y-122584918D02*
X87229762Y-122546823D01*
X87229762Y-122546823D02*
X87191666Y-122470632D01*
X87191666Y-122470632D02*
X87191666Y-122394442D01*
X87191666Y-122394442D02*
X87229762Y-122318251D01*
X87229762Y-122318251D02*
X87267857Y-122280156D01*
X87267857Y-122280156D02*
X87344047Y-122242061D01*
X87344047Y-122242061D02*
X87534524Y-122242061D01*
X87534524Y-122242061D02*
X87648809Y-122280156D01*
X87877381Y-122242061D02*
X88334524Y-122242061D01*
X88105952Y-123042061D02*
X88105952Y-122242061D01*
X88479761Y-107393247D02*
X88594047Y-107431342D01*
X88594047Y-107431342D02*
X88632142Y-107469438D01*
X88632142Y-107469438D02*
X88670238Y-107545628D01*
X88670238Y-107545628D02*
X88670238Y-107659914D01*
X88670238Y-107659914D02*
X88632142Y-107736104D01*
X88632142Y-107736104D02*
X88594047Y-107774200D01*
X88594047Y-107774200D02*
X88517857Y-107812295D01*
X88517857Y-107812295D02*
X88213095Y-107812295D01*
X88213095Y-107812295D02*
X88213095Y-107012295D01*
X88213095Y-107012295D02*
X88479761Y-107012295D01*
X88479761Y-107012295D02*
X88555952Y-107050390D01*
X88555952Y-107050390D02*
X88594047Y-107088485D01*
X88594047Y-107088485D02*
X88632142Y-107164676D01*
X88632142Y-107164676D02*
X88632142Y-107240866D01*
X88632142Y-107240866D02*
X88594047Y-107317057D01*
X88594047Y-107317057D02*
X88555952Y-107355152D01*
X88555952Y-107355152D02*
X88479761Y-107393247D01*
X88479761Y-107393247D02*
X88213095Y-107393247D01*
X88974999Y-107583723D02*
X89355952Y-107583723D01*
X88898809Y-107812295D02*
X89165476Y-107012295D01*
X89165476Y-107012295D02*
X89432142Y-107812295D01*
X89584523Y-107012295D02*
X90041666Y-107012295D01*
X89813094Y-107812295D02*
X89813094Y-107012295D01*
X90194047Y-107012295D02*
X90651190Y-107012295D01*
X90422618Y-107812295D02*
X90422618Y-107012295D01*
X99709524Y-120593247D02*
X99976190Y-120593247D01*
X100090476Y-121012295D02*
X99709524Y-121012295D01*
X99709524Y-121012295D02*
X99709524Y-120212295D01*
X99709524Y-120212295D02*
X100090476Y-120212295D01*
X100433334Y-121012295D02*
X100433334Y-120212295D01*
X100433334Y-120212295D02*
X100890477Y-121012295D01*
X100890477Y-121012295D02*
X100890477Y-120212295D01*
X101728572Y-120936104D02*
X101690476Y-120974200D01*
X101690476Y-120974200D02*
X101576191Y-121012295D01*
X101576191Y-121012295D02*
X101500000Y-121012295D01*
X101500000Y-121012295D02*
X101385714Y-120974200D01*
X101385714Y-120974200D02*
X101309524Y-120898009D01*
X101309524Y-120898009D02*
X101271429Y-120821819D01*
X101271429Y-120821819D02*
X101233333Y-120669438D01*
X101233333Y-120669438D02*
X101233333Y-120555152D01*
X101233333Y-120555152D02*
X101271429Y-120402771D01*
X101271429Y-120402771D02*
X101309524Y-120326580D01*
X101309524Y-120326580D02*
X101385714Y-120250390D01*
X101385714Y-120250390D02*
X101500000Y-120212295D01*
X101500000Y-120212295D02*
X101576191Y-120212295D01*
X101576191Y-120212295D02*
X101690476Y-120250390D01*
X101690476Y-120250390D02*
X101728572Y-120288485D01*
X107588095Y-100462295D02*
X107740476Y-100462295D01*
X107740476Y-100462295D02*
X107816666Y-100500390D01*
X107816666Y-100500390D02*
X107892857Y-100576580D01*
X107892857Y-100576580D02*
X107930952Y-100728961D01*
X107930952Y-100728961D02*
X107930952Y-100995628D01*
X107930952Y-100995628D02*
X107892857Y-101148009D01*
X107892857Y-101148009D02*
X107816666Y-101224200D01*
X107816666Y-101224200D02*
X107740476Y-101262295D01*
X107740476Y-101262295D02*
X107588095Y-101262295D01*
X107588095Y-101262295D02*
X107511904Y-101224200D01*
X107511904Y-101224200D02*
X107435714Y-101148009D01*
X107435714Y-101148009D02*
X107397618Y-100995628D01*
X107397618Y-100995628D02*
X107397618Y-100728961D01*
X107397618Y-100728961D02*
X107435714Y-100576580D01*
X107435714Y-100576580D02*
X107511904Y-100500390D01*
X107511904Y-100500390D02*
X107588095Y-100462295D01*
X108654761Y-101262295D02*
X108273809Y-101262295D01*
X108273809Y-101262295D02*
X108273809Y-100462295D01*
X108921428Y-100843247D02*
X109188094Y-100843247D01*
X109302380Y-101262295D02*
X108921428Y-101262295D01*
X108921428Y-101262295D02*
X108921428Y-100462295D01*
X108921428Y-100462295D02*
X109302380Y-100462295D01*
X109645238Y-101262295D02*
X109645238Y-100462295D01*
X109645238Y-100462295D02*
X109835714Y-100462295D01*
X109835714Y-100462295D02*
X109950000Y-100500390D01*
X109950000Y-100500390D02*
X110026190Y-100576580D01*
X110026190Y-100576580D02*
X110064285Y-100652771D01*
X110064285Y-100652771D02*
X110102381Y-100805152D01*
X110102381Y-100805152D02*
X110102381Y-100919438D01*
X110102381Y-100919438D02*
X110064285Y-101071819D01*
X110064285Y-101071819D02*
X110026190Y-101148009D01*
X110026190Y-101148009D02*
X109950000Y-101224200D01*
X109950000Y-101224200D02*
X109835714Y-101262295D01*
X109835714Y-101262295D02*
X109645238Y-101262295D01*
X142302506Y-77668318D02*
X142759649Y-77668318D01*
X142531077Y-78468318D02*
X142531077Y-77668318D01*
X143026316Y-78049270D02*
X143292982Y-78049270D01*
X143407268Y-78468318D02*
X143026316Y-78468318D01*
X143026316Y-78468318D02*
X143026316Y-77668318D01*
X143026316Y-77668318D02*
X143407268Y-77668318D01*
X143750126Y-78468318D02*
X143750126Y-77668318D01*
X143750126Y-77668318D02*
X144207269Y-78468318D01*
X144207269Y-78468318D02*
X144207269Y-77668318D01*
X144473935Y-77668318D02*
X144931078Y-77668318D01*
X144702506Y-78468318D02*
X144702506Y-77668318D01*
X145197745Y-78468318D02*
X145197745Y-77668318D01*
X145578697Y-78468318D02*
X145578697Y-77668318D01*
X145578697Y-77668318D02*
X146035840Y-78468318D01*
X146035840Y-78468318D02*
X146035840Y-77668318D01*
X146835839Y-77706413D02*
X146759649Y-77668318D01*
X146759649Y-77668318D02*
X146645363Y-77668318D01*
X146645363Y-77668318D02*
X146531077Y-77706413D01*
X146531077Y-77706413D02*
X146454887Y-77782603D01*
X146454887Y-77782603D02*
X146416792Y-77858794D01*
X146416792Y-77858794D02*
X146378696Y-78011175D01*
X146378696Y-78011175D02*
X146378696Y-78125461D01*
X146378696Y-78125461D02*
X146416792Y-78277842D01*
X146416792Y-78277842D02*
X146454887Y-78354032D01*
X146454887Y-78354032D02*
X146531077Y-78430223D01*
X146531077Y-78430223D02*
X146645363Y-78468318D01*
X146645363Y-78468318D02*
X146721554Y-78468318D01*
X146721554Y-78468318D02*
X146835839Y-78430223D01*
X146835839Y-78430223D02*
X146873935Y-78392127D01*
X146873935Y-78392127D02*
X146873935Y-78125461D01*
X146873935Y-78125461D02*
X146721554Y-78125461D01*
X143978697Y-79756273D02*
X143978697Y-78956273D01*
X143978697Y-78956273D02*
X144283459Y-78956273D01*
X144283459Y-78956273D02*
X144359649Y-78994368D01*
X144359649Y-78994368D02*
X144397744Y-79032463D01*
X144397744Y-79032463D02*
X144435840Y-79108654D01*
X144435840Y-79108654D02*
X144435840Y-79222939D01*
X144435840Y-79222939D02*
X144397744Y-79299130D01*
X144397744Y-79299130D02*
X144359649Y-79337225D01*
X144359649Y-79337225D02*
X144283459Y-79375320D01*
X144283459Y-79375320D02*
X143978697Y-79375320D01*
X144778697Y-78956273D02*
X144778697Y-79603892D01*
X144778697Y-79603892D02*
X144816792Y-79680082D01*
X144816792Y-79680082D02*
X144854887Y-79718178D01*
X144854887Y-79718178D02*
X144931078Y-79756273D01*
X144931078Y-79756273D02*
X145083459Y-79756273D01*
X145083459Y-79756273D02*
X145159649Y-79718178D01*
X145159649Y-79718178D02*
X145197744Y-79680082D01*
X145197744Y-79680082D02*
X145235840Y-79603892D01*
X145235840Y-79603892D02*
X145235840Y-78956273D01*
X146073935Y-79680082D02*
X146035839Y-79718178D01*
X146035839Y-79718178D02*
X145921554Y-79756273D01*
X145921554Y-79756273D02*
X145845363Y-79756273D01*
X145845363Y-79756273D02*
X145731077Y-79718178D01*
X145731077Y-79718178D02*
X145654887Y-79641987D01*
X145654887Y-79641987D02*
X145616792Y-79565797D01*
X145616792Y-79565797D02*
X145578696Y-79413416D01*
X145578696Y-79413416D02*
X145578696Y-79299130D01*
X145578696Y-79299130D02*
X145616792Y-79146749D01*
X145616792Y-79146749D02*
X145654887Y-79070558D01*
X145654887Y-79070558D02*
X145731077Y-78994368D01*
X145731077Y-78994368D02*
X145845363Y-78956273D01*
X145845363Y-78956273D02*
X145921554Y-78956273D01*
X145921554Y-78956273D02*
X146035839Y-78994368D01*
X146035839Y-78994368D02*
X146073935Y-79032463D01*
X146416792Y-79756273D02*
X146416792Y-78956273D01*
X146873935Y-79756273D02*
X146531077Y-79299130D01*
X146873935Y-78956273D02*
X146416792Y-79413416D01*
X96743318Y-78310839D02*
X95943318Y-78310839D01*
X95943318Y-78310839D02*
X96514746Y-78044173D01*
X96514746Y-78044173D02*
X95943318Y-77777506D01*
X95943318Y-77777506D02*
X96743318Y-77777506D01*
X95943318Y-77244172D02*
X95943318Y-77091791D01*
X95943318Y-77091791D02*
X95981413Y-77015601D01*
X95981413Y-77015601D02*
X96057603Y-76939410D01*
X96057603Y-76939410D02*
X96209984Y-76901315D01*
X96209984Y-76901315D02*
X96476651Y-76901315D01*
X96476651Y-76901315D02*
X96629032Y-76939410D01*
X96629032Y-76939410D02*
X96705223Y-77015601D01*
X96705223Y-77015601D02*
X96743318Y-77091791D01*
X96743318Y-77091791D02*
X96743318Y-77244172D01*
X96743318Y-77244172D02*
X96705223Y-77320363D01*
X96705223Y-77320363D02*
X96629032Y-77396553D01*
X96629032Y-77396553D02*
X96476651Y-77434649D01*
X96476651Y-77434649D02*
X96209984Y-77434649D01*
X96209984Y-77434649D02*
X96057603Y-77396553D01*
X96057603Y-77396553D02*
X95981413Y-77320363D01*
X95981413Y-77320363D02*
X95943318Y-77244172D01*
X95943318Y-76558458D02*
X96590937Y-76558458D01*
X96590937Y-76558458D02*
X96667127Y-76520363D01*
X96667127Y-76520363D02*
X96705223Y-76482268D01*
X96705223Y-76482268D02*
X96743318Y-76406077D01*
X96743318Y-76406077D02*
X96743318Y-76253696D01*
X96743318Y-76253696D02*
X96705223Y-76177506D01*
X96705223Y-76177506D02*
X96667127Y-76139411D01*
X96667127Y-76139411D02*
X96590937Y-76101315D01*
X96590937Y-76101315D02*
X95943318Y-76101315D01*
X96743318Y-75720363D02*
X95943318Y-75720363D01*
X95943318Y-75720363D02*
X96743318Y-75263220D01*
X96743318Y-75263220D02*
X95943318Y-75263220D01*
X95943318Y-74996554D02*
X95943318Y-74539411D01*
X96743318Y-74767983D02*
X95943318Y-74767983D01*
X96743318Y-73663220D02*
X95943318Y-73663220D01*
X95943318Y-73663220D02*
X96514746Y-73396554D01*
X96514746Y-73396554D02*
X95943318Y-73129887D01*
X95943318Y-73129887D02*
X96743318Y-73129887D01*
X96667127Y-72291791D02*
X96705223Y-72329887D01*
X96705223Y-72329887D02*
X96743318Y-72444172D01*
X96743318Y-72444172D02*
X96743318Y-72520363D01*
X96743318Y-72520363D02*
X96705223Y-72634649D01*
X96705223Y-72634649D02*
X96629032Y-72710839D01*
X96629032Y-72710839D02*
X96552842Y-72748934D01*
X96552842Y-72748934D02*
X96400461Y-72787030D01*
X96400461Y-72787030D02*
X96286175Y-72787030D01*
X96286175Y-72787030D02*
X96133794Y-72748934D01*
X96133794Y-72748934D02*
X96057603Y-72710839D01*
X96057603Y-72710839D02*
X95981413Y-72634649D01*
X95981413Y-72634649D02*
X95943318Y-72520363D01*
X95943318Y-72520363D02*
X95943318Y-72444172D01*
X95943318Y-72444172D02*
X95981413Y-72329887D01*
X95981413Y-72329887D02*
X96019508Y-72291791D01*
X95943318Y-71948934D02*
X96590937Y-71948934D01*
X96590937Y-71948934D02*
X96667127Y-71910839D01*
X96667127Y-71910839D02*
X96705223Y-71872744D01*
X96705223Y-71872744D02*
X96743318Y-71796553D01*
X96743318Y-71796553D02*
X96743318Y-71644172D01*
X96743318Y-71644172D02*
X96705223Y-71567982D01*
X96705223Y-71567982D02*
X96667127Y-71529887D01*
X96667127Y-71529887D02*
X96590937Y-71491791D01*
X96590937Y-71491791D02*
X95943318Y-71491791D01*
X95943318Y-70348934D02*
X95943318Y-70196553D01*
X95943318Y-70196553D02*
X95981413Y-70120363D01*
X95981413Y-70120363D02*
X96057603Y-70044172D01*
X96057603Y-70044172D02*
X96209984Y-70006077D01*
X96209984Y-70006077D02*
X96476651Y-70006077D01*
X96476651Y-70006077D02*
X96629032Y-70044172D01*
X96629032Y-70044172D02*
X96705223Y-70120363D01*
X96705223Y-70120363D02*
X96743318Y-70196553D01*
X96743318Y-70196553D02*
X96743318Y-70348934D01*
X96743318Y-70348934D02*
X96705223Y-70425125D01*
X96705223Y-70425125D02*
X96629032Y-70501315D01*
X96629032Y-70501315D02*
X96476651Y-70539411D01*
X96476651Y-70539411D02*
X96209984Y-70539411D01*
X96209984Y-70539411D02*
X96057603Y-70501315D01*
X96057603Y-70501315D02*
X95981413Y-70425125D01*
X95981413Y-70425125D02*
X95943318Y-70348934D01*
X96743318Y-69663220D02*
X95943318Y-69663220D01*
X95943318Y-69663220D02*
X96743318Y-69206077D01*
X96743318Y-69206077D02*
X95943318Y-69206077D01*
X96324270Y-67948935D02*
X96362365Y-67834649D01*
X96362365Y-67834649D02*
X96400461Y-67796554D01*
X96400461Y-67796554D02*
X96476651Y-67758458D01*
X96476651Y-67758458D02*
X96590937Y-67758458D01*
X96590937Y-67758458D02*
X96667127Y-67796554D01*
X96667127Y-67796554D02*
X96705223Y-67834649D01*
X96705223Y-67834649D02*
X96743318Y-67910839D01*
X96743318Y-67910839D02*
X96743318Y-68215601D01*
X96743318Y-68215601D02*
X95943318Y-68215601D01*
X95943318Y-68215601D02*
X95943318Y-67948935D01*
X95943318Y-67948935D02*
X95981413Y-67872744D01*
X95981413Y-67872744D02*
X96019508Y-67834649D01*
X96019508Y-67834649D02*
X96095699Y-67796554D01*
X96095699Y-67796554D02*
X96171889Y-67796554D01*
X96171889Y-67796554D02*
X96248080Y-67834649D01*
X96248080Y-67834649D02*
X96286175Y-67872744D01*
X96286175Y-67872744D02*
X96324270Y-67948935D01*
X96324270Y-67948935D02*
X96324270Y-68215601D01*
X95943318Y-67263220D02*
X95943318Y-67110839D01*
X95943318Y-67110839D02*
X95981413Y-67034649D01*
X95981413Y-67034649D02*
X96057603Y-66958458D01*
X96057603Y-66958458D02*
X96209984Y-66920363D01*
X96209984Y-66920363D02*
X96476651Y-66920363D01*
X96476651Y-66920363D02*
X96629032Y-66958458D01*
X96629032Y-66958458D02*
X96705223Y-67034649D01*
X96705223Y-67034649D02*
X96743318Y-67110839D01*
X96743318Y-67110839D02*
X96743318Y-67263220D01*
X96743318Y-67263220D02*
X96705223Y-67339411D01*
X96705223Y-67339411D02*
X96629032Y-67415601D01*
X96629032Y-67415601D02*
X96476651Y-67453697D01*
X96476651Y-67453697D02*
X96209984Y-67453697D01*
X96209984Y-67453697D02*
X96057603Y-67415601D01*
X96057603Y-67415601D02*
X95981413Y-67339411D01*
X95981413Y-67339411D02*
X95943318Y-67263220D01*
X95943318Y-66691792D02*
X95943318Y-66234649D01*
X96743318Y-66463221D02*
X95943318Y-66463221D01*
X95943318Y-66082268D02*
X95943318Y-65625125D01*
X96743318Y-65853697D02*
X95943318Y-65853697D01*
X95943318Y-65206077D02*
X95943318Y-65053696D01*
X95943318Y-65053696D02*
X95981413Y-64977506D01*
X95981413Y-64977506D02*
X96057603Y-64901315D01*
X96057603Y-64901315D02*
X96209984Y-64863220D01*
X96209984Y-64863220D02*
X96476651Y-64863220D01*
X96476651Y-64863220D02*
X96629032Y-64901315D01*
X96629032Y-64901315D02*
X96705223Y-64977506D01*
X96705223Y-64977506D02*
X96743318Y-65053696D01*
X96743318Y-65053696D02*
X96743318Y-65206077D01*
X96743318Y-65206077D02*
X96705223Y-65282268D01*
X96705223Y-65282268D02*
X96629032Y-65358458D01*
X96629032Y-65358458D02*
X96476651Y-65396554D01*
X96476651Y-65396554D02*
X96209984Y-65396554D01*
X96209984Y-65396554D02*
X96057603Y-65358458D01*
X96057603Y-65358458D02*
X95981413Y-65282268D01*
X95981413Y-65282268D02*
X95943318Y-65206077D01*
X96743318Y-64520363D02*
X95943318Y-64520363D01*
X95943318Y-64520363D02*
X96514746Y-64253697D01*
X96514746Y-64253697D02*
X95943318Y-63987030D01*
X95943318Y-63987030D02*
X96743318Y-63987030D01*
X97955082Y-77853696D02*
X97993178Y-77891792D01*
X97993178Y-77891792D02*
X98031273Y-78006077D01*
X98031273Y-78006077D02*
X98031273Y-78082268D01*
X98031273Y-78082268D02*
X97993178Y-78196554D01*
X97993178Y-78196554D02*
X97916987Y-78272744D01*
X97916987Y-78272744D02*
X97840797Y-78310839D01*
X97840797Y-78310839D02*
X97688416Y-78348935D01*
X97688416Y-78348935D02*
X97574130Y-78348935D01*
X97574130Y-78348935D02*
X97421749Y-78310839D01*
X97421749Y-78310839D02*
X97345558Y-78272744D01*
X97345558Y-78272744D02*
X97269368Y-78196554D01*
X97269368Y-78196554D02*
X97231273Y-78082268D01*
X97231273Y-78082268D02*
X97231273Y-78006077D01*
X97231273Y-78006077D02*
X97269368Y-77891792D01*
X97269368Y-77891792D02*
X97307463Y-77853696D01*
X97231273Y-77358458D02*
X97231273Y-77206077D01*
X97231273Y-77206077D02*
X97269368Y-77129887D01*
X97269368Y-77129887D02*
X97345558Y-77053696D01*
X97345558Y-77053696D02*
X97497939Y-77015601D01*
X97497939Y-77015601D02*
X97764606Y-77015601D01*
X97764606Y-77015601D02*
X97916987Y-77053696D01*
X97916987Y-77053696D02*
X97993178Y-77129887D01*
X97993178Y-77129887D02*
X98031273Y-77206077D01*
X98031273Y-77206077D02*
X98031273Y-77358458D01*
X98031273Y-77358458D02*
X97993178Y-77434649D01*
X97993178Y-77434649D02*
X97916987Y-77510839D01*
X97916987Y-77510839D02*
X97764606Y-77548935D01*
X97764606Y-77548935D02*
X97497939Y-77548935D01*
X97497939Y-77548935D02*
X97345558Y-77510839D01*
X97345558Y-77510839D02*
X97269368Y-77434649D01*
X97269368Y-77434649D02*
X97231273Y-77358458D01*
X98031273Y-76672744D02*
X97231273Y-76672744D01*
X97231273Y-76672744D02*
X97802701Y-76406078D01*
X97802701Y-76406078D02*
X97231273Y-76139411D01*
X97231273Y-76139411D02*
X98031273Y-76139411D01*
X98031273Y-75758458D02*
X97231273Y-75758458D01*
X97231273Y-75758458D02*
X97231273Y-75453696D01*
X97231273Y-75453696D02*
X97269368Y-75377506D01*
X97269368Y-75377506D02*
X97307463Y-75339411D01*
X97307463Y-75339411D02*
X97383654Y-75301315D01*
X97383654Y-75301315D02*
X97497939Y-75301315D01*
X97497939Y-75301315D02*
X97574130Y-75339411D01*
X97574130Y-75339411D02*
X97612225Y-75377506D01*
X97612225Y-75377506D02*
X97650320Y-75453696D01*
X97650320Y-75453696D02*
X97650320Y-75758458D01*
X97231273Y-74806077D02*
X97231273Y-74653696D01*
X97231273Y-74653696D02*
X97269368Y-74577506D01*
X97269368Y-74577506D02*
X97345558Y-74501315D01*
X97345558Y-74501315D02*
X97497939Y-74463220D01*
X97497939Y-74463220D02*
X97764606Y-74463220D01*
X97764606Y-74463220D02*
X97916987Y-74501315D01*
X97916987Y-74501315D02*
X97993178Y-74577506D01*
X97993178Y-74577506D02*
X98031273Y-74653696D01*
X98031273Y-74653696D02*
X98031273Y-74806077D01*
X98031273Y-74806077D02*
X97993178Y-74882268D01*
X97993178Y-74882268D02*
X97916987Y-74958458D01*
X97916987Y-74958458D02*
X97764606Y-74996554D01*
X97764606Y-74996554D02*
X97497939Y-74996554D01*
X97497939Y-74996554D02*
X97345558Y-74958458D01*
X97345558Y-74958458D02*
X97269368Y-74882268D01*
X97269368Y-74882268D02*
X97231273Y-74806077D01*
X98031273Y-74120363D02*
X97231273Y-74120363D01*
X97231273Y-74120363D02*
X98031273Y-73663220D01*
X98031273Y-73663220D02*
X97231273Y-73663220D01*
X97612225Y-73282268D02*
X97612225Y-73015602D01*
X98031273Y-72901316D02*
X98031273Y-73282268D01*
X98031273Y-73282268D02*
X97231273Y-73282268D01*
X97231273Y-73282268D02*
X97231273Y-72901316D01*
X98031273Y-72558458D02*
X97231273Y-72558458D01*
X97231273Y-72558458D02*
X98031273Y-72101315D01*
X98031273Y-72101315D02*
X97231273Y-72101315D01*
X97231273Y-71834649D02*
X97231273Y-71377506D01*
X98031273Y-71606078D02*
X97231273Y-71606078D01*
X97993178Y-71148935D02*
X98031273Y-71034649D01*
X98031273Y-71034649D02*
X98031273Y-70844173D01*
X98031273Y-70844173D02*
X97993178Y-70767982D01*
X97993178Y-70767982D02*
X97955082Y-70729887D01*
X97955082Y-70729887D02*
X97878892Y-70691792D01*
X97878892Y-70691792D02*
X97802701Y-70691792D01*
X97802701Y-70691792D02*
X97726511Y-70729887D01*
X97726511Y-70729887D02*
X97688416Y-70767982D01*
X97688416Y-70767982D02*
X97650320Y-70844173D01*
X97650320Y-70844173D02*
X97612225Y-70996554D01*
X97612225Y-70996554D02*
X97574130Y-71072744D01*
X97574130Y-71072744D02*
X97536035Y-71110839D01*
X97536035Y-71110839D02*
X97459844Y-71148935D01*
X97459844Y-71148935D02*
X97383654Y-71148935D01*
X97383654Y-71148935D02*
X97307463Y-71110839D01*
X97307463Y-71110839D02*
X97269368Y-71072744D01*
X97269368Y-71072744D02*
X97231273Y-70996554D01*
X97231273Y-70996554D02*
X97231273Y-70806077D01*
X97231273Y-70806077D02*
X97269368Y-70691792D01*
X97612225Y-69472744D02*
X97612225Y-69739410D01*
X98031273Y-69739410D02*
X97231273Y-69739410D01*
X97231273Y-69739410D02*
X97231273Y-69358458D01*
X97802701Y-69091792D02*
X97802701Y-68710839D01*
X98031273Y-69167982D02*
X97231273Y-68901315D01*
X97231273Y-68901315D02*
X98031273Y-68634649D01*
X97955082Y-67910839D02*
X97993178Y-67948935D01*
X97993178Y-67948935D02*
X98031273Y-68063220D01*
X98031273Y-68063220D02*
X98031273Y-68139411D01*
X98031273Y-68139411D02*
X97993178Y-68253697D01*
X97993178Y-68253697D02*
X97916987Y-68329887D01*
X97916987Y-68329887D02*
X97840797Y-68367982D01*
X97840797Y-68367982D02*
X97688416Y-68406078D01*
X97688416Y-68406078D02*
X97574130Y-68406078D01*
X97574130Y-68406078D02*
X97421749Y-68367982D01*
X97421749Y-68367982D02*
X97345558Y-68329887D01*
X97345558Y-68329887D02*
X97269368Y-68253697D01*
X97269368Y-68253697D02*
X97231273Y-68139411D01*
X97231273Y-68139411D02*
X97231273Y-68063220D01*
X97231273Y-68063220D02*
X97269368Y-67948935D01*
X97269368Y-67948935D02*
X97307463Y-67910839D01*
X98031273Y-67567982D02*
X97231273Y-67567982D01*
X98031273Y-67187030D02*
X97231273Y-67187030D01*
X97231273Y-67187030D02*
X98031273Y-66729887D01*
X98031273Y-66729887D02*
X97231273Y-66729887D01*
X97269368Y-65929888D02*
X97231273Y-66006078D01*
X97231273Y-66006078D02*
X97231273Y-66120364D01*
X97231273Y-66120364D02*
X97269368Y-66234650D01*
X97269368Y-66234650D02*
X97345558Y-66310840D01*
X97345558Y-66310840D02*
X97421749Y-66348935D01*
X97421749Y-66348935D02*
X97574130Y-66387031D01*
X97574130Y-66387031D02*
X97688416Y-66387031D01*
X97688416Y-66387031D02*
X97840797Y-66348935D01*
X97840797Y-66348935D02*
X97916987Y-66310840D01*
X97916987Y-66310840D02*
X97993178Y-66234650D01*
X97993178Y-66234650D02*
X98031273Y-66120364D01*
X98031273Y-66120364D02*
X98031273Y-66044173D01*
X98031273Y-66044173D02*
X97993178Y-65929888D01*
X97993178Y-65929888D02*
X97955082Y-65891792D01*
X97955082Y-65891792D02*
X97688416Y-65891792D01*
X97688416Y-65891792D02*
X97688416Y-66044173D01*
X98031273Y-64939411D02*
X97231273Y-64939411D01*
X97231273Y-64939411D02*
X97231273Y-64634649D01*
X97231273Y-64634649D02*
X97269368Y-64558459D01*
X97269368Y-64558459D02*
X97307463Y-64520364D01*
X97307463Y-64520364D02*
X97383654Y-64482268D01*
X97383654Y-64482268D02*
X97497939Y-64482268D01*
X97497939Y-64482268D02*
X97574130Y-64520364D01*
X97574130Y-64520364D02*
X97612225Y-64558459D01*
X97612225Y-64558459D02*
X97650320Y-64634649D01*
X97650320Y-64634649D02*
X97650320Y-64939411D01*
X97955082Y-63682268D02*
X97993178Y-63720364D01*
X97993178Y-63720364D02*
X98031273Y-63834649D01*
X98031273Y-63834649D02*
X98031273Y-63910840D01*
X98031273Y-63910840D02*
X97993178Y-64025126D01*
X97993178Y-64025126D02*
X97916987Y-64101316D01*
X97916987Y-64101316D02*
X97840797Y-64139411D01*
X97840797Y-64139411D02*
X97688416Y-64177507D01*
X97688416Y-64177507D02*
X97574130Y-64177507D01*
X97574130Y-64177507D02*
X97421749Y-64139411D01*
X97421749Y-64139411D02*
X97345558Y-64101316D01*
X97345558Y-64101316D02*
X97269368Y-64025126D01*
X97269368Y-64025126D02*
X97231273Y-63910840D01*
X97231273Y-63910840D02*
X97231273Y-63834649D01*
X97231273Y-63834649D02*
X97269368Y-63720364D01*
X97269368Y-63720364D02*
X97307463Y-63682268D01*
X97612225Y-63072745D02*
X97650320Y-62958459D01*
X97650320Y-62958459D02*
X97688416Y-62920364D01*
X97688416Y-62920364D02*
X97764606Y-62882268D01*
X97764606Y-62882268D02*
X97878892Y-62882268D01*
X97878892Y-62882268D02*
X97955082Y-62920364D01*
X97955082Y-62920364D02*
X97993178Y-62958459D01*
X97993178Y-62958459D02*
X98031273Y-63034649D01*
X98031273Y-63034649D02*
X98031273Y-63339411D01*
X98031273Y-63339411D02*
X97231273Y-63339411D01*
X97231273Y-63339411D02*
X97231273Y-63072745D01*
X97231273Y-63072745D02*
X97269368Y-62996554D01*
X97269368Y-62996554D02*
X97307463Y-62958459D01*
X97307463Y-62958459D02*
X97383654Y-62920364D01*
X97383654Y-62920364D02*
X97459844Y-62920364D01*
X97459844Y-62920364D02*
X97536035Y-62958459D01*
X97536035Y-62958459D02*
X97574130Y-62996554D01*
X97574130Y-62996554D02*
X97612225Y-63072745D01*
X97612225Y-63072745D02*
X97612225Y-63339411D01*
D14*
X101044673Y-124464838D02*
X101044673Y-122464838D01*
X101616101Y-124464838D02*
X101187530Y-123321980D01*
X101616101Y-122464838D02*
X101044673Y-123607695D01*
X102520863Y-124464838D02*
X102044673Y-124464838D01*
X102044673Y-124464838D02*
X102044673Y-122464838D01*
X102806578Y-123893409D02*
X103282768Y-123893409D01*
X102711340Y-124464838D02*
X103044673Y-122464838D01*
X103044673Y-122464838D02*
X103378006Y-124464838D01*
X103616102Y-122464838D02*
X103854197Y-124464838D01*
X103854197Y-124464838D02*
X104044673Y-123036266D01*
X104044673Y-123036266D02*
X104235149Y-124464838D01*
X104235149Y-124464838D02*
X104473245Y-122464838D01*
D10*
X92180476Y-122740295D02*
X92637619Y-122740295D01*
X92409047Y-123540295D02*
X92409047Y-122740295D01*
X93361429Y-123540295D02*
X93094762Y-123159342D01*
X92904286Y-123540295D02*
X92904286Y-122740295D01*
X92904286Y-122740295D02*
X93209048Y-122740295D01*
X93209048Y-122740295D02*
X93285238Y-122778390D01*
X93285238Y-122778390D02*
X93323333Y-122816485D01*
X93323333Y-122816485D02*
X93361429Y-122892676D01*
X93361429Y-122892676D02*
X93361429Y-123006961D01*
X93361429Y-123006961D02*
X93323333Y-123083152D01*
X93323333Y-123083152D02*
X93285238Y-123121247D01*
X93285238Y-123121247D02*
X93209048Y-123159342D01*
X93209048Y-123159342D02*
X92904286Y-123159342D01*
X94161429Y-123540295D02*
X93894762Y-123159342D01*
X93704286Y-123540295D02*
X93704286Y-122740295D01*
X93704286Y-122740295D02*
X94009048Y-122740295D01*
X94009048Y-122740295D02*
X94085238Y-122778390D01*
X94085238Y-122778390D02*
X94123333Y-122816485D01*
X94123333Y-122816485D02*
X94161429Y-122892676D01*
X94161429Y-122892676D02*
X94161429Y-123006961D01*
X94161429Y-123006961D02*
X94123333Y-123083152D01*
X94123333Y-123083152D02*
X94085238Y-123121247D01*
X94085238Y-123121247D02*
X94009048Y-123159342D01*
X94009048Y-123159342D02*
X93704286Y-123159342D01*
X94466190Y-123502200D02*
X94580476Y-123540295D01*
X94580476Y-123540295D02*
X94770952Y-123540295D01*
X94770952Y-123540295D02*
X94847143Y-123502200D01*
X94847143Y-123502200D02*
X94885238Y-123464104D01*
X94885238Y-123464104D02*
X94923333Y-123387914D01*
X94923333Y-123387914D02*
X94923333Y-123311723D01*
X94923333Y-123311723D02*
X94885238Y-123235533D01*
X94885238Y-123235533D02*
X94847143Y-123197438D01*
X94847143Y-123197438D02*
X94770952Y-123159342D01*
X94770952Y-123159342D02*
X94618571Y-123121247D01*
X94618571Y-123121247D02*
X94542381Y-123083152D01*
X94542381Y-123083152D02*
X94504286Y-123045057D01*
X94504286Y-123045057D02*
X94466190Y-122968866D01*
X94466190Y-122968866D02*
X94466190Y-122892676D01*
X94466190Y-122892676D02*
X94504286Y-122816485D01*
X94504286Y-122816485D02*
X94542381Y-122778390D01*
X94542381Y-122778390D02*
X94618571Y-122740295D01*
X94618571Y-122740295D02*
X94809048Y-122740295D01*
X94809048Y-122740295D02*
X94923333Y-122778390D01*
%TO.C,JP22*%
D15*
X83302500Y-108583434D02*
X83302500Y-109057950D01*
X84347500Y-108583434D02*
X84347500Y-109057950D01*
%TO.C,SW4*%
D13*
X174669545Y-74303870D02*
X174739301Y-73306306D01*
X174739301Y-73306306D02*
X174938814Y-73320257D01*
X174920668Y-70712639D02*
X174895556Y-71071762D01*
X174920668Y-70712639D02*
X178192678Y-70941440D01*
X174968741Y-73322350D02*
X175124995Y-71087806D01*
X175095068Y-71085714D02*
X174895556Y-71071762D01*
X180274733Y-72991672D02*
X185262553Y-73340454D01*
D16*
X182646185Y-64460915D02*
X182747332Y-63014447D01*
X182747332Y-63014447D02*
X184792338Y-63157448D01*
X184691191Y-64603916D02*
X182646185Y-64460915D01*
X184792338Y-63157448D02*
X184691191Y-64603916D01*
D13*
X184836332Y-76568586D02*
X185035845Y-76582537D01*
X184973333Y-74322672D02*
X184816381Y-76567191D01*
X185011430Y-76931685D02*
X176631892Y-76345731D01*
X185035845Y-76582537D02*
X185011430Y-76931685D01*
X185192797Y-74338018D02*
X184993284Y-74324067D01*
X185262553Y-73340454D02*
X185192797Y-74338018D01*
X176631892Y-76345731D02*
G75*
G02*
X174669543Y-74303870I39756J2002105D01*
G01*
X180274733Y-72991672D02*
G75*
G02*
X178194853Y-70963116I86530J2169249D01*
G01*
%TO.C,D10*%
D10*
X193133423Y-110917974D02*
X194141304Y-110384892D01*
X193254977Y-110228607D02*
X193011869Y-111607339D01*
X193898196Y-111763623D02*
X193133423Y-110917974D01*
X194141304Y-110384892D02*
X193898196Y-111763623D01*
%TO.C,D7*%
X136497000Y-95497000D02*
X136497000Y-96897000D01*
X136497000Y-96197000D02*
X137397000Y-95497000D01*
X137397000Y-95497000D02*
X137397000Y-96897000D01*
X137397000Y-96897000D02*
X136497000Y-96197000D01*
%TO.C,D15*%
X174097077Y-116283708D02*
X175043714Y-115648194D01*
X174145907Y-115585413D02*
X174048247Y-116982003D01*
X174946055Y-117044783D02*
X174097077Y-116283708D01*
X175043714Y-115648194D02*
X174946055Y-117044783D01*
%TO.C,JP4*%
D15*
X92098500Y-101564742D02*
X92098500Y-102039258D01*
X93143500Y-101564742D02*
X93143500Y-102039258D01*
%TO.C,SW21*%
D13*
X116482893Y-134168492D02*
X116576067Y-134516225D01*
X116482893Y-134168492D02*
X119651129Y-133319565D01*
X116769253Y-134464461D02*
X116576067Y-134516225D01*
X117155822Y-136679899D02*
X117349007Y-136628135D01*
X117377985Y-136620371D02*
X116798230Y-134456697D01*
X117414641Y-137645825D02*
X117155822Y-136679899D01*
D16*
X121376863Y-124341596D02*
X123357011Y-123811017D01*
X121752150Y-125742188D02*
X121376863Y-124341596D01*
D13*
X122287241Y-134580246D02*
X127116870Y-133286151D01*
D16*
X123357011Y-123811017D02*
X123732298Y-125211609D01*
X123732298Y-125211609D02*
X121752150Y-125742188D01*
D13*
X127116870Y-133286151D02*
X127375689Y-134252077D01*
X127163185Y-134309017D02*
X127745528Y-136482350D01*
X127375689Y-134252077D02*
X127182504Y-134303841D01*
X127764847Y-136477174D02*
X127958032Y-136425410D01*
X127958032Y-136425410D02*
X128048618Y-136763484D01*
X128048618Y-136763484D02*
X119934842Y-138937565D01*
X119934842Y-138937565D02*
G75*
G02*
X117414640Y-137645825I-614231J1905971D01*
G01*
X122287241Y-134580246D02*
G75*
G02*
X119660242Y-133339352I-624423J2079236D01*
G01*
%TO.C,SW8*%
X153211399Y-79775260D02*
X153211399Y-80135260D01*
X153211399Y-79775260D02*
X156491399Y-79775260D01*
X153211399Y-82375260D02*
X153411399Y-82375260D01*
X153211399Y-83375260D02*
X153211399Y-82375260D01*
X153411399Y-80135260D02*
X153211399Y-80135260D01*
X153441399Y-82375260D02*
X153441399Y-80135260D01*
X158711399Y-81675260D02*
X163711399Y-81675260D01*
D16*
X160481999Y-71549860D02*
X162531999Y-71549860D01*
X160481999Y-72999860D02*
X160481999Y-71549860D01*
X162531999Y-71549860D02*
X162531999Y-72999860D01*
X162531999Y-72999860D02*
X160481999Y-72999860D01*
D13*
X163491399Y-82675260D02*
X163491399Y-84925260D01*
X163511399Y-84925260D02*
X163711399Y-84925260D01*
X163711399Y-81675260D02*
X163711399Y-82675260D01*
X163711399Y-82675260D02*
X163511399Y-82675260D01*
X163711399Y-84925260D02*
X163711399Y-85275260D01*
X163711399Y-85275260D02*
X155311399Y-85275261D01*
X155311399Y-85275261D02*
G75*
G02*
X153211398Y-83375260I-100000J2000001D01*
G01*
X158711399Y-81675260D02*
G75*
G02*
X156495081Y-79796731I-65000J2170000D01*
G01*
%TO.C,JP16*%
D15*
X137427500Y-117887258D02*
X137427500Y-117412742D01*
X138472500Y-117887258D02*
X138472500Y-117412742D01*
%TO.C,D21*%
D10*
X128530380Y-125788544D02*
X128973590Y-124738037D01*
X128973590Y-124738037D02*
X129882676Y-125426197D01*
X129649739Y-124556864D02*
X128297442Y-124919209D01*
X129882676Y-125426197D02*
X128530380Y-125788544D01*
%TO.C,BZ1*%
D15*
X153291506Y-108797549D02*
X164491506Y-108797549D01*
X153291506Y-112047549D02*
X153291506Y-108797549D01*
X153291506Y-117997549D02*
X153291506Y-114747549D01*
X164491506Y-108797549D02*
X164491506Y-112047549D01*
X164491506Y-114747549D02*
X164491506Y-117997549D01*
X164491506Y-117997549D02*
X153291506Y-117997549D01*
%TO.C,SW15*%
D13*
X172008671Y-112356142D02*
X172078427Y-111358578D01*
X172078427Y-111358578D02*
X172277940Y-111372529D01*
X172259794Y-108764911D02*
X172234682Y-109124034D01*
X172259794Y-108764911D02*
X175531804Y-108993712D01*
X172307867Y-111374622D02*
X172464121Y-109140078D01*
X172434194Y-109137986D02*
X172234682Y-109124034D01*
X177613859Y-111043944D02*
X182601679Y-111392726D01*
D16*
X179985311Y-102513187D02*
X180086458Y-101066719D01*
X180086458Y-101066719D02*
X182131464Y-101209720D01*
X182030317Y-102656188D02*
X179985311Y-102513187D01*
X182131464Y-101209720D02*
X182030317Y-102656188D01*
D13*
X182175458Y-114620858D02*
X182374971Y-114634809D01*
X182312459Y-112374944D02*
X182155507Y-114619463D01*
X182350556Y-114983957D02*
X173971018Y-114398003D01*
X182374971Y-114634809D02*
X182350556Y-114983957D01*
X182531923Y-112390290D02*
X182332410Y-112376339D01*
X182601679Y-111392726D02*
X182531923Y-112390290D01*
X173971018Y-114398003D02*
G75*
G02*
X172008669Y-112356142I39756J2002105D01*
G01*
X177613859Y-111043944D02*
G75*
G02*
X175533979Y-109015388I86530J2169249D01*
G01*
%TO.C,SW6*%
X115167969Y-91775260D02*
X115167969Y-92135260D01*
X115167969Y-91775260D02*
X118447969Y-91775260D01*
X115167969Y-94375260D02*
X115367969Y-94375260D01*
X115167969Y-95375260D02*
X115167969Y-94375260D01*
X115367969Y-92135260D02*
X115167969Y-92135260D01*
X115397969Y-94375260D02*
X115397969Y-92135260D01*
X120667969Y-93675260D02*
X125667969Y-93675260D01*
D16*
X122438569Y-83549860D02*
X124488569Y-83549860D01*
X122438569Y-84999860D02*
X122438569Y-83549860D01*
X124488569Y-83549860D02*
X124488569Y-84999860D01*
X124488569Y-84999860D02*
X122438569Y-84999860D01*
D13*
X125447969Y-94675260D02*
X125447969Y-96925260D01*
X125467969Y-96925260D02*
X125667969Y-96925260D01*
X125667969Y-93675260D02*
X125667969Y-94675260D01*
X125667969Y-94675260D02*
X125467969Y-94675260D01*
X125667969Y-96925260D02*
X125667969Y-97275260D01*
X125667969Y-97275260D02*
X117267969Y-97275261D01*
X117267969Y-97275261D02*
G75*
G02*
X115167968Y-95375260I-100000J2000001D01*
G01*
X120667969Y-93675260D02*
G75*
G02*
X118451651Y-91796731I-65000J2170000D01*
G01*
%TO.C,JP17*%
D15*
X139977500Y-117887258D02*
X139977500Y-117412742D01*
X141022500Y-117887258D02*
X141022500Y-117412742D01*
%TO.C,D14*%
D10*
X154500000Y-105600000D02*
X154500000Y-107000000D01*
X154500000Y-106300000D02*
X155400000Y-105600000D01*
X155400000Y-105600000D02*
X155400000Y-107000000D01*
X155400000Y-107000000D02*
X154500000Y-106300000D01*
%TO.C,SW18*%
D15*
X89490000Y-108050000D02*
X89490000Y-119850000D01*
X93590000Y-108050000D02*
X89490000Y-108050000D01*
X93590000Y-119850000D02*
X89490000Y-119850000D01*
X95090000Y-113950000D02*
X96090000Y-113950000D01*
X95590000Y-113450000D02*
X95590000Y-114450000D01*
X97590000Y-108050000D02*
X101690000Y-108050000D01*
X101690000Y-108050000D02*
X101690000Y-110450000D01*
X101690000Y-112650000D02*
X101690000Y-115250000D01*
X101690000Y-117450000D02*
X101690000Y-119850000D01*
X101690000Y-119850000D02*
X97590000Y-119850000D01*
X98590000Y-113950000D02*
G75*
G02*
X92590000Y-113950000I-3000000J0D01*
G01*
X92590000Y-113950000D02*
G75*
G02*
X98590000Y-113950000I3000000J0D01*
G01*
%TO.C,OLED1*%
X82679110Y-72855000D02*
X110079110Y-72855000D01*
X110079110Y-100155000D01*
X82679110Y-100155000D01*
X82679110Y-72855000D01*
X83229110Y-80255000D02*
X109629110Y-80255000D01*
X109629110Y-96855000D01*
X83229110Y-96855000D01*
X83229110Y-80255000D01*
X91379110Y-97255000D02*
X101379110Y-97255000D01*
X101379110Y-99655000D01*
X91379110Y-99655000D01*
X91379110Y-97255000D01*
%TO.C,J1*%
D10*
X82775000Y-124100000D02*
X94775000Y-124100000D01*
X82775000Y-130100000D02*
X82775000Y-124100000D01*
X94775000Y-124100000D02*
X94775000Y-130100000D01*
X94775000Y-130100000D02*
X82775000Y-130100000D01*
%TO.C,D6*%
X116500000Y-98500000D02*
X116500000Y-99900000D01*
X116500000Y-99200000D02*
X117400000Y-98500000D01*
X117400000Y-98500000D02*
X117400000Y-99900000D01*
X117400000Y-99900000D02*
X116500000Y-99200000D01*
%TO.C,JP2*%
D15*
X97137500Y-101564742D02*
X97137500Y-102039258D01*
X98182500Y-101564742D02*
X98182500Y-102039258D01*
%TO.C,SW12*%
D13*
X115167969Y-110847857D02*
X115167969Y-111207857D01*
X115167969Y-110847857D02*
X118447969Y-110847857D01*
X115167969Y-113447857D02*
X115367969Y-113447857D01*
X115167969Y-114447857D02*
X115167969Y-113447857D01*
X115367969Y-111207857D02*
X115167969Y-111207857D01*
X115397969Y-113447857D02*
X115397969Y-111207857D01*
X120667969Y-112747857D02*
X125667969Y-112747857D01*
D16*
X122438569Y-102622457D02*
X124488569Y-102622457D01*
X122438569Y-104072457D02*
X122438569Y-102622457D01*
X124488569Y-102622457D02*
X124488569Y-104072457D01*
X124488569Y-104072457D02*
X122438569Y-104072457D01*
D13*
X125447969Y-113747857D02*
X125447969Y-115997857D01*
X125467969Y-115997857D02*
X125667969Y-115997857D01*
X125667969Y-112747857D02*
X125667969Y-113747857D01*
X125667969Y-113747857D02*
X125467969Y-113747857D01*
X125667969Y-115997857D02*
X125667969Y-116347857D01*
X125667969Y-116347857D02*
X117267969Y-116347858D01*
X117267969Y-116347858D02*
G75*
G02*
X115167968Y-114447857I-100000J2000001D01*
G01*
X120667969Y-112747857D02*
G75*
G02*
X118451651Y-110869328I-65000J2170000D01*
G01*
%TO.C,JP3*%
D15*
X94643500Y-101564742D02*
X94643500Y-102039258D01*
X95688500Y-101564742D02*
X95688500Y-102039258D01*
%TO.C,D5*%
D10*
X196433423Y-92117974D02*
X197441304Y-91584892D01*
X196554977Y-91428607D02*
X196311869Y-92807339D01*
X197198196Y-92963623D02*
X196433423Y-92117974D01*
X197441304Y-91584892D02*
X197198196Y-92963623D01*
%TO.C,JP18*%
D15*
X145077500Y-117887258D02*
X145077500Y-117412742D01*
X146122500Y-117887258D02*
X146122500Y-117412742D01*
%TO.C,D20*%
D10*
X107115782Y-132596167D02*
X107272000Y-131466744D01*
X107272000Y-131466744D02*
X108328218Y-131896167D01*
X107878218Y-131116744D02*
X106665782Y-131816744D01*
X108328218Y-131896167D02*
X107115782Y-132596167D01*
%TO.C,SW1*%
D13*
X115167969Y-72702664D02*
X115167969Y-73062664D01*
X115167969Y-72702664D02*
X118447969Y-72702664D01*
X115167969Y-75302664D02*
X115367969Y-75302664D01*
X115167969Y-76302664D02*
X115167969Y-75302664D01*
X115367969Y-73062664D02*
X115167969Y-73062664D01*
X115397969Y-75302664D02*
X115397969Y-73062664D01*
X120667969Y-74602664D02*
X125667969Y-74602664D01*
D16*
X122438569Y-64477264D02*
X124488569Y-64477264D01*
X122438569Y-65927264D02*
X122438569Y-64477264D01*
X124488569Y-64477264D02*
X124488569Y-65927264D01*
X124488569Y-65927264D02*
X122438569Y-65927264D01*
D13*
X125447969Y-75602664D02*
X125447969Y-77852664D01*
X125467969Y-77852664D02*
X125667969Y-77852664D01*
X125667969Y-74602664D02*
X125667969Y-75602664D01*
X125667969Y-75602664D02*
X125467969Y-75602664D01*
X125667969Y-77852664D02*
X125667969Y-78202664D01*
X125667969Y-78202664D02*
X117267969Y-78202665D01*
X117267969Y-78202665D02*
G75*
G02*
X115167968Y-76302664I-100000J2000001D01*
G01*
X120667969Y-74602664D02*
G75*
G02*
X118451651Y-72724135I-65000J2170000D01*
G01*
%TO.C,BT1*%
D15*
X82815000Y-100732660D02*
X82815000Y-101652660D01*
X82815000Y-101652660D02*
X84415000Y-101652660D01*
X82815000Y-105932660D02*
X82815000Y-106852660D01*
X82815000Y-106852660D02*
X90635000Y-106852660D01*
X84415000Y-100732660D02*
X84415000Y-101652660D01*
X84415000Y-101652660D02*
X84415000Y-101932660D01*
X84415000Y-105652660D02*
X83200000Y-105652660D01*
X84415000Y-105652660D02*
X84415000Y-105932660D01*
X84415000Y-105932660D02*
X82815000Y-105932660D01*
X84415000Y-106852660D02*
X84415000Y-105932660D01*
X86275000Y-103292660D02*
X90635000Y-103292660D01*
X86275000Y-104292660D02*
X86275000Y-103292660D01*
X86775000Y-101492660D02*
X88375000Y-101492660D01*
X86775000Y-102492660D02*
X86775000Y-101492660D01*
X86775000Y-105092660D02*
X86775000Y-106092660D01*
X86775000Y-106092660D02*
X88375000Y-106092660D01*
X88375000Y-101492660D02*
X88375000Y-102492660D01*
X88375000Y-102492660D02*
X86775000Y-102492660D01*
X88375000Y-105092660D02*
X86775000Y-105092660D01*
X88375000Y-105092660D02*
X90635000Y-105092660D01*
X88375000Y-105592660D02*
X90635000Y-105592660D01*
X88375000Y-106092660D02*
X88375000Y-105092660D01*
X90635000Y-100732660D02*
X82815000Y-100732660D01*
X90635000Y-104292660D02*
X86275000Y-104292660D01*
X90635000Y-106852660D02*
X90635000Y-100732660D01*
%TO.C,SW9*%
D13*
X173339108Y-93330005D02*
X173408864Y-92332441D01*
X173408864Y-92332441D02*
X173608377Y-92346392D01*
X173590231Y-89738774D02*
X173565119Y-90097897D01*
X173590231Y-89738774D02*
X176862241Y-89967575D01*
X173638304Y-92348485D02*
X173794558Y-90113941D01*
X173764631Y-90111849D02*
X173565119Y-90097897D01*
X178944296Y-92017807D02*
X183932116Y-92366589D01*
D16*
X181315748Y-83487050D02*
X181416895Y-82040582D01*
X181416895Y-82040582D02*
X183461901Y-82183583D01*
X183360754Y-83630051D02*
X181315748Y-83487050D01*
X183461901Y-82183583D02*
X183360754Y-83630051D01*
D13*
X183505895Y-95594721D02*
X183705408Y-95608672D01*
X183642896Y-93348807D02*
X183485944Y-95593326D01*
X183680993Y-95957820D02*
X175301455Y-95371866D01*
X183705408Y-95608672D02*
X183680993Y-95957820D01*
X183862360Y-93364153D02*
X183662847Y-93350202D01*
X183932116Y-92366589D02*
X183862360Y-93364153D01*
X175301455Y-95371866D02*
G75*
G02*
X173339106Y-93330005I39756J2002105D01*
G01*
X178944296Y-92017807D02*
G75*
G02*
X176864416Y-89989251I86530J2169249D01*
G01*
%TO.C,RSW1*%
D15*
X83100000Y-119254766D02*
X83100000Y-121254766D01*
X85900000Y-117854766D02*
X84900000Y-117854766D01*
X85900000Y-118454766D02*
X85900000Y-117854766D01*
X85900000Y-122054766D02*
X85900000Y-122654766D01*
X85900000Y-122654766D02*
X84900000Y-122654766D01*
%TO.C,D2*%
D10*
X135500000Y-76400000D02*
X135500000Y-77800000D01*
X135500000Y-77100000D02*
X136400000Y-76400000D01*
X136400000Y-76400000D02*
X136400000Y-77800000D01*
X136400000Y-77800000D02*
X135500000Y-77100000D01*
%TO.C,D3*%
X154600000Y-67400000D02*
X154600000Y-68800000D01*
X154600000Y-68100000D02*
X155500000Y-67400000D01*
X155500000Y-67400000D02*
X155500000Y-68800000D01*
X155500000Y-68800000D02*
X154600000Y-68100000D01*
%TO.C,D8*%
X154579000Y-86485000D02*
X154579000Y-87885000D01*
X154579000Y-87185000D02*
X155479000Y-86485000D01*
X155479000Y-86485000D02*
X155479000Y-87885000D01*
X155479000Y-87885000D02*
X154579000Y-87185000D01*
%TO.C,D16*%
X189807596Y-129613176D02*
X190815477Y-129080094D01*
X189929150Y-128923809D02*
X189686042Y-130302541D01*
X190572369Y-130458825D02*
X189807596Y-129613176D01*
X190815477Y-129080094D02*
X190572369Y-130458825D01*
%TO.C,D18*%
X100380000Y-106260000D02*
X100380000Y-107660000D01*
X100380000Y-106960000D02*
X101280000Y-106260000D01*
X101280000Y-106260000D02*
X101280000Y-107660000D01*
X101280000Y-107660000D02*
X100380000Y-106960000D01*
%TO.C,SW3*%
D13*
X153211399Y-60702664D02*
X153211399Y-61062664D01*
X153211399Y-60702664D02*
X156491399Y-60702664D01*
X153211399Y-63302664D02*
X153411399Y-63302664D01*
X153211399Y-64302664D02*
X153211399Y-63302664D01*
X153411399Y-61062664D02*
X153211399Y-61062664D01*
X153441399Y-63302664D02*
X153441399Y-61062664D01*
X158711399Y-62602664D02*
X163711399Y-62602664D01*
D16*
X160481999Y-52477264D02*
X162531999Y-52477264D01*
X160481999Y-53927264D02*
X160481999Y-52477264D01*
X162531999Y-52477264D02*
X162531999Y-53927264D01*
X162531999Y-53927264D02*
X160481999Y-53927264D01*
D13*
X163491399Y-63602664D02*
X163491399Y-65852664D01*
X163511399Y-65852664D02*
X163711399Y-65852664D01*
X163711399Y-62602664D02*
X163711399Y-63602664D01*
X163711399Y-63602664D02*
X163511399Y-63602664D01*
X163711399Y-65852664D02*
X163711399Y-66202664D01*
X163711399Y-66202664D02*
X155311399Y-66202665D01*
X155311399Y-66202665D02*
G75*
G02*
X153211398Y-64302664I-100000J2000001D01*
G01*
X158711399Y-62602664D02*
G75*
G02*
X156495081Y-60724135I-65000J2170000D01*
G01*
%TO.C,REF\u002A\u002A*%
D14*
X129828479Y-93281304D02*
G75*
G02*
X130862344Y-89130758I20320000J-2857500D01*
G01*
X130862345Y-103146851D02*
G75*
G02*
X129828479Y-98996304I19286134J7008047D01*
G01*
X143140432Y-76852670D02*
G75*
G02*
X147290979Y-75818804I7008037J-19286087D01*
G01*
X153005979Y-75818804D02*
G75*
G02*
X157156527Y-76852670I-2857496J-20319983D01*
G01*
X169434613Y-89130756D02*
G75*
G02*
X170468479Y-93281304I-19286117J-7008044D01*
G01*
X170468479Y-98996304D02*
G75*
G02*
X169434613Y-103146851I-20320000J2857500D01*
G01*
%TO.C,SW20*%
D13*
X97687604Y-143734364D02*
X97867604Y-144046133D01*
X97687604Y-143734364D02*
X100528167Y-142094364D01*
X98040809Y-143946133D02*
X97867604Y-144046133D01*
X98987604Y-145986030D02*
X99160809Y-145886030D01*
X99186790Y-145871030D02*
X98066790Y-143931133D01*
X99487604Y-146852055D02*
X98987604Y-145986030D01*
D16*
X99871428Y-132975659D02*
X101646780Y-131950659D01*
X100596428Y-134231395D02*
X99871428Y-132975659D01*
X101646780Y-131950659D02*
X102371780Y-133206395D01*
X102371780Y-133206395D02*
X100596428Y-134231395D01*
D13*
X103400744Y-142629812D02*
X107730871Y-140129812D01*
X107730871Y-140129812D02*
X108230871Y-140995838D01*
X108040345Y-141105838D02*
X109165345Y-143054395D01*
X108230871Y-140995838D02*
X108057666Y-141095838D01*
X109182666Y-143044395D02*
X109355871Y-142944395D01*
X109355871Y-142944395D02*
X109530871Y-143247504D01*
X109530871Y-143247504D02*
X102256258Y-147447505D01*
X102256258Y-147447505D02*
G75*
G02*
X99487603Y-146852056I-1086603J1682052D01*
G01*
X103400744Y-142629812D02*
G75*
G02*
X100542091Y-142111117I-1141292J1846775D01*
G01*
%TO.C,JP1*%
D15*
X99682500Y-101564742D02*
X99682500Y-102039258D01*
X100727500Y-101564742D02*
X100727500Y-102039258D01*
%TO.C,SW16*%
D13*
X189453631Y-125694468D02*
X189627279Y-124709660D01*
X189627279Y-124709660D02*
X189824241Y-124744390D01*
X189853785Y-124749600D02*
X190242757Y-122543630D01*
X190078764Y-122149160D02*
X190016251Y-122503691D01*
X190078764Y-122149160D02*
X193308934Y-122718726D01*
X190213212Y-122538421D02*
X190016251Y-122503691D01*
X195165275Y-124975360D02*
X200089314Y-125843601D01*
D16*
X198415443Y-116739220D02*
X198667233Y-115311249D01*
X198667233Y-115311249D02*
X200686089Y-115667228D01*
D13*
X199327996Y-129009496D02*
X199524958Y-129044226D01*
X199464181Y-129388909D02*
X191191795Y-127930265D01*
X199524958Y-129044226D02*
X199464181Y-129388909D01*
X199699008Y-126790206D02*
X199308300Y-129006023D01*
X199915666Y-126828409D02*
X199718704Y-126793679D01*
X200089314Y-125843601D02*
X199915666Y-126828409D01*
D16*
X200434299Y-117095199D02*
X198415443Y-116739220D01*
X200686089Y-115667228D02*
X200434299Y-117095199D01*
D13*
X191191795Y-127930265D02*
G75*
G02*
X189453630Y-125694468I248816J1986981D01*
G01*
X195165275Y-124975360D02*
G75*
G02*
X193308831Y-122740510I312804J2148320D01*
G01*
%TO.C,D9*%
D10*
X174566582Y-97269404D02*
X175513219Y-96633890D01*
X174615412Y-96571109D02*
X174517752Y-97967699D01*
X175415560Y-98030479D02*
X174566582Y-97269404D01*
X175513219Y-96633890D02*
X175415560Y-98030479D01*
%TO.C,SW13*%
D13*
X134161399Y-107847857D02*
X134161399Y-108207857D01*
X134161399Y-107847857D02*
X137441399Y-107847857D01*
X134161399Y-110447857D02*
X134361399Y-110447857D01*
X134161399Y-111447857D02*
X134161399Y-110447857D01*
X134361399Y-108207857D02*
X134161399Y-108207857D01*
X134391399Y-110447857D02*
X134391399Y-108207857D01*
X139661399Y-109747857D02*
X144661399Y-109747857D01*
D16*
X141431999Y-99622457D02*
X143481999Y-99622457D01*
X141431999Y-101072457D02*
X141431999Y-99622457D01*
X143481999Y-99622457D02*
X143481999Y-101072457D01*
X143481999Y-101072457D02*
X141431999Y-101072457D01*
D13*
X144441399Y-110747857D02*
X144441399Y-112997857D01*
X144461399Y-112997857D02*
X144661399Y-112997857D01*
X144661399Y-109747857D02*
X144661399Y-110747857D01*
X144661399Y-110747857D02*
X144461399Y-110747857D01*
X144661399Y-112997857D02*
X144661399Y-113347857D01*
X144661399Y-113347857D02*
X136261399Y-113347858D01*
X136261399Y-113347858D02*
G75*
G02*
X134161398Y-111447857I-100000J2000001D01*
G01*
X139661399Y-109747857D02*
G75*
G02*
X137445081Y-107869328I-65000J2170000D01*
G01*
%TO.C,SW7*%
X134161399Y-88775260D02*
X134161399Y-89135260D01*
X134161399Y-88775260D02*
X137441399Y-88775260D01*
X134161399Y-91375260D02*
X134361399Y-91375260D01*
X134161399Y-92375260D02*
X134161399Y-91375260D01*
X134361399Y-89135260D02*
X134161399Y-89135260D01*
X134391399Y-91375260D02*
X134391399Y-89135260D01*
X139661399Y-90675260D02*
X144661399Y-90675260D01*
D16*
X141431999Y-80549860D02*
X143481999Y-80549860D01*
X141431999Y-81999860D02*
X141431999Y-80549860D01*
X143481999Y-80549860D02*
X143481999Y-81999860D01*
X143481999Y-81999860D02*
X141431999Y-81999860D01*
D13*
X144441399Y-91675260D02*
X144441399Y-93925260D01*
X144461399Y-93925260D02*
X144661399Y-93925260D01*
X144661399Y-90675260D02*
X144661399Y-91675260D01*
X144661399Y-91675260D02*
X144461399Y-91675260D01*
X144661399Y-93925260D02*
X144661399Y-94275260D01*
X144661399Y-94275260D02*
X136261399Y-94275261D01*
X136261399Y-94275261D02*
G75*
G02*
X134161398Y-92375260I-100000J2000001D01*
G01*
X139661399Y-90675260D02*
G75*
G02*
X137445081Y-88796731I-65000J2170000D01*
G01*
%TO.C,D4*%
D10*
X175497077Y-78183708D02*
X176443714Y-77548194D01*
X175545907Y-77485413D02*
X175448247Y-78882003D01*
X176346055Y-78944783D02*
X175497077Y-78183708D01*
X176443714Y-77548194D02*
X176346055Y-78944783D01*
%TO.C,D13*%
X147500000Y-102800000D02*
X148900000Y-102800000D01*
X147500000Y-103700000D02*
X148900000Y-103700000D01*
X148200000Y-103700000D02*
X147500000Y-102800000D01*
X148900000Y-102800000D02*
X148200000Y-103700000D01*
%TO.C,SW5*%
D13*
X196077475Y-88128787D02*
X196251123Y-87143979D01*
X196251123Y-87143979D02*
X196448085Y-87178709D01*
X196477629Y-87183919D02*
X196866601Y-84977949D01*
X196702608Y-84583479D02*
X196640095Y-84938010D01*
X196702608Y-84583479D02*
X199932778Y-85153045D01*
X196837056Y-84972740D02*
X196640095Y-84938010D01*
X201789119Y-87409679D02*
X206713158Y-88277920D01*
D16*
X205039287Y-79173539D02*
X205291077Y-77745568D01*
X205291077Y-77745568D02*
X207309933Y-78101547D01*
D13*
X205951840Y-91443815D02*
X206148802Y-91478545D01*
X206088025Y-91823228D02*
X197815639Y-90364584D01*
X206148802Y-91478545D02*
X206088025Y-91823228D01*
X206322852Y-89224525D02*
X205932144Y-91440342D01*
X206539510Y-89262728D02*
X206342548Y-89227998D01*
X206713158Y-88277920D02*
X206539510Y-89262728D01*
D16*
X207058143Y-79529518D02*
X205039287Y-79173539D01*
X207309933Y-78101547D02*
X207058143Y-79529518D01*
D13*
X197815639Y-90364584D02*
G75*
G02*
X196077474Y-88128787I248816J1986981D01*
G01*
X201789119Y-87409679D02*
G75*
G02*
X199932675Y-85174829I312804J2148320D01*
G01*
%TO.C,D1*%
D10*
X116500000Y-79400000D02*
X116500000Y-80800000D01*
X116500000Y-80100000D02*
X117400000Y-79400000D01*
X117400000Y-79400000D02*
X117400000Y-80800000D01*
X117400000Y-80800000D02*
X116500000Y-80100000D01*
%TO.C,PSW1*%
X82675000Y-62500000D02*
X85575000Y-62500000D01*
X82725000Y-69250000D02*
X82675000Y-62500000D01*
X85575000Y-62500000D02*
X85575000Y-69250000D01*
X85575000Y-69250000D02*
X82725000Y-69250000D01*
%TO.C,JP24*%
D15*
X85082546Y-108587742D02*
X85082546Y-109062258D01*
X86127546Y-108587742D02*
X86127546Y-109062258D01*
%TO.C,D12*%
D10*
X116300000Y-117590000D02*
X116300000Y-118990000D01*
X116300000Y-118290000D02*
X117200000Y-117590000D01*
X117200000Y-117590000D02*
X117200000Y-118990000D01*
X117200000Y-118990000D02*
X116300000Y-118290000D01*
%TO.C,J3*%
D15*
X136700000Y-119000000D02*
X149350000Y-119000000D01*
X149350000Y-121500000D01*
X136700000Y-121500000D01*
X136700000Y-119000000D01*
%TO.C,SW14*%
D13*
X153211399Y-98847857D02*
X153211399Y-99207857D01*
X153211399Y-98847857D02*
X156491399Y-98847857D01*
X153211399Y-101447857D02*
X153411399Y-101447857D01*
X153211399Y-102447857D02*
X153211399Y-101447857D01*
X153411399Y-99207857D02*
X153211399Y-99207857D01*
X153441399Y-101447857D02*
X153441399Y-99207857D01*
X158711399Y-100747857D02*
X163711399Y-100747857D01*
D16*
X160481999Y-90622457D02*
X162531999Y-90622457D01*
X160481999Y-92072457D02*
X160481999Y-90622457D01*
X162531999Y-90622457D02*
X162531999Y-92072457D01*
X162531999Y-92072457D02*
X160481999Y-92072457D01*
D13*
X163491399Y-101747857D02*
X163491399Y-103997857D01*
X163511399Y-103997857D02*
X163711399Y-103997857D01*
X163711399Y-100747857D02*
X163711399Y-101747857D01*
X163711399Y-101747857D02*
X163511399Y-101747857D01*
X163711399Y-103997857D02*
X163711399Y-104347857D01*
X163711399Y-104347857D02*
X155311399Y-104347858D01*
X155311399Y-104347858D02*
G75*
G02*
X153211398Y-102447857I-100000J2000001D01*
G01*
X158711399Y-100747857D02*
G75*
G02*
X156495081Y-98869328I-65000J2170000D01*
G01*
%TO.C,SW10*%
X192765553Y-106911626D02*
X192939201Y-105926818D01*
X192939201Y-105926818D02*
X193136163Y-105961548D01*
X193165707Y-105966758D02*
X193554679Y-103760788D01*
X193390686Y-103366318D02*
X193328173Y-103720849D01*
X193390686Y-103366318D02*
X196620856Y-103935884D01*
X193525134Y-103755579D02*
X193328173Y-103720849D01*
X198477197Y-106192518D02*
X203401236Y-107060759D01*
D16*
X201727365Y-97956378D02*
X201979155Y-96528407D01*
X201979155Y-96528407D02*
X203998011Y-96884386D01*
D13*
X202639918Y-110226654D02*
X202836880Y-110261384D01*
X202776103Y-110606067D02*
X194503717Y-109147423D01*
X202836880Y-110261384D02*
X202776103Y-110606067D01*
X203010930Y-108007364D02*
X202620222Y-110223181D01*
X203227588Y-108045567D02*
X203030626Y-108010837D01*
X203401236Y-107060759D02*
X203227588Y-108045567D01*
D16*
X203746221Y-98312357D02*
X201727365Y-97956378D01*
X203998011Y-96884386D02*
X203746221Y-98312357D01*
D13*
X194503717Y-109147423D02*
G75*
G02*
X192765552Y-106911626I248816J1986981D01*
G01*
X198477197Y-106192518D02*
G75*
G02*
X196620753Y-103957668I312804J2148320D01*
G01*
%TO.C,U1*%
D10*
X88808815Y-54225745D02*
X88808815Y-87245745D01*
X88808815Y-56765745D02*
X88808815Y-87245745D01*
X88808815Y-87245745D02*
X91348815Y-87245745D01*
X91348815Y-56765745D02*
X88808815Y-56765745D01*
X91348815Y-87245745D02*
X91348815Y-56765745D01*
X104048815Y-56765745D02*
X104048815Y-87245745D01*
X104048815Y-87245745D02*
X106588815Y-87245745D01*
X106588815Y-54225745D02*
X88808815Y-54225745D01*
X106588815Y-56765745D02*
X104048815Y-56765745D01*
X106588815Y-87245745D02*
X106588815Y-54225745D01*
X106588815Y-87245745D02*
X106588815Y-56765745D01*
%TO.C,SW2*%
D13*
X134161399Y-69702664D02*
X134161399Y-70062664D01*
X134161399Y-69702664D02*
X137441399Y-69702664D01*
X134161399Y-72302664D02*
X134361399Y-72302664D01*
X134161399Y-73302664D02*
X134161399Y-72302664D01*
X134361399Y-70062664D02*
X134161399Y-70062664D01*
X134391399Y-72302664D02*
X134391399Y-70062664D01*
X139661399Y-71602664D02*
X144661399Y-71602664D01*
D16*
X141431999Y-61477264D02*
X143481999Y-61477264D01*
X141431999Y-62927264D02*
X141431999Y-61477264D01*
X143481999Y-61477264D02*
X143481999Y-62927264D01*
X143481999Y-62927264D02*
X141431999Y-62927264D01*
D13*
X144441399Y-72602664D02*
X144441399Y-74852664D01*
X144461399Y-74852664D02*
X144661399Y-74852664D01*
X144661399Y-71602664D02*
X144661399Y-72602664D01*
X144661399Y-72602664D02*
X144461399Y-72602664D01*
X144661399Y-74852664D02*
X144661399Y-75202664D01*
X144661399Y-75202664D02*
X136261399Y-75202665D01*
X136261399Y-75202665D02*
G75*
G02*
X134161398Y-73302664I-100000J2000001D01*
G01*
X139661399Y-71602664D02*
G75*
G02*
X137445081Y-69724135I-65000J2170000D01*
G01*
%TD*%
D17*
%TO.C,J1*%
X84275000Y-128850000D03*
X91275000Y-128850000D03*
X84275000Y-127100000D03*
X91275000Y-127100000D03*
D18*
X93075000Y-130950000D03*
X93075000Y-125000000D03*
X89075000Y-130950000D03*
X89075000Y-125000000D03*
X86075000Y-130950000D03*
X86075000Y-125000000D03*
X94575000Y-129200000D03*
X94575000Y-126750000D03*
%TD*%
D19*
%TO.C,U1*%
X88780000Y-56840000D03*
X88780000Y-59380000D03*
X88780000Y-61920000D03*
X88780000Y-64460000D03*
X88780000Y-67000000D03*
X88780000Y-69540000D03*
X88780000Y-72080000D03*
X88780000Y-74620000D03*
X88780000Y-77160000D03*
X88780000Y-79700000D03*
X88780000Y-82240000D03*
X88780000Y-84780000D03*
X104020000Y-84780000D03*
X104020000Y-82240000D03*
X104020000Y-79700000D03*
X104020000Y-77160000D03*
X104020000Y-74620000D03*
X104020000Y-72080000D03*
X104020000Y-69540000D03*
X104020000Y-67000000D03*
X104020000Y-64460000D03*
X104020000Y-61920000D03*
X104020000Y-59380000D03*
X104020000Y-56840000D03*
%TD*%
M02*
