%TF.GenerationSoftware,KiCad,Pcbnew,10.0.5*%
%TF.CreationDate,2026-08-21T12:58:39-07:00*%
%TF.ProjectId,klaw_1,6b6c6177-5f31-42e6-9b69-6361645f7063,v1*%
%TF.SameCoordinates,Original*%
%TF.FileFunction,Paste,Bot*%
%TF.FilePolarity,Positive*%
%FSLAX46Y46*%
G04 Gerber Fmt 4.6, Leading zero omitted, Abs format (unit mm)*
G04 Created by KiCad (PCBNEW 10.0.5) date 2026-08-21 12:58:39*
%MOMM*%
%LPD*%
G01*
G04 APERTURE LIST*
G04 Aperture macros list*
%AMRotRect*
0 Rectangle, with rotation*
0 The origin of the aperture is its center*
0 $1 length*
0 $2 width*
0 $3 Rotation angle, in degrees counterclockwise*
0 Add horizontal line*
21,1,$1,$2,0,0,$3*%
G04 Aperture macros list end*
%ADD10RotRect,1.600000X1.000000X176.000000*%
%ADD11RotRect,2.300000X2.000000X356.000000*%
%ADD12RotRect,1.600000X1.000000X195.000000*%
%ADD13RotRect,2.300000X2.000000X15.000000*%
%ADD14R,1.600000X1.000000*%
%ADD15R,2.300000X2.000000*%
%ADD16RotRect,1.600000X1.000000X210.000000*%
%ADD17RotRect,2.300000X2.000000X30.000000*%
%ADD18RotRect,1.600000X1.000000X170.000000*%
%ADD19RotRect,2.300000X2.000000X350.000000*%
%ADD20R,1.000000X0.700000*%
%ADD21R,2.800000X1.000000*%
%ADD22R,1.143000X0.635000*%
G04 APERTURE END LIST*
D10*
%TO.C,SW4*%
X183599805Y-65580564D03*
X183721879Y-63834827D03*
X178933572Y-63499996D03*
X178811498Y-65245733D03*
D11*
X187686005Y-73088893D03*
X174839760Y-74736798D03*
%TD*%
D12*
%TO.C,SW21*%
X123018338Y-126490368D03*
X122565405Y-124799998D03*
X117928961Y-126042331D03*
X118381894Y-127732700D03*
D13*
X129326388Y-132259296D03*
X117716530Y-137999750D03*
%TD*%
D14*
%TO.C,SW8*%
X161511399Y-74050260D03*
X161511399Y-72300260D03*
X156711399Y-72300260D03*
X156711399Y-74050260D03*
D15*
X166111399Y-81255260D03*
X153411399Y-83795260D03*
%TD*%
D10*
%TO.C,SW15*%
X180938931Y-103632836D03*
X181061005Y-101887099D03*
X176272698Y-101552268D03*
X176150624Y-103298005D03*
D11*
X185025131Y-111141165D03*
X172178886Y-112789070D03*
%TD*%
D14*
%TO.C,SW6*%
X123467969Y-86050260D03*
X123467969Y-84300260D03*
X118667969Y-84300260D03*
X118667969Y-86050260D03*
D15*
X128067969Y-93255260D03*
X115367969Y-95795260D03*
%TD*%
D14*
%TO.C,SW12*%
X123467969Y-105122857D03*
X123467969Y-103372857D03*
X118667969Y-103372857D03*
X118667969Y-105122857D03*
D15*
X128067969Y-112327857D03*
X115367969Y-114867857D03*
%TD*%
D14*
%TO.C,SW1*%
X123467969Y-66977664D03*
X123467969Y-65227664D03*
X118667969Y-65227664D03*
X118667969Y-66977664D03*
D15*
X128067969Y-74182664D03*
X115367969Y-76722664D03*
%TD*%
D10*
%TO.C,SW9*%
X182269368Y-84606699D03*
X182391442Y-82860962D03*
X177603135Y-82526131D03*
X177481061Y-84271868D03*
D11*
X186355568Y-92115028D03*
X173509323Y-93762933D03*
%TD*%
D14*
%TO.C,SW3*%
X161511399Y-54977664D03*
X161511399Y-53227664D03*
X156711399Y-53227664D03*
X156711399Y-54977664D03*
D15*
X166111399Y-62182664D03*
X153411399Y-64722664D03*
%TD*%
D16*
%TO.C,SW20*%
X102013115Y-134626369D03*
X101138115Y-133110824D03*
X96981193Y-135510824D03*
X97856193Y-137026369D03*
D17*
X109599332Y-138566082D03*
X99870809Y-147115786D03*
%TD*%
D18*
%TO.C,SW16*%
X199246804Y-117952416D03*
X199550689Y-116229002D03*
X194823612Y-115395491D03*
X194519727Y-117118906D03*
D19*
X202525785Y-125846737D03*
X189577660Y-126142817D03*
%TD*%
D14*
%TO.C,SW13*%
X142461399Y-102122857D03*
X142461399Y-100372857D03*
X137661399Y-100372857D03*
X137661399Y-102122857D03*
D15*
X147061399Y-109327857D03*
X134361399Y-111867857D03*
%TD*%
D14*
%TO.C,SW7*%
X142461399Y-83050260D03*
X142461399Y-81300260D03*
X137661399Y-81300260D03*
X137661399Y-83050260D03*
D15*
X147061399Y-90255260D03*
X134361399Y-92795260D03*
%TD*%
D18*
%TO.C,SW5*%
X205870648Y-80386735D03*
X206174533Y-78663321D03*
X201447456Y-77829810D03*
X201143571Y-79553225D03*
D19*
X209149629Y-88281056D03*
X196201504Y-88577136D03*
%TD*%
D20*
%TO.C,PSW1*%
X86075000Y-68000000D03*
X86075000Y-65000000D03*
X86075000Y-63500000D03*
D21*
X84175000Y-61900000D03*
X84175000Y-69850000D03*
%TD*%
D14*
%TO.C,SW14*%
X161511399Y-93122857D03*
X161511399Y-91372857D03*
X156711399Y-91372857D03*
X156711399Y-93122857D03*
D15*
X166111399Y-100327857D03*
X153411399Y-102867857D03*
%TD*%
D18*
%TO.C,SW10*%
X202558726Y-99169574D03*
X202862611Y-97446160D03*
X198135534Y-96612649D03*
X197831649Y-98336064D03*
D19*
X205837707Y-107063895D03*
X192889582Y-107359975D03*
%TD*%
D14*
%TO.C,SW2*%
X142461399Y-63977664D03*
X142461399Y-62227664D03*
X137661399Y-62227664D03*
X137661399Y-63977664D03*
D15*
X147061399Y-71182664D03*
X134361399Y-73722664D03*
%TD*%
D22*
%TO.C,JP8*%
X92629450Y-101301620D03*
X92629450Y-102302380D03*
%TD*%
%TO.C,JP19*%
X140500000Y-118150380D03*
X140500000Y-117149620D03*
%TD*%
%TO.C,JP5*%
X100213450Y-101301620D03*
X100213450Y-102302380D03*
%TD*%
%TO.C,JP20*%
X145600000Y-118150760D03*
X145600000Y-117150000D03*
%TD*%
%TO.C,JP6*%
X97668450Y-101301620D03*
X97668450Y-102302380D03*
%TD*%
%TO.C,JP25*%
X83825000Y-107992280D03*
X83825000Y-108993040D03*
%TD*%
%TO.C,JP7*%
X95166000Y-101301620D03*
X95166000Y-102302380D03*
%TD*%
%TO.C,JP23*%
X85600000Y-107992280D03*
X85600000Y-108993040D03*
%TD*%
%TO.C,JP21*%
X148100000Y-118150380D03*
X148100000Y-117149620D03*
%TD*%
M02*
