M48
; DRILL file KiCad 10.0.5 date 2026-08-21T12:58:41
; FORMAT={-:-/ absolute / metric / decimal}
; #@! TF.CreationDate,2026-08-21T12:58:41-07:00
; #@! TF.GenerationSoftware,Kicad,Pcbnew,10.0.5
; #@! TF.FileFunction,NonPlated,1,2,NPTH
FMAT,2
METRIC
; #@! TA.AperFunction,NonPlated,NPTH,ComponentDrill
T1C0.700
; #@! TA.AperFunction,NonPlated,NPTH,ComponentDrill
T2C0.900
; #@! TA.AperFunction,NonPlated,NPTH,ComponentDrill
T3C1.200
; #@! TA.AperFunction,NonPlated,NPTH,ComponentDrill
T4C1.700
; #@! TA.AperFunction,NonPlated,NPTH,ComponentDrill
T5C1.900
; #@! TA.AperFunction,NonPlated,NPTH,ComponentDrill
T6C3.000
; #@! TA.AperFunction,NonPlated,NPTH,ComponentDrill
T7C3.200
; #@! TA.AperFunction,NonPlated,NPTH,ComponentDrill
T8C4.100
%
G90
G05
T1
X84.225Y-67.25
X84.275Y-64.25
T2
X84.4Y-118.13
X84.4Y-122.38
T3
X84.275Y-127.1
X84.275Y-128.85
X91.275Y-127.1
X91.275Y-128.85
T4
X98.35Y-142.082
X106.144Y-137.582
X116.568Y-71.603
X116.568Y-90.675
X116.568Y-109.748
X117.55Y-132.744
X125.568Y-71.603
X125.568Y-90.675
X125.568Y-109.748
X126.244Y-130.414
X135.561Y-68.603
X135.561Y-87.675
X135.561Y-106.748
X144.561Y-68.603
X144.561Y-87.675
X144.561Y-106.748
X154.611Y-59.603
X154.611Y-78.675
X154.611Y-97.748
X163.611Y-59.603
X163.611Y-78.675
X163.611Y-97.748
X173.733Y-107.765
X175.064Y-88.739
X176.394Y-69.713
X182.711Y-108.393
X184.042Y-89.367
X185.372Y-70.341
X191.649Y-121.309
X194.96Y-102.526
X198.272Y-83.743
X200.512Y-122.872
X203.824Y-104.089
X207.136Y-85.306
T5
X97.848Y-142.372
X106.647Y-137.292
X115.988Y-71.603
X115.988Y-90.675
X115.988Y-109.748
X116.99Y-132.894
X126.148Y-71.603
X126.148Y-90.675
X126.148Y-109.748
X126.804Y-130.264
X134.981Y-68.603
X134.981Y-87.675
X134.981Y-106.748
X145.141Y-68.603
X145.141Y-87.675
X145.141Y-106.748
X154.031Y-59.603
X154.031Y-78.675
X154.031Y-97.748
X164.191Y-59.603
X164.191Y-78.675
X164.191Y-97.748
X173.155Y-107.725
X174.485Y-88.699
X175.815Y-69.673
X183.29Y-108.434
X184.62Y-89.407
X185.951Y-70.381
X191.077Y-121.208
X194.389Y-102.425
X197.701Y-83.643
X201.083Y-122.973
X204.395Y-104.19
X207.707Y-85.407
T6
X100.218Y-143.936
X102.587Y-145.501
X106.817Y-140.126
X106.987Y-142.961
X117.258Y-74.143
X117.258Y-93.215
X117.258Y-112.288
X118.528Y-76.683
X118.528Y-95.755
X118.528Y-114.828
X118.874Y-135.018
X120.759Y-137.143
X123.608Y-76.683
X123.608Y-95.755
X123.608Y-114.828
X124.878Y-74.143
X124.878Y-93.215
X124.878Y-112.288
X125.665Y-135.828
X126.235Y-133.046
X136.251Y-71.143
X136.251Y-90.215
X136.251Y-109.288
X137.521Y-73.683
X137.521Y-92.755
X137.521Y-111.828
X142.601Y-73.683
X142.601Y-92.755
X142.601Y-111.828
X143.871Y-71.143
X143.871Y-90.215
X143.871Y-109.288
X155.301Y-62.143
X155.301Y-81.215
X155.301Y-100.288
X156.571Y-64.683
X156.571Y-83.755
X156.571Y-102.828
X161.651Y-64.683
X161.651Y-83.755
X161.651Y-102.828
X162.921Y-62.143
X162.921Y-81.215
X162.921Y-100.288
X174.244Y-110.347
X175.334Y-112.97
X175.575Y-91.321
X176.664Y-93.943
X176.905Y-72.295
X177.995Y-74.917
X180.402Y-113.324
X181.732Y-94.298
X181.846Y-110.879
X183.062Y-75.272
X183.176Y-91.853
X184.507Y-72.826
X191.887Y-123.93
X192.697Y-126.652
X195.199Y-105.147
X196.009Y-107.869
X197.699Y-127.534
X198.511Y-86.365
X199.32Y-89.086
X199.391Y-125.253
X201.011Y-108.751
X202.703Y-106.471
X204.323Y-89.969
X206.015Y-87.688
T7
X85.025Y-58.25
X87.075Y-135.0
X112.525Y-130.25
X113.025Y-68.25
X146.775Y-82.75
X188.525Y-116.25
X193.025Y-79.5
T8
X102.247Y-139.832
X121.068Y-71.603
X121.068Y-90.675
X121.068Y-109.748
X121.897Y-131.579
X140.061Y-68.603
X140.061Y-87.675
X140.061Y-106.748
X159.111Y-59.603
X159.111Y-78.675
X159.111Y-97.748
X178.222Y-108.079
X179.553Y-89.053
X180.883Y-70.027
X196.08Y-122.09
X199.392Y-103.308
X202.704Y-84.525
M30
