%TF.GenerationSoftware,KiCad,Pcbnew,10.0.5*%
%TF.CreationDate,2026-08-29T21:20:39-07:00*%
%TF.ProjectId,klaw_1,6b6c6177-5f31-42e6-9b69-6361645f7063,v1*%
%TF.SameCoordinates,Original*%
%TF.FileFunction,Legend,Bot*%
%TF.FilePolarity,Positive*%
%FSLAX46Y46*%
G04 Gerber Fmt 4.6, Leading zero omitted, Abs format (unit mm)*
G04 Created by KiCad (PCBNEW 10.0.5) date 2026-08-29 21:20:39*
%MOMM*%
%LPD*%
G01*
G04 APERTURE LIST*
%ADD10C,0.569975*%
%ADD11C,0.150000*%
%ADD12C,0.127000*%
%ADD13C,0.100000*%
%ADD14C,0.200000*%
%ADD15C,0.300000*%
%ADD16C,0.120000*%
%ADD17C,1.524000*%
G04 APERTURE END LIST*
D10*
X84433759Y-69893002D02*
G75*
G02*
X83863785Y-69893002I-284987J0D01*
G01*
X83863785Y-69893002D02*
G75*
G02*
X84433759Y-69893002I284987J0D01*
G01*
D11*
X84643747Y-80393002D02*
G75*
G02*
X83653797Y-80393002I-494975J0D01*
G01*
X83653797Y-80393002D02*
G75*
G02*
X84643747Y-80393002I494975J0D01*
G01*
X86314798Y-111518549D02*
X86314798Y-110933549D01*
X86608798Y-111225049D02*
X86023798Y-111225049D01*
X86618798Y-114850049D02*
X86033798Y-114850049D01*
X91372446Y-106682204D02*
X91372446Y-105613204D01*
X91895446Y-106164204D02*
X90826446Y-106164204D01*
X91908309Y-104743337D02*
X90839309Y-104743337D01*
D12*
X143042000Y-116438500D02*
X143042000Y-118995500D01*
D13*
X88039923Y-66128055D02*
X87582781Y-66128055D01*
X87297066Y-66128055D02*
X86839924Y-66128055D01*
X86268495Y-66356626D02*
X86554209Y-66356626D01*
X86554209Y-66356626D02*
X86554209Y-65756626D01*
X86068495Y-66042340D02*
X85868495Y-66042340D01*
X85782781Y-66356626D02*
X86068495Y-66356626D01*
X86068495Y-66356626D02*
X86068495Y-65756626D01*
X86068495Y-65756626D02*
X85782781Y-65756626D01*
X85525638Y-66356626D02*
X85525638Y-65756626D01*
X85525638Y-65756626D02*
X85382781Y-65756626D01*
X85382781Y-65756626D02*
X85297067Y-65785197D01*
X85297067Y-65785197D02*
X85239924Y-65842340D01*
X85239924Y-65842340D02*
X85211353Y-65899483D01*
X85211353Y-65899483D02*
X85182781Y-66013769D01*
X85182781Y-66013769D02*
X85182781Y-66099483D01*
X85182781Y-66099483D02*
X85211353Y-66213769D01*
X85211353Y-66213769D02*
X85239924Y-66270912D01*
X85239924Y-66270912D02*
X85297067Y-66328055D01*
X85297067Y-66328055D02*
X85382781Y-66356626D01*
X85382781Y-66356626D02*
X85525638Y-66356626D01*
X88039923Y-68668055D02*
X87582781Y-68668055D01*
X87297066Y-68668055D02*
X86839924Y-68668055D01*
X86639924Y-68296626D02*
X86297067Y-68296626D01*
X86468495Y-68896626D02*
X86468495Y-68296626D01*
X86154209Y-68296626D02*
X85754209Y-68896626D01*
X85754209Y-68296626D02*
X86154209Y-68896626D01*
X88039923Y-71208055D02*
X87582781Y-71208055D01*
X87297066Y-71208055D02*
X86839924Y-71208055D01*
X86239924Y-70865197D02*
X86297067Y-70836626D01*
X86297067Y-70836626D02*
X86382781Y-70836626D01*
X86382781Y-70836626D02*
X86468495Y-70865197D01*
X86468495Y-70865197D02*
X86525638Y-70922340D01*
X86525638Y-70922340D02*
X86554209Y-70979483D01*
X86554209Y-70979483D02*
X86582781Y-71093769D01*
X86582781Y-71093769D02*
X86582781Y-71179483D01*
X86582781Y-71179483D02*
X86554209Y-71293769D01*
X86554209Y-71293769D02*
X86525638Y-71350912D01*
X86525638Y-71350912D02*
X86468495Y-71408055D01*
X86468495Y-71408055D02*
X86382781Y-71436626D01*
X86382781Y-71436626D02*
X86325638Y-71436626D01*
X86325638Y-71436626D02*
X86239924Y-71408055D01*
X86239924Y-71408055D02*
X86211352Y-71379483D01*
X86211352Y-71379483D02*
X86211352Y-71179483D01*
X86211352Y-71179483D02*
X86325638Y-71179483D01*
X85954209Y-71436626D02*
X85954209Y-70836626D01*
X85954209Y-70836626D02*
X85611352Y-71436626D01*
X85611352Y-71436626D02*
X85611352Y-70836626D01*
X85325638Y-71436626D02*
X85325638Y-70836626D01*
X85325638Y-70836626D02*
X85182781Y-70836626D01*
X85182781Y-70836626D02*
X85097067Y-70865197D01*
X85097067Y-70865197D02*
X85039924Y-70922340D01*
X85039924Y-70922340D02*
X85011353Y-70979483D01*
X85011353Y-70979483D02*
X84982781Y-71093769D01*
X84982781Y-71093769D02*
X84982781Y-71179483D01*
X84982781Y-71179483D02*
X85011353Y-71293769D01*
X85011353Y-71293769D02*
X85039924Y-71350912D01*
X85039924Y-71350912D02*
X85097067Y-71408055D01*
X85097067Y-71408055D02*
X85182781Y-71436626D01*
X85182781Y-71436626D02*
X85325638Y-71436626D01*
X88039923Y-73748055D02*
X87582781Y-73748055D01*
X87297066Y-73748055D02*
X86839924Y-73748055D01*
X86239924Y-73405197D02*
X86297067Y-73376626D01*
X86297067Y-73376626D02*
X86382781Y-73376626D01*
X86382781Y-73376626D02*
X86468495Y-73405197D01*
X86468495Y-73405197D02*
X86525638Y-73462340D01*
X86525638Y-73462340D02*
X86554209Y-73519483D01*
X86554209Y-73519483D02*
X86582781Y-73633769D01*
X86582781Y-73633769D02*
X86582781Y-73719483D01*
X86582781Y-73719483D02*
X86554209Y-73833769D01*
X86554209Y-73833769D02*
X86525638Y-73890912D01*
X86525638Y-73890912D02*
X86468495Y-73948055D01*
X86468495Y-73948055D02*
X86382781Y-73976626D01*
X86382781Y-73976626D02*
X86325638Y-73976626D01*
X86325638Y-73976626D02*
X86239924Y-73948055D01*
X86239924Y-73948055D02*
X86211352Y-73919483D01*
X86211352Y-73919483D02*
X86211352Y-73719483D01*
X86211352Y-73719483D02*
X86325638Y-73719483D01*
X85954209Y-73976626D02*
X85954209Y-73376626D01*
X85954209Y-73376626D02*
X85611352Y-73976626D01*
X85611352Y-73976626D02*
X85611352Y-73376626D01*
X85325638Y-73976626D02*
X85325638Y-73376626D01*
X85325638Y-73376626D02*
X85182781Y-73376626D01*
X85182781Y-73376626D02*
X85097067Y-73405197D01*
X85097067Y-73405197D02*
X85039924Y-73462340D01*
X85039924Y-73462340D02*
X85011353Y-73519483D01*
X85011353Y-73519483D02*
X84982781Y-73633769D01*
X84982781Y-73633769D02*
X84982781Y-73719483D01*
X84982781Y-73719483D02*
X85011353Y-73833769D01*
X85011353Y-73833769D02*
X85039924Y-73890912D01*
X85039924Y-73890912D02*
X85097067Y-73948055D01*
X85097067Y-73948055D02*
X85182781Y-73976626D01*
X85182781Y-73976626D02*
X85325638Y-73976626D01*
X88039923Y-76288055D02*
X87582781Y-76288055D01*
X87297066Y-76288055D02*
X86839924Y-76288055D01*
X86582781Y-76488055D02*
X86497067Y-76516626D01*
X86497067Y-76516626D02*
X86354209Y-76516626D01*
X86354209Y-76516626D02*
X86297067Y-76488055D01*
X86297067Y-76488055D02*
X86268495Y-76459483D01*
X86268495Y-76459483D02*
X86239924Y-76402340D01*
X86239924Y-76402340D02*
X86239924Y-76345197D01*
X86239924Y-76345197D02*
X86268495Y-76288055D01*
X86268495Y-76288055D02*
X86297067Y-76259483D01*
X86297067Y-76259483D02*
X86354209Y-76230912D01*
X86354209Y-76230912D02*
X86468495Y-76202340D01*
X86468495Y-76202340D02*
X86525638Y-76173769D01*
X86525638Y-76173769D02*
X86554209Y-76145197D01*
X86554209Y-76145197D02*
X86582781Y-76088055D01*
X86582781Y-76088055D02*
X86582781Y-76030912D01*
X86582781Y-76030912D02*
X86554209Y-75973769D01*
X86554209Y-75973769D02*
X86525638Y-75945197D01*
X86525638Y-75945197D02*
X86468495Y-75916626D01*
X86468495Y-75916626D02*
X86325638Y-75916626D01*
X86325638Y-75916626D02*
X86239924Y-75945197D01*
X85982780Y-76516626D02*
X85982780Y-75916626D01*
X85982780Y-75916626D02*
X85839923Y-75916626D01*
X85839923Y-75916626D02*
X85754209Y-75945197D01*
X85754209Y-75945197D02*
X85697066Y-76002340D01*
X85697066Y-76002340D02*
X85668495Y-76059483D01*
X85668495Y-76059483D02*
X85639923Y-76173769D01*
X85639923Y-76173769D02*
X85639923Y-76259483D01*
X85639923Y-76259483D02*
X85668495Y-76373769D01*
X85668495Y-76373769D02*
X85697066Y-76430912D01*
X85697066Y-76430912D02*
X85754209Y-76488055D01*
X85754209Y-76488055D02*
X85839923Y-76516626D01*
X85839923Y-76516626D02*
X85982780Y-76516626D01*
X85411352Y-76345197D02*
X85125638Y-76345197D01*
X85468495Y-76516626D02*
X85268495Y-75916626D01*
X85268495Y-75916626D02*
X85068495Y-76516626D01*
X88039923Y-78828055D02*
X87582781Y-78828055D01*
X87297066Y-78828055D02*
X86839924Y-78828055D01*
X86582781Y-79028055D02*
X86497067Y-79056626D01*
X86497067Y-79056626D02*
X86354209Y-79056626D01*
X86354209Y-79056626D02*
X86297067Y-79028055D01*
X86297067Y-79028055D02*
X86268495Y-78999483D01*
X86268495Y-78999483D02*
X86239924Y-78942340D01*
X86239924Y-78942340D02*
X86239924Y-78885197D01*
X86239924Y-78885197D02*
X86268495Y-78828055D01*
X86268495Y-78828055D02*
X86297067Y-78799483D01*
X86297067Y-78799483D02*
X86354209Y-78770912D01*
X86354209Y-78770912D02*
X86468495Y-78742340D01*
X86468495Y-78742340D02*
X86525638Y-78713769D01*
X86525638Y-78713769D02*
X86554209Y-78685197D01*
X86554209Y-78685197D02*
X86582781Y-78628055D01*
X86582781Y-78628055D02*
X86582781Y-78570912D01*
X86582781Y-78570912D02*
X86554209Y-78513769D01*
X86554209Y-78513769D02*
X86525638Y-78485197D01*
X86525638Y-78485197D02*
X86468495Y-78456626D01*
X86468495Y-78456626D02*
X86325638Y-78456626D01*
X86325638Y-78456626D02*
X86239924Y-78485197D01*
X85639923Y-78999483D02*
X85668495Y-79028055D01*
X85668495Y-79028055D02*
X85754209Y-79056626D01*
X85754209Y-79056626D02*
X85811352Y-79056626D01*
X85811352Y-79056626D02*
X85897066Y-79028055D01*
X85897066Y-79028055D02*
X85954209Y-78970912D01*
X85954209Y-78970912D02*
X85982780Y-78913769D01*
X85982780Y-78913769D02*
X86011352Y-78799483D01*
X86011352Y-78799483D02*
X86011352Y-78713769D01*
X86011352Y-78713769D02*
X85982780Y-78599483D01*
X85982780Y-78599483D02*
X85954209Y-78542340D01*
X85954209Y-78542340D02*
X85897066Y-78485197D01*
X85897066Y-78485197D02*
X85811352Y-78456626D01*
X85811352Y-78456626D02*
X85754209Y-78456626D01*
X85754209Y-78456626D02*
X85668495Y-78485197D01*
X85668495Y-78485197D02*
X85639923Y-78513769D01*
X85097066Y-79056626D02*
X85382780Y-79056626D01*
X85382780Y-79056626D02*
X85382780Y-78456626D01*
X88039923Y-81368055D02*
X87582781Y-81368055D01*
X87297066Y-81368055D02*
X86839924Y-81368055D01*
X86211352Y-81596626D02*
X86411352Y-81310912D01*
X86554209Y-81596626D02*
X86554209Y-80996626D01*
X86554209Y-80996626D02*
X86325638Y-80996626D01*
X86325638Y-80996626D02*
X86268495Y-81025197D01*
X86268495Y-81025197D02*
X86239924Y-81053769D01*
X86239924Y-81053769D02*
X86211352Y-81110912D01*
X86211352Y-81110912D02*
X86211352Y-81196626D01*
X86211352Y-81196626D02*
X86239924Y-81253769D01*
X86239924Y-81253769D02*
X86268495Y-81282340D01*
X86268495Y-81282340D02*
X86325638Y-81310912D01*
X86325638Y-81310912D02*
X86554209Y-81310912D01*
X86011352Y-80996626D02*
X85611352Y-81596626D01*
X85611352Y-80996626D02*
X86011352Y-81596626D01*
X88039923Y-83908055D02*
X87582781Y-83908055D01*
X87297066Y-83908055D02*
X86839924Y-83908055D01*
X86211352Y-84136626D02*
X86411352Y-83850912D01*
X86554209Y-84136626D02*
X86554209Y-83536626D01*
X86554209Y-83536626D02*
X86325638Y-83536626D01*
X86325638Y-83536626D02*
X86268495Y-83565197D01*
X86268495Y-83565197D02*
X86239924Y-83593769D01*
X86239924Y-83593769D02*
X86211352Y-83650912D01*
X86211352Y-83650912D02*
X86211352Y-83736626D01*
X86211352Y-83736626D02*
X86239924Y-83793769D01*
X86239924Y-83793769D02*
X86268495Y-83822340D01*
X86268495Y-83822340D02*
X86325638Y-83850912D01*
X86325638Y-83850912D02*
X86554209Y-83850912D01*
X85839924Y-83536626D02*
X85725638Y-83536626D01*
X85725638Y-83536626D02*
X85668495Y-83565197D01*
X85668495Y-83565197D02*
X85611352Y-83622340D01*
X85611352Y-83622340D02*
X85582781Y-83736626D01*
X85582781Y-83736626D02*
X85582781Y-83936626D01*
X85582781Y-83936626D02*
X85611352Y-84050912D01*
X85611352Y-84050912D02*
X85668495Y-84108055D01*
X85668495Y-84108055D02*
X85725638Y-84136626D01*
X85725638Y-84136626D02*
X85839924Y-84136626D01*
X85839924Y-84136626D02*
X85897067Y-84108055D01*
X85897067Y-84108055D02*
X85954209Y-84050912D01*
X85954209Y-84050912D02*
X85982781Y-83936626D01*
X85982781Y-83936626D02*
X85982781Y-83736626D01*
X85982781Y-83736626D02*
X85954209Y-83622340D01*
X85954209Y-83622340D02*
X85897067Y-83565197D01*
X85897067Y-83565197D02*
X85839924Y-83536626D01*
X85382781Y-83536626D02*
X85239924Y-84136626D01*
X85239924Y-84136626D02*
X85125638Y-83708055D01*
X85125638Y-83708055D02*
X85011353Y-84136626D01*
X85011353Y-84136626D02*
X84868496Y-83536626D01*
X84525639Y-83536626D02*
X84468496Y-83536626D01*
X84468496Y-83536626D02*
X84411353Y-83565197D01*
X84411353Y-83565197D02*
X84382782Y-83593769D01*
X84382782Y-83593769D02*
X84354210Y-83650912D01*
X84354210Y-83650912D02*
X84325639Y-83765197D01*
X84325639Y-83765197D02*
X84325639Y-83908055D01*
X84325639Y-83908055D02*
X84354210Y-84022340D01*
X84354210Y-84022340D02*
X84382782Y-84079483D01*
X84382782Y-84079483D02*
X84411353Y-84108055D01*
X84411353Y-84108055D02*
X84468496Y-84136626D01*
X84468496Y-84136626D02*
X84525639Y-84136626D01*
X84525639Y-84136626D02*
X84582782Y-84108055D01*
X84582782Y-84108055D02*
X84611353Y-84079483D01*
X84611353Y-84079483D02*
X84639924Y-84022340D01*
X84639924Y-84022340D02*
X84668496Y-83908055D01*
X84668496Y-83908055D02*
X84668496Y-83765197D01*
X84668496Y-83765197D02*
X84639924Y-83650912D01*
X84639924Y-83650912D02*
X84611353Y-83593769D01*
X84611353Y-83593769D02*
X84582782Y-83565197D01*
X84582782Y-83565197D02*
X84525639Y-83536626D01*
X88039923Y-86448055D02*
X87582781Y-86448055D01*
X87297066Y-86448055D02*
X86839924Y-86448055D01*
X86211352Y-86676626D02*
X86411352Y-86390912D01*
X86554209Y-86676626D02*
X86554209Y-86076626D01*
X86554209Y-86076626D02*
X86325638Y-86076626D01*
X86325638Y-86076626D02*
X86268495Y-86105197D01*
X86268495Y-86105197D02*
X86239924Y-86133769D01*
X86239924Y-86133769D02*
X86211352Y-86190912D01*
X86211352Y-86190912D02*
X86211352Y-86276626D01*
X86211352Y-86276626D02*
X86239924Y-86333769D01*
X86239924Y-86333769D02*
X86268495Y-86362340D01*
X86268495Y-86362340D02*
X86325638Y-86390912D01*
X86325638Y-86390912D02*
X86554209Y-86390912D01*
X85839924Y-86076626D02*
X85725638Y-86076626D01*
X85725638Y-86076626D02*
X85668495Y-86105197D01*
X85668495Y-86105197D02*
X85611352Y-86162340D01*
X85611352Y-86162340D02*
X85582781Y-86276626D01*
X85582781Y-86276626D02*
X85582781Y-86476626D01*
X85582781Y-86476626D02*
X85611352Y-86590912D01*
X85611352Y-86590912D02*
X85668495Y-86648055D01*
X85668495Y-86648055D02*
X85725638Y-86676626D01*
X85725638Y-86676626D02*
X85839924Y-86676626D01*
X85839924Y-86676626D02*
X85897067Y-86648055D01*
X85897067Y-86648055D02*
X85954209Y-86590912D01*
X85954209Y-86590912D02*
X85982781Y-86476626D01*
X85982781Y-86476626D02*
X85982781Y-86276626D01*
X85982781Y-86276626D02*
X85954209Y-86162340D01*
X85954209Y-86162340D02*
X85897067Y-86105197D01*
X85897067Y-86105197D02*
X85839924Y-86076626D01*
X85382781Y-86076626D02*
X85239924Y-86676626D01*
X85239924Y-86676626D02*
X85125638Y-86248055D01*
X85125638Y-86248055D02*
X85011353Y-86676626D01*
X85011353Y-86676626D02*
X84868496Y-86076626D01*
X84325639Y-86676626D02*
X84668496Y-86676626D01*
X84497067Y-86676626D02*
X84497067Y-86076626D01*
X84497067Y-86076626D02*
X84554210Y-86162340D01*
X84554210Y-86162340D02*
X84611353Y-86219483D01*
X84611353Y-86219483D02*
X84668496Y-86248055D01*
X88039923Y-88988055D02*
X87582781Y-88988055D01*
X87297066Y-88988055D02*
X86839924Y-88988055D01*
X86211352Y-89216626D02*
X86411352Y-88930912D01*
X86554209Y-89216626D02*
X86554209Y-88616626D01*
X86554209Y-88616626D02*
X86325638Y-88616626D01*
X86325638Y-88616626D02*
X86268495Y-88645197D01*
X86268495Y-88645197D02*
X86239924Y-88673769D01*
X86239924Y-88673769D02*
X86211352Y-88730912D01*
X86211352Y-88730912D02*
X86211352Y-88816626D01*
X86211352Y-88816626D02*
X86239924Y-88873769D01*
X86239924Y-88873769D02*
X86268495Y-88902340D01*
X86268495Y-88902340D02*
X86325638Y-88930912D01*
X86325638Y-88930912D02*
X86554209Y-88930912D01*
X85839924Y-88616626D02*
X85725638Y-88616626D01*
X85725638Y-88616626D02*
X85668495Y-88645197D01*
X85668495Y-88645197D02*
X85611352Y-88702340D01*
X85611352Y-88702340D02*
X85582781Y-88816626D01*
X85582781Y-88816626D02*
X85582781Y-89016626D01*
X85582781Y-89016626D02*
X85611352Y-89130912D01*
X85611352Y-89130912D02*
X85668495Y-89188055D01*
X85668495Y-89188055D02*
X85725638Y-89216626D01*
X85725638Y-89216626D02*
X85839924Y-89216626D01*
X85839924Y-89216626D02*
X85897067Y-89188055D01*
X85897067Y-89188055D02*
X85954209Y-89130912D01*
X85954209Y-89130912D02*
X85982781Y-89016626D01*
X85982781Y-89016626D02*
X85982781Y-88816626D01*
X85982781Y-88816626D02*
X85954209Y-88702340D01*
X85954209Y-88702340D02*
X85897067Y-88645197D01*
X85897067Y-88645197D02*
X85839924Y-88616626D01*
X85382781Y-88616626D02*
X85239924Y-89216626D01*
X85239924Y-89216626D02*
X85125638Y-88788055D01*
X85125638Y-88788055D02*
X85011353Y-89216626D01*
X85011353Y-89216626D02*
X84868496Y-88616626D01*
X84668496Y-88673769D02*
X84639924Y-88645197D01*
X84639924Y-88645197D02*
X84582782Y-88616626D01*
X84582782Y-88616626D02*
X84439924Y-88616626D01*
X84439924Y-88616626D02*
X84382782Y-88645197D01*
X84382782Y-88645197D02*
X84354210Y-88673769D01*
X84354210Y-88673769D02*
X84325639Y-88730912D01*
X84325639Y-88730912D02*
X84325639Y-88788055D01*
X84325639Y-88788055D02*
X84354210Y-88873769D01*
X84354210Y-88873769D02*
X84697067Y-89216626D01*
X84697067Y-89216626D02*
X84325639Y-89216626D01*
X88039923Y-91528055D02*
X87582781Y-91528055D01*
X87297066Y-91528055D02*
X86839924Y-91528055D01*
X86211352Y-91756626D02*
X86411352Y-91470912D01*
X86554209Y-91756626D02*
X86554209Y-91156626D01*
X86554209Y-91156626D02*
X86325638Y-91156626D01*
X86325638Y-91156626D02*
X86268495Y-91185197D01*
X86268495Y-91185197D02*
X86239924Y-91213769D01*
X86239924Y-91213769D02*
X86211352Y-91270912D01*
X86211352Y-91270912D02*
X86211352Y-91356626D01*
X86211352Y-91356626D02*
X86239924Y-91413769D01*
X86239924Y-91413769D02*
X86268495Y-91442340D01*
X86268495Y-91442340D02*
X86325638Y-91470912D01*
X86325638Y-91470912D02*
X86554209Y-91470912D01*
X85839924Y-91156626D02*
X85725638Y-91156626D01*
X85725638Y-91156626D02*
X85668495Y-91185197D01*
X85668495Y-91185197D02*
X85611352Y-91242340D01*
X85611352Y-91242340D02*
X85582781Y-91356626D01*
X85582781Y-91356626D02*
X85582781Y-91556626D01*
X85582781Y-91556626D02*
X85611352Y-91670912D01*
X85611352Y-91670912D02*
X85668495Y-91728055D01*
X85668495Y-91728055D02*
X85725638Y-91756626D01*
X85725638Y-91756626D02*
X85839924Y-91756626D01*
X85839924Y-91756626D02*
X85897067Y-91728055D01*
X85897067Y-91728055D02*
X85954209Y-91670912D01*
X85954209Y-91670912D02*
X85982781Y-91556626D01*
X85982781Y-91556626D02*
X85982781Y-91356626D01*
X85982781Y-91356626D02*
X85954209Y-91242340D01*
X85954209Y-91242340D02*
X85897067Y-91185197D01*
X85897067Y-91185197D02*
X85839924Y-91156626D01*
X85382781Y-91156626D02*
X85239924Y-91756626D01*
X85239924Y-91756626D02*
X85125638Y-91328055D01*
X85125638Y-91328055D02*
X85011353Y-91756626D01*
X85011353Y-91756626D02*
X84868496Y-91156626D01*
X84697067Y-91156626D02*
X84325639Y-91156626D01*
X84325639Y-91156626D02*
X84525639Y-91385197D01*
X84525639Y-91385197D02*
X84439924Y-91385197D01*
X84439924Y-91385197D02*
X84382782Y-91413769D01*
X84382782Y-91413769D02*
X84354210Y-91442340D01*
X84354210Y-91442340D02*
X84325639Y-91499483D01*
X84325639Y-91499483D02*
X84325639Y-91642340D01*
X84325639Y-91642340D02*
X84354210Y-91699483D01*
X84354210Y-91699483D02*
X84382782Y-91728055D01*
X84382782Y-91728055D02*
X84439924Y-91756626D01*
X84439924Y-91756626D02*
X84611353Y-91756626D01*
X84611353Y-91756626D02*
X84668496Y-91728055D01*
X84668496Y-91728055D02*
X84697067Y-91699483D01*
X88039923Y-94068055D02*
X87582781Y-94068055D01*
X87297066Y-94068055D02*
X86839924Y-94068055D01*
X86582781Y-94125197D02*
X86297067Y-94125197D01*
X86639924Y-94296626D02*
X86439924Y-93696626D01*
X86439924Y-93696626D02*
X86239924Y-94296626D01*
X86039923Y-93696626D02*
X86039923Y-94182340D01*
X86039923Y-94182340D02*
X86011352Y-94239483D01*
X86011352Y-94239483D02*
X85982781Y-94268055D01*
X85982781Y-94268055D02*
X85925638Y-94296626D01*
X85925638Y-94296626D02*
X85811352Y-94296626D01*
X85811352Y-94296626D02*
X85754209Y-94268055D01*
X85754209Y-94268055D02*
X85725638Y-94239483D01*
X85725638Y-94239483D02*
X85697066Y-94182340D01*
X85697066Y-94182340D02*
X85697066Y-93696626D01*
X85411352Y-94296626D02*
X85411352Y-93696626D01*
X85411352Y-93696626D02*
X85268495Y-93696626D01*
X85268495Y-93696626D02*
X85182781Y-93725197D01*
X85182781Y-93725197D02*
X85125638Y-93782340D01*
X85125638Y-93782340D02*
X85097067Y-93839483D01*
X85097067Y-93839483D02*
X85068495Y-93953769D01*
X85068495Y-93953769D02*
X85068495Y-94039483D01*
X85068495Y-94039483D02*
X85097067Y-94153769D01*
X85097067Y-94153769D02*
X85125638Y-94210912D01*
X85125638Y-94210912D02*
X85182781Y-94268055D01*
X85182781Y-94268055D02*
X85268495Y-94296626D01*
X85268495Y-94296626D02*
X85411352Y-94296626D01*
X84811352Y-94296626D02*
X84811352Y-93696626D01*
X84411353Y-93696626D02*
X84297067Y-93696626D01*
X84297067Y-93696626D02*
X84239924Y-93725197D01*
X84239924Y-93725197D02*
X84182781Y-93782340D01*
X84182781Y-93782340D02*
X84154210Y-93896626D01*
X84154210Y-93896626D02*
X84154210Y-94096626D01*
X84154210Y-94096626D02*
X84182781Y-94210912D01*
X84182781Y-94210912D02*
X84239924Y-94268055D01*
X84239924Y-94268055D02*
X84297067Y-94296626D01*
X84297067Y-94296626D02*
X84411353Y-94296626D01*
X84411353Y-94296626D02*
X84468496Y-94268055D01*
X84468496Y-94268055D02*
X84525638Y-94210912D01*
X84525638Y-94210912D02*
X84554210Y-94096626D01*
X84554210Y-94096626D02*
X84554210Y-93896626D01*
X84554210Y-93896626D02*
X84525638Y-93782340D01*
X84525638Y-93782340D02*
X84468496Y-93725197D01*
X84468496Y-93725197D02*
X84411353Y-93696626D01*
X108528644Y-66052340D02*
X108442930Y-66080912D01*
X108442930Y-66080912D02*
X108414359Y-66109483D01*
X108414359Y-66109483D02*
X108385787Y-66166626D01*
X108385787Y-66166626D02*
X108385787Y-66252340D01*
X108385787Y-66252340D02*
X108414359Y-66309483D01*
X108414359Y-66309483D02*
X108442930Y-66338055D01*
X108442930Y-66338055D02*
X108500073Y-66366626D01*
X108500073Y-66366626D02*
X108728644Y-66366626D01*
X108728644Y-66366626D02*
X108728644Y-65766626D01*
X108728644Y-65766626D02*
X108528644Y-65766626D01*
X108528644Y-65766626D02*
X108471502Y-65795197D01*
X108471502Y-65795197D02*
X108442930Y-65823769D01*
X108442930Y-65823769D02*
X108414359Y-65880912D01*
X108414359Y-65880912D02*
X108414359Y-65938055D01*
X108414359Y-65938055D02*
X108442930Y-65995197D01*
X108442930Y-65995197D02*
X108471502Y-66023769D01*
X108471502Y-66023769D02*
X108528644Y-66052340D01*
X108528644Y-66052340D02*
X108728644Y-66052340D01*
X108157216Y-66195197D02*
X107871502Y-66195197D01*
X108214359Y-66366626D02*
X108014359Y-65766626D01*
X108014359Y-65766626D02*
X107814359Y-66366626D01*
X107700073Y-65766626D02*
X107357216Y-65766626D01*
X107528644Y-66366626D02*
X107528644Y-65766626D01*
X107242930Y-65766626D02*
X106900073Y-65766626D01*
X107071501Y-66366626D02*
X107071501Y-65766626D01*
X106700072Y-66138055D02*
X106242930Y-66138055D01*
X106471501Y-66366626D02*
X106471501Y-65909483D01*
X105957215Y-66138055D02*
X105500073Y-66138055D01*
X105214358Y-66138055D02*
X104757216Y-66138055D01*
X107471501Y-68335197D02*
X107528644Y-68306626D01*
X107528644Y-68306626D02*
X107614358Y-68306626D01*
X107614358Y-68306626D02*
X107700072Y-68335197D01*
X107700072Y-68335197D02*
X107757215Y-68392340D01*
X107757215Y-68392340D02*
X107785786Y-68449483D01*
X107785786Y-68449483D02*
X107814358Y-68563769D01*
X107814358Y-68563769D02*
X107814358Y-68649483D01*
X107814358Y-68649483D02*
X107785786Y-68763769D01*
X107785786Y-68763769D02*
X107757215Y-68820912D01*
X107757215Y-68820912D02*
X107700072Y-68878055D01*
X107700072Y-68878055D02*
X107614358Y-68906626D01*
X107614358Y-68906626D02*
X107557215Y-68906626D01*
X107557215Y-68906626D02*
X107471501Y-68878055D01*
X107471501Y-68878055D02*
X107442929Y-68849483D01*
X107442929Y-68849483D02*
X107442929Y-68649483D01*
X107442929Y-68649483D02*
X107557215Y-68649483D01*
X107185786Y-68906626D02*
X107185786Y-68306626D01*
X107185786Y-68306626D02*
X106842929Y-68906626D01*
X106842929Y-68906626D02*
X106842929Y-68306626D01*
X106557215Y-68906626D02*
X106557215Y-68306626D01*
X106557215Y-68306626D02*
X106414358Y-68306626D01*
X106414358Y-68306626D02*
X106328644Y-68335197D01*
X106328644Y-68335197D02*
X106271501Y-68392340D01*
X106271501Y-68392340D02*
X106242930Y-68449483D01*
X106242930Y-68449483D02*
X106214358Y-68563769D01*
X106214358Y-68563769D02*
X106214358Y-68649483D01*
X106214358Y-68649483D02*
X106242930Y-68763769D01*
X106242930Y-68763769D02*
X106271501Y-68820912D01*
X106271501Y-68820912D02*
X106328644Y-68878055D01*
X106328644Y-68878055D02*
X106414358Y-68906626D01*
X106414358Y-68906626D02*
X106557215Y-68906626D01*
X105957215Y-68678055D02*
X105500073Y-68678055D01*
X105214358Y-68678055D02*
X104757216Y-68678055D01*
X107242930Y-71446626D02*
X107442930Y-71160912D01*
X107585787Y-71446626D02*
X107585787Y-70846626D01*
X107585787Y-70846626D02*
X107357216Y-70846626D01*
X107357216Y-70846626D02*
X107300073Y-70875197D01*
X107300073Y-70875197D02*
X107271502Y-70903769D01*
X107271502Y-70903769D02*
X107242930Y-70960912D01*
X107242930Y-70960912D02*
X107242930Y-71046626D01*
X107242930Y-71046626D02*
X107271502Y-71103769D01*
X107271502Y-71103769D02*
X107300073Y-71132340D01*
X107300073Y-71132340D02*
X107357216Y-71160912D01*
X107357216Y-71160912D02*
X107585787Y-71160912D01*
X107014359Y-71418055D02*
X106928645Y-71446626D01*
X106928645Y-71446626D02*
X106785787Y-71446626D01*
X106785787Y-71446626D02*
X106728645Y-71418055D01*
X106728645Y-71418055D02*
X106700073Y-71389483D01*
X106700073Y-71389483D02*
X106671502Y-71332340D01*
X106671502Y-71332340D02*
X106671502Y-71275197D01*
X106671502Y-71275197D02*
X106700073Y-71218055D01*
X106700073Y-71218055D02*
X106728645Y-71189483D01*
X106728645Y-71189483D02*
X106785787Y-71160912D01*
X106785787Y-71160912D02*
X106900073Y-71132340D01*
X106900073Y-71132340D02*
X106957216Y-71103769D01*
X106957216Y-71103769D02*
X106985787Y-71075197D01*
X106985787Y-71075197D02*
X107014359Y-71018055D01*
X107014359Y-71018055D02*
X107014359Y-70960912D01*
X107014359Y-70960912D02*
X106985787Y-70903769D01*
X106985787Y-70903769D02*
X106957216Y-70875197D01*
X106957216Y-70875197D02*
X106900073Y-70846626D01*
X106900073Y-70846626D02*
X106757216Y-70846626D01*
X106757216Y-70846626D02*
X106671502Y-70875197D01*
X106500073Y-70846626D02*
X106157216Y-70846626D01*
X106328644Y-71446626D02*
X106328644Y-70846626D01*
X105957215Y-71218055D02*
X105500073Y-71218055D01*
X105214358Y-71218055D02*
X104757216Y-71218055D01*
X107757216Y-73386626D02*
X107557216Y-73986626D01*
X107557216Y-73986626D02*
X107357216Y-73386626D01*
X106814358Y-73929483D02*
X106842930Y-73958055D01*
X106842930Y-73958055D02*
X106928644Y-73986626D01*
X106928644Y-73986626D02*
X106985787Y-73986626D01*
X106985787Y-73986626D02*
X107071501Y-73958055D01*
X107071501Y-73958055D02*
X107128644Y-73900912D01*
X107128644Y-73900912D02*
X107157215Y-73843769D01*
X107157215Y-73843769D02*
X107185787Y-73729483D01*
X107185787Y-73729483D02*
X107185787Y-73643769D01*
X107185787Y-73643769D02*
X107157215Y-73529483D01*
X107157215Y-73529483D02*
X107128644Y-73472340D01*
X107128644Y-73472340D02*
X107071501Y-73415197D01*
X107071501Y-73415197D02*
X106985787Y-73386626D01*
X106985787Y-73386626D02*
X106928644Y-73386626D01*
X106928644Y-73386626D02*
X106842930Y-73415197D01*
X106842930Y-73415197D02*
X106814358Y-73443769D01*
X106214358Y-73929483D02*
X106242930Y-73958055D01*
X106242930Y-73958055D02*
X106328644Y-73986626D01*
X106328644Y-73986626D02*
X106385787Y-73986626D01*
X106385787Y-73986626D02*
X106471501Y-73958055D01*
X106471501Y-73958055D02*
X106528644Y-73900912D01*
X106528644Y-73900912D02*
X106557215Y-73843769D01*
X106557215Y-73843769D02*
X106585787Y-73729483D01*
X106585787Y-73729483D02*
X106585787Y-73643769D01*
X106585787Y-73643769D02*
X106557215Y-73529483D01*
X106557215Y-73529483D02*
X106528644Y-73472340D01*
X106528644Y-73472340D02*
X106471501Y-73415197D01*
X106471501Y-73415197D02*
X106385787Y-73386626D01*
X106385787Y-73386626D02*
X106328644Y-73386626D01*
X106328644Y-73386626D02*
X106242930Y-73415197D01*
X106242930Y-73415197D02*
X106214358Y-73443769D01*
X105957215Y-73758055D02*
X105500073Y-73758055D01*
X105214358Y-73758055D02*
X104757216Y-73758055D01*
X108700072Y-76212340D02*
X108500072Y-76212340D01*
X108414358Y-76526626D02*
X108700072Y-76526626D01*
X108700072Y-76526626D02*
X108700072Y-75926626D01*
X108700072Y-75926626D02*
X108414358Y-75926626D01*
X108157215Y-76526626D02*
X108157215Y-75926626D01*
X108157215Y-75926626D02*
X107814358Y-76526626D01*
X107814358Y-76526626D02*
X107814358Y-75926626D01*
X107185787Y-76469483D02*
X107214359Y-76498055D01*
X107214359Y-76498055D02*
X107300073Y-76526626D01*
X107300073Y-76526626D02*
X107357216Y-76526626D01*
X107357216Y-76526626D02*
X107442930Y-76498055D01*
X107442930Y-76498055D02*
X107500073Y-76440912D01*
X107500073Y-76440912D02*
X107528644Y-76383769D01*
X107528644Y-76383769D02*
X107557216Y-76269483D01*
X107557216Y-76269483D02*
X107557216Y-76183769D01*
X107557216Y-76183769D02*
X107528644Y-76069483D01*
X107528644Y-76069483D02*
X107500073Y-76012340D01*
X107500073Y-76012340D02*
X107442930Y-75955197D01*
X107442930Y-75955197D02*
X107357216Y-75926626D01*
X107357216Y-75926626D02*
X107300073Y-75926626D01*
X107300073Y-75926626D02*
X107214359Y-75955197D01*
X107214359Y-75955197D02*
X107185787Y-75983769D01*
X106500073Y-76355197D02*
X106214359Y-76355197D01*
X106557216Y-76526626D02*
X106357216Y-75926626D01*
X106357216Y-75926626D02*
X106157216Y-76526626D01*
X105957215Y-76298055D02*
X105500073Y-76298055D01*
X105214358Y-76298055D02*
X104757216Y-76298055D01*
X108785786Y-78752340D02*
X108585786Y-78752340D01*
X108500072Y-79066626D02*
X108785786Y-79066626D01*
X108785786Y-79066626D02*
X108785786Y-78466626D01*
X108785786Y-78466626D02*
X108500072Y-78466626D01*
X108242929Y-79066626D02*
X108242929Y-78466626D01*
X108242929Y-78466626D02*
X107900072Y-79066626D01*
X107900072Y-79066626D02*
X107900072Y-78466626D01*
X107271501Y-79009483D02*
X107300073Y-79038055D01*
X107300073Y-79038055D02*
X107385787Y-79066626D01*
X107385787Y-79066626D02*
X107442930Y-79066626D01*
X107442930Y-79066626D02*
X107528644Y-79038055D01*
X107528644Y-79038055D02*
X107585787Y-78980912D01*
X107585787Y-78980912D02*
X107614358Y-78923769D01*
X107614358Y-78923769D02*
X107642930Y-78809483D01*
X107642930Y-78809483D02*
X107642930Y-78723769D01*
X107642930Y-78723769D02*
X107614358Y-78609483D01*
X107614358Y-78609483D02*
X107585787Y-78552340D01*
X107585787Y-78552340D02*
X107528644Y-78495197D01*
X107528644Y-78495197D02*
X107442930Y-78466626D01*
X107442930Y-78466626D02*
X107385787Y-78466626D01*
X107385787Y-78466626D02*
X107300073Y-78495197D01*
X107300073Y-78495197D02*
X107271501Y-78523769D01*
X106357215Y-78752340D02*
X106271501Y-78780912D01*
X106271501Y-78780912D02*
X106242930Y-78809483D01*
X106242930Y-78809483D02*
X106214358Y-78866626D01*
X106214358Y-78866626D02*
X106214358Y-78952340D01*
X106214358Y-78952340D02*
X106242930Y-79009483D01*
X106242930Y-79009483D02*
X106271501Y-79038055D01*
X106271501Y-79038055D02*
X106328644Y-79066626D01*
X106328644Y-79066626D02*
X106557215Y-79066626D01*
X106557215Y-79066626D02*
X106557215Y-78466626D01*
X106557215Y-78466626D02*
X106357215Y-78466626D01*
X106357215Y-78466626D02*
X106300073Y-78495197D01*
X106300073Y-78495197D02*
X106271501Y-78523769D01*
X106271501Y-78523769D02*
X106242930Y-78580912D01*
X106242930Y-78580912D02*
X106242930Y-78638055D01*
X106242930Y-78638055D02*
X106271501Y-78695197D01*
X106271501Y-78695197D02*
X106300073Y-78723769D01*
X106300073Y-78723769D02*
X106357215Y-78752340D01*
X106357215Y-78752340D02*
X106557215Y-78752340D01*
X105957215Y-78838055D02*
X105500073Y-78838055D01*
X105214358Y-78838055D02*
X104757216Y-78838055D01*
X107900072Y-81549483D02*
X107928644Y-81578055D01*
X107928644Y-81578055D02*
X108014358Y-81606626D01*
X108014358Y-81606626D02*
X108071501Y-81606626D01*
X108071501Y-81606626D02*
X108157215Y-81578055D01*
X108157215Y-81578055D02*
X108214358Y-81520912D01*
X108214358Y-81520912D02*
X108242929Y-81463769D01*
X108242929Y-81463769D02*
X108271501Y-81349483D01*
X108271501Y-81349483D02*
X108271501Y-81263769D01*
X108271501Y-81263769D02*
X108242929Y-81149483D01*
X108242929Y-81149483D02*
X108214358Y-81092340D01*
X108214358Y-81092340D02*
X108157215Y-81035197D01*
X108157215Y-81035197D02*
X108071501Y-81006626D01*
X108071501Y-81006626D02*
X108014358Y-81006626D01*
X108014358Y-81006626D02*
X107928644Y-81035197D01*
X107928644Y-81035197D02*
X107900072Y-81063769D01*
X107528644Y-81006626D02*
X107414358Y-81006626D01*
X107414358Y-81006626D02*
X107357215Y-81035197D01*
X107357215Y-81035197D02*
X107300072Y-81092340D01*
X107300072Y-81092340D02*
X107271501Y-81206626D01*
X107271501Y-81206626D02*
X107271501Y-81406626D01*
X107271501Y-81406626D02*
X107300072Y-81520912D01*
X107300072Y-81520912D02*
X107357215Y-81578055D01*
X107357215Y-81578055D02*
X107414358Y-81606626D01*
X107414358Y-81606626D02*
X107528644Y-81606626D01*
X107528644Y-81606626D02*
X107585787Y-81578055D01*
X107585787Y-81578055D02*
X107642929Y-81520912D01*
X107642929Y-81520912D02*
X107671501Y-81406626D01*
X107671501Y-81406626D02*
X107671501Y-81206626D01*
X107671501Y-81206626D02*
X107642929Y-81092340D01*
X107642929Y-81092340D02*
X107585787Y-81035197D01*
X107585787Y-81035197D02*
X107528644Y-81006626D01*
X106728644Y-81606626D02*
X107014358Y-81606626D01*
X107014358Y-81606626D02*
X107014358Y-81006626D01*
X106414359Y-81006626D02*
X106357216Y-81006626D01*
X106357216Y-81006626D02*
X106300073Y-81035197D01*
X106300073Y-81035197D02*
X106271502Y-81063769D01*
X106271502Y-81063769D02*
X106242930Y-81120912D01*
X106242930Y-81120912D02*
X106214359Y-81235197D01*
X106214359Y-81235197D02*
X106214359Y-81378055D01*
X106214359Y-81378055D02*
X106242930Y-81492340D01*
X106242930Y-81492340D02*
X106271502Y-81549483D01*
X106271502Y-81549483D02*
X106300073Y-81578055D01*
X106300073Y-81578055D02*
X106357216Y-81606626D01*
X106357216Y-81606626D02*
X106414359Y-81606626D01*
X106414359Y-81606626D02*
X106471502Y-81578055D01*
X106471502Y-81578055D02*
X106500073Y-81549483D01*
X106500073Y-81549483D02*
X106528644Y-81492340D01*
X106528644Y-81492340D02*
X106557216Y-81378055D01*
X106557216Y-81378055D02*
X106557216Y-81235197D01*
X106557216Y-81235197D02*
X106528644Y-81120912D01*
X106528644Y-81120912D02*
X106500073Y-81063769D01*
X106500073Y-81063769D02*
X106471502Y-81035197D01*
X106471502Y-81035197D02*
X106414359Y-81006626D01*
X105957215Y-81378055D02*
X105500073Y-81378055D01*
X105214358Y-81378055D02*
X104757216Y-81378055D01*
X107900072Y-86629483D02*
X107928644Y-86658055D01*
X107928644Y-86658055D02*
X108014358Y-86686626D01*
X108014358Y-86686626D02*
X108071501Y-86686626D01*
X108071501Y-86686626D02*
X108157215Y-86658055D01*
X108157215Y-86658055D02*
X108214358Y-86600912D01*
X108214358Y-86600912D02*
X108242929Y-86543769D01*
X108242929Y-86543769D02*
X108271501Y-86429483D01*
X108271501Y-86429483D02*
X108271501Y-86343769D01*
X108271501Y-86343769D02*
X108242929Y-86229483D01*
X108242929Y-86229483D02*
X108214358Y-86172340D01*
X108214358Y-86172340D02*
X108157215Y-86115197D01*
X108157215Y-86115197D02*
X108071501Y-86086626D01*
X108071501Y-86086626D02*
X108014358Y-86086626D01*
X108014358Y-86086626D02*
X107928644Y-86115197D01*
X107928644Y-86115197D02*
X107900072Y-86143769D01*
X107528644Y-86086626D02*
X107414358Y-86086626D01*
X107414358Y-86086626D02*
X107357215Y-86115197D01*
X107357215Y-86115197D02*
X107300072Y-86172340D01*
X107300072Y-86172340D02*
X107271501Y-86286626D01*
X107271501Y-86286626D02*
X107271501Y-86486626D01*
X107271501Y-86486626D02*
X107300072Y-86600912D01*
X107300072Y-86600912D02*
X107357215Y-86658055D01*
X107357215Y-86658055D02*
X107414358Y-86686626D01*
X107414358Y-86686626D02*
X107528644Y-86686626D01*
X107528644Y-86686626D02*
X107585787Y-86658055D01*
X107585787Y-86658055D02*
X107642929Y-86600912D01*
X107642929Y-86600912D02*
X107671501Y-86486626D01*
X107671501Y-86486626D02*
X107671501Y-86286626D01*
X107671501Y-86286626D02*
X107642929Y-86172340D01*
X107642929Y-86172340D02*
X107585787Y-86115197D01*
X107585787Y-86115197D02*
X107528644Y-86086626D01*
X106728644Y-86686626D02*
X107014358Y-86686626D01*
X107014358Y-86686626D02*
X107014358Y-86086626D01*
X106557216Y-86143769D02*
X106528644Y-86115197D01*
X106528644Y-86115197D02*
X106471502Y-86086626D01*
X106471502Y-86086626D02*
X106328644Y-86086626D01*
X106328644Y-86086626D02*
X106271502Y-86115197D01*
X106271502Y-86115197D02*
X106242930Y-86143769D01*
X106242930Y-86143769D02*
X106214359Y-86200912D01*
X106214359Y-86200912D02*
X106214359Y-86258055D01*
X106214359Y-86258055D02*
X106242930Y-86343769D01*
X106242930Y-86343769D02*
X106585787Y-86686626D01*
X106585787Y-86686626D02*
X106214359Y-86686626D01*
X105957215Y-86458055D02*
X105500073Y-86458055D01*
X105214358Y-86458055D02*
X104757216Y-86458055D01*
X107900072Y-89169483D02*
X107928644Y-89198055D01*
X107928644Y-89198055D02*
X108014358Y-89226626D01*
X108014358Y-89226626D02*
X108071501Y-89226626D01*
X108071501Y-89226626D02*
X108157215Y-89198055D01*
X108157215Y-89198055D02*
X108214358Y-89140912D01*
X108214358Y-89140912D02*
X108242929Y-89083769D01*
X108242929Y-89083769D02*
X108271501Y-88969483D01*
X108271501Y-88969483D02*
X108271501Y-88883769D01*
X108271501Y-88883769D02*
X108242929Y-88769483D01*
X108242929Y-88769483D02*
X108214358Y-88712340D01*
X108214358Y-88712340D02*
X108157215Y-88655197D01*
X108157215Y-88655197D02*
X108071501Y-88626626D01*
X108071501Y-88626626D02*
X108014358Y-88626626D01*
X108014358Y-88626626D02*
X107928644Y-88655197D01*
X107928644Y-88655197D02*
X107900072Y-88683769D01*
X107528644Y-88626626D02*
X107414358Y-88626626D01*
X107414358Y-88626626D02*
X107357215Y-88655197D01*
X107357215Y-88655197D02*
X107300072Y-88712340D01*
X107300072Y-88712340D02*
X107271501Y-88826626D01*
X107271501Y-88826626D02*
X107271501Y-89026626D01*
X107271501Y-89026626D02*
X107300072Y-89140912D01*
X107300072Y-89140912D02*
X107357215Y-89198055D01*
X107357215Y-89198055D02*
X107414358Y-89226626D01*
X107414358Y-89226626D02*
X107528644Y-89226626D01*
X107528644Y-89226626D02*
X107585787Y-89198055D01*
X107585787Y-89198055D02*
X107642929Y-89140912D01*
X107642929Y-89140912D02*
X107671501Y-89026626D01*
X107671501Y-89026626D02*
X107671501Y-88826626D01*
X107671501Y-88826626D02*
X107642929Y-88712340D01*
X107642929Y-88712340D02*
X107585787Y-88655197D01*
X107585787Y-88655197D02*
X107528644Y-88626626D01*
X106728644Y-89226626D02*
X107014358Y-89226626D01*
X107014358Y-89226626D02*
X107014358Y-88626626D01*
X106585787Y-88626626D02*
X106214359Y-88626626D01*
X106214359Y-88626626D02*
X106414359Y-88855197D01*
X106414359Y-88855197D02*
X106328644Y-88855197D01*
X106328644Y-88855197D02*
X106271502Y-88883769D01*
X106271502Y-88883769D02*
X106242930Y-88912340D01*
X106242930Y-88912340D02*
X106214359Y-88969483D01*
X106214359Y-88969483D02*
X106214359Y-89112340D01*
X106214359Y-89112340D02*
X106242930Y-89169483D01*
X106242930Y-89169483D02*
X106271502Y-89198055D01*
X106271502Y-89198055D02*
X106328644Y-89226626D01*
X106328644Y-89226626D02*
X106500073Y-89226626D01*
X106500073Y-89226626D02*
X106557216Y-89198055D01*
X106557216Y-89198055D02*
X106585787Y-89169483D01*
X105957215Y-88998055D02*
X105500073Y-88998055D01*
X105214358Y-88998055D02*
X104757216Y-88998055D01*
X107900072Y-91709483D02*
X107928644Y-91738055D01*
X107928644Y-91738055D02*
X108014358Y-91766626D01*
X108014358Y-91766626D02*
X108071501Y-91766626D01*
X108071501Y-91766626D02*
X108157215Y-91738055D01*
X108157215Y-91738055D02*
X108214358Y-91680912D01*
X108214358Y-91680912D02*
X108242929Y-91623769D01*
X108242929Y-91623769D02*
X108271501Y-91509483D01*
X108271501Y-91509483D02*
X108271501Y-91423769D01*
X108271501Y-91423769D02*
X108242929Y-91309483D01*
X108242929Y-91309483D02*
X108214358Y-91252340D01*
X108214358Y-91252340D02*
X108157215Y-91195197D01*
X108157215Y-91195197D02*
X108071501Y-91166626D01*
X108071501Y-91166626D02*
X108014358Y-91166626D01*
X108014358Y-91166626D02*
X107928644Y-91195197D01*
X107928644Y-91195197D02*
X107900072Y-91223769D01*
X107528644Y-91166626D02*
X107414358Y-91166626D01*
X107414358Y-91166626D02*
X107357215Y-91195197D01*
X107357215Y-91195197D02*
X107300072Y-91252340D01*
X107300072Y-91252340D02*
X107271501Y-91366626D01*
X107271501Y-91366626D02*
X107271501Y-91566626D01*
X107271501Y-91566626D02*
X107300072Y-91680912D01*
X107300072Y-91680912D02*
X107357215Y-91738055D01*
X107357215Y-91738055D02*
X107414358Y-91766626D01*
X107414358Y-91766626D02*
X107528644Y-91766626D01*
X107528644Y-91766626D02*
X107585787Y-91738055D01*
X107585787Y-91738055D02*
X107642929Y-91680912D01*
X107642929Y-91680912D02*
X107671501Y-91566626D01*
X107671501Y-91566626D02*
X107671501Y-91366626D01*
X107671501Y-91366626D02*
X107642929Y-91252340D01*
X107642929Y-91252340D02*
X107585787Y-91195197D01*
X107585787Y-91195197D02*
X107528644Y-91166626D01*
X106728644Y-91766626D02*
X107014358Y-91766626D01*
X107014358Y-91766626D02*
X107014358Y-91166626D01*
X106271502Y-91366626D02*
X106271502Y-91766626D01*
X106414359Y-91138055D02*
X106557216Y-91566626D01*
X106557216Y-91566626D02*
X106185787Y-91566626D01*
X105957215Y-91538055D02*
X105500073Y-91538055D01*
X105214358Y-91538055D02*
X104757216Y-91538055D01*
X107900072Y-94249483D02*
X107928644Y-94278055D01*
X107928644Y-94278055D02*
X108014358Y-94306626D01*
X108014358Y-94306626D02*
X108071501Y-94306626D01*
X108071501Y-94306626D02*
X108157215Y-94278055D01*
X108157215Y-94278055D02*
X108214358Y-94220912D01*
X108214358Y-94220912D02*
X108242929Y-94163769D01*
X108242929Y-94163769D02*
X108271501Y-94049483D01*
X108271501Y-94049483D02*
X108271501Y-93963769D01*
X108271501Y-93963769D02*
X108242929Y-93849483D01*
X108242929Y-93849483D02*
X108214358Y-93792340D01*
X108214358Y-93792340D02*
X108157215Y-93735197D01*
X108157215Y-93735197D02*
X108071501Y-93706626D01*
X108071501Y-93706626D02*
X108014358Y-93706626D01*
X108014358Y-93706626D02*
X107928644Y-93735197D01*
X107928644Y-93735197D02*
X107900072Y-93763769D01*
X107528644Y-93706626D02*
X107414358Y-93706626D01*
X107414358Y-93706626D02*
X107357215Y-93735197D01*
X107357215Y-93735197D02*
X107300072Y-93792340D01*
X107300072Y-93792340D02*
X107271501Y-93906626D01*
X107271501Y-93906626D02*
X107271501Y-94106626D01*
X107271501Y-94106626D02*
X107300072Y-94220912D01*
X107300072Y-94220912D02*
X107357215Y-94278055D01*
X107357215Y-94278055D02*
X107414358Y-94306626D01*
X107414358Y-94306626D02*
X107528644Y-94306626D01*
X107528644Y-94306626D02*
X107585787Y-94278055D01*
X107585787Y-94278055D02*
X107642929Y-94220912D01*
X107642929Y-94220912D02*
X107671501Y-94106626D01*
X107671501Y-94106626D02*
X107671501Y-93906626D01*
X107671501Y-93906626D02*
X107642929Y-93792340D01*
X107642929Y-93792340D02*
X107585787Y-93735197D01*
X107585787Y-93735197D02*
X107528644Y-93706626D01*
X106728644Y-94306626D02*
X107014358Y-94306626D01*
X107014358Y-94306626D02*
X107014358Y-93706626D01*
X106242930Y-93706626D02*
X106528644Y-93706626D01*
X106528644Y-93706626D02*
X106557216Y-93992340D01*
X106557216Y-93992340D02*
X106528644Y-93963769D01*
X106528644Y-93963769D02*
X106471502Y-93935197D01*
X106471502Y-93935197D02*
X106328644Y-93935197D01*
X106328644Y-93935197D02*
X106271502Y-93963769D01*
X106271502Y-93963769D02*
X106242930Y-93992340D01*
X106242930Y-93992340D02*
X106214359Y-94049483D01*
X106214359Y-94049483D02*
X106214359Y-94192340D01*
X106214359Y-94192340D02*
X106242930Y-94249483D01*
X106242930Y-94249483D02*
X106271502Y-94278055D01*
X106271502Y-94278055D02*
X106328644Y-94306626D01*
X106328644Y-94306626D02*
X106471502Y-94306626D01*
X106471502Y-94306626D02*
X106528644Y-94278055D01*
X106528644Y-94278055D02*
X106557216Y-94249483D01*
X105957215Y-94078055D02*
X105500073Y-94078055D01*
X105214358Y-94078055D02*
X104757216Y-94078055D01*
X107905072Y-84089483D02*
X107933644Y-84118055D01*
X107933644Y-84118055D02*
X108019358Y-84146626D01*
X108019358Y-84146626D02*
X108076501Y-84146626D01*
X108076501Y-84146626D02*
X108162215Y-84118055D01*
X108162215Y-84118055D02*
X108219358Y-84060912D01*
X108219358Y-84060912D02*
X108247929Y-84003769D01*
X108247929Y-84003769D02*
X108276501Y-83889483D01*
X108276501Y-83889483D02*
X108276501Y-83803769D01*
X108276501Y-83803769D02*
X108247929Y-83689483D01*
X108247929Y-83689483D02*
X108219358Y-83632340D01*
X108219358Y-83632340D02*
X108162215Y-83575197D01*
X108162215Y-83575197D02*
X108076501Y-83546626D01*
X108076501Y-83546626D02*
X108019358Y-83546626D01*
X108019358Y-83546626D02*
X107933644Y-83575197D01*
X107933644Y-83575197D02*
X107905072Y-83603769D01*
X107533644Y-83546626D02*
X107419358Y-83546626D01*
X107419358Y-83546626D02*
X107362215Y-83575197D01*
X107362215Y-83575197D02*
X107305072Y-83632340D01*
X107305072Y-83632340D02*
X107276501Y-83746626D01*
X107276501Y-83746626D02*
X107276501Y-83946626D01*
X107276501Y-83946626D02*
X107305072Y-84060912D01*
X107305072Y-84060912D02*
X107362215Y-84118055D01*
X107362215Y-84118055D02*
X107419358Y-84146626D01*
X107419358Y-84146626D02*
X107533644Y-84146626D01*
X107533644Y-84146626D02*
X107590787Y-84118055D01*
X107590787Y-84118055D02*
X107647929Y-84060912D01*
X107647929Y-84060912D02*
X107676501Y-83946626D01*
X107676501Y-83946626D02*
X107676501Y-83746626D01*
X107676501Y-83746626D02*
X107647929Y-83632340D01*
X107647929Y-83632340D02*
X107590787Y-83575197D01*
X107590787Y-83575197D02*
X107533644Y-83546626D01*
X106733644Y-84146626D02*
X107019358Y-84146626D01*
X107019358Y-84146626D02*
X107019358Y-83546626D01*
X106219359Y-84146626D02*
X106562216Y-84146626D01*
X106390787Y-84146626D02*
X106390787Y-83546626D01*
X106390787Y-83546626D02*
X106447930Y-83632340D01*
X106447930Y-83632340D02*
X106505073Y-83689483D01*
X106505073Y-83689483D02*
X106562216Y-83718055D01*
X105962215Y-83918055D02*
X105505073Y-83918055D01*
X105219358Y-83918055D02*
X104762216Y-83918055D01*
D11*
X93333458Y-105005485D02*
X93247744Y-105034057D01*
X93247744Y-105034057D02*
X93219173Y-105062628D01*
X93219173Y-105062628D02*
X93190601Y-105119771D01*
X93190601Y-105119771D02*
X93190601Y-105205485D01*
X93190601Y-105205485D02*
X93219173Y-105262628D01*
X93219173Y-105262628D02*
X93247744Y-105291200D01*
X93247744Y-105291200D02*
X93304887Y-105319771D01*
X93304887Y-105319771D02*
X93533458Y-105319771D01*
X93533458Y-105319771D02*
X93533458Y-104719771D01*
X93533458Y-104719771D02*
X93333458Y-104719771D01*
X93333458Y-104719771D02*
X93276316Y-104748342D01*
X93276316Y-104748342D02*
X93247744Y-104776914D01*
X93247744Y-104776914D02*
X93219173Y-104834057D01*
X93219173Y-104834057D02*
X93219173Y-104891200D01*
X93219173Y-104891200D02*
X93247744Y-104948342D01*
X93247744Y-104948342D02*
X93276316Y-104976914D01*
X93276316Y-104976914D02*
X93333458Y-105005485D01*
X93333458Y-105005485D02*
X93533458Y-105005485D01*
X92647744Y-105319771D02*
X92933458Y-105319771D01*
X92933458Y-105319771D02*
X92933458Y-104719771D01*
X92447744Y-105319771D02*
X92447744Y-104719771D01*
X92104887Y-105319771D02*
X92362030Y-104976914D01*
X92104887Y-104719771D02*
X92447744Y-105062628D01*
X93190601Y-106719771D02*
X93390601Y-106434057D01*
X93533458Y-106719771D02*
X93533458Y-106119771D01*
X93533458Y-106119771D02*
X93304887Y-106119771D01*
X93304887Y-106119771D02*
X93247744Y-106148342D01*
X93247744Y-106148342D02*
X93219173Y-106176914D01*
X93219173Y-106176914D02*
X93190601Y-106234057D01*
X93190601Y-106234057D02*
X93190601Y-106319771D01*
X93190601Y-106319771D02*
X93219173Y-106376914D01*
X93219173Y-106376914D02*
X93247744Y-106405485D01*
X93247744Y-106405485D02*
X93304887Y-106434057D01*
X93304887Y-106434057D02*
X93533458Y-106434057D01*
X92933458Y-106405485D02*
X92733458Y-106405485D01*
X92647744Y-106719771D02*
X92933458Y-106719771D01*
X92933458Y-106719771D02*
X92933458Y-106119771D01*
X92933458Y-106119771D02*
X92647744Y-106119771D01*
X92390601Y-106719771D02*
X92390601Y-106119771D01*
X92390601Y-106119771D02*
X92247744Y-106119771D01*
X92247744Y-106119771D02*
X92162030Y-106148342D01*
X92162030Y-106148342D02*
X92104887Y-106205485D01*
X92104887Y-106205485D02*
X92076316Y-106262628D01*
X92076316Y-106262628D02*
X92047744Y-106376914D01*
X92047744Y-106376914D02*
X92047744Y-106462628D01*
X92047744Y-106462628D02*
X92076316Y-106576914D01*
X92076316Y-106576914D02*
X92104887Y-106634057D01*
X92104887Y-106634057D02*
X92162030Y-106691200D01*
X92162030Y-106691200D02*
X92247744Y-106719771D01*
X92247744Y-106719771D02*
X92390601Y-106719771D01*
D12*
X136318876Y-118820523D02*
X135883448Y-118820523D01*
X136101162Y-119582523D02*
X136101162Y-118820523D01*
X135194019Y-119582523D02*
X135448019Y-119219666D01*
X135629448Y-119582523D02*
X135629448Y-118820523D01*
X135629448Y-118820523D02*
X135339162Y-118820523D01*
X135339162Y-118820523D02*
X135266591Y-118856809D01*
X135266591Y-118856809D02*
X135230305Y-118893095D01*
X135230305Y-118893095D02*
X135194019Y-118965666D01*
X135194019Y-118965666D02*
X135194019Y-119074523D01*
X135194019Y-119074523D02*
X135230305Y-119147095D01*
X135230305Y-119147095D02*
X135266591Y-119183380D01*
X135266591Y-119183380D02*
X135339162Y-119219666D01*
X135339162Y-119219666D02*
X135629448Y-119219666D01*
X134903734Y-119364809D02*
X134540877Y-119364809D01*
X134976305Y-119582523D02*
X134722305Y-118820523D01*
X134722305Y-118820523D02*
X134468305Y-119582523D01*
X133778876Y-119509952D02*
X133815162Y-119546238D01*
X133815162Y-119546238D02*
X133924019Y-119582523D01*
X133924019Y-119582523D02*
X133996591Y-119582523D01*
X133996591Y-119582523D02*
X134105448Y-119546238D01*
X134105448Y-119546238D02*
X134178019Y-119473666D01*
X134178019Y-119473666D02*
X134214305Y-119401095D01*
X134214305Y-119401095D02*
X134250591Y-119255952D01*
X134250591Y-119255952D02*
X134250591Y-119147095D01*
X134250591Y-119147095D02*
X134214305Y-119001952D01*
X134214305Y-119001952D02*
X134178019Y-118929380D01*
X134178019Y-118929380D02*
X134105448Y-118856809D01*
X134105448Y-118856809D02*
X133996591Y-118820523D01*
X133996591Y-118820523D02*
X133924019Y-118820523D01*
X133924019Y-118820523D02*
X133815162Y-118856809D01*
X133815162Y-118856809D02*
X133778876Y-118893095D01*
X133452305Y-119582523D02*
X133452305Y-118820523D01*
X133016876Y-119582523D02*
X133343448Y-119147095D01*
X133016876Y-118820523D02*
X133452305Y-119255952D01*
X135956019Y-120410157D02*
X135847162Y-120446443D01*
X135847162Y-120446443D02*
X135810876Y-120482729D01*
X135810876Y-120482729D02*
X135774590Y-120555300D01*
X135774590Y-120555300D02*
X135774590Y-120664157D01*
X135774590Y-120664157D02*
X135810876Y-120736729D01*
X135810876Y-120736729D02*
X135847162Y-120773015D01*
X135847162Y-120773015D02*
X135919733Y-120809300D01*
X135919733Y-120809300D02*
X136210019Y-120809300D01*
X136210019Y-120809300D02*
X136210019Y-120047300D01*
X136210019Y-120047300D02*
X135956019Y-120047300D01*
X135956019Y-120047300D02*
X135883448Y-120083586D01*
X135883448Y-120083586D02*
X135847162Y-120119872D01*
X135847162Y-120119872D02*
X135810876Y-120192443D01*
X135810876Y-120192443D02*
X135810876Y-120265015D01*
X135810876Y-120265015D02*
X135847162Y-120337586D01*
X135847162Y-120337586D02*
X135883448Y-120373872D01*
X135883448Y-120373872D02*
X135956019Y-120410157D01*
X135956019Y-120410157D02*
X136210019Y-120410157D01*
X135484305Y-120591586D02*
X135121448Y-120591586D01*
X135556876Y-120809300D02*
X135302876Y-120047300D01*
X135302876Y-120047300D02*
X135048876Y-120809300D01*
X134432019Y-120809300D02*
X134794876Y-120809300D01*
X134794876Y-120809300D02*
X134794876Y-120047300D01*
X133815162Y-120809300D02*
X134178019Y-120809300D01*
X134178019Y-120809300D02*
X134178019Y-120047300D01*
X93143198Y-103224197D02*
X93215770Y-103187911D01*
X93215770Y-103187911D02*
X93324627Y-103187911D01*
X93324627Y-103187911D02*
X93433484Y-103224197D01*
X93433484Y-103224197D02*
X93506055Y-103296768D01*
X93506055Y-103296768D02*
X93542341Y-103369340D01*
X93542341Y-103369340D02*
X93578627Y-103514483D01*
X93578627Y-103514483D02*
X93578627Y-103623340D01*
X93578627Y-103623340D02*
X93542341Y-103768483D01*
X93542341Y-103768483D02*
X93506055Y-103841054D01*
X93506055Y-103841054D02*
X93433484Y-103913626D01*
X93433484Y-103913626D02*
X93324627Y-103949911D01*
X93324627Y-103949911D02*
X93252055Y-103949911D01*
X93252055Y-103949911D02*
X93143198Y-103913626D01*
X93143198Y-103913626D02*
X93106912Y-103877340D01*
X93106912Y-103877340D02*
X93106912Y-103623340D01*
X93106912Y-103623340D02*
X93252055Y-103623340D01*
X92780341Y-103949911D02*
X92780341Y-103187911D01*
X92780341Y-103187911D02*
X92344912Y-103949911D01*
X92344912Y-103949911D02*
X92344912Y-103187911D01*
X91982055Y-103949911D02*
X91982055Y-103187911D01*
X91982055Y-103187911D02*
X91800626Y-103187911D01*
X91800626Y-103187911D02*
X91691769Y-103224197D01*
X91691769Y-103224197D02*
X91619198Y-103296768D01*
X91619198Y-103296768D02*
X91582912Y-103369340D01*
X91582912Y-103369340D02*
X91546626Y-103514483D01*
X91546626Y-103514483D02*
X91546626Y-103623340D01*
X91546626Y-103623340D02*
X91582912Y-103768483D01*
X91582912Y-103768483D02*
X91619198Y-103841054D01*
X91619198Y-103841054D02*
X91691769Y-103913626D01*
X91691769Y-103913626D02*
X91800626Y-103949911D01*
X91800626Y-103949911D02*
X91982055Y-103949911D01*
X96130659Y-103249911D02*
X95876659Y-104011911D01*
X95876659Y-104011911D02*
X95622659Y-103249911D01*
X94933230Y-103939340D02*
X94969516Y-103975626D01*
X94969516Y-103975626D02*
X95078373Y-104011911D01*
X95078373Y-104011911D02*
X95150945Y-104011911D01*
X95150945Y-104011911D02*
X95259802Y-103975626D01*
X95259802Y-103975626D02*
X95332373Y-103903054D01*
X95332373Y-103903054D02*
X95368659Y-103830483D01*
X95368659Y-103830483D02*
X95404945Y-103685340D01*
X95404945Y-103685340D02*
X95404945Y-103576483D01*
X95404945Y-103576483D02*
X95368659Y-103431340D01*
X95368659Y-103431340D02*
X95332373Y-103358768D01*
X95332373Y-103358768D02*
X95259802Y-103286197D01*
X95259802Y-103286197D02*
X95150945Y-103249911D01*
X95150945Y-103249911D02*
X95078373Y-103249911D01*
X95078373Y-103249911D02*
X94969516Y-103286197D01*
X94969516Y-103286197D02*
X94933230Y-103322483D01*
X94171230Y-103939340D02*
X94207516Y-103975626D01*
X94207516Y-103975626D02*
X94316373Y-104011911D01*
X94316373Y-104011911D02*
X94388945Y-104011911D01*
X94388945Y-104011911D02*
X94497802Y-103975626D01*
X94497802Y-103975626D02*
X94570373Y-103903054D01*
X94570373Y-103903054D02*
X94606659Y-103830483D01*
X94606659Y-103830483D02*
X94642945Y-103685340D01*
X94642945Y-103685340D02*
X94642945Y-103576483D01*
X94642945Y-103576483D02*
X94606659Y-103431340D01*
X94606659Y-103431340D02*
X94570373Y-103358768D01*
X94570373Y-103358768D02*
X94497802Y-103286197D01*
X94497802Y-103286197D02*
X94388945Y-103249911D01*
X94388945Y-103249911D02*
X94316373Y-103249911D01*
X94316373Y-103249911D02*
X94207516Y-103286197D01*
X94207516Y-103286197D02*
X94171230Y-103322483D01*
X98597143Y-103925626D02*
X98488286Y-103961911D01*
X98488286Y-103961911D02*
X98306857Y-103961911D01*
X98306857Y-103961911D02*
X98234286Y-103925626D01*
X98234286Y-103925626D02*
X98198000Y-103889340D01*
X98198000Y-103889340D02*
X98161714Y-103816768D01*
X98161714Y-103816768D02*
X98161714Y-103744197D01*
X98161714Y-103744197D02*
X98198000Y-103671626D01*
X98198000Y-103671626D02*
X98234286Y-103635340D01*
X98234286Y-103635340D02*
X98306857Y-103599054D01*
X98306857Y-103599054D02*
X98452000Y-103562768D01*
X98452000Y-103562768D02*
X98524571Y-103526483D01*
X98524571Y-103526483D02*
X98560857Y-103490197D01*
X98560857Y-103490197D02*
X98597143Y-103417626D01*
X98597143Y-103417626D02*
X98597143Y-103345054D01*
X98597143Y-103345054D02*
X98560857Y-103272483D01*
X98560857Y-103272483D02*
X98524571Y-103236197D01*
X98524571Y-103236197D02*
X98452000Y-103199911D01*
X98452000Y-103199911D02*
X98270571Y-103199911D01*
X98270571Y-103199911D02*
X98161714Y-103236197D01*
X97399714Y-103889340D02*
X97436000Y-103925626D01*
X97436000Y-103925626D02*
X97544857Y-103961911D01*
X97544857Y-103961911D02*
X97617429Y-103961911D01*
X97617429Y-103961911D02*
X97726286Y-103925626D01*
X97726286Y-103925626D02*
X97798857Y-103853054D01*
X97798857Y-103853054D02*
X97835143Y-103780483D01*
X97835143Y-103780483D02*
X97871429Y-103635340D01*
X97871429Y-103635340D02*
X97871429Y-103526483D01*
X97871429Y-103526483D02*
X97835143Y-103381340D01*
X97835143Y-103381340D02*
X97798857Y-103308768D01*
X97798857Y-103308768D02*
X97726286Y-103236197D01*
X97726286Y-103236197D02*
X97617429Y-103199911D01*
X97617429Y-103199911D02*
X97544857Y-103199911D01*
X97544857Y-103199911D02*
X97436000Y-103236197D01*
X97436000Y-103236197D02*
X97399714Y-103272483D01*
X96710286Y-103961911D02*
X97073143Y-103961911D01*
X97073143Y-103961911D02*
X97073143Y-103199911D01*
X101139945Y-103925626D02*
X101031088Y-103961911D01*
X101031088Y-103961911D02*
X100849659Y-103961911D01*
X100849659Y-103961911D02*
X100777088Y-103925626D01*
X100777088Y-103925626D02*
X100740802Y-103889340D01*
X100740802Y-103889340D02*
X100704516Y-103816768D01*
X100704516Y-103816768D02*
X100704516Y-103744197D01*
X100704516Y-103744197D02*
X100740802Y-103671626D01*
X100740802Y-103671626D02*
X100777088Y-103635340D01*
X100777088Y-103635340D02*
X100849659Y-103599054D01*
X100849659Y-103599054D02*
X100994802Y-103562768D01*
X100994802Y-103562768D02*
X101067373Y-103526483D01*
X101067373Y-103526483D02*
X101103659Y-103490197D01*
X101103659Y-103490197D02*
X101139945Y-103417626D01*
X101139945Y-103417626D02*
X101139945Y-103345054D01*
X101139945Y-103345054D02*
X101103659Y-103272483D01*
X101103659Y-103272483D02*
X101067373Y-103236197D01*
X101067373Y-103236197D02*
X100994802Y-103199911D01*
X100994802Y-103199911D02*
X100813373Y-103199911D01*
X100813373Y-103199911D02*
X100704516Y-103236197D01*
X100377945Y-103961911D02*
X100377945Y-103199911D01*
X100377945Y-103199911D02*
X100196516Y-103199911D01*
X100196516Y-103199911D02*
X100087659Y-103236197D01*
X100087659Y-103236197D02*
X100015088Y-103308768D01*
X100015088Y-103308768D02*
X99978802Y-103381340D01*
X99978802Y-103381340D02*
X99942516Y-103526483D01*
X99942516Y-103526483D02*
X99942516Y-103635340D01*
X99942516Y-103635340D02*
X99978802Y-103780483D01*
X99978802Y-103780483D02*
X100015088Y-103853054D01*
X100015088Y-103853054D02*
X100087659Y-103925626D01*
X100087659Y-103925626D02*
X100196516Y-103961911D01*
X100196516Y-103961911D02*
X100377945Y-103961911D01*
X99652231Y-103744197D02*
X99289374Y-103744197D01*
X99724802Y-103961911D02*
X99470802Y-103199911D01*
X99470802Y-103199911D02*
X99216802Y-103961911D01*
X140940571Y-115499197D02*
X141013143Y-115462911D01*
X141013143Y-115462911D02*
X141122000Y-115462911D01*
X141122000Y-115462911D02*
X141230857Y-115499197D01*
X141230857Y-115499197D02*
X141303428Y-115571768D01*
X141303428Y-115571768D02*
X141339714Y-115644340D01*
X141339714Y-115644340D02*
X141376000Y-115789483D01*
X141376000Y-115789483D02*
X141376000Y-115898340D01*
X141376000Y-115898340D02*
X141339714Y-116043483D01*
X141339714Y-116043483D02*
X141303428Y-116116054D01*
X141303428Y-116116054D02*
X141230857Y-116188626D01*
X141230857Y-116188626D02*
X141122000Y-116224911D01*
X141122000Y-116224911D02*
X141049428Y-116224911D01*
X141049428Y-116224911D02*
X140940571Y-116188626D01*
X140940571Y-116188626D02*
X140904285Y-116152340D01*
X140904285Y-116152340D02*
X140904285Y-115898340D01*
X140904285Y-115898340D02*
X141049428Y-115898340D01*
X140577714Y-116224911D02*
X140577714Y-115462911D01*
X140577714Y-115462911D02*
X140142285Y-116224911D01*
X140142285Y-116224911D02*
X140142285Y-115462911D01*
X139779428Y-116224911D02*
X139779428Y-115462911D01*
X139779428Y-115462911D02*
X139597999Y-115462911D01*
X139597999Y-115462911D02*
X139489142Y-115499197D01*
X139489142Y-115499197D02*
X139416571Y-115571768D01*
X139416571Y-115571768D02*
X139380285Y-115644340D01*
X139380285Y-115644340D02*
X139343999Y-115789483D01*
X139343999Y-115789483D02*
X139343999Y-115898340D01*
X139343999Y-115898340D02*
X139380285Y-116043483D01*
X139380285Y-116043483D02*
X139416571Y-116116054D01*
X139416571Y-116116054D02*
X139489142Y-116188626D01*
X139489142Y-116188626D02*
X139597999Y-116224911D01*
X139597999Y-116224911D02*
X139779428Y-116224911D01*
X144021286Y-115462911D02*
X143767286Y-116224911D01*
X143767286Y-116224911D02*
X143513286Y-115462911D01*
X142823857Y-116152340D02*
X142860143Y-116188626D01*
X142860143Y-116188626D02*
X142969000Y-116224911D01*
X142969000Y-116224911D02*
X143041572Y-116224911D01*
X143041572Y-116224911D02*
X143150429Y-116188626D01*
X143150429Y-116188626D02*
X143223000Y-116116054D01*
X143223000Y-116116054D02*
X143259286Y-116043483D01*
X143259286Y-116043483D02*
X143295572Y-115898340D01*
X143295572Y-115898340D02*
X143295572Y-115789483D01*
X143295572Y-115789483D02*
X143259286Y-115644340D01*
X143259286Y-115644340D02*
X143223000Y-115571768D01*
X143223000Y-115571768D02*
X143150429Y-115499197D01*
X143150429Y-115499197D02*
X143041572Y-115462911D01*
X143041572Y-115462911D02*
X142969000Y-115462911D01*
X142969000Y-115462911D02*
X142860143Y-115499197D01*
X142860143Y-115499197D02*
X142823857Y-115535483D01*
X142061857Y-116152340D02*
X142098143Y-116188626D01*
X142098143Y-116188626D02*
X142207000Y-116224911D01*
X142207000Y-116224911D02*
X142279572Y-116224911D01*
X142279572Y-116224911D02*
X142388429Y-116188626D01*
X142388429Y-116188626D02*
X142461000Y-116116054D01*
X142461000Y-116116054D02*
X142497286Y-116043483D01*
X142497286Y-116043483D02*
X142533572Y-115898340D01*
X142533572Y-115898340D02*
X142533572Y-115789483D01*
X142533572Y-115789483D02*
X142497286Y-115644340D01*
X142497286Y-115644340D02*
X142461000Y-115571768D01*
X142461000Y-115571768D02*
X142388429Y-115499197D01*
X142388429Y-115499197D02*
X142279572Y-115462911D01*
X142279572Y-115462911D02*
X142207000Y-115462911D01*
X142207000Y-115462911D02*
X142098143Y-115499197D01*
X142098143Y-115499197D02*
X142061857Y-115535483D01*
X146401769Y-116188626D02*
X146292912Y-116224911D01*
X146292912Y-116224911D02*
X146111483Y-116224911D01*
X146111483Y-116224911D02*
X146038912Y-116188626D01*
X146038912Y-116188626D02*
X146002626Y-116152340D01*
X146002626Y-116152340D02*
X145966340Y-116079768D01*
X145966340Y-116079768D02*
X145966340Y-116007197D01*
X145966340Y-116007197D02*
X146002626Y-115934626D01*
X146002626Y-115934626D02*
X146038912Y-115898340D01*
X146038912Y-115898340D02*
X146111483Y-115862054D01*
X146111483Y-115862054D02*
X146256626Y-115825768D01*
X146256626Y-115825768D02*
X146329197Y-115789483D01*
X146329197Y-115789483D02*
X146365483Y-115753197D01*
X146365483Y-115753197D02*
X146401769Y-115680626D01*
X146401769Y-115680626D02*
X146401769Y-115608054D01*
X146401769Y-115608054D02*
X146365483Y-115535483D01*
X146365483Y-115535483D02*
X146329197Y-115499197D01*
X146329197Y-115499197D02*
X146256626Y-115462911D01*
X146256626Y-115462911D02*
X146075197Y-115462911D01*
X146075197Y-115462911D02*
X145966340Y-115499197D01*
X145204340Y-116152340D02*
X145240626Y-116188626D01*
X145240626Y-116188626D02*
X145349483Y-116224911D01*
X145349483Y-116224911D02*
X145422055Y-116224911D01*
X145422055Y-116224911D02*
X145530912Y-116188626D01*
X145530912Y-116188626D02*
X145603483Y-116116054D01*
X145603483Y-116116054D02*
X145639769Y-116043483D01*
X145639769Y-116043483D02*
X145676055Y-115898340D01*
X145676055Y-115898340D02*
X145676055Y-115789483D01*
X145676055Y-115789483D02*
X145639769Y-115644340D01*
X145639769Y-115644340D02*
X145603483Y-115571768D01*
X145603483Y-115571768D02*
X145530912Y-115499197D01*
X145530912Y-115499197D02*
X145422055Y-115462911D01*
X145422055Y-115462911D02*
X145349483Y-115462911D01*
X145349483Y-115462911D02*
X145240626Y-115499197D01*
X145240626Y-115499197D02*
X145204340Y-115535483D01*
X144514912Y-116224911D02*
X144877769Y-116224911D01*
X144877769Y-116224911D02*
X144877769Y-115462911D01*
X148985285Y-116188626D02*
X148876428Y-116224911D01*
X148876428Y-116224911D02*
X148694999Y-116224911D01*
X148694999Y-116224911D02*
X148622428Y-116188626D01*
X148622428Y-116188626D02*
X148586142Y-116152340D01*
X148586142Y-116152340D02*
X148549856Y-116079768D01*
X148549856Y-116079768D02*
X148549856Y-116007197D01*
X148549856Y-116007197D02*
X148586142Y-115934626D01*
X148586142Y-115934626D02*
X148622428Y-115898340D01*
X148622428Y-115898340D02*
X148694999Y-115862054D01*
X148694999Y-115862054D02*
X148840142Y-115825768D01*
X148840142Y-115825768D02*
X148912713Y-115789483D01*
X148912713Y-115789483D02*
X148948999Y-115753197D01*
X148948999Y-115753197D02*
X148985285Y-115680626D01*
X148985285Y-115680626D02*
X148985285Y-115608054D01*
X148985285Y-115608054D02*
X148948999Y-115535483D01*
X148948999Y-115535483D02*
X148912713Y-115499197D01*
X148912713Y-115499197D02*
X148840142Y-115462911D01*
X148840142Y-115462911D02*
X148658713Y-115462911D01*
X148658713Y-115462911D02*
X148549856Y-115499197D01*
X148223285Y-116224911D02*
X148223285Y-115462911D01*
X148223285Y-115462911D02*
X148041856Y-115462911D01*
X148041856Y-115462911D02*
X147932999Y-115499197D01*
X147932999Y-115499197D02*
X147860428Y-115571768D01*
X147860428Y-115571768D02*
X147824142Y-115644340D01*
X147824142Y-115644340D02*
X147787856Y-115789483D01*
X147787856Y-115789483D02*
X147787856Y-115898340D01*
X147787856Y-115898340D02*
X147824142Y-116043483D01*
X147824142Y-116043483D02*
X147860428Y-116116054D01*
X147860428Y-116116054D02*
X147932999Y-116188626D01*
X147932999Y-116188626D02*
X148041856Y-116224911D01*
X148041856Y-116224911D02*
X148223285Y-116224911D01*
X147497571Y-116007197D02*
X147134714Y-116007197D01*
X147570142Y-116224911D02*
X147316142Y-115462911D01*
X147316142Y-115462911D02*
X147062142Y-116224911D01*
D11*
X97206681Y-87535094D02*
X98006681Y-87535094D01*
X98006681Y-87535094D02*
X97435253Y-87268428D01*
X97435253Y-87268428D02*
X98006681Y-87001761D01*
X98006681Y-87001761D02*
X97206681Y-87001761D01*
X98006681Y-86468427D02*
X98006681Y-86316046D01*
X98006681Y-86316046D02*
X97968586Y-86239856D01*
X97968586Y-86239856D02*
X97892396Y-86163665D01*
X97892396Y-86163665D02*
X97740015Y-86125570D01*
X97740015Y-86125570D02*
X97473348Y-86125570D01*
X97473348Y-86125570D02*
X97320967Y-86163665D01*
X97320967Y-86163665D02*
X97244777Y-86239856D01*
X97244777Y-86239856D02*
X97206681Y-86316046D01*
X97206681Y-86316046D02*
X97206681Y-86468427D01*
X97206681Y-86468427D02*
X97244777Y-86544618D01*
X97244777Y-86544618D02*
X97320967Y-86620808D01*
X97320967Y-86620808D02*
X97473348Y-86658904D01*
X97473348Y-86658904D02*
X97740015Y-86658904D01*
X97740015Y-86658904D02*
X97892396Y-86620808D01*
X97892396Y-86620808D02*
X97968586Y-86544618D01*
X97968586Y-86544618D02*
X98006681Y-86468427D01*
X98006681Y-85782713D02*
X97359062Y-85782713D01*
X97359062Y-85782713D02*
X97282872Y-85744618D01*
X97282872Y-85744618D02*
X97244777Y-85706523D01*
X97244777Y-85706523D02*
X97206681Y-85630332D01*
X97206681Y-85630332D02*
X97206681Y-85477951D01*
X97206681Y-85477951D02*
X97244777Y-85401761D01*
X97244777Y-85401761D02*
X97282872Y-85363666D01*
X97282872Y-85363666D02*
X97359062Y-85325570D01*
X97359062Y-85325570D02*
X98006681Y-85325570D01*
X97206681Y-84944618D02*
X98006681Y-84944618D01*
X98006681Y-84944618D02*
X97206681Y-84487475D01*
X97206681Y-84487475D02*
X98006681Y-84487475D01*
X98006681Y-84220809D02*
X98006681Y-83763666D01*
X97206681Y-83992238D02*
X98006681Y-83992238D01*
X97206681Y-82887475D02*
X98006681Y-82887475D01*
X98006681Y-82887475D02*
X97435253Y-82620809D01*
X97435253Y-82620809D02*
X98006681Y-82354142D01*
X98006681Y-82354142D02*
X97206681Y-82354142D01*
X97282872Y-81516046D02*
X97244777Y-81554142D01*
X97244777Y-81554142D02*
X97206681Y-81668427D01*
X97206681Y-81668427D02*
X97206681Y-81744618D01*
X97206681Y-81744618D02*
X97244777Y-81858904D01*
X97244777Y-81858904D02*
X97320967Y-81935094D01*
X97320967Y-81935094D02*
X97397157Y-81973189D01*
X97397157Y-81973189D02*
X97549538Y-82011285D01*
X97549538Y-82011285D02*
X97663824Y-82011285D01*
X97663824Y-82011285D02*
X97816205Y-81973189D01*
X97816205Y-81973189D02*
X97892396Y-81935094D01*
X97892396Y-81935094D02*
X97968586Y-81858904D01*
X97968586Y-81858904D02*
X98006681Y-81744618D01*
X98006681Y-81744618D02*
X98006681Y-81668427D01*
X98006681Y-81668427D02*
X97968586Y-81554142D01*
X97968586Y-81554142D02*
X97930491Y-81516046D01*
X98006681Y-81173189D02*
X97359062Y-81173189D01*
X97359062Y-81173189D02*
X97282872Y-81135094D01*
X97282872Y-81135094D02*
X97244777Y-81096999D01*
X97244777Y-81096999D02*
X97206681Y-81020808D01*
X97206681Y-81020808D02*
X97206681Y-80868427D01*
X97206681Y-80868427D02*
X97244777Y-80792237D01*
X97244777Y-80792237D02*
X97282872Y-80754142D01*
X97282872Y-80754142D02*
X97359062Y-80716046D01*
X97359062Y-80716046D02*
X98006681Y-80716046D01*
X98006681Y-79573189D02*
X98006681Y-79420808D01*
X98006681Y-79420808D02*
X97968586Y-79344618D01*
X97968586Y-79344618D02*
X97892396Y-79268427D01*
X97892396Y-79268427D02*
X97740015Y-79230332D01*
X97740015Y-79230332D02*
X97473348Y-79230332D01*
X97473348Y-79230332D02*
X97320967Y-79268427D01*
X97320967Y-79268427D02*
X97244777Y-79344618D01*
X97244777Y-79344618D02*
X97206681Y-79420808D01*
X97206681Y-79420808D02*
X97206681Y-79573189D01*
X97206681Y-79573189D02*
X97244777Y-79649380D01*
X97244777Y-79649380D02*
X97320967Y-79725570D01*
X97320967Y-79725570D02*
X97473348Y-79763666D01*
X97473348Y-79763666D02*
X97740015Y-79763666D01*
X97740015Y-79763666D02*
X97892396Y-79725570D01*
X97892396Y-79725570D02*
X97968586Y-79649380D01*
X97968586Y-79649380D02*
X98006681Y-79573189D01*
X97206681Y-78887475D02*
X98006681Y-78887475D01*
X98006681Y-78887475D02*
X97206681Y-78430332D01*
X97206681Y-78430332D02*
X98006681Y-78430332D01*
X97625729Y-77173190D02*
X97587634Y-77058904D01*
X97587634Y-77058904D02*
X97549538Y-77020809D01*
X97549538Y-77020809D02*
X97473348Y-76982713D01*
X97473348Y-76982713D02*
X97359062Y-76982713D01*
X97359062Y-76982713D02*
X97282872Y-77020809D01*
X97282872Y-77020809D02*
X97244777Y-77058904D01*
X97244777Y-77058904D02*
X97206681Y-77135094D01*
X97206681Y-77135094D02*
X97206681Y-77439856D01*
X97206681Y-77439856D02*
X98006681Y-77439856D01*
X98006681Y-77439856D02*
X98006681Y-77173190D01*
X98006681Y-77173190D02*
X97968586Y-77096999D01*
X97968586Y-77096999D02*
X97930491Y-77058904D01*
X97930491Y-77058904D02*
X97854300Y-77020809D01*
X97854300Y-77020809D02*
X97778110Y-77020809D01*
X97778110Y-77020809D02*
X97701919Y-77058904D01*
X97701919Y-77058904D02*
X97663824Y-77096999D01*
X97663824Y-77096999D02*
X97625729Y-77173190D01*
X97625729Y-77173190D02*
X97625729Y-77439856D01*
X98006681Y-76487475D02*
X98006681Y-76335094D01*
X98006681Y-76335094D02*
X97968586Y-76258904D01*
X97968586Y-76258904D02*
X97892396Y-76182713D01*
X97892396Y-76182713D02*
X97740015Y-76144618D01*
X97740015Y-76144618D02*
X97473348Y-76144618D01*
X97473348Y-76144618D02*
X97320967Y-76182713D01*
X97320967Y-76182713D02*
X97244777Y-76258904D01*
X97244777Y-76258904D02*
X97206681Y-76335094D01*
X97206681Y-76335094D02*
X97206681Y-76487475D01*
X97206681Y-76487475D02*
X97244777Y-76563666D01*
X97244777Y-76563666D02*
X97320967Y-76639856D01*
X97320967Y-76639856D02*
X97473348Y-76677952D01*
X97473348Y-76677952D02*
X97740015Y-76677952D01*
X97740015Y-76677952D02*
X97892396Y-76639856D01*
X97892396Y-76639856D02*
X97968586Y-76563666D01*
X97968586Y-76563666D02*
X98006681Y-76487475D01*
X98006681Y-75916047D02*
X98006681Y-75458904D01*
X97206681Y-75687476D02*
X98006681Y-75687476D01*
X98006681Y-75306523D02*
X98006681Y-74849380D01*
X97206681Y-75077952D02*
X98006681Y-75077952D01*
X98006681Y-74430332D02*
X98006681Y-74277951D01*
X98006681Y-74277951D02*
X97968586Y-74201761D01*
X97968586Y-74201761D02*
X97892396Y-74125570D01*
X97892396Y-74125570D02*
X97740015Y-74087475D01*
X97740015Y-74087475D02*
X97473348Y-74087475D01*
X97473348Y-74087475D02*
X97320967Y-74125570D01*
X97320967Y-74125570D02*
X97244777Y-74201761D01*
X97244777Y-74201761D02*
X97206681Y-74277951D01*
X97206681Y-74277951D02*
X97206681Y-74430332D01*
X97206681Y-74430332D02*
X97244777Y-74506523D01*
X97244777Y-74506523D02*
X97320967Y-74582713D01*
X97320967Y-74582713D02*
X97473348Y-74620809D01*
X97473348Y-74620809D02*
X97740015Y-74620809D01*
X97740015Y-74620809D02*
X97892396Y-74582713D01*
X97892396Y-74582713D02*
X97968586Y-74506523D01*
X97968586Y-74506523D02*
X98006681Y-74430332D01*
X97206681Y-73744618D02*
X98006681Y-73744618D01*
X98006681Y-73744618D02*
X97435253Y-73477952D01*
X97435253Y-73477952D02*
X98006681Y-73211285D01*
X98006681Y-73211285D02*
X97206681Y-73211285D01*
X95994917Y-87077951D02*
X95956822Y-87116047D01*
X95956822Y-87116047D02*
X95918726Y-87230332D01*
X95918726Y-87230332D02*
X95918726Y-87306523D01*
X95918726Y-87306523D02*
X95956822Y-87420809D01*
X95956822Y-87420809D02*
X96033012Y-87496999D01*
X96033012Y-87496999D02*
X96109202Y-87535094D01*
X96109202Y-87535094D02*
X96261583Y-87573190D01*
X96261583Y-87573190D02*
X96375869Y-87573190D01*
X96375869Y-87573190D02*
X96528250Y-87535094D01*
X96528250Y-87535094D02*
X96604441Y-87496999D01*
X96604441Y-87496999D02*
X96680631Y-87420809D01*
X96680631Y-87420809D02*
X96718726Y-87306523D01*
X96718726Y-87306523D02*
X96718726Y-87230332D01*
X96718726Y-87230332D02*
X96680631Y-87116047D01*
X96680631Y-87116047D02*
X96642536Y-87077951D01*
X96718726Y-86582713D02*
X96718726Y-86430332D01*
X96718726Y-86430332D02*
X96680631Y-86354142D01*
X96680631Y-86354142D02*
X96604441Y-86277951D01*
X96604441Y-86277951D02*
X96452060Y-86239856D01*
X96452060Y-86239856D02*
X96185393Y-86239856D01*
X96185393Y-86239856D02*
X96033012Y-86277951D01*
X96033012Y-86277951D02*
X95956822Y-86354142D01*
X95956822Y-86354142D02*
X95918726Y-86430332D01*
X95918726Y-86430332D02*
X95918726Y-86582713D01*
X95918726Y-86582713D02*
X95956822Y-86658904D01*
X95956822Y-86658904D02*
X96033012Y-86735094D01*
X96033012Y-86735094D02*
X96185393Y-86773190D01*
X96185393Y-86773190D02*
X96452060Y-86773190D01*
X96452060Y-86773190D02*
X96604441Y-86735094D01*
X96604441Y-86735094D02*
X96680631Y-86658904D01*
X96680631Y-86658904D02*
X96718726Y-86582713D01*
X95918726Y-85896999D02*
X96718726Y-85896999D01*
X96718726Y-85896999D02*
X96147298Y-85630333D01*
X96147298Y-85630333D02*
X96718726Y-85363666D01*
X96718726Y-85363666D02*
X95918726Y-85363666D01*
X95918726Y-84982713D02*
X96718726Y-84982713D01*
X96718726Y-84982713D02*
X96718726Y-84677951D01*
X96718726Y-84677951D02*
X96680631Y-84601761D01*
X96680631Y-84601761D02*
X96642536Y-84563666D01*
X96642536Y-84563666D02*
X96566345Y-84525570D01*
X96566345Y-84525570D02*
X96452060Y-84525570D01*
X96452060Y-84525570D02*
X96375869Y-84563666D01*
X96375869Y-84563666D02*
X96337774Y-84601761D01*
X96337774Y-84601761D02*
X96299679Y-84677951D01*
X96299679Y-84677951D02*
X96299679Y-84982713D01*
X96718726Y-84030332D02*
X96718726Y-83877951D01*
X96718726Y-83877951D02*
X96680631Y-83801761D01*
X96680631Y-83801761D02*
X96604441Y-83725570D01*
X96604441Y-83725570D02*
X96452060Y-83687475D01*
X96452060Y-83687475D02*
X96185393Y-83687475D01*
X96185393Y-83687475D02*
X96033012Y-83725570D01*
X96033012Y-83725570D02*
X95956822Y-83801761D01*
X95956822Y-83801761D02*
X95918726Y-83877951D01*
X95918726Y-83877951D02*
X95918726Y-84030332D01*
X95918726Y-84030332D02*
X95956822Y-84106523D01*
X95956822Y-84106523D02*
X96033012Y-84182713D01*
X96033012Y-84182713D02*
X96185393Y-84220809D01*
X96185393Y-84220809D02*
X96452060Y-84220809D01*
X96452060Y-84220809D02*
X96604441Y-84182713D01*
X96604441Y-84182713D02*
X96680631Y-84106523D01*
X96680631Y-84106523D02*
X96718726Y-84030332D01*
X95918726Y-83344618D02*
X96718726Y-83344618D01*
X96718726Y-83344618D02*
X95918726Y-82887475D01*
X95918726Y-82887475D02*
X96718726Y-82887475D01*
X96337774Y-82506523D02*
X96337774Y-82239857D01*
X95918726Y-82125571D02*
X95918726Y-82506523D01*
X95918726Y-82506523D02*
X96718726Y-82506523D01*
X96718726Y-82506523D02*
X96718726Y-82125571D01*
X95918726Y-81782713D02*
X96718726Y-81782713D01*
X96718726Y-81782713D02*
X95918726Y-81325570D01*
X95918726Y-81325570D02*
X96718726Y-81325570D01*
X96718726Y-81058904D02*
X96718726Y-80601761D01*
X95918726Y-80830333D02*
X96718726Y-80830333D01*
X95956822Y-80373190D02*
X95918726Y-80258904D01*
X95918726Y-80258904D02*
X95918726Y-80068428D01*
X95918726Y-80068428D02*
X95956822Y-79992237D01*
X95956822Y-79992237D02*
X95994917Y-79954142D01*
X95994917Y-79954142D02*
X96071107Y-79916047D01*
X96071107Y-79916047D02*
X96147298Y-79916047D01*
X96147298Y-79916047D02*
X96223488Y-79954142D01*
X96223488Y-79954142D02*
X96261583Y-79992237D01*
X96261583Y-79992237D02*
X96299679Y-80068428D01*
X96299679Y-80068428D02*
X96337774Y-80220809D01*
X96337774Y-80220809D02*
X96375869Y-80296999D01*
X96375869Y-80296999D02*
X96413964Y-80335094D01*
X96413964Y-80335094D02*
X96490155Y-80373190D01*
X96490155Y-80373190D02*
X96566345Y-80373190D01*
X96566345Y-80373190D02*
X96642536Y-80335094D01*
X96642536Y-80335094D02*
X96680631Y-80296999D01*
X96680631Y-80296999D02*
X96718726Y-80220809D01*
X96718726Y-80220809D02*
X96718726Y-80030332D01*
X96718726Y-80030332D02*
X96680631Y-79916047D01*
X96337774Y-78696999D02*
X96337774Y-78963665D01*
X95918726Y-78963665D02*
X96718726Y-78963665D01*
X96718726Y-78963665D02*
X96718726Y-78582713D01*
X96147298Y-78316047D02*
X96147298Y-77935094D01*
X95918726Y-78392237D02*
X96718726Y-78125570D01*
X96718726Y-78125570D02*
X95918726Y-77858904D01*
X95994917Y-77135094D02*
X95956822Y-77173190D01*
X95956822Y-77173190D02*
X95918726Y-77287475D01*
X95918726Y-77287475D02*
X95918726Y-77363666D01*
X95918726Y-77363666D02*
X95956822Y-77477952D01*
X95956822Y-77477952D02*
X96033012Y-77554142D01*
X96033012Y-77554142D02*
X96109202Y-77592237D01*
X96109202Y-77592237D02*
X96261583Y-77630333D01*
X96261583Y-77630333D02*
X96375869Y-77630333D01*
X96375869Y-77630333D02*
X96528250Y-77592237D01*
X96528250Y-77592237D02*
X96604441Y-77554142D01*
X96604441Y-77554142D02*
X96680631Y-77477952D01*
X96680631Y-77477952D02*
X96718726Y-77363666D01*
X96718726Y-77363666D02*
X96718726Y-77287475D01*
X96718726Y-77287475D02*
X96680631Y-77173190D01*
X96680631Y-77173190D02*
X96642536Y-77135094D01*
X95918726Y-76792237D02*
X96718726Y-76792237D01*
X95918726Y-76411285D02*
X96718726Y-76411285D01*
X96718726Y-76411285D02*
X95918726Y-75954142D01*
X95918726Y-75954142D02*
X96718726Y-75954142D01*
X96680631Y-75154143D02*
X96718726Y-75230333D01*
X96718726Y-75230333D02*
X96718726Y-75344619D01*
X96718726Y-75344619D02*
X96680631Y-75458905D01*
X96680631Y-75458905D02*
X96604441Y-75535095D01*
X96604441Y-75535095D02*
X96528250Y-75573190D01*
X96528250Y-75573190D02*
X96375869Y-75611286D01*
X96375869Y-75611286D02*
X96261583Y-75611286D01*
X96261583Y-75611286D02*
X96109202Y-75573190D01*
X96109202Y-75573190D02*
X96033012Y-75535095D01*
X96033012Y-75535095D02*
X95956822Y-75458905D01*
X95956822Y-75458905D02*
X95918726Y-75344619D01*
X95918726Y-75344619D02*
X95918726Y-75268428D01*
X95918726Y-75268428D02*
X95956822Y-75154143D01*
X95956822Y-75154143D02*
X95994917Y-75116047D01*
X95994917Y-75116047D02*
X96261583Y-75116047D01*
X96261583Y-75116047D02*
X96261583Y-75268428D01*
X95918726Y-74163666D02*
X96718726Y-74163666D01*
X96718726Y-74163666D02*
X96718726Y-73858904D01*
X96718726Y-73858904D02*
X96680631Y-73782714D01*
X96680631Y-73782714D02*
X96642536Y-73744619D01*
X96642536Y-73744619D02*
X96566345Y-73706523D01*
X96566345Y-73706523D02*
X96452060Y-73706523D01*
X96452060Y-73706523D02*
X96375869Y-73744619D01*
X96375869Y-73744619D02*
X96337774Y-73782714D01*
X96337774Y-73782714D02*
X96299679Y-73858904D01*
X96299679Y-73858904D02*
X96299679Y-74163666D01*
X95994917Y-72906523D02*
X95956822Y-72944619D01*
X95956822Y-72944619D02*
X95918726Y-73058904D01*
X95918726Y-73058904D02*
X95918726Y-73135095D01*
X95918726Y-73135095D02*
X95956822Y-73249381D01*
X95956822Y-73249381D02*
X96033012Y-73325571D01*
X96033012Y-73325571D02*
X96109202Y-73363666D01*
X96109202Y-73363666D02*
X96261583Y-73401762D01*
X96261583Y-73401762D02*
X96375869Y-73401762D01*
X96375869Y-73401762D02*
X96528250Y-73363666D01*
X96528250Y-73363666D02*
X96604441Y-73325571D01*
X96604441Y-73325571D02*
X96680631Y-73249381D01*
X96680631Y-73249381D02*
X96718726Y-73135095D01*
X96718726Y-73135095D02*
X96718726Y-73058904D01*
X96718726Y-73058904D02*
X96680631Y-72944619D01*
X96680631Y-72944619D02*
X96642536Y-72906523D01*
X96337774Y-72297000D02*
X96299679Y-72182714D01*
X96299679Y-72182714D02*
X96261583Y-72144619D01*
X96261583Y-72144619D02*
X96185393Y-72106523D01*
X96185393Y-72106523D02*
X96071107Y-72106523D01*
X96071107Y-72106523D02*
X95994917Y-72144619D01*
X95994917Y-72144619D02*
X95956822Y-72182714D01*
X95956822Y-72182714D02*
X95918726Y-72258904D01*
X95918726Y-72258904D02*
X95918726Y-72563666D01*
X95918726Y-72563666D02*
X96718726Y-72563666D01*
X96718726Y-72563666D02*
X96718726Y-72297000D01*
X96718726Y-72297000D02*
X96680631Y-72220809D01*
X96680631Y-72220809D02*
X96642536Y-72182714D01*
X96642536Y-72182714D02*
X96566345Y-72144619D01*
X96566345Y-72144619D02*
X96490155Y-72144619D01*
X96490155Y-72144619D02*
X96413964Y-72182714D01*
X96413964Y-72182714D02*
X96375869Y-72220809D01*
X96375869Y-72220809D02*
X96337774Y-72297000D01*
X96337774Y-72297000D02*
X96337774Y-72563666D01*
X103628696Y-123468318D02*
X103895363Y-123087365D01*
X104085839Y-123468318D02*
X104085839Y-122668318D01*
X104085839Y-122668318D02*
X103781077Y-122668318D01*
X103781077Y-122668318D02*
X103704887Y-122706413D01*
X103704887Y-122706413D02*
X103666792Y-122744508D01*
X103666792Y-122744508D02*
X103628696Y-122820699D01*
X103628696Y-122820699D02*
X103628696Y-122934984D01*
X103628696Y-122934984D02*
X103666792Y-123011175D01*
X103666792Y-123011175D02*
X103704887Y-123049270D01*
X103704887Y-123049270D02*
X103781077Y-123087365D01*
X103781077Y-123087365D02*
X104085839Y-123087365D01*
X103285839Y-123049270D02*
X103019173Y-123049270D01*
X102904887Y-123468318D02*
X103285839Y-123468318D01*
X103285839Y-123468318D02*
X103285839Y-122668318D01*
X103285839Y-122668318D02*
X102904887Y-122668318D01*
X102676315Y-122668318D02*
X102409648Y-123468318D01*
X102409648Y-123468318D02*
X102142982Y-122668318D01*
X101876315Y-123468318D02*
X101876315Y-122668318D01*
X101533459Y-123430223D02*
X101419173Y-123468318D01*
X101419173Y-123468318D02*
X101228697Y-123468318D01*
X101228697Y-123468318D02*
X101152506Y-123430223D01*
X101152506Y-123430223D02*
X101114411Y-123392127D01*
X101114411Y-123392127D02*
X101076316Y-123315937D01*
X101076316Y-123315937D02*
X101076316Y-123239746D01*
X101076316Y-123239746D02*
X101114411Y-123163556D01*
X101114411Y-123163556D02*
X101152506Y-123125461D01*
X101152506Y-123125461D02*
X101228697Y-123087365D01*
X101228697Y-123087365D02*
X101381078Y-123049270D01*
X101381078Y-123049270D02*
X101457268Y-123011175D01*
X101457268Y-123011175D02*
X101495363Y-122973080D01*
X101495363Y-122973080D02*
X101533459Y-122896889D01*
X101533459Y-122896889D02*
X101533459Y-122820699D01*
X101533459Y-122820699D02*
X101495363Y-122744508D01*
X101495363Y-122744508D02*
X101457268Y-122706413D01*
X101457268Y-122706413D02*
X101381078Y-122668318D01*
X101381078Y-122668318D02*
X101190601Y-122668318D01*
X101190601Y-122668318D02*
X101076316Y-122706413D01*
X100733458Y-123468318D02*
X100733458Y-122668318D01*
X100200125Y-122668318D02*
X100047744Y-122668318D01*
X100047744Y-122668318D02*
X99971554Y-122706413D01*
X99971554Y-122706413D02*
X99895363Y-122782603D01*
X99895363Y-122782603D02*
X99857268Y-122934984D01*
X99857268Y-122934984D02*
X99857268Y-123201651D01*
X99857268Y-123201651D02*
X99895363Y-123354032D01*
X99895363Y-123354032D02*
X99971554Y-123430223D01*
X99971554Y-123430223D02*
X100047744Y-123468318D01*
X100047744Y-123468318D02*
X100200125Y-123468318D01*
X100200125Y-123468318D02*
X100276316Y-123430223D01*
X100276316Y-123430223D02*
X100352506Y-123354032D01*
X100352506Y-123354032D02*
X100390602Y-123201651D01*
X100390602Y-123201651D02*
X100390602Y-122934984D01*
X100390602Y-122934984D02*
X100352506Y-122782603D01*
X100352506Y-122782603D02*
X100276316Y-122706413D01*
X100276316Y-122706413D02*
X100200125Y-122668318D01*
X99514411Y-123468318D02*
X99514411Y-122668318D01*
X99514411Y-122668318D02*
X99057268Y-123468318D01*
X99057268Y-123468318D02*
X99057268Y-122668318D01*
X97647745Y-123468318D02*
X98104888Y-123468318D01*
X97876316Y-123468318D02*
X97876316Y-122668318D01*
X97876316Y-122668318D02*
X97952507Y-122782603D01*
X97952507Y-122782603D02*
X98028697Y-122858794D01*
X98028697Y-122858794D02*
X98104888Y-122896889D01*
X104085839Y-124756273D02*
X104085839Y-123956273D01*
X104085839Y-124261035D02*
X104009649Y-124222939D01*
X104009649Y-124222939D02*
X103857268Y-124222939D01*
X103857268Y-124222939D02*
X103781077Y-124261035D01*
X103781077Y-124261035D02*
X103742982Y-124299130D01*
X103742982Y-124299130D02*
X103704887Y-124375320D01*
X103704887Y-124375320D02*
X103704887Y-124603892D01*
X103704887Y-124603892D02*
X103742982Y-124680082D01*
X103742982Y-124680082D02*
X103781077Y-124718178D01*
X103781077Y-124718178D02*
X103857268Y-124756273D01*
X103857268Y-124756273D02*
X104009649Y-124756273D01*
X104009649Y-124756273D02*
X104085839Y-124718178D01*
X103438220Y-124222939D02*
X103247744Y-124756273D01*
X103057267Y-124222939D02*
X103247744Y-124756273D01*
X103247744Y-124756273D02*
X103323934Y-124946749D01*
X103323934Y-124946749D02*
X103362029Y-124984844D01*
X103362029Y-124984844D02*
X103438220Y-125022939D01*
X102181077Y-124718178D02*
X102066791Y-124756273D01*
X102066791Y-124756273D02*
X101876315Y-124756273D01*
X101876315Y-124756273D02*
X101800124Y-124718178D01*
X101800124Y-124718178D02*
X101762029Y-124680082D01*
X101762029Y-124680082D02*
X101723934Y-124603892D01*
X101723934Y-124603892D02*
X101723934Y-124527701D01*
X101723934Y-124527701D02*
X101762029Y-124451511D01*
X101762029Y-124451511D02*
X101800124Y-124413416D01*
X101800124Y-124413416D02*
X101876315Y-124375320D01*
X101876315Y-124375320D02*
X102028696Y-124337225D01*
X102028696Y-124337225D02*
X102104886Y-124299130D01*
X102104886Y-124299130D02*
X102142981Y-124261035D01*
X102142981Y-124261035D02*
X102181077Y-124184844D01*
X102181077Y-124184844D02*
X102181077Y-124108654D01*
X102181077Y-124108654D02*
X102142981Y-124032463D01*
X102142981Y-124032463D02*
X102104886Y-123994368D01*
X102104886Y-123994368D02*
X102028696Y-123956273D01*
X102028696Y-123956273D02*
X101838219Y-123956273D01*
X101838219Y-123956273D02*
X101723934Y-123994368D01*
X101038219Y-124718178D02*
X101114410Y-124756273D01*
X101114410Y-124756273D02*
X101266791Y-124756273D01*
X101266791Y-124756273D02*
X101342981Y-124718178D01*
X101342981Y-124718178D02*
X101381076Y-124680082D01*
X101381076Y-124680082D02*
X101419172Y-124603892D01*
X101419172Y-124603892D02*
X101419172Y-124375320D01*
X101419172Y-124375320D02*
X101381076Y-124299130D01*
X101381076Y-124299130D02*
X101342981Y-124261035D01*
X101342981Y-124261035D02*
X101266791Y-124222939D01*
X101266791Y-124222939D02*
X101114410Y-124222939D01*
X101114410Y-124222939D02*
X101038219Y-124261035D01*
X100695362Y-124756273D02*
X100695362Y-124222939D01*
X100695362Y-124375320D02*
X100657267Y-124299130D01*
X100657267Y-124299130D02*
X100619172Y-124261035D01*
X100619172Y-124261035D02*
X100542981Y-124222939D01*
X100542981Y-124222939D02*
X100466791Y-124222939D01*
X99857267Y-124756273D02*
X99857267Y-124337225D01*
X99857267Y-124337225D02*
X99895362Y-124261035D01*
X99895362Y-124261035D02*
X99971553Y-124222939D01*
X99971553Y-124222939D02*
X100123934Y-124222939D01*
X100123934Y-124222939D02*
X100200124Y-124261035D01*
X99857267Y-124718178D02*
X99933458Y-124756273D01*
X99933458Y-124756273D02*
X100123934Y-124756273D01*
X100123934Y-124756273D02*
X100200124Y-124718178D01*
X100200124Y-124718178D02*
X100238220Y-124641987D01*
X100238220Y-124641987D02*
X100238220Y-124565797D01*
X100238220Y-124565797D02*
X100200124Y-124489606D01*
X100200124Y-124489606D02*
X100123934Y-124451511D01*
X100123934Y-124451511D02*
X99933458Y-124451511D01*
X99933458Y-124451511D02*
X99857267Y-124413416D01*
X99476314Y-124756273D02*
X99476314Y-124222939D01*
X99476314Y-124299130D02*
X99438219Y-124261035D01*
X99438219Y-124261035D02*
X99362029Y-124222939D01*
X99362029Y-124222939D02*
X99247743Y-124222939D01*
X99247743Y-124222939D02*
X99171552Y-124261035D01*
X99171552Y-124261035D02*
X99133457Y-124337225D01*
X99133457Y-124337225D02*
X99133457Y-124756273D01*
X99133457Y-124337225D02*
X99095362Y-124261035D01*
X99095362Y-124261035D02*
X99019171Y-124222939D01*
X99019171Y-124222939D02*
X98904886Y-124222939D01*
X98904886Y-124222939D02*
X98828695Y-124261035D01*
X98828695Y-124261035D02*
X98790600Y-124337225D01*
X98790600Y-124337225D02*
X98790600Y-124756273D01*
X98409647Y-124756273D02*
X98409647Y-123956273D01*
X98409647Y-124261035D02*
X98333457Y-124222939D01*
X98333457Y-124222939D02*
X98181076Y-124222939D01*
X98181076Y-124222939D02*
X98104885Y-124261035D01*
X98104885Y-124261035D02*
X98066790Y-124299130D01*
X98066790Y-124299130D02*
X98028695Y-124375320D01*
X98028695Y-124375320D02*
X98028695Y-124603892D01*
X98028695Y-124603892D02*
X98066790Y-124680082D01*
X98066790Y-124680082D02*
X98104885Y-124718178D01*
X98104885Y-124718178D02*
X98181076Y-124756273D01*
X98181076Y-124756273D02*
X98333457Y-124756273D01*
X98333457Y-124756273D02*
X98409647Y-124718178D01*
X97571552Y-124756273D02*
X97647742Y-124718178D01*
X97647742Y-124718178D02*
X97685837Y-124641987D01*
X97685837Y-124641987D02*
X97685837Y-123956273D01*
X96962027Y-124718178D02*
X97038218Y-124756273D01*
X97038218Y-124756273D02*
X97190599Y-124756273D01*
X97190599Y-124756273D02*
X97266789Y-124718178D01*
X97266789Y-124718178D02*
X97304885Y-124641987D01*
X97304885Y-124641987D02*
X97304885Y-124337225D01*
X97304885Y-124337225D02*
X97266789Y-124261035D01*
X97266789Y-124261035D02*
X97190599Y-124222939D01*
X97190599Y-124222939D02*
X97038218Y-124222939D01*
X97038218Y-124222939D02*
X96962027Y-124261035D01*
X96962027Y-124261035D02*
X96923932Y-124337225D01*
X96923932Y-124337225D02*
X96923932Y-124413416D01*
X96923932Y-124413416D02*
X97304885Y-124489606D01*
X146875125Y-77843318D02*
X146417982Y-77843318D01*
X146646554Y-78643318D02*
X146646554Y-77843318D01*
X146151315Y-78224270D02*
X145884649Y-78224270D01*
X145770363Y-78643318D02*
X146151315Y-78643318D01*
X146151315Y-78643318D02*
X146151315Y-77843318D01*
X146151315Y-77843318D02*
X145770363Y-77843318D01*
X145427505Y-78643318D02*
X145427505Y-77843318D01*
X145427505Y-77843318D02*
X144970362Y-78643318D01*
X144970362Y-78643318D02*
X144970362Y-77843318D01*
X144703696Y-77843318D02*
X144246553Y-77843318D01*
X144475125Y-78643318D02*
X144475125Y-77843318D01*
X143979886Y-78643318D02*
X143979886Y-77843318D01*
X143598934Y-78643318D02*
X143598934Y-77843318D01*
X143598934Y-77843318D02*
X143141791Y-78643318D01*
X143141791Y-78643318D02*
X143141791Y-77843318D01*
X142341792Y-77881413D02*
X142417982Y-77843318D01*
X142417982Y-77843318D02*
X142532268Y-77843318D01*
X142532268Y-77843318D02*
X142646554Y-77881413D01*
X142646554Y-77881413D02*
X142722744Y-77957603D01*
X142722744Y-77957603D02*
X142760839Y-78033794D01*
X142760839Y-78033794D02*
X142798935Y-78186175D01*
X142798935Y-78186175D02*
X142798935Y-78300461D01*
X142798935Y-78300461D02*
X142760839Y-78452842D01*
X142760839Y-78452842D02*
X142722744Y-78529032D01*
X142722744Y-78529032D02*
X142646554Y-78605223D01*
X142646554Y-78605223D02*
X142532268Y-78643318D01*
X142532268Y-78643318D02*
X142456077Y-78643318D01*
X142456077Y-78643318D02*
X142341792Y-78605223D01*
X142341792Y-78605223D02*
X142303696Y-78567127D01*
X142303696Y-78567127D02*
X142303696Y-78300461D01*
X142303696Y-78300461D02*
X142456077Y-78300461D01*
X146760839Y-79931273D02*
X146760839Y-79131273D01*
X146760839Y-79131273D02*
X146456077Y-79131273D01*
X146456077Y-79131273D02*
X146379887Y-79169368D01*
X146379887Y-79169368D02*
X146341792Y-79207463D01*
X146341792Y-79207463D02*
X146303696Y-79283654D01*
X146303696Y-79283654D02*
X146303696Y-79397939D01*
X146303696Y-79397939D02*
X146341792Y-79474130D01*
X146341792Y-79474130D02*
X146379887Y-79512225D01*
X146379887Y-79512225D02*
X146456077Y-79550320D01*
X146456077Y-79550320D02*
X146760839Y-79550320D01*
X145960839Y-79131273D02*
X145960839Y-79778892D01*
X145960839Y-79778892D02*
X145922744Y-79855082D01*
X145922744Y-79855082D02*
X145884649Y-79893178D01*
X145884649Y-79893178D02*
X145808458Y-79931273D01*
X145808458Y-79931273D02*
X145656077Y-79931273D01*
X145656077Y-79931273D02*
X145579887Y-79893178D01*
X145579887Y-79893178D02*
X145541792Y-79855082D01*
X145541792Y-79855082D02*
X145503696Y-79778892D01*
X145503696Y-79778892D02*
X145503696Y-79131273D01*
X144665601Y-79855082D02*
X144703697Y-79893178D01*
X144703697Y-79893178D02*
X144817982Y-79931273D01*
X144817982Y-79931273D02*
X144894173Y-79931273D01*
X144894173Y-79931273D02*
X145008459Y-79893178D01*
X145008459Y-79893178D02*
X145084649Y-79816987D01*
X145084649Y-79816987D02*
X145122744Y-79740797D01*
X145122744Y-79740797D02*
X145160840Y-79588416D01*
X145160840Y-79588416D02*
X145160840Y-79474130D01*
X145160840Y-79474130D02*
X145122744Y-79321749D01*
X145122744Y-79321749D02*
X145084649Y-79245558D01*
X145084649Y-79245558D02*
X145008459Y-79169368D01*
X145008459Y-79169368D02*
X144894173Y-79131273D01*
X144894173Y-79131273D02*
X144817982Y-79131273D01*
X144817982Y-79131273D02*
X144703697Y-79169368D01*
X144703697Y-79169368D02*
X144665601Y-79207463D01*
X144322744Y-79931273D02*
X144322744Y-79131273D01*
X143865601Y-79931273D02*
X144208459Y-79474130D01*
X143865601Y-79131273D02*
X144322744Y-79588416D01*
X85454036Y-112993296D02*
X85339750Y-113031391D01*
X85339750Y-113031391D02*
X85301655Y-113069487D01*
X85301655Y-113069487D02*
X85263559Y-113145677D01*
X85263559Y-113145677D02*
X85263559Y-113259963D01*
X85263559Y-113259963D02*
X85301655Y-113336153D01*
X85301655Y-113336153D02*
X85339750Y-113374249D01*
X85339750Y-113374249D02*
X85415940Y-113412344D01*
X85415940Y-113412344D02*
X85720702Y-113412344D01*
X85720702Y-113412344D02*
X85720702Y-112612344D01*
X85720702Y-112612344D02*
X85454036Y-112612344D01*
X85454036Y-112612344D02*
X85377845Y-112650439D01*
X85377845Y-112650439D02*
X85339750Y-112688534D01*
X85339750Y-112688534D02*
X85301655Y-112764725D01*
X85301655Y-112764725D02*
X85301655Y-112840915D01*
X85301655Y-112840915D02*
X85339750Y-112917106D01*
X85339750Y-112917106D02*
X85377845Y-112955201D01*
X85377845Y-112955201D02*
X85454036Y-112993296D01*
X85454036Y-112993296D02*
X85720702Y-112993296D01*
X84958798Y-113183772D02*
X84577845Y-113183772D01*
X85034988Y-113412344D02*
X84768321Y-112612344D01*
X84768321Y-112612344D02*
X84501655Y-113412344D01*
X84349274Y-112612344D02*
X83892131Y-112612344D01*
X84120703Y-113412344D02*
X84120703Y-112612344D01*
X83739750Y-112612344D02*
X83282607Y-112612344D01*
X83511179Y-113412344D02*
X83511179Y-112612344D01*
X87888094Y-123042061D02*
X88154761Y-122661108D01*
X88345237Y-123042061D02*
X88345237Y-122242061D01*
X88345237Y-122242061D02*
X88040475Y-122242061D01*
X88040475Y-122242061D02*
X87964285Y-122280156D01*
X87964285Y-122280156D02*
X87926190Y-122318251D01*
X87926190Y-122318251D02*
X87888094Y-122394442D01*
X87888094Y-122394442D02*
X87888094Y-122508727D01*
X87888094Y-122508727D02*
X87926190Y-122584918D01*
X87926190Y-122584918D02*
X87964285Y-122623013D01*
X87964285Y-122623013D02*
X88040475Y-122661108D01*
X88040475Y-122661108D02*
X88345237Y-122661108D01*
X87583333Y-123003966D02*
X87469047Y-123042061D01*
X87469047Y-123042061D02*
X87278571Y-123042061D01*
X87278571Y-123042061D02*
X87202380Y-123003966D01*
X87202380Y-123003966D02*
X87164285Y-122965870D01*
X87164285Y-122965870D02*
X87126190Y-122889680D01*
X87126190Y-122889680D02*
X87126190Y-122813489D01*
X87126190Y-122813489D02*
X87164285Y-122737299D01*
X87164285Y-122737299D02*
X87202380Y-122699204D01*
X87202380Y-122699204D02*
X87278571Y-122661108D01*
X87278571Y-122661108D02*
X87430952Y-122623013D01*
X87430952Y-122623013D02*
X87507142Y-122584918D01*
X87507142Y-122584918D02*
X87545237Y-122546823D01*
X87545237Y-122546823D02*
X87583333Y-122470632D01*
X87583333Y-122470632D02*
X87583333Y-122394442D01*
X87583333Y-122394442D02*
X87545237Y-122318251D01*
X87545237Y-122318251D02*
X87507142Y-122280156D01*
X87507142Y-122280156D02*
X87430952Y-122242061D01*
X87430952Y-122242061D02*
X87240475Y-122242061D01*
X87240475Y-122242061D02*
X87126190Y-122280156D01*
X86897618Y-122242061D02*
X86440475Y-122242061D01*
X86669047Y-123042061D02*
X86669047Y-122242061D01*
X90270238Y-107393247D02*
X90155952Y-107431342D01*
X90155952Y-107431342D02*
X90117857Y-107469438D01*
X90117857Y-107469438D02*
X90079761Y-107545628D01*
X90079761Y-107545628D02*
X90079761Y-107659914D01*
X90079761Y-107659914D02*
X90117857Y-107736104D01*
X90117857Y-107736104D02*
X90155952Y-107774200D01*
X90155952Y-107774200D02*
X90232142Y-107812295D01*
X90232142Y-107812295D02*
X90536904Y-107812295D01*
X90536904Y-107812295D02*
X90536904Y-107012295D01*
X90536904Y-107012295D02*
X90270238Y-107012295D01*
X90270238Y-107012295D02*
X90194047Y-107050390D01*
X90194047Y-107050390D02*
X90155952Y-107088485D01*
X90155952Y-107088485D02*
X90117857Y-107164676D01*
X90117857Y-107164676D02*
X90117857Y-107240866D01*
X90117857Y-107240866D02*
X90155952Y-107317057D01*
X90155952Y-107317057D02*
X90194047Y-107355152D01*
X90194047Y-107355152D02*
X90270238Y-107393247D01*
X90270238Y-107393247D02*
X90536904Y-107393247D01*
X89775000Y-107583723D02*
X89394047Y-107583723D01*
X89851190Y-107812295D02*
X89584523Y-107012295D01*
X89584523Y-107012295D02*
X89317857Y-107812295D01*
X89165476Y-107012295D02*
X88708333Y-107012295D01*
X88936905Y-107812295D02*
X88936905Y-107012295D01*
X88555952Y-107012295D02*
X88098809Y-107012295D01*
X88327381Y-107812295D02*
X88327381Y-107012295D01*
X101690475Y-120593247D02*
X101423809Y-120593247D01*
X101309523Y-121012295D02*
X101690475Y-121012295D01*
X101690475Y-121012295D02*
X101690475Y-120212295D01*
X101690475Y-120212295D02*
X101309523Y-120212295D01*
X100966665Y-121012295D02*
X100966665Y-120212295D01*
X100966665Y-120212295D02*
X100509522Y-121012295D01*
X100509522Y-121012295D02*
X100509522Y-120212295D01*
X99671427Y-120936104D02*
X99709523Y-120974200D01*
X99709523Y-120974200D02*
X99823808Y-121012295D01*
X99823808Y-121012295D02*
X99899999Y-121012295D01*
X99899999Y-121012295D02*
X100014285Y-120974200D01*
X100014285Y-120974200D02*
X100090475Y-120898009D01*
X100090475Y-120898009D02*
X100128570Y-120821819D01*
X100128570Y-120821819D02*
X100166666Y-120669438D01*
X100166666Y-120669438D02*
X100166666Y-120555152D01*
X100166666Y-120555152D02*
X100128570Y-120402771D01*
X100128570Y-120402771D02*
X100090475Y-120326580D01*
X100090475Y-120326580D02*
X100014285Y-120250390D01*
X100014285Y-120250390D02*
X99899999Y-120212295D01*
X99899999Y-120212295D02*
X99823808Y-120212295D01*
X99823808Y-120212295D02*
X99709523Y-120250390D01*
X99709523Y-120250390D02*
X99671427Y-120288485D01*
X109911904Y-100462295D02*
X109759523Y-100462295D01*
X109759523Y-100462295D02*
X109683333Y-100500390D01*
X109683333Y-100500390D02*
X109607142Y-100576580D01*
X109607142Y-100576580D02*
X109569047Y-100728961D01*
X109569047Y-100728961D02*
X109569047Y-100995628D01*
X109569047Y-100995628D02*
X109607142Y-101148009D01*
X109607142Y-101148009D02*
X109683333Y-101224200D01*
X109683333Y-101224200D02*
X109759523Y-101262295D01*
X109759523Y-101262295D02*
X109911904Y-101262295D01*
X109911904Y-101262295D02*
X109988095Y-101224200D01*
X109988095Y-101224200D02*
X110064285Y-101148009D01*
X110064285Y-101148009D02*
X110102381Y-100995628D01*
X110102381Y-100995628D02*
X110102381Y-100728961D01*
X110102381Y-100728961D02*
X110064285Y-100576580D01*
X110064285Y-100576580D02*
X109988095Y-100500390D01*
X109988095Y-100500390D02*
X109911904Y-100462295D01*
X108845238Y-101262295D02*
X109226190Y-101262295D01*
X109226190Y-101262295D02*
X109226190Y-100462295D01*
X108578571Y-100843247D02*
X108311905Y-100843247D01*
X108197619Y-101262295D02*
X108578571Y-101262295D01*
X108578571Y-101262295D02*
X108578571Y-100462295D01*
X108578571Y-100462295D02*
X108197619Y-100462295D01*
X107854761Y-101262295D02*
X107854761Y-100462295D01*
X107854761Y-100462295D02*
X107664285Y-100462295D01*
X107664285Y-100462295D02*
X107549999Y-100500390D01*
X107549999Y-100500390D02*
X107473809Y-100576580D01*
X107473809Y-100576580D02*
X107435714Y-100652771D01*
X107435714Y-100652771D02*
X107397618Y-100805152D01*
X107397618Y-100805152D02*
X107397618Y-100919438D01*
X107397618Y-100919438D02*
X107435714Y-101071819D01*
X107435714Y-101071819D02*
X107473809Y-101148009D01*
X107473809Y-101148009D02*
X107549999Y-101224200D01*
X107549999Y-101224200D02*
X107664285Y-101262295D01*
X107664285Y-101262295D02*
X107854761Y-101262295D01*
X156984283Y-108261992D02*
X156869997Y-108300087D01*
X156869997Y-108300087D02*
X156831902Y-108338183D01*
X156831902Y-108338183D02*
X156793806Y-108414373D01*
X156793806Y-108414373D02*
X156793806Y-108528659D01*
X156793806Y-108528659D02*
X156831902Y-108604849D01*
X156831902Y-108604849D02*
X156869997Y-108642945D01*
X156869997Y-108642945D02*
X156946187Y-108681040D01*
X156946187Y-108681040D02*
X157250949Y-108681040D01*
X157250949Y-108681040D02*
X157250949Y-107881040D01*
X157250949Y-107881040D02*
X156984283Y-107881040D01*
X156984283Y-107881040D02*
X156908092Y-107919135D01*
X156908092Y-107919135D02*
X156869997Y-107957230D01*
X156869997Y-107957230D02*
X156831902Y-108033421D01*
X156831902Y-108033421D02*
X156831902Y-108109611D01*
X156831902Y-108109611D02*
X156869997Y-108185802D01*
X156869997Y-108185802D02*
X156908092Y-108223897D01*
X156908092Y-108223897D02*
X156984283Y-108261992D01*
X156984283Y-108261992D02*
X157250949Y-108261992D01*
X156450949Y-107881040D02*
X156450949Y-108528659D01*
X156450949Y-108528659D02*
X156412854Y-108604849D01*
X156412854Y-108604849D02*
X156374759Y-108642945D01*
X156374759Y-108642945D02*
X156298568Y-108681040D01*
X156298568Y-108681040D02*
X156146187Y-108681040D01*
X156146187Y-108681040D02*
X156069997Y-108642945D01*
X156069997Y-108642945D02*
X156031902Y-108604849D01*
X156031902Y-108604849D02*
X155993806Y-108528659D01*
X155993806Y-108528659D02*
X155993806Y-107881040D01*
X155689045Y-107881040D02*
X155155711Y-107881040D01*
X155155711Y-107881040D02*
X155689045Y-108681040D01*
X155689045Y-108681040D02*
X155155711Y-108681040D01*
X154927140Y-107881040D02*
X154393806Y-107881040D01*
X154393806Y-107881040D02*
X154927140Y-108681040D01*
X154927140Y-108681040D02*
X154393806Y-108681040D01*
X154089044Y-108261992D02*
X153822378Y-108261992D01*
X153708092Y-108681040D02*
X154089044Y-108681040D01*
X154089044Y-108681040D02*
X154089044Y-107881040D01*
X154089044Y-107881040D02*
X153708092Y-107881040D01*
X152908091Y-108681040D02*
X153174758Y-108300087D01*
X153365234Y-108681040D02*
X153365234Y-107881040D01*
X153365234Y-107881040D02*
X153060472Y-107881040D01*
X153060472Y-107881040D02*
X152984282Y-107919135D01*
X152984282Y-107919135D02*
X152946187Y-107957230D01*
X152946187Y-107957230D02*
X152908091Y-108033421D01*
X152908091Y-108033421D02*
X152908091Y-108147706D01*
X152908091Y-108147706D02*
X152946187Y-108223897D01*
X152946187Y-108223897D02*
X152984282Y-108261992D01*
X152984282Y-108261992D02*
X153060472Y-108300087D01*
X153060472Y-108300087D02*
X153365234Y-108300087D01*
D14*
X108878006Y-124764838D02*
X108878006Y-122764838D01*
X108306578Y-124764838D02*
X108735149Y-123621980D01*
X108306578Y-122764838D02*
X108878006Y-123907695D01*
X107401816Y-124764838D02*
X107878006Y-124764838D01*
X107878006Y-124764838D02*
X107878006Y-122764838D01*
X107116101Y-124193409D02*
X106639911Y-124193409D01*
X107211339Y-124764838D02*
X106878006Y-122764838D01*
X106878006Y-122764838D02*
X106544673Y-124764838D01*
X106306577Y-122764838D02*
X106068482Y-124764838D01*
X106068482Y-124764838D02*
X105878006Y-123336266D01*
X105878006Y-123336266D02*
X105687530Y-124764838D01*
X105687530Y-124764838D02*
X105449435Y-122764838D01*
D11*
X94984523Y-122812295D02*
X94527380Y-122812295D01*
X94755952Y-123612295D02*
X94755952Y-122812295D01*
X93803570Y-123612295D02*
X94070237Y-123231342D01*
X94260713Y-123612295D02*
X94260713Y-122812295D01*
X94260713Y-122812295D02*
X93955951Y-122812295D01*
X93955951Y-122812295D02*
X93879761Y-122850390D01*
X93879761Y-122850390D02*
X93841666Y-122888485D01*
X93841666Y-122888485D02*
X93803570Y-122964676D01*
X93803570Y-122964676D02*
X93803570Y-123078961D01*
X93803570Y-123078961D02*
X93841666Y-123155152D01*
X93841666Y-123155152D02*
X93879761Y-123193247D01*
X93879761Y-123193247D02*
X93955951Y-123231342D01*
X93955951Y-123231342D02*
X94260713Y-123231342D01*
X93003570Y-123612295D02*
X93270237Y-123231342D01*
X93460713Y-123612295D02*
X93460713Y-122812295D01*
X93460713Y-122812295D02*
X93155951Y-122812295D01*
X93155951Y-122812295D02*
X93079761Y-122850390D01*
X93079761Y-122850390D02*
X93041666Y-122888485D01*
X93041666Y-122888485D02*
X93003570Y-122964676D01*
X93003570Y-122964676D02*
X93003570Y-123078961D01*
X93003570Y-123078961D02*
X93041666Y-123155152D01*
X93041666Y-123155152D02*
X93079761Y-123193247D01*
X93079761Y-123193247D02*
X93155951Y-123231342D01*
X93155951Y-123231342D02*
X93460713Y-123231342D01*
X92698809Y-123574200D02*
X92584523Y-123612295D01*
X92584523Y-123612295D02*
X92394047Y-123612295D01*
X92394047Y-123612295D02*
X92317856Y-123574200D01*
X92317856Y-123574200D02*
X92279761Y-123536104D01*
X92279761Y-123536104D02*
X92241666Y-123459914D01*
X92241666Y-123459914D02*
X92241666Y-123383723D01*
X92241666Y-123383723D02*
X92279761Y-123307533D01*
X92279761Y-123307533D02*
X92317856Y-123269438D01*
X92317856Y-123269438D02*
X92394047Y-123231342D01*
X92394047Y-123231342D02*
X92546428Y-123193247D01*
X92546428Y-123193247D02*
X92622618Y-123155152D01*
X92622618Y-123155152D02*
X92660713Y-123117057D01*
X92660713Y-123117057D02*
X92698809Y-123040866D01*
X92698809Y-123040866D02*
X92698809Y-122964676D01*
X92698809Y-122964676D02*
X92660713Y-122888485D01*
X92660713Y-122888485D02*
X92622618Y-122850390D01*
X92622618Y-122850390D02*
X92546428Y-122812295D01*
X92546428Y-122812295D02*
X92355951Y-122812295D01*
X92355951Y-122812295D02*
X92241666Y-122850390D01*
%TO.C,SW4*%
D13*
X175833841Y-76289925D02*
X184213380Y-76875879D01*
X175858255Y-75940778D02*
X175833841Y-76289925D01*
X176015206Y-73696258D02*
X176214720Y-73710210D01*
X176057768Y-75954729D02*
X175858255Y-75940778D01*
X176084964Y-72698694D02*
X176015206Y-73696258D01*
X176234672Y-73711605D02*
X176077719Y-75956124D01*
X181072784Y-73047477D02*
X176084964Y-72698694D01*
D15*
X182522340Y-66231990D02*
X182623486Y-64785523D01*
X182623486Y-64785523D02*
X184668493Y-64928523D01*
X184567346Y-66374991D02*
X182522340Y-66231990D01*
X184668493Y-64928523D02*
X184567346Y-66374991D01*
D13*
X186281117Y-74113388D02*
X186437372Y-71878845D01*
X186440800Y-75126996D02*
X186510557Y-74129432D01*
X186467299Y-71880937D02*
X186666811Y-71894889D01*
X186510557Y-74129432D02*
X186311044Y-74115481D01*
X186691924Y-71535766D02*
X183419914Y-71306964D01*
X186691924Y-71535766D02*
X186666811Y-71894889D01*
X183414743Y-71328126D02*
G75*
G02*
X181072784Y-73047477I-2125745J440828D01*
G01*
X186440801Y-75126995D02*
G75*
G02*
X184213380Y-76875881I-1988152J239266D01*
G01*
%TO.C,D10*%
D11*
X193133423Y-110917974D02*
X194141304Y-110384892D01*
X193254977Y-110228607D02*
X193011869Y-111607339D01*
X193898196Y-111763623D02*
X193133423Y-110917974D01*
X194141304Y-110384892D02*
X193898196Y-111763623D01*
%TO.C,D7*%
X136497000Y-95497000D02*
X136497000Y-96897000D01*
X136497000Y-96197000D02*
X137397000Y-95497000D01*
X137397000Y-95497000D02*
X137397000Y-96897000D01*
X137397000Y-96897000D02*
X136497000Y-96197000D01*
%TO.C,D15*%
X174097077Y-116283708D02*
X175043714Y-115648194D01*
X174145907Y-115585413D02*
X174048247Y-116982003D01*
X174946055Y-117044783D02*
X174097077Y-116283708D01*
X175043714Y-115648194D02*
X174946055Y-117044783D01*
%TO.C,SW21*%
D13*
X118230352Y-135667286D02*
X118489171Y-136633212D01*
X118489171Y-136633212D02*
X118682357Y-136581448D01*
X118701675Y-136576272D02*
X119284018Y-138749605D01*
X119071514Y-138806545D02*
X119162101Y-139144619D01*
X119162101Y-139144619D02*
X127275879Y-136970539D01*
X119264699Y-138754781D02*
X119071514Y-138806545D01*
D15*
X121836370Y-126056500D02*
X123816518Y-125525921D01*
X122211658Y-127457093D02*
X121836370Y-126056500D01*
D13*
X123059981Y-134373191D02*
X118230352Y-135667286D01*
D15*
X123816518Y-125525921D02*
X124191806Y-126926514D01*
X124191806Y-126926514D02*
X122211658Y-127457093D01*
D13*
X127780807Y-131513924D02*
X127973992Y-131462160D01*
X127880817Y-131114427D02*
X124712581Y-131963354D01*
X127880817Y-131114427D02*
X127973992Y-131462160D01*
X128331584Y-133685363D02*
X127751829Y-131521689D01*
X128553747Y-133625834D02*
X128360562Y-133677598D01*
X128812566Y-134591760D02*
X128553747Y-133625834D01*
X124714581Y-131985046D02*
G75*
G02*
X123059981Y-134373190I-2153450J-275263D01*
G01*
X128812566Y-134591759D02*
G75*
G02*
X127275879Y-136970540I-1957732J-421048D01*
G01*
%TO.C,SW8*%
X154511399Y-81675260D02*
X154511399Y-82675260D01*
X154511399Y-82675260D02*
X154711399Y-82675260D01*
X154511399Y-84925260D02*
X154511399Y-85275260D01*
X154511399Y-85275260D02*
X162911400Y-85275260D01*
X154711399Y-84925260D02*
X154511399Y-84925260D01*
X154731399Y-82675260D02*
X154731399Y-84925260D01*
X159511399Y-81675260D02*
X154511399Y-81675260D01*
D15*
X160481999Y-73325260D02*
X162531999Y-73325260D01*
X160481999Y-74775260D02*
X160481999Y-73325260D01*
X162531999Y-73325260D02*
X162531999Y-74775260D01*
X162531999Y-74775260D02*
X160481999Y-74775260D01*
D13*
X164781399Y-82375260D02*
X164781399Y-80135260D01*
X164811399Y-80135260D02*
X165011399Y-80135260D01*
X165011399Y-79775260D02*
X161731399Y-79775260D01*
X165011399Y-79775260D02*
X165011399Y-80135260D01*
X165011399Y-82375260D02*
X164811399Y-82375260D01*
X165011399Y-83375260D02*
X165011399Y-82375260D01*
X161727717Y-79796731D02*
G75*
G02*
X159511399Y-81675260I-2151317J291470D01*
G01*
X165011399Y-83375259D02*
G75*
G02*
X162911400Y-85275261I-1999999J99997D01*
G01*
%TO.C,D21*%
D11*
X128530380Y-125788544D02*
X128973590Y-124738037D01*
X128973590Y-124738037D02*
X129882676Y-125426197D01*
X129649739Y-124556864D02*
X128297442Y-124919209D01*
X129882676Y-125426197D02*
X128530380Y-125788544D01*
%TO.C,BZ1*%
D16*
X153291506Y-108797549D02*
X153291506Y-112047549D01*
X153291506Y-114747549D02*
X153291506Y-117997549D01*
X153291506Y-117997549D02*
X164491506Y-117997549D01*
X164491506Y-108797549D02*
X153291506Y-108797549D01*
X164491506Y-112047549D02*
X164491506Y-108797549D01*
X164491506Y-117997549D02*
X164491506Y-114747549D01*
%TO.C,SW15*%
D13*
X173172967Y-114342197D02*
X181552506Y-114928151D01*
X173197381Y-113993050D02*
X173172967Y-114342197D01*
X173354332Y-111748530D02*
X173553846Y-111762482D01*
X173396894Y-114007001D02*
X173197381Y-113993050D01*
X173424090Y-110750966D02*
X173354332Y-111748530D01*
X173573798Y-111763877D02*
X173416845Y-114008396D01*
X178411910Y-111099749D02*
X173424090Y-110750966D01*
D15*
X179861466Y-104284262D02*
X179962612Y-102837795D01*
X179962612Y-102837795D02*
X182007619Y-102980795D01*
X181906472Y-104427263D02*
X179861466Y-104284262D01*
X182007619Y-102980795D02*
X181906472Y-104427263D01*
D13*
X183620243Y-112165660D02*
X183776498Y-109931117D01*
X183779926Y-113179268D02*
X183849683Y-112181704D01*
X183806425Y-109933209D02*
X184005937Y-109947161D01*
X183849683Y-112181704D02*
X183650170Y-112167753D01*
X184031050Y-109588038D02*
X180759040Y-109359236D01*
X184031050Y-109588038D02*
X184005937Y-109947161D01*
X180753869Y-109380398D02*
G75*
G02*
X178411910Y-111099749I-2125745J440828D01*
G01*
X183779927Y-113179267D02*
G75*
G02*
X181552506Y-114928153I-1988152J239266D01*
G01*
%TO.C,SW6*%
X116467969Y-93675260D02*
X116467969Y-94675260D01*
X116467969Y-94675260D02*
X116667969Y-94675260D01*
X116467969Y-96925260D02*
X116467969Y-97275260D01*
X116467969Y-97275260D02*
X124867970Y-97275260D01*
X116667969Y-96925260D02*
X116467969Y-96925260D01*
X116687969Y-94675260D02*
X116687969Y-96925260D01*
X121467969Y-93675260D02*
X116467969Y-93675260D01*
D15*
X122438569Y-85325260D02*
X124488569Y-85325260D01*
X122438569Y-86775260D02*
X122438569Y-85325260D01*
X124488569Y-85325260D02*
X124488569Y-86775260D01*
X124488569Y-86775260D02*
X122438569Y-86775260D01*
D13*
X126737969Y-94375260D02*
X126737969Y-92135260D01*
X126767969Y-92135260D02*
X126967969Y-92135260D01*
X126967969Y-91775260D02*
X123687969Y-91775260D01*
X126967969Y-91775260D02*
X126967969Y-92135260D01*
X126967969Y-94375260D02*
X126767969Y-94375260D01*
X126967969Y-95375260D02*
X126967969Y-94375260D01*
X123684287Y-91796731D02*
G75*
G02*
X121467969Y-93675260I-2151317J291470D01*
G01*
X126967969Y-95375259D02*
G75*
G02*
X124867970Y-97275261I-1999999J99997D01*
G01*
%TO.C,D14*%
D11*
X154500000Y-105600000D02*
X154500000Y-107000000D01*
X154500000Y-106300000D02*
X155400000Y-105600000D01*
X155400000Y-105600000D02*
X155400000Y-107000000D01*
X155400000Y-107000000D02*
X154500000Y-106300000D01*
%TO.C,SW18*%
D16*
X89490000Y-108050000D02*
X89490000Y-119850000D01*
X93590000Y-108050000D02*
X89490000Y-108050000D01*
X93590000Y-119850000D02*
X89490000Y-119850000D01*
X95090000Y-113950000D02*
X96090000Y-113950000D01*
X95590000Y-113450000D02*
X95590000Y-114450000D01*
X97590000Y-108050000D02*
X101690000Y-108050000D01*
X101690000Y-108050000D02*
X101690000Y-110450000D01*
X101690000Y-112650000D02*
X101690000Y-115250000D01*
X101690000Y-117450000D02*
X101690000Y-119850000D01*
X101690000Y-119850000D02*
X97590000Y-119850000D01*
X98590000Y-113950000D02*
G75*
G02*
X92590000Y-113950000I-3000000J0D01*
G01*
X92590000Y-113950000D02*
G75*
G02*
X98590000Y-113950000I3000000J0D01*
G01*
%TO.C,OLED1*%
X91429110Y-97255000D02*
X101429110Y-97255000D01*
X101429110Y-99655000D01*
X91429110Y-99655000D01*
X91429110Y-97255000D01*
X83179110Y-80255000D02*
X109579110Y-80255000D01*
X109579110Y-96855000D01*
X83179110Y-96855000D01*
X83179110Y-80255000D01*
X82729110Y-72855000D02*
X110129110Y-72855000D01*
X110129110Y-100155000D01*
X82729110Y-100155000D01*
X82729110Y-72855000D01*
%TO.C,J1*%
D11*
X82775000Y-125850000D02*
X94775000Y-125850000D01*
X82775000Y-131850000D02*
X82775000Y-125850000D01*
X94775000Y-125850000D02*
X94775000Y-131850000D01*
X94775000Y-131850000D02*
X82775000Y-131850000D01*
%TO.C,D6*%
X116500000Y-98500000D02*
X116500000Y-99900000D01*
X116500000Y-99200000D02*
X117400000Y-98500000D01*
X117400000Y-98500000D02*
X117400000Y-99900000D01*
X117400000Y-99900000D02*
X116500000Y-99200000D01*
%TO.C,SW12*%
D13*
X116467969Y-112747857D02*
X116467969Y-113747857D01*
X116467969Y-113747857D02*
X116667969Y-113747857D01*
X116467969Y-115997857D02*
X116467969Y-116347857D01*
X116467969Y-116347857D02*
X124867970Y-116347857D01*
X116667969Y-115997857D02*
X116467969Y-115997857D01*
X116687969Y-113747857D02*
X116687969Y-115997857D01*
X121467969Y-112747857D02*
X116467969Y-112747857D01*
D15*
X122438569Y-104397857D02*
X124488569Y-104397857D01*
X122438569Y-105847857D02*
X122438569Y-104397857D01*
X124488569Y-104397857D02*
X124488569Y-105847857D01*
X124488569Y-105847857D02*
X122438569Y-105847857D01*
D13*
X126737969Y-113447857D02*
X126737969Y-111207857D01*
X126767969Y-111207857D02*
X126967969Y-111207857D01*
X126967969Y-110847857D02*
X123687969Y-110847857D01*
X126967969Y-110847857D02*
X126967969Y-111207857D01*
X126967969Y-113447857D02*
X126767969Y-113447857D01*
X126967969Y-114447857D02*
X126967969Y-113447857D01*
X123684287Y-110869328D02*
G75*
G02*
X121467969Y-112747857I-2151317J291470D01*
G01*
X126967969Y-114447856D02*
G75*
G02*
X124867970Y-116347858I-1999999J99997D01*
G01*
%TO.C,D5*%
D11*
X196433423Y-92117974D02*
X197441304Y-91584892D01*
X196554977Y-91428607D02*
X196311869Y-92807339D01*
X197198196Y-92963623D02*
X196433423Y-92117974D01*
X197441304Y-91584892D02*
X197198196Y-92963623D01*
%TO.C,D20*%
X107115782Y-132596167D02*
X107272000Y-131466744D01*
X107272000Y-131466744D02*
X108328218Y-131896167D01*
X107878218Y-131116744D02*
X106665782Y-131816744D01*
X108328218Y-131896167D02*
X107115782Y-132596167D01*
%TO.C,SW1*%
D13*
X116467969Y-74602664D02*
X116467969Y-75602664D01*
X116467969Y-75602664D02*
X116667969Y-75602664D01*
X116467969Y-77852664D02*
X116467969Y-78202664D01*
X116467969Y-78202664D02*
X124867970Y-78202664D01*
X116667969Y-77852664D02*
X116467969Y-77852664D01*
X116687969Y-75602664D02*
X116687969Y-77852664D01*
X121467969Y-74602664D02*
X116467969Y-74602664D01*
D15*
X122438569Y-66252664D02*
X124488569Y-66252664D01*
X122438569Y-67702664D02*
X122438569Y-66252664D01*
X124488569Y-66252664D02*
X124488569Y-67702664D01*
X124488569Y-67702664D02*
X122438569Y-67702664D01*
D13*
X126737969Y-75302664D02*
X126737969Y-73062664D01*
X126767969Y-73062664D02*
X126967969Y-73062664D01*
X126967969Y-72702664D02*
X123687969Y-72702664D01*
X126967969Y-72702664D02*
X126967969Y-73062664D01*
X126967969Y-75302664D02*
X126767969Y-75302664D01*
X126967969Y-76302664D02*
X126967969Y-75302664D01*
X123684287Y-72724135D02*
G75*
G02*
X121467969Y-74602664I-2151317J291470D01*
G01*
X126967969Y-76302663D02*
G75*
G02*
X124867970Y-78202665I-1999999J99997D01*
G01*
%TO.C,BT1*%
D16*
X82815000Y-100732660D02*
X90635000Y-100732660D01*
X82815000Y-101652660D02*
X82815000Y-100732660D01*
X82815000Y-105932660D02*
X84415000Y-105932660D01*
X82815000Y-106852660D02*
X82815000Y-105932660D01*
X84415000Y-100732660D02*
X84415000Y-101652660D01*
X84415000Y-101652660D02*
X82815000Y-101652660D01*
X84415000Y-101932660D02*
X83200000Y-101932660D01*
X84415000Y-101932660D02*
X84415000Y-101652660D01*
X84415000Y-105932660D02*
X84415000Y-105652660D01*
X84415000Y-106852660D02*
X84415000Y-105932660D01*
X86275000Y-103292660D02*
X86275000Y-104292660D01*
X86275000Y-104292660D02*
X90635000Y-104292660D01*
X86775000Y-101492660D02*
X88375000Y-101492660D01*
X86775000Y-102492660D02*
X86775000Y-101492660D01*
X86775000Y-105092660D02*
X86775000Y-106092660D01*
X86775000Y-106092660D02*
X88375000Y-106092660D01*
X88375000Y-101492660D02*
X88375000Y-102492660D01*
X88375000Y-101992660D02*
X90635000Y-101992660D01*
X88375000Y-102492660D02*
X86775000Y-102492660D01*
X88375000Y-102492660D02*
X90635000Y-102492660D01*
X88375000Y-105092660D02*
X86775000Y-105092660D01*
X88375000Y-106092660D02*
X88375000Y-105092660D01*
X90635000Y-100732660D02*
X90635000Y-106852660D01*
X90635000Y-103292660D02*
X86275000Y-103292660D01*
X90635000Y-106852660D02*
X82815000Y-106852660D01*
%TO.C,SW9*%
D13*
X174503404Y-95316060D02*
X182882943Y-95902014D01*
X174527818Y-94966913D02*
X174503404Y-95316060D01*
X174684769Y-92722393D02*
X174884283Y-92736345D01*
X174727331Y-94980864D02*
X174527818Y-94966913D01*
X174754527Y-91724829D02*
X174684769Y-92722393D01*
X174904235Y-92737740D02*
X174747282Y-94982259D01*
X179742347Y-92073612D02*
X174754527Y-91724829D01*
D15*
X181191903Y-85258125D02*
X181293049Y-83811658D01*
X181293049Y-83811658D02*
X183338056Y-83954658D01*
X183236909Y-85401126D02*
X181191903Y-85258125D01*
X183338056Y-83954658D02*
X183236909Y-85401126D01*
D13*
X184950680Y-93139523D02*
X185106935Y-90904980D01*
X185110363Y-94153131D02*
X185180120Y-93155567D01*
X185136862Y-90907072D02*
X185336374Y-90921024D01*
X185180120Y-93155567D02*
X184980607Y-93141616D01*
X185361487Y-90561901D02*
X182089477Y-90333099D01*
X185361487Y-90561901D02*
X185336374Y-90921024D01*
X182084306Y-90354261D02*
G75*
G02*
X179742347Y-92073612I-2125745J440828D01*
G01*
X185110364Y-94153130D02*
G75*
G02*
X182882943Y-95902016I-1988152J239266D01*
G01*
%TO.C,RSW1*%
D16*
X83100000Y-121254766D02*
X83100000Y-119254766D01*
X85900000Y-117854766D02*
X84900000Y-117854766D01*
X85900000Y-118454766D02*
X85900000Y-117854766D01*
X85900000Y-122054766D02*
X85900000Y-122654766D01*
X85900000Y-122654766D02*
X84900000Y-122654766D01*
%TO.C,D2*%
D11*
X135500000Y-76400000D02*
X135500000Y-77800000D01*
X135500000Y-77100000D02*
X136400000Y-76400000D01*
X136400000Y-76400000D02*
X136400000Y-77800000D01*
X136400000Y-77800000D02*
X135500000Y-77100000D01*
%TO.C,D3*%
X154600000Y-67400000D02*
X154600000Y-68800000D01*
X154600000Y-68100000D02*
X155500000Y-67400000D01*
X155500000Y-67400000D02*
X155500000Y-68800000D01*
X155500000Y-68800000D02*
X154600000Y-68100000D01*
%TO.C,D8*%
X154579000Y-86485000D02*
X154579000Y-87885000D01*
X154579000Y-87185000D02*
X155479000Y-86485000D01*
X155479000Y-86485000D02*
X155479000Y-87885000D01*
X155479000Y-87885000D02*
X154579000Y-87185000D01*
%TO.C,D16*%
X189807596Y-129613176D02*
X190815477Y-129080094D01*
X189929150Y-128923809D02*
X189686042Y-130302541D01*
X190572369Y-130458825D02*
X189807596Y-129613176D01*
X190815477Y-129080094D02*
X190572369Y-130458825D01*
%TO.C,D18*%
X100380000Y-106260000D02*
X100380000Y-107660000D01*
X100380000Y-106960000D02*
X101280000Y-106260000D01*
X101280000Y-106260000D02*
X101280000Y-107660000D01*
X101280000Y-107660000D02*
X100380000Y-106960000D01*
%TO.C,SW3*%
D13*
X154511399Y-62602664D02*
X154511399Y-63602664D01*
X154511399Y-63602664D02*
X154711399Y-63602664D01*
X154511399Y-65852664D02*
X154511399Y-66202664D01*
X154511399Y-66202664D02*
X162911400Y-66202664D01*
X154711399Y-65852664D02*
X154511399Y-65852664D01*
X154731399Y-63602664D02*
X154731399Y-65852664D01*
X159511399Y-62602664D02*
X154511399Y-62602664D01*
D15*
X160481999Y-54252664D02*
X162531999Y-54252664D01*
X160481999Y-55702664D02*
X160481999Y-54252664D01*
X162531999Y-54252664D02*
X162531999Y-55702664D01*
X162531999Y-55702664D02*
X160481999Y-55702664D01*
D13*
X164781399Y-63302664D02*
X164781399Y-61062664D01*
X164811399Y-61062664D02*
X165011399Y-61062664D01*
X165011399Y-60702664D02*
X161731399Y-60702664D01*
X165011399Y-60702664D02*
X165011399Y-61062664D01*
X165011399Y-63302664D02*
X164811399Y-63302664D01*
X165011399Y-64302664D02*
X165011399Y-63302664D01*
X161727717Y-60724135D02*
G75*
G02*
X159511399Y-62602664I-2151317J291470D01*
G01*
X165011399Y-64302663D02*
G75*
G02*
X162911400Y-66202665I-1999999J99997D01*
G01*
%TO.C,REF\u002A\u002A*%
D14*
X129828479Y-93281304D02*
G75*
G02*
X130862344Y-89130759I20320000J-2857500D01*
G01*
X130862344Y-103146849D02*
G75*
G02*
X129828479Y-98996304I19286154J7008051D01*
G01*
X143140433Y-76852669D02*
G75*
G02*
X147290979Y-75818804I7008046J-19286135D01*
G01*
X153005979Y-75818804D02*
G75*
G02*
X157156523Y-76852668I-2857530J-20320120D01*
G01*
X169434614Y-89130758D02*
G75*
G02*
X170468479Y-93281304I-19286135J-7008046D01*
G01*
X170468479Y-98996304D02*
G75*
G02*
X169434613Y-103146853I-20320000J2857500D01*
G01*
%TO.C,SW20*%
D13*
X99763437Y-144729812D02*
X100263437Y-145595838D01*
X100263437Y-145595838D02*
X100436642Y-145495838D01*
X100453963Y-145485838D02*
X101578963Y-147434395D01*
D15*
X100759128Y-134513200D02*
X102534480Y-133488200D01*
D13*
X101388437Y-147544395D02*
X101563437Y-147847504D01*
D15*
X101484128Y-135768937D02*
X100759128Y-134513200D01*
D13*
X101561642Y-147444395D02*
X101388437Y-147544395D01*
X101563437Y-147847504D02*
X108838051Y-143647503D01*
D15*
X102534480Y-133488200D02*
X103259480Y-134743937D01*
X103259480Y-134743937D02*
X101484128Y-135768937D01*
D13*
X104093564Y-142229812D02*
X99763437Y-144729812D01*
X107906704Y-137834364D02*
X105066141Y-139474364D01*
X107906704Y-137834364D02*
X108086704Y-138146133D01*
X107913499Y-138246133D02*
X108086704Y-138146133D01*
X109007518Y-140201030D02*
X107887518Y-138261133D01*
X109206704Y-140086030D02*
X109033499Y-140186030D01*
X109706704Y-140952055D02*
X109206704Y-140086030D01*
X105073687Y-139494799D02*
G75*
G02*
X104093564Y-142229811I-2008830J-823238D01*
G01*
X109706703Y-140952055D02*
G75*
G02*
X108838051Y-143647503I-1782047J-913399D01*
G01*
%TO.C,SW16*%
X190403949Y-127791347D02*
X198676334Y-129249990D01*
X190464726Y-127446663D02*
X190403949Y-127791347D01*
X190661688Y-127481391D02*
X190464726Y-127446663D01*
X190855435Y-125230845D02*
X191052396Y-125265575D01*
X191029083Y-124246038D02*
X190855435Y-125230845D01*
X191072092Y-125269048D02*
X190681384Y-127484865D01*
X195953123Y-125114279D02*
X191029083Y-124246038D01*
D15*
X198107148Y-118487648D02*
X198358938Y-117059677D01*
X198358938Y-117059677D02*
X200377794Y-117415655D01*
X200126004Y-118843627D02*
X198107148Y-118487648D01*
X200377794Y-117415655D02*
X200126004Y-118843627D01*
D13*
X201021505Y-126718770D02*
X201410477Y-124512800D01*
X201074362Y-127743517D02*
X201248010Y-126758709D01*
X201248010Y-126758709D02*
X201051049Y-126723979D01*
X201440021Y-124518010D02*
X201636982Y-124552740D01*
X201699496Y-124198209D02*
X198469326Y-123628643D01*
X201699496Y-124198209D02*
X201636982Y-124552740D01*
X198461972Y-123649148D02*
G75*
G02*
X195953123Y-125114279I-2068021J660614D01*
G01*
X201074362Y-127743516D02*
G75*
G02*
X198676334Y-129249990I-1952250J445775D01*
G01*
%TO.C,D9*%
D11*
X174566582Y-97269404D02*
X175513219Y-96633890D01*
X174615412Y-96571109D02*
X174517752Y-97967699D01*
X175415560Y-98030479D02*
X174566582Y-97269404D01*
X175513219Y-96633890D02*
X175415560Y-98030479D01*
%TO.C,SW13*%
D13*
X135461399Y-109747857D02*
X135461399Y-110747857D01*
X135461399Y-110747857D02*
X135661399Y-110747857D01*
X135461399Y-112997857D02*
X135461399Y-113347857D01*
X135461399Y-113347857D02*
X143861400Y-113347857D01*
X135661399Y-112997857D02*
X135461399Y-112997857D01*
X135681399Y-110747857D02*
X135681399Y-112997857D01*
X140461399Y-109747857D02*
X135461399Y-109747857D01*
D15*
X141431999Y-101397857D02*
X143481999Y-101397857D01*
X141431999Y-102847857D02*
X141431999Y-101397857D01*
X143481999Y-101397857D02*
X143481999Y-102847857D01*
X143481999Y-102847857D02*
X141431999Y-102847857D01*
D13*
X145731399Y-110447857D02*
X145731399Y-108207857D01*
X145761399Y-108207857D02*
X145961399Y-108207857D01*
X145961399Y-107847857D02*
X142681399Y-107847857D01*
X145961399Y-107847857D02*
X145961399Y-108207857D01*
X145961399Y-110447857D02*
X145761399Y-110447857D01*
X145961399Y-111447857D02*
X145961399Y-110447857D01*
X142677717Y-107869328D02*
G75*
G02*
X140461399Y-109747857I-2151317J291470D01*
G01*
X145961399Y-111447856D02*
G75*
G02*
X143861400Y-113347858I-1999999J99997D01*
G01*
%TO.C,SW7*%
X135461399Y-90675260D02*
X135461399Y-91675260D01*
X135461399Y-91675260D02*
X135661399Y-91675260D01*
X135461399Y-93925260D02*
X135461399Y-94275260D01*
X135461399Y-94275260D02*
X143861400Y-94275260D01*
X135661399Y-93925260D02*
X135461399Y-93925260D01*
X135681399Y-91675260D02*
X135681399Y-93925260D01*
X140461399Y-90675260D02*
X135461399Y-90675260D01*
D15*
X141431999Y-82325260D02*
X143481999Y-82325260D01*
X141431999Y-83775260D02*
X141431999Y-82325260D01*
X143481999Y-82325260D02*
X143481999Y-83775260D01*
X143481999Y-83775260D02*
X141431999Y-83775260D01*
D13*
X145731399Y-91375260D02*
X145731399Y-89135260D01*
X145761399Y-89135260D02*
X145961399Y-89135260D01*
X145961399Y-88775260D02*
X142681399Y-88775260D01*
X145961399Y-88775260D02*
X145961399Y-89135260D01*
X145961399Y-91375260D02*
X145761399Y-91375260D01*
X145961399Y-92375260D02*
X145961399Y-91375260D01*
X142677717Y-88796731D02*
G75*
G02*
X140461399Y-90675260I-2151317J291470D01*
G01*
X145961399Y-92375259D02*
G75*
G02*
X143861400Y-94275261I-1999999J99997D01*
G01*
%TO.C,D4*%
D11*
X175497077Y-78183708D02*
X176443714Y-77548194D01*
X175545907Y-77485413D02*
X175448247Y-78882003D01*
X176346055Y-78944783D02*
X175497077Y-78183708D01*
X176443714Y-77548194D02*
X176346055Y-78944783D01*
%TO.C,D13*%
X147500000Y-102800000D02*
X148900000Y-102800000D01*
X147500000Y-103700000D02*
X148900000Y-103700000D01*
X148200000Y-103700000D02*
X147500000Y-102800000D01*
X148900000Y-102800000D02*
X148200000Y-103700000D01*
%TO.C,SW5*%
D13*
X197027793Y-90225666D02*
X205300178Y-91684309D01*
X197088570Y-89880982D02*
X197027793Y-90225666D01*
X197285532Y-89915710D02*
X197088570Y-89880982D01*
X197479279Y-87665164D02*
X197676240Y-87699894D01*
X197652927Y-86680357D02*
X197479279Y-87665164D01*
X197695936Y-87703367D02*
X197305228Y-89919184D01*
X202576967Y-87548598D02*
X197652927Y-86680357D01*
D15*
X204730992Y-80921967D02*
X204982782Y-79493996D01*
X204982782Y-79493996D02*
X207001638Y-79849974D01*
X206749848Y-81277946D02*
X204730992Y-80921967D01*
X207001638Y-79849974D02*
X206749848Y-81277946D01*
D13*
X207645349Y-89153089D02*
X208034321Y-86947119D01*
X207698206Y-90177836D02*
X207871854Y-89193028D01*
X207871854Y-89193028D02*
X207674893Y-89158298D01*
X208063865Y-86952329D02*
X208260826Y-86987059D01*
X208323340Y-86632528D02*
X205093170Y-86062962D01*
X208323340Y-86632528D02*
X208260826Y-86987059D01*
X205085816Y-86083467D02*
G75*
G02*
X202576967Y-87548598I-2068021J660614D01*
G01*
X207698206Y-90177835D02*
G75*
G02*
X205300178Y-91684309I-1952250J445775D01*
G01*
%TO.C,D1*%
D11*
X116500000Y-79400000D02*
X116500000Y-80800000D01*
X116500000Y-80100000D02*
X117400000Y-79400000D01*
X117400000Y-79400000D02*
X117400000Y-80800000D01*
X117400000Y-80800000D02*
X116500000Y-80100000D01*
%TO.C,PSW1*%
X82695000Y-71774255D02*
X82695000Y-78524255D01*
X82695000Y-78524255D02*
X85545000Y-78524255D01*
X85545000Y-78524255D02*
X85595000Y-71774255D01*
X85595000Y-71774255D02*
X82695000Y-71774255D01*
%TO.C,D12*%
X116300000Y-117590000D02*
X116300000Y-118990000D01*
X116300000Y-118290000D02*
X117200000Y-117590000D01*
X117200000Y-117590000D02*
X117200000Y-118990000D01*
X117200000Y-118990000D02*
X116300000Y-118290000D01*
%TO.C,J3*%
D16*
X136700000Y-119000000D02*
X149350000Y-119000000D01*
X149350000Y-121500000D01*
X136700000Y-121500000D01*
X136700000Y-119000000D01*
%TO.C,SW14*%
D13*
X154511399Y-100747857D02*
X154511399Y-101747857D01*
X154511399Y-101747857D02*
X154711399Y-101747857D01*
X154511399Y-103997857D02*
X154511399Y-104347857D01*
X154511399Y-104347857D02*
X162911400Y-104347857D01*
X154711399Y-103997857D02*
X154511399Y-103997857D01*
X154731399Y-101747857D02*
X154731399Y-103997857D01*
X159511399Y-100747857D02*
X154511399Y-100747857D01*
D15*
X160481999Y-92397857D02*
X162531999Y-92397857D01*
X160481999Y-93847857D02*
X160481999Y-92397857D01*
X162531999Y-92397857D02*
X162531999Y-93847857D01*
X162531999Y-93847857D02*
X160481999Y-93847857D01*
D13*
X164781399Y-101447857D02*
X164781399Y-99207857D01*
X164811399Y-99207857D02*
X165011399Y-99207857D01*
X165011399Y-98847857D02*
X161731399Y-98847857D01*
X165011399Y-98847857D02*
X165011399Y-99207857D01*
X165011399Y-101447857D02*
X164811399Y-101447857D01*
X165011399Y-102447857D02*
X165011399Y-101447857D01*
X161727717Y-98869328D02*
G75*
G02*
X159511399Y-100747857I-2151317J291470D01*
G01*
X165011399Y-102447856D02*
G75*
G02*
X162911400Y-104347858I-1999999J99997D01*
G01*
%TO.C,SW10*%
X193715871Y-109008505D02*
X201988256Y-110467148D01*
X193776648Y-108663821D02*
X193715871Y-109008505D01*
X193973610Y-108698549D02*
X193776648Y-108663821D01*
X194167357Y-106448003D02*
X194364318Y-106482733D01*
X194341005Y-105463196D02*
X194167357Y-106448003D01*
X194384014Y-106486206D02*
X193993306Y-108702023D01*
X199265045Y-106331437D02*
X194341005Y-105463196D01*
D15*
X201419070Y-99704806D02*
X201670860Y-98276835D01*
X201670860Y-98276835D02*
X203689716Y-98632813D01*
X203437926Y-100060785D02*
X201419070Y-99704806D01*
X203689716Y-98632813D02*
X203437926Y-100060785D01*
D13*
X204333427Y-107935928D02*
X204722399Y-105729958D01*
X204386284Y-108960675D02*
X204559932Y-107975867D01*
X204559932Y-107975867D02*
X204362971Y-107941137D01*
X204751943Y-105735168D02*
X204948904Y-105769898D01*
X205011418Y-105415367D02*
X201781248Y-104845801D01*
X205011418Y-105415367D02*
X204948904Y-105769898D01*
X201773894Y-104866306D02*
G75*
G02*
X199265045Y-106331437I-2068021J660614D01*
G01*
X204386284Y-108960674D02*
G75*
G02*
X201988256Y-110467148I-1952250J445775D01*
G01*
%TO.C,U1*%
D11*
X87510000Y-62304255D02*
X105290000Y-62304255D01*
X87510000Y-64844255D02*
X90050000Y-64844255D01*
X87510000Y-95324255D02*
X87510000Y-62304255D01*
X87510000Y-95324255D02*
X87510000Y-64844255D01*
X90050000Y-64844255D02*
X90050000Y-95324255D01*
X90050000Y-95324255D02*
X87510000Y-95324255D01*
X102750000Y-64844255D02*
X105290000Y-64844255D01*
X102750000Y-95324255D02*
X102750000Y-64844255D01*
X105290000Y-62304255D02*
X105290000Y-95324255D01*
X105290000Y-64844255D02*
X105290000Y-95324255D01*
X105290000Y-95324255D02*
X102750000Y-95324255D01*
%TO.C,SW2*%
D13*
X135461399Y-71602664D02*
X135461399Y-72602664D01*
X135461399Y-72602664D02*
X135661399Y-72602664D01*
X135461399Y-74852664D02*
X135461399Y-75202664D01*
X135461399Y-75202664D02*
X143861400Y-75202664D01*
X135661399Y-74852664D02*
X135461399Y-74852664D01*
X135681399Y-72602664D02*
X135681399Y-74852664D01*
X140461399Y-71602664D02*
X135461399Y-71602664D01*
D15*
X141431999Y-63252664D02*
X143481999Y-63252664D01*
X141431999Y-64702664D02*
X141431999Y-63252664D01*
X143481999Y-63252664D02*
X143481999Y-64702664D01*
X143481999Y-64702664D02*
X141431999Y-64702664D01*
D13*
X145731399Y-72302664D02*
X145731399Y-70062664D01*
X145761399Y-70062664D02*
X145961399Y-70062664D01*
X145961399Y-69702664D02*
X142681399Y-69702664D01*
X145961399Y-69702664D02*
X145961399Y-70062664D01*
X145961399Y-72302664D02*
X145761399Y-72302664D01*
X145961399Y-73302664D02*
X145961399Y-72302664D01*
X142677717Y-69724135D02*
G75*
G02*
X140461399Y-71602664I-2151317J291470D01*
G01*
X145961399Y-73302663D02*
G75*
G02*
X143861400Y-75202665I-1999999J99997D01*
G01*
%TO.C,JP8*%
D16*
X92106950Y-101564742D02*
X92106950Y-102039258D01*
X93151950Y-101564742D02*
X93151950Y-102039258D01*
%TO.C,JP19*%
X139977500Y-117887258D02*
X139977500Y-117412742D01*
X141022500Y-117887258D02*
X141022500Y-117412742D01*
%TO.C,JP5*%
X99690950Y-101564742D02*
X99690950Y-102039258D01*
X100735950Y-101564742D02*
X100735950Y-102039258D01*
%TO.C,JP20*%
X145077500Y-117887638D02*
X145077500Y-117413122D01*
X146122500Y-117887638D02*
X146122500Y-117413122D01*
%TO.C,JP6*%
X97145950Y-101564742D02*
X97145950Y-102039258D01*
X98190950Y-101564742D02*
X98190950Y-102039258D01*
%TO.C,JP25*%
X83302500Y-108580022D02*
X83302500Y-109054538D01*
X84347500Y-108580022D02*
X84347500Y-109054538D01*
%TO.C,JP7*%
X94643500Y-101564742D02*
X94643500Y-102039258D01*
X95688500Y-101564742D02*
X95688500Y-102039258D01*
%TO.C,JP23*%
X85077500Y-108580022D02*
X85077500Y-109054538D01*
X86122500Y-108580022D02*
X86122500Y-109054538D01*
%TO.C,JP21*%
X147577500Y-117887258D02*
X147577500Y-117412742D01*
X148622500Y-117887258D02*
X148622500Y-117412742D01*
%TD*%
D17*
%TO.C,U1*%
X105318815Y-67310000D03*
X105318815Y-69850000D03*
X105318815Y-72390000D03*
X105318815Y-74930000D03*
X105318815Y-77470000D03*
X105318815Y-80010000D03*
X105318815Y-82550000D03*
X105318815Y-85090000D03*
X105318815Y-87630000D03*
X105318815Y-90170000D03*
X105318815Y-92710000D03*
X105318815Y-95250000D03*
X90078815Y-95250000D03*
X90078815Y-92710000D03*
X90078815Y-90170000D03*
X90078815Y-87630000D03*
X90078815Y-85090000D03*
X90078815Y-82550000D03*
X90078815Y-80010000D03*
X90078815Y-77470000D03*
X90078815Y-74930000D03*
X90078815Y-72390000D03*
X90078815Y-69850000D03*
X90078815Y-67310000D03*
%TD*%
M02*
