M48
; DRILL file KiCad 10.0.5 date 2026-08-21T12:58:41
; FORMAT={-:-/ absolute / metric / decimal}
; #@! TF.CreationDate,2026-08-21T12:58:41-07:00
; #@! TF.GenerationSoftware,Kicad,Pcbnew,10.0.5
; #@! TF.FileFunction,Plated,1,2,PTH
FMAT,2
METRIC
; #@! TA.AperFunction,Plated,PTH,ComponentDrill
T1C0.200
; #@! TA.AperFunction,Plated,PTH,ViaDrill
T2C0.300
; #@! TA.AperFunction,Plated,PTH,ComponentDrill
T3C0.400
; #@! TA.AperFunction,Plated,PTH,ComponentDrill
T4C0.500
; #@! TA.AperFunction,Plated,PTH,ComponentDrill
T5C0.750
; #@! TA.AperFunction,Plated,PTH,ComponentDrill
T6C0.813
; #@! TA.AperFunction,Plated,PTH,ComponentDrill
T7C0.850
; #@! TA.AperFunction,Plated,PTH,ComponentDrill
T8C1.000
; #@! TA.AperFunction,Plated,PTH,ComponentDrill
T9C1.500
; #@! TA.AperFunction,Plated,PTH,ComponentDrill
T10C2.200
%
G90
G05
T1
X83.35Y-118.405
X83.35Y-122.105
X85.3Y-119.03
X85.3Y-120.255
X85.3Y-121.48
T2
X83.158Y-65.662
X83.168Y-71.571
X83.699Y-66.224
X83.975Y-73.35
X83.985Y-74.341
X84.041Y-101.493
X84.222Y-65.723
X84.665Y-107.226
X85.091Y-65.718
X86.225Y-60.5
X86.675Y-62.55
X86.703Y-72.603
X86.711Y-71.85
X87.1Y-56.8
X87.125Y-70.757
X87.135Y-71.385
X87.14Y-61.535
X87.29Y-117.95
X87.725Y-60.15
X88.025Y-78.475
X88.275Y-109.75
X89.025Y-118.8
X90.325Y-100.05
X90.775Y-125.65
X91.47Y-125.35
X92.475Y-140.5
X93.675Y-127.975
X93.736Y-138.75
X95.199Y-136.545
X96.311Y-136.903
X96.381Y-102.616
X96.4Y-138.9
X96.404Y-101.987
X96.5Y-100.05
X98.45Y-100.05
X99.006Y-97.681
X99.071Y-96.871
X99.575Y-100.05
X100.234Y-103.21
X101.725Y-147.617
X102.142Y-63.106
X102.7Y-133.241
X102.907Y-68.17
X102.926Y-75.81
X102.934Y-70.738
X102.935Y-78.358
X102.941Y-85.984
X102.95Y-80.913
X102.977Y-83.481
X103.575Y-100.05
X103.8Y-134.675
X105.275Y-82.25
X106.3Y-81.703
X107.275Y-58.5
X107.475Y-62.85
X107.841Y-78.21
X108.697Y-79.939
X108.758Y-87.131
X109.319Y-89.181
X110.611Y-142.778
X111.475Y-143.85
X113.0Y-83.0
X113.25Y-137.55
X113.541Y-81.83
X113.818Y-115.8
X114.068Y-91.757
X114.88Y-100.96
X115.0Y-83.0
X115.3Y-78.45
X115.575Y-87.75
X115.966Y-126.609
X116.8Y-124.5
X116.854Y-127.186
X117.0Y-99.175
X117.042Y-65.241
X117.108Y-103.385
X117.116Y-84.294
X117.668Y-66.073
X117.668Y-67.824
X117.721Y-104.251
X117.729Y-85.176
X118.668Y-86.95
X118.669Y-106.022
X119.262Y-139.05
X123.466Y-102.473
X123.468Y-83.401
X124.069Y-125.253
X124.406Y-104.248
X124.41Y-85.174
X124.458Y-66.079
X124.6Y-82.8
X124.6Y-101.8
X124.675Y-117.125
X125.13Y-98.61
X125.7Y-78.7
X126.375Y-67.3
X128.075Y-72.8
X128.075Y-91.85
X128.075Y-110.95
X128.27Y-99.43
X128.933Y-71.762
X129.1Y-76.3
X129.64Y-136.474
X130.525Y-137.75
X130.925Y-76.573
X130.934Y-77.626
X131.84Y-112.01
X131.87Y-106.71
X132.0Y-75.9
X132.0Y-78.575
X132.0Y-81.7
X132.075Y-124.65
X132.325Y-64.65
X132.53Y-99.833
X132.535Y-77.081
X132.535Y-99.076
X132.535Y-103.868
X133.875Y-98.5
X134.1Y-80.2
X134.41Y-101.6
X134.8Y-94.625
X134.975Y-103.875
X135.3Y-118.5
X135.4Y-64.5
X135.525Y-121.15
X136.0Y-76.8
X136.08Y-62.269
X136.092Y-100.428
X136.103Y-81.297
X136.175Y-98.525
X136.707Y-63.096
X136.715Y-101.251
X136.719Y-82.174
X136.975Y-96.625
X137.0Y-105.475
X137.675Y-65.25
X140.45Y-113.2
X141.2Y-95.6
X141.89Y-76.22
X142.44Y-117.676
X143.41Y-101.252
X143.413Y-82.181
X143.42Y-63.111
X143.642Y-117.167
X143.85Y-105.225
X144.125Y-64.55
X144.275Y-118.75
X144.392Y-113.267
X145.5Y-110.468
X146.45Y-99.025
X146.825Y-121.35
X147.06Y-69.823
X147.064Y-88.853
X147.075Y-106.8
X147.276Y-111.865
X147.3Y-117.042
X147.939Y-114.989
X148.65Y-86.325
X149.9Y-104.373
X149.9Y-105.426
X149.95Y-63.03
X150.3Y-116.6
X150.375Y-112.85
X150.71Y-96.3
X151.0Y-107.3
X151.04Y-86.34
X151.1Y-64.2
X151.1Y-103.13
X151.23Y-73.29
X151.585Y-89.61
X151.599Y-70.463
X153.2Y-71.2
X153.225Y-85.65
X153.417Y-54.442
X153.83Y-74.27
X155.075Y-87.25
X155.1Y-68.1
X155.125Y-53.226
X155.15Y-72.292
X155.154Y-91.373
X155.736Y-54.087
X155.766Y-73.178
X155.769Y-92.246
X156.711Y-55.878
X156.712Y-74.95
X161.125Y-88.95
X161.51Y-71.401
X161.8Y-70.1
X162.1Y-58.5
X162.1Y-77.5
X162.1Y-96.5
X162.452Y-73.176
X162.455Y-92.246
X162.493Y-54.122
X163.114Y-53.43
X163.675Y-55.75
X164.685Y-109.027
X164.775Y-88.2
X164.925Y-56.0
X166.107Y-79.865
X166.111Y-59.725
X166.116Y-98.951
X167.575Y-66.15
X167.725Y-116.09
X168.775Y-100.475
X168.875Y-113.75
X168.953Y-60.465
X169.475Y-87.45
X169.543Y-68.082
X170.611Y-93.85
X171.075Y-78.95
X171.51Y-114.67
X171.562Y-75.362
X173.175Y-73.775
X173.18Y-99.75
X173.5Y-81.4
X173.5Y-83.7
X174.18Y-63.445
X174.651Y-101.56
X175.025Y-97.65
X175.263Y-102.357
X175.989Y-82.516
X176.05Y-78.2
X176.606Y-83.333
X177.257Y-63.479
X177.625Y-62.5
X177.825Y-66.25
X177.884Y-64.278
X178.775Y-115.9
X179.5Y-78.0
X180.5Y-80.6
X180.575Y-96.8
X181.6Y-78.0
X181.963Y-102.839
X183.267Y-83.799
X183.625Y-62.7
X184.375Y-100.55
X184.694Y-64.73
X185.028Y-109.766
X185.215Y-117.575
X186.352Y-90.708
X186.54Y-68.315
X186.675Y-120.45
X187.075Y-85.45
X187.696Y-71.71
X188.025Y-121.05
X190.463Y-101.38
X190.875Y-81.65
X191.975Y-118.25
X192.344Y-115.554
X192.525Y-86.35
X193.084Y-115.397
X193.5Y-113.6
X193.698Y-116.06
X194.725Y-128.55
X196.0Y-99.8
X196.428Y-96.61
X196.971Y-99.125
X197.045Y-97.305
X197.6Y-100.3
X199.145Y-78.38
X199.563Y-115.318
X200.338Y-117.263
X200.357Y-78.526
X200.8Y-91.4
X200.875Y-81.05
X201.125Y-120.25
X202.521Y-124.406
X202.6Y-102.6
X202.7Y-111.23
X202.854Y-96.527
X202.9Y-93.6
X203.257Y-101.232
X203.275Y-114.85
X203.642Y-98.475
X206.125Y-109.95
X206.475Y-96.15
X206.675Y-105.3
X206.957Y-79.686
X207.875Y-81.8
X209.145Y-86.857
T3
X99.18Y-106.96
X102.58Y-106.96
X106.672Y-130.428
X108.372Y-133.372
X115.1Y-118.29
X115.3Y-80.1
X115.3Y-99.2
X118.5Y-118.29
X118.7Y-80.1
X118.7Y-99.2
X128.663Y-123.579
X129.543Y-126.863
X134.3Y-77.1
X135.297Y-96.197
X137.7Y-77.1
X138.697Y-96.197
X148.2Y-101.5
X148.2Y-104.9
X153.3Y-106.3
X153.379Y-87.185
X153.4Y-68.1
X156.7Y-106.3
X156.779Y-87.185
X156.8Y-68.1
X172.9Y-116.2
X173.37Y-97.186
X174.3Y-78.1
X176.292Y-116.437
X176.761Y-97.423
X177.692Y-78.337
X188.626Y-129.405
X191.952Y-110.71
X191.974Y-129.995
X195.252Y-91.91
X195.3Y-111.3
X198.6Y-92.5
T4
X152.292Y-113.398
X165.492Y-113.398
T5
X84.275Y-102.793
X84.275Y-104.793
T6
X88.78Y-56.84
X88.78Y-59.38
X88.78Y-61.92
X88.78Y-64.46
X88.78Y-67.0
X88.78Y-69.54
X88.78Y-72.08
X88.78Y-74.62
X88.78Y-77.16
X88.78Y-79.7
X88.78Y-82.24
X88.78Y-84.78
X90.079Y-58.036
X90.079Y-60.576
X90.079Y-63.116
X90.079Y-65.656
X90.079Y-68.196
X90.079Y-70.736
X90.079Y-73.276
X90.079Y-75.816
X90.079Y-78.356
X90.079Y-80.896
X90.079Y-83.436
X90.079Y-85.976
X104.02Y-56.84
X104.02Y-59.38
X104.02Y-61.92
X104.02Y-64.46
X104.02Y-67.0
X104.02Y-69.54
X104.02Y-72.08
X104.02Y-74.62
X104.02Y-77.16
X104.02Y-79.7
X104.02Y-82.24
X104.02Y-84.78
X105.319Y-58.036
X105.319Y-60.576
X105.319Y-63.116
X105.319Y-65.656
X105.319Y-68.196
X105.319Y-70.736
X105.319Y-73.276
X105.319Y-75.816
X105.319Y-78.356
X105.319Y-80.896
X105.319Y-83.436
X105.319Y-85.976
T7
X137.95Y-120.1
X140.49Y-120.1
X143.03Y-120.1
X145.57Y-120.1
X148.11Y-120.1
T8
X84.559Y-111.25
X84.559Y-114.85
X88.09Y-111.45
X88.09Y-113.95
X88.09Y-116.45
X92.629Y-98.455
X95.169Y-98.455
X97.709Y-98.455
X100.249Y-98.455
X102.59Y-111.45
X102.59Y-116.45
T10
X131.098Y-96.139
X150.148Y-77.089
X169.198Y-96.139
T8
X85.825Y-125.0G85X86.325Y-125.0
G05
X85.825Y-130.95G85X86.325Y-130.95
G05
X88.825Y-125.0G85X89.325Y-125.0
G05
X88.825Y-130.95G85X89.325Y-130.95
G05
X92.825Y-125.0G85X93.325Y-125.0
G05
X92.825Y-130.95G85X93.325Y-130.95
G05
X94.325Y-126.75G85X94.825Y-126.75
G05
X94.325Y-129.2G85X94.825Y-129.2
G05
T9
X94.94Y-108.35G85X96.24Y-108.35
G05
X94.94Y-119.55G85X96.24Y-119.55
G05
M30
