%TF.GenerationSoftware,KiCad,Pcbnew,10.0.5*%
%TF.CreationDate,2026-08-24T14:08:52-07:00*%
%TF.ProjectId,klaw_1,6b6c6177-5f31-42e6-9b69-6361645f7063,v1*%
%TF.SameCoordinates,Original*%
%TF.FileFunction,Soldermask,Top*%
%TF.FilePolarity,Negative*%
%FSLAX46Y46*%
G04 Gerber Fmt 4.6, Leading zero omitted, Abs format (unit mm)*
G04 Created by KiCad (PCBNEW 10.0.5) date 2026-08-24 14:08:52*
%MOMM*%
%LPD*%
G01*
G04 APERTURE LIST*
G04 Aperture macros list*
%AMRoundRect*
0 Rectangle with rounded corners*
0 $1 Rounding radius*
0 $2 $3 $4 $5 $6 $7 $8 $9 X,Y pos of 4 corners*
0 Add a 4 corners polygon primitive as box body*
4,1,4,$2,$3,$4,$5,$6,$7,$8,$9,$2,$3,0*
0 Add four circle primitives for the rounded corners*
1,1,$1+$1,$2,$3*
1,1,$1+$1,$4,$5*
1,1,$1+$1,$6,$7*
1,1,$1+$1,$8,$9*
0 Add four rect primitives between the rounded corners*
20,1,$1+$1,$2,$3,$4,$5,0*
20,1,$1+$1,$4,$5,$6,$7,0*
20,1,$1+$1,$6,$7,$8,$9,0*
20,1,$1+$1,$8,$9,$2,$3,0*%
%AMRotRect*
0 Rectangle, with rotation*
0 The origin of the aperture is its center*
0 $1 length*
0 $2 width*
0 $3 Rotation angle, in degrees counterclockwise*
0 Add horizontal line*
21,1,$1,$2,0,0,$3*%
G04 Aperture macros list end*
%ADD10C,0.000001*%
%ADD11RoundRect,0.200000X-0.275000X0.200000X-0.275000X-0.200000X0.275000X-0.200000X0.275000X0.200000X0*%
%ADD12C,1.900000*%
%ADD13C,1.700000*%
%ADD14C,3.000000*%
%ADD15C,4.100000*%
%ADD16RotRect,1.000000X0.900000X176.000000*%
%ADD17RotRect,2.300000X2.000000X356.000000*%
%ADD18C,3.200000*%
%ADD19RotRect,1.800000X1.500000X350.000000*%
%ADD20R,1.800000X1.500000*%
%ADD21RotRect,1.800000X1.500000X356.000000*%
%ADD22RotRect,1.000000X0.900000X195.000000*%
%ADD23RotRect,2.300000X2.000000X15.000000*%
%ADD24R,1.000000X0.900000*%
%ADD25R,2.300000X2.000000*%
%ADD26RoundRect,0.200000X0.275000X-0.200000X0.275000X0.200000X-0.275000X0.200000X-0.275000X-0.200000X0*%
%ADD27RotRect,1.800000X1.500000X285.000000*%
%ADD28R,2.200000X2.200000*%
%ADD29C,2.000000*%
%ADD30R,3.200000X2.000000*%
%ADD31O,1.600000X2.000000*%
%ADD32C,1.200000*%
%ADD33O,2.500000X1.700000*%
%ADD34RotRect,1.800000X1.500000X300.000000*%
%ADD35O,1.750000X1.200000*%
%ADD36C,0.900000*%
%ADD37RoundRect,0.187500X-0.712500X0.187500X-0.712500X-0.187500X0.712500X-0.187500X0.712500X0.187500X0*%
%ADD38RoundRect,0.150000X-0.750000X0.150000X-0.750000X-0.150000X0.750000X-0.150000X0.750000X0.150000X0*%
%ADD39RoundRect,0.225000X-0.225000X0.425000X-0.225000X-0.425000X0.225000X-0.425000X0.225000X0.425000X0*%
%ADD40C,4.400000*%
%ADD41RotRect,1.000000X0.900000X210.000000*%
%ADD42RotRect,2.300000X2.000000X30.000000*%
%ADD43RotRect,1.000000X0.900000X170.000000*%
%ADD44RotRect,2.300000X2.000000X350.000000*%
%ADD45R,1.500000X1.800000*%
%ADD46RoundRect,0.142858X-0.857142X0.857142X-0.857142X-0.857142X0.857142X-0.857142X0.857142X0.857142X0*%
%ADD47R,1.000000X0.700000*%
%ADD48R,2.800000X1.000000*%
%ADD49R,1.524000X1.524000*%
%ADD50C,1.800000*%
%ADD51C,1.524000*%
G04 APERTURE END LIST*
D10*
X161428918Y-111551783D02*
X161426832Y-111551839D01*
X161425390Y-111551783D01*
X161428918Y-111551783D01*
G36*
X161426832Y-111551839D02*
G01*
X161425390Y-111551783D01*
X161428918Y-111551783D01*
X161426832Y-111551839D01*
G37*
X159988073Y-114955133D02*
X160000043Y-114956016D01*
X160011820Y-114957471D01*
X160023390Y-114959485D01*
X160034742Y-114962044D01*
X160045860Y-114965134D01*
X160056732Y-114968742D01*
X160067343Y-114972854D01*
X160077681Y-114977457D01*
X160087731Y-114982537D01*
X160097480Y-114988081D01*
X160106915Y-114994075D01*
X160116022Y-115000505D01*
X160124787Y-115007358D01*
X160133197Y-115014621D01*
X160141238Y-115022280D01*
X160148897Y-115030321D01*
X160156160Y-115038730D01*
X160163014Y-115047495D01*
X160169445Y-115056601D01*
X160175439Y-115066035D01*
X160180983Y-115075784D01*
X160186063Y-115085833D01*
X160190667Y-115096170D01*
X160194779Y-115106781D01*
X160198387Y-115117652D01*
X160201478Y-115128770D01*
X160204036Y-115140121D01*
X160206050Y-115151691D01*
X160207505Y-115163467D01*
X160208389Y-115175436D01*
X160208686Y-115187583D01*
X160208389Y-115199731D01*
X160207505Y-115211700D01*
X160206050Y-115223476D01*
X160204036Y-115235046D01*
X160201478Y-115246397D01*
X160198387Y-115257515D01*
X160194779Y-115268386D01*
X160190667Y-115278996D01*
X160186063Y-115289333D01*
X160180983Y-115299383D01*
X160175439Y-115309132D01*
X160169445Y-115318566D01*
X160163014Y-115327672D01*
X160156160Y-115336437D01*
X160148897Y-115344846D01*
X160141238Y-115352887D01*
X160133197Y-115360546D01*
X160124787Y-115367808D01*
X160116022Y-115374662D01*
X160106915Y-115381092D01*
X160097480Y-115387086D01*
X160087731Y-115392630D01*
X160077681Y-115397710D01*
X160067343Y-115402313D01*
X160056732Y-115406425D01*
X160045860Y-115410033D01*
X160034742Y-115413123D01*
X160023390Y-115415682D01*
X160011820Y-115417695D01*
X160000043Y-115419151D01*
X159988073Y-115420034D01*
X159975925Y-115420331D01*
X159963777Y-115420034D01*
X159951807Y-115419151D01*
X159940030Y-115417695D01*
X159928459Y-115415682D01*
X159917108Y-115413123D01*
X159905990Y-115410033D01*
X159895118Y-115406425D01*
X159884507Y-115402313D01*
X159874169Y-115397710D01*
X159864119Y-115392630D01*
X159854370Y-115387086D01*
X159844935Y-115381092D01*
X159835828Y-115374662D01*
X159827063Y-115367808D01*
X159818653Y-115360546D01*
X159810612Y-115352887D01*
X159802953Y-115344846D01*
X159795690Y-115336437D01*
X159788836Y-115327672D01*
X159782405Y-115318566D01*
X159776411Y-115309132D01*
X159770867Y-115299383D01*
X159765786Y-115289333D01*
X159761183Y-115278996D01*
X159757071Y-115268386D01*
X159753463Y-115257515D01*
X159750372Y-115246397D01*
X159747814Y-115235046D01*
X159745800Y-115223476D01*
X159744345Y-115211700D01*
X159743461Y-115199731D01*
X159743164Y-115187583D01*
X159743461Y-115175746D01*
X159744345Y-115164048D01*
X159745800Y-115152505D01*
X159747814Y-115141133D01*
X159750372Y-115129947D01*
X159753463Y-115118962D01*
X159757071Y-115108194D01*
X159761183Y-115097658D01*
X159765786Y-115087371D01*
X159770867Y-115077347D01*
X159776411Y-115067601D01*
X159782405Y-115058151D01*
X159788836Y-115049010D01*
X159795690Y-115040195D01*
X159802953Y-115031720D01*
X159810612Y-115023602D01*
X159818653Y-115015856D01*
X159827063Y-115008498D01*
X159835828Y-115001542D01*
X159844935Y-114995005D01*
X159854370Y-114988901D01*
X159864119Y-114983247D01*
X159874169Y-114978058D01*
X159884507Y-114973350D01*
X159895118Y-114969137D01*
X159905990Y-114965436D01*
X159917108Y-114962262D01*
X159928459Y-114959630D01*
X159940030Y-114957556D01*
X159951807Y-114956055D01*
X159963777Y-114955143D01*
X159975925Y-114954836D01*
X159988073Y-114955133D01*
G36*
X159988073Y-114955133D02*
G01*
X160000043Y-114956016D01*
X160011820Y-114957471D01*
X160023390Y-114959485D01*
X160034742Y-114962044D01*
X160045860Y-114965134D01*
X160056732Y-114968742D01*
X160067343Y-114972854D01*
X160077681Y-114977457D01*
X160087731Y-114982537D01*
X160097480Y-114988081D01*
X160106915Y-114994075D01*
X160116022Y-115000505D01*
X160124787Y-115007358D01*
X160133197Y-115014621D01*
X160141238Y-115022280D01*
X160148897Y-115030321D01*
X160156160Y-115038730D01*
X160163014Y-115047495D01*
X160169445Y-115056601D01*
X160175439Y-115066035D01*
X160180983Y-115075784D01*
X160186063Y-115085833D01*
X160190667Y-115096170D01*
X160194779Y-115106781D01*
X160198387Y-115117652D01*
X160201478Y-115128770D01*
X160204036Y-115140121D01*
X160206050Y-115151691D01*
X160207505Y-115163467D01*
X160208389Y-115175436D01*
X160208686Y-115187583D01*
X160208389Y-115199731D01*
X160207505Y-115211700D01*
X160206050Y-115223476D01*
X160204036Y-115235046D01*
X160201478Y-115246397D01*
X160198387Y-115257515D01*
X160194779Y-115268386D01*
X160190667Y-115278996D01*
X160186063Y-115289333D01*
X160180983Y-115299383D01*
X160175439Y-115309132D01*
X160169445Y-115318566D01*
X160163014Y-115327672D01*
X160156160Y-115336437D01*
X160148897Y-115344846D01*
X160141238Y-115352887D01*
X160133197Y-115360546D01*
X160124787Y-115367808D01*
X160116022Y-115374662D01*
X160106915Y-115381092D01*
X160097480Y-115387086D01*
X160087731Y-115392630D01*
X160077681Y-115397710D01*
X160067343Y-115402313D01*
X160056732Y-115406425D01*
X160045860Y-115410033D01*
X160034742Y-115413123D01*
X160023390Y-115415682D01*
X160011820Y-115417695D01*
X160000043Y-115419151D01*
X159988073Y-115420034D01*
X159975925Y-115420331D01*
X159963777Y-115420034D01*
X159951807Y-115419151D01*
X159940030Y-115417695D01*
X159928459Y-115415682D01*
X159917108Y-115413123D01*
X159905990Y-115410033D01*
X159895118Y-115406425D01*
X159884507Y-115402313D01*
X159874169Y-115397710D01*
X159864119Y-115392630D01*
X159854370Y-115387086D01*
X159844935Y-115381092D01*
X159835828Y-115374662D01*
X159827063Y-115367808D01*
X159818653Y-115360546D01*
X159810612Y-115352887D01*
X159802953Y-115344846D01*
X159795690Y-115336437D01*
X159788836Y-115327672D01*
X159782405Y-115318566D01*
X159776411Y-115309132D01*
X159770867Y-115299383D01*
X159765786Y-115289333D01*
X159761183Y-115278996D01*
X159757071Y-115268386D01*
X159753463Y-115257515D01*
X159750372Y-115246397D01*
X159747814Y-115235046D01*
X159745800Y-115223476D01*
X159744345Y-115211700D01*
X159743461Y-115199731D01*
X159743164Y-115187583D01*
X159743461Y-115175746D01*
X159744345Y-115164048D01*
X159745800Y-115152505D01*
X159747814Y-115141133D01*
X159750372Y-115129947D01*
X159753463Y-115118962D01*
X159757071Y-115108194D01*
X159761183Y-115097658D01*
X159765786Y-115087371D01*
X159770867Y-115077347D01*
X159776411Y-115067601D01*
X159782405Y-115058151D01*
X159788836Y-115049010D01*
X159795690Y-115040195D01*
X159802953Y-115031720D01*
X159810612Y-115023602D01*
X159818653Y-115015856D01*
X159827063Y-115008498D01*
X159835828Y-115001542D01*
X159844935Y-114995005D01*
X159854370Y-114988901D01*
X159864119Y-114983247D01*
X159874169Y-114978058D01*
X159884507Y-114973350D01*
X159895118Y-114969137D01*
X159905990Y-114965436D01*
X159917108Y-114962262D01*
X159928459Y-114959630D01*
X159940030Y-114957556D01*
X159951807Y-114956055D01*
X159963777Y-114955143D01*
X159975925Y-114954836D01*
X159988073Y-114955133D01*
G37*
X157870496Y-111005178D02*
X157673002Y-111202661D01*
X157693038Y-111217778D01*
X157712119Y-111234000D01*
X157730197Y-111251276D01*
X157747227Y-111269554D01*
X157763162Y-111288783D01*
X157777955Y-111308910D01*
X157791560Y-111329885D01*
X157803930Y-111351655D01*
X157815019Y-111374169D01*
X157824780Y-111397375D01*
X157833167Y-111421222D01*
X157840133Y-111445658D01*
X157845633Y-111470631D01*
X157849618Y-111496089D01*
X157852044Y-111521982D01*
X157852862Y-111548256D01*
X157852862Y-112923583D01*
X157570728Y-112923583D01*
X157874022Y-113226861D01*
X157782329Y-113318549D01*
X157387340Y-112923583D01*
X156643210Y-112923583D01*
X156643210Y-112793104D01*
X157256853Y-112793104D01*
X156667897Y-112204182D01*
X156078941Y-112793104D01*
X156636157Y-112793104D01*
X156636157Y-112923583D01*
X155948454Y-112923583D01*
X155553466Y-113318549D01*
X155461772Y-113226861D01*
X155765067Y-112923583D01*
X155405345Y-112923583D01*
X155405345Y-112860107D01*
X155406463Y-112811443D01*
X155407486Y-112796630D01*
X155535832Y-112796630D01*
X155892027Y-112796630D01*
X156572677Y-112116020D01*
X156569150Y-112112493D01*
X156763117Y-112112493D01*
X157440240Y-112793104D01*
X157722375Y-112793104D01*
X157722375Y-111943222D01*
X156932398Y-111943222D01*
X156935925Y-111939696D01*
X156763117Y-112112493D01*
X156569150Y-112112493D01*
X156403396Y-111946748D01*
X156360350Y-111949737D01*
X156317867Y-111954704D01*
X156275994Y-111961603D01*
X156234776Y-111970387D01*
X156194262Y-111981010D01*
X156154496Y-111993426D01*
X156115526Y-112007588D01*
X156077398Y-112023449D01*
X156040159Y-112040964D01*
X156003855Y-112060085D01*
X155968532Y-112080766D01*
X155934237Y-112102961D01*
X155901017Y-112126622D01*
X155868918Y-112151705D01*
X155837986Y-112178161D01*
X155808268Y-112205945D01*
X155779811Y-112235010D01*
X155752661Y-112265310D01*
X155726865Y-112296797D01*
X155702468Y-112329427D01*
X155679518Y-112363151D01*
X155658061Y-112397924D01*
X155638143Y-112433700D01*
X155619811Y-112470431D01*
X155603112Y-112508071D01*
X155588092Y-112546574D01*
X155574797Y-112585893D01*
X155563274Y-112625982D01*
X155553570Y-112666794D01*
X155545730Y-112708282D01*
X155539802Y-112750401D01*
X155535832Y-112793104D01*
X155535832Y-112796630D01*
X155407486Y-112796630D01*
X155409783Y-112763346D01*
X155415257Y-112715863D01*
X155422834Y-112669043D01*
X155432464Y-112622937D01*
X155444098Y-112577592D01*
X155457686Y-112533059D01*
X155473179Y-112489386D01*
X155490526Y-112446622D01*
X155509677Y-112404816D01*
X155530585Y-112364017D01*
X155553197Y-112324275D01*
X155577465Y-112285638D01*
X155603339Y-112248156D01*
X155630770Y-112211877D01*
X155659707Y-112176851D01*
X155690101Y-112143127D01*
X155721902Y-112110754D01*
X155755060Y-112079781D01*
X155789526Y-112050256D01*
X155825250Y-112022230D01*
X155862182Y-111995751D01*
X155900273Y-111970868D01*
X155939472Y-111947630D01*
X155947709Y-111943222D01*
X156586783Y-111943222D01*
X156667897Y-112024331D01*
X156749011Y-111943222D01*
X156586783Y-111943222D01*
X155947709Y-111943222D01*
X155979730Y-111926087D01*
X156020998Y-111906287D01*
X156063225Y-111888280D01*
X156106363Y-111872114D01*
X156150360Y-111857839D01*
X156195168Y-111845503D01*
X156240736Y-111835157D01*
X156287015Y-111826848D01*
X156276390Y-111816269D01*
X157059359Y-111816269D01*
X157718848Y-111816269D01*
X157718848Y-111551783D01*
X157718684Y-111541586D01*
X157718194Y-111531497D01*
X157717384Y-111521519D01*
X157716258Y-111511655D01*
X157714823Y-111501911D01*
X157713083Y-111492289D01*
X157711043Y-111482794D01*
X157708709Y-111473429D01*
X157706086Y-111464198D01*
X157703178Y-111455106D01*
X157699991Y-111446156D01*
X157696531Y-111437351D01*
X157692802Y-111428697D01*
X157688809Y-111420196D01*
X157684559Y-111411853D01*
X157680055Y-111403671D01*
X157675303Y-111395654D01*
X157670308Y-111387807D01*
X157665076Y-111380132D01*
X157659611Y-111372635D01*
X157648005Y-111358186D01*
X157635530Y-111344492D01*
X157622230Y-111331583D01*
X157608143Y-111319490D01*
X157593314Y-111308244D01*
X157577781Y-111297876D01*
X157059359Y-111816269D01*
X156276390Y-111816269D01*
X155461772Y-111005178D01*
X155553466Y-110913490D01*
X156456296Y-111812742D01*
X156875971Y-111812742D01*
X157436714Y-111252032D01*
X156135368Y-111252032D01*
X156135368Y-111121552D01*
X157422607Y-111121552D01*
X157431162Y-111121635D01*
X157439635Y-111121883D01*
X157448024Y-111122296D01*
X157456331Y-111122875D01*
X157464555Y-111123619D01*
X157472697Y-111124528D01*
X157480756Y-111125602D01*
X157488732Y-111126842D01*
X157496626Y-111128247D01*
X157504437Y-111129817D01*
X157512166Y-111131553D01*
X157519811Y-111133454D01*
X157527374Y-111135520D01*
X157534855Y-111137752D01*
X157542253Y-111140149D01*
X157549568Y-111142711D01*
X157778802Y-110913490D01*
X157870496Y-111005178D01*
G36*
X157870496Y-111005178D02*
G01*
X157673002Y-111202661D01*
X157693038Y-111217778D01*
X157712119Y-111234000D01*
X157730197Y-111251276D01*
X157747227Y-111269554D01*
X157763162Y-111288783D01*
X157777955Y-111308910D01*
X157791560Y-111329885D01*
X157803930Y-111351655D01*
X157815019Y-111374169D01*
X157824780Y-111397375D01*
X157833167Y-111421222D01*
X157840133Y-111445658D01*
X157845633Y-111470631D01*
X157849618Y-111496089D01*
X157852044Y-111521982D01*
X157852862Y-111548256D01*
X157852862Y-112923583D01*
X157570728Y-112923583D01*
X157874022Y-113226861D01*
X157782329Y-113318549D01*
X157387340Y-112923583D01*
X156643210Y-112923583D01*
X156643210Y-112793104D01*
X157256853Y-112793104D01*
X156667897Y-112204182D01*
X156078941Y-112793104D01*
X156636157Y-112793104D01*
X156636157Y-112923583D01*
X155948454Y-112923583D01*
X155553466Y-113318549D01*
X155461772Y-113226861D01*
X155765067Y-112923583D01*
X155405345Y-112923583D01*
X155405345Y-112860107D01*
X155406463Y-112811443D01*
X155407486Y-112796630D01*
X155407729Y-112793104D01*
X155535832Y-112793104D01*
X155535832Y-112796630D01*
X155892027Y-112796630D01*
X156572677Y-112116020D01*
X156569150Y-112112493D01*
X156763117Y-112112493D01*
X157440240Y-112793104D01*
X157722375Y-112793104D01*
X157722375Y-111943222D01*
X156932399Y-111943222D01*
X156763117Y-112112493D01*
X156569150Y-112112493D01*
X156403396Y-111946748D01*
X156360350Y-111949737D01*
X156317867Y-111954704D01*
X156275994Y-111961603D01*
X156234776Y-111970387D01*
X156194262Y-111981010D01*
X156154496Y-111993426D01*
X156115526Y-112007588D01*
X156077398Y-112023449D01*
X156040159Y-112040964D01*
X156003855Y-112060085D01*
X155968532Y-112080766D01*
X155934237Y-112102961D01*
X155901017Y-112126622D01*
X155868918Y-112151705D01*
X155837986Y-112178161D01*
X155808268Y-112205945D01*
X155779811Y-112235010D01*
X155752661Y-112265310D01*
X155726865Y-112296797D01*
X155702468Y-112329427D01*
X155679518Y-112363151D01*
X155658061Y-112397924D01*
X155638143Y-112433700D01*
X155619811Y-112470431D01*
X155603112Y-112508071D01*
X155588092Y-112546574D01*
X155574797Y-112585893D01*
X155563274Y-112625982D01*
X155553570Y-112666794D01*
X155545730Y-112708282D01*
X155539802Y-112750401D01*
X155535832Y-112793104D01*
X155407729Y-112793104D01*
X155409783Y-112763346D01*
X155415257Y-112715863D01*
X155422834Y-112669043D01*
X155432464Y-112622937D01*
X155444098Y-112577592D01*
X155457686Y-112533059D01*
X155473179Y-112489386D01*
X155490526Y-112446622D01*
X155509677Y-112404816D01*
X155530585Y-112364017D01*
X155553197Y-112324275D01*
X155577465Y-112285638D01*
X155603339Y-112248156D01*
X155630770Y-112211877D01*
X155659707Y-112176851D01*
X155690101Y-112143127D01*
X155721902Y-112110754D01*
X155755060Y-112079781D01*
X155789526Y-112050256D01*
X155825250Y-112022230D01*
X155862182Y-111995751D01*
X155900273Y-111970868D01*
X155939472Y-111947630D01*
X155947709Y-111943222D01*
X156586783Y-111943222D01*
X156667897Y-112024331D01*
X156749011Y-111943222D01*
X156586783Y-111943222D01*
X155947709Y-111943222D01*
X155979730Y-111926087D01*
X156020998Y-111906287D01*
X156063225Y-111888280D01*
X156106363Y-111872114D01*
X156150360Y-111857839D01*
X156195168Y-111845503D01*
X156240736Y-111835157D01*
X156287015Y-111826848D01*
X156276390Y-111816269D01*
X157059359Y-111816269D01*
X157718848Y-111816269D01*
X157718848Y-111551783D01*
X157718684Y-111541586D01*
X157718194Y-111531497D01*
X157717384Y-111521519D01*
X157716258Y-111511655D01*
X157714823Y-111501911D01*
X157713083Y-111492289D01*
X157711043Y-111482794D01*
X157708709Y-111473429D01*
X157706086Y-111464198D01*
X157703178Y-111455106D01*
X157699991Y-111446156D01*
X157696531Y-111437351D01*
X157692802Y-111428697D01*
X157688809Y-111420196D01*
X157684559Y-111411853D01*
X157680055Y-111403671D01*
X157675303Y-111395654D01*
X157670308Y-111387807D01*
X157665076Y-111380132D01*
X157659611Y-111372635D01*
X157648005Y-111358186D01*
X157635530Y-111344492D01*
X157622230Y-111331583D01*
X157608143Y-111319490D01*
X157593314Y-111308244D01*
X157577781Y-111297876D01*
X157059359Y-111816269D01*
X156276390Y-111816269D01*
X155461772Y-111005178D01*
X155553466Y-110913490D01*
X156456296Y-111812742D01*
X156875971Y-111812742D01*
X157436714Y-111252032D01*
X156135368Y-111252032D01*
X156135368Y-111121552D01*
X157422607Y-111121552D01*
X157431162Y-111121635D01*
X157439635Y-111121883D01*
X157448024Y-111122296D01*
X157456331Y-111122875D01*
X157464555Y-111123619D01*
X157472697Y-111124528D01*
X157480756Y-111125602D01*
X157488732Y-111126842D01*
X157496626Y-111128247D01*
X157504437Y-111129817D01*
X157512166Y-111131553D01*
X157519811Y-111133454D01*
X157527374Y-111135520D01*
X157534855Y-111137752D01*
X157542253Y-111140149D01*
X157549568Y-111142711D01*
X157778802Y-110913490D01*
X157870496Y-111005178D01*
G37*
X161150310Y-116361901D02*
X158805066Y-116361901D01*
X158805066Y-115720082D01*
X158932027Y-115720082D01*
X158932027Y-116231421D01*
X159443396Y-116231421D01*
X159402859Y-116209484D01*
X159363274Y-116186018D01*
X159324680Y-116161064D01*
X159287120Y-116134664D01*
X159250634Y-116106858D01*
X159215263Y-116077689D01*
X159181051Y-116047197D01*
X159148036Y-116015425D01*
X159116262Y-115982412D01*
X159085768Y-115948201D01*
X159056597Y-115912833D01*
X159028790Y-115876349D01*
X159002388Y-115838791D01*
X158977433Y-115800199D01*
X158953965Y-115760616D01*
X158932027Y-115720082D01*
X158805066Y-115720082D01*
X158805066Y-115187583D01*
X158932027Y-115187583D01*
X158933390Y-115241151D01*
X158937435Y-115294033D01*
X158944095Y-115346162D01*
X158953304Y-115397471D01*
X158964995Y-115447894D01*
X158979102Y-115497365D01*
X158995559Y-115545817D01*
X159014298Y-115593184D01*
X159035253Y-115639398D01*
X159058358Y-115684394D01*
X159083546Y-115728105D01*
X159110751Y-115770465D01*
X159139906Y-115811407D01*
X159170945Y-115850864D01*
X159203801Y-115888770D01*
X159238407Y-115925059D01*
X159274698Y-115959663D01*
X159312606Y-115992517D01*
X159352066Y-116023554D01*
X159393010Y-116052707D01*
X159435372Y-116079911D01*
X159479085Y-116105098D01*
X159524084Y-116128201D01*
X159570301Y-116149155D01*
X159617671Y-116167893D01*
X159666125Y-116184349D01*
X159715599Y-116198455D01*
X159766025Y-116210145D01*
X159817338Y-116219354D01*
X159869469Y-116226014D01*
X159922354Y-116230058D01*
X159975925Y-116231421D01*
X160508454Y-116231421D01*
X161019823Y-116231421D01*
X161019823Y-115720082D01*
X160997884Y-115760616D01*
X160974417Y-115800199D01*
X160949461Y-115838791D01*
X160923059Y-115876349D01*
X160895252Y-115912833D01*
X160866081Y-115948201D01*
X160835588Y-115982412D01*
X160803813Y-116015425D01*
X160770799Y-116047197D01*
X160736586Y-116077689D01*
X160701216Y-116106858D01*
X160664730Y-116134664D01*
X160627169Y-116161064D01*
X160588576Y-116186018D01*
X160548990Y-116209484D01*
X160508454Y-116231421D01*
X159975925Y-116231421D01*
X160029496Y-116230058D01*
X160082381Y-116226014D01*
X160134512Y-116219354D01*
X160185825Y-116210145D01*
X160236251Y-116198455D01*
X160285725Y-116184349D01*
X160334179Y-116167893D01*
X160381548Y-116149155D01*
X160427766Y-116128201D01*
X160472764Y-116105098D01*
X160516478Y-116079911D01*
X160558840Y-116052707D01*
X160599784Y-116023554D01*
X160639243Y-115992517D01*
X160677152Y-115959663D01*
X160713442Y-115925059D01*
X160748049Y-115888770D01*
X160780905Y-115850864D01*
X160811943Y-115811407D01*
X160841098Y-115770465D01*
X160868303Y-115728105D01*
X160893492Y-115684394D01*
X160916597Y-115639398D01*
X160937552Y-115593184D01*
X160956291Y-115545817D01*
X160972747Y-115497365D01*
X160986854Y-115447894D01*
X160998545Y-115397471D01*
X161007754Y-115346162D01*
X161014415Y-115294033D01*
X161018460Y-115241151D01*
X161019823Y-115187583D01*
X161018460Y-115134015D01*
X161014415Y-115081134D01*
X161007754Y-115029005D01*
X160998545Y-114977696D01*
X160986854Y-114927273D01*
X160972747Y-114877802D01*
X160956291Y-114829350D01*
X160937552Y-114781983D01*
X160916597Y-114735769D01*
X160893492Y-114690772D01*
X160868303Y-114647061D01*
X160841098Y-114604702D01*
X160811943Y-114563760D01*
X160780905Y-114524303D01*
X160748049Y-114486397D01*
X160713442Y-114450108D01*
X160677152Y-114415504D01*
X160639243Y-114382650D01*
X160599784Y-114351613D01*
X160558840Y-114322459D01*
X160516478Y-114295256D01*
X160472764Y-114270069D01*
X160427766Y-114246966D01*
X160381548Y-114226012D01*
X160334179Y-114207274D01*
X160285725Y-114190818D01*
X160236251Y-114176712D01*
X160185825Y-114165021D01*
X160134512Y-114155813D01*
X160082381Y-114149153D01*
X160029496Y-114145108D01*
X159975925Y-114143745D01*
X160508454Y-114143745D01*
X160548990Y-114165683D01*
X160588576Y-114189149D01*
X160627169Y-114214103D01*
X160664730Y-114240503D01*
X160701216Y-114268308D01*
X160736586Y-114297478D01*
X160770799Y-114327969D01*
X160803813Y-114359742D01*
X160835588Y-114392755D01*
X160866081Y-114426966D01*
X160895252Y-114462334D01*
X160923059Y-114498818D01*
X160949461Y-114536376D01*
X160974417Y-114574968D01*
X160997884Y-114614551D01*
X161019823Y-114655085D01*
X161019823Y-114143745D01*
X160508454Y-114143745D01*
X159975925Y-114143745D01*
X159922354Y-114145108D01*
X159869469Y-114149153D01*
X159817338Y-114155813D01*
X159766025Y-114165021D01*
X159715599Y-114176712D01*
X159666125Y-114190818D01*
X159617671Y-114207274D01*
X159570301Y-114226012D01*
X159524084Y-114246966D01*
X159479085Y-114270069D01*
X159435372Y-114295256D01*
X159393010Y-114322459D01*
X159352066Y-114351613D01*
X159312606Y-114382650D01*
X159274698Y-114415504D01*
X159238407Y-114450108D01*
X159203801Y-114486397D01*
X159170945Y-114524303D01*
X159139906Y-114563760D01*
X159110751Y-114604702D01*
X159083546Y-114647061D01*
X159058358Y-114690772D01*
X159035253Y-114735769D01*
X159014298Y-114781983D01*
X158995559Y-114829350D01*
X158979102Y-114877802D01*
X158964995Y-114927273D01*
X158953304Y-114977696D01*
X158944095Y-115029005D01*
X158937435Y-115081134D01*
X158933390Y-115134015D01*
X158932027Y-115187583D01*
X158805066Y-115187583D01*
X158805066Y-114655085D01*
X158932027Y-114655085D01*
X158953965Y-114614551D01*
X158977433Y-114574968D01*
X159002388Y-114536376D01*
X159028790Y-114498818D01*
X159056597Y-114462334D01*
X159085768Y-114426966D01*
X159116262Y-114392755D01*
X159148036Y-114359742D01*
X159181051Y-114327969D01*
X159215263Y-114297478D01*
X159250634Y-114268308D01*
X159287120Y-114240503D01*
X159324680Y-114214103D01*
X159363274Y-114189149D01*
X159402859Y-114165683D01*
X159443396Y-114143745D01*
X158932027Y-114143745D01*
X158932027Y-114655085D01*
X158805066Y-114655085D01*
X158805066Y-114016792D01*
X161150310Y-114016792D01*
X161150310Y-116361901D01*
G36*
X161150310Y-116361901D02*
G01*
X158805066Y-116361901D01*
X158805066Y-116231421D01*
X158932027Y-116231421D01*
X159443396Y-116231421D01*
X159402859Y-116209484D01*
X159363274Y-116186018D01*
X159324680Y-116161064D01*
X159287120Y-116134664D01*
X159250634Y-116106858D01*
X159215263Y-116077689D01*
X159181051Y-116047197D01*
X159148036Y-116015425D01*
X159116262Y-115982412D01*
X159085768Y-115948201D01*
X159056597Y-115912833D01*
X159028790Y-115876349D01*
X159002388Y-115838791D01*
X158977433Y-115800199D01*
X158953965Y-115760616D01*
X158932027Y-115720082D01*
X158932027Y-116231421D01*
X158805066Y-116231421D01*
X158805066Y-115720082D01*
X158805066Y-115187583D01*
X158932027Y-115187583D01*
X158933390Y-115241151D01*
X158937435Y-115294033D01*
X158944095Y-115346162D01*
X158953304Y-115397471D01*
X158964995Y-115447894D01*
X158979102Y-115497365D01*
X158995559Y-115545817D01*
X159014298Y-115593184D01*
X159035253Y-115639398D01*
X159058358Y-115684394D01*
X159083546Y-115728105D01*
X159110751Y-115770465D01*
X159139906Y-115811407D01*
X159170945Y-115850864D01*
X159203801Y-115888770D01*
X159238407Y-115925059D01*
X159274698Y-115959663D01*
X159312606Y-115992517D01*
X159352066Y-116023554D01*
X159393010Y-116052707D01*
X159435372Y-116079911D01*
X159479085Y-116105098D01*
X159524084Y-116128201D01*
X159570301Y-116149155D01*
X159617671Y-116167893D01*
X159666125Y-116184349D01*
X159715599Y-116198455D01*
X159766025Y-116210145D01*
X159817338Y-116219354D01*
X159869469Y-116226014D01*
X159922354Y-116230058D01*
X159975925Y-116231421D01*
X160508454Y-116231421D01*
X161019823Y-116231421D01*
X161019823Y-115720082D01*
X160997884Y-115760616D01*
X160974417Y-115800199D01*
X160949461Y-115838791D01*
X160923059Y-115876349D01*
X160895252Y-115912833D01*
X160866081Y-115948201D01*
X160835588Y-115982412D01*
X160803813Y-116015425D01*
X160770799Y-116047197D01*
X160736586Y-116077689D01*
X160701216Y-116106858D01*
X160664730Y-116134664D01*
X160627169Y-116161064D01*
X160588576Y-116186018D01*
X160548990Y-116209484D01*
X160508454Y-116231421D01*
X159975925Y-116231421D01*
X160029496Y-116230058D01*
X160082381Y-116226014D01*
X160134512Y-116219354D01*
X160185825Y-116210145D01*
X160236251Y-116198455D01*
X160285725Y-116184349D01*
X160334179Y-116167893D01*
X160381548Y-116149155D01*
X160427766Y-116128201D01*
X160472764Y-116105098D01*
X160516478Y-116079911D01*
X160558840Y-116052707D01*
X160599784Y-116023554D01*
X160639243Y-115992517D01*
X160677152Y-115959663D01*
X160713442Y-115925059D01*
X160748049Y-115888770D01*
X160780905Y-115850864D01*
X160811943Y-115811407D01*
X160841098Y-115770465D01*
X160868303Y-115728105D01*
X160893492Y-115684394D01*
X160916597Y-115639398D01*
X160937552Y-115593184D01*
X160956291Y-115545817D01*
X160972747Y-115497365D01*
X160986854Y-115447894D01*
X160998545Y-115397471D01*
X161007754Y-115346162D01*
X161014415Y-115294033D01*
X161018460Y-115241151D01*
X161019823Y-115187583D01*
X161018460Y-115134015D01*
X161014415Y-115081134D01*
X161007754Y-115029005D01*
X160998545Y-114977696D01*
X160986854Y-114927273D01*
X160972747Y-114877802D01*
X160956291Y-114829350D01*
X160937552Y-114781983D01*
X160916597Y-114735769D01*
X160893492Y-114690772D01*
X160868303Y-114647061D01*
X160841098Y-114604702D01*
X160811943Y-114563760D01*
X160780905Y-114524303D01*
X160748049Y-114486397D01*
X160713442Y-114450108D01*
X160677152Y-114415504D01*
X160639243Y-114382650D01*
X160599784Y-114351613D01*
X160558840Y-114322459D01*
X160516478Y-114295256D01*
X160472764Y-114270069D01*
X160427766Y-114246966D01*
X160381548Y-114226012D01*
X160334179Y-114207274D01*
X160285725Y-114190818D01*
X160236251Y-114176712D01*
X160185825Y-114165021D01*
X160134512Y-114155813D01*
X160082381Y-114149153D01*
X160029496Y-114145108D01*
X159975925Y-114143745D01*
X160508454Y-114143745D01*
X160548990Y-114165683D01*
X160588576Y-114189149D01*
X160627169Y-114214103D01*
X160664730Y-114240503D01*
X160701216Y-114268308D01*
X160736586Y-114297478D01*
X160770799Y-114327969D01*
X160803813Y-114359742D01*
X160835588Y-114392755D01*
X160866081Y-114426966D01*
X160895252Y-114462334D01*
X160923059Y-114498818D01*
X160949461Y-114536376D01*
X160974417Y-114574968D01*
X160997884Y-114614551D01*
X161019823Y-114655085D01*
X161019823Y-114143745D01*
X160508454Y-114143745D01*
X159975925Y-114143745D01*
X159922354Y-114145108D01*
X159869469Y-114149153D01*
X159817338Y-114155813D01*
X159766025Y-114165021D01*
X159715599Y-114176712D01*
X159666125Y-114190818D01*
X159617671Y-114207274D01*
X159570301Y-114226012D01*
X159524084Y-114246966D01*
X159479085Y-114270069D01*
X159435372Y-114295256D01*
X159393010Y-114322459D01*
X159352066Y-114351613D01*
X159312606Y-114382650D01*
X159274698Y-114415504D01*
X159238407Y-114450108D01*
X159203801Y-114486397D01*
X159170945Y-114524303D01*
X159139906Y-114563760D01*
X159110751Y-114604702D01*
X159083546Y-114647061D01*
X159058358Y-114690772D01*
X159035253Y-114735769D01*
X159014298Y-114781983D01*
X158995559Y-114829350D01*
X158979102Y-114877802D01*
X158964995Y-114927273D01*
X158953304Y-114977696D01*
X158944095Y-115029005D01*
X158937435Y-115081134D01*
X158933390Y-115134015D01*
X158932027Y-115187583D01*
X158805066Y-115187583D01*
X158805066Y-114655085D01*
X158805066Y-114143745D01*
X158932027Y-114143745D01*
X158932027Y-114655085D01*
X158953965Y-114614551D01*
X158977433Y-114574968D01*
X159002388Y-114536376D01*
X159028790Y-114498818D01*
X159056597Y-114462334D01*
X159085768Y-114426966D01*
X159116262Y-114392755D01*
X159148036Y-114359742D01*
X159181051Y-114327969D01*
X159215263Y-114297478D01*
X159250634Y-114268308D01*
X159287120Y-114240503D01*
X159324680Y-114214103D01*
X159363274Y-114189149D01*
X159402859Y-114165683D01*
X159443396Y-114143745D01*
X158932027Y-114143745D01*
X158805066Y-114143745D01*
X158805066Y-114016792D01*
X161150310Y-114016792D01*
X161150310Y-116361901D01*
G37*
X155888500Y-114316543D02*
X155927668Y-114282376D01*
X155968422Y-114250001D01*
X156010695Y-114219476D01*
X156054420Y-114190857D01*
X156099529Y-114164201D01*
X156145955Y-114139564D01*
X156193632Y-114117005D01*
X156242491Y-114096578D01*
X156292467Y-114078342D01*
X156343491Y-114062354D01*
X156395496Y-114048669D01*
X156448416Y-114037345D01*
X156502184Y-114028438D01*
X156556731Y-114022006D01*
X156611991Y-114018105D01*
X156667897Y-114016792D01*
X156723764Y-114018105D01*
X156778919Y-114022006D01*
X156833308Y-114028438D01*
X156886882Y-114037345D01*
X156939588Y-114048669D01*
X156991374Y-114062354D01*
X157042189Y-114078343D01*
X157091981Y-114096579D01*
X157140698Y-114117005D01*
X157188289Y-114139564D01*
X157234703Y-114164201D01*
X157279887Y-114190857D01*
X157323789Y-114219476D01*
X157366359Y-114250001D01*
X157407545Y-114282376D01*
X157447294Y-114316543D01*
X157778802Y-113985054D01*
X157870496Y-114076742D01*
X157538987Y-114408231D01*
X157573156Y-114447397D01*
X157605533Y-114488149D01*
X157636060Y-114530419D01*
X157664681Y-114574141D01*
X157691338Y-114619248D01*
X157715976Y-114665671D01*
X157738537Y-114713345D01*
X157758964Y-114762202D01*
X157777201Y-114812174D01*
X157793191Y-114863195D01*
X157806877Y-114915198D01*
X157818201Y-114968115D01*
X157827109Y-115021879D01*
X157833541Y-115076424D01*
X157837442Y-115131681D01*
X157838755Y-115187583D01*
X157837442Y-115243447D01*
X157833541Y-115298599D01*
X157827109Y-115352985D01*
X157818201Y-115406556D01*
X157806877Y-115459258D01*
X157793191Y-115511041D01*
X157777201Y-115561853D01*
X157758964Y-115611643D01*
X157738537Y-115660357D01*
X157715976Y-115707946D01*
X157691338Y-115754357D01*
X157664681Y-115799538D01*
X157636060Y-115843438D01*
X157605533Y-115886006D01*
X157573156Y-115927189D01*
X157538987Y-115966936D01*
X157870496Y-116298424D01*
X157778802Y-116390113D01*
X157447294Y-116058624D01*
X157408126Y-116092791D01*
X157367372Y-116125166D01*
X157325099Y-116155691D01*
X157281374Y-116184310D01*
X157236265Y-116210966D01*
X157189839Y-116235603D01*
X157142163Y-116258162D01*
X157093303Y-116278588D01*
X157043328Y-116296824D01*
X156992304Y-116312813D01*
X156940298Y-116326498D01*
X156887378Y-116337822D01*
X156833611Y-116346729D01*
X156779063Y-116353161D01*
X156723803Y-116357062D01*
X156667897Y-116358375D01*
X156612030Y-116357062D01*
X156556876Y-116353161D01*
X156502486Y-116346729D01*
X156448912Y-116337822D01*
X156396207Y-116326498D01*
X156344420Y-116312813D01*
X156293606Y-116296824D01*
X156243814Y-116278588D01*
X156195096Y-116258162D01*
X156147505Y-116235602D01*
X156101091Y-116210966D01*
X156055908Y-116184310D01*
X156012005Y-116155691D01*
X155969435Y-116125166D01*
X155928250Y-116092791D01*
X155888500Y-116058624D01*
X155556992Y-116390113D01*
X155465299Y-116298424D01*
X155796807Y-115966936D01*
X155980194Y-115966936D01*
X156015233Y-115996599D01*
X156051547Y-116024723D01*
X156089092Y-116051256D01*
X156127819Y-116076146D01*
X156167683Y-116099342D01*
X156208636Y-116120792D01*
X156250634Y-116140444D01*
X156293628Y-116158247D01*
X156337573Y-116174149D01*
X156382422Y-116188098D01*
X156428128Y-116200043D01*
X156474646Y-116209932D01*
X156521928Y-116217714D01*
X156569928Y-116223336D01*
X156618600Y-116226747D01*
X156667897Y-116227895D01*
X156671424Y-116227895D01*
X156720140Y-116226747D01*
X156768380Y-116223336D01*
X156816083Y-116217714D01*
X156863187Y-116209932D01*
X156909630Y-116200043D01*
X156955349Y-116188098D01*
X157000283Y-116174149D01*
X157044370Y-116158247D01*
X157087548Y-116140444D01*
X157129755Y-116120792D01*
X157170928Y-116099342D01*
X157211006Y-116076146D01*
X157249927Y-116051256D01*
X157287629Y-116024723D01*
X157324049Y-115996599D01*
X157359127Y-115966936D01*
X156667897Y-115279272D01*
X155980194Y-115966936D01*
X155796807Y-115966936D01*
X155762638Y-115927770D01*
X155730261Y-115887018D01*
X155699734Y-115844748D01*
X155671114Y-115801026D01*
X155644456Y-115755919D01*
X155619818Y-115709496D01*
X155597257Y-115661822D01*
X155576830Y-115612965D01*
X155558593Y-115562993D01*
X155542603Y-115511971D01*
X155528917Y-115459969D01*
X155517593Y-115407052D01*
X155508686Y-115353288D01*
X155502253Y-115298743D01*
X155498352Y-115243486D01*
X155497039Y-115187584D01*
X155627526Y-115187584D01*
X155628675Y-115236297D01*
X155632086Y-115284534D01*
X155637708Y-115332235D01*
X155645490Y-115379336D01*
X155655380Y-115425776D01*
X155667325Y-115471493D01*
X155681275Y-115516424D01*
X155697178Y-115560509D01*
X155714982Y-115603684D01*
X155734635Y-115645888D01*
X155756086Y-115687059D01*
X155779283Y-115727135D01*
X155804175Y-115766054D01*
X155830710Y-115803753D01*
X155858835Y-115840172D01*
X155888500Y-115875247D01*
X156576204Y-115187584D01*
X156572677Y-115184057D01*
X156759591Y-115184057D01*
X157450821Y-115875247D01*
X157480486Y-115839590D01*
X157508611Y-115802734D01*
X157535146Y-115764721D01*
X157560038Y-115725592D01*
X157583235Y-115685389D01*
X157604686Y-115644153D01*
X157624339Y-115601924D01*
X157642143Y-115558746D01*
X157658046Y-115514658D01*
X157671996Y-115469702D01*
X157683941Y-115423920D01*
X157693831Y-115377352D01*
X157701613Y-115330041D01*
X157707235Y-115282027D01*
X157710646Y-115233352D01*
X157711795Y-115184057D01*
X157711795Y-115180531D01*
X157710646Y-115131818D01*
X157707235Y-115083580D01*
X157701613Y-115035880D01*
X157693831Y-114988778D01*
X157683941Y-114942338D01*
X157671996Y-114896622D01*
X157658046Y-114851690D01*
X157642143Y-114807606D01*
X157624339Y-114764430D01*
X157604686Y-114722226D01*
X157583235Y-114681055D01*
X157560038Y-114640979D01*
X157535146Y-114602061D01*
X157508611Y-114564361D01*
X157480486Y-114527942D01*
X157450821Y-114492867D01*
X156759591Y-115184057D01*
X156572677Y-115184057D01*
X155888500Y-114499920D01*
X155858835Y-114534995D01*
X155830710Y-114571414D01*
X155804175Y-114609114D01*
X155779283Y-114648032D01*
X155756086Y-114688108D01*
X155734635Y-114729279D01*
X155714982Y-114771483D01*
X155697178Y-114814658D01*
X155681275Y-114858743D01*
X155667325Y-114903675D01*
X155655380Y-114949391D01*
X155645490Y-114995831D01*
X155637708Y-115042933D01*
X155632086Y-115090633D01*
X155628675Y-115138871D01*
X155627526Y-115187584D01*
X155497039Y-115187584D01*
X155497039Y-115187583D01*
X155498352Y-115131719D01*
X155502253Y-115076568D01*
X155508686Y-115022182D01*
X155517593Y-114968611D01*
X155528917Y-114915908D01*
X155542603Y-114864125D01*
X155558593Y-114813313D01*
X155576830Y-114763524D01*
X155597257Y-114714809D01*
X155619818Y-114667221D01*
X155644456Y-114620810D01*
X155671114Y-114575629D01*
X155699734Y-114531729D01*
X155730261Y-114489161D01*
X155762638Y-114447978D01*
X155796807Y-114408231D01*
X155793280Y-114404705D01*
X155976667Y-114404705D01*
X156664370Y-115092368D01*
X157355600Y-114404705D01*
X157320561Y-114375041D01*
X157284247Y-114346917D01*
X157246703Y-114320384D01*
X157207975Y-114295494D01*
X157168112Y-114272298D01*
X157127158Y-114250848D01*
X157085161Y-114231196D01*
X157042166Y-114213393D01*
X156998221Y-114197491D01*
X156953372Y-114183542D01*
X156907666Y-114171597D01*
X156861148Y-114161708D01*
X156813866Y-114153927D01*
X156765866Y-114148305D01*
X156717194Y-114144894D01*
X156667897Y-114143745D01*
X156618560Y-114144894D01*
X156569777Y-114148305D01*
X156521603Y-114153927D01*
X156474095Y-114161708D01*
X156427310Y-114171597D01*
X156381306Y-114183542D01*
X156336138Y-114197491D01*
X156291865Y-114213393D01*
X156248541Y-114231196D01*
X156206225Y-114250848D01*
X156164974Y-114272298D01*
X156124843Y-114295494D01*
X156085890Y-114320384D01*
X156048172Y-114346917D01*
X156011746Y-114375041D01*
X155976667Y-114404705D01*
X155793280Y-114404705D01*
X155465299Y-114076742D01*
X155556992Y-113985054D01*
X155888500Y-114316543D01*
G36*
X157870496Y-114076742D02*
G01*
X157538987Y-114408231D01*
X157573156Y-114447397D01*
X157605533Y-114488149D01*
X157636060Y-114530419D01*
X157664681Y-114574141D01*
X157691338Y-114619248D01*
X157715976Y-114665671D01*
X157738537Y-114713345D01*
X157758964Y-114762202D01*
X157777201Y-114812174D01*
X157793191Y-114863195D01*
X157806877Y-114915198D01*
X157818201Y-114968115D01*
X157827109Y-115021879D01*
X157833541Y-115076424D01*
X157837442Y-115131681D01*
X157838755Y-115187583D01*
X157837442Y-115243447D01*
X157833541Y-115298599D01*
X157827109Y-115352985D01*
X157818201Y-115406556D01*
X157806877Y-115459258D01*
X157793191Y-115511041D01*
X157777201Y-115561853D01*
X157758964Y-115611643D01*
X157738537Y-115660357D01*
X157715976Y-115707946D01*
X157691338Y-115754357D01*
X157664681Y-115799538D01*
X157636060Y-115843438D01*
X157605533Y-115886006D01*
X157573156Y-115927189D01*
X157538987Y-115966936D01*
X157870496Y-116298424D01*
X157778802Y-116390113D01*
X157447294Y-116058624D01*
X157408126Y-116092791D01*
X157367372Y-116125166D01*
X157325099Y-116155691D01*
X157281374Y-116184310D01*
X157236265Y-116210966D01*
X157189839Y-116235603D01*
X157142163Y-116258162D01*
X157093303Y-116278588D01*
X157043328Y-116296824D01*
X156992304Y-116312813D01*
X156940298Y-116326498D01*
X156887378Y-116337822D01*
X156833611Y-116346729D01*
X156779063Y-116353161D01*
X156723803Y-116357062D01*
X156667897Y-116358375D01*
X156612030Y-116357062D01*
X156556876Y-116353161D01*
X156502486Y-116346729D01*
X156448912Y-116337822D01*
X156396207Y-116326498D01*
X156344420Y-116312813D01*
X156293606Y-116296824D01*
X156243814Y-116278588D01*
X156195096Y-116258162D01*
X156147505Y-116235602D01*
X156101091Y-116210966D01*
X156055908Y-116184310D01*
X156012005Y-116155691D01*
X155969435Y-116125166D01*
X155928250Y-116092791D01*
X155888500Y-116058624D01*
X155556992Y-116390113D01*
X155465299Y-116298424D01*
X155796807Y-115966936D01*
X155980194Y-115966936D01*
X156015233Y-115996599D01*
X156051547Y-116024723D01*
X156089092Y-116051256D01*
X156127819Y-116076146D01*
X156167683Y-116099342D01*
X156208636Y-116120792D01*
X156250634Y-116140444D01*
X156293628Y-116158247D01*
X156337573Y-116174149D01*
X156382422Y-116188098D01*
X156428128Y-116200043D01*
X156474646Y-116209932D01*
X156521928Y-116217714D01*
X156569928Y-116223336D01*
X156618600Y-116226747D01*
X156667897Y-116227895D01*
X156671424Y-116227895D01*
X156720140Y-116226747D01*
X156768380Y-116223336D01*
X156816083Y-116217714D01*
X156863187Y-116209932D01*
X156909630Y-116200043D01*
X156955349Y-116188098D01*
X157000283Y-116174149D01*
X157044370Y-116158247D01*
X157087548Y-116140444D01*
X157129755Y-116120792D01*
X157170928Y-116099342D01*
X157211006Y-116076146D01*
X157249927Y-116051256D01*
X157287629Y-116024723D01*
X157324049Y-115996599D01*
X157359127Y-115966936D01*
X156667897Y-115279272D01*
X155980194Y-115966936D01*
X155796807Y-115966936D01*
X155762638Y-115927770D01*
X155730261Y-115887018D01*
X155699734Y-115844748D01*
X155671114Y-115801026D01*
X155644456Y-115755919D01*
X155619818Y-115709496D01*
X155597257Y-115661822D01*
X155576830Y-115612965D01*
X155558593Y-115562993D01*
X155542603Y-115511971D01*
X155528917Y-115459969D01*
X155517593Y-115407052D01*
X155508686Y-115353288D01*
X155502253Y-115298743D01*
X155498352Y-115243486D01*
X155497039Y-115187584D01*
X155627526Y-115187584D01*
X155628675Y-115236297D01*
X155632086Y-115284534D01*
X155637708Y-115332235D01*
X155645490Y-115379336D01*
X155655380Y-115425776D01*
X155667325Y-115471493D01*
X155681275Y-115516424D01*
X155697178Y-115560509D01*
X155714982Y-115603684D01*
X155734635Y-115645888D01*
X155756086Y-115687059D01*
X155779283Y-115727135D01*
X155804175Y-115766054D01*
X155830710Y-115803753D01*
X155858835Y-115840172D01*
X155888500Y-115875247D01*
X156576204Y-115187584D01*
X156572677Y-115184057D01*
X156759591Y-115184057D01*
X157450821Y-115875247D01*
X157480486Y-115839590D01*
X157508611Y-115802734D01*
X157535146Y-115764721D01*
X157560038Y-115725592D01*
X157583235Y-115685389D01*
X157604686Y-115644153D01*
X157624339Y-115601924D01*
X157642143Y-115558746D01*
X157658046Y-115514658D01*
X157671996Y-115469702D01*
X157683941Y-115423920D01*
X157693831Y-115377352D01*
X157701613Y-115330041D01*
X157707235Y-115282027D01*
X157710646Y-115233352D01*
X157711795Y-115184057D01*
X157711795Y-115180531D01*
X157710646Y-115131818D01*
X157707235Y-115083580D01*
X157701613Y-115035880D01*
X157693831Y-114988778D01*
X157683941Y-114942338D01*
X157671996Y-114896622D01*
X157658046Y-114851690D01*
X157642143Y-114807606D01*
X157624339Y-114764430D01*
X157604686Y-114722226D01*
X157583235Y-114681055D01*
X157560038Y-114640979D01*
X157535146Y-114602061D01*
X157508611Y-114564361D01*
X157480486Y-114527942D01*
X157450821Y-114492867D01*
X156759591Y-115184057D01*
X156572677Y-115184057D01*
X155888500Y-114499920D01*
X155858835Y-114534995D01*
X155830710Y-114571414D01*
X155804175Y-114609114D01*
X155779283Y-114648032D01*
X155756086Y-114688108D01*
X155734635Y-114729279D01*
X155714982Y-114771483D01*
X155697178Y-114814658D01*
X155681275Y-114858743D01*
X155667325Y-114903675D01*
X155655380Y-114949391D01*
X155645490Y-114995831D01*
X155637708Y-115042933D01*
X155632086Y-115090633D01*
X155628675Y-115138871D01*
X155627526Y-115187584D01*
X155497039Y-115187584D01*
X155497039Y-115187583D01*
X155498352Y-115131719D01*
X155502253Y-115076568D01*
X155508686Y-115022182D01*
X155517593Y-114968611D01*
X155528917Y-114915908D01*
X155542603Y-114864125D01*
X155558593Y-114813313D01*
X155576830Y-114763524D01*
X155597257Y-114714809D01*
X155619818Y-114667221D01*
X155644456Y-114620810D01*
X155671114Y-114575629D01*
X155699734Y-114531729D01*
X155730261Y-114489161D01*
X155762638Y-114447978D01*
X155796807Y-114408231D01*
X155793280Y-114404705D01*
X155976667Y-114404705D01*
X156664370Y-115092368D01*
X157355600Y-114404705D01*
X157320561Y-114375041D01*
X157284247Y-114346917D01*
X157246703Y-114320384D01*
X157207975Y-114295494D01*
X157168112Y-114272298D01*
X157127158Y-114250848D01*
X157085161Y-114231196D01*
X157042166Y-114213393D01*
X156998221Y-114197491D01*
X156953372Y-114183542D01*
X156907666Y-114171597D01*
X156861148Y-114161708D01*
X156813866Y-114153927D01*
X156765866Y-114148305D01*
X156717194Y-114144894D01*
X156667897Y-114143745D01*
X156618560Y-114144894D01*
X156569777Y-114148305D01*
X156521603Y-114153927D01*
X156474095Y-114161708D01*
X156427310Y-114171597D01*
X156381306Y-114183542D01*
X156336138Y-114197491D01*
X156291865Y-114213393D01*
X156248541Y-114231196D01*
X156206225Y-114250848D01*
X156164974Y-114272298D01*
X156124843Y-114295494D01*
X156085890Y-114320384D01*
X156048172Y-114346917D01*
X156011746Y-114375041D01*
X155976667Y-114404705D01*
X155793280Y-114404705D01*
X155465299Y-114076742D01*
X155556992Y-113985054D01*
X155888500Y-114316543D01*
X155927668Y-114282376D01*
X155968422Y-114250001D01*
X156010695Y-114219476D01*
X156054420Y-114190857D01*
X156099529Y-114164201D01*
X156145955Y-114139564D01*
X156193632Y-114117005D01*
X156242491Y-114096578D01*
X156292467Y-114078342D01*
X156343491Y-114062354D01*
X156395496Y-114048669D01*
X156448416Y-114037345D01*
X156502184Y-114028438D01*
X156556731Y-114022006D01*
X156611991Y-114018105D01*
X156667897Y-114016792D01*
X156723764Y-114018105D01*
X156778919Y-114022006D01*
X156833308Y-114028438D01*
X156886882Y-114037345D01*
X156939588Y-114048669D01*
X156991374Y-114062354D01*
X157042189Y-114078343D01*
X157091981Y-114096579D01*
X157140698Y-114117005D01*
X157188289Y-114139564D01*
X157234703Y-114164201D01*
X157279887Y-114190857D01*
X157323789Y-114219476D01*
X157366359Y-114250001D01*
X157407545Y-114282376D01*
X157447294Y-114316543D01*
X157778802Y-113985054D01*
X157870496Y-114076742D01*
G37*
X160670592Y-110728432D02*
X160677692Y-110728680D01*
X160692832Y-110729672D01*
X160710121Y-110731325D01*
X160730634Y-110733639D01*
X160752318Y-110736685D01*
X160773720Y-110740522D01*
X160794825Y-110745136D01*
X160815619Y-110750514D01*
X160836087Y-110756641D01*
X160856215Y-110763503D01*
X160875989Y-110771085D01*
X160895396Y-110779373D01*
X160914420Y-110788354D01*
X160933048Y-110798013D01*
X160969057Y-110819308D01*
X161003309Y-110843144D01*
X161035692Y-110869409D01*
X161066091Y-110897987D01*
X161094392Y-110928767D01*
X161120482Y-110961633D01*
X161144248Y-110996472D01*
X161165575Y-111033171D01*
X161184350Y-111071617D01*
X161200459Y-111111694D01*
X161207479Y-111132310D01*
X161213789Y-111153290D01*
X161218446Y-111168333D01*
X161220330Y-111175421D01*
X161221945Y-111182384D01*
X161223312Y-111189347D01*
X161224452Y-111196435D01*
X161225386Y-111203770D01*
X161226133Y-111211477D01*
X161227152Y-111228504D01*
X161227676Y-111248505D01*
X161227896Y-111301403D01*
X161227717Y-111331205D01*
X161227478Y-111343904D01*
X161227125Y-111355347D01*
X161226648Y-111365695D01*
X161226037Y-111375107D01*
X161225281Y-111383745D01*
X161224370Y-111391769D01*
X161223294Y-111399337D01*
X161222042Y-111406612D01*
X161220604Y-111413752D01*
X161218970Y-111420917D01*
X161215071Y-111435967D01*
X161210263Y-111453041D01*
X161203591Y-111474190D01*
X161196722Y-111494119D01*
X161189543Y-111513016D01*
X161181940Y-111531065D01*
X161173800Y-111548453D01*
X161165009Y-111565365D01*
X161155454Y-111581989D01*
X161145020Y-111598509D01*
X161133594Y-111615111D01*
X161121063Y-111631983D01*
X161107313Y-111649308D01*
X161092230Y-111667275D01*
X161075700Y-111686068D01*
X161057611Y-111705873D01*
X161016296Y-111749266D01*
X160984281Y-111783869D01*
X160958547Y-111811861D01*
X160935183Y-111837428D01*
X160939202Y-111841047D01*
X160944523Y-111845224D01*
X160950960Y-111849856D01*
X160958326Y-111854840D01*
X160975106Y-111865447D01*
X160993373Y-111876219D01*
X161011640Y-111886330D01*
X161028419Y-111894953D01*
X161035786Y-111898449D01*
X161042223Y-111901262D01*
X161047544Y-111903291D01*
X161051563Y-111904431D01*
X161057130Y-111905670D01*
X161063204Y-111906745D01*
X161069711Y-111907654D01*
X161076580Y-111908398D01*
X161083739Y-111908977D01*
X161091114Y-111909390D01*
X161098634Y-111909638D01*
X161106226Y-111909720D01*
X161113819Y-111909638D01*
X161121339Y-111909390D01*
X161128714Y-111908977D01*
X161135873Y-111908398D01*
X161142742Y-111907654D01*
X161149249Y-111906745D01*
X161155322Y-111905670D01*
X161160890Y-111904431D01*
X161165108Y-111903132D01*
X161170994Y-111900656D01*
X161178317Y-111897147D01*
X161186844Y-111892749D01*
X161206578Y-111881867D01*
X161228338Y-111869166D01*
X161250262Y-111855804D01*
X161270492Y-111842938D01*
X161287168Y-111831725D01*
X161293592Y-111827100D01*
X161298430Y-111823322D01*
X161299214Y-111822713D01*
X161300235Y-111820932D01*
X161302949Y-111814120D01*
X161306489Y-111803423D01*
X161310774Y-111789379D01*
X161333697Y-111710474D01*
X161346702Y-111666834D01*
X161358384Y-111628484D01*
X161367421Y-111599390D01*
X161372491Y-111583521D01*
X161374597Y-111579678D01*
X161376941Y-111576082D01*
X161379512Y-111572735D01*
X161382300Y-111569636D01*
X161385294Y-111566784D01*
X161388485Y-111564181D01*
X161391862Y-111561825D01*
X161395414Y-111559717D01*
X161399132Y-111557858D01*
X161403005Y-111556246D01*
X161407022Y-111554882D01*
X161411174Y-111553766D01*
X161415450Y-111552899D01*
X161419839Y-111552279D01*
X161424332Y-111551907D01*
X161426832Y-111551839D01*
X161427734Y-111551874D01*
X161430131Y-111552145D01*
X161432574Y-111552588D01*
X161435054Y-111553195D01*
X161437562Y-111553959D01*
X161440090Y-111554874D01*
X161442629Y-111555933D01*
X161445172Y-111557128D01*
X161447710Y-111558451D01*
X161450234Y-111559897D01*
X161455208Y-111563127D01*
X161460027Y-111566759D01*
X161464624Y-111570738D01*
X161468932Y-111575005D01*
X161472883Y-111579506D01*
X161474704Y-111581825D01*
X161476410Y-111584181D01*
X161477994Y-111586567D01*
X161479447Y-111588976D01*
X161480761Y-111591400D01*
X161481926Y-111593833D01*
X161482935Y-111596267D01*
X161483780Y-111598695D01*
X161484451Y-111601110D01*
X161484941Y-111603505D01*
X161485242Y-111605873D01*
X161485343Y-111608206D01*
X161467931Y-111681656D01*
X161420100Y-111867843D01*
X161259636Y-112468667D01*
X161033928Y-113315023D01*
X158917919Y-113315023D01*
X158907339Y-113279758D01*
X158649010Y-112323200D01*
X158566441Y-112010225D01*
X158699266Y-112010225D01*
X158701305Y-112022223D01*
X158709626Y-112056620D01*
X158742468Y-112183023D01*
X158854440Y-112599147D01*
X159013140Y-113188069D01*
X160935182Y-113188069D01*
X161093883Y-112602674D01*
X161097410Y-112599147D01*
X161159403Y-112372240D01*
X161209823Y-112185667D01*
X161243713Y-112058604D01*
X161256111Y-112010225D01*
X161256060Y-112009915D01*
X161255909Y-112009645D01*
X161255661Y-112009416D01*
X161255319Y-112009226D01*
X161254368Y-112008962D01*
X161253080Y-112008847D01*
X161251483Y-112008877D01*
X161249602Y-112009047D01*
X161247462Y-112009351D01*
X161245090Y-112009784D01*
X161242511Y-112010341D01*
X161239752Y-112011017D01*
X161233794Y-112012704D01*
X161227422Y-112014805D01*
X161224146Y-112015998D01*
X161220844Y-112017278D01*
X161215627Y-112019761D01*
X161210512Y-112021934D01*
X161205439Y-112023818D01*
X161200345Y-112025433D01*
X161195169Y-112026800D01*
X161189848Y-112027940D01*
X161184320Y-112028873D01*
X161178524Y-112029620D01*
X161172397Y-112030202D01*
X161165878Y-112030640D01*
X161151413Y-112031163D01*
X161134634Y-112031356D01*
X161115044Y-112031384D01*
X161099147Y-112031833D01*
X161084413Y-112031838D01*
X161070681Y-112031368D01*
X161057791Y-112030392D01*
X161045582Y-112028878D01*
X161033896Y-112026797D01*
X161022571Y-112024115D01*
X161011448Y-112020804D01*
X161000366Y-112016832D01*
X160989165Y-112012167D01*
X160977685Y-112006779D01*
X160965766Y-112000637D01*
X160953248Y-111993710D01*
X160939970Y-111985966D01*
X160910496Y-111967907D01*
X160898656Y-111960165D01*
X160887187Y-111952919D01*
X160876462Y-111946335D01*
X160866854Y-111940577D01*
X160858732Y-111935811D01*
X160852471Y-111932201D01*
X160847016Y-111929116D01*
X160744301Y-112030061D01*
X160501401Y-112271184D01*
X160417360Y-112354904D01*
X160344849Y-112426515D01*
X160283498Y-112486472D01*
X160232932Y-112535230D01*
X160192782Y-112573243D01*
X160162674Y-112600965D01*
X160142237Y-112618853D01*
X160135529Y-112624250D01*
X160131099Y-112627359D01*
X160123508Y-112630499D01*
X160115333Y-112633303D01*
X160106651Y-112635766D01*
X160097541Y-112637883D01*
X160088079Y-112639649D01*
X160078344Y-112641058D01*
X160068412Y-112642106D01*
X160058362Y-112642787D01*
X160048270Y-112643096D01*
X160038214Y-112643028D01*
X160028272Y-112642578D01*
X160018521Y-112641740D01*
X160009039Y-112640510D01*
X159999903Y-112638882D01*
X159991190Y-112636851D01*
X159982979Y-112634412D01*
X159978467Y-112633044D01*
X159974162Y-112631567D01*
X159970022Y-112629956D01*
X159966007Y-112628185D01*
X159962074Y-112626228D01*
X159958182Y-112624060D01*
X159954290Y-112621653D01*
X159950357Y-112618984D01*
X159946341Y-112616024D01*
X159942202Y-112612750D01*
X159937896Y-112609135D01*
X159933385Y-112605153D01*
X159928625Y-112600779D01*
X159923576Y-112595986D01*
X159912445Y-112585041D01*
X159873652Y-112546250D01*
X159834858Y-112581515D01*
X159831395Y-112585478D01*
X159827647Y-112589422D01*
X159823661Y-112593323D01*
X159819484Y-112597163D01*
X159815163Y-112600921D01*
X159810743Y-112604574D01*
X159806272Y-112608104D01*
X159801796Y-112611490D01*
X159797361Y-112614710D01*
X159793013Y-112617744D01*
X159784768Y-112623171D01*
X159777433Y-112627607D01*
X159774222Y-112629401D01*
X159771378Y-112630885D01*
X159765069Y-112633445D01*
X159758098Y-112635824D01*
X159750549Y-112638006D01*
X159742503Y-112639977D01*
X159734045Y-112641721D01*
X159725256Y-112643221D01*
X159716218Y-112644464D01*
X159707016Y-112645432D01*
X159697731Y-112646111D01*
X159688446Y-112646486D01*
X159679243Y-112646540D01*
X159670206Y-112646259D01*
X159661417Y-112645626D01*
X159652959Y-112644626D01*
X159644913Y-112643244D01*
X159637364Y-112641465D01*
X159633718Y-112640732D01*
X159630055Y-112639858D01*
X159622699Y-112637704D01*
X159615334Y-112635033D01*
X159607994Y-112631877D01*
X159600715Y-112628266D01*
X159593536Y-112624232D01*
X159586490Y-112619805D01*
X159579615Y-112615016D01*
X159572946Y-112609897D01*
X159566521Y-112604478D01*
X159560374Y-112598791D01*
X159554542Y-112592865D01*
X159549062Y-112586734D01*
X159543969Y-112580426D01*
X159539300Y-112573974D01*
X159535090Y-112567409D01*
X159513930Y-112535670D01*
X159496296Y-112546250D01*
X159493605Y-112548112D01*
X159490800Y-112549742D01*
X159487850Y-112551155D01*
X159484725Y-112552366D01*
X159481392Y-112553391D01*
X159477823Y-112554246D01*
X159473984Y-112554946D01*
X159469846Y-112555507D01*
X159465378Y-112555943D01*
X159460547Y-112556271D01*
X159449678Y-112556664D01*
X159436990Y-112556809D01*
X159422236Y-112556829D01*
X159414002Y-112556787D01*
X159406456Y-112556657D01*
X159399539Y-112556434D01*
X159393196Y-112556113D01*
X159387370Y-112555689D01*
X159382003Y-112555156D01*
X159377040Y-112554509D01*
X159372422Y-112553744D01*
X159368094Y-112552854D01*
X159363998Y-112551836D01*
X159360078Y-112550683D01*
X159356276Y-112549391D01*
X159352537Y-112547954D01*
X159348803Y-112546367D01*
X159345017Y-112544625D01*
X159341123Y-112542724D01*
X159333323Y-112538283D01*
X159325795Y-112533563D01*
X159318544Y-112528575D01*
X159311573Y-112523328D01*
X159304886Y-112517833D01*
X159298487Y-112512101D01*
X159286569Y-112499965D01*
X159275850Y-112487002D01*
X159266360Y-112473296D01*
X159258130Y-112458928D01*
X159251192Y-112443982D01*
X159245577Y-112428540D01*
X159241315Y-112412684D01*
X159238437Y-112396499D01*
X159236975Y-112380065D01*
X159236960Y-112363465D01*
X159237504Y-112355130D01*
X159238422Y-112346783D01*
X159239716Y-112338437D01*
X159241392Y-112330102D01*
X159243453Y-112321786D01*
X159245902Y-112313502D01*
X159247183Y-112310201D01*
X159248382Y-112306925D01*
X159249498Y-112303700D01*
X159250531Y-112300553D01*
X159251481Y-112297510D01*
X159252349Y-112294596D01*
X159253837Y-112289258D01*
X159254994Y-112284746D01*
X159255821Y-112281268D01*
X159256482Y-112278237D01*
X159251156Y-112275432D01*
X159245778Y-112272328D01*
X159240380Y-112268955D01*
X159234991Y-112265344D01*
X159229645Y-112261526D01*
X159224370Y-112257533D01*
X159219199Y-112253395D01*
X159214162Y-112249144D01*
X159209290Y-112244810D01*
X159204615Y-112240424D01*
X159200167Y-112236018D01*
X159195977Y-112231622D01*
X159192077Y-112227267D01*
X159188497Y-112222985D01*
X159185268Y-112218806D01*
X159182422Y-112214761D01*
X159177376Y-112207683D01*
X159172806Y-112200951D01*
X159168690Y-112194498D01*
X159165009Y-112188257D01*
X159161740Y-112182161D01*
X159158865Y-112176142D01*
X159156361Y-112170133D01*
X159154208Y-112164068D01*
X159152386Y-112157878D01*
X159150874Y-112151498D01*
X159149652Y-112144859D01*
X159148698Y-112137895D01*
X159147992Y-112130538D01*
X159147513Y-112122721D01*
X159147241Y-112114378D01*
X159147158Y-112105733D01*
X159268964Y-112105733D01*
X159268997Y-112109318D01*
X159269302Y-112112869D01*
X159269868Y-112116379D01*
X159270685Y-112119838D01*
X159271745Y-112123238D01*
X159273038Y-112126571D01*
X159274553Y-112129828D01*
X159276281Y-112133002D01*
X159278213Y-112136083D01*
X159280339Y-112139064D01*
X159282648Y-112141935D01*
X159285132Y-112144689D01*
X159287781Y-112147317D01*
X159290584Y-112149811D01*
X159293533Y-112152162D01*
X159296618Y-112154361D01*
X159299828Y-112156402D01*
X159303155Y-112158274D01*
X159306588Y-112159970D01*
X159310118Y-112161482D01*
X159313735Y-112162800D01*
X159317430Y-112163917D01*
X159321192Y-112164825D01*
X159325013Y-112165513D01*
X159328882Y-112165976D01*
X159332789Y-112166203D01*
X159336726Y-112166187D01*
X159340683Y-112165919D01*
X159344648Y-112165390D01*
X159347941Y-112164000D01*
X159352639Y-112161044D01*
X159366911Y-112149797D01*
X159388787Y-112130366D01*
X159419590Y-112101473D01*
X159513268Y-112010170D01*
X159658523Y-111865639D01*
X159954764Y-111569415D01*
X159997085Y-111611733D01*
X160001628Y-111615696D01*
X160005991Y-111619633D01*
X160010157Y-111623518D01*
X160014112Y-111627326D01*
X160017839Y-111631031D01*
X160021324Y-111634607D01*
X160024550Y-111638027D01*
X160027502Y-111641267D01*
X160030165Y-111644300D01*
X160032524Y-111647101D01*
X160034562Y-111649643D01*
X160036264Y-111651902D01*
X160037615Y-111653850D01*
X160038599Y-111655463D01*
X160039201Y-111656714D01*
X160039354Y-111657195D01*
X160039405Y-111657577D01*
X160032531Y-111665615D01*
X160012845Y-111686175D01*
X159940658Y-111759404D01*
X159704370Y-111996119D01*
X159574048Y-112127095D01*
X159465878Y-112237242D01*
X159423716Y-112280889D01*
X159391432Y-112314990D01*
X159370472Y-112338098D01*
X159364690Y-112345078D01*
X159362282Y-112348767D01*
X159360462Y-112352743D01*
X159358965Y-112356729D01*
X159357784Y-112360715D01*
X159356909Y-112364691D01*
X159356335Y-112368647D01*
X159356052Y-112372571D01*
X159356053Y-112376454D01*
X159356331Y-112380285D01*
X159356877Y-112384054D01*
X159357684Y-112387751D01*
X159358744Y-112391366D01*
X159360050Y-112394887D01*
X159361594Y-112398305D01*
X159363367Y-112401609D01*
X159365362Y-112404790D01*
X159367572Y-112407836D01*
X159369988Y-112410737D01*
X159372604Y-112413484D01*
X159375410Y-112416065D01*
X159378400Y-112418470D01*
X159381565Y-112420690D01*
X159384899Y-112422713D01*
X159388392Y-112424530D01*
X159392038Y-112426129D01*
X159395829Y-112427502D01*
X159399756Y-112428636D01*
X159403813Y-112429523D01*
X159407991Y-112430152D01*
X159412283Y-112430512D01*
X159416680Y-112430593D01*
X159421176Y-112430384D01*
X159425762Y-112429876D01*
X159430462Y-112428901D01*
X159435591Y-112427032D01*
X159441578Y-112423871D01*
X159448851Y-112419021D01*
X159468971Y-112402663D01*
X159499382Y-112374775D01*
X159543514Y-112332175D01*
X159604797Y-112271680D01*
X159792537Y-112084281D01*
X160134625Y-111742213D01*
X160180472Y-111788057D01*
X160226319Y-111833901D01*
X159926551Y-112133652D01*
X159830642Y-112229597D01*
X159791501Y-112268834D01*
X159757711Y-112302813D01*
X159728881Y-112331956D01*
X159704618Y-112356688D01*
X159684529Y-112377432D01*
X159675927Y-112386441D01*
X159668222Y-112394611D01*
X159661363Y-112401997D01*
X159655303Y-112408650D01*
X159649992Y-112414624D01*
X159645381Y-112419972D01*
X159641420Y-112424746D01*
X159638062Y-112429000D01*
X159635257Y-112432786D01*
X159632955Y-112436158D01*
X159631107Y-112439168D01*
X159629666Y-112441869D01*
X159628580Y-112444315D01*
X159627802Y-112446558D01*
X159627283Y-112448651D01*
X159626972Y-112450648D01*
X159626822Y-112452600D01*
X159626783Y-112454562D01*
X159626855Y-112458797D01*
X159627071Y-112462909D01*
X159627428Y-112466895D01*
X159627926Y-112470755D01*
X159628564Y-112474488D01*
X159629340Y-112478094D01*
X159630253Y-112481573D01*
X159631301Y-112484922D01*
X159632484Y-112488143D01*
X159633800Y-112491234D01*
X159635248Y-112494195D01*
X159636826Y-112497024D01*
X159638533Y-112499722D01*
X159640368Y-112502287D01*
X159642330Y-112504719D01*
X159644416Y-112507018D01*
X159646627Y-112509182D01*
X159648961Y-112511212D01*
X159651416Y-112513105D01*
X159653991Y-112514863D01*
X159656685Y-112516484D01*
X159659496Y-112517967D01*
X159662424Y-112519312D01*
X159665466Y-112520518D01*
X159668623Y-112521584D01*
X159671891Y-112522511D01*
X159675271Y-112523297D01*
X159678760Y-112523941D01*
X159682358Y-112524443D01*
X159686063Y-112524803D01*
X159689874Y-112525019D01*
X159693790Y-112525091D01*
X159696696Y-112524708D01*
X159700341Y-112523349D01*
X159711148Y-112516440D01*
X159728816Y-112501845D01*
X159755948Y-112477043D01*
X159795148Y-112439512D01*
X159849019Y-112386732D01*
X160011191Y-112225340D01*
X160310959Y-111925590D01*
X160356806Y-111971434D01*
X160402653Y-112017278D01*
X160191052Y-112228867D01*
X159982978Y-112440456D01*
X159982978Y-112465141D01*
X159983741Y-112469687D01*
X159984705Y-112474064D01*
X159985862Y-112478271D01*
X159987207Y-112482305D01*
X159988733Y-112486164D01*
X159990433Y-112489844D01*
X159992300Y-112493343D01*
X159994329Y-112496659D01*
X159996514Y-112499789D01*
X159998846Y-112502730D01*
X160001321Y-112505481D01*
X160003931Y-112508037D01*
X160006671Y-112510398D01*
X160009533Y-112512559D01*
X160012511Y-112514519D01*
X160015600Y-112516275D01*
X160018791Y-112517824D01*
X160022080Y-112519164D01*
X160025458Y-112520293D01*
X160028921Y-112521207D01*
X160032461Y-112521904D01*
X160036073Y-112522381D01*
X160039748Y-112522636D01*
X160043482Y-112522667D01*
X160047268Y-112522470D01*
X160051099Y-112522043D01*
X160054968Y-112521384D01*
X160058870Y-112520490D01*
X160062798Y-112519359D01*
X160066745Y-112517987D01*
X160070705Y-112516372D01*
X160074671Y-112514512D01*
X160087910Y-112503602D01*
X160118424Y-112474839D01*
X160223674Y-112371689D01*
X160557827Y-112038437D01*
X160776206Y-111819354D01*
X160858428Y-111736179D01*
X160924161Y-111669038D01*
X160974520Y-111616775D01*
X161010620Y-111578231D01*
X161023672Y-111563743D01*
X161033578Y-111552251D01*
X161040477Y-111543611D01*
X161044509Y-111537677D01*
X161057313Y-111514037D01*
X161068627Y-111490096D01*
X161078469Y-111465906D01*
X161086857Y-111441518D01*
X161093808Y-111416983D01*
X161099341Y-111392352D01*
X161103474Y-111367675D01*
X161106226Y-111343004D01*
X161107613Y-111318390D01*
X161107655Y-111293884D01*
X161106369Y-111269537D01*
X161103774Y-111245399D01*
X161099887Y-111221523D01*
X161094726Y-111197958D01*
X161088310Y-111174756D01*
X161080657Y-111151968D01*
X161071785Y-111129645D01*
X161061712Y-111107838D01*
X161050455Y-111086598D01*
X161038034Y-111065976D01*
X161024466Y-111046023D01*
X161009769Y-111026789D01*
X160993961Y-111008327D01*
X160977061Y-110990687D01*
X160959086Y-110973920D01*
X160940055Y-110958076D01*
X160919985Y-110943208D01*
X160898896Y-110929366D01*
X160876803Y-110916601D01*
X160853727Y-110904964D01*
X160829685Y-110894506D01*
X160804695Y-110885278D01*
X160792198Y-110880898D01*
X160778617Y-110877013D01*
X160764105Y-110873624D01*
X160748819Y-110870731D01*
X160732913Y-110868334D01*
X160716541Y-110866433D01*
X160699860Y-110865028D01*
X160683024Y-110864119D01*
X160666188Y-110863706D01*
X160649507Y-110863789D01*
X160633136Y-110864367D01*
X160617230Y-110865442D01*
X160601943Y-110867012D01*
X160587432Y-110869078D01*
X160573850Y-110871641D01*
X160561354Y-110874699D01*
X160528181Y-110883515D01*
X160502709Y-110892551D01*
X160462607Y-110908200D01*
X160312392Y-110969914D01*
X160025298Y-111089814D01*
X159874140Y-111152113D01*
X159813943Y-111176963D01*
X159762946Y-111198088D01*
X159720360Y-111215845D01*
X159685393Y-111230591D01*
X159670521Y-111236946D01*
X159657256Y-111242681D01*
X159645502Y-111247842D01*
X159635159Y-111252473D01*
X159626128Y-111256618D01*
X159618310Y-111260322D01*
X159611606Y-111263630D01*
X159605919Y-111266586D01*
X159601148Y-111269234D01*
X159597196Y-111271620D01*
X159593963Y-111273787D01*
X159591351Y-111275781D01*
X159589260Y-111277645D01*
X159587592Y-111279425D01*
X159586249Y-111281165D01*
X159585131Y-111282909D01*
X159580936Y-111290823D01*
X159579665Y-111293158D01*
X159578498Y-111295529D01*
X159577433Y-111297935D01*
X159576473Y-111300370D01*
X159575615Y-111302830D01*
X159574861Y-111305313D01*
X159574210Y-111307814D01*
X159573662Y-111310329D01*
X159573218Y-111312855D01*
X159572877Y-111315386D01*
X159572639Y-111317921D01*
X159572505Y-111320454D01*
X159572474Y-111322982D01*
X159572546Y-111325501D01*
X159572722Y-111328007D01*
X159573001Y-111330496D01*
X159573383Y-111332965D01*
X159573869Y-111335409D01*
X159574458Y-111337824D01*
X159575150Y-111340208D01*
X159575946Y-111342555D01*
X159576844Y-111344862D01*
X159577847Y-111347125D01*
X159578952Y-111349341D01*
X159580161Y-111351505D01*
X159581473Y-111353613D01*
X159582889Y-111355662D01*
X159584408Y-111357647D01*
X159586030Y-111359566D01*
X159587755Y-111361413D01*
X159589584Y-111363186D01*
X159591516Y-111364879D01*
X159602661Y-111373840D01*
X159608301Y-111376959D01*
X159614550Y-111379040D01*
X159621832Y-111379985D01*
X159630571Y-111379695D01*
X159641191Y-111378072D01*
X159654115Y-111375018D01*
X159669766Y-111370435D01*
X159688569Y-111364225D01*
X159737322Y-111346531D01*
X159891284Y-111287297D01*
X159987056Y-111249552D01*
X160067618Y-111218090D01*
X160099510Y-111205850D01*
X160124376Y-111196545D01*
X160141142Y-111190629D01*
X160146151Y-111189083D01*
X160148732Y-111188555D01*
X160142250Y-111196504D01*
X160118700Y-111221726D01*
X160027502Y-111316390D01*
X159889356Y-111457339D01*
X159718477Y-111629365D01*
X159718477Y-111632892D01*
X159517566Y-111834507D01*
X159440379Y-111912648D01*
X159378152Y-111976283D01*
X159330473Y-112025867D01*
X159296928Y-112061855D01*
X159285327Y-112074892D01*
X159277104Y-112084701D01*
X159272209Y-112091338D01*
X159270992Y-112093485D01*
X159270588Y-112094861D01*
X159269750Y-112098496D01*
X159269211Y-112102123D01*
X159268964Y-112105733D01*
X159147158Y-112105733D01*
X159147155Y-112105440D01*
X159147368Y-112093894D01*
X159148036Y-112082993D01*
X159149201Y-112072640D01*
X159150902Y-112062737D01*
X159153182Y-112053184D01*
X159156082Y-112043885D01*
X159159643Y-112034741D01*
X159163906Y-112025653D01*
X159168914Y-112016525D01*
X159174707Y-112007256D01*
X159181326Y-111997751D01*
X159188813Y-111987909D01*
X159197210Y-111977633D01*
X159206557Y-111966826D01*
X159216896Y-111955388D01*
X159228268Y-111943222D01*
X159245654Y-111924570D01*
X159252538Y-111916970D01*
X159258245Y-111910382D01*
X159260663Y-111907435D01*
X159262795Y-111904703D01*
X159264642Y-111902172D01*
X159266208Y-111899830D01*
X159267494Y-111897663D01*
X159268505Y-111895659D01*
X159269241Y-111893805D01*
X159269707Y-111892088D01*
X159269904Y-111890495D01*
X159269834Y-111889013D01*
X159269501Y-111887629D01*
X159268908Y-111886330D01*
X159268056Y-111885103D01*
X159266948Y-111883936D01*
X159265587Y-111882816D01*
X159263976Y-111881729D01*
X159262117Y-111880663D01*
X159260012Y-111879604D01*
X159257664Y-111878540D01*
X159255077Y-111877459D01*
X159249191Y-111875189D01*
X159242375Y-111872692D01*
X159236642Y-111870888D01*
X159231230Y-111869496D01*
X159225962Y-111868601D01*
X159220664Y-111868284D01*
X159215159Y-111868629D01*
X159209271Y-111869717D01*
X159202826Y-111871632D01*
X159195646Y-111874456D01*
X159187558Y-111878271D01*
X159178385Y-111883162D01*
X159167951Y-111889209D01*
X159156081Y-111896496D01*
X159127331Y-111915120D01*
X159090728Y-111939695D01*
X159047429Y-111968086D01*
X159028658Y-111979911D01*
X159011488Y-111990278D01*
X158995681Y-111999282D01*
X158981001Y-112007015D01*
X158967209Y-112013571D01*
X158954069Y-112019041D01*
X158941341Y-112023520D01*
X158928790Y-112027100D01*
X158916176Y-112029874D01*
X158903263Y-112031935D01*
X158889812Y-112033376D01*
X158875586Y-112034291D01*
X158860348Y-112034771D01*
X158843860Y-112034910D01*
X158824270Y-112034738D01*
X158815560Y-112034515D01*
X158807491Y-112034194D01*
X158800000Y-112033770D01*
X158793026Y-112033237D01*
X158786507Y-112032590D01*
X158780380Y-112031825D01*
X158774583Y-112030935D01*
X158769056Y-112029917D01*
X158763735Y-112028764D01*
X158758558Y-112027472D01*
X158753464Y-112026035D01*
X158748391Y-112024448D01*
X158743277Y-112022706D01*
X158738059Y-112020804D01*
X158734137Y-112019523D01*
X158730317Y-112018325D01*
X158726622Y-112017209D01*
X158723071Y-112016176D01*
X158716486Y-112014358D01*
X158710728Y-112012870D01*
X158705961Y-112011713D01*
X158702352Y-112010886D01*
X158699266Y-112010225D01*
X158566441Y-112010225D01*
X158459451Y-111604680D01*
X158459552Y-111602346D01*
X158459853Y-111599978D01*
X158460343Y-111597583D01*
X158461014Y-111595168D01*
X158461859Y-111592740D01*
X158462868Y-111590306D01*
X158464033Y-111587874D01*
X158465347Y-111585450D01*
X158466800Y-111583041D01*
X158468383Y-111580655D01*
X158471911Y-111575979D01*
X158475862Y-111571479D01*
X158480170Y-111567211D01*
X158484767Y-111563233D01*
X158489586Y-111559600D01*
X158494560Y-111556371D01*
X158499622Y-111553601D01*
X158502165Y-111552406D01*
X158504704Y-111551348D01*
X158507232Y-111550433D01*
X158509740Y-111549668D01*
X158512220Y-111549061D01*
X158514663Y-111548619D01*
X158517060Y-111548348D01*
X158519404Y-111548256D01*
X158522038Y-111548297D01*
X158524649Y-111548419D01*
X158527235Y-111548620D01*
X158529791Y-111548897D01*
X158532317Y-111549249D01*
X158534809Y-111549674D01*
X158537265Y-111550171D01*
X158539683Y-111550736D01*
X158542058Y-111551368D01*
X158544390Y-111552066D01*
X158546676Y-111552827D01*
X158548912Y-111553649D01*
X158551097Y-111554531D01*
X158553228Y-111555470D01*
X158555302Y-111556465D01*
X158557316Y-111557513D01*
X158559268Y-111558613D01*
X158561156Y-111559763D01*
X158562977Y-111560960D01*
X158564727Y-111562204D01*
X158566406Y-111563491D01*
X158568010Y-111564820D01*
X158569536Y-111566189D01*
X158570982Y-111567597D01*
X158572345Y-111569040D01*
X158573623Y-111570518D01*
X158574814Y-111572028D01*
X158575914Y-111573568D01*
X158576921Y-111575137D01*
X158577832Y-111576732D01*
X158578645Y-111578352D01*
X158579358Y-111579995D01*
X158583876Y-111595864D01*
X158591701Y-111624957D01*
X158602171Y-111663308D01*
X158614625Y-111706948D01*
X158621203Y-111729009D01*
X158627574Y-111749872D01*
X158638871Y-111785853D01*
X158649892Y-111819795D01*
X158649973Y-111820167D01*
X158650215Y-111820618D01*
X158651159Y-111821751D01*
X158652681Y-111823174D01*
X158654741Y-111824865D01*
X158660306Y-111828970D01*
X158667525Y-111833901D01*
X158676066Y-111839494D01*
X158685599Y-111845583D01*
X158706318Y-111858587D01*
X158717400Y-111865571D01*
X158728181Y-111871983D01*
X158738694Y-111877826D01*
X158748969Y-111883107D01*
X158759038Y-111887829D01*
X158768931Y-111891998D01*
X158778679Y-111895621D01*
X158788314Y-111898700D01*
X158797866Y-111901243D01*
X158807366Y-111903253D01*
X158816846Y-111904736D01*
X158826336Y-111905698D01*
X158835867Y-111906143D01*
X158845471Y-111906077D01*
X158855178Y-111905504D01*
X158865019Y-111904431D01*
X158880820Y-111901807D01*
X158887972Y-111900347D01*
X158894886Y-111898645D01*
X158901758Y-111896592D01*
X158908786Y-111894079D01*
X158916165Y-111890997D01*
X158924091Y-111887239D01*
X158932761Y-111882696D01*
X158942372Y-111877259D01*
X158953119Y-111870820D01*
X158965199Y-111863270D01*
X158994143Y-111844405D01*
X159030773Y-111819795D01*
X159069360Y-111794759D01*
X159086117Y-111784206D01*
X159101417Y-111774888D01*
X159115436Y-111766747D01*
X159128349Y-111759728D01*
X159140333Y-111753773D01*
X159151562Y-111748825D01*
X159162213Y-111744827D01*
X159167376Y-111743167D01*
X159172460Y-111741724D01*
X159177488Y-111740489D01*
X159182481Y-111739457D01*
X159187461Y-111738619D01*
X159192450Y-111737970D01*
X159202542Y-111737206D01*
X159212935Y-111737109D01*
X159223802Y-111737621D01*
X159235321Y-111738686D01*
X159242478Y-111739433D01*
X159249434Y-111740367D01*
X159256235Y-111741507D01*
X159262928Y-111742874D01*
X159269559Y-111744489D01*
X159276174Y-111746373D01*
X159282820Y-111748546D01*
X159289543Y-111751029D01*
X159296391Y-111753842D01*
X159303409Y-111757007D01*
X159310644Y-111760544D01*
X159318143Y-111764474D01*
X159325951Y-111768816D01*
X159334116Y-111773593D01*
X159342684Y-111778824D01*
X159351701Y-111784530D01*
X159354258Y-111785698D01*
X159356785Y-111786431D01*
X159359497Y-111786545D01*
X159362612Y-111785853D01*
X159366347Y-111784169D01*
X159370919Y-111781307D01*
X159376545Y-111777081D01*
X159383441Y-111771306D01*
X159401915Y-111754362D01*
X159428076Y-111728988D01*
X159510402Y-111646998D01*
X159654996Y-111498885D01*
X159616202Y-111498885D01*
X159607359Y-111498039D01*
X159598687Y-111496829D01*
X159590192Y-111495260D01*
X159581879Y-111493341D01*
X159573755Y-111491078D01*
X159565826Y-111488479D01*
X159558097Y-111485551D01*
X159550573Y-111482300D01*
X159543262Y-111478734D01*
X159536168Y-111474860D01*
X159529297Y-111470686D01*
X159522656Y-111466217D01*
X159516250Y-111461462D01*
X159510084Y-111456427D01*
X159504166Y-111451120D01*
X159498500Y-111445547D01*
X159493092Y-111439717D01*
X159487948Y-111433634D01*
X159483074Y-111427308D01*
X159478476Y-111420745D01*
X159474159Y-111413952D01*
X159470130Y-111406936D01*
X159466394Y-111399705D01*
X159462957Y-111392265D01*
X159459825Y-111384623D01*
X159457003Y-111376787D01*
X159454498Y-111368764D01*
X159452315Y-111360561D01*
X159450460Y-111352184D01*
X159448939Y-111343642D01*
X159447758Y-111334941D01*
X159446922Y-111326088D01*
X159446630Y-111313612D01*
X159447067Y-111301327D01*
X159448216Y-111289259D01*
X159450063Y-111277434D01*
X159452592Y-111265877D01*
X159455787Y-111254615D01*
X159459633Y-111243673D01*
X159464114Y-111233077D01*
X159469216Y-111222853D01*
X159474922Y-111213027D01*
X159481217Y-111203625D01*
X159488085Y-111194671D01*
X159495511Y-111186194D01*
X159503480Y-111178217D01*
X159511975Y-111170767D01*
X159520982Y-111163870D01*
X159570370Y-111140789D01*
X159681336Y-111092955D01*
X160007664Y-110956248D01*
X160339282Y-110820203D01*
X160515506Y-110751272D01*
X160524199Y-110748489D01*
X160534132Y-110745541D01*
X160544891Y-110742593D01*
X160556063Y-110739811D01*
X160567235Y-110737359D01*
X160577995Y-110735403D01*
X160583090Y-110734662D01*
X160587927Y-110734108D01*
X160592454Y-110733760D01*
X160596620Y-110733639D01*
X160617133Y-110731325D01*
X160634422Y-110729672D01*
X160649561Y-110728680D01*
X160656661Y-110728432D01*
X160663627Y-110728350D01*
X160670592Y-110728432D01*
G36*
X160670592Y-110728432D02*
G01*
X160677692Y-110728680D01*
X160692832Y-110729672D01*
X160710121Y-110731325D01*
X160730634Y-110733639D01*
X160752318Y-110736685D01*
X160773720Y-110740522D01*
X160794825Y-110745136D01*
X160815619Y-110750514D01*
X160836087Y-110756641D01*
X160856215Y-110763503D01*
X160875989Y-110771085D01*
X160895396Y-110779373D01*
X160914420Y-110788354D01*
X160933048Y-110798013D01*
X160969057Y-110819308D01*
X161003309Y-110843144D01*
X161035692Y-110869409D01*
X161066091Y-110897987D01*
X161094392Y-110928767D01*
X161120482Y-110961633D01*
X161144248Y-110996472D01*
X161165575Y-111033171D01*
X161184350Y-111071617D01*
X161200459Y-111111694D01*
X161207479Y-111132310D01*
X161213789Y-111153290D01*
X161218446Y-111168333D01*
X161220330Y-111175421D01*
X161221945Y-111182384D01*
X161223312Y-111189347D01*
X161224452Y-111196435D01*
X161225386Y-111203770D01*
X161226133Y-111211477D01*
X161227152Y-111228504D01*
X161227676Y-111248505D01*
X161227896Y-111301403D01*
X161227717Y-111331205D01*
X161227478Y-111343904D01*
X161227125Y-111355347D01*
X161226648Y-111365695D01*
X161226037Y-111375107D01*
X161225281Y-111383745D01*
X161224370Y-111391769D01*
X161223294Y-111399337D01*
X161222042Y-111406612D01*
X161220604Y-111413752D01*
X161218970Y-111420917D01*
X161215071Y-111435967D01*
X161210263Y-111453041D01*
X161203591Y-111474190D01*
X161196722Y-111494119D01*
X161189543Y-111513016D01*
X161181940Y-111531065D01*
X161173800Y-111548453D01*
X161165009Y-111565365D01*
X161155454Y-111581989D01*
X161145020Y-111598509D01*
X161133594Y-111615111D01*
X161121063Y-111631983D01*
X161107313Y-111649308D01*
X161092230Y-111667275D01*
X161075700Y-111686068D01*
X161057611Y-111705873D01*
X161016296Y-111749266D01*
X160984281Y-111783869D01*
X160958547Y-111811861D01*
X160935183Y-111837428D01*
X160939202Y-111841047D01*
X160944523Y-111845224D01*
X160950960Y-111849856D01*
X160958326Y-111854840D01*
X160975106Y-111865447D01*
X160993373Y-111876219D01*
X161011640Y-111886330D01*
X161028419Y-111894953D01*
X161035786Y-111898449D01*
X161042223Y-111901262D01*
X161047544Y-111903291D01*
X161051563Y-111904431D01*
X161057130Y-111905670D01*
X161063204Y-111906745D01*
X161069711Y-111907654D01*
X161076580Y-111908398D01*
X161083739Y-111908977D01*
X161091114Y-111909390D01*
X161098634Y-111909638D01*
X161106226Y-111909720D01*
X161113819Y-111909638D01*
X161121339Y-111909390D01*
X161128714Y-111908977D01*
X161135873Y-111908398D01*
X161142742Y-111907654D01*
X161149249Y-111906745D01*
X161155322Y-111905670D01*
X161160890Y-111904431D01*
X161165108Y-111903132D01*
X161170994Y-111900656D01*
X161178317Y-111897147D01*
X161186844Y-111892749D01*
X161206578Y-111881867D01*
X161228338Y-111869166D01*
X161250262Y-111855804D01*
X161270492Y-111842938D01*
X161287168Y-111831725D01*
X161293592Y-111827100D01*
X161298430Y-111823322D01*
X161299214Y-111822713D01*
X161300235Y-111820932D01*
X161302949Y-111814120D01*
X161306489Y-111803423D01*
X161310774Y-111789379D01*
X161333697Y-111710474D01*
X161346702Y-111666834D01*
X161358384Y-111628484D01*
X161367421Y-111599390D01*
X161372491Y-111583521D01*
X161374597Y-111579678D01*
X161376941Y-111576082D01*
X161379512Y-111572735D01*
X161382300Y-111569636D01*
X161385294Y-111566784D01*
X161388485Y-111564181D01*
X161391862Y-111561825D01*
X161395414Y-111559717D01*
X161399132Y-111557858D01*
X161403005Y-111556246D01*
X161407022Y-111554882D01*
X161411174Y-111553766D01*
X161415450Y-111552899D01*
X161419839Y-111552279D01*
X161424332Y-111551907D01*
X161426832Y-111551839D01*
X161427734Y-111551874D01*
X161430131Y-111552145D01*
X161432574Y-111552588D01*
X161435054Y-111553195D01*
X161437562Y-111553959D01*
X161440090Y-111554874D01*
X161442629Y-111555933D01*
X161445172Y-111557128D01*
X161447710Y-111558451D01*
X161450234Y-111559897D01*
X161455208Y-111563127D01*
X161460027Y-111566759D01*
X161464624Y-111570738D01*
X161468932Y-111575005D01*
X161472883Y-111579506D01*
X161474704Y-111581825D01*
X161476410Y-111584181D01*
X161477994Y-111586567D01*
X161479447Y-111588976D01*
X161480761Y-111591400D01*
X161481926Y-111593833D01*
X161482935Y-111596267D01*
X161483780Y-111598695D01*
X161484451Y-111601110D01*
X161484941Y-111603505D01*
X161485242Y-111605873D01*
X161485343Y-111608206D01*
X161467931Y-111681656D01*
X161420100Y-111867843D01*
X161259636Y-112468667D01*
X161033928Y-113315023D01*
X158917919Y-113315023D01*
X158907339Y-113279758D01*
X158649010Y-112323200D01*
X158566441Y-112010225D01*
X158699266Y-112010225D01*
X158701305Y-112022223D01*
X158709626Y-112056620D01*
X158742468Y-112183023D01*
X158854440Y-112599147D01*
X159013140Y-113188069D01*
X160935182Y-113188069D01*
X161093883Y-112602674D01*
X161097410Y-112599147D01*
X161159403Y-112372240D01*
X161209823Y-112185667D01*
X161243713Y-112058604D01*
X161256111Y-112010225D01*
X161256060Y-112009915D01*
X161255909Y-112009645D01*
X161255661Y-112009416D01*
X161255319Y-112009226D01*
X161254368Y-112008962D01*
X161253080Y-112008847D01*
X161251483Y-112008877D01*
X161249602Y-112009047D01*
X161247462Y-112009351D01*
X161245090Y-112009784D01*
X161242511Y-112010341D01*
X161239752Y-112011017D01*
X161233794Y-112012704D01*
X161227422Y-112014805D01*
X161224146Y-112015998D01*
X161220844Y-112017278D01*
X161215627Y-112019761D01*
X161210512Y-112021934D01*
X161205439Y-112023818D01*
X161200345Y-112025433D01*
X161195169Y-112026800D01*
X161189848Y-112027940D01*
X161184320Y-112028873D01*
X161178524Y-112029620D01*
X161172397Y-112030202D01*
X161165878Y-112030640D01*
X161151413Y-112031163D01*
X161134634Y-112031356D01*
X161115044Y-112031384D01*
X161099147Y-112031833D01*
X161084413Y-112031838D01*
X161070681Y-112031368D01*
X161057791Y-112030392D01*
X161045582Y-112028878D01*
X161033896Y-112026797D01*
X161022571Y-112024115D01*
X161011448Y-112020804D01*
X161000366Y-112016832D01*
X160989165Y-112012167D01*
X160977685Y-112006779D01*
X160965766Y-112000637D01*
X160953248Y-111993710D01*
X160939970Y-111985966D01*
X160910496Y-111967907D01*
X160898656Y-111960165D01*
X160887187Y-111952919D01*
X160876462Y-111946335D01*
X160866854Y-111940577D01*
X160858732Y-111935811D01*
X160852471Y-111932201D01*
X160847016Y-111929116D01*
X160744301Y-112030061D01*
X160501401Y-112271184D01*
X160417360Y-112354904D01*
X160344849Y-112426515D01*
X160283498Y-112486472D01*
X160232932Y-112535230D01*
X160192782Y-112573243D01*
X160162674Y-112600965D01*
X160142237Y-112618853D01*
X160135529Y-112624250D01*
X160131099Y-112627359D01*
X160123508Y-112630499D01*
X160115333Y-112633303D01*
X160106651Y-112635766D01*
X160097541Y-112637883D01*
X160088079Y-112639649D01*
X160078344Y-112641058D01*
X160068412Y-112642106D01*
X160058362Y-112642787D01*
X160048270Y-112643096D01*
X160038214Y-112643028D01*
X160028272Y-112642578D01*
X160018521Y-112641740D01*
X160009039Y-112640510D01*
X159999903Y-112638882D01*
X159991190Y-112636851D01*
X159982979Y-112634412D01*
X159978467Y-112633044D01*
X159974162Y-112631567D01*
X159970022Y-112629956D01*
X159966007Y-112628185D01*
X159962074Y-112626228D01*
X159958182Y-112624060D01*
X159954290Y-112621653D01*
X159950357Y-112618984D01*
X159946341Y-112616024D01*
X159942202Y-112612750D01*
X159937896Y-112609135D01*
X159933385Y-112605153D01*
X159928625Y-112600779D01*
X159923576Y-112595986D01*
X159912445Y-112585041D01*
X159873652Y-112546250D01*
X159834858Y-112581515D01*
X159831395Y-112585478D01*
X159827647Y-112589422D01*
X159823661Y-112593323D01*
X159819484Y-112597163D01*
X159815163Y-112600921D01*
X159810743Y-112604574D01*
X159806272Y-112608104D01*
X159801796Y-112611490D01*
X159797361Y-112614710D01*
X159793013Y-112617744D01*
X159784768Y-112623171D01*
X159777433Y-112627607D01*
X159774222Y-112629401D01*
X159771378Y-112630885D01*
X159765069Y-112633445D01*
X159758098Y-112635824D01*
X159750549Y-112638006D01*
X159742503Y-112639977D01*
X159734045Y-112641721D01*
X159725256Y-112643221D01*
X159716218Y-112644464D01*
X159707016Y-112645432D01*
X159697731Y-112646111D01*
X159688446Y-112646486D01*
X159679243Y-112646540D01*
X159670206Y-112646259D01*
X159661417Y-112645626D01*
X159652959Y-112644626D01*
X159644913Y-112643244D01*
X159637364Y-112641465D01*
X159633718Y-112640732D01*
X159630055Y-112639858D01*
X159622699Y-112637704D01*
X159615334Y-112635033D01*
X159607994Y-112631877D01*
X159600715Y-112628266D01*
X159593536Y-112624232D01*
X159586490Y-112619805D01*
X159579615Y-112615016D01*
X159572946Y-112609897D01*
X159566521Y-112604478D01*
X159560374Y-112598791D01*
X159554542Y-112592865D01*
X159549062Y-112586734D01*
X159543969Y-112580426D01*
X159539300Y-112573974D01*
X159535090Y-112567409D01*
X159513930Y-112535670D01*
X159496296Y-112546250D01*
X159493605Y-112548112D01*
X159490800Y-112549742D01*
X159487850Y-112551155D01*
X159484725Y-112552366D01*
X159481392Y-112553391D01*
X159477823Y-112554246D01*
X159473984Y-112554946D01*
X159469846Y-112555507D01*
X159465378Y-112555943D01*
X159460547Y-112556271D01*
X159449678Y-112556664D01*
X159436990Y-112556809D01*
X159422236Y-112556829D01*
X159414002Y-112556787D01*
X159406456Y-112556657D01*
X159399539Y-112556434D01*
X159393196Y-112556113D01*
X159387370Y-112555689D01*
X159382003Y-112555156D01*
X159377040Y-112554509D01*
X159372422Y-112553744D01*
X159368094Y-112552854D01*
X159363998Y-112551836D01*
X159360078Y-112550683D01*
X159356276Y-112549391D01*
X159352537Y-112547954D01*
X159348803Y-112546367D01*
X159345017Y-112544625D01*
X159341123Y-112542724D01*
X159333323Y-112538283D01*
X159325795Y-112533563D01*
X159318544Y-112528575D01*
X159311573Y-112523328D01*
X159304886Y-112517833D01*
X159298487Y-112512101D01*
X159286569Y-112499965D01*
X159275850Y-112487002D01*
X159266360Y-112473296D01*
X159258130Y-112458928D01*
X159251192Y-112443982D01*
X159245577Y-112428540D01*
X159241315Y-112412684D01*
X159238437Y-112396499D01*
X159236975Y-112380065D01*
X159236960Y-112363465D01*
X159237504Y-112355130D01*
X159238422Y-112346783D01*
X159239716Y-112338437D01*
X159241392Y-112330102D01*
X159243453Y-112321786D01*
X159245902Y-112313502D01*
X159247183Y-112310201D01*
X159248382Y-112306925D01*
X159249498Y-112303700D01*
X159250531Y-112300553D01*
X159251481Y-112297510D01*
X159252349Y-112294596D01*
X159253837Y-112289258D01*
X159254994Y-112284746D01*
X159255821Y-112281268D01*
X159256482Y-112278237D01*
X159251156Y-112275432D01*
X159245778Y-112272328D01*
X159240380Y-112268955D01*
X159234991Y-112265344D01*
X159229645Y-112261526D01*
X159224370Y-112257533D01*
X159219199Y-112253395D01*
X159214162Y-112249144D01*
X159209290Y-112244810D01*
X159204615Y-112240424D01*
X159200167Y-112236018D01*
X159195977Y-112231622D01*
X159192077Y-112227267D01*
X159188497Y-112222985D01*
X159185268Y-112218806D01*
X159182422Y-112214761D01*
X159177376Y-112207683D01*
X159172806Y-112200951D01*
X159168690Y-112194498D01*
X159165009Y-112188257D01*
X159161740Y-112182161D01*
X159158865Y-112176142D01*
X159156361Y-112170133D01*
X159154208Y-112164068D01*
X159152386Y-112157878D01*
X159150874Y-112151498D01*
X159149652Y-112144859D01*
X159148698Y-112137895D01*
X159147992Y-112130538D01*
X159147513Y-112122721D01*
X159147241Y-112114378D01*
X159147158Y-112105733D01*
X159268964Y-112105733D01*
X159268997Y-112109318D01*
X159269302Y-112112869D01*
X159269868Y-112116379D01*
X159270685Y-112119838D01*
X159271745Y-112123238D01*
X159273038Y-112126571D01*
X159274553Y-112129828D01*
X159276281Y-112133002D01*
X159278213Y-112136083D01*
X159280339Y-112139064D01*
X159282648Y-112141935D01*
X159285132Y-112144689D01*
X159287781Y-112147317D01*
X159290584Y-112149811D01*
X159293533Y-112152162D01*
X159296618Y-112154361D01*
X159299828Y-112156402D01*
X159303155Y-112158274D01*
X159306588Y-112159970D01*
X159310118Y-112161482D01*
X159313735Y-112162800D01*
X159317430Y-112163917D01*
X159321192Y-112164825D01*
X159325013Y-112165513D01*
X159328882Y-112165976D01*
X159332789Y-112166203D01*
X159336726Y-112166187D01*
X159340683Y-112165919D01*
X159344648Y-112165390D01*
X159347941Y-112164000D01*
X159352639Y-112161044D01*
X159366911Y-112149797D01*
X159388787Y-112130366D01*
X159419590Y-112101473D01*
X159513268Y-112010170D01*
X159658523Y-111865639D01*
X159954764Y-111569415D01*
X159997085Y-111611733D01*
X160001628Y-111615696D01*
X160005991Y-111619633D01*
X160010157Y-111623518D01*
X160014112Y-111627326D01*
X160017839Y-111631031D01*
X160021324Y-111634607D01*
X160024550Y-111638027D01*
X160027502Y-111641267D01*
X160030165Y-111644300D01*
X160032524Y-111647101D01*
X160034562Y-111649643D01*
X160036264Y-111651902D01*
X160037615Y-111653850D01*
X160038599Y-111655463D01*
X160039201Y-111656714D01*
X160039354Y-111657195D01*
X160039405Y-111657577D01*
X160032531Y-111665615D01*
X160012845Y-111686175D01*
X159940658Y-111759404D01*
X159704370Y-111996119D01*
X159574048Y-112127095D01*
X159465878Y-112237242D01*
X159423716Y-112280889D01*
X159391432Y-112314990D01*
X159370472Y-112338098D01*
X159364690Y-112345078D01*
X159362282Y-112348767D01*
X159360462Y-112352743D01*
X159358965Y-112356729D01*
X159357784Y-112360715D01*
X159356909Y-112364691D01*
X159356335Y-112368647D01*
X159356052Y-112372571D01*
X159356053Y-112376454D01*
X159356331Y-112380285D01*
X159356877Y-112384054D01*
X159357684Y-112387751D01*
X159358744Y-112391366D01*
X159360050Y-112394887D01*
X159361594Y-112398305D01*
X159363367Y-112401609D01*
X159365362Y-112404790D01*
X159367572Y-112407836D01*
X159369988Y-112410737D01*
X159372604Y-112413484D01*
X159375410Y-112416065D01*
X159378400Y-112418470D01*
X159381565Y-112420690D01*
X159384899Y-112422713D01*
X159388392Y-112424530D01*
X159392038Y-112426129D01*
X159395829Y-112427502D01*
X159399756Y-112428636D01*
X159403813Y-112429523D01*
X159407991Y-112430152D01*
X159412283Y-112430512D01*
X159416680Y-112430593D01*
X159421176Y-112430384D01*
X159425762Y-112429876D01*
X159430462Y-112428901D01*
X159435591Y-112427032D01*
X159441578Y-112423871D01*
X159448851Y-112419021D01*
X159468971Y-112402663D01*
X159499382Y-112374775D01*
X159543514Y-112332175D01*
X159604797Y-112271680D01*
X159792537Y-112084281D01*
X160134625Y-111742213D01*
X160180472Y-111788057D01*
X160226319Y-111833901D01*
X159926551Y-112133652D01*
X159830642Y-112229597D01*
X159791501Y-112268834D01*
X159757711Y-112302813D01*
X159728881Y-112331956D01*
X159704618Y-112356688D01*
X159684529Y-112377432D01*
X159675927Y-112386441D01*
X159668222Y-112394611D01*
X159661363Y-112401997D01*
X159655303Y-112408650D01*
X159649992Y-112414624D01*
X159645381Y-112419972D01*
X159641420Y-112424746D01*
X159638062Y-112429000D01*
X159635257Y-112432786D01*
X159632955Y-112436158D01*
X159631107Y-112439168D01*
X159629666Y-112441869D01*
X159628580Y-112444315D01*
X159627802Y-112446558D01*
X159627283Y-112448651D01*
X159626972Y-112450648D01*
X159626822Y-112452600D01*
X159626783Y-112454562D01*
X159626855Y-112458797D01*
X159627071Y-112462909D01*
X159627428Y-112466895D01*
X159627926Y-112470755D01*
X159628564Y-112474488D01*
X159629340Y-112478094D01*
X159630253Y-112481573D01*
X159631301Y-112484922D01*
X159632484Y-112488143D01*
X159633800Y-112491234D01*
X159635248Y-112494195D01*
X159636826Y-112497024D01*
X159638533Y-112499722D01*
X159640368Y-112502287D01*
X159642330Y-112504719D01*
X159644416Y-112507018D01*
X159646627Y-112509182D01*
X159648961Y-112511212D01*
X159651416Y-112513105D01*
X159653991Y-112514863D01*
X159656685Y-112516484D01*
X159659496Y-112517967D01*
X159662424Y-112519312D01*
X159665466Y-112520518D01*
X159668623Y-112521584D01*
X159671891Y-112522511D01*
X159675271Y-112523297D01*
X159678760Y-112523941D01*
X159682358Y-112524443D01*
X159686063Y-112524803D01*
X159689874Y-112525019D01*
X159693790Y-112525091D01*
X159696696Y-112524708D01*
X159700341Y-112523349D01*
X159711148Y-112516440D01*
X159728816Y-112501845D01*
X159755948Y-112477043D01*
X159795148Y-112439512D01*
X159849019Y-112386732D01*
X160011191Y-112225340D01*
X160310959Y-111925590D01*
X160356806Y-111971434D01*
X160402653Y-112017278D01*
X160191052Y-112228867D01*
X159982978Y-112440456D01*
X159982978Y-112465141D01*
X159983741Y-112469687D01*
X159984705Y-112474064D01*
X159985862Y-112478271D01*
X159987207Y-112482305D01*
X159988733Y-112486164D01*
X159990433Y-112489844D01*
X159992300Y-112493343D01*
X159994329Y-112496659D01*
X159996514Y-112499789D01*
X159998846Y-112502730D01*
X160001321Y-112505481D01*
X160003931Y-112508037D01*
X160006671Y-112510398D01*
X160009533Y-112512559D01*
X160012511Y-112514519D01*
X160015600Y-112516275D01*
X160018791Y-112517824D01*
X160022080Y-112519164D01*
X160025458Y-112520293D01*
X160028921Y-112521207D01*
X160032461Y-112521904D01*
X160036073Y-112522381D01*
X160039748Y-112522636D01*
X160043482Y-112522667D01*
X160047268Y-112522470D01*
X160051099Y-112522043D01*
X160054968Y-112521384D01*
X160058870Y-112520490D01*
X160062798Y-112519359D01*
X160066745Y-112517987D01*
X160070705Y-112516372D01*
X160074671Y-112514512D01*
X160087910Y-112503602D01*
X160118424Y-112474839D01*
X160223674Y-112371689D01*
X160557827Y-112038437D01*
X160776206Y-111819354D01*
X160858428Y-111736179D01*
X160924161Y-111669038D01*
X160974520Y-111616775D01*
X161010620Y-111578231D01*
X161023672Y-111563743D01*
X161033578Y-111552251D01*
X161040477Y-111543611D01*
X161044509Y-111537677D01*
X161057313Y-111514037D01*
X161068627Y-111490096D01*
X161078469Y-111465906D01*
X161086857Y-111441518D01*
X161093808Y-111416983D01*
X161099341Y-111392352D01*
X161103474Y-111367675D01*
X161106226Y-111343004D01*
X161107613Y-111318390D01*
X161107655Y-111293884D01*
X161106369Y-111269537D01*
X161103774Y-111245399D01*
X161099887Y-111221523D01*
X161094726Y-111197958D01*
X161088310Y-111174756D01*
X161080657Y-111151968D01*
X161071785Y-111129645D01*
X161061712Y-111107838D01*
X161050455Y-111086598D01*
X161038034Y-111065976D01*
X161024466Y-111046023D01*
X161009769Y-111026789D01*
X160993961Y-111008327D01*
X160977061Y-110990687D01*
X160959086Y-110973920D01*
X160940055Y-110958076D01*
X160919985Y-110943208D01*
X160898896Y-110929366D01*
X160876803Y-110916601D01*
X160853727Y-110904964D01*
X160829685Y-110894506D01*
X160804695Y-110885278D01*
X160792198Y-110880898D01*
X160778617Y-110877013D01*
X160764105Y-110873624D01*
X160748819Y-110870731D01*
X160732913Y-110868334D01*
X160716541Y-110866433D01*
X160699860Y-110865028D01*
X160683024Y-110864119D01*
X160666188Y-110863706D01*
X160649507Y-110863789D01*
X160633136Y-110864367D01*
X160617230Y-110865442D01*
X160601943Y-110867012D01*
X160587432Y-110869078D01*
X160573850Y-110871641D01*
X160561354Y-110874699D01*
X160528181Y-110883515D01*
X160502709Y-110892551D01*
X160462607Y-110908200D01*
X160312392Y-110969914D01*
X160025298Y-111089814D01*
X159874140Y-111152113D01*
X159813943Y-111176963D01*
X159762946Y-111198088D01*
X159720360Y-111215845D01*
X159685393Y-111230591D01*
X159670521Y-111236946D01*
X159657256Y-111242681D01*
X159645502Y-111247842D01*
X159635159Y-111252473D01*
X159626128Y-111256618D01*
X159618310Y-111260322D01*
X159611606Y-111263630D01*
X159605919Y-111266586D01*
X159601148Y-111269234D01*
X159597196Y-111271620D01*
X159593963Y-111273787D01*
X159591351Y-111275781D01*
X159589260Y-111277645D01*
X159587592Y-111279425D01*
X159586249Y-111281165D01*
X159585131Y-111282909D01*
X159580936Y-111290823D01*
X159579665Y-111293158D01*
X159578498Y-111295529D01*
X159577433Y-111297935D01*
X159576473Y-111300370D01*
X159575615Y-111302830D01*
X159574861Y-111305313D01*
X159574210Y-111307814D01*
X159573662Y-111310329D01*
X159573218Y-111312855D01*
X159572877Y-111315386D01*
X159572639Y-111317921D01*
X159572505Y-111320454D01*
X159572474Y-111322982D01*
X159572546Y-111325501D01*
X159572722Y-111328007D01*
X159573001Y-111330496D01*
X159573383Y-111332965D01*
X159573869Y-111335409D01*
X159574458Y-111337824D01*
X159575150Y-111340208D01*
X159575946Y-111342555D01*
X159576844Y-111344862D01*
X159577847Y-111347125D01*
X159578952Y-111349341D01*
X159580161Y-111351505D01*
X159581473Y-111353613D01*
X159582889Y-111355662D01*
X159584408Y-111357647D01*
X159586030Y-111359566D01*
X159587755Y-111361413D01*
X159589584Y-111363186D01*
X159591516Y-111364879D01*
X159602661Y-111373840D01*
X159608301Y-111376959D01*
X159614550Y-111379040D01*
X159621832Y-111379985D01*
X159630571Y-111379695D01*
X159641191Y-111378072D01*
X159654115Y-111375018D01*
X159669766Y-111370435D01*
X159688569Y-111364225D01*
X159737322Y-111346531D01*
X159891284Y-111287297D01*
X159987056Y-111249552D01*
X160067618Y-111218090D01*
X160099510Y-111205850D01*
X160124376Y-111196545D01*
X160141142Y-111190629D01*
X160146151Y-111189083D01*
X160148732Y-111188555D01*
X160142250Y-111196504D01*
X160118700Y-111221726D01*
X160027502Y-111316390D01*
X159889356Y-111457339D01*
X159718477Y-111629365D01*
X159718477Y-111632892D01*
X159517566Y-111834507D01*
X159440379Y-111912648D01*
X159378152Y-111976283D01*
X159330473Y-112025867D01*
X159296928Y-112061855D01*
X159285327Y-112074892D01*
X159277104Y-112084701D01*
X159272209Y-112091338D01*
X159270992Y-112093485D01*
X159270588Y-112094861D01*
X159269750Y-112098496D01*
X159269211Y-112102123D01*
X159268964Y-112105733D01*
X159147158Y-112105733D01*
X159147155Y-112105440D01*
X159147368Y-112093894D01*
X159148036Y-112082993D01*
X159149201Y-112072640D01*
X159150902Y-112062737D01*
X159153182Y-112053184D01*
X159156082Y-112043885D01*
X159159643Y-112034741D01*
X159163906Y-112025653D01*
X159168914Y-112016525D01*
X159174707Y-112007256D01*
X159181326Y-111997751D01*
X159188813Y-111987909D01*
X159197210Y-111977633D01*
X159206557Y-111966826D01*
X159216896Y-111955388D01*
X159228268Y-111943222D01*
X159245654Y-111924570D01*
X159252538Y-111916970D01*
X159258245Y-111910382D01*
X159260663Y-111907435D01*
X159262795Y-111904703D01*
X159264642Y-111902172D01*
X159266208Y-111899830D01*
X159267494Y-111897663D01*
X159268505Y-111895659D01*
X159269241Y-111893805D01*
X159269707Y-111892088D01*
X159269904Y-111890495D01*
X159269834Y-111889013D01*
X159269501Y-111887629D01*
X159268908Y-111886330D01*
X159268056Y-111885103D01*
X159266948Y-111883936D01*
X159265587Y-111882816D01*
X159263976Y-111881729D01*
X159262117Y-111880663D01*
X159260012Y-111879604D01*
X159257664Y-111878540D01*
X159255077Y-111877459D01*
X159249191Y-111875189D01*
X159242375Y-111872692D01*
X159236642Y-111870888D01*
X159231230Y-111869496D01*
X159225962Y-111868601D01*
X159220664Y-111868284D01*
X159215159Y-111868629D01*
X159209271Y-111869717D01*
X159202826Y-111871632D01*
X159195646Y-111874456D01*
X159187558Y-111878271D01*
X159178385Y-111883162D01*
X159167951Y-111889209D01*
X159156081Y-111896496D01*
X159127331Y-111915120D01*
X159090728Y-111939695D01*
X159047429Y-111968086D01*
X159028658Y-111979911D01*
X159011488Y-111990278D01*
X158995681Y-111999282D01*
X158981001Y-112007015D01*
X158967209Y-112013571D01*
X158954069Y-112019041D01*
X158941341Y-112023520D01*
X158928790Y-112027100D01*
X158916176Y-112029874D01*
X158903263Y-112031935D01*
X158889812Y-112033376D01*
X158875586Y-112034291D01*
X158860348Y-112034771D01*
X158843860Y-112034910D01*
X158824270Y-112034738D01*
X158815560Y-112034515D01*
X158807491Y-112034194D01*
X158800000Y-112033770D01*
X158793026Y-112033237D01*
X158786507Y-112032590D01*
X158780380Y-112031825D01*
X158774583Y-112030935D01*
X158769056Y-112029917D01*
X158763735Y-112028764D01*
X158758558Y-112027472D01*
X158753464Y-112026035D01*
X158748391Y-112024448D01*
X158743277Y-112022706D01*
X158738059Y-112020804D01*
X158734137Y-112019523D01*
X158730317Y-112018325D01*
X158726622Y-112017209D01*
X158723071Y-112016176D01*
X158716486Y-112014358D01*
X158710728Y-112012870D01*
X158705961Y-112011713D01*
X158702352Y-112010886D01*
X158699266Y-112010225D01*
X158566441Y-112010225D01*
X158459451Y-111604680D01*
X158459552Y-111602346D01*
X158459853Y-111599978D01*
X158460343Y-111597583D01*
X158461014Y-111595168D01*
X158461859Y-111592740D01*
X158462868Y-111590306D01*
X158464033Y-111587874D01*
X158465347Y-111585450D01*
X158466800Y-111583041D01*
X158468383Y-111580655D01*
X158471911Y-111575979D01*
X158475862Y-111571479D01*
X158480170Y-111567211D01*
X158484767Y-111563233D01*
X158489586Y-111559600D01*
X158494560Y-111556371D01*
X158499622Y-111553601D01*
X158502165Y-111552406D01*
X158504704Y-111551348D01*
X158507232Y-111550433D01*
X158509740Y-111549668D01*
X158512220Y-111549061D01*
X158514663Y-111548619D01*
X158517060Y-111548348D01*
X158519404Y-111548256D01*
X158522038Y-111548297D01*
X158524649Y-111548419D01*
X158527235Y-111548620D01*
X158529791Y-111548897D01*
X158532317Y-111549249D01*
X158534809Y-111549674D01*
X158537265Y-111550171D01*
X158539683Y-111550736D01*
X158542058Y-111551368D01*
X158544390Y-111552066D01*
X158546676Y-111552827D01*
X158548912Y-111553649D01*
X158551097Y-111554531D01*
X158553228Y-111555470D01*
X158555302Y-111556465D01*
X158557316Y-111557513D01*
X158559268Y-111558613D01*
X158561156Y-111559763D01*
X158562977Y-111560960D01*
X158564727Y-111562204D01*
X158566406Y-111563491D01*
X158568010Y-111564820D01*
X158569536Y-111566189D01*
X158570982Y-111567597D01*
X158572345Y-111569040D01*
X158573623Y-111570518D01*
X158574814Y-111572028D01*
X158575914Y-111573568D01*
X158576921Y-111575137D01*
X158577832Y-111576732D01*
X158578645Y-111578352D01*
X158579358Y-111579995D01*
X158583876Y-111595864D01*
X158591701Y-111624957D01*
X158602171Y-111663308D01*
X158614625Y-111706948D01*
X158621203Y-111729009D01*
X158627574Y-111749872D01*
X158638871Y-111785853D01*
X158649892Y-111819795D01*
X158649973Y-111820167D01*
X158650215Y-111820618D01*
X158651159Y-111821751D01*
X158652681Y-111823174D01*
X158654741Y-111824865D01*
X158660306Y-111828970D01*
X158667525Y-111833901D01*
X158676066Y-111839494D01*
X158685599Y-111845583D01*
X158706318Y-111858587D01*
X158717400Y-111865571D01*
X158728181Y-111871983D01*
X158738694Y-111877826D01*
X158748969Y-111883107D01*
X158759038Y-111887829D01*
X158768931Y-111891998D01*
X158778679Y-111895621D01*
X158788314Y-111898700D01*
X158797866Y-111901243D01*
X158807366Y-111903253D01*
X158816846Y-111904736D01*
X158826336Y-111905698D01*
X158835867Y-111906143D01*
X158845471Y-111906077D01*
X158855178Y-111905504D01*
X158865019Y-111904431D01*
X158880820Y-111901807D01*
X158887972Y-111900347D01*
X158894886Y-111898645D01*
X158901758Y-111896592D01*
X158908786Y-111894079D01*
X158916165Y-111890997D01*
X158924091Y-111887239D01*
X158932761Y-111882696D01*
X158942372Y-111877259D01*
X158953119Y-111870820D01*
X158965199Y-111863270D01*
X158994143Y-111844405D01*
X159030773Y-111819795D01*
X159069360Y-111794759D01*
X159086117Y-111784206D01*
X159101417Y-111774888D01*
X159115436Y-111766747D01*
X159128349Y-111759728D01*
X159140333Y-111753773D01*
X159151562Y-111748825D01*
X159162213Y-111744827D01*
X159167376Y-111743167D01*
X159172460Y-111741724D01*
X159177488Y-111740489D01*
X159182481Y-111739457D01*
X159187461Y-111738619D01*
X159192450Y-111737970D01*
X159202542Y-111737206D01*
X159212935Y-111737109D01*
X159223802Y-111737621D01*
X159235321Y-111738686D01*
X159242478Y-111739433D01*
X159249434Y-111740367D01*
X159256235Y-111741507D01*
X159262928Y-111742874D01*
X159269559Y-111744489D01*
X159276174Y-111746373D01*
X159282820Y-111748546D01*
X159289543Y-111751029D01*
X159296391Y-111753842D01*
X159303409Y-111757007D01*
X159310644Y-111760544D01*
X159318143Y-111764474D01*
X159325951Y-111768816D01*
X159334116Y-111773593D01*
X159342684Y-111778824D01*
X159351701Y-111784530D01*
X159354258Y-111785698D01*
X159356785Y-111786431D01*
X159359497Y-111786545D01*
X159362612Y-111785853D01*
X159366347Y-111784169D01*
X159370919Y-111781307D01*
X159376545Y-111777081D01*
X159383441Y-111771306D01*
X159401915Y-111754362D01*
X159428076Y-111728988D01*
X159510402Y-111646998D01*
X159654996Y-111498885D01*
X159616202Y-111498885D01*
X159607359Y-111498039D01*
X159598687Y-111496829D01*
X159590192Y-111495260D01*
X159581879Y-111493341D01*
X159573755Y-111491078D01*
X159565826Y-111488479D01*
X159558097Y-111485551D01*
X159550573Y-111482300D01*
X159543262Y-111478734D01*
X159536168Y-111474860D01*
X159529297Y-111470686D01*
X159522656Y-111466217D01*
X159516250Y-111461462D01*
X159510084Y-111456427D01*
X159504166Y-111451120D01*
X159498500Y-111445547D01*
X159493092Y-111439717D01*
X159487948Y-111433634D01*
X159483074Y-111427308D01*
X159478476Y-111420745D01*
X159474159Y-111413952D01*
X159470130Y-111406936D01*
X159466394Y-111399705D01*
X159462957Y-111392265D01*
X159459825Y-111384623D01*
X159457003Y-111376787D01*
X159454498Y-111368764D01*
X159452315Y-111360561D01*
X159450460Y-111352184D01*
X159448939Y-111343642D01*
X159447758Y-111334941D01*
X159446922Y-111326088D01*
X159446630Y-111313612D01*
X159447067Y-111301327D01*
X159448216Y-111289259D01*
X159450063Y-111277434D01*
X159452592Y-111265877D01*
X159455787Y-111254615D01*
X159459633Y-111243673D01*
X159464114Y-111233077D01*
X159469216Y-111222853D01*
X159474922Y-111213027D01*
X159481217Y-111203625D01*
X159488085Y-111194671D01*
X159495511Y-111186194D01*
X159503480Y-111178217D01*
X159511975Y-111170767D01*
X159520982Y-111163870D01*
X159570370Y-111140789D01*
X159681336Y-111092955D01*
X160007664Y-110956248D01*
X160339282Y-110820203D01*
X160515506Y-110751272D01*
X160524199Y-110748489D01*
X160534132Y-110745541D01*
X160544891Y-110742593D01*
X160556063Y-110739811D01*
X160567235Y-110737359D01*
X160577995Y-110735403D01*
X160583090Y-110734662D01*
X160587927Y-110734108D01*
X160592454Y-110733760D01*
X160596620Y-110733639D01*
X160617133Y-110731325D01*
X160634422Y-110729672D01*
X160649561Y-110728680D01*
X160656661Y-110728432D01*
X160663627Y-110728350D01*
X160670592Y-110728432D01*
G37*
D11*
%TO.C,JP22*%
X83825000Y-107995692D03*
X83825000Y-109645692D03*
%TD*%
D12*
%TO.C,SW4*%
X185950653Y-70381245D03*
D13*
X185372066Y-70340786D03*
D14*
X184506566Y-72826467D03*
X183062478Y-75271689D03*
D15*
X180883028Y-70026882D03*
D14*
X177994852Y-74917326D03*
X176905127Y-72294925D03*
D13*
X176393990Y-69712978D03*
D12*
X175815403Y-69672519D03*
D16*
X183608176Y-65460856D03*
X178819869Y-65126025D03*
X178925201Y-63619703D03*
X183713508Y-63954534D03*
D17*
X173720108Y-72112302D03*
X186211990Y-75532022D03*
%TD*%
D18*
%TO.C,MH8*%
X188525000Y-116250000D03*
%TD*%
D19*
%TO.C,D10*%
X191951654Y-110709596D03*
X195300000Y-111300000D03*
%TD*%
D20*
%TO.C,D7*%
X135297000Y-96197000D03*
X138697000Y-96197000D03*
%TD*%
D21*
%TO.C,D15*%
X172900000Y-116200000D03*
X176291718Y-116437172D03*
%TD*%
D11*
%TO.C,JP4*%
X92621000Y-100977000D03*
X92621000Y-102627000D03*
%TD*%
D12*
%TO.C,SW21*%
X126804057Y-130264140D03*
D13*
X126243820Y-130414255D03*
D14*
X126234732Y-133046292D03*
X125665406Y-135828444D03*
D15*
X121897154Y-131578941D03*
D14*
X120758503Y-137143245D03*
X118874377Y-135018494D03*
D13*
X117550488Y-132743627D03*
D12*
X116990251Y-132893742D03*
D22*
X122987280Y-126374457D03*
X118350836Y-127616789D03*
X117960019Y-126158241D03*
X122596463Y-124915909D03*
D23*
X115803426Y-135882763D03*
X128728085Y-135049213D03*
%TD*%
D18*
%TO.C,MH1*%
X85275000Y-67250000D03*
%TD*%
D12*
%TO.C,SW8*%
X164191399Y-78675260D03*
D13*
X163611399Y-78675260D03*
D14*
X162921399Y-81215260D03*
X161651399Y-83755260D03*
D15*
X159111399Y-78675260D03*
D14*
X156571399Y-83755260D03*
X155301399Y-81215261D03*
D13*
X154611399Y-78675260D03*
D12*
X154031399Y-78675260D03*
D24*
X161511399Y-73930260D03*
X156711399Y-73930260D03*
X156711399Y-72420260D03*
X161511399Y-72420260D03*
D25*
X152111399Y-81255260D03*
X164811399Y-83795260D03*
%TD*%
D26*
%TO.C,JP16*%
X137950000Y-118475000D03*
X137950000Y-116825000D03*
%TD*%
D27*
%TO.C,D21*%
X128663008Y-123578926D03*
X129542992Y-126863074D03*
%TD*%
D28*
%TO.C,BZ1*%
X152291506Y-113397549D03*
X165491506Y-113397549D03*
%TD*%
D12*
%TO.C,SW15*%
X183289779Y-108433517D03*
D13*
X182711192Y-108393058D03*
D14*
X181845692Y-110878739D03*
X180401604Y-113323961D03*
D15*
X178222154Y-108079154D03*
D14*
X175333978Y-112969598D03*
X174244253Y-110347197D03*
D13*
X173733116Y-107765250D03*
D12*
X173154529Y-107724791D03*
D16*
X180947302Y-103513128D03*
X176158995Y-103178297D03*
X176264327Y-101671975D03*
X181052634Y-102006806D03*
D17*
X171059234Y-110164574D03*
X183551116Y-113584294D03*
%TD*%
D12*
%TO.C,SW6*%
X126147969Y-90675260D03*
D13*
X125567969Y-90675260D03*
D14*
X124877969Y-93215260D03*
X123607969Y-95755260D03*
D15*
X121067969Y-90675260D03*
D14*
X118527969Y-95755260D03*
X117257969Y-93215261D03*
D13*
X116567969Y-90675260D03*
D12*
X115987969Y-90675260D03*
D24*
X123467969Y-85930260D03*
X118667969Y-85930260D03*
X118667969Y-84420260D03*
X123467969Y-84420260D03*
D25*
X114067969Y-93255260D03*
X126767969Y-95795260D03*
%TD*%
D26*
%TO.C,JP17*%
X140500000Y-118475000D03*
X140500000Y-116825000D03*
%TD*%
D20*
%TO.C,D14*%
X153300000Y-106300000D03*
X156700000Y-106300000D03*
%TD*%
D29*
%TO.C,SW18*%
X88090000Y-111450000D03*
X88090000Y-116450000D03*
X88090000Y-113950000D03*
D30*
X95590000Y-108350000D03*
X95590000Y-119550000D03*
D29*
X102590000Y-116450000D03*
X102590000Y-111450000D03*
%TD*%
D31*
%TO.C,OLED1*%
X100249110Y-98455000D03*
X97709110Y-98455000D03*
X95169110Y-98455000D03*
X92629110Y-98455000D03*
%TD*%
D32*
%TO.C,J1*%
X84275000Y-128850000D03*
X91275000Y-128850000D03*
X84275000Y-127100000D03*
X91275000Y-127100000D03*
D33*
X93075000Y-130950000D03*
X93075000Y-125000000D03*
X89075000Y-130950000D03*
X89075000Y-125000000D03*
X86075000Y-130950000D03*
X86075000Y-125000000D03*
X94575000Y-129200000D03*
X94575000Y-126750000D03*
%TD*%
D20*
%TO.C,D6*%
X115300000Y-99200000D03*
X118700000Y-99200000D03*
%TD*%
D11*
%TO.C,JP2*%
X97660000Y-100977000D03*
X97660000Y-102627000D03*
%TD*%
D12*
%TO.C,SW12*%
X126147969Y-109747857D03*
D13*
X125567969Y-109747857D03*
D14*
X124877969Y-112287857D03*
X123607969Y-114827857D03*
D15*
X121067969Y-109747857D03*
D14*
X118527969Y-114827857D03*
X117257969Y-112287858D03*
D13*
X116567969Y-109747857D03*
D12*
X115987969Y-109747857D03*
D24*
X123467969Y-105002857D03*
X118667969Y-105002857D03*
X118667969Y-103492857D03*
X123467969Y-103492857D03*
D25*
X114067969Y-112327857D03*
X126767969Y-114867857D03*
%TD*%
D18*
%TO.C,MH6*%
X89275000Y-135000000D03*
%TD*%
D11*
%TO.C,JP3*%
X95166000Y-100977000D03*
X95166000Y-102627000D03*
%TD*%
D19*
%TO.C,D5*%
X195251654Y-91909596D03*
X198600000Y-92500000D03*
%TD*%
D26*
%TO.C,JP18*%
X145600000Y-118475000D03*
X145600000Y-116825000D03*
%TD*%
D34*
%TO.C,D20*%
X106672000Y-130427514D03*
X108372000Y-133372000D03*
%TD*%
D12*
%TO.C,SW1*%
X126147969Y-71602664D03*
D13*
X125567969Y-71602664D03*
D14*
X124877969Y-74142664D03*
X123607969Y-76682664D03*
D15*
X121067969Y-71602664D03*
D14*
X118527969Y-76682664D03*
X117257969Y-74142665D03*
D13*
X116567969Y-71602664D03*
D12*
X115987969Y-71602664D03*
D24*
X123467969Y-66857664D03*
X118667969Y-66857664D03*
X118667969Y-65347664D03*
X123467969Y-65347664D03*
D25*
X114067969Y-74182664D03*
X126767969Y-76722664D03*
%TD*%
D35*
%TO.C,BT1*%
X84275000Y-104792660D03*
X84275000Y-102792660D03*
%TD*%
D12*
%TO.C,SW9*%
X184620216Y-89407380D03*
D13*
X184041629Y-89366921D03*
D14*
X183176129Y-91852602D03*
X181732041Y-94297824D03*
D15*
X179552591Y-89053017D03*
D14*
X176664415Y-93943461D03*
X175574690Y-91321060D03*
D13*
X175063553Y-88739113D03*
D12*
X174484966Y-88698654D03*
D16*
X182277739Y-84486991D03*
X177489432Y-84152160D03*
X177594764Y-82645838D03*
X182383071Y-82980669D03*
D17*
X172389671Y-91138437D03*
X184881553Y-94558157D03*
%TD*%
D36*
%TO.C,RSW1*%
X84400000Y-118129766D03*
X84400000Y-122379766D03*
D37*
X85300000Y-119029766D03*
X85300000Y-121479766D03*
D38*
X85300000Y-120254766D03*
D39*
X83350000Y-118404766D03*
X83350000Y-122104766D03*
%TD*%
D18*
%TO.C,MH3*%
X193025000Y-79500000D03*
%TD*%
D20*
%TO.C,D2*%
X134300000Y-77100000D03*
X137700000Y-77100000D03*
%TD*%
%TO.C,D3*%
X153400000Y-68100000D03*
X156800000Y-68100000D03*
%TD*%
%TO.C,D8*%
X153379000Y-87185000D03*
X156779000Y-87185000D03*
%TD*%
D19*
%TO.C,D16*%
X188625827Y-129404798D03*
X191974173Y-129995202D03*
%TD*%
D20*
%TO.C,D18*%
X99180000Y-106960000D03*
X102580000Y-106960000D03*
%TD*%
D12*
%TO.C,SW3*%
X164191399Y-59602664D03*
D13*
X163611399Y-59602664D03*
D14*
X162921399Y-62142664D03*
X161651399Y-64682664D03*
D15*
X159111399Y-59602664D03*
D14*
X156571399Y-64682664D03*
X155301399Y-62142665D03*
D13*
X154611399Y-59602664D03*
D12*
X154031399Y-59602664D03*
D24*
X161511399Y-54857664D03*
X156711399Y-54857664D03*
X156711399Y-53347664D03*
X161511399Y-53347664D03*
D25*
X152111399Y-62182664D03*
X164811399Y-64722664D03*
%TD*%
D40*
%TO.C,REF\u002A\u002A*%
X150148479Y-77088804D03*
X169198479Y-96138804D03*
X131098479Y-96138804D03*
%TD*%
D12*
%TO.C,SW20*%
X106646563Y-137291736D03*
D13*
X106144268Y-137581736D03*
D14*
X106816711Y-140126441D03*
X106986859Y-142961145D03*
D15*
X102247154Y-139831736D03*
D14*
X102587449Y-145501145D03*
X100217598Y-143936441D03*
D13*
X98350040Y-142081736D03*
D12*
X97847745Y-142371736D03*
D41*
X101953115Y-134522445D03*
X97796193Y-136922445D03*
X97041193Y-135614747D03*
X101198115Y-133214747D03*
D42*
X97474976Y-145566082D03*
X109743499Y-141415786D03*
%TD*%
D11*
%TO.C,JP1*%
X100205000Y-100977000D03*
X100205000Y-102627000D03*
%TD*%
D12*
%TO.C,SW16*%
X201082966Y-122972529D03*
D13*
X200511778Y-122871813D03*
D14*
X199391194Y-125253407D03*
X197699422Y-127534286D03*
D15*
X196080143Y-122090396D03*
D14*
X192696599Y-126652153D03*
X191886959Y-123930209D03*
D13*
X191648508Y-121308979D03*
D12*
X191077320Y-121208263D03*
D43*
X199267642Y-117834239D03*
X194540565Y-117000728D03*
X194802774Y-115513668D03*
X199529851Y-116347179D03*
D44*
X188738476Y-123415663D03*
X200804469Y-128122406D03*
%TD*%
D18*
%TO.C,MH7*%
X112525000Y-130250000D03*
%TD*%
D21*
%TO.C,D9*%
X173369505Y-97185696D03*
X176761223Y-97422868D03*
%TD*%
D18*
%TO.C,MH5*%
X146775000Y-82750000D03*
%TD*%
D12*
%TO.C,SW13*%
X145141399Y-106747857D03*
D13*
X144561399Y-106747857D03*
D14*
X143871399Y-109287857D03*
X142601399Y-111827857D03*
D15*
X140061399Y-106747857D03*
D14*
X137521399Y-111827857D03*
X136251399Y-109287858D03*
D13*
X135561399Y-106747857D03*
D12*
X134981399Y-106747857D03*
D24*
X142461399Y-102002857D03*
X137661399Y-102002857D03*
X137661399Y-100492857D03*
X142461399Y-100492857D03*
D25*
X133061399Y-109327857D03*
X145761399Y-111867857D03*
%TD*%
D12*
%TO.C,SW7*%
X145141399Y-87675260D03*
D13*
X144561399Y-87675260D03*
D14*
X143871399Y-90215260D03*
X142601399Y-92755260D03*
D15*
X140061399Y-87675260D03*
D14*
X137521399Y-92755260D03*
X136251399Y-90215261D03*
D13*
X135561399Y-87675260D03*
D12*
X134981399Y-87675260D03*
D24*
X142461399Y-82930260D03*
X137661399Y-82930260D03*
X137661399Y-81420260D03*
X142461399Y-81420260D03*
D25*
X133061399Y-90255260D03*
X145761399Y-92795260D03*
%TD*%
D21*
%TO.C,D4*%
X174300000Y-78100000D03*
X177691718Y-78337172D03*
%TD*%
D45*
%TO.C,D13*%
X148200000Y-104900000D03*
X148200000Y-101500000D03*
%TD*%
D46*
%TO.C,BT2*%
X84525000Y-111699951D03*
D29*
X84525000Y-115300000D03*
%TD*%
D12*
%TO.C,SW5*%
X207706810Y-85406848D03*
D13*
X207135622Y-85306132D03*
D14*
X206015038Y-87687726D03*
X204323266Y-89968605D03*
D15*
X202703987Y-84524715D03*
D14*
X199320443Y-89086472D03*
X198510803Y-86364528D03*
D13*
X198272352Y-83743298D03*
D12*
X197701164Y-83642582D03*
D43*
X205891486Y-80268558D03*
X201164409Y-79435047D03*
X201426618Y-77947987D03*
X206153695Y-78781498D03*
D44*
X195362320Y-85849982D03*
X207428313Y-90556725D03*
%TD*%
D20*
%TO.C,D1*%
X115300000Y-80100000D03*
X118700000Y-80100000D03*
%TD*%
D36*
%TO.C,PSW1*%
X84225000Y-76524255D03*
X84275000Y-73524255D03*
D47*
X86075000Y-72774255D03*
X86075000Y-75774255D03*
X86075000Y-77274255D03*
D48*
X84175000Y-71174255D03*
X84175000Y-79124255D03*
%TD*%
D18*
%TO.C,MH2*%
X113025000Y-68250000D03*
%TD*%
D11*
%TO.C,JP24*%
X85605046Y-108000000D03*
X85605046Y-109650000D03*
%TD*%
D20*
%TO.C,D12*%
X115100000Y-118290000D03*
X118500000Y-118290000D03*
%TD*%
D49*
%TO.C,J3*%
X137950000Y-120250000D03*
D50*
X140490000Y-120250000D03*
X143030000Y-120250000D03*
X145570000Y-120250000D03*
X148110000Y-120250000D03*
%TD*%
D12*
%TO.C,SW14*%
X164191399Y-97747857D03*
D13*
X163611399Y-97747857D03*
D14*
X162921399Y-100287857D03*
X161651399Y-102827857D03*
D15*
X159111399Y-97747857D03*
D14*
X156571399Y-102827857D03*
X155301399Y-100287858D03*
D13*
X154611399Y-97747857D03*
D12*
X154031399Y-97747857D03*
D24*
X161511399Y-93002857D03*
X156711399Y-93002857D03*
X156711399Y-91492857D03*
X161511399Y-91492857D03*
D25*
X152111399Y-100327857D03*
X164811399Y-102867857D03*
%TD*%
D12*
%TO.C,SW10*%
X204394888Y-104189687D03*
D13*
X203823700Y-104088971D03*
D14*
X202703116Y-106470565D03*
X201011344Y-108751444D03*
D15*
X199392065Y-103307554D03*
D14*
X196008521Y-107869311D03*
X195198881Y-105147367D03*
D13*
X194960430Y-102526137D03*
D12*
X194389242Y-102425421D03*
D43*
X202579564Y-99051397D03*
X197852487Y-98217886D03*
X198114696Y-96730826D03*
X202841773Y-97564337D03*
D44*
X192050398Y-104632821D03*
X204116391Y-109339564D03*
%TD*%
D51*
%TO.C,U1*%
X88780000Y-66114255D03*
X105318815Y-67310000D03*
X88780000Y-68654255D03*
X105318815Y-69850000D03*
X88780000Y-71194255D03*
X105318815Y-72390000D03*
X88780000Y-73734255D03*
X105318815Y-74930000D03*
X88780000Y-76274255D03*
X105318815Y-77470000D03*
X88780000Y-78814255D03*
X105318815Y-80010000D03*
X88780000Y-81354255D03*
X105318815Y-82550000D03*
X88780000Y-83894255D03*
X105318815Y-85090000D03*
X88780000Y-86434255D03*
X105318815Y-87630000D03*
X88780000Y-88974255D03*
X105318815Y-90170000D03*
X88780000Y-91514255D03*
X105318815Y-92710000D03*
X88780000Y-94054255D03*
X105318815Y-95250000D03*
X90078815Y-95250000D03*
X104020000Y-94054255D03*
X90078815Y-92710000D03*
X104020000Y-91514255D03*
X90078815Y-90170000D03*
X104020000Y-88974255D03*
X90078815Y-87630000D03*
X104020000Y-86434255D03*
X90078815Y-85090000D03*
X104020000Y-83894255D03*
X90078815Y-82550000D03*
X104020000Y-81354255D03*
X90078815Y-80010000D03*
X104020000Y-78814255D03*
X90078815Y-77470000D03*
X104020000Y-76274255D03*
X90078815Y-74930000D03*
X104020000Y-73734255D03*
X90078815Y-72390000D03*
X104020000Y-71194255D03*
X90078815Y-69850000D03*
X104020000Y-68654255D03*
X90078815Y-67310000D03*
X104020000Y-66114255D03*
%TD*%
D12*
%TO.C,SW2*%
X145141399Y-68602664D03*
D13*
X144561399Y-68602664D03*
D14*
X143871399Y-71142664D03*
X142601399Y-73682664D03*
D15*
X140061399Y-68602664D03*
D14*
X137521399Y-73682664D03*
X136251399Y-71142665D03*
D13*
X135561399Y-68602664D03*
D12*
X134981399Y-68602664D03*
D24*
X142461399Y-63857664D03*
X137661399Y-63857664D03*
X137661399Y-62347664D03*
X142461399Y-62347664D03*
D25*
X133061399Y-71182664D03*
X145761399Y-73722664D03*
%TD*%
M02*
