%TF.GenerationSoftware,KiCad,Pcbnew,10.0.5*%
%TF.CreationDate,2026-08-27T17:59:17-07:00*%
%TF.ProjectId,klaw_1,6b6c6177-5f31-42e6-9b69-6361645f7063,v1*%
%TF.SameCoordinates,Original*%
%TF.FileFunction,Legend,Top*%
%TF.FilePolarity,Positive*%
%FSLAX46Y46*%
G04 Gerber Fmt 4.6, Leading zero omitted, Abs format (unit mm)*
G04 Created by KiCad (PCBNEW 10.0.5) date 2026-08-27 17:59:17*
%MOMM*%
%LPD*%
G01*
G04 APERTURE LIST*
%ADD10C,0.150000*%
%ADD11C,0.569975*%
%ADD12C,0.127000*%
%ADD13C,0.100000*%
%ADD14C,0.200000*%
%ADD15C,0.120000*%
%ADD16C,0.300000*%
%ADD17C,1.200000*%
%ADD18O,2.500000X1.700000*%
%ADD19C,1.524000*%
G04 APERTURE END LIST*
D10*
X84643747Y-69898027D02*
G75*
G02*
X83653797Y-69898027I-494975J0D01*
G01*
X83653797Y-69898027D02*
G75*
G02*
X84643747Y-69898027I494975J0D01*
G01*
D11*
X84433759Y-80398027D02*
G75*
G02*
X83863785Y-80398027I-284987J0D01*
G01*
X83863785Y-80398027D02*
G75*
G02*
X84433759Y-80398027I284987J0D01*
G01*
D10*
X86317798Y-110933549D02*
X86317798Y-111518549D01*
X86608798Y-111225049D02*
X86023798Y-111225049D01*
X86618798Y-114850049D02*
X86033798Y-114850049D01*
X91368309Y-104192337D02*
X91368309Y-105261337D01*
X91899446Y-106157204D02*
X90830446Y-106157204D01*
X91914309Y-104743337D02*
X90845309Y-104743337D01*
D12*
X143043000Y-118997000D02*
X143043000Y-116440000D01*
D13*
X106051646Y-67312055D02*
X106508789Y-67312055D01*
X106794503Y-67312055D02*
X107251646Y-67312055D01*
X107823074Y-67540626D02*
X107537360Y-67540626D01*
X107537360Y-67540626D02*
X107537360Y-66940626D01*
X108023074Y-67226340D02*
X108223074Y-67226340D01*
X108308788Y-67540626D02*
X108023074Y-67540626D01*
X108023074Y-67540626D02*
X108023074Y-66940626D01*
X108023074Y-66940626D02*
X108308788Y-66940626D01*
X108565931Y-67540626D02*
X108565931Y-66940626D01*
X108565931Y-66940626D02*
X108708788Y-66940626D01*
X108708788Y-66940626D02*
X108794502Y-66969197D01*
X108794502Y-66969197D02*
X108851645Y-67026340D01*
X108851645Y-67026340D02*
X108880216Y-67083483D01*
X108880216Y-67083483D02*
X108908788Y-67197769D01*
X108908788Y-67197769D02*
X108908788Y-67283483D01*
X108908788Y-67283483D02*
X108880216Y-67397769D01*
X108880216Y-67397769D02*
X108851645Y-67454912D01*
X108851645Y-67454912D02*
X108794502Y-67512055D01*
X108794502Y-67512055D02*
X108708788Y-67540626D01*
X108708788Y-67540626D02*
X108565931Y-67540626D01*
X106051646Y-69852055D02*
X106508789Y-69852055D01*
X106794503Y-69852055D02*
X107251646Y-69852055D01*
X107451645Y-69480626D02*
X107794503Y-69480626D01*
X107623074Y-70080626D02*
X107623074Y-69480626D01*
X107937360Y-69480626D02*
X108337360Y-70080626D01*
X108337360Y-69480626D02*
X107937360Y-70080626D01*
X106051646Y-72392055D02*
X106508789Y-72392055D01*
X106794503Y-72392055D02*
X107251646Y-72392055D01*
X107851645Y-72049197D02*
X107794503Y-72020626D01*
X107794503Y-72020626D02*
X107708788Y-72020626D01*
X107708788Y-72020626D02*
X107623074Y-72049197D01*
X107623074Y-72049197D02*
X107565931Y-72106340D01*
X107565931Y-72106340D02*
X107537360Y-72163483D01*
X107537360Y-72163483D02*
X107508788Y-72277769D01*
X107508788Y-72277769D02*
X107508788Y-72363483D01*
X107508788Y-72363483D02*
X107537360Y-72477769D01*
X107537360Y-72477769D02*
X107565931Y-72534912D01*
X107565931Y-72534912D02*
X107623074Y-72592055D01*
X107623074Y-72592055D02*
X107708788Y-72620626D01*
X107708788Y-72620626D02*
X107765931Y-72620626D01*
X107765931Y-72620626D02*
X107851645Y-72592055D01*
X107851645Y-72592055D02*
X107880217Y-72563483D01*
X107880217Y-72563483D02*
X107880217Y-72363483D01*
X107880217Y-72363483D02*
X107765931Y-72363483D01*
X108137360Y-72620626D02*
X108137360Y-72020626D01*
X108137360Y-72020626D02*
X108480217Y-72620626D01*
X108480217Y-72620626D02*
X108480217Y-72020626D01*
X108765931Y-72620626D02*
X108765931Y-72020626D01*
X108765931Y-72020626D02*
X108908788Y-72020626D01*
X108908788Y-72020626D02*
X108994502Y-72049197D01*
X108994502Y-72049197D02*
X109051645Y-72106340D01*
X109051645Y-72106340D02*
X109080216Y-72163483D01*
X109080216Y-72163483D02*
X109108788Y-72277769D01*
X109108788Y-72277769D02*
X109108788Y-72363483D01*
X109108788Y-72363483D02*
X109080216Y-72477769D01*
X109080216Y-72477769D02*
X109051645Y-72534912D01*
X109051645Y-72534912D02*
X108994502Y-72592055D01*
X108994502Y-72592055D02*
X108908788Y-72620626D01*
X108908788Y-72620626D02*
X108765931Y-72620626D01*
X106051646Y-74932055D02*
X106508789Y-74932055D01*
X106794503Y-74932055D02*
X107251646Y-74932055D01*
X107851645Y-74589197D02*
X107794503Y-74560626D01*
X107794503Y-74560626D02*
X107708788Y-74560626D01*
X107708788Y-74560626D02*
X107623074Y-74589197D01*
X107623074Y-74589197D02*
X107565931Y-74646340D01*
X107565931Y-74646340D02*
X107537360Y-74703483D01*
X107537360Y-74703483D02*
X107508788Y-74817769D01*
X107508788Y-74817769D02*
X107508788Y-74903483D01*
X107508788Y-74903483D02*
X107537360Y-75017769D01*
X107537360Y-75017769D02*
X107565931Y-75074912D01*
X107565931Y-75074912D02*
X107623074Y-75132055D01*
X107623074Y-75132055D02*
X107708788Y-75160626D01*
X107708788Y-75160626D02*
X107765931Y-75160626D01*
X107765931Y-75160626D02*
X107851645Y-75132055D01*
X107851645Y-75132055D02*
X107880217Y-75103483D01*
X107880217Y-75103483D02*
X107880217Y-74903483D01*
X107880217Y-74903483D02*
X107765931Y-74903483D01*
X108137360Y-75160626D02*
X108137360Y-74560626D01*
X108137360Y-74560626D02*
X108480217Y-75160626D01*
X108480217Y-75160626D02*
X108480217Y-74560626D01*
X108765931Y-75160626D02*
X108765931Y-74560626D01*
X108765931Y-74560626D02*
X108908788Y-74560626D01*
X108908788Y-74560626D02*
X108994502Y-74589197D01*
X108994502Y-74589197D02*
X109051645Y-74646340D01*
X109051645Y-74646340D02*
X109080216Y-74703483D01*
X109080216Y-74703483D02*
X109108788Y-74817769D01*
X109108788Y-74817769D02*
X109108788Y-74903483D01*
X109108788Y-74903483D02*
X109080216Y-75017769D01*
X109080216Y-75017769D02*
X109051645Y-75074912D01*
X109051645Y-75074912D02*
X108994502Y-75132055D01*
X108994502Y-75132055D02*
X108908788Y-75160626D01*
X108908788Y-75160626D02*
X108765931Y-75160626D01*
X106051646Y-77472055D02*
X106508789Y-77472055D01*
X106794503Y-77472055D02*
X107251646Y-77472055D01*
X107508788Y-77672055D02*
X107594503Y-77700626D01*
X107594503Y-77700626D02*
X107737360Y-77700626D01*
X107737360Y-77700626D02*
X107794503Y-77672055D01*
X107794503Y-77672055D02*
X107823074Y-77643483D01*
X107823074Y-77643483D02*
X107851645Y-77586340D01*
X107851645Y-77586340D02*
X107851645Y-77529197D01*
X107851645Y-77529197D02*
X107823074Y-77472055D01*
X107823074Y-77472055D02*
X107794503Y-77443483D01*
X107794503Y-77443483D02*
X107737360Y-77414912D01*
X107737360Y-77414912D02*
X107623074Y-77386340D01*
X107623074Y-77386340D02*
X107565931Y-77357769D01*
X107565931Y-77357769D02*
X107537360Y-77329197D01*
X107537360Y-77329197D02*
X107508788Y-77272055D01*
X107508788Y-77272055D02*
X107508788Y-77214912D01*
X107508788Y-77214912D02*
X107537360Y-77157769D01*
X107537360Y-77157769D02*
X107565931Y-77129197D01*
X107565931Y-77129197D02*
X107623074Y-77100626D01*
X107623074Y-77100626D02*
X107765931Y-77100626D01*
X107765931Y-77100626D02*
X107851645Y-77129197D01*
X108108789Y-77700626D02*
X108108789Y-77100626D01*
X108108789Y-77100626D02*
X108251646Y-77100626D01*
X108251646Y-77100626D02*
X108337360Y-77129197D01*
X108337360Y-77129197D02*
X108394503Y-77186340D01*
X108394503Y-77186340D02*
X108423074Y-77243483D01*
X108423074Y-77243483D02*
X108451646Y-77357769D01*
X108451646Y-77357769D02*
X108451646Y-77443483D01*
X108451646Y-77443483D02*
X108423074Y-77557769D01*
X108423074Y-77557769D02*
X108394503Y-77614912D01*
X108394503Y-77614912D02*
X108337360Y-77672055D01*
X108337360Y-77672055D02*
X108251646Y-77700626D01*
X108251646Y-77700626D02*
X108108789Y-77700626D01*
X108680217Y-77529197D02*
X108965932Y-77529197D01*
X108623074Y-77700626D02*
X108823074Y-77100626D01*
X108823074Y-77100626D02*
X109023074Y-77700626D01*
X106051646Y-80012055D02*
X106508789Y-80012055D01*
X106794503Y-80012055D02*
X107251646Y-80012055D01*
X107508788Y-80212055D02*
X107594503Y-80240626D01*
X107594503Y-80240626D02*
X107737360Y-80240626D01*
X107737360Y-80240626D02*
X107794503Y-80212055D01*
X107794503Y-80212055D02*
X107823074Y-80183483D01*
X107823074Y-80183483D02*
X107851645Y-80126340D01*
X107851645Y-80126340D02*
X107851645Y-80069197D01*
X107851645Y-80069197D02*
X107823074Y-80012055D01*
X107823074Y-80012055D02*
X107794503Y-79983483D01*
X107794503Y-79983483D02*
X107737360Y-79954912D01*
X107737360Y-79954912D02*
X107623074Y-79926340D01*
X107623074Y-79926340D02*
X107565931Y-79897769D01*
X107565931Y-79897769D02*
X107537360Y-79869197D01*
X107537360Y-79869197D02*
X107508788Y-79812055D01*
X107508788Y-79812055D02*
X107508788Y-79754912D01*
X107508788Y-79754912D02*
X107537360Y-79697769D01*
X107537360Y-79697769D02*
X107565931Y-79669197D01*
X107565931Y-79669197D02*
X107623074Y-79640626D01*
X107623074Y-79640626D02*
X107765931Y-79640626D01*
X107765931Y-79640626D02*
X107851645Y-79669197D01*
X108451646Y-80183483D02*
X108423074Y-80212055D01*
X108423074Y-80212055D02*
X108337360Y-80240626D01*
X108337360Y-80240626D02*
X108280217Y-80240626D01*
X108280217Y-80240626D02*
X108194503Y-80212055D01*
X108194503Y-80212055D02*
X108137360Y-80154912D01*
X108137360Y-80154912D02*
X108108789Y-80097769D01*
X108108789Y-80097769D02*
X108080217Y-79983483D01*
X108080217Y-79983483D02*
X108080217Y-79897769D01*
X108080217Y-79897769D02*
X108108789Y-79783483D01*
X108108789Y-79783483D02*
X108137360Y-79726340D01*
X108137360Y-79726340D02*
X108194503Y-79669197D01*
X108194503Y-79669197D02*
X108280217Y-79640626D01*
X108280217Y-79640626D02*
X108337360Y-79640626D01*
X108337360Y-79640626D02*
X108423074Y-79669197D01*
X108423074Y-79669197D02*
X108451646Y-79697769D01*
X108994503Y-80240626D02*
X108708789Y-80240626D01*
X108708789Y-80240626D02*
X108708789Y-79640626D01*
X106051646Y-82552055D02*
X106508789Y-82552055D01*
X106794503Y-82552055D02*
X107251646Y-82552055D01*
X107880217Y-82780626D02*
X107680217Y-82494912D01*
X107537360Y-82780626D02*
X107537360Y-82180626D01*
X107537360Y-82180626D02*
X107765931Y-82180626D01*
X107765931Y-82180626D02*
X107823074Y-82209197D01*
X107823074Y-82209197D02*
X107851645Y-82237769D01*
X107851645Y-82237769D02*
X107880217Y-82294912D01*
X107880217Y-82294912D02*
X107880217Y-82380626D01*
X107880217Y-82380626D02*
X107851645Y-82437769D01*
X107851645Y-82437769D02*
X107823074Y-82466340D01*
X107823074Y-82466340D02*
X107765931Y-82494912D01*
X107765931Y-82494912D02*
X107537360Y-82494912D01*
X108080217Y-82180626D02*
X108480217Y-82780626D01*
X108480217Y-82180626D02*
X108080217Y-82780626D01*
X106051646Y-85092055D02*
X106508789Y-85092055D01*
X106794503Y-85092055D02*
X107251646Y-85092055D01*
X107880217Y-85320626D02*
X107680217Y-85034912D01*
X107537360Y-85320626D02*
X107537360Y-84720626D01*
X107537360Y-84720626D02*
X107765931Y-84720626D01*
X107765931Y-84720626D02*
X107823074Y-84749197D01*
X107823074Y-84749197D02*
X107851645Y-84777769D01*
X107851645Y-84777769D02*
X107880217Y-84834912D01*
X107880217Y-84834912D02*
X107880217Y-84920626D01*
X107880217Y-84920626D02*
X107851645Y-84977769D01*
X107851645Y-84977769D02*
X107823074Y-85006340D01*
X107823074Y-85006340D02*
X107765931Y-85034912D01*
X107765931Y-85034912D02*
X107537360Y-85034912D01*
X108251645Y-84720626D02*
X108365931Y-84720626D01*
X108365931Y-84720626D02*
X108423074Y-84749197D01*
X108423074Y-84749197D02*
X108480217Y-84806340D01*
X108480217Y-84806340D02*
X108508788Y-84920626D01*
X108508788Y-84920626D02*
X108508788Y-85120626D01*
X108508788Y-85120626D02*
X108480217Y-85234912D01*
X108480217Y-85234912D02*
X108423074Y-85292055D01*
X108423074Y-85292055D02*
X108365931Y-85320626D01*
X108365931Y-85320626D02*
X108251645Y-85320626D01*
X108251645Y-85320626D02*
X108194503Y-85292055D01*
X108194503Y-85292055D02*
X108137360Y-85234912D01*
X108137360Y-85234912D02*
X108108788Y-85120626D01*
X108108788Y-85120626D02*
X108108788Y-84920626D01*
X108108788Y-84920626D02*
X108137360Y-84806340D01*
X108137360Y-84806340D02*
X108194503Y-84749197D01*
X108194503Y-84749197D02*
X108251645Y-84720626D01*
X108708788Y-84720626D02*
X108851645Y-85320626D01*
X108851645Y-85320626D02*
X108965931Y-84892055D01*
X108965931Y-84892055D02*
X109080216Y-85320626D01*
X109080216Y-85320626D02*
X109223074Y-84720626D01*
X109565930Y-84720626D02*
X109623073Y-84720626D01*
X109623073Y-84720626D02*
X109680216Y-84749197D01*
X109680216Y-84749197D02*
X109708788Y-84777769D01*
X109708788Y-84777769D02*
X109737359Y-84834912D01*
X109737359Y-84834912D02*
X109765930Y-84949197D01*
X109765930Y-84949197D02*
X109765930Y-85092055D01*
X109765930Y-85092055D02*
X109737359Y-85206340D01*
X109737359Y-85206340D02*
X109708788Y-85263483D01*
X109708788Y-85263483D02*
X109680216Y-85292055D01*
X109680216Y-85292055D02*
X109623073Y-85320626D01*
X109623073Y-85320626D02*
X109565930Y-85320626D01*
X109565930Y-85320626D02*
X109508788Y-85292055D01*
X109508788Y-85292055D02*
X109480216Y-85263483D01*
X109480216Y-85263483D02*
X109451645Y-85206340D01*
X109451645Y-85206340D02*
X109423073Y-85092055D01*
X109423073Y-85092055D02*
X109423073Y-84949197D01*
X109423073Y-84949197D02*
X109451645Y-84834912D01*
X109451645Y-84834912D02*
X109480216Y-84777769D01*
X109480216Y-84777769D02*
X109508788Y-84749197D01*
X109508788Y-84749197D02*
X109565930Y-84720626D01*
X106051646Y-87632055D02*
X106508789Y-87632055D01*
X106794503Y-87632055D02*
X107251646Y-87632055D01*
X107880217Y-87860626D02*
X107680217Y-87574912D01*
X107537360Y-87860626D02*
X107537360Y-87260626D01*
X107537360Y-87260626D02*
X107765931Y-87260626D01*
X107765931Y-87260626D02*
X107823074Y-87289197D01*
X107823074Y-87289197D02*
X107851645Y-87317769D01*
X107851645Y-87317769D02*
X107880217Y-87374912D01*
X107880217Y-87374912D02*
X107880217Y-87460626D01*
X107880217Y-87460626D02*
X107851645Y-87517769D01*
X107851645Y-87517769D02*
X107823074Y-87546340D01*
X107823074Y-87546340D02*
X107765931Y-87574912D01*
X107765931Y-87574912D02*
X107537360Y-87574912D01*
X108251645Y-87260626D02*
X108365931Y-87260626D01*
X108365931Y-87260626D02*
X108423074Y-87289197D01*
X108423074Y-87289197D02*
X108480217Y-87346340D01*
X108480217Y-87346340D02*
X108508788Y-87460626D01*
X108508788Y-87460626D02*
X108508788Y-87660626D01*
X108508788Y-87660626D02*
X108480217Y-87774912D01*
X108480217Y-87774912D02*
X108423074Y-87832055D01*
X108423074Y-87832055D02*
X108365931Y-87860626D01*
X108365931Y-87860626D02*
X108251645Y-87860626D01*
X108251645Y-87860626D02*
X108194503Y-87832055D01*
X108194503Y-87832055D02*
X108137360Y-87774912D01*
X108137360Y-87774912D02*
X108108788Y-87660626D01*
X108108788Y-87660626D02*
X108108788Y-87460626D01*
X108108788Y-87460626D02*
X108137360Y-87346340D01*
X108137360Y-87346340D02*
X108194503Y-87289197D01*
X108194503Y-87289197D02*
X108251645Y-87260626D01*
X108708788Y-87260626D02*
X108851645Y-87860626D01*
X108851645Y-87860626D02*
X108965931Y-87432055D01*
X108965931Y-87432055D02*
X109080216Y-87860626D01*
X109080216Y-87860626D02*
X109223074Y-87260626D01*
X109765930Y-87860626D02*
X109423073Y-87860626D01*
X109594502Y-87860626D02*
X109594502Y-87260626D01*
X109594502Y-87260626D02*
X109537359Y-87346340D01*
X109537359Y-87346340D02*
X109480216Y-87403483D01*
X109480216Y-87403483D02*
X109423073Y-87432055D01*
X106051646Y-90172055D02*
X106508789Y-90172055D01*
X106794503Y-90172055D02*
X107251646Y-90172055D01*
X107880217Y-90400626D02*
X107680217Y-90114912D01*
X107537360Y-90400626D02*
X107537360Y-89800626D01*
X107537360Y-89800626D02*
X107765931Y-89800626D01*
X107765931Y-89800626D02*
X107823074Y-89829197D01*
X107823074Y-89829197D02*
X107851645Y-89857769D01*
X107851645Y-89857769D02*
X107880217Y-89914912D01*
X107880217Y-89914912D02*
X107880217Y-90000626D01*
X107880217Y-90000626D02*
X107851645Y-90057769D01*
X107851645Y-90057769D02*
X107823074Y-90086340D01*
X107823074Y-90086340D02*
X107765931Y-90114912D01*
X107765931Y-90114912D02*
X107537360Y-90114912D01*
X108251645Y-89800626D02*
X108365931Y-89800626D01*
X108365931Y-89800626D02*
X108423074Y-89829197D01*
X108423074Y-89829197D02*
X108480217Y-89886340D01*
X108480217Y-89886340D02*
X108508788Y-90000626D01*
X108508788Y-90000626D02*
X108508788Y-90200626D01*
X108508788Y-90200626D02*
X108480217Y-90314912D01*
X108480217Y-90314912D02*
X108423074Y-90372055D01*
X108423074Y-90372055D02*
X108365931Y-90400626D01*
X108365931Y-90400626D02*
X108251645Y-90400626D01*
X108251645Y-90400626D02*
X108194503Y-90372055D01*
X108194503Y-90372055D02*
X108137360Y-90314912D01*
X108137360Y-90314912D02*
X108108788Y-90200626D01*
X108108788Y-90200626D02*
X108108788Y-90000626D01*
X108108788Y-90000626D02*
X108137360Y-89886340D01*
X108137360Y-89886340D02*
X108194503Y-89829197D01*
X108194503Y-89829197D02*
X108251645Y-89800626D01*
X108708788Y-89800626D02*
X108851645Y-90400626D01*
X108851645Y-90400626D02*
X108965931Y-89972055D01*
X108965931Y-89972055D02*
X109080216Y-90400626D01*
X109080216Y-90400626D02*
X109223074Y-89800626D01*
X109423073Y-89857769D02*
X109451645Y-89829197D01*
X109451645Y-89829197D02*
X109508788Y-89800626D01*
X109508788Y-89800626D02*
X109651645Y-89800626D01*
X109651645Y-89800626D02*
X109708788Y-89829197D01*
X109708788Y-89829197D02*
X109737359Y-89857769D01*
X109737359Y-89857769D02*
X109765930Y-89914912D01*
X109765930Y-89914912D02*
X109765930Y-89972055D01*
X109765930Y-89972055D02*
X109737359Y-90057769D01*
X109737359Y-90057769D02*
X109394502Y-90400626D01*
X109394502Y-90400626D02*
X109765930Y-90400626D01*
X106051646Y-92712055D02*
X106508789Y-92712055D01*
X106794503Y-92712055D02*
X107251646Y-92712055D01*
X107880217Y-92940626D02*
X107680217Y-92654912D01*
X107537360Y-92940626D02*
X107537360Y-92340626D01*
X107537360Y-92340626D02*
X107765931Y-92340626D01*
X107765931Y-92340626D02*
X107823074Y-92369197D01*
X107823074Y-92369197D02*
X107851645Y-92397769D01*
X107851645Y-92397769D02*
X107880217Y-92454912D01*
X107880217Y-92454912D02*
X107880217Y-92540626D01*
X107880217Y-92540626D02*
X107851645Y-92597769D01*
X107851645Y-92597769D02*
X107823074Y-92626340D01*
X107823074Y-92626340D02*
X107765931Y-92654912D01*
X107765931Y-92654912D02*
X107537360Y-92654912D01*
X108251645Y-92340626D02*
X108365931Y-92340626D01*
X108365931Y-92340626D02*
X108423074Y-92369197D01*
X108423074Y-92369197D02*
X108480217Y-92426340D01*
X108480217Y-92426340D02*
X108508788Y-92540626D01*
X108508788Y-92540626D02*
X108508788Y-92740626D01*
X108508788Y-92740626D02*
X108480217Y-92854912D01*
X108480217Y-92854912D02*
X108423074Y-92912055D01*
X108423074Y-92912055D02*
X108365931Y-92940626D01*
X108365931Y-92940626D02*
X108251645Y-92940626D01*
X108251645Y-92940626D02*
X108194503Y-92912055D01*
X108194503Y-92912055D02*
X108137360Y-92854912D01*
X108137360Y-92854912D02*
X108108788Y-92740626D01*
X108108788Y-92740626D02*
X108108788Y-92540626D01*
X108108788Y-92540626D02*
X108137360Y-92426340D01*
X108137360Y-92426340D02*
X108194503Y-92369197D01*
X108194503Y-92369197D02*
X108251645Y-92340626D01*
X108708788Y-92340626D02*
X108851645Y-92940626D01*
X108851645Y-92940626D02*
X108965931Y-92512055D01*
X108965931Y-92512055D02*
X109080216Y-92940626D01*
X109080216Y-92940626D02*
X109223074Y-92340626D01*
X109394502Y-92340626D02*
X109765930Y-92340626D01*
X109765930Y-92340626D02*
X109565930Y-92569197D01*
X109565930Y-92569197D02*
X109651645Y-92569197D01*
X109651645Y-92569197D02*
X109708788Y-92597769D01*
X109708788Y-92597769D02*
X109737359Y-92626340D01*
X109737359Y-92626340D02*
X109765930Y-92683483D01*
X109765930Y-92683483D02*
X109765930Y-92826340D01*
X109765930Y-92826340D02*
X109737359Y-92883483D01*
X109737359Y-92883483D02*
X109708788Y-92912055D01*
X109708788Y-92912055D02*
X109651645Y-92940626D01*
X109651645Y-92940626D02*
X109480216Y-92940626D01*
X109480216Y-92940626D02*
X109423073Y-92912055D01*
X109423073Y-92912055D02*
X109394502Y-92883483D01*
X106051646Y-95252055D02*
X106508789Y-95252055D01*
X106794503Y-95252055D02*
X107251646Y-95252055D01*
X107508788Y-95309197D02*
X107794503Y-95309197D01*
X107451645Y-95480626D02*
X107651645Y-94880626D01*
X107651645Y-94880626D02*
X107851645Y-95480626D01*
X108051646Y-94880626D02*
X108051646Y-95366340D01*
X108051646Y-95366340D02*
X108080217Y-95423483D01*
X108080217Y-95423483D02*
X108108789Y-95452055D01*
X108108789Y-95452055D02*
X108165931Y-95480626D01*
X108165931Y-95480626D02*
X108280217Y-95480626D01*
X108280217Y-95480626D02*
X108337360Y-95452055D01*
X108337360Y-95452055D02*
X108365931Y-95423483D01*
X108365931Y-95423483D02*
X108394503Y-95366340D01*
X108394503Y-95366340D02*
X108394503Y-94880626D01*
X108680217Y-95480626D02*
X108680217Y-94880626D01*
X108680217Y-94880626D02*
X108823074Y-94880626D01*
X108823074Y-94880626D02*
X108908788Y-94909197D01*
X108908788Y-94909197D02*
X108965931Y-94966340D01*
X108965931Y-94966340D02*
X108994502Y-95023483D01*
X108994502Y-95023483D02*
X109023074Y-95137769D01*
X109023074Y-95137769D02*
X109023074Y-95223483D01*
X109023074Y-95223483D02*
X108994502Y-95337769D01*
X108994502Y-95337769D02*
X108965931Y-95394912D01*
X108965931Y-95394912D02*
X108908788Y-95452055D01*
X108908788Y-95452055D02*
X108823074Y-95480626D01*
X108823074Y-95480626D02*
X108680217Y-95480626D01*
X109280217Y-95480626D02*
X109280217Y-94880626D01*
X109680216Y-94880626D02*
X109794502Y-94880626D01*
X109794502Y-94880626D02*
X109851645Y-94909197D01*
X109851645Y-94909197D02*
X109908788Y-94966340D01*
X109908788Y-94966340D02*
X109937359Y-95080626D01*
X109937359Y-95080626D02*
X109937359Y-95280626D01*
X109937359Y-95280626D02*
X109908788Y-95394912D01*
X109908788Y-95394912D02*
X109851645Y-95452055D01*
X109851645Y-95452055D02*
X109794502Y-95480626D01*
X109794502Y-95480626D02*
X109680216Y-95480626D01*
X109680216Y-95480626D02*
X109623074Y-95452055D01*
X109623074Y-95452055D02*
X109565931Y-95394912D01*
X109565931Y-95394912D02*
X109537359Y-95280626D01*
X109537359Y-95280626D02*
X109537359Y-95080626D01*
X109537359Y-95080626D02*
X109565931Y-94966340D01*
X109565931Y-94966340D02*
X109623074Y-94909197D01*
X109623074Y-94909197D02*
X109680216Y-94880626D01*
X86186497Y-85273483D02*
X86157925Y-85302055D01*
X86157925Y-85302055D02*
X86072211Y-85330626D01*
X86072211Y-85330626D02*
X86015068Y-85330626D01*
X86015068Y-85330626D02*
X85929354Y-85302055D01*
X85929354Y-85302055D02*
X85872211Y-85244912D01*
X85872211Y-85244912D02*
X85843640Y-85187769D01*
X85843640Y-85187769D02*
X85815068Y-85073483D01*
X85815068Y-85073483D02*
X85815068Y-84987769D01*
X85815068Y-84987769D02*
X85843640Y-84873483D01*
X85843640Y-84873483D02*
X85872211Y-84816340D01*
X85872211Y-84816340D02*
X85929354Y-84759197D01*
X85929354Y-84759197D02*
X86015068Y-84730626D01*
X86015068Y-84730626D02*
X86072211Y-84730626D01*
X86072211Y-84730626D02*
X86157925Y-84759197D01*
X86157925Y-84759197D02*
X86186497Y-84787769D01*
X86557925Y-84730626D02*
X86672211Y-84730626D01*
X86672211Y-84730626D02*
X86729354Y-84759197D01*
X86729354Y-84759197D02*
X86786497Y-84816340D01*
X86786497Y-84816340D02*
X86815068Y-84930626D01*
X86815068Y-84930626D02*
X86815068Y-85130626D01*
X86815068Y-85130626D02*
X86786497Y-85244912D01*
X86786497Y-85244912D02*
X86729354Y-85302055D01*
X86729354Y-85302055D02*
X86672211Y-85330626D01*
X86672211Y-85330626D02*
X86557925Y-85330626D01*
X86557925Y-85330626D02*
X86500783Y-85302055D01*
X86500783Y-85302055D02*
X86443640Y-85244912D01*
X86443640Y-85244912D02*
X86415068Y-85130626D01*
X86415068Y-85130626D02*
X86415068Y-84930626D01*
X86415068Y-84930626D02*
X86443640Y-84816340D01*
X86443640Y-84816340D02*
X86500783Y-84759197D01*
X86500783Y-84759197D02*
X86557925Y-84730626D01*
X87357925Y-85330626D02*
X87072211Y-85330626D01*
X87072211Y-85330626D02*
X87072211Y-84730626D01*
X87872210Y-85330626D02*
X87529353Y-85330626D01*
X87700782Y-85330626D02*
X87700782Y-84730626D01*
X87700782Y-84730626D02*
X87643639Y-84816340D01*
X87643639Y-84816340D02*
X87586496Y-84873483D01*
X87586496Y-84873483D02*
X87529353Y-84902055D01*
X88129354Y-85102055D02*
X88586497Y-85102055D01*
X88872211Y-85102055D02*
X89329354Y-85102055D01*
X85562925Y-67236340D02*
X85648639Y-67264912D01*
X85648639Y-67264912D02*
X85677210Y-67293483D01*
X85677210Y-67293483D02*
X85705782Y-67350626D01*
X85705782Y-67350626D02*
X85705782Y-67436340D01*
X85705782Y-67436340D02*
X85677210Y-67493483D01*
X85677210Y-67493483D02*
X85648639Y-67522055D01*
X85648639Y-67522055D02*
X85591496Y-67550626D01*
X85591496Y-67550626D02*
X85362925Y-67550626D01*
X85362925Y-67550626D02*
X85362925Y-66950626D01*
X85362925Y-66950626D02*
X85562925Y-66950626D01*
X85562925Y-66950626D02*
X85620068Y-66979197D01*
X85620068Y-66979197D02*
X85648639Y-67007769D01*
X85648639Y-67007769D02*
X85677210Y-67064912D01*
X85677210Y-67064912D02*
X85677210Y-67122055D01*
X85677210Y-67122055D02*
X85648639Y-67179197D01*
X85648639Y-67179197D02*
X85620068Y-67207769D01*
X85620068Y-67207769D02*
X85562925Y-67236340D01*
X85562925Y-67236340D02*
X85362925Y-67236340D01*
X85934353Y-67379197D02*
X86220068Y-67379197D01*
X85877210Y-67550626D02*
X86077210Y-66950626D01*
X86077210Y-66950626D02*
X86277210Y-67550626D01*
X86391496Y-66950626D02*
X86734354Y-66950626D01*
X86562925Y-67550626D02*
X86562925Y-66950626D01*
X86848639Y-66950626D02*
X87191497Y-66950626D01*
X87020068Y-67550626D02*
X87020068Y-66950626D01*
X87391497Y-67322055D02*
X87848640Y-67322055D01*
X87620068Y-67550626D02*
X87620068Y-67093483D01*
X88134354Y-67322055D02*
X88591497Y-67322055D01*
X88877211Y-67322055D02*
X89334354Y-67322055D01*
X86620068Y-69519197D02*
X86562926Y-69490626D01*
X86562926Y-69490626D02*
X86477211Y-69490626D01*
X86477211Y-69490626D02*
X86391497Y-69519197D01*
X86391497Y-69519197D02*
X86334354Y-69576340D01*
X86334354Y-69576340D02*
X86305783Y-69633483D01*
X86305783Y-69633483D02*
X86277211Y-69747769D01*
X86277211Y-69747769D02*
X86277211Y-69833483D01*
X86277211Y-69833483D02*
X86305783Y-69947769D01*
X86305783Y-69947769D02*
X86334354Y-70004912D01*
X86334354Y-70004912D02*
X86391497Y-70062055D01*
X86391497Y-70062055D02*
X86477211Y-70090626D01*
X86477211Y-70090626D02*
X86534354Y-70090626D01*
X86534354Y-70090626D02*
X86620068Y-70062055D01*
X86620068Y-70062055D02*
X86648640Y-70033483D01*
X86648640Y-70033483D02*
X86648640Y-69833483D01*
X86648640Y-69833483D02*
X86534354Y-69833483D01*
X86905783Y-70090626D02*
X86905783Y-69490626D01*
X86905783Y-69490626D02*
X87248640Y-70090626D01*
X87248640Y-70090626D02*
X87248640Y-69490626D01*
X87534354Y-70090626D02*
X87534354Y-69490626D01*
X87534354Y-69490626D02*
X87677211Y-69490626D01*
X87677211Y-69490626D02*
X87762925Y-69519197D01*
X87762925Y-69519197D02*
X87820068Y-69576340D01*
X87820068Y-69576340D02*
X87848639Y-69633483D01*
X87848639Y-69633483D02*
X87877211Y-69747769D01*
X87877211Y-69747769D02*
X87877211Y-69833483D01*
X87877211Y-69833483D02*
X87848639Y-69947769D01*
X87848639Y-69947769D02*
X87820068Y-70004912D01*
X87820068Y-70004912D02*
X87762925Y-70062055D01*
X87762925Y-70062055D02*
X87677211Y-70090626D01*
X87677211Y-70090626D02*
X87534354Y-70090626D01*
X88134354Y-69862055D02*
X88591497Y-69862055D01*
X88877211Y-69862055D02*
X89334354Y-69862055D01*
X86848639Y-72630626D02*
X86648639Y-72344912D01*
X86505782Y-72630626D02*
X86505782Y-72030626D01*
X86505782Y-72030626D02*
X86734353Y-72030626D01*
X86734353Y-72030626D02*
X86791496Y-72059197D01*
X86791496Y-72059197D02*
X86820067Y-72087769D01*
X86820067Y-72087769D02*
X86848639Y-72144912D01*
X86848639Y-72144912D02*
X86848639Y-72230626D01*
X86848639Y-72230626D02*
X86820067Y-72287769D01*
X86820067Y-72287769D02*
X86791496Y-72316340D01*
X86791496Y-72316340D02*
X86734353Y-72344912D01*
X86734353Y-72344912D02*
X86505782Y-72344912D01*
X87077210Y-72602055D02*
X87162925Y-72630626D01*
X87162925Y-72630626D02*
X87305782Y-72630626D01*
X87305782Y-72630626D02*
X87362925Y-72602055D01*
X87362925Y-72602055D02*
X87391496Y-72573483D01*
X87391496Y-72573483D02*
X87420067Y-72516340D01*
X87420067Y-72516340D02*
X87420067Y-72459197D01*
X87420067Y-72459197D02*
X87391496Y-72402055D01*
X87391496Y-72402055D02*
X87362925Y-72373483D01*
X87362925Y-72373483D02*
X87305782Y-72344912D01*
X87305782Y-72344912D02*
X87191496Y-72316340D01*
X87191496Y-72316340D02*
X87134353Y-72287769D01*
X87134353Y-72287769D02*
X87105782Y-72259197D01*
X87105782Y-72259197D02*
X87077210Y-72202055D01*
X87077210Y-72202055D02*
X87077210Y-72144912D01*
X87077210Y-72144912D02*
X87105782Y-72087769D01*
X87105782Y-72087769D02*
X87134353Y-72059197D01*
X87134353Y-72059197D02*
X87191496Y-72030626D01*
X87191496Y-72030626D02*
X87334353Y-72030626D01*
X87334353Y-72030626D02*
X87420067Y-72059197D01*
X87591496Y-72030626D02*
X87934354Y-72030626D01*
X87762925Y-72630626D02*
X87762925Y-72030626D01*
X88134354Y-72402055D02*
X88591497Y-72402055D01*
X88877211Y-72402055D02*
X89334354Y-72402055D01*
X86334353Y-74570626D02*
X86534353Y-75170626D01*
X86534353Y-75170626D02*
X86734353Y-74570626D01*
X87277211Y-75113483D02*
X87248639Y-75142055D01*
X87248639Y-75142055D02*
X87162925Y-75170626D01*
X87162925Y-75170626D02*
X87105782Y-75170626D01*
X87105782Y-75170626D02*
X87020068Y-75142055D01*
X87020068Y-75142055D02*
X86962925Y-75084912D01*
X86962925Y-75084912D02*
X86934354Y-75027769D01*
X86934354Y-75027769D02*
X86905782Y-74913483D01*
X86905782Y-74913483D02*
X86905782Y-74827769D01*
X86905782Y-74827769D02*
X86934354Y-74713483D01*
X86934354Y-74713483D02*
X86962925Y-74656340D01*
X86962925Y-74656340D02*
X87020068Y-74599197D01*
X87020068Y-74599197D02*
X87105782Y-74570626D01*
X87105782Y-74570626D02*
X87162925Y-74570626D01*
X87162925Y-74570626D02*
X87248639Y-74599197D01*
X87248639Y-74599197D02*
X87277211Y-74627769D01*
X87877211Y-75113483D02*
X87848639Y-75142055D01*
X87848639Y-75142055D02*
X87762925Y-75170626D01*
X87762925Y-75170626D02*
X87705782Y-75170626D01*
X87705782Y-75170626D02*
X87620068Y-75142055D01*
X87620068Y-75142055D02*
X87562925Y-75084912D01*
X87562925Y-75084912D02*
X87534354Y-75027769D01*
X87534354Y-75027769D02*
X87505782Y-74913483D01*
X87505782Y-74913483D02*
X87505782Y-74827769D01*
X87505782Y-74827769D02*
X87534354Y-74713483D01*
X87534354Y-74713483D02*
X87562925Y-74656340D01*
X87562925Y-74656340D02*
X87620068Y-74599197D01*
X87620068Y-74599197D02*
X87705782Y-74570626D01*
X87705782Y-74570626D02*
X87762925Y-74570626D01*
X87762925Y-74570626D02*
X87848639Y-74599197D01*
X87848639Y-74599197D02*
X87877211Y-74627769D01*
X88134354Y-74942055D02*
X88591497Y-74942055D01*
X88877211Y-74942055D02*
X89334354Y-74942055D01*
X85391497Y-77396340D02*
X85591497Y-77396340D01*
X85677211Y-77710626D02*
X85391497Y-77710626D01*
X85391497Y-77710626D02*
X85391497Y-77110626D01*
X85391497Y-77110626D02*
X85677211Y-77110626D01*
X85934354Y-77710626D02*
X85934354Y-77110626D01*
X85934354Y-77110626D02*
X86277211Y-77710626D01*
X86277211Y-77710626D02*
X86277211Y-77110626D01*
X86905782Y-77653483D02*
X86877210Y-77682055D01*
X86877210Y-77682055D02*
X86791496Y-77710626D01*
X86791496Y-77710626D02*
X86734353Y-77710626D01*
X86734353Y-77710626D02*
X86648639Y-77682055D01*
X86648639Y-77682055D02*
X86591496Y-77624912D01*
X86591496Y-77624912D02*
X86562925Y-77567769D01*
X86562925Y-77567769D02*
X86534353Y-77453483D01*
X86534353Y-77453483D02*
X86534353Y-77367769D01*
X86534353Y-77367769D02*
X86562925Y-77253483D01*
X86562925Y-77253483D02*
X86591496Y-77196340D01*
X86591496Y-77196340D02*
X86648639Y-77139197D01*
X86648639Y-77139197D02*
X86734353Y-77110626D01*
X86734353Y-77110626D02*
X86791496Y-77110626D01*
X86791496Y-77110626D02*
X86877210Y-77139197D01*
X86877210Y-77139197D02*
X86905782Y-77167769D01*
X87591496Y-77539197D02*
X87877211Y-77539197D01*
X87534353Y-77710626D02*
X87734353Y-77110626D01*
X87734353Y-77110626D02*
X87934353Y-77710626D01*
X88134354Y-77482055D02*
X88591497Y-77482055D01*
X88877211Y-77482055D02*
X89334354Y-77482055D01*
X85305783Y-79936340D02*
X85505783Y-79936340D01*
X85591497Y-80250626D02*
X85305783Y-80250626D01*
X85305783Y-80250626D02*
X85305783Y-79650626D01*
X85305783Y-79650626D02*
X85591497Y-79650626D01*
X85848640Y-80250626D02*
X85848640Y-79650626D01*
X85848640Y-79650626D02*
X86191497Y-80250626D01*
X86191497Y-80250626D02*
X86191497Y-79650626D01*
X86820068Y-80193483D02*
X86791496Y-80222055D01*
X86791496Y-80222055D02*
X86705782Y-80250626D01*
X86705782Y-80250626D02*
X86648639Y-80250626D01*
X86648639Y-80250626D02*
X86562925Y-80222055D01*
X86562925Y-80222055D02*
X86505782Y-80164912D01*
X86505782Y-80164912D02*
X86477211Y-80107769D01*
X86477211Y-80107769D02*
X86448639Y-79993483D01*
X86448639Y-79993483D02*
X86448639Y-79907769D01*
X86448639Y-79907769D02*
X86477211Y-79793483D01*
X86477211Y-79793483D02*
X86505782Y-79736340D01*
X86505782Y-79736340D02*
X86562925Y-79679197D01*
X86562925Y-79679197D02*
X86648639Y-79650626D01*
X86648639Y-79650626D02*
X86705782Y-79650626D01*
X86705782Y-79650626D02*
X86791496Y-79679197D01*
X86791496Y-79679197D02*
X86820068Y-79707769D01*
X87734354Y-79936340D02*
X87820068Y-79964912D01*
X87820068Y-79964912D02*
X87848639Y-79993483D01*
X87848639Y-79993483D02*
X87877211Y-80050626D01*
X87877211Y-80050626D02*
X87877211Y-80136340D01*
X87877211Y-80136340D02*
X87848639Y-80193483D01*
X87848639Y-80193483D02*
X87820068Y-80222055D01*
X87820068Y-80222055D02*
X87762925Y-80250626D01*
X87762925Y-80250626D02*
X87534354Y-80250626D01*
X87534354Y-80250626D02*
X87534354Y-79650626D01*
X87534354Y-79650626D02*
X87734354Y-79650626D01*
X87734354Y-79650626D02*
X87791497Y-79679197D01*
X87791497Y-79679197D02*
X87820068Y-79707769D01*
X87820068Y-79707769D02*
X87848639Y-79764912D01*
X87848639Y-79764912D02*
X87848639Y-79822055D01*
X87848639Y-79822055D02*
X87820068Y-79879197D01*
X87820068Y-79879197D02*
X87791497Y-79907769D01*
X87791497Y-79907769D02*
X87734354Y-79936340D01*
X87734354Y-79936340D02*
X87534354Y-79936340D01*
X88134354Y-80022055D02*
X88591497Y-80022055D01*
X88877211Y-80022055D02*
X89334354Y-80022055D01*
X86191497Y-82733483D02*
X86162925Y-82762055D01*
X86162925Y-82762055D02*
X86077211Y-82790626D01*
X86077211Y-82790626D02*
X86020068Y-82790626D01*
X86020068Y-82790626D02*
X85934354Y-82762055D01*
X85934354Y-82762055D02*
X85877211Y-82704912D01*
X85877211Y-82704912D02*
X85848640Y-82647769D01*
X85848640Y-82647769D02*
X85820068Y-82533483D01*
X85820068Y-82533483D02*
X85820068Y-82447769D01*
X85820068Y-82447769D02*
X85848640Y-82333483D01*
X85848640Y-82333483D02*
X85877211Y-82276340D01*
X85877211Y-82276340D02*
X85934354Y-82219197D01*
X85934354Y-82219197D02*
X86020068Y-82190626D01*
X86020068Y-82190626D02*
X86077211Y-82190626D01*
X86077211Y-82190626D02*
X86162925Y-82219197D01*
X86162925Y-82219197D02*
X86191497Y-82247769D01*
X86562925Y-82190626D02*
X86677211Y-82190626D01*
X86677211Y-82190626D02*
X86734354Y-82219197D01*
X86734354Y-82219197D02*
X86791497Y-82276340D01*
X86791497Y-82276340D02*
X86820068Y-82390626D01*
X86820068Y-82390626D02*
X86820068Y-82590626D01*
X86820068Y-82590626D02*
X86791497Y-82704912D01*
X86791497Y-82704912D02*
X86734354Y-82762055D01*
X86734354Y-82762055D02*
X86677211Y-82790626D01*
X86677211Y-82790626D02*
X86562925Y-82790626D01*
X86562925Y-82790626D02*
X86505783Y-82762055D01*
X86505783Y-82762055D02*
X86448640Y-82704912D01*
X86448640Y-82704912D02*
X86420068Y-82590626D01*
X86420068Y-82590626D02*
X86420068Y-82390626D01*
X86420068Y-82390626D02*
X86448640Y-82276340D01*
X86448640Y-82276340D02*
X86505783Y-82219197D01*
X86505783Y-82219197D02*
X86562925Y-82190626D01*
X87362925Y-82790626D02*
X87077211Y-82790626D01*
X87077211Y-82790626D02*
X87077211Y-82190626D01*
X87677210Y-82190626D02*
X87734353Y-82190626D01*
X87734353Y-82190626D02*
X87791496Y-82219197D01*
X87791496Y-82219197D02*
X87820068Y-82247769D01*
X87820068Y-82247769D02*
X87848639Y-82304912D01*
X87848639Y-82304912D02*
X87877210Y-82419197D01*
X87877210Y-82419197D02*
X87877210Y-82562055D01*
X87877210Y-82562055D02*
X87848639Y-82676340D01*
X87848639Y-82676340D02*
X87820068Y-82733483D01*
X87820068Y-82733483D02*
X87791496Y-82762055D01*
X87791496Y-82762055D02*
X87734353Y-82790626D01*
X87734353Y-82790626D02*
X87677210Y-82790626D01*
X87677210Y-82790626D02*
X87620068Y-82762055D01*
X87620068Y-82762055D02*
X87591496Y-82733483D01*
X87591496Y-82733483D02*
X87562925Y-82676340D01*
X87562925Y-82676340D02*
X87534353Y-82562055D01*
X87534353Y-82562055D02*
X87534353Y-82419197D01*
X87534353Y-82419197D02*
X87562925Y-82304912D01*
X87562925Y-82304912D02*
X87591496Y-82247769D01*
X87591496Y-82247769D02*
X87620068Y-82219197D01*
X87620068Y-82219197D02*
X87677210Y-82190626D01*
X88134354Y-82562055D02*
X88591497Y-82562055D01*
X88877211Y-82562055D02*
X89334354Y-82562055D01*
X86191497Y-87813483D02*
X86162925Y-87842055D01*
X86162925Y-87842055D02*
X86077211Y-87870626D01*
X86077211Y-87870626D02*
X86020068Y-87870626D01*
X86020068Y-87870626D02*
X85934354Y-87842055D01*
X85934354Y-87842055D02*
X85877211Y-87784912D01*
X85877211Y-87784912D02*
X85848640Y-87727769D01*
X85848640Y-87727769D02*
X85820068Y-87613483D01*
X85820068Y-87613483D02*
X85820068Y-87527769D01*
X85820068Y-87527769D02*
X85848640Y-87413483D01*
X85848640Y-87413483D02*
X85877211Y-87356340D01*
X85877211Y-87356340D02*
X85934354Y-87299197D01*
X85934354Y-87299197D02*
X86020068Y-87270626D01*
X86020068Y-87270626D02*
X86077211Y-87270626D01*
X86077211Y-87270626D02*
X86162925Y-87299197D01*
X86162925Y-87299197D02*
X86191497Y-87327769D01*
X86562925Y-87270626D02*
X86677211Y-87270626D01*
X86677211Y-87270626D02*
X86734354Y-87299197D01*
X86734354Y-87299197D02*
X86791497Y-87356340D01*
X86791497Y-87356340D02*
X86820068Y-87470626D01*
X86820068Y-87470626D02*
X86820068Y-87670626D01*
X86820068Y-87670626D02*
X86791497Y-87784912D01*
X86791497Y-87784912D02*
X86734354Y-87842055D01*
X86734354Y-87842055D02*
X86677211Y-87870626D01*
X86677211Y-87870626D02*
X86562925Y-87870626D01*
X86562925Y-87870626D02*
X86505783Y-87842055D01*
X86505783Y-87842055D02*
X86448640Y-87784912D01*
X86448640Y-87784912D02*
X86420068Y-87670626D01*
X86420068Y-87670626D02*
X86420068Y-87470626D01*
X86420068Y-87470626D02*
X86448640Y-87356340D01*
X86448640Y-87356340D02*
X86505783Y-87299197D01*
X86505783Y-87299197D02*
X86562925Y-87270626D01*
X87362925Y-87870626D02*
X87077211Y-87870626D01*
X87077211Y-87870626D02*
X87077211Y-87270626D01*
X87534353Y-87327769D02*
X87562925Y-87299197D01*
X87562925Y-87299197D02*
X87620068Y-87270626D01*
X87620068Y-87270626D02*
X87762925Y-87270626D01*
X87762925Y-87270626D02*
X87820068Y-87299197D01*
X87820068Y-87299197D02*
X87848639Y-87327769D01*
X87848639Y-87327769D02*
X87877210Y-87384912D01*
X87877210Y-87384912D02*
X87877210Y-87442055D01*
X87877210Y-87442055D02*
X87848639Y-87527769D01*
X87848639Y-87527769D02*
X87505782Y-87870626D01*
X87505782Y-87870626D02*
X87877210Y-87870626D01*
X88134354Y-87642055D02*
X88591497Y-87642055D01*
X88877211Y-87642055D02*
X89334354Y-87642055D01*
X86191497Y-90353483D02*
X86162925Y-90382055D01*
X86162925Y-90382055D02*
X86077211Y-90410626D01*
X86077211Y-90410626D02*
X86020068Y-90410626D01*
X86020068Y-90410626D02*
X85934354Y-90382055D01*
X85934354Y-90382055D02*
X85877211Y-90324912D01*
X85877211Y-90324912D02*
X85848640Y-90267769D01*
X85848640Y-90267769D02*
X85820068Y-90153483D01*
X85820068Y-90153483D02*
X85820068Y-90067769D01*
X85820068Y-90067769D02*
X85848640Y-89953483D01*
X85848640Y-89953483D02*
X85877211Y-89896340D01*
X85877211Y-89896340D02*
X85934354Y-89839197D01*
X85934354Y-89839197D02*
X86020068Y-89810626D01*
X86020068Y-89810626D02*
X86077211Y-89810626D01*
X86077211Y-89810626D02*
X86162925Y-89839197D01*
X86162925Y-89839197D02*
X86191497Y-89867769D01*
X86562925Y-89810626D02*
X86677211Y-89810626D01*
X86677211Y-89810626D02*
X86734354Y-89839197D01*
X86734354Y-89839197D02*
X86791497Y-89896340D01*
X86791497Y-89896340D02*
X86820068Y-90010626D01*
X86820068Y-90010626D02*
X86820068Y-90210626D01*
X86820068Y-90210626D02*
X86791497Y-90324912D01*
X86791497Y-90324912D02*
X86734354Y-90382055D01*
X86734354Y-90382055D02*
X86677211Y-90410626D01*
X86677211Y-90410626D02*
X86562925Y-90410626D01*
X86562925Y-90410626D02*
X86505783Y-90382055D01*
X86505783Y-90382055D02*
X86448640Y-90324912D01*
X86448640Y-90324912D02*
X86420068Y-90210626D01*
X86420068Y-90210626D02*
X86420068Y-90010626D01*
X86420068Y-90010626D02*
X86448640Y-89896340D01*
X86448640Y-89896340D02*
X86505783Y-89839197D01*
X86505783Y-89839197D02*
X86562925Y-89810626D01*
X87362925Y-90410626D02*
X87077211Y-90410626D01*
X87077211Y-90410626D02*
X87077211Y-89810626D01*
X87505782Y-89810626D02*
X87877210Y-89810626D01*
X87877210Y-89810626D02*
X87677210Y-90039197D01*
X87677210Y-90039197D02*
X87762925Y-90039197D01*
X87762925Y-90039197D02*
X87820068Y-90067769D01*
X87820068Y-90067769D02*
X87848639Y-90096340D01*
X87848639Y-90096340D02*
X87877210Y-90153483D01*
X87877210Y-90153483D02*
X87877210Y-90296340D01*
X87877210Y-90296340D02*
X87848639Y-90353483D01*
X87848639Y-90353483D02*
X87820068Y-90382055D01*
X87820068Y-90382055D02*
X87762925Y-90410626D01*
X87762925Y-90410626D02*
X87591496Y-90410626D01*
X87591496Y-90410626D02*
X87534353Y-90382055D01*
X87534353Y-90382055D02*
X87505782Y-90353483D01*
X88134354Y-90182055D02*
X88591497Y-90182055D01*
X88877211Y-90182055D02*
X89334354Y-90182055D01*
X86191497Y-92893483D02*
X86162925Y-92922055D01*
X86162925Y-92922055D02*
X86077211Y-92950626D01*
X86077211Y-92950626D02*
X86020068Y-92950626D01*
X86020068Y-92950626D02*
X85934354Y-92922055D01*
X85934354Y-92922055D02*
X85877211Y-92864912D01*
X85877211Y-92864912D02*
X85848640Y-92807769D01*
X85848640Y-92807769D02*
X85820068Y-92693483D01*
X85820068Y-92693483D02*
X85820068Y-92607769D01*
X85820068Y-92607769D02*
X85848640Y-92493483D01*
X85848640Y-92493483D02*
X85877211Y-92436340D01*
X85877211Y-92436340D02*
X85934354Y-92379197D01*
X85934354Y-92379197D02*
X86020068Y-92350626D01*
X86020068Y-92350626D02*
X86077211Y-92350626D01*
X86077211Y-92350626D02*
X86162925Y-92379197D01*
X86162925Y-92379197D02*
X86191497Y-92407769D01*
X86562925Y-92350626D02*
X86677211Y-92350626D01*
X86677211Y-92350626D02*
X86734354Y-92379197D01*
X86734354Y-92379197D02*
X86791497Y-92436340D01*
X86791497Y-92436340D02*
X86820068Y-92550626D01*
X86820068Y-92550626D02*
X86820068Y-92750626D01*
X86820068Y-92750626D02*
X86791497Y-92864912D01*
X86791497Y-92864912D02*
X86734354Y-92922055D01*
X86734354Y-92922055D02*
X86677211Y-92950626D01*
X86677211Y-92950626D02*
X86562925Y-92950626D01*
X86562925Y-92950626D02*
X86505783Y-92922055D01*
X86505783Y-92922055D02*
X86448640Y-92864912D01*
X86448640Y-92864912D02*
X86420068Y-92750626D01*
X86420068Y-92750626D02*
X86420068Y-92550626D01*
X86420068Y-92550626D02*
X86448640Y-92436340D01*
X86448640Y-92436340D02*
X86505783Y-92379197D01*
X86505783Y-92379197D02*
X86562925Y-92350626D01*
X87362925Y-92950626D02*
X87077211Y-92950626D01*
X87077211Y-92950626D02*
X87077211Y-92350626D01*
X87820068Y-92550626D02*
X87820068Y-92950626D01*
X87677210Y-92322055D02*
X87534353Y-92750626D01*
X87534353Y-92750626D02*
X87905782Y-92750626D01*
X88134354Y-92722055D02*
X88591497Y-92722055D01*
X88877211Y-92722055D02*
X89334354Y-92722055D01*
X86191497Y-95433483D02*
X86162925Y-95462055D01*
X86162925Y-95462055D02*
X86077211Y-95490626D01*
X86077211Y-95490626D02*
X86020068Y-95490626D01*
X86020068Y-95490626D02*
X85934354Y-95462055D01*
X85934354Y-95462055D02*
X85877211Y-95404912D01*
X85877211Y-95404912D02*
X85848640Y-95347769D01*
X85848640Y-95347769D02*
X85820068Y-95233483D01*
X85820068Y-95233483D02*
X85820068Y-95147769D01*
X85820068Y-95147769D02*
X85848640Y-95033483D01*
X85848640Y-95033483D02*
X85877211Y-94976340D01*
X85877211Y-94976340D02*
X85934354Y-94919197D01*
X85934354Y-94919197D02*
X86020068Y-94890626D01*
X86020068Y-94890626D02*
X86077211Y-94890626D01*
X86077211Y-94890626D02*
X86162925Y-94919197D01*
X86162925Y-94919197D02*
X86191497Y-94947769D01*
X86562925Y-94890626D02*
X86677211Y-94890626D01*
X86677211Y-94890626D02*
X86734354Y-94919197D01*
X86734354Y-94919197D02*
X86791497Y-94976340D01*
X86791497Y-94976340D02*
X86820068Y-95090626D01*
X86820068Y-95090626D02*
X86820068Y-95290626D01*
X86820068Y-95290626D02*
X86791497Y-95404912D01*
X86791497Y-95404912D02*
X86734354Y-95462055D01*
X86734354Y-95462055D02*
X86677211Y-95490626D01*
X86677211Y-95490626D02*
X86562925Y-95490626D01*
X86562925Y-95490626D02*
X86505783Y-95462055D01*
X86505783Y-95462055D02*
X86448640Y-95404912D01*
X86448640Y-95404912D02*
X86420068Y-95290626D01*
X86420068Y-95290626D02*
X86420068Y-95090626D01*
X86420068Y-95090626D02*
X86448640Y-94976340D01*
X86448640Y-94976340D02*
X86505783Y-94919197D01*
X86505783Y-94919197D02*
X86562925Y-94890626D01*
X87362925Y-95490626D02*
X87077211Y-95490626D01*
X87077211Y-95490626D02*
X87077211Y-94890626D01*
X87848639Y-94890626D02*
X87562925Y-94890626D01*
X87562925Y-94890626D02*
X87534353Y-95176340D01*
X87534353Y-95176340D02*
X87562925Y-95147769D01*
X87562925Y-95147769D02*
X87620068Y-95119197D01*
X87620068Y-95119197D02*
X87762925Y-95119197D01*
X87762925Y-95119197D02*
X87820068Y-95147769D01*
X87820068Y-95147769D02*
X87848639Y-95176340D01*
X87848639Y-95176340D02*
X87877210Y-95233483D01*
X87877210Y-95233483D02*
X87877210Y-95376340D01*
X87877210Y-95376340D02*
X87848639Y-95433483D01*
X87848639Y-95433483D02*
X87820068Y-95462055D01*
X87820068Y-95462055D02*
X87762925Y-95490626D01*
X87762925Y-95490626D02*
X87620068Y-95490626D01*
X87620068Y-95490626D02*
X87562925Y-95462055D01*
X87562925Y-95462055D02*
X87534353Y-95433483D01*
X88134354Y-95262055D02*
X88591497Y-95262055D01*
X88877211Y-95262055D02*
X89334354Y-95262055D01*
D10*
X92559398Y-105319771D02*
X92359398Y-105034057D01*
X92216541Y-105319771D02*
X92216541Y-104719771D01*
X92216541Y-104719771D02*
X92445112Y-104719771D01*
X92445112Y-104719771D02*
X92502255Y-104748342D01*
X92502255Y-104748342D02*
X92530826Y-104776914D01*
X92530826Y-104776914D02*
X92559398Y-104834057D01*
X92559398Y-104834057D02*
X92559398Y-104919771D01*
X92559398Y-104919771D02*
X92530826Y-104976914D01*
X92530826Y-104976914D02*
X92502255Y-105005485D01*
X92502255Y-105005485D02*
X92445112Y-105034057D01*
X92445112Y-105034057D02*
X92216541Y-105034057D01*
X92816541Y-105005485D02*
X93016541Y-105005485D01*
X93102255Y-105319771D02*
X92816541Y-105319771D01*
X92816541Y-105319771D02*
X92816541Y-104719771D01*
X92816541Y-104719771D02*
X93102255Y-104719771D01*
X93359398Y-105319771D02*
X93359398Y-104719771D01*
X93359398Y-104719771D02*
X93502255Y-104719771D01*
X93502255Y-104719771D02*
X93587969Y-104748342D01*
X93587969Y-104748342D02*
X93645112Y-104805485D01*
X93645112Y-104805485D02*
X93673683Y-104862628D01*
X93673683Y-104862628D02*
X93702255Y-104976914D01*
X93702255Y-104976914D02*
X93702255Y-105062628D01*
X93702255Y-105062628D02*
X93673683Y-105176914D01*
X93673683Y-105176914D02*
X93645112Y-105234057D01*
X93645112Y-105234057D02*
X93587969Y-105291200D01*
X93587969Y-105291200D02*
X93502255Y-105319771D01*
X93502255Y-105319771D02*
X93359398Y-105319771D01*
X92416541Y-106405485D02*
X92502255Y-106434057D01*
X92502255Y-106434057D02*
X92530826Y-106462628D01*
X92530826Y-106462628D02*
X92559398Y-106519771D01*
X92559398Y-106519771D02*
X92559398Y-106605485D01*
X92559398Y-106605485D02*
X92530826Y-106662628D01*
X92530826Y-106662628D02*
X92502255Y-106691200D01*
X92502255Y-106691200D02*
X92445112Y-106719771D01*
X92445112Y-106719771D02*
X92216541Y-106719771D01*
X92216541Y-106719771D02*
X92216541Y-106119771D01*
X92216541Y-106119771D02*
X92416541Y-106119771D01*
X92416541Y-106119771D02*
X92473684Y-106148342D01*
X92473684Y-106148342D02*
X92502255Y-106176914D01*
X92502255Y-106176914D02*
X92530826Y-106234057D01*
X92530826Y-106234057D02*
X92530826Y-106291200D01*
X92530826Y-106291200D02*
X92502255Y-106348342D01*
X92502255Y-106348342D02*
X92473684Y-106376914D01*
X92473684Y-106376914D02*
X92416541Y-106405485D01*
X92416541Y-106405485D02*
X92216541Y-106405485D01*
X93102255Y-106719771D02*
X92816541Y-106719771D01*
X92816541Y-106719771D02*
X92816541Y-106119771D01*
X93302255Y-106719771D02*
X93302255Y-106119771D01*
X93645112Y-106719771D02*
X93387969Y-106376914D01*
X93645112Y-106119771D02*
X93302255Y-106462628D01*
D12*
X91674714Y-103909626D02*
X91783572Y-103945911D01*
X91783572Y-103945911D02*
X91965000Y-103945911D01*
X91965000Y-103945911D02*
X92037572Y-103909626D01*
X92037572Y-103909626D02*
X92073857Y-103873340D01*
X92073857Y-103873340D02*
X92110143Y-103800768D01*
X92110143Y-103800768D02*
X92110143Y-103728197D01*
X92110143Y-103728197D02*
X92073857Y-103655626D01*
X92073857Y-103655626D02*
X92037572Y-103619340D01*
X92037572Y-103619340D02*
X91965000Y-103583054D01*
X91965000Y-103583054D02*
X91819857Y-103546768D01*
X91819857Y-103546768D02*
X91747286Y-103510483D01*
X91747286Y-103510483D02*
X91711000Y-103474197D01*
X91711000Y-103474197D02*
X91674714Y-103401626D01*
X91674714Y-103401626D02*
X91674714Y-103329054D01*
X91674714Y-103329054D02*
X91711000Y-103256483D01*
X91711000Y-103256483D02*
X91747286Y-103220197D01*
X91747286Y-103220197D02*
X91819857Y-103183911D01*
X91819857Y-103183911D02*
X92001286Y-103183911D01*
X92001286Y-103183911D02*
X92110143Y-103220197D01*
X92436714Y-103945911D02*
X92436714Y-103183911D01*
X92436714Y-103183911D02*
X92618143Y-103183911D01*
X92618143Y-103183911D02*
X92727000Y-103220197D01*
X92727000Y-103220197D02*
X92799571Y-103292768D01*
X92799571Y-103292768D02*
X92835857Y-103365340D01*
X92835857Y-103365340D02*
X92872143Y-103510483D01*
X92872143Y-103510483D02*
X92872143Y-103619340D01*
X92872143Y-103619340D02*
X92835857Y-103764483D01*
X92835857Y-103764483D02*
X92799571Y-103837054D01*
X92799571Y-103837054D02*
X92727000Y-103909626D01*
X92727000Y-103909626D02*
X92618143Y-103945911D01*
X92618143Y-103945911D02*
X92436714Y-103945911D01*
X93162428Y-103728197D02*
X93525286Y-103728197D01*
X93089857Y-103945911D02*
X93343857Y-103183911D01*
X93343857Y-103183911D02*
X93597857Y-103945911D01*
X94157517Y-103925626D02*
X94266375Y-103961911D01*
X94266375Y-103961911D02*
X94447803Y-103961911D01*
X94447803Y-103961911D02*
X94520375Y-103925626D01*
X94520375Y-103925626D02*
X94556660Y-103889340D01*
X94556660Y-103889340D02*
X94592946Y-103816768D01*
X94592946Y-103816768D02*
X94592946Y-103744197D01*
X94592946Y-103744197D02*
X94556660Y-103671626D01*
X94556660Y-103671626D02*
X94520375Y-103635340D01*
X94520375Y-103635340D02*
X94447803Y-103599054D01*
X94447803Y-103599054D02*
X94302660Y-103562768D01*
X94302660Y-103562768D02*
X94230089Y-103526483D01*
X94230089Y-103526483D02*
X94193803Y-103490197D01*
X94193803Y-103490197D02*
X94157517Y-103417626D01*
X94157517Y-103417626D02*
X94157517Y-103345054D01*
X94157517Y-103345054D02*
X94193803Y-103272483D01*
X94193803Y-103272483D02*
X94230089Y-103236197D01*
X94230089Y-103236197D02*
X94302660Y-103199911D01*
X94302660Y-103199911D02*
X94484089Y-103199911D01*
X94484089Y-103199911D02*
X94592946Y-103236197D01*
X95354946Y-103889340D02*
X95318660Y-103925626D01*
X95318660Y-103925626D02*
X95209803Y-103961911D01*
X95209803Y-103961911D02*
X95137231Y-103961911D01*
X95137231Y-103961911D02*
X95028374Y-103925626D01*
X95028374Y-103925626D02*
X94955803Y-103853054D01*
X94955803Y-103853054D02*
X94919517Y-103780483D01*
X94919517Y-103780483D02*
X94883231Y-103635340D01*
X94883231Y-103635340D02*
X94883231Y-103526483D01*
X94883231Y-103526483D02*
X94919517Y-103381340D01*
X94919517Y-103381340D02*
X94955803Y-103308768D01*
X94955803Y-103308768D02*
X95028374Y-103236197D01*
X95028374Y-103236197D02*
X95137231Y-103199911D01*
X95137231Y-103199911D02*
X95209803Y-103199911D01*
X95209803Y-103199911D02*
X95318660Y-103236197D01*
X95318660Y-103236197D02*
X95354946Y-103272483D01*
X96044374Y-103961911D02*
X95681517Y-103961911D01*
X95681517Y-103961911D02*
X95681517Y-103199911D01*
X96538000Y-103199911D02*
X96792000Y-103961911D01*
X96792000Y-103961911D02*
X97046000Y-103199911D01*
X97735429Y-103889340D02*
X97699143Y-103925626D01*
X97699143Y-103925626D02*
X97590286Y-103961911D01*
X97590286Y-103961911D02*
X97517714Y-103961911D01*
X97517714Y-103961911D02*
X97408857Y-103925626D01*
X97408857Y-103925626D02*
X97336286Y-103853054D01*
X97336286Y-103853054D02*
X97300000Y-103780483D01*
X97300000Y-103780483D02*
X97263714Y-103635340D01*
X97263714Y-103635340D02*
X97263714Y-103526483D01*
X97263714Y-103526483D02*
X97300000Y-103381340D01*
X97300000Y-103381340D02*
X97336286Y-103308768D01*
X97336286Y-103308768D02*
X97408857Y-103236197D01*
X97408857Y-103236197D02*
X97517714Y-103199911D01*
X97517714Y-103199911D02*
X97590286Y-103199911D01*
X97590286Y-103199911D02*
X97699143Y-103236197D01*
X97699143Y-103236197D02*
X97735429Y-103272483D01*
X98497429Y-103889340D02*
X98461143Y-103925626D01*
X98461143Y-103925626D02*
X98352286Y-103961911D01*
X98352286Y-103961911D02*
X98279714Y-103961911D01*
X98279714Y-103961911D02*
X98170857Y-103925626D01*
X98170857Y-103925626D02*
X98098286Y-103853054D01*
X98098286Y-103853054D02*
X98062000Y-103780483D01*
X98062000Y-103780483D02*
X98025714Y-103635340D01*
X98025714Y-103635340D02*
X98025714Y-103526483D01*
X98025714Y-103526483D02*
X98062000Y-103381340D01*
X98062000Y-103381340D02*
X98098286Y-103308768D01*
X98098286Y-103308768D02*
X98170857Y-103236197D01*
X98170857Y-103236197D02*
X98279714Y-103199911D01*
X98279714Y-103199911D02*
X98352286Y-103199911D01*
X98352286Y-103199911D02*
X98461143Y-103236197D01*
X98461143Y-103236197D02*
X98497429Y-103272483D01*
X99618715Y-103236197D02*
X99546144Y-103199911D01*
X99546144Y-103199911D02*
X99437286Y-103199911D01*
X99437286Y-103199911D02*
X99328429Y-103236197D01*
X99328429Y-103236197D02*
X99255858Y-103308768D01*
X99255858Y-103308768D02*
X99219572Y-103381340D01*
X99219572Y-103381340D02*
X99183286Y-103526483D01*
X99183286Y-103526483D02*
X99183286Y-103635340D01*
X99183286Y-103635340D02*
X99219572Y-103780483D01*
X99219572Y-103780483D02*
X99255858Y-103853054D01*
X99255858Y-103853054D02*
X99328429Y-103925626D01*
X99328429Y-103925626D02*
X99437286Y-103961911D01*
X99437286Y-103961911D02*
X99509858Y-103961911D01*
X99509858Y-103961911D02*
X99618715Y-103925626D01*
X99618715Y-103925626D02*
X99655001Y-103889340D01*
X99655001Y-103889340D02*
X99655001Y-103635340D01*
X99655001Y-103635340D02*
X99509858Y-103635340D01*
X99981572Y-103961911D02*
X99981572Y-103199911D01*
X99981572Y-103199911D02*
X100417001Y-103961911D01*
X100417001Y-103961911D02*
X100417001Y-103199911D01*
X100779858Y-103961911D02*
X100779858Y-103199911D01*
X100779858Y-103199911D02*
X100961287Y-103199911D01*
X100961287Y-103199911D02*
X101070144Y-103236197D01*
X101070144Y-103236197D02*
X101142715Y-103308768D01*
X101142715Y-103308768D02*
X101179001Y-103381340D01*
X101179001Y-103381340D02*
X101215287Y-103526483D01*
X101215287Y-103526483D02*
X101215287Y-103635340D01*
X101215287Y-103635340D02*
X101179001Y-103780483D01*
X101179001Y-103780483D02*
X101142715Y-103853054D01*
X101142715Y-103853054D02*
X101070144Y-103925626D01*
X101070144Y-103925626D02*
X100961287Y-103961911D01*
X100961287Y-103961911D02*
X100779858Y-103961911D01*
X136969341Y-116188626D02*
X137078199Y-116224911D01*
X137078199Y-116224911D02*
X137259627Y-116224911D01*
X137259627Y-116224911D02*
X137332199Y-116188626D01*
X137332199Y-116188626D02*
X137368484Y-116152340D01*
X137368484Y-116152340D02*
X137404770Y-116079768D01*
X137404770Y-116079768D02*
X137404770Y-116007197D01*
X137404770Y-116007197D02*
X137368484Y-115934626D01*
X137368484Y-115934626D02*
X137332199Y-115898340D01*
X137332199Y-115898340D02*
X137259627Y-115862054D01*
X137259627Y-115862054D02*
X137114484Y-115825768D01*
X137114484Y-115825768D02*
X137041913Y-115789483D01*
X137041913Y-115789483D02*
X137005627Y-115753197D01*
X137005627Y-115753197D02*
X136969341Y-115680626D01*
X136969341Y-115680626D02*
X136969341Y-115608054D01*
X136969341Y-115608054D02*
X137005627Y-115535483D01*
X137005627Y-115535483D02*
X137041913Y-115499197D01*
X137041913Y-115499197D02*
X137114484Y-115462911D01*
X137114484Y-115462911D02*
X137295913Y-115462911D01*
X137295913Y-115462911D02*
X137404770Y-115499197D01*
X137731341Y-116224911D02*
X137731341Y-115462911D01*
X137731341Y-115462911D02*
X137912770Y-115462911D01*
X137912770Y-115462911D02*
X138021627Y-115499197D01*
X138021627Y-115499197D02*
X138094198Y-115571768D01*
X138094198Y-115571768D02*
X138130484Y-115644340D01*
X138130484Y-115644340D02*
X138166770Y-115789483D01*
X138166770Y-115789483D02*
X138166770Y-115898340D01*
X138166770Y-115898340D02*
X138130484Y-116043483D01*
X138130484Y-116043483D02*
X138094198Y-116116054D01*
X138094198Y-116116054D02*
X138021627Y-116188626D01*
X138021627Y-116188626D02*
X137912770Y-116224911D01*
X137912770Y-116224911D02*
X137731341Y-116224911D01*
X138457055Y-116007197D02*
X138819913Y-116007197D01*
X138384484Y-116224911D02*
X138638484Y-115462911D01*
X138638484Y-115462911D02*
X138892484Y-116224911D01*
X139552857Y-116188626D02*
X139661715Y-116224911D01*
X139661715Y-116224911D02*
X139843143Y-116224911D01*
X139843143Y-116224911D02*
X139915715Y-116188626D01*
X139915715Y-116188626D02*
X139952000Y-116152340D01*
X139952000Y-116152340D02*
X139988286Y-116079768D01*
X139988286Y-116079768D02*
X139988286Y-116007197D01*
X139988286Y-116007197D02*
X139952000Y-115934626D01*
X139952000Y-115934626D02*
X139915715Y-115898340D01*
X139915715Y-115898340D02*
X139843143Y-115862054D01*
X139843143Y-115862054D02*
X139698000Y-115825768D01*
X139698000Y-115825768D02*
X139625429Y-115789483D01*
X139625429Y-115789483D02*
X139589143Y-115753197D01*
X139589143Y-115753197D02*
X139552857Y-115680626D01*
X139552857Y-115680626D02*
X139552857Y-115608054D01*
X139552857Y-115608054D02*
X139589143Y-115535483D01*
X139589143Y-115535483D02*
X139625429Y-115499197D01*
X139625429Y-115499197D02*
X139698000Y-115462911D01*
X139698000Y-115462911D02*
X139879429Y-115462911D01*
X139879429Y-115462911D02*
X139988286Y-115499197D01*
X140750286Y-116152340D02*
X140714000Y-116188626D01*
X140714000Y-116188626D02*
X140605143Y-116224911D01*
X140605143Y-116224911D02*
X140532571Y-116224911D01*
X140532571Y-116224911D02*
X140423714Y-116188626D01*
X140423714Y-116188626D02*
X140351143Y-116116054D01*
X140351143Y-116116054D02*
X140314857Y-116043483D01*
X140314857Y-116043483D02*
X140278571Y-115898340D01*
X140278571Y-115898340D02*
X140278571Y-115789483D01*
X140278571Y-115789483D02*
X140314857Y-115644340D01*
X140314857Y-115644340D02*
X140351143Y-115571768D01*
X140351143Y-115571768D02*
X140423714Y-115499197D01*
X140423714Y-115499197D02*
X140532571Y-115462911D01*
X140532571Y-115462911D02*
X140605143Y-115462911D01*
X140605143Y-115462911D02*
X140714000Y-115499197D01*
X140714000Y-115499197D02*
X140750286Y-115535483D01*
X141439714Y-116224911D02*
X141076857Y-116224911D01*
X141076857Y-116224911D02*
X141076857Y-115462911D01*
X141933340Y-115462911D02*
X142187340Y-116224911D01*
X142187340Y-116224911D02*
X142441340Y-115462911D01*
X143130769Y-116152340D02*
X143094483Y-116188626D01*
X143094483Y-116188626D02*
X142985626Y-116224911D01*
X142985626Y-116224911D02*
X142913054Y-116224911D01*
X142913054Y-116224911D02*
X142804197Y-116188626D01*
X142804197Y-116188626D02*
X142731626Y-116116054D01*
X142731626Y-116116054D02*
X142695340Y-116043483D01*
X142695340Y-116043483D02*
X142659054Y-115898340D01*
X142659054Y-115898340D02*
X142659054Y-115789483D01*
X142659054Y-115789483D02*
X142695340Y-115644340D01*
X142695340Y-115644340D02*
X142731626Y-115571768D01*
X142731626Y-115571768D02*
X142804197Y-115499197D01*
X142804197Y-115499197D02*
X142913054Y-115462911D01*
X142913054Y-115462911D02*
X142985626Y-115462911D01*
X142985626Y-115462911D02*
X143094483Y-115499197D01*
X143094483Y-115499197D02*
X143130769Y-115535483D01*
X143892769Y-116152340D02*
X143856483Y-116188626D01*
X143856483Y-116188626D02*
X143747626Y-116224911D01*
X143747626Y-116224911D02*
X143675054Y-116224911D01*
X143675054Y-116224911D02*
X143566197Y-116188626D01*
X143566197Y-116188626D02*
X143493626Y-116116054D01*
X143493626Y-116116054D02*
X143457340Y-116043483D01*
X143457340Y-116043483D02*
X143421054Y-115898340D01*
X143421054Y-115898340D02*
X143421054Y-115789483D01*
X143421054Y-115789483D02*
X143457340Y-115644340D01*
X143457340Y-115644340D02*
X143493626Y-115571768D01*
X143493626Y-115571768D02*
X143566197Y-115499197D01*
X143566197Y-115499197D02*
X143675054Y-115462911D01*
X143675054Y-115462911D02*
X143747626Y-115462911D01*
X143747626Y-115462911D02*
X143856483Y-115499197D01*
X143856483Y-115499197D02*
X143892769Y-115535483D01*
X145014055Y-115499197D02*
X144941484Y-115462911D01*
X144941484Y-115462911D02*
X144832626Y-115462911D01*
X144832626Y-115462911D02*
X144723769Y-115499197D01*
X144723769Y-115499197D02*
X144651198Y-115571768D01*
X144651198Y-115571768D02*
X144614912Y-115644340D01*
X144614912Y-115644340D02*
X144578626Y-115789483D01*
X144578626Y-115789483D02*
X144578626Y-115898340D01*
X144578626Y-115898340D02*
X144614912Y-116043483D01*
X144614912Y-116043483D02*
X144651198Y-116116054D01*
X144651198Y-116116054D02*
X144723769Y-116188626D01*
X144723769Y-116188626D02*
X144832626Y-116224911D01*
X144832626Y-116224911D02*
X144905198Y-116224911D01*
X144905198Y-116224911D02*
X145014055Y-116188626D01*
X145014055Y-116188626D02*
X145050341Y-116152340D01*
X145050341Y-116152340D02*
X145050341Y-115898340D01*
X145050341Y-115898340D02*
X144905198Y-115898340D01*
X145376912Y-116224911D02*
X145376912Y-115462911D01*
X145376912Y-115462911D02*
X145812341Y-116224911D01*
X145812341Y-116224911D02*
X145812341Y-115462911D01*
X146175198Y-116224911D02*
X146175198Y-115462911D01*
X146175198Y-115462911D02*
X146356627Y-115462911D01*
X146356627Y-115462911D02*
X146465484Y-115499197D01*
X146465484Y-115499197D02*
X146538055Y-115571768D01*
X146538055Y-115571768D02*
X146574341Y-115644340D01*
X146574341Y-115644340D02*
X146610627Y-115789483D01*
X146610627Y-115789483D02*
X146610627Y-115898340D01*
X146610627Y-115898340D02*
X146574341Y-116043483D01*
X146574341Y-116043483D02*
X146538055Y-116116054D01*
X146538055Y-116116054D02*
X146465484Y-116188626D01*
X146465484Y-116188626D02*
X146356627Y-116224911D01*
X146356627Y-116224911D02*
X146175198Y-116224911D01*
X132974305Y-118823523D02*
X133409734Y-118823523D01*
X133192019Y-119585523D02*
X133192019Y-118823523D01*
X134099162Y-119585523D02*
X133845162Y-119222666D01*
X133663733Y-119585523D02*
X133663733Y-118823523D01*
X133663733Y-118823523D02*
X133954019Y-118823523D01*
X133954019Y-118823523D02*
X134026590Y-118859809D01*
X134026590Y-118859809D02*
X134062876Y-118896095D01*
X134062876Y-118896095D02*
X134099162Y-118968666D01*
X134099162Y-118968666D02*
X134099162Y-119077523D01*
X134099162Y-119077523D02*
X134062876Y-119150095D01*
X134062876Y-119150095D02*
X134026590Y-119186380D01*
X134026590Y-119186380D02*
X133954019Y-119222666D01*
X133954019Y-119222666D02*
X133663733Y-119222666D01*
X134389447Y-119367809D02*
X134752305Y-119367809D01*
X134316876Y-119585523D02*
X134570876Y-118823523D01*
X134570876Y-118823523D02*
X134824876Y-119585523D01*
X135514305Y-119512952D02*
X135478019Y-119549238D01*
X135478019Y-119549238D02*
X135369162Y-119585523D01*
X135369162Y-119585523D02*
X135296590Y-119585523D01*
X135296590Y-119585523D02*
X135187733Y-119549238D01*
X135187733Y-119549238D02*
X135115162Y-119476666D01*
X135115162Y-119476666D02*
X135078876Y-119404095D01*
X135078876Y-119404095D02*
X135042590Y-119258952D01*
X135042590Y-119258952D02*
X135042590Y-119150095D01*
X135042590Y-119150095D02*
X135078876Y-119004952D01*
X135078876Y-119004952D02*
X135115162Y-118932380D01*
X135115162Y-118932380D02*
X135187733Y-118859809D01*
X135187733Y-118859809D02*
X135296590Y-118823523D01*
X135296590Y-118823523D02*
X135369162Y-118823523D01*
X135369162Y-118823523D02*
X135478019Y-118859809D01*
X135478019Y-118859809D02*
X135514305Y-118896095D01*
X135840876Y-119585523D02*
X135840876Y-118823523D01*
X136276305Y-119585523D02*
X135949733Y-119150095D01*
X136276305Y-118823523D02*
X135840876Y-119258952D01*
X134208019Y-120413157D02*
X134316876Y-120449443D01*
X134316876Y-120449443D02*
X134353162Y-120485729D01*
X134353162Y-120485729D02*
X134389448Y-120558300D01*
X134389448Y-120558300D02*
X134389448Y-120667157D01*
X134389448Y-120667157D02*
X134353162Y-120739729D01*
X134353162Y-120739729D02*
X134316876Y-120776015D01*
X134316876Y-120776015D02*
X134244305Y-120812300D01*
X134244305Y-120812300D02*
X133954019Y-120812300D01*
X133954019Y-120812300D02*
X133954019Y-120050300D01*
X133954019Y-120050300D02*
X134208019Y-120050300D01*
X134208019Y-120050300D02*
X134280591Y-120086586D01*
X134280591Y-120086586D02*
X134316876Y-120122872D01*
X134316876Y-120122872D02*
X134353162Y-120195443D01*
X134353162Y-120195443D02*
X134353162Y-120268015D01*
X134353162Y-120268015D02*
X134316876Y-120340586D01*
X134316876Y-120340586D02*
X134280591Y-120376872D01*
X134280591Y-120376872D02*
X134208019Y-120413157D01*
X134208019Y-120413157D02*
X133954019Y-120413157D01*
X134679733Y-120594586D02*
X135042591Y-120594586D01*
X134607162Y-120812300D02*
X134861162Y-120050300D01*
X134861162Y-120050300D02*
X135115162Y-120812300D01*
X135732019Y-120812300D02*
X135369162Y-120812300D01*
X135369162Y-120812300D02*
X135369162Y-120050300D01*
X136348876Y-120812300D02*
X135986019Y-120812300D01*
X135986019Y-120812300D02*
X135986019Y-120050300D01*
D10*
X102821303Y-123568318D02*
X102554636Y-123187365D01*
X102364160Y-123568318D02*
X102364160Y-122768318D01*
X102364160Y-122768318D02*
X102668922Y-122768318D01*
X102668922Y-122768318D02*
X102745112Y-122806413D01*
X102745112Y-122806413D02*
X102783207Y-122844508D01*
X102783207Y-122844508D02*
X102821303Y-122920699D01*
X102821303Y-122920699D02*
X102821303Y-123034984D01*
X102821303Y-123034984D02*
X102783207Y-123111175D01*
X102783207Y-123111175D02*
X102745112Y-123149270D01*
X102745112Y-123149270D02*
X102668922Y-123187365D01*
X102668922Y-123187365D02*
X102364160Y-123187365D01*
X103164160Y-123149270D02*
X103430826Y-123149270D01*
X103545112Y-123568318D02*
X103164160Y-123568318D01*
X103164160Y-123568318D02*
X103164160Y-122768318D01*
X103164160Y-122768318D02*
X103545112Y-122768318D01*
X103773684Y-122768318D02*
X104040351Y-123568318D01*
X104040351Y-123568318D02*
X104307017Y-122768318D01*
X104573684Y-123568318D02*
X104573684Y-122768318D01*
X104916540Y-123530223D02*
X105030826Y-123568318D01*
X105030826Y-123568318D02*
X105221302Y-123568318D01*
X105221302Y-123568318D02*
X105297493Y-123530223D01*
X105297493Y-123530223D02*
X105335588Y-123492127D01*
X105335588Y-123492127D02*
X105373683Y-123415937D01*
X105373683Y-123415937D02*
X105373683Y-123339746D01*
X105373683Y-123339746D02*
X105335588Y-123263556D01*
X105335588Y-123263556D02*
X105297493Y-123225461D01*
X105297493Y-123225461D02*
X105221302Y-123187365D01*
X105221302Y-123187365D02*
X105068921Y-123149270D01*
X105068921Y-123149270D02*
X104992731Y-123111175D01*
X104992731Y-123111175D02*
X104954636Y-123073080D01*
X104954636Y-123073080D02*
X104916540Y-122996889D01*
X104916540Y-122996889D02*
X104916540Y-122920699D01*
X104916540Y-122920699D02*
X104954636Y-122844508D01*
X104954636Y-122844508D02*
X104992731Y-122806413D01*
X104992731Y-122806413D02*
X105068921Y-122768318D01*
X105068921Y-122768318D02*
X105259398Y-122768318D01*
X105259398Y-122768318D02*
X105373683Y-122806413D01*
X105716541Y-123568318D02*
X105716541Y-122768318D01*
X106249874Y-122768318D02*
X106402255Y-122768318D01*
X106402255Y-122768318D02*
X106478445Y-122806413D01*
X106478445Y-122806413D02*
X106554636Y-122882603D01*
X106554636Y-122882603D02*
X106592731Y-123034984D01*
X106592731Y-123034984D02*
X106592731Y-123301651D01*
X106592731Y-123301651D02*
X106554636Y-123454032D01*
X106554636Y-123454032D02*
X106478445Y-123530223D01*
X106478445Y-123530223D02*
X106402255Y-123568318D01*
X106402255Y-123568318D02*
X106249874Y-123568318D01*
X106249874Y-123568318D02*
X106173683Y-123530223D01*
X106173683Y-123530223D02*
X106097493Y-123454032D01*
X106097493Y-123454032D02*
X106059397Y-123301651D01*
X106059397Y-123301651D02*
X106059397Y-123034984D01*
X106059397Y-123034984D02*
X106097493Y-122882603D01*
X106097493Y-122882603D02*
X106173683Y-122806413D01*
X106173683Y-122806413D02*
X106249874Y-122768318D01*
X106935588Y-123568318D02*
X106935588Y-122768318D01*
X106935588Y-122768318D02*
X107392731Y-123568318D01*
X107392731Y-123568318D02*
X107392731Y-122768318D01*
X108802254Y-123568318D02*
X108345111Y-123568318D01*
X108573683Y-123568318D02*
X108573683Y-122768318D01*
X108573683Y-122768318D02*
X108497492Y-122882603D01*
X108497492Y-122882603D02*
X108421302Y-122958794D01*
X108421302Y-122958794D02*
X108345111Y-122996889D01*
X102364160Y-124856273D02*
X102364160Y-124056273D01*
X102364160Y-124361035D02*
X102440350Y-124322939D01*
X102440350Y-124322939D02*
X102592731Y-124322939D01*
X102592731Y-124322939D02*
X102668922Y-124361035D01*
X102668922Y-124361035D02*
X102707017Y-124399130D01*
X102707017Y-124399130D02*
X102745112Y-124475320D01*
X102745112Y-124475320D02*
X102745112Y-124703892D01*
X102745112Y-124703892D02*
X102707017Y-124780082D01*
X102707017Y-124780082D02*
X102668922Y-124818178D01*
X102668922Y-124818178D02*
X102592731Y-124856273D01*
X102592731Y-124856273D02*
X102440350Y-124856273D01*
X102440350Y-124856273D02*
X102364160Y-124818178D01*
X103011779Y-124322939D02*
X103202255Y-124856273D01*
X103392732Y-124322939D02*
X103202255Y-124856273D01*
X103202255Y-124856273D02*
X103126065Y-125046749D01*
X103126065Y-125046749D02*
X103087970Y-125084844D01*
X103087970Y-125084844D02*
X103011779Y-125122939D01*
X104268922Y-124818178D02*
X104383208Y-124856273D01*
X104383208Y-124856273D02*
X104573684Y-124856273D01*
X104573684Y-124856273D02*
X104649875Y-124818178D01*
X104649875Y-124818178D02*
X104687970Y-124780082D01*
X104687970Y-124780082D02*
X104726065Y-124703892D01*
X104726065Y-124703892D02*
X104726065Y-124627701D01*
X104726065Y-124627701D02*
X104687970Y-124551511D01*
X104687970Y-124551511D02*
X104649875Y-124513416D01*
X104649875Y-124513416D02*
X104573684Y-124475320D01*
X104573684Y-124475320D02*
X104421303Y-124437225D01*
X104421303Y-124437225D02*
X104345113Y-124399130D01*
X104345113Y-124399130D02*
X104307018Y-124361035D01*
X104307018Y-124361035D02*
X104268922Y-124284844D01*
X104268922Y-124284844D02*
X104268922Y-124208654D01*
X104268922Y-124208654D02*
X104307018Y-124132463D01*
X104307018Y-124132463D02*
X104345113Y-124094368D01*
X104345113Y-124094368D02*
X104421303Y-124056273D01*
X104421303Y-124056273D02*
X104611780Y-124056273D01*
X104611780Y-124056273D02*
X104726065Y-124094368D01*
X105411780Y-124818178D02*
X105335589Y-124856273D01*
X105335589Y-124856273D02*
X105183208Y-124856273D01*
X105183208Y-124856273D02*
X105107018Y-124818178D01*
X105107018Y-124818178D02*
X105068923Y-124780082D01*
X105068923Y-124780082D02*
X105030827Y-124703892D01*
X105030827Y-124703892D02*
X105030827Y-124475320D01*
X105030827Y-124475320D02*
X105068923Y-124399130D01*
X105068923Y-124399130D02*
X105107018Y-124361035D01*
X105107018Y-124361035D02*
X105183208Y-124322939D01*
X105183208Y-124322939D02*
X105335589Y-124322939D01*
X105335589Y-124322939D02*
X105411780Y-124361035D01*
X105754637Y-124856273D02*
X105754637Y-124322939D01*
X105754637Y-124475320D02*
X105792732Y-124399130D01*
X105792732Y-124399130D02*
X105830827Y-124361035D01*
X105830827Y-124361035D02*
X105907018Y-124322939D01*
X105907018Y-124322939D02*
X105983208Y-124322939D01*
X106592732Y-124856273D02*
X106592732Y-124437225D01*
X106592732Y-124437225D02*
X106554637Y-124361035D01*
X106554637Y-124361035D02*
X106478446Y-124322939D01*
X106478446Y-124322939D02*
X106326065Y-124322939D01*
X106326065Y-124322939D02*
X106249875Y-124361035D01*
X106592732Y-124818178D02*
X106516541Y-124856273D01*
X106516541Y-124856273D02*
X106326065Y-124856273D01*
X106326065Y-124856273D02*
X106249875Y-124818178D01*
X106249875Y-124818178D02*
X106211779Y-124741987D01*
X106211779Y-124741987D02*
X106211779Y-124665797D01*
X106211779Y-124665797D02*
X106249875Y-124589606D01*
X106249875Y-124589606D02*
X106326065Y-124551511D01*
X106326065Y-124551511D02*
X106516541Y-124551511D01*
X106516541Y-124551511D02*
X106592732Y-124513416D01*
X106973685Y-124856273D02*
X106973685Y-124322939D01*
X106973685Y-124399130D02*
X107011780Y-124361035D01*
X107011780Y-124361035D02*
X107087970Y-124322939D01*
X107087970Y-124322939D02*
X107202256Y-124322939D01*
X107202256Y-124322939D02*
X107278447Y-124361035D01*
X107278447Y-124361035D02*
X107316542Y-124437225D01*
X107316542Y-124437225D02*
X107316542Y-124856273D01*
X107316542Y-124437225D02*
X107354637Y-124361035D01*
X107354637Y-124361035D02*
X107430828Y-124322939D01*
X107430828Y-124322939D02*
X107545113Y-124322939D01*
X107545113Y-124322939D02*
X107621304Y-124361035D01*
X107621304Y-124361035D02*
X107659399Y-124437225D01*
X107659399Y-124437225D02*
X107659399Y-124856273D01*
X108040352Y-124856273D02*
X108040352Y-124056273D01*
X108040352Y-124361035D02*
X108116542Y-124322939D01*
X108116542Y-124322939D02*
X108268923Y-124322939D01*
X108268923Y-124322939D02*
X108345114Y-124361035D01*
X108345114Y-124361035D02*
X108383209Y-124399130D01*
X108383209Y-124399130D02*
X108421304Y-124475320D01*
X108421304Y-124475320D02*
X108421304Y-124703892D01*
X108421304Y-124703892D02*
X108383209Y-124780082D01*
X108383209Y-124780082D02*
X108345114Y-124818178D01*
X108345114Y-124818178D02*
X108268923Y-124856273D01*
X108268923Y-124856273D02*
X108116542Y-124856273D01*
X108116542Y-124856273D02*
X108040352Y-124818178D01*
X108878447Y-124856273D02*
X108802257Y-124818178D01*
X108802257Y-124818178D02*
X108764162Y-124741987D01*
X108764162Y-124741987D02*
X108764162Y-124056273D01*
X109487972Y-124818178D02*
X109411781Y-124856273D01*
X109411781Y-124856273D02*
X109259400Y-124856273D01*
X109259400Y-124856273D02*
X109183210Y-124818178D01*
X109183210Y-124818178D02*
X109145114Y-124741987D01*
X109145114Y-124741987D02*
X109145114Y-124437225D01*
X109145114Y-124437225D02*
X109183210Y-124361035D01*
X109183210Y-124361035D02*
X109259400Y-124322939D01*
X109259400Y-124322939D02*
X109411781Y-124322939D01*
X109411781Y-124322939D02*
X109487972Y-124361035D01*
X109487972Y-124361035D02*
X109526067Y-124437225D01*
X109526067Y-124437225D02*
X109526067Y-124513416D01*
X109526067Y-124513416D02*
X109145114Y-124589606D01*
X159730826Y-108293247D02*
X159845112Y-108331342D01*
X159845112Y-108331342D02*
X159883207Y-108369438D01*
X159883207Y-108369438D02*
X159921303Y-108445628D01*
X159921303Y-108445628D02*
X159921303Y-108559914D01*
X159921303Y-108559914D02*
X159883207Y-108636104D01*
X159883207Y-108636104D02*
X159845112Y-108674200D01*
X159845112Y-108674200D02*
X159768922Y-108712295D01*
X159768922Y-108712295D02*
X159464160Y-108712295D01*
X159464160Y-108712295D02*
X159464160Y-107912295D01*
X159464160Y-107912295D02*
X159730826Y-107912295D01*
X159730826Y-107912295D02*
X159807017Y-107950390D01*
X159807017Y-107950390D02*
X159845112Y-107988485D01*
X159845112Y-107988485D02*
X159883207Y-108064676D01*
X159883207Y-108064676D02*
X159883207Y-108140866D01*
X159883207Y-108140866D02*
X159845112Y-108217057D01*
X159845112Y-108217057D02*
X159807017Y-108255152D01*
X159807017Y-108255152D02*
X159730826Y-108293247D01*
X159730826Y-108293247D02*
X159464160Y-108293247D01*
X160264160Y-107912295D02*
X160264160Y-108559914D01*
X160264160Y-108559914D02*
X160302255Y-108636104D01*
X160302255Y-108636104D02*
X160340350Y-108674200D01*
X160340350Y-108674200D02*
X160416541Y-108712295D01*
X160416541Y-108712295D02*
X160568922Y-108712295D01*
X160568922Y-108712295D02*
X160645112Y-108674200D01*
X160645112Y-108674200D02*
X160683207Y-108636104D01*
X160683207Y-108636104D02*
X160721303Y-108559914D01*
X160721303Y-108559914D02*
X160721303Y-107912295D01*
X161026064Y-107912295D02*
X161559398Y-107912295D01*
X161559398Y-107912295D02*
X161026064Y-108712295D01*
X161026064Y-108712295D02*
X161559398Y-108712295D01*
X161787969Y-107912295D02*
X162321303Y-107912295D01*
X162321303Y-107912295D02*
X161787969Y-108712295D01*
X161787969Y-108712295D02*
X162321303Y-108712295D01*
X162626065Y-108293247D02*
X162892731Y-108293247D01*
X163007017Y-108712295D02*
X162626065Y-108712295D01*
X162626065Y-108712295D02*
X162626065Y-107912295D01*
X162626065Y-107912295D02*
X163007017Y-107912295D01*
X163807018Y-108712295D02*
X163540351Y-108331342D01*
X163349875Y-108712295D02*
X163349875Y-107912295D01*
X163349875Y-107912295D02*
X163654637Y-107912295D01*
X163654637Y-107912295D02*
X163730827Y-107950390D01*
X163730827Y-107950390D02*
X163768922Y-107988485D01*
X163768922Y-107988485D02*
X163807018Y-108064676D01*
X163807018Y-108064676D02*
X163807018Y-108178961D01*
X163807018Y-108178961D02*
X163768922Y-108255152D01*
X163768922Y-108255152D02*
X163730827Y-108293247D01*
X163730827Y-108293247D02*
X163654637Y-108331342D01*
X163654637Y-108331342D02*
X163349875Y-108331342D01*
X83663559Y-112993296D02*
X83777845Y-113031391D01*
X83777845Y-113031391D02*
X83815940Y-113069487D01*
X83815940Y-113069487D02*
X83854036Y-113145677D01*
X83854036Y-113145677D02*
X83854036Y-113259963D01*
X83854036Y-113259963D02*
X83815940Y-113336153D01*
X83815940Y-113336153D02*
X83777845Y-113374249D01*
X83777845Y-113374249D02*
X83701655Y-113412344D01*
X83701655Y-113412344D02*
X83396893Y-113412344D01*
X83396893Y-113412344D02*
X83396893Y-112612344D01*
X83396893Y-112612344D02*
X83663559Y-112612344D01*
X83663559Y-112612344D02*
X83739750Y-112650439D01*
X83739750Y-112650439D02*
X83777845Y-112688534D01*
X83777845Y-112688534D02*
X83815940Y-112764725D01*
X83815940Y-112764725D02*
X83815940Y-112840915D01*
X83815940Y-112840915D02*
X83777845Y-112917106D01*
X83777845Y-112917106D02*
X83739750Y-112955201D01*
X83739750Y-112955201D02*
X83663559Y-112993296D01*
X83663559Y-112993296D02*
X83396893Y-112993296D01*
X84158797Y-113183772D02*
X84539750Y-113183772D01*
X84082607Y-113412344D02*
X84349274Y-112612344D01*
X84349274Y-112612344D02*
X84615940Y-113412344D01*
X84768321Y-112612344D02*
X85225464Y-112612344D01*
X84996892Y-113412344D02*
X84996892Y-112612344D01*
X85377845Y-112612344D02*
X85834988Y-112612344D01*
X85606416Y-113412344D02*
X85606416Y-112612344D01*
X86886905Y-123042061D02*
X86620238Y-122661108D01*
X86429762Y-123042061D02*
X86429762Y-122242061D01*
X86429762Y-122242061D02*
X86734524Y-122242061D01*
X86734524Y-122242061D02*
X86810714Y-122280156D01*
X86810714Y-122280156D02*
X86848809Y-122318251D01*
X86848809Y-122318251D02*
X86886905Y-122394442D01*
X86886905Y-122394442D02*
X86886905Y-122508727D01*
X86886905Y-122508727D02*
X86848809Y-122584918D01*
X86848809Y-122584918D02*
X86810714Y-122623013D01*
X86810714Y-122623013D02*
X86734524Y-122661108D01*
X86734524Y-122661108D02*
X86429762Y-122661108D01*
X87191666Y-123003966D02*
X87305952Y-123042061D01*
X87305952Y-123042061D02*
X87496428Y-123042061D01*
X87496428Y-123042061D02*
X87572619Y-123003966D01*
X87572619Y-123003966D02*
X87610714Y-122965870D01*
X87610714Y-122965870D02*
X87648809Y-122889680D01*
X87648809Y-122889680D02*
X87648809Y-122813489D01*
X87648809Y-122813489D02*
X87610714Y-122737299D01*
X87610714Y-122737299D02*
X87572619Y-122699204D01*
X87572619Y-122699204D02*
X87496428Y-122661108D01*
X87496428Y-122661108D02*
X87344047Y-122623013D01*
X87344047Y-122623013D02*
X87267857Y-122584918D01*
X87267857Y-122584918D02*
X87229762Y-122546823D01*
X87229762Y-122546823D02*
X87191666Y-122470632D01*
X87191666Y-122470632D02*
X87191666Y-122394442D01*
X87191666Y-122394442D02*
X87229762Y-122318251D01*
X87229762Y-122318251D02*
X87267857Y-122280156D01*
X87267857Y-122280156D02*
X87344047Y-122242061D01*
X87344047Y-122242061D02*
X87534524Y-122242061D01*
X87534524Y-122242061D02*
X87648809Y-122280156D01*
X87877381Y-122242061D02*
X88334524Y-122242061D01*
X88105952Y-123042061D02*
X88105952Y-122242061D01*
X88479761Y-107393247D02*
X88594047Y-107431342D01*
X88594047Y-107431342D02*
X88632142Y-107469438D01*
X88632142Y-107469438D02*
X88670238Y-107545628D01*
X88670238Y-107545628D02*
X88670238Y-107659914D01*
X88670238Y-107659914D02*
X88632142Y-107736104D01*
X88632142Y-107736104D02*
X88594047Y-107774200D01*
X88594047Y-107774200D02*
X88517857Y-107812295D01*
X88517857Y-107812295D02*
X88213095Y-107812295D01*
X88213095Y-107812295D02*
X88213095Y-107012295D01*
X88213095Y-107012295D02*
X88479761Y-107012295D01*
X88479761Y-107012295D02*
X88555952Y-107050390D01*
X88555952Y-107050390D02*
X88594047Y-107088485D01*
X88594047Y-107088485D02*
X88632142Y-107164676D01*
X88632142Y-107164676D02*
X88632142Y-107240866D01*
X88632142Y-107240866D02*
X88594047Y-107317057D01*
X88594047Y-107317057D02*
X88555952Y-107355152D01*
X88555952Y-107355152D02*
X88479761Y-107393247D01*
X88479761Y-107393247D02*
X88213095Y-107393247D01*
X88974999Y-107583723D02*
X89355952Y-107583723D01*
X88898809Y-107812295D02*
X89165476Y-107012295D01*
X89165476Y-107012295D02*
X89432142Y-107812295D01*
X89584523Y-107012295D02*
X90041666Y-107012295D01*
X89813094Y-107812295D02*
X89813094Y-107012295D01*
X90194047Y-107012295D02*
X90651190Y-107012295D01*
X90422618Y-107812295D02*
X90422618Y-107012295D01*
X99709524Y-120593247D02*
X99976190Y-120593247D01*
X100090476Y-121012295D02*
X99709524Y-121012295D01*
X99709524Y-121012295D02*
X99709524Y-120212295D01*
X99709524Y-120212295D02*
X100090476Y-120212295D01*
X100433334Y-121012295D02*
X100433334Y-120212295D01*
X100433334Y-120212295D02*
X100890477Y-121012295D01*
X100890477Y-121012295D02*
X100890477Y-120212295D01*
X101728572Y-120936104D02*
X101690476Y-120974200D01*
X101690476Y-120974200D02*
X101576191Y-121012295D01*
X101576191Y-121012295D02*
X101500000Y-121012295D01*
X101500000Y-121012295D02*
X101385714Y-120974200D01*
X101385714Y-120974200D02*
X101309524Y-120898009D01*
X101309524Y-120898009D02*
X101271429Y-120821819D01*
X101271429Y-120821819D02*
X101233333Y-120669438D01*
X101233333Y-120669438D02*
X101233333Y-120555152D01*
X101233333Y-120555152D02*
X101271429Y-120402771D01*
X101271429Y-120402771D02*
X101309524Y-120326580D01*
X101309524Y-120326580D02*
X101385714Y-120250390D01*
X101385714Y-120250390D02*
X101500000Y-120212295D01*
X101500000Y-120212295D02*
X101576191Y-120212295D01*
X101576191Y-120212295D02*
X101690476Y-120250390D01*
X101690476Y-120250390D02*
X101728572Y-120288485D01*
X107588095Y-100462295D02*
X107740476Y-100462295D01*
X107740476Y-100462295D02*
X107816666Y-100500390D01*
X107816666Y-100500390D02*
X107892857Y-100576580D01*
X107892857Y-100576580D02*
X107930952Y-100728961D01*
X107930952Y-100728961D02*
X107930952Y-100995628D01*
X107930952Y-100995628D02*
X107892857Y-101148009D01*
X107892857Y-101148009D02*
X107816666Y-101224200D01*
X107816666Y-101224200D02*
X107740476Y-101262295D01*
X107740476Y-101262295D02*
X107588095Y-101262295D01*
X107588095Y-101262295D02*
X107511904Y-101224200D01*
X107511904Y-101224200D02*
X107435714Y-101148009D01*
X107435714Y-101148009D02*
X107397618Y-100995628D01*
X107397618Y-100995628D02*
X107397618Y-100728961D01*
X107397618Y-100728961D02*
X107435714Y-100576580D01*
X107435714Y-100576580D02*
X107511904Y-100500390D01*
X107511904Y-100500390D02*
X107588095Y-100462295D01*
X108654761Y-101262295D02*
X108273809Y-101262295D01*
X108273809Y-101262295D02*
X108273809Y-100462295D01*
X108921428Y-100843247D02*
X109188094Y-100843247D01*
X109302380Y-101262295D02*
X108921428Y-101262295D01*
X108921428Y-101262295D02*
X108921428Y-100462295D01*
X108921428Y-100462295D02*
X109302380Y-100462295D01*
X109645238Y-101262295D02*
X109645238Y-100462295D01*
X109645238Y-100462295D02*
X109835714Y-100462295D01*
X109835714Y-100462295D02*
X109950000Y-100500390D01*
X109950000Y-100500390D02*
X110026190Y-100576580D01*
X110026190Y-100576580D02*
X110064285Y-100652771D01*
X110064285Y-100652771D02*
X110102381Y-100805152D01*
X110102381Y-100805152D02*
X110102381Y-100919438D01*
X110102381Y-100919438D02*
X110064285Y-101071819D01*
X110064285Y-101071819D02*
X110026190Y-101148009D01*
X110026190Y-101148009D02*
X109950000Y-101224200D01*
X109950000Y-101224200D02*
X109835714Y-101262295D01*
X109835714Y-101262295D02*
X109645238Y-101262295D01*
X142302506Y-77668318D02*
X142759649Y-77668318D01*
X142531077Y-78468318D02*
X142531077Y-77668318D01*
X143026316Y-78049270D02*
X143292982Y-78049270D01*
X143407268Y-78468318D02*
X143026316Y-78468318D01*
X143026316Y-78468318D02*
X143026316Y-77668318D01*
X143026316Y-77668318D02*
X143407268Y-77668318D01*
X143750126Y-78468318D02*
X143750126Y-77668318D01*
X143750126Y-77668318D02*
X144207269Y-78468318D01*
X144207269Y-78468318D02*
X144207269Y-77668318D01*
X144473935Y-77668318D02*
X144931078Y-77668318D01*
X144702506Y-78468318D02*
X144702506Y-77668318D01*
X145197745Y-78468318D02*
X145197745Y-77668318D01*
X145578697Y-78468318D02*
X145578697Y-77668318D01*
X145578697Y-77668318D02*
X146035840Y-78468318D01*
X146035840Y-78468318D02*
X146035840Y-77668318D01*
X146835839Y-77706413D02*
X146759649Y-77668318D01*
X146759649Y-77668318D02*
X146645363Y-77668318D01*
X146645363Y-77668318D02*
X146531077Y-77706413D01*
X146531077Y-77706413D02*
X146454887Y-77782603D01*
X146454887Y-77782603D02*
X146416792Y-77858794D01*
X146416792Y-77858794D02*
X146378696Y-78011175D01*
X146378696Y-78011175D02*
X146378696Y-78125461D01*
X146378696Y-78125461D02*
X146416792Y-78277842D01*
X146416792Y-78277842D02*
X146454887Y-78354032D01*
X146454887Y-78354032D02*
X146531077Y-78430223D01*
X146531077Y-78430223D02*
X146645363Y-78468318D01*
X146645363Y-78468318D02*
X146721554Y-78468318D01*
X146721554Y-78468318D02*
X146835839Y-78430223D01*
X146835839Y-78430223D02*
X146873935Y-78392127D01*
X146873935Y-78392127D02*
X146873935Y-78125461D01*
X146873935Y-78125461D02*
X146721554Y-78125461D01*
X143978697Y-79756273D02*
X143978697Y-78956273D01*
X143978697Y-78956273D02*
X144283459Y-78956273D01*
X144283459Y-78956273D02*
X144359649Y-78994368D01*
X144359649Y-78994368D02*
X144397744Y-79032463D01*
X144397744Y-79032463D02*
X144435840Y-79108654D01*
X144435840Y-79108654D02*
X144435840Y-79222939D01*
X144435840Y-79222939D02*
X144397744Y-79299130D01*
X144397744Y-79299130D02*
X144359649Y-79337225D01*
X144359649Y-79337225D02*
X144283459Y-79375320D01*
X144283459Y-79375320D02*
X143978697Y-79375320D01*
X144778697Y-78956273D02*
X144778697Y-79603892D01*
X144778697Y-79603892D02*
X144816792Y-79680082D01*
X144816792Y-79680082D02*
X144854887Y-79718178D01*
X144854887Y-79718178D02*
X144931078Y-79756273D01*
X144931078Y-79756273D02*
X145083459Y-79756273D01*
X145083459Y-79756273D02*
X145159649Y-79718178D01*
X145159649Y-79718178D02*
X145197744Y-79680082D01*
X145197744Y-79680082D02*
X145235840Y-79603892D01*
X145235840Y-79603892D02*
X145235840Y-78956273D01*
X146073935Y-79680082D02*
X146035839Y-79718178D01*
X146035839Y-79718178D02*
X145921554Y-79756273D01*
X145921554Y-79756273D02*
X145845363Y-79756273D01*
X145845363Y-79756273D02*
X145731077Y-79718178D01*
X145731077Y-79718178D02*
X145654887Y-79641987D01*
X145654887Y-79641987D02*
X145616792Y-79565797D01*
X145616792Y-79565797D02*
X145578696Y-79413416D01*
X145578696Y-79413416D02*
X145578696Y-79299130D01*
X145578696Y-79299130D02*
X145616792Y-79146749D01*
X145616792Y-79146749D02*
X145654887Y-79070558D01*
X145654887Y-79070558D02*
X145731077Y-78994368D01*
X145731077Y-78994368D02*
X145845363Y-78956273D01*
X145845363Y-78956273D02*
X145921554Y-78956273D01*
X145921554Y-78956273D02*
X146035839Y-78994368D01*
X146035839Y-78994368D02*
X146073935Y-79032463D01*
X146416792Y-79756273D02*
X146416792Y-78956273D01*
X146873935Y-79756273D02*
X146531077Y-79299130D01*
X146873935Y-78956273D02*
X146416792Y-79413416D01*
X96743318Y-87585094D02*
X95943318Y-87585094D01*
X95943318Y-87585094D02*
X96514746Y-87318428D01*
X96514746Y-87318428D02*
X95943318Y-87051761D01*
X95943318Y-87051761D02*
X96743318Y-87051761D01*
X95943318Y-86518427D02*
X95943318Y-86366046D01*
X95943318Y-86366046D02*
X95981413Y-86289856D01*
X95981413Y-86289856D02*
X96057603Y-86213665D01*
X96057603Y-86213665D02*
X96209984Y-86175570D01*
X96209984Y-86175570D02*
X96476651Y-86175570D01*
X96476651Y-86175570D02*
X96629032Y-86213665D01*
X96629032Y-86213665D02*
X96705223Y-86289856D01*
X96705223Y-86289856D02*
X96743318Y-86366046D01*
X96743318Y-86366046D02*
X96743318Y-86518427D01*
X96743318Y-86518427D02*
X96705223Y-86594618D01*
X96705223Y-86594618D02*
X96629032Y-86670808D01*
X96629032Y-86670808D02*
X96476651Y-86708904D01*
X96476651Y-86708904D02*
X96209984Y-86708904D01*
X96209984Y-86708904D02*
X96057603Y-86670808D01*
X96057603Y-86670808D02*
X95981413Y-86594618D01*
X95981413Y-86594618D02*
X95943318Y-86518427D01*
X95943318Y-85832713D02*
X96590937Y-85832713D01*
X96590937Y-85832713D02*
X96667127Y-85794618D01*
X96667127Y-85794618D02*
X96705223Y-85756523D01*
X96705223Y-85756523D02*
X96743318Y-85680332D01*
X96743318Y-85680332D02*
X96743318Y-85527951D01*
X96743318Y-85527951D02*
X96705223Y-85451761D01*
X96705223Y-85451761D02*
X96667127Y-85413666D01*
X96667127Y-85413666D02*
X96590937Y-85375570D01*
X96590937Y-85375570D02*
X95943318Y-85375570D01*
X96743318Y-84994618D02*
X95943318Y-84994618D01*
X95943318Y-84994618D02*
X96743318Y-84537475D01*
X96743318Y-84537475D02*
X95943318Y-84537475D01*
X95943318Y-84270809D02*
X95943318Y-83813666D01*
X96743318Y-84042238D02*
X95943318Y-84042238D01*
X96743318Y-82937475D02*
X95943318Y-82937475D01*
X95943318Y-82937475D02*
X96514746Y-82670809D01*
X96514746Y-82670809D02*
X95943318Y-82404142D01*
X95943318Y-82404142D02*
X96743318Y-82404142D01*
X96667127Y-81566046D02*
X96705223Y-81604142D01*
X96705223Y-81604142D02*
X96743318Y-81718427D01*
X96743318Y-81718427D02*
X96743318Y-81794618D01*
X96743318Y-81794618D02*
X96705223Y-81908904D01*
X96705223Y-81908904D02*
X96629032Y-81985094D01*
X96629032Y-81985094D02*
X96552842Y-82023189D01*
X96552842Y-82023189D02*
X96400461Y-82061285D01*
X96400461Y-82061285D02*
X96286175Y-82061285D01*
X96286175Y-82061285D02*
X96133794Y-82023189D01*
X96133794Y-82023189D02*
X96057603Y-81985094D01*
X96057603Y-81985094D02*
X95981413Y-81908904D01*
X95981413Y-81908904D02*
X95943318Y-81794618D01*
X95943318Y-81794618D02*
X95943318Y-81718427D01*
X95943318Y-81718427D02*
X95981413Y-81604142D01*
X95981413Y-81604142D02*
X96019508Y-81566046D01*
X95943318Y-81223189D02*
X96590937Y-81223189D01*
X96590937Y-81223189D02*
X96667127Y-81185094D01*
X96667127Y-81185094D02*
X96705223Y-81146999D01*
X96705223Y-81146999D02*
X96743318Y-81070808D01*
X96743318Y-81070808D02*
X96743318Y-80918427D01*
X96743318Y-80918427D02*
X96705223Y-80842237D01*
X96705223Y-80842237D02*
X96667127Y-80804142D01*
X96667127Y-80804142D02*
X96590937Y-80766046D01*
X96590937Y-80766046D02*
X95943318Y-80766046D01*
X95943318Y-79623189D02*
X95943318Y-79470808D01*
X95943318Y-79470808D02*
X95981413Y-79394618D01*
X95981413Y-79394618D02*
X96057603Y-79318427D01*
X96057603Y-79318427D02*
X96209984Y-79280332D01*
X96209984Y-79280332D02*
X96476651Y-79280332D01*
X96476651Y-79280332D02*
X96629032Y-79318427D01*
X96629032Y-79318427D02*
X96705223Y-79394618D01*
X96705223Y-79394618D02*
X96743318Y-79470808D01*
X96743318Y-79470808D02*
X96743318Y-79623189D01*
X96743318Y-79623189D02*
X96705223Y-79699380D01*
X96705223Y-79699380D02*
X96629032Y-79775570D01*
X96629032Y-79775570D02*
X96476651Y-79813666D01*
X96476651Y-79813666D02*
X96209984Y-79813666D01*
X96209984Y-79813666D02*
X96057603Y-79775570D01*
X96057603Y-79775570D02*
X95981413Y-79699380D01*
X95981413Y-79699380D02*
X95943318Y-79623189D01*
X96743318Y-78937475D02*
X95943318Y-78937475D01*
X95943318Y-78937475D02*
X96743318Y-78480332D01*
X96743318Y-78480332D02*
X95943318Y-78480332D01*
X96324270Y-77223190D02*
X96362365Y-77108904D01*
X96362365Y-77108904D02*
X96400461Y-77070809D01*
X96400461Y-77070809D02*
X96476651Y-77032713D01*
X96476651Y-77032713D02*
X96590937Y-77032713D01*
X96590937Y-77032713D02*
X96667127Y-77070809D01*
X96667127Y-77070809D02*
X96705223Y-77108904D01*
X96705223Y-77108904D02*
X96743318Y-77185094D01*
X96743318Y-77185094D02*
X96743318Y-77489856D01*
X96743318Y-77489856D02*
X95943318Y-77489856D01*
X95943318Y-77489856D02*
X95943318Y-77223190D01*
X95943318Y-77223190D02*
X95981413Y-77146999D01*
X95981413Y-77146999D02*
X96019508Y-77108904D01*
X96019508Y-77108904D02*
X96095699Y-77070809D01*
X96095699Y-77070809D02*
X96171889Y-77070809D01*
X96171889Y-77070809D02*
X96248080Y-77108904D01*
X96248080Y-77108904D02*
X96286175Y-77146999D01*
X96286175Y-77146999D02*
X96324270Y-77223190D01*
X96324270Y-77223190D02*
X96324270Y-77489856D01*
X95943318Y-76537475D02*
X95943318Y-76385094D01*
X95943318Y-76385094D02*
X95981413Y-76308904D01*
X95981413Y-76308904D02*
X96057603Y-76232713D01*
X96057603Y-76232713D02*
X96209984Y-76194618D01*
X96209984Y-76194618D02*
X96476651Y-76194618D01*
X96476651Y-76194618D02*
X96629032Y-76232713D01*
X96629032Y-76232713D02*
X96705223Y-76308904D01*
X96705223Y-76308904D02*
X96743318Y-76385094D01*
X96743318Y-76385094D02*
X96743318Y-76537475D01*
X96743318Y-76537475D02*
X96705223Y-76613666D01*
X96705223Y-76613666D02*
X96629032Y-76689856D01*
X96629032Y-76689856D02*
X96476651Y-76727952D01*
X96476651Y-76727952D02*
X96209984Y-76727952D01*
X96209984Y-76727952D02*
X96057603Y-76689856D01*
X96057603Y-76689856D02*
X95981413Y-76613666D01*
X95981413Y-76613666D02*
X95943318Y-76537475D01*
X95943318Y-75966047D02*
X95943318Y-75508904D01*
X96743318Y-75737476D02*
X95943318Y-75737476D01*
X95943318Y-75356523D02*
X95943318Y-74899380D01*
X96743318Y-75127952D02*
X95943318Y-75127952D01*
X95943318Y-74480332D02*
X95943318Y-74327951D01*
X95943318Y-74327951D02*
X95981413Y-74251761D01*
X95981413Y-74251761D02*
X96057603Y-74175570D01*
X96057603Y-74175570D02*
X96209984Y-74137475D01*
X96209984Y-74137475D02*
X96476651Y-74137475D01*
X96476651Y-74137475D02*
X96629032Y-74175570D01*
X96629032Y-74175570D02*
X96705223Y-74251761D01*
X96705223Y-74251761D02*
X96743318Y-74327951D01*
X96743318Y-74327951D02*
X96743318Y-74480332D01*
X96743318Y-74480332D02*
X96705223Y-74556523D01*
X96705223Y-74556523D02*
X96629032Y-74632713D01*
X96629032Y-74632713D02*
X96476651Y-74670809D01*
X96476651Y-74670809D02*
X96209984Y-74670809D01*
X96209984Y-74670809D02*
X96057603Y-74632713D01*
X96057603Y-74632713D02*
X95981413Y-74556523D01*
X95981413Y-74556523D02*
X95943318Y-74480332D01*
X96743318Y-73794618D02*
X95943318Y-73794618D01*
X95943318Y-73794618D02*
X96514746Y-73527952D01*
X96514746Y-73527952D02*
X95943318Y-73261285D01*
X95943318Y-73261285D02*
X96743318Y-73261285D01*
X97955082Y-87127951D02*
X97993178Y-87166047D01*
X97993178Y-87166047D02*
X98031273Y-87280332D01*
X98031273Y-87280332D02*
X98031273Y-87356523D01*
X98031273Y-87356523D02*
X97993178Y-87470809D01*
X97993178Y-87470809D02*
X97916987Y-87546999D01*
X97916987Y-87546999D02*
X97840797Y-87585094D01*
X97840797Y-87585094D02*
X97688416Y-87623190D01*
X97688416Y-87623190D02*
X97574130Y-87623190D01*
X97574130Y-87623190D02*
X97421749Y-87585094D01*
X97421749Y-87585094D02*
X97345558Y-87546999D01*
X97345558Y-87546999D02*
X97269368Y-87470809D01*
X97269368Y-87470809D02*
X97231273Y-87356523D01*
X97231273Y-87356523D02*
X97231273Y-87280332D01*
X97231273Y-87280332D02*
X97269368Y-87166047D01*
X97269368Y-87166047D02*
X97307463Y-87127951D01*
X97231273Y-86632713D02*
X97231273Y-86480332D01*
X97231273Y-86480332D02*
X97269368Y-86404142D01*
X97269368Y-86404142D02*
X97345558Y-86327951D01*
X97345558Y-86327951D02*
X97497939Y-86289856D01*
X97497939Y-86289856D02*
X97764606Y-86289856D01*
X97764606Y-86289856D02*
X97916987Y-86327951D01*
X97916987Y-86327951D02*
X97993178Y-86404142D01*
X97993178Y-86404142D02*
X98031273Y-86480332D01*
X98031273Y-86480332D02*
X98031273Y-86632713D01*
X98031273Y-86632713D02*
X97993178Y-86708904D01*
X97993178Y-86708904D02*
X97916987Y-86785094D01*
X97916987Y-86785094D02*
X97764606Y-86823190D01*
X97764606Y-86823190D02*
X97497939Y-86823190D01*
X97497939Y-86823190D02*
X97345558Y-86785094D01*
X97345558Y-86785094D02*
X97269368Y-86708904D01*
X97269368Y-86708904D02*
X97231273Y-86632713D01*
X98031273Y-85946999D02*
X97231273Y-85946999D01*
X97231273Y-85946999D02*
X97802701Y-85680333D01*
X97802701Y-85680333D02*
X97231273Y-85413666D01*
X97231273Y-85413666D02*
X98031273Y-85413666D01*
X98031273Y-85032713D02*
X97231273Y-85032713D01*
X97231273Y-85032713D02*
X97231273Y-84727951D01*
X97231273Y-84727951D02*
X97269368Y-84651761D01*
X97269368Y-84651761D02*
X97307463Y-84613666D01*
X97307463Y-84613666D02*
X97383654Y-84575570D01*
X97383654Y-84575570D02*
X97497939Y-84575570D01*
X97497939Y-84575570D02*
X97574130Y-84613666D01*
X97574130Y-84613666D02*
X97612225Y-84651761D01*
X97612225Y-84651761D02*
X97650320Y-84727951D01*
X97650320Y-84727951D02*
X97650320Y-85032713D01*
X97231273Y-84080332D02*
X97231273Y-83927951D01*
X97231273Y-83927951D02*
X97269368Y-83851761D01*
X97269368Y-83851761D02*
X97345558Y-83775570D01*
X97345558Y-83775570D02*
X97497939Y-83737475D01*
X97497939Y-83737475D02*
X97764606Y-83737475D01*
X97764606Y-83737475D02*
X97916987Y-83775570D01*
X97916987Y-83775570D02*
X97993178Y-83851761D01*
X97993178Y-83851761D02*
X98031273Y-83927951D01*
X98031273Y-83927951D02*
X98031273Y-84080332D01*
X98031273Y-84080332D02*
X97993178Y-84156523D01*
X97993178Y-84156523D02*
X97916987Y-84232713D01*
X97916987Y-84232713D02*
X97764606Y-84270809D01*
X97764606Y-84270809D02*
X97497939Y-84270809D01*
X97497939Y-84270809D02*
X97345558Y-84232713D01*
X97345558Y-84232713D02*
X97269368Y-84156523D01*
X97269368Y-84156523D02*
X97231273Y-84080332D01*
X98031273Y-83394618D02*
X97231273Y-83394618D01*
X97231273Y-83394618D02*
X98031273Y-82937475D01*
X98031273Y-82937475D02*
X97231273Y-82937475D01*
X97612225Y-82556523D02*
X97612225Y-82289857D01*
X98031273Y-82175571D02*
X98031273Y-82556523D01*
X98031273Y-82556523D02*
X97231273Y-82556523D01*
X97231273Y-82556523D02*
X97231273Y-82175571D01*
X98031273Y-81832713D02*
X97231273Y-81832713D01*
X97231273Y-81832713D02*
X98031273Y-81375570D01*
X98031273Y-81375570D02*
X97231273Y-81375570D01*
X97231273Y-81108904D02*
X97231273Y-80651761D01*
X98031273Y-80880333D02*
X97231273Y-80880333D01*
X97993178Y-80423190D02*
X98031273Y-80308904D01*
X98031273Y-80308904D02*
X98031273Y-80118428D01*
X98031273Y-80118428D02*
X97993178Y-80042237D01*
X97993178Y-80042237D02*
X97955082Y-80004142D01*
X97955082Y-80004142D02*
X97878892Y-79966047D01*
X97878892Y-79966047D02*
X97802701Y-79966047D01*
X97802701Y-79966047D02*
X97726511Y-80004142D01*
X97726511Y-80004142D02*
X97688416Y-80042237D01*
X97688416Y-80042237D02*
X97650320Y-80118428D01*
X97650320Y-80118428D02*
X97612225Y-80270809D01*
X97612225Y-80270809D02*
X97574130Y-80346999D01*
X97574130Y-80346999D02*
X97536035Y-80385094D01*
X97536035Y-80385094D02*
X97459844Y-80423190D01*
X97459844Y-80423190D02*
X97383654Y-80423190D01*
X97383654Y-80423190D02*
X97307463Y-80385094D01*
X97307463Y-80385094D02*
X97269368Y-80346999D01*
X97269368Y-80346999D02*
X97231273Y-80270809D01*
X97231273Y-80270809D02*
X97231273Y-80080332D01*
X97231273Y-80080332D02*
X97269368Y-79966047D01*
X97612225Y-78746999D02*
X97612225Y-79013665D01*
X98031273Y-79013665D02*
X97231273Y-79013665D01*
X97231273Y-79013665D02*
X97231273Y-78632713D01*
X97802701Y-78366047D02*
X97802701Y-77985094D01*
X98031273Y-78442237D02*
X97231273Y-78175570D01*
X97231273Y-78175570D02*
X98031273Y-77908904D01*
X97955082Y-77185094D02*
X97993178Y-77223190D01*
X97993178Y-77223190D02*
X98031273Y-77337475D01*
X98031273Y-77337475D02*
X98031273Y-77413666D01*
X98031273Y-77413666D02*
X97993178Y-77527952D01*
X97993178Y-77527952D02*
X97916987Y-77604142D01*
X97916987Y-77604142D02*
X97840797Y-77642237D01*
X97840797Y-77642237D02*
X97688416Y-77680333D01*
X97688416Y-77680333D02*
X97574130Y-77680333D01*
X97574130Y-77680333D02*
X97421749Y-77642237D01*
X97421749Y-77642237D02*
X97345558Y-77604142D01*
X97345558Y-77604142D02*
X97269368Y-77527952D01*
X97269368Y-77527952D02*
X97231273Y-77413666D01*
X97231273Y-77413666D02*
X97231273Y-77337475D01*
X97231273Y-77337475D02*
X97269368Y-77223190D01*
X97269368Y-77223190D02*
X97307463Y-77185094D01*
X98031273Y-76842237D02*
X97231273Y-76842237D01*
X98031273Y-76461285D02*
X97231273Y-76461285D01*
X97231273Y-76461285D02*
X98031273Y-76004142D01*
X98031273Y-76004142D02*
X97231273Y-76004142D01*
X97269368Y-75204143D02*
X97231273Y-75280333D01*
X97231273Y-75280333D02*
X97231273Y-75394619D01*
X97231273Y-75394619D02*
X97269368Y-75508905D01*
X97269368Y-75508905D02*
X97345558Y-75585095D01*
X97345558Y-75585095D02*
X97421749Y-75623190D01*
X97421749Y-75623190D02*
X97574130Y-75661286D01*
X97574130Y-75661286D02*
X97688416Y-75661286D01*
X97688416Y-75661286D02*
X97840797Y-75623190D01*
X97840797Y-75623190D02*
X97916987Y-75585095D01*
X97916987Y-75585095D02*
X97993178Y-75508905D01*
X97993178Y-75508905D02*
X98031273Y-75394619D01*
X98031273Y-75394619D02*
X98031273Y-75318428D01*
X98031273Y-75318428D02*
X97993178Y-75204143D01*
X97993178Y-75204143D02*
X97955082Y-75166047D01*
X97955082Y-75166047D02*
X97688416Y-75166047D01*
X97688416Y-75166047D02*
X97688416Y-75318428D01*
X98031273Y-74213666D02*
X97231273Y-74213666D01*
X97231273Y-74213666D02*
X97231273Y-73908904D01*
X97231273Y-73908904D02*
X97269368Y-73832714D01*
X97269368Y-73832714D02*
X97307463Y-73794619D01*
X97307463Y-73794619D02*
X97383654Y-73756523D01*
X97383654Y-73756523D02*
X97497939Y-73756523D01*
X97497939Y-73756523D02*
X97574130Y-73794619D01*
X97574130Y-73794619D02*
X97612225Y-73832714D01*
X97612225Y-73832714D02*
X97650320Y-73908904D01*
X97650320Y-73908904D02*
X97650320Y-74213666D01*
X97955082Y-72956523D02*
X97993178Y-72994619D01*
X97993178Y-72994619D02*
X98031273Y-73108904D01*
X98031273Y-73108904D02*
X98031273Y-73185095D01*
X98031273Y-73185095D02*
X97993178Y-73299381D01*
X97993178Y-73299381D02*
X97916987Y-73375571D01*
X97916987Y-73375571D02*
X97840797Y-73413666D01*
X97840797Y-73413666D02*
X97688416Y-73451762D01*
X97688416Y-73451762D02*
X97574130Y-73451762D01*
X97574130Y-73451762D02*
X97421749Y-73413666D01*
X97421749Y-73413666D02*
X97345558Y-73375571D01*
X97345558Y-73375571D02*
X97269368Y-73299381D01*
X97269368Y-73299381D02*
X97231273Y-73185095D01*
X97231273Y-73185095D02*
X97231273Y-73108904D01*
X97231273Y-73108904D02*
X97269368Y-72994619D01*
X97269368Y-72994619D02*
X97307463Y-72956523D01*
X97612225Y-72347000D02*
X97650320Y-72232714D01*
X97650320Y-72232714D02*
X97688416Y-72194619D01*
X97688416Y-72194619D02*
X97764606Y-72156523D01*
X97764606Y-72156523D02*
X97878892Y-72156523D01*
X97878892Y-72156523D02*
X97955082Y-72194619D01*
X97955082Y-72194619D02*
X97993178Y-72232714D01*
X97993178Y-72232714D02*
X98031273Y-72308904D01*
X98031273Y-72308904D02*
X98031273Y-72613666D01*
X98031273Y-72613666D02*
X97231273Y-72613666D01*
X97231273Y-72613666D02*
X97231273Y-72347000D01*
X97231273Y-72347000D02*
X97269368Y-72270809D01*
X97269368Y-72270809D02*
X97307463Y-72232714D01*
X97307463Y-72232714D02*
X97383654Y-72194619D01*
X97383654Y-72194619D02*
X97459844Y-72194619D01*
X97459844Y-72194619D02*
X97536035Y-72232714D01*
X97536035Y-72232714D02*
X97574130Y-72270809D01*
X97574130Y-72270809D02*
X97612225Y-72347000D01*
X97612225Y-72347000D02*
X97612225Y-72613666D01*
D14*
X97844673Y-124764838D02*
X97844673Y-122764838D01*
X98416101Y-124764838D02*
X97987530Y-123621980D01*
X98416101Y-122764838D02*
X97844673Y-123907695D01*
X99320863Y-124764838D02*
X98844673Y-124764838D01*
X98844673Y-124764838D02*
X98844673Y-122764838D01*
X99606578Y-124193409D02*
X100082768Y-124193409D01*
X99511340Y-124764838D02*
X99844673Y-122764838D01*
X99844673Y-122764838D02*
X100178006Y-124764838D01*
X100416102Y-122764838D02*
X100654197Y-124764838D01*
X100654197Y-124764838D02*
X100844673Y-123336266D01*
X100844673Y-123336266D02*
X101035149Y-124764838D01*
X101035149Y-124764838D02*
X101273245Y-122764838D01*
D10*
X92180476Y-122740295D02*
X92637619Y-122740295D01*
X92409047Y-123540295D02*
X92409047Y-122740295D01*
X93361429Y-123540295D02*
X93094762Y-123159342D01*
X92904286Y-123540295D02*
X92904286Y-122740295D01*
X92904286Y-122740295D02*
X93209048Y-122740295D01*
X93209048Y-122740295D02*
X93285238Y-122778390D01*
X93285238Y-122778390D02*
X93323333Y-122816485D01*
X93323333Y-122816485D02*
X93361429Y-122892676D01*
X93361429Y-122892676D02*
X93361429Y-123006961D01*
X93361429Y-123006961D02*
X93323333Y-123083152D01*
X93323333Y-123083152D02*
X93285238Y-123121247D01*
X93285238Y-123121247D02*
X93209048Y-123159342D01*
X93209048Y-123159342D02*
X92904286Y-123159342D01*
X94161429Y-123540295D02*
X93894762Y-123159342D01*
X93704286Y-123540295D02*
X93704286Y-122740295D01*
X93704286Y-122740295D02*
X94009048Y-122740295D01*
X94009048Y-122740295D02*
X94085238Y-122778390D01*
X94085238Y-122778390D02*
X94123333Y-122816485D01*
X94123333Y-122816485D02*
X94161429Y-122892676D01*
X94161429Y-122892676D02*
X94161429Y-123006961D01*
X94161429Y-123006961D02*
X94123333Y-123083152D01*
X94123333Y-123083152D02*
X94085238Y-123121247D01*
X94085238Y-123121247D02*
X94009048Y-123159342D01*
X94009048Y-123159342D02*
X93704286Y-123159342D01*
X94466190Y-123502200D02*
X94580476Y-123540295D01*
X94580476Y-123540295D02*
X94770952Y-123540295D01*
X94770952Y-123540295D02*
X94847143Y-123502200D01*
X94847143Y-123502200D02*
X94885238Y-123464104D01*
X94885238Y-123464104D02*
X94923333Y-123387914D01*
X94923333Y-123387914D02*
X94923333Y-123311723D01*
X94923333Y-123311723D02*
X94885238Y-123235533D01*
X94885238Y-123235533D02*
X94847143Y-123197438D01*
X94847143Y-123197438D02*
X94770952Y-123159342D01*
X94770952Y-123159342D02*
X94618571Y-123121247D01*
X94618571Y-123121247D02*
X94542381Y-123083152D01*
X94542381Y-123083152D02*
X94504286Y-123045057D01*
X94504286Y-123045057D02*
X94466190Y-122968866D01*
X94466190Y-122968866D02*
X94466190Y-122892676D01*
X94466190Y-122892676D02*
X94504286Y-122816485D01*
X94504286Y-122816485D02*
X94542381Y-122778390D01*
X94542381Y-122778390D02*
X94618571Y-122740295D01*
X94618571Y-122740295D02*
X94809048Y-122740295D01*
X94809048Y-122740295D02*
X94923333Y-122778390D01*
%TO.C,JP22*%
D15*
X83302500Y-108583434D02*
X83302500Y-109057950D01*
X84347500Y-108583434D02*
X84347500Y-109057950D01*
%TO.C,SW4*%
D13*
X174669545Y-74303870D02*
X174739301Y-73306306D01*
X174739301Y-73306306D02*
X174938814Y-73320257D01*
X174920668Y-70712639D02*
X174895556Y-71071762D01*
X174920668Y-70712639D02*
X178192678Y-70941440D01*
X174968741Y-73322350D02*
X175124995Y-71087806D01*
X175095068Y-71085714D02*
X174895556Y-71071762D01*
X180274733Y-72991672D02*
X185262553Y-73340454D01*
D16*
X182646185Y-64460915D02*
X182747332Y-63014447D01*
X182747332Y-63014447D02*
X184792338Y-63157448D01*
X184691191Y-64603916D02*
X182646185Y-64460915D01*
X184792338Y-63157448D02*
X184691191Y-64603916D01*
D13*
X184836332Y-76568586D02*
X185035845Y-76582537D01*
X184973333Y-74322672D02*
X184816381Y-76567191D01*
X185011430Y-76931685D02*
X176631892Y-76345731D01*
X185035845Y-76582537D02*
X185011430Y-76931685D01*
X185192797Y-74338018D02*
X184993284Y-74324067D01*
X185262553Y-73340454D02*
X185192797Y-74338018D01*
X176631892Y-76345731D02*
G75*
G02*
X174669543Y-74303870I39756J2002105D01*
G01*
X180274733Y-72991672D02*
G75*
G02*
X178194853Y-70963116I86530J2169249D01*
G01*
%TO.C,D10*%
D10*
X193133423Y-110917974D02*
X194141304Y-110384892D01*
X193254977Y-110228607D02*
X193011869Y-111607339D01*
X193898196Y-111763623D02*
X193133423Y-110917974D01*
X194141304Y-110384892D02*
X193898196Y-111763623D01*
%TO.C,D7*%
X136497000Y-95497000D02*
X136497000Y-96897000D01*
X136497000Y-96197000D02*
X137397000Y-95497000D01*
X137397000Y-95497000D02*
X137397000Y-96897000D01*
X137397000Y-96897000D02*
X136497000Y-96197000D01*
%TO.C,D15*%
X174097077Y-116283708D02*
X175043714Y-115648194D01*
X174145907Y-115585413D02*
X174048247Y-116982003D01*
X174946055Y-117044783D02*
X174097077Y-116283708D01*
X175043714Y-115648194D02*
X174946055Y-117044783D01*
%TO.C,JP4*%
D15*
X92098500Y-101564742D02*
X92098500Y-102039258D01*
X93143500Y-101564742D02*
X93143500Y-102039258D01*
%TO.C,SW21*%
D13*
X116482893Y-134168492D02*
X116576067Y-134516225D01*
X116482893Y-134168492D02*
X119651129Y-133319565D01*
X116769253Y-134464461D02*
X116576067Y-134516225D01*
X117155822Y-136679899D02*
X117349007Y-136628135D01*
X117377985Y-136620371D02*
X116798230Y-134456697D01*
X117414641Y-137645825D02*
X117155822Y-136679899D01*
D16*
X121376863Y-124341596D02*
X123357011Y-123811017D01*
X121752150Y-125742188D02*
X121376863Y-124341596D01*
D13*
X122287241Y-134580246D02*
X127116870Y-133286151D01*
D16*
X123357011Y-123811017D02*
X123732298Y-125211609D01*
X123732298Y-125211609D02*
X121752150Y-125742188D01*
D13*
X127116870Y-133286151D02*
X127375689Y-134252077D01*
X127163185Y-134309017D02*
X127745528Y-136482350D01*
X127375689Y-134252077D02*
X127182504Y-134303841D01*
X127764847Y-136477174D02*
X127958032Y-136425410D01*
X127958032Y-136425410D02*
X128048618Y-136763484D01*
X128048618Y-136763484D02*
X119934842Y-138937565D01*
X119934842Y-138937565D02*
G75*
G02*
X117414640Y-137645825I-614231J1905971D01*
G01*
X122287241Y-134580246D02*
G75*
G02*
X119660242Y-133339352I-624423J2079236D01*
G01*
%TO.C,SW8*%
X153211399Y-79775260D02*
X153211399Y-80135260D01*
X153211399Y-79775260D02*
X156491399Y-79775260D01*
X153211399Y-82375260D02*
X153411399Y-82375260D01*
X153211399Y-83375260D02*
X153211399Y-82375260D01*
X153411399Y-80135260D02*
X153211399Y-80135260D01*
X153441399Y-82375260D02*
X153441399Y-80135260D01*
X158711399Y-81675260D02*
X163711399Y-81675260D01*
D16*
X160481999Y-71549860D02*
X162531999Y-71549860D01*
X160481999Y-72999860D02*
X160481999Y-71549860D01*
X162531999Y-71549860D02*
X162531999Y-72999860D01*
X162531999Y-72999860D02*
X160481999Y-72999860D01*
D13*
X163491399Y-82675260D02*
X163491399Y-84925260D01*
X163511399Y-84925260D02*
X163711399Y-84925260D01*
X163711399Y-81675260D02*
X163711399Y-82675260D01*
X163711399Y-82675260D02*
X163511399Y-82675260D01*
X163711399Y-84925260D02*
X163711399Y-85275260D01*
X163711399Y-85275260D02*
X155311399Y-85275261D01*
X155311399Y-85275261D02*
G75*
G02*
X153211398Y-83375260I-100000J2000001D01*
G01*
X158711399Y-81675260D02*
G75*
G02*
X156495081Y-79796731I-65000J2170000D01*
G01*
%TO.C,JP16*%
D15*
X137427500Y-117887258D02*
X137427500Y-117412742D01*
X138472500Y-117887258D02*
X138472500Y-117412742D01*
%TO.C,D21*%
D10*
X128530380Y-125788544D02*
X128973590Y-124738037D01*
X128973590Y-124738037D02*
X129882676Y-125426197D01*
X129649739Y-124556864D02*
X128297442Y-124919209D01*
X129882676Y-125426197D02*
X128530380Y-125788544D01*
%TO.C,BZ1*%
D15*
X153291506Y-108797549D02*
X164491506Y-108797549D01*
X153291506Y-112047549D02*
X153291506Y-108797549D01*
X153291506Y-117997549D02*
X153291506Y-114747549D01*
X164491506Y-108797549D02*
X164491506Y-112047549D01*
X164491506Y-114747549D02*
X164491506Y-117997549D01*
X164491506Y-117997549D02*
X153291506Y-117997549D01*
%TO.C,SW15*%
D13*
X172008671Y-112356142D02*
X172078427Y-111358578D01*
X172078427Y-111358578D02*
X172277940Y-111372529D01*
X172259794Y-108764911D02*
X172234682Y-109124034D01*
X172259794Y-108764911D02*
X175531804Y-108993712D01*
X172307867Y-111374622D02*
X172464121Y-109140078D01*
X172434194Y-109137986D02*
X172234682Y-109124034D01*
X177613859Y-111043944D02*
X182601679Y-111392726D01*
D16*
X179985311Y-102513187D02*
X180086458Y-101066719D01*
X180086458Y-101066719D02*
X182131464Y-101209720D01*
X182030317Y-102656188D02*
X179985311Y-102513187D01*
X182131464Y-101209720D02*
X182030317Y-102656188D01*
D13*
X182175458Y-114620858D02*
X182374971Y-114634809D01*
X182312459Y-112374944D02*
X182155507Y-114619463D01*
X182350556Y-114983957D02*
X173971018Y-114398003D01*
X182374971Y-114634809D02*
X182350556Y-114983957D01*
X182531923Y-112390290D02*
X182332410Y-112376339D01*
X182601679Y-111392726D02*
X182531923Y-112390290D01*
X173971018Y-114398003D02*
G75*
G02*
X172008669Y-112356142I39756J2002105D01*
G01*
X177613859Y-111043944D02*
G75*
G02*
X175533979Y-109015388I86530J2169249D01*
G01*
%TO.C,SW6*%
X115167969Y-91775260D02*
X115167969Y-92135260D01*
X115167969Y-91775260D02*
X118447969Y-91775260D01*
X115167969Y-94375260D02*
X115367969Y-94375260D01*
X115167969Y-95375260D02*
X115167969Y-94375260D01*
X115367969Y-92135260D02*
X115167969Y-92135260D01*
X115397969Y-94375260D02*
X115397969Y-92135260D01*
X120667969Y-93675260D02*
X125667969Y-93675260D01*
D16*
X122438569Y-83549860D02*
X124488569Y-83549860D01*
X122438569Y-84999860D02*
X122438569Y-83549860D01*
X124488569Y-83549860D02*
X124488569Y-84999860D01*
X124488569Y-84999860D02*
X122438569Y-84999860D01*
D13*
X125447969Y-94675260D02*
X125447969Y-96925260D01*
X125467969Y-96925260D02*
X125667969Y-96925260D01*
X125667969Y-93675260D02*
X125667969Y-94675260D01*
X125667969Y-94675260D02*
X125467969Y-94675260D01*
X125667969Y-96925260D02*
X125667969Y-97275260D01*
X125667969Y-97275260D02*
X117267969Y-97275261D01*
X117267969Y-97275261D02*
G75*
G02*
X115167968Y-95375260I-100000J2000001D01*
G01*
X120667969Y-93675260D02*
G75*
G02*
X118451651Y-91796731I-65000J2170000D01*
G01*
%TO.C,JP17*%
D15*
X139977500Y-117887258D02*
X139977500Y-117412742D01*
X141022500Y-117887258D02*
X141022500Y-117412742D01*
%TO.C,D14*%
D10*
X154500000Y-105600000D02*
X154500000Y-107000000D01*
X154500000Y-106300000D02*
X155400000Y-105600000D01*
X155400000Y-105600000D02*
X155400000Y-107000000D01*
X155400000Y-107000000D02*
X154500000Y-106300000D01*
%TO.C,SW18*%
D15*
X89490000Y-108050000D02*
X89490000Y-119850000D01*
X93590000Y-108050000D02*
X89490000Y-108050000D01*
X93590000Y-119850000D02*
X89490000Y-119850000D01*
X95090000Y-113950000D02*
X96090000Y-113950000D01*
X95590000Y-113450000D02*
X95590000Y-114450000D01*
X97590000Y-108050000D02*
X101690000Y-108050000D01*
X101690000Y-108050000D02*
X101690000Y-110450000D01*
X101690000Y-112650000D02*
X101690000Y-115250000D01*
X101690000Y-117450000D02*
X101690000Y-119850000D01*
X101690000Y-119850000D02*
X97590000Y-119850000D01*
X98590000Y-113950000D02*
G75*
G02*
X92590000Y-113950000I-3000000J0D01*
G01*
X92590000Y-113950000D02*
G75*
G02*
X98590000Y-113950000I3000000J0D01*
G01*
%TO.C,OLED1*%
X82679110Y-72855000D02*
X110079110Y-72855000D01*
X110079110Y-100155000D01*
X82679110Y-100155000D01*
X82679110Y-72855000D01*
X83229110Y-80255000D02*
X109629110Y-80255000D01*
X109629110Y-96855000D01*
X83229110Y-96855000D01*
X83229110Y-80255000D01*
X91379110Y-97255000D02*
X101379110Y-97255000D01*
X101379110Y-99655000D01*
X91379110Y-99655000D01*
X91379110Y-97255000D01*
%TO.C,J1*%
D10*
X82775000Y-124100000D02*
X94775000Y-124100000D01*
X82775000Y-130100000D02*
X82775000Y-124100000D01*
X94775000Y-124100000D02*
X94775000Y-130100000D01*
X94775000Y-130100000D02*
X82775000Y-130100000D01*
%TO.C,D6*%
X116500000Y-98500000D02*
X116500000Y-99900000D01*
X116500000Y-99200000D02*
X117400000Y-98500000D01*
X117400000Y-98500000D02*
X117400000Y-99900000D01*
X117400000Y-99900000D02*
X116500000Y-99200000D01*
%TO.C,JP2*%
D15*
X97137500Y-101564742D02*
X97137500Y-102039258D01*
X98182500Y-101564742D02*
X98182500Y-102039258D01*
%TO.C,SW12*%
D13*
X115167969Y-110847857D02*
X115167969Y-111207857D01*
X115167969Y-110847857D02*
X118447969Y-110847857D01*
X115167969Y-113447857D02*
X115367969Y-113447857D01*
X115167969Y-114447857D02*
X115167969Y-113447857D01*
X115367969Y-111207857D02*
X115167969Y-111207857D01*
X115397969Y-113447857D02*
X115397969Y-111207857D01*
X120667969Y-112747857D02*
X125667969Y-112747857D01*
D16*
X122438569Y-102622457D02*
X124488569Y-102622457D01*
X122438569Y-104072457D02*
X122438569Y-102622457D01*
X124488569Y-102622457D02*
X124488569Y-104072457D01*
X124488569Y-104072457D02*
X122438569Y-104072457D01*
D13*
X125447969Y-113747857D02*
X125447969Y-115997857D01*
X125467969Y-115997857D02*
X125667969Y-115997857D01*
X125667969Y-112747857D02*
X125667969Y-113747857D01*
X125667969Y-113747857D02*
X125467969Y-113747857D01*
X125667969Y-115997857D02*
X125667969Y-116347857D01*
X125667969Y-116347857D02*
X117267969Y-116347858D01*
X117267969Y-116347858D02*
G75*
G02*
X115167968Y-114447857I-100000J2000001D01*
G01*
X120667969Y-112747857D02*
G75*
G02*
X118451651Y-110869328I-65000J2170000D01*
G01*
%TO.C,JP3*%
D15*
X94643500Y-101564742D02*
X94643500Y-102039258D01*
X95688500Y-101564742D02*
X95688500Y-102039258D01*
%TO.C,D5*%
D10*
X196433423Y-92117974D02*
X197441304Y-91584892D01*
X196554977Y-91428607D02*
X196311869Y-92807339D01*
X197198196Y-92963623D02*
X196433423Y-92117974D01*
X197441304Y-91584892D02*
X197198196Y-92963623D01*
%TO.C,JP18*%
D15*
X145077500Y-117887258D02*
X145077500Y-117412742D01*
X146122500Y-117887258D02*
X146122500Y-117412742D01*
%TO.C,D20*%
D10*
X107115782Y-132596167D02*
X107272000Y-131466744D01*
X107272000Y-131466744D02*
X108328218Y-131896167D01*
X107878218Y-131116744D02*
X106665782Y-131816744D01*
X108328218Y-131896167D02*
X107115782Y-132596167D01*
%TO.C,SW1*%
D13*
X115167969Y-72702664D02*
X115167969Y-73062664D01*
X115167969Y-72702664D02*
X118447969Y-72702664D01*
X115167969Y-75302664D02*
X115367969Y-75302664D01*
X115167969Y-76302664D02*
X115167969Y-75302664D01*
X115367969Y-73062664D02*
X115167969Y-73062664D01*
X115397969Y-75302664D02*
X115397969Y-73062664D01*
X120667969Y-74602664D02*
X125667969Y-74602664D01*
D16*
X122438569Y-64477264D02*
X124488569Y-64477264D01*
X122438569Y-65927264D02*
X122438569Y-64477264D01*
X124488569Y-64477264D02*
X124488569Y-65927264D01*
X124488569Y-65927264D02*
X122438569Y-65927264D01*
D13*
X125447969Y-75602664D02*
X125447969Y-77852664D01*
X125467969Y-77852664D02*
X125667969Y-77852664D01*
X125667969Y-74602664D02*
X125667969Y-75602664D01*
X125667969Y-75602664D02*
X125467969Y-75602664D01*
X125667969Y-77852664D02*
X125667969Y-78202664D01*
X125667969Y-78202664D02*
X117267969Y-78202665D01*
X117267969Y-78202665D02*
G75*
G02*
X115167968Y-76302664I-100000J2000001D01*
G01*
X120667969Y-74602664D02*
G75*
G02*
X118451651Y-72724135I-65000J2170000D01*
G01*
%TO.C,BT1*%
D15*
X82815000Y-100732660D02*
X82815000Y-101652660D01*
X82815000Y-101652660D02*
X84415000Y-101652660D01*
X82815000Y-105932660D02*
X82815000Y-106852660D01*
X82815000Y-106852660D02*
X90635000Y-106852660D01*
X84415000Y-100732660D02*
X84415000Y-101652660D01*
X84415000Y-101652660D02*
X84415000Y-101932660D01*
X84415000Y-105652660D02*
X83200000Y-105652660D01*
X84415000Y-105652660D02*
X84415000Y-105932660D01*
X84415000Y-105932660D02*
X82815000Y-105932660D01*
X84415000Y-106852660D02*
X84415000Y-105932660D01*
X86275000Y-103292660D02*
X90635000Y-103292660D01*
X86275000Y-104292660D02*
X86275000Y-103292660D01*
X86775000Y-101492660D02*
X88375000Y-101492660D01*
X86775000Y-102492660D02*
X86775000Y-101492660D01*
X86775000Y-105092660D02*
X86775000Y-106092660D01*
X86775000Y-106092660D02*
X88375000Y-106092660D01*
X88375000Y-101492660D02*
X88375000Y-102492660D01*
X88375000Y-102492660D02*
X86775000Y-102492660D01*
X88375000Y-105092660D02*
X86775000Y-105092660D01*
X88375000Y-105092660D02*
X90635000Y-105092660D01*
X88375000Y-105592660D02*
X90635000Y-105592660D01*
X88375000Y-106092660D02*
X88375000Y-105092660D01*
X90635000Y-100732660D02*
X82815000Y-100732660D01*
X90635000Y-104292660D02*
X86275000Y-104292660D01*
X90635000Y-106852660D02*
X90635000Y-100732660D01*
%TO.C,SW9*%
D13*
X173339108Y-93330005D02*
X173408864Y-92332441D01*
X173408864Y-92332441D02*
X173608377Y-92346392D01*
X173590231Y-89738774D02*
X173565119Y-90097897D01*
X173590231Y-89738774D02*
X176862241Y-89967575D01*
X173638304Y-92348485D02*
X173794558Y-90113941D01*
X173764631Y-90111849D02*
X173565119Y-90097897D01*
X178944296Y-92017807D02*
X183932116Y-92366589D01*
D16*
X181315748Y-83487050D02*
X181416895Y-82040582D01*
X181416895Y-82040582D02*
X183461901Y-82183583D01*
X183360754Y-83630051D02*
X181315748Y-83487050D01*
X183461901Y-82183583D02*
X183360754Y-83630051D01*
D13*
X183505895Y-95594721D02*
X183705408Y-95608672D01*
X183642896Y-93348807D02*
X183485944Y-95593326D01*
X183680993Y-95957820D02*
X175301455Y-95371866D01*
X183705408Y-95608672D02*
X183680993Y-95957820D01*
X183862360Y-93364153D02*
X183662847Y-93350202D01*
X183932116Y-92366589D02*
X183862360Y-93364153D01*
X175301455Y-95371866D02*
G75*
G02*
X173339106Y-93330005I39756J2002105D01*
G01*
X178944296Y-92017807D02*
G75*
G02*
X176864416Y-89989251I86530J2169249D01*
G01*
%TO.C,RSW1*%
D15*
X83100000Y-119254766D02*
X83100000Y-121254766D01*
X85900000Y-117854766D02*
X84900000Y-117854766D01*
X85900000Y-118454766D02*
X85900000Y-117854766D01*
X85900000Y-122054766D02*
X85900000Y-122654766D01*
X85900000Y-122654766D02*
X84900000Y-122654766D01*
%TO.C,D2*%
D10*
X135500000Y-76400000D02*
X135500000Y-77800000D01*
X135500000Y-77100000D02*
X136400000Y-76400000D01*
X136400000Y-76400000D02*
X136400000Y-77800000D01*
X136400000Y-77800000D02*
X135500000Y-77100000D01*
%TO.C,D3*%
X154600000Y-67400000D02*
X154600000Y-68800000D01*
X154600000Y-68100000D02*
X155500000Y-67400000D01*
X155500000Y-67400000D02*
X155500000Y-68800000D01*
X155500000Y-68800000D02*
X154600000Y-68100000D01*
%TO.C,D8*%
X154579000Y-86485000D02*
X154579000Y-87885000D01*
X154579000Y-87185000D02*
X155479000Y-86485000D01*
X155479000Y-86485000D02*
X155479000Y-87885000D01*
X155479000Y-87885000D02*
X154579000Y-87185000D01*
%TO.C,D16*%
X189807596Y-129613176D02*
X190815477Y-129080094D01*
X189929150Y-128923809D02*
X189686042Y-130302541D01*
X190572369Y-130458825D02*
X189807596Y-129613176D01*
X190815477Y-129080094D02*
X190572369Y-130458825D01*
%TO.C,D18*%
X100380000Y-106260000D02*
X100380000Y-107660000D01*
X100380000Y-106960000D02*
X101280000Y-106260000D01*
X101280000Y-106260000D02*
X101280000Y-107660000D01*
X101280000Y-107660000D02*
X100380000Y-106960000D01*
%TO.C,SW3*%
D13*
X153211399Y-60702664D02*
X153211399Y-61062664D01*
X153211399Y-60702664D02*
X156491399Y-60702664D01*
X153211399Y-63302664D02*
X153411399Y-63302664D01*
X153211399Y-64302664D02*
X153211399Y-63302664D01*
X153411399Y-61062664D02*
X153211399Y-61062664D01*
X153441399Y-63302664D02*
X153441399Y-61062664D01*
X158711399Y-62602664D02*
X163711399Y-62602664D01*
D16*
X160481999Y-52477264D02*
X162531999Y-52477264D01*
X160481999Y-53927264D02*
X160481999Y-52477264D01*
X162531999Y-52477264D02*
X162531999Y-53927264D01*
X162531999Y-53927264D02*
X160481999Y-53927264D01*
D13*
X163491399Y-63602664D02*
X163491399Y-65852664D01*
X163511399Y-65852664D02*
X163711399Y-65852664D01*
X163711399Y-62602664D02*
X163711399Y-63602664D01*
X163711399Y-63602664D02*
X163511399Y-63602664D01*
X163711399Y-65852664D02*
X163711399Y-66202664D01*
X163711399Y-66202664D02*
X155311399Y-66202665D01*
X155311399Y-66202665D02*
G75*
G02*
X153211398Y-64302664I-100000J2000001D01*
G01*
X158711399Y-62602664D02*
G75*
G02*
X156495081Y-60724135I-65000J2170000D01*
G01*
%TO.C,REF\u002A\u002A*%
D14*
X129828479Y-93281304D02*
G75*
G02*
X130862344Y-89130758I20320000J-2857500D01*
G01*
X130862345Y-103146851D02*
G75*
G02*
X129828479Y-98996304I19286134J7008047D01*
G01*
X143140432Y-76852670D02*
G75*
G02*
X147290979Y-75818804I7008037J-19286087D01*
G01*
X153005979Y-75818804D02*
G75*
G02*
X157156527Y-76852670I-2857496J-20319983D01*
G01*
X169434613Y-89130756D02*
G75*
G02*
X170468479Y-93281304I-19286117J-7008044D01*
G01*
X170468479Y-98996304D02*
G75*
G02*
X169434613Y-103146851I-20320000J2857500D01*
G01*
%TO.C,SW20*%
D13*
X97687604Y-143734364D02*
X97867604Y-144046133D01*
X97687604Y-143734364D02*
X100528167Y-142094364D01*
X98040809Y-143946133D02*
X97867604Y-144046133D01*
X98987604Y-145986030D02*
X99160809Y-145886030D01*
X99186790Y-145871030D02*
X98066790Y-143931133D01*
X99487604Y-146852055D02*
X98987604Y-145986030D01*
D16*
X99871428Y-132975659D02*
X101646780Y-131950659D01*
X100596428Y-134231395D02*
X99871428Y-132975659D01*
X101646780Y-131950659D02*
X102371780Y-133206395D01*
X102371780Y-133206395D02*
X100596428Y-134231395D01*
D13*
X103400744Y-142629812D02*
X107730871Y-140129812D01*
X107730871Y-140129812D02*
X108230871Y-140995838D01*
X108040345Y-141105838D02*
X109165345Y-143054395D01*
X108230871Y-140995838D02*
X108057666Y-141095838D01*
X109182666Y-143044395D02*
X109355871Y-142944395D01*
X109355871Y-142944395D02*
X109530871Y-143247504D01*
X109530871Y-143247504D02*
X102256258Y-147447505D01*
X102256258Y-147447505D02*
G75*
G02*
X99487603Y-146852056I-1086603J1682052D01*
G01*
X103400744Y-142629812D02*
G75*
G02*
X100542091Y-142111117I-1141292J1846775D01*
G01*
%TO.C,JP1*%
D15*
X99682500Y-101564742D02*
X99682500Y-102039258D01*
X100727500Y-101564742D02*
X100727500Y-102039258D01*
%TO.C,SW16*%
D13*
X189453631Y-125694468D02*
X189627279Y-124709660D01*
X189627279Y-124709660D02*
X189824241Y-124744390D01*
X189853785Y-124749600D02*
X190242757Y-122543630D01*
X190078764Y-122149160D02*
X190016251Y-122503691D01*
X190078764Y-122149160D02*
X193308934Y-122718726D01*
X190213212Y-122538421D02*
X190016251Y-122503691D01*
X195165275Y-124975360D02*
X200089314Y-125843601D01*
D16*
X198415443Y-116739220D02*
X198667233Y-115311249D01*
X198667233Y-115311249D02*
X200686089Y-115667228D01*
D13*
X199327996Y-129009496D02*
X199524958Y-129044226D01*
X199464181Y-129388909D02*
X191191795Y-127930265D01*
X199524958Y-129044226D02*
X199464181Y-129388909D01*
X199699008Y-126790206D02*
X199308300Y-129006023D01*
X199915666Y-126828409D02*
X199718704Y-126793679D01*
X200089314Y-125843601D02*
X199915666Y-126828409D01*
D16*
X200434299Y-117095199D02*
X198415443Y-116739220D01*
X200686089Y-115667228D02*
X200434299Y-117095199D01*
D13*
X191191795Y-127930265D02*
G75*
G02*
X189453630Y-125694468I248816J1986981D01*
G01*
X195165275Y-124975360D02*
G75*
G02*
X193308831Y-122740510I312804J2148320D01*
G01*
%TO.C,D9*%
D10*
X174566582Y-97269404D02*
X175513219Y-96633890D01*
X174615412Y-96571109D02*
X174517752Y-97967699D01*
X175415560Y-98030479D02*
X174566582Y-97269404D01*
X175513219Y-96633890D02*
X175415560Y-98030479D01*
%TO.C,SW13*%
D13*
X134161399Y-107847857D02*
X134161399Y-108207857D01*
X134161399Y-107847857D02*
X137441399Y-107847857D01*
X134161399Y-110447857D02*
X134361399Y-110447857D01*
X134161399Y-111447857D02*
X134161399Y-110447857D01*
X134361399Y-108207857D02*
X134161399Y-108207857D01*
X134391399Y-110447857D02*
X134391399Y-108207857D01*
X139661399Y-109747857D02*
X144661399Y-109747857D01*
D16*
X141431999Y-99622457D02*
X143481999Y-99622457D01*
X141431999Y-101072457D02*
X141431999Y-99622457D01*
X143481999Y-99622457D02*
X143481999Y-101072457D01*
X143481999Y-101072457D02*
X141431999Y-101072457D01*
D13*
X144441399Y-110747857D02*
X144441399Y-112997857D01*
X144461399Y-112997857D02*
X144661399Y-112997857D01*
X144661399Y-109747857D02*
X144661399Y-110747857D01*
X144661399Y-110747857D02*
X144461399Y-110747857D01*
X144661399Y-112997857D02*
X144661399Y-113347857D01*
X144661399Y-113347857D02*
X136261399Y-113347858D01*
X136261399Y-113347858D02*
G75*
G02*
X134161398Y-111447857I-100000J2000001D01*
G01*
X139661399Y-109747857D02*
G75*
G02*
X137445081Y-107869328I-65000J2170000D01*
G01*
%TO.C,SW7*%
X134161399Y-88775260D02*
X134161399Y-89135260D01*
X134161399Y-88775260D02*
X137441399Y-88775260D01*
X134161399Y-91375260D02*
X134361399Y-91375260D01*
X134161399Y-92375260D02*
X134161399Y-91375260D01*
X134361399Y-89135260D02*
X134161399Y-89135260D01*
X134391399Y-91375260D02*
X134391399Y-89135260D01*
X139661399Y-90675260D02*
X144661399Y-90675260D01*
D16*
X141431999Y-80549860D02*
X143481999Y-80549860D01*
X141431999Y-81999860D02*
X141431999Y-80549860D01*
X143481999Y-80549860D02*
X143481999Y-81999860D01*
X143481999Y-81999860D02*
X141431999Y-81999860D01*
D13*
X144441399Y-91675260D02*
X144441399Y-93925260D01*
X144461399Y-93925260D02*
X144661399Y-93925260D01*
X144661399Y-90675260D02*
X144661399Y-91675260D01*
X144661399Y-91675260D02*
X144461399Y-91675260D01*
X144661399Y-93925260D02*
X144661399Y-94275260D01*
X144661399Y-94275260D02*
X136261399Y-94275261D01*
X136261399Y-94275261D02*
G75*
G02*
X134161398Y-92375260I-100000J2000001D01*
G01*
X139661399Y-90675260D02*
G75*
G02*
X137445081Y-88796731I-65000J2170000D01*
G01*
%TO.C,D4*%
D10*
X175497077Y-78183708D02*
X176443714Y-77548194D01*
X175545907Y-77485413D02*
X175448247Y-78882003D01*
X176346055Y-78944783D02*
X175497077Y-78183708D01*
X176443714Y-77548194D02*
X176346055Y-78944783D01*
%TO.C,D13*%
X147500000Y-102800000D02*
X148900000Y-102800000D01*
X147500000Y-103700000D02*
X148900000Y-103700000D01*
X148200000Y-103700000D02*
X147500000Y-102800000D01*
X148900000Y-102800000D02*
X148200000Y-103700000D01*
%TO.C,SW5*%
D13*
X196077475Y-88128787D02*
X196251123Y-87143979D01*
X196251123Y-87143979D02*
X196448085Y-87178709D01*
X196477629Y-87183919D02*
X196866601Y-84977949D01*
X196702608Y-84583479D02*
X196640095Y-84938010D01*
X196702608Y-84583479D02*
X199932778Y-85153045D01*
X196837056Y-84972740D02*
X196640095Y-84938010D01*
X201789119Y-87409679D02*
X206713158Y-88277920D01*
D16*
X205039287Y-79173539D02*
X205291077Y-77745568D01*
X205291077Y-77745568D02*
X207309933Y-78101547D01*
D13*
X205951840Y-91443815D02*
X206148802Y-91478545D01*
X206088025Y-91823228D02*
X197815639Y-90364584D01*
X206148802Y-91478545D02*
X206088025Y-91823228D01*
X206322852Y-89224525D02*
X205932144Y-91440342D01*
X206539510Y-89262728D02*
X206342548Y-89227998D01*
X206713158Y-88277920D02*
X206539510Y-89262728D01*
D16*
X207058143Y-79529518D02*
X205039287Y-79173539D01*
X207309933Y-78101547D02*
X207058143Y-79529518D01*
D13*
X197815639Y-90364584D02*
G75*
G02*
X196077474Y-88128787I248816J1986981D01*
G01*
X201789119Y-87409679D02*
G75*
G02*
X199932675Y-85174829I312804J2148320D01*
G01*
%TO.C,D1*%
D10*
X116500000Y-79400000D02*
X116500000Y-80800000D01*
X116500000Y-80100000D02*
X117400000Y-79400000D01*
X117400000Y-79400000D02*
X117400000Y-80800000D01*
X117400000Y-80800000D02*
X116500000Y-80100000D01*
%TO.C,PSW1*%
X82675000Y-71774255D02*
X85575000Y-71774255D01*
X82725000Y-78524255D02*
X82675000Y-71774255D01*
X85575000Y-71774255D02*
X85575000Y-78524255D01*
X85575000Y-78524255D02*
X82725000Y-78524255D01*
%TO.C,JP24*%
D15*
X85082546Y-108587742D02*
X85082546Y-109062258D01*
X86127546Y-108587742D02*
X86127546Y-109062258D01*
%TO.C,D12*%
D10*
X116300000Y-117590000D02*
X116300000Y-118990000D01*
X116300000Y-118290000D02*
X117200000Y-117590000D01*
X117200000Y-117590000D02*
X117200000Y-118990000D01*
X117200000Y-118990000D02*
X116300000Y-118290000D01*
%TO.C,J3*%
D15*
X136700000Y-119000000D02*
X149350000Y-119000000D01*
X149350000Y-121500000D01*
X136700000Y-121500000D01*
X136700000Y-119000000D01*
%TO.C,SW14*%
D13*
X153211399Y-98847857D02*
X153211399Y-99207857D01*
X153211399Y-98847857D02*
X156491399Y-98847857D01*
X153211399Y-101447857D02*
X153411399Y-101447857D01*
X153211399Y-102447857D02*
X153211399Y-101447857D01*
X153411399Y-99207857D02*
X153211399Y-99207857D01*
X153441399Y-101447857D02*
X153441399Y-99207857D01*
X158711399Y-100747857D02*
X163711399Y-100747857D01*
D16*
X160481999Y-90622457D02*
X162531999Y-90622457D01*
X160481999Y-92072457D02*
X160481999Y-90622457D01*
X162531999Y-90622457D02*
X162531999Y-92072457D01*
X162531999Y-92072457D02*
X160481999Y-92072457D01*
D13*
X163491399Y-101747857D02*
X163491399Y-103997857D01*
X163511399Y-103997857D02*
X163711399Y-103997857D01*
X163711399Y-100747857D02*
X163711399Y-101747857D01*
X163711399Y-101747857D02*
X163511399Y-101747857D01*
X163711399Y-103997857D02*
X163711399Y-104347857D01*
X163711399Y-104347857D02*
X155311399Y-104347858D01*
X155311399Y-104347858D02*
G75*
G02*
X153211398Y-102447857I-100000J2000001D01*
G01*
X158711399Y-100747857D02*
G75*
G02*
X156495081Y-98869328I-65000J2170000D01*
G01*
%TO.C,SW10*%
X192765553Y-106911626D02*
X192939201Y-105926818D01*
X192939201Y-105926818D02*
X193136163Y-105961548D01*
X193165707Y-105966758D02*
X193554679Y-103760788D01*
X193390686Y-103366318D02*
X193328173Y-103720849D01*
X193390686Y-103366318D02*
X196620856Y-103935884D01*
X193525134Y-103755579D02*
X193328173Y-103720849D01*
X198477197Y-106192518D02*
X203401236Y-107060759D01*
D16*
X201727365Y-97956378D02*
X201979155Y-96528407D01*
X201979155Y-96528407D02*
X203998011Y-96884386D01*
D13*
X202639918Y-110226654D02*
X202836880Y-110261384D01*
X202776103Y-110606067D02*
X194503717Y-109147423D01*
X202836880Y-110261384D02*
X202776103Y-110606067D01*
X203010930Y-108007364D02*
X202620222Y-110223181D01*
X203227588Y-108045567D02*
X203030626Y-108010837D01*
X203401236Y-107060759D02*
X203227588Y-108045567D01*
D16*
X203746221Y-98312357D02*
X201727365Y-97956378D01*
X203998011Y-96884386D02*
X203746221Y-98312357D01*
D13*
X194503717Y-109147423D02*
G75*
G02*
X192765552Y-106911626I248816J1986981D01*
G01*
X198477197Y-106192518D02*
G75*
G02*
X196620753Y-103957668I312804J2148320D01*
G01*
%TO.C,U1*%
D10*
X88808815Y-63500000D02*
X88808815Y-96520000D01*
X88808815Y-66040000D02*
X88808815Y-96520000D01*
X88808815Y-96520000D02*
X91348815Y-96520000D01*
X91348815Y-66040000D02*
X88808815Y-66040000D01*
X91348815Y-96520000D02*
X91348815Y-66040000D01*
X104048815Y-66040000D02*
X104048815Y-96520000D01*
X104048815Y-96520000D02*
X106588815Y-96520000D01*
X106588815Y-63500000D02*
X88808815Y-63500000D01*
X106588815Y-66040000D02*
X104048815Y-66040000D01*
X106588815Y-96520000D02*
X106588815Y-63500000D01*
X106588815Y-96520000D02*
X106588815Y-66040000D01*
%TO.C,SW2*%
D13*
X134161399Y-69702664D02*
X134161399Y-70062664D01*
X134161399Y-69702664D02*
X137441399Y-69702664D01*
X134161399Y-72302664D02*
X134361399Y-72302664D01*
X134161399Y-73302664D02*
X134161399Y-72302664D01*
X134361399Y-70062664D02*
X134161399Y-70062664D01*
X134391399Y-72302664D02*
X134391399Y-70062664D01*
X139661399Y-71602664D02*
X144661399Y-71602664D01*
D16*
X141431999Y-61477264D02*
X143481999Y-61477264D01*
X141431999Y-62927264D02*
X141431999Y-61477264D01*
X143481999Y-61477264D02*
X143481999Y-62927264D01*
X143481999Y-62927264D02*
X141431999Y-62927264D01*
D13*
X144441399Y-72602664D02*
X144441399Y-74852664D01*
X144461399Y-74852664D02*
X144661399Y-74852664D01*
X144661399Y-71602664D02*
X144661399Y-72602664D01*
X144661399Y-72602664D02*
X144461399Y-72602664D01*
X144661399Y-74852664D02*
X144661399Y-75202664D01*
X144661399Y-75202664D02*
X136261399Y-75202665D01*
X136261399Y-75202665D02*
G75*
G02*
X134161398Y-73302664I-100000J2000001D01*
G01*
X139661399Y-71602664D02*
G75*
G02*
X137445081Y-69724135I-65000J2170000D01*
G01*
%TD*%
D17*
%TO.C,J1*%
X84275000Y-128850000D03*
X91275000Y-128850000D03*
X84275000Y-127100000D03*
X91275000Y-127100000D03*
D18*
X93075000Y-130950000D03*
X93075000Y-125000000D03*
X89075000Y-130950000D03*
X89075000Y-125000000D03*
X86075000Y-130950000D03*
X86075000Y-125000000D03*
X94575000Y-129200000D03*
X94575000Y-126750000D03*
%TD*%
D19*
%TO.C,U1*%
X88780000Y-66114255D03*
X88780000Y-68654255D03*
X88780000Y-71194255D03*
X88780000Y-73734255D03*
X88780000Y-76274255D03*
X88780000Y-78814255D03*
X88780000Y-81354255D03*
X88780000Y-83894255D03*
X88780000Y-86434255D03*
X88780000Y-88974255D03*
X88780000Y-91514255D03*
X88780000Y-94054255D03*
X104020000Y-94054255D03*
X104020000Y-91514255D03*
X104020000Y-88974255D03*
X104020000Y-86434255D03*
X104020000Y-83894255D03*
X104020000Y-81354255D03*
X104020000Y-78814255D03*
X104020000Y-76274255D03*
X104020000Y-73734255D03*
X104020000Y-71194255D03*
X104020000Y-68654255D03*
X104020000Y-66114255D03*
%TD*%
M02*
