M48
; DRILL file KiCad 10.0.5 date 2026-08-24T14:08:55
; FORMAT={-:-/ absolute / metric / decimal}
; #@! TF.CreationDate,2026-08-24T14:08:55-07:00
; #@! TF.GenerationSoftware,Kicad,Pcbnew,10.0.5
; #@! TF.FileFunction,Plated,1,2,PTH
FMAT,2
METRIC
; #@! TA.AperFunction,Plated,PTH,ComponentDrill
T1C0.200
; #@! TA.AperFunction,Plated,PTH,ViaDrill
T2C0.300
; #@! TA.AperFunction,Plated,PTH,ComponentDrill
T3C0.400
; #@! TA.AperFunction,Plated,PTH,ComponentDrill
T4C0.500
; #@! TA.AperFunction,Plated,PTH,ComponentDrill
T5C0.750
; #@! TA.AperFunction,Plated,PTH,ComponentDrill
T6C0.813
; #@! TA.AperFunction,Plated,PTH,ComponentDrill
T7C0.850
; #@! TA.AperFunction,Plated,PTH,ComponentDrill
T8C1.000
; #@! TA.AperFunction,Plated,PTH,ComponentDrill
T9C1.500
; #@! TA.AperFunction,Plated,PTH,ComponentDrill
T10C2.200
%
G90
G05
T1
X83.35Y-118.405
X83.35Y-122.105
X85.3Y-119.03
X85.3Y-120.255
X85.3Y-121.48
T2
X83.158Y-74.936
X83.168Y-80.845
X83.699Y-75.498
X83.975Y-82.624
X83.985Y-83.615
X84.041Y-101.493
X85.091Y-74.992
X86.075Y-70.95
X86.225Y-69.774
X86.675Y-71.824
X86.703Y-81.877
X86.711Y-81.124
X87.125Y-80.031
X87.135Y-80.659
X87.14Y-70.809
X87.29Y-117.95
X87.725Y-69.424
X88.025Y-87.749
X88.275Y-109.75
X88.325Y-75.0
X89.025Y-118.8
X90.325Y-100.05
X90.425Y-65.4
X90.775Y-125.65
X91.47Y-125.35
X93.675Y-127.975
X93.925Y-138.85
X94.285Y-134.93
X94.825Y-137.45
X96.311Y-136.903
X96.381Y-102.616
X96.404Y-101.987
X96.5Y-100.05
X97.725Y-139.65
X98.45Y-100.05
X98.825Y-96.527
X99.006Y-97.681
X99.575Y-100.05
X100.175Y-103.55
X102.142Y-72.38
X102.7Y-133.241
X102.907Y-77.445
X102.926Y-85.084
X102.934Y-80.012
X102.935Y-87.633
X102.941Y-95.259
X102.95Y-90.188
X102.977Y-92.755
X103.575Y-100.05
X103.8Y-134.675
X105.275Y-91.524
X106.3Y-90.977
X107.275Y-67.774
X107.275Y-71.2
X108.175Y-85.15
X108.3Y-92.604
X108.676Y-89.235
X109.225Y-143.05
X110.611Y-142.778
X110.725Y-81.1
X111.975Y-97.9
X113.25Y-137.55
X113.475Y-142.05
X113.541Y-81.83
X113.818Y-115.8
X113.875Y-140.35
X114.068Y-91.757
X114.88Y-100.96
X115.0Y-83.0
X115.3Y-78.45
X115.575Y-87.75
X115.966Y-126.609
X116.575Y-64.95
X116.725Y-68.05
X116.8Y-124.5
X116.854Y-127.186
X117.0Y-99.175
X117.668Y-66.073
X117.721Y-104.251
X117.729Y-85.176
X119.262Y-139.05
X124.069Y-125.253
X124.325Y-126.3
X124.406Y-104.248
X124.41Y-85.174
X124.458Y-66.079
X124.675Y-117.125
X125.027Y-84.138
X125.116Y-103.37
X125.125Y-66.92
X125.13Y-98.61
X125.225Y-83.0
X125.7Y-78.7
X126.025Y-101.75
X126.375Y-67.3
X128.075Y-72.8
X128.075Y-91.85
X128.075Y-110.95
X128.27Y-99.43
X128.925Y-136.6
X128.933Y-71.762
X129.1Y-76.3
X130.825Y-129.1
X130.925Y-76.573
X130.934Y-77.626
X131.84Y-112.01
X131.87Y-106.71
X132.0Y-75.9
X132.0Y-78.575
X132.0Y-81.7
X132.53Y-99.833
X132.535Y-77.081
X132.535Y-99.076
X132.535Y-103.868
X133.875Y-98.5
X134.1Y-80.2
X134.41Y-101.6
X134.8Y-94.625
X134.975Y-103.875
X135.3Y-118.5
X135.525Y-121.15
X135.675Y-99.45
X135.975Y-64.4
X136.0Y-76.8
X136.707Y-63.096
X136.715Y-101.251
X136.719Y-82.174
X136.975Y-96.625
X137.0Y-105.475
X138.775Y-78.75
X139.925Y-97.95
X140.45Y-113.2
X141.2Y-95.6
X141.89Y-76.22
X142.44Y-117.676
X142.475Y-84.05
X143.41Y-101.252
X143.413Y-82.181
X143.42Y-63.111
X143.425Y-65.6
X143.62Y-116.8
X143.85Y-105.225
X143.995Y-99.66
X144.075Y-101.75
X144.175Y-81.15
X144.275Y-118.75
X144.392Y-113.267
X144.467Y-63.03
X144.875Y-64.95
X145.5Y-110.468
X146.45Y-99.025
X146.825Y-121.35
X147.06Y-69.823
X147.064Y-88.853
X147.075Y-106.8
X147.276Y-111.865
X147.3Y-116.7
X147.939Y-114.989
X148.65Y-86.325
X149.9Y-104.373
X149.9Y-105.426
X149.95Y-63.03
X150.3Y-116.6
X150.375Y-112.85
X150.71Y-96.3
X151.0Y-107.3
X151.04Y-86.34
X151.1Y-64.2
X151.1Y-103.13
X151.23Y-73.29
X151.425Y-87.25
X151.599Y-70.463
X153.225Y-85.65
X153.83Y-74.27
X154.045Y-56.65
X154.275Y-70.7
X154.675Y-55.6
X155.075Y-87.25
X155.1Y-68.1
X155.425Y-75.6
X155.766Y-73.178
X155.769Y-92.246
X155.775Y-54.05
X161.125Y-88.95
X161.575Y-90.45
X161.805Y-56.55
X162.1Y-58.5
X162.1Y-77.5
X162.1Y-96.5
X162.425Y-54.8
X162.452Y-73.176
X162.455Y-92.246
X163.125Y-57.1
X163.375Y-74.2
X163.425Y-91.45
X163.525Y-70.5
X164.685Y-109.027
X164.775Y-88.2
X166.107Y-79.865
X166.111Y-59.725
X166.116Y-98.951
X167.575Y-66.15
X167.725Y-116.09
X168.125Y-60.5
X168.775Y-100.475
X168.875Y-113.75
X169.475Y-87.45
X170.611Y-93.85
X171.075Y-78.95
X171.51Y-114.67
X171.562Y-75.362
X173.175Y-73.775
X173.18Y-99.75
X173.5Y-83.7
X173.825Y-79.75
X175.025Y-97.65
X175.263Y-102.357
X176.05Y-78.2
X176.275Y-99.95
X176.606Y-83.333
X177.625Y-62.5
X177.825Y-66.25
X177.884Y-64.278
X178.775Y-115.9
X179.275Y-80.05
X179.5Y-78.0
X180.575Y-96.8
X181.6Y-78.0
X181.963Y-102.839
X182.275Y-85.75
X182.475Y-103.55
X183.267Y-83.799
X183.625Y-62.7
X183.675Y-68.02
X183.975Y-84.25
X184.375Y-100.55
X184.614Y-80.75
X184.694Y-64.73
X185.028Y-109.766
X185.215Y-117.575
X185.225Y-65.7
X186.352Y-90.708
X186.675Y-120.45
X187.075Y-85.45
X187.125Y-80.45
X187.696Y-71.71
X188.025Y-121.05
X188.475Y-100.65
X189.875Y-85.77
X190.463Y-101.38
X190.875Y-81.65
X191.975Y-118.25
X192.525Y-86.35
X193.425Y-112.5
X193.675Y-95.05
X193.698Y-116.06
X194.725Y-128.55
X195.275Y-99.2
X197.045Y-97.305
X197.175Y-114.15
X197.925Y-100.0
X199.675Y-81.25
X200.338Y-117.263
X200.357Y-78.526
X200.775Y-118.05
X200.8Y-91.4
X201.125Y-120.25
X202.521Y-124.406
X202.6Y-102.6
X202.7Y-111.23
X202.885Y-100.86
X202.9Y-93.6
X203.275Y-114.85
X203.642Y-98.475
X203.975Y-99.35
X206.125Y-109.95
X206.325Y-81.55
X206.475Y-96.15
X206.675Y-105.3
X207.875Y-81.8
X209.145Y-86.857
T3
X99.18Y-106.96
X102.58Y-106.96
X106.672Y-130.428
X108.372Y-133.372
X115.1Y-118.29
X115.3Y-80.1
X115.3Y-99.2
X118.5Y-118.29
X118.7Y-80.1
X118.7Y-99.2
X128.663Y-123.579
X129.543Y-126.863
X134.3Y-77.1
X135.297Y-96.197
X137.7Y-77.1
X138.697Y-96.197
X148.2Y-101.5
X148.2Y-104.9
X153.3Y-106.3
X153.379Y-87.185
X153.4Y-68.1
X156.7Y-106.3
X156.779Y-87.185
X156.8Y-68.1
X172.9Y-116.2
X173.37Y-97.186
X174.3Y-78.1
X176.292Y-116.437
X176.761Y-97.423
X177.692Y-78.337
X188.626Y-129.405
X191.952Y-110.71
X191.974Y-129.995
X195.252Y-91.91
X195.3Y-111.3
X198.6Y-92.5
T4
X152.292Y-113.398
X165.492Y-113.398
T5
X84.275Y-102.793
X84.275Y-104.793
T6
X88.78Y-66.114
X88.78Y-68.654
X88.78Y-71.194
X88.78Y-73.734
X88.78Y-76.274
X88.78Y-78.814
X88.78Y-81.354
X88.78Y-83.894
X88.78Y-86.434
X88.78Y-88.974
X88.78Y-91.514
X88.78Y-94.054
X90.079Y-67.31
X90.079Y-69.85
X90.079Y-72.39
X90.079Y-74.93
X90.079Y-77.47
X90.079Y-80.01
X90.079Y-82.55
X90.079Y-85.09
X90.079Y-87.63
X90.079Y-90.17
X90.079Y-92.71
X90.079Y-95.25
X104.02Y-66.114
X104.02Y-68.654
X104.02Y-71.194
X104.02Y-73.734
X104.02Y-76.274
X104.02Y-78.814
X104.02Y-81.354
X104.02Y-83.894
X104.02Y-86.434
X104.02Y-88.974
X104.02Y-91.514
X104.02Y-94.054
X105.319Y-67.31
X105.319Y-69.85
X105.319Y-72.39
X105.319Y-74.93
X105.319Y-77.47
X105.319Y-80.01
X105.319Y-82.55
X105.319Y-85.09
X105.319Y-87.63
X105.319Y-90.17
X105.319Y-92.71
X105.319Y-95.25
T7
X137.95Y-120.25
X140.49Y-120.25
X143.03Y-120.25
X145.57Y-120.25
X148.11Y-120.25
T8
X84.525Y-111.7
X84.525Y-115.3
X88.09Y-111.45
X88.09Y-113.95
X88.09Y-116.45
X92.629Y-98.455
X95.169Y-98.455
X97.709Y-98.455
X100.249Y-98.455
X102.59Y-111.45
X102.59Y-116.45
T10
X131.098Y-96.139
X150.148Y-77.089
X169.198Y-96.139
T8
X85.825Y-125.0G85X86.325Y-125.0
G05
X85.825Y-130.95G85X86.325Y-130.95
G05
X88.825Y-125.0G85X89.325Y-125.0
G05
X88.825Y-130.95G85X89.325Y-130.95
G05
X92.825Y-125.0G85X93.325Y-125.0
G05
X92.825Y-130.95G85X93.325Y-130.95
G05
X94.325Y-126.75G85X94.825Y-126.75
G05
X94.325Y-129.2G85X94.825Y-129.2
G05
T9
X94.94Y-108.35G85X96.24Y-108.35
G05
X94.94Y-119.55G85X96.24Y-119.55
G05
M30
