%TF.GenerationSoftware,KiCad,Pcbnew,10.0.5*%
%TF.CreationDate,2026-08-21T20:35:44-07:00*%
%TF.ProjectId,klaw_1,6b6c6177-5f31-42e6-9b69-6361645f7063,v1*%
%TF.SameCoordinates,Original*%
%TF.FileFunction,Legend,Bot*%
%TF.FilePolarity,Positive*%
%FSLAX46Y46*%
G04 Gerber Fmt 4.6, Leading zero omitted, Abs format (unit mm)*
G04 Created by KiCad (PCBNEW 10.0.5) date 2026-08-21 20:35:44*
%MOMM*%
%LPD*%
G01*
G04 APERTURE LIST*
%ADD10C,0.569975*%
%ADD11C,0.150000*%
%ADD12C,0.127000*%
%ADD13C,0.100000*%
%ADD14C,0.200000*%
%ADD15C,0.300000*%
%ADD16C,0.120000*%
%ADD17C,1.524000*%
G04 APERTURE END LIST*
D10*
X84433759Y-60618747D02*
G75*
G02*
X83863785Y-60618747I-284987J0D01*
G01*
X83863785Y-60618747D02*
G75*
G02*
X84433759Y-60618747I284987J0D01*
G01*
D11*
X84643747Y-71118747D02*
G75*
G02*
X83653797Y-71118747I-494975J0D01*
G01*
X83653797Y-71118747D02*
G75*
G02*
X84643747Y-71118747I494975J0D01*
G01*
X86314798Y-111518549D02*
X86314798Y-110933549D01*
X86608798Y-111225049D02*
X86023798Y-111225049D01*
X86618798Y-114850049D02*
X86033798Y-114850049D01*
X91372446Y-106682204D02*
X91372446Y-105613204D01*
X91895446Y-106164204D02*
X90826446Y-106164204D01*
X91908309Y-104743337D02*
X90839309Y-104743337D01*
D12*
X143042000Y-116438500D02*
X143042000Y-118995500D01*
D13*
X88039923Y-56853800D02*
X87582781Y-56853800D01*
X87297066Y-56853800D02*
X86839924Y-56853800D01*
X86268495Y-57082371D02*
X86554209Y-57082371D01*
X86554209Y-57082371D02*
X86554209Y-56482371D01*
X86068495Y-56768085D02*
X85868495Y-56768085D01*
X85782781Y-57082371D02*
X86068495Y-57082371D01*
X86068495Y-57082371D02*
X86068495Y-56482371D01*
X86068495Y-56482371D02*
X85782781Y-56482371D01*
X85525638Y-57082371D02*
X85525638Y-56482371D01*
X85525638Y-56482371D02*
X85382781Y-56482371D01*
X85382781Y-56482371D02*
X85297067Y-56510942D01*
X85297067Y-56510942D02*
X85239924Y-56568085D01*
X85239924Y-56568085D02*
X85211353Y-56625228D01*
X85211353Y-56625228D02*
X85182781Y-56739514D01*
X85182781Y-56739514D02*
X85182781Y-56825228D01*
X85182781Y-56825228D02*
X85211353Y-56939514D01*
X85211353Y-56939514D02*
X85239924Y-56996657D01*
X85239924Y-56996657D02*
X85297067Y-57053800D01*
X85297067Y-57053800D02*
X85382781Y-57082371D01*
X85382781Y-57082371D02*
X85525638Y-57082371D01*
X88039923Y-59393800D02*
X87582781Y-59393800D01*
X87297066Y-59393800D02*
X86839924Y-59393800D01*
X86639924Y-59022371D02*
X86297067Y-59022371D01*
X86468495Y-59622371D02*
X86468495Y-59022371D01*
X86154209Y-59022371D02*
X85754209Y-59622371D01*
X85754209Y-59022371D02*
X86154209Y-59622371D01*
X88039923Y-61933800D02*
X87582781Y-61933800D01*
X87297066Y-61933800D02*
X86839924Y-61933800D01*
X86239924Y-61590942D02*
X86297067Y-61562371D01*
X86297067Y-61562371D02*
X86382781Y-61562371D01*
X86382781Y-61562371D02*
X86468495Y-61590942D01*
X86468495Y-61590942D02*
X86525638Y-61648085D01*
X86525638Y-61648085D02*
X86554209Y-61705228D01*
X86554209Y-61705228D02*
X86582781Y-61819514D01*
X86582781Y-61819514D02*
X86582781Y-61905228D01*
X86582781Y-61905228D02*
X86554209Y-62019514D01*
X86554209Y-62019514D02*
X86525638Y-62076657D01*
X86525638Y-62076657D02*
X86468495Y-62133800D01*
X86468495Y-62133800D02*
X86382781Y-62162371D01*
X86382781Y-62162371D02*
X86325638Y-62162371D01*
X86325638Y-62162371D02*
X86239924Y-62133800D01*
X86239924Y-62133800D02*
X86211352Y-62105228D01*
X86211352Y-62105228D02*
X86211352Y-61905228D01*
X86211352Y-61905228D02*
X86325638Y-61905228D01*
X85954209Y-62162371D02*
X85954209Y-61562371D01*
X85954209Y-61562371D02*
X85611352Y-62162371D01*
X85611352Y-62162371D02*
X85611352Y-61562371D01*
X85325638Y-62162371D02*
X85325638Y-61562371D01*
X85325638Y-61562371D02*
X85182781Y-61562371D01*
X85182781Y-61562371D02*
X85097067Y-61590942D01*
X85097067Y-61590942D02*
X85039924Y-61648085D01*
X85039924Y-61648085D02*
X85011353Y-61705228D01*
X85011353Y-61705228D02*
X84982781Y-61819514D01*
X84982781Y-61819514D02*
X84982781Y-61905228D01*
X84982781Y-61905228D02*
X85011353Y-62019514D01*
X85011353Y-62019514D02*
X85039924Y-62076657D01*
X85039924Y-62076657D02*
X85097067Y-62133800D01*
X85097067Y-62133800D02*
X85182781Y-62162371D01*
X85182781Y-62162371D02*
X85325638Y-62162371D01*
X88039923Y-64473800D02*
X87582781Y-64473800D01*
X87297066Y-64473800D02*
X86839924Y-64473800D01*
X86239924Y-64130942D02*
X86297067Y-64102371D01*
X86297067Y-64102371D02*
X86382781Y-64102371D01*
X86382781Y-64102371D02*
X86468495Y-64130942D01*
X86468495Y-64130942D02*
X86525638Y-64188085D01*
X86525638Y-64188085D02*
X86554209Y-64245228D01*
X86554209Y-64245228D02*
X86582781Y-64359514D01*
X86582781Y-64359514D02*
X86582781Y-64445228D01*
X86582781Y-64445228D02*
X86554209Y-64559514D01*
X86554209Y-64559514D02*
X86525638Y-64616657D01*
X86525638Y-64616657D02*
X86468495Y-64673800D01*
X86468495Y-64673800D02*
X86382781Y-64702371D01*
X86382781Y-64702371D02*
X86325638Y-64702371D01*
X86325638Y-64702371D02*
X86239924Y-64673800D01*
X86239924Y-64673800D02*
X86211352Y-64645228D01*
X86211352Y-64645228D02*
X86211352Y-64445228D01*
X86211352Y-64445228D02*
X86325638Y-64445228D01*
X85954209Y-64702371D02*
X85954209Y-64102371D01*
X85954209Y-64102371D02*
X85611352Y-64702371D01*
X85611352Y-64702371D02*
X85611352Y-64102371D01*
X85325638Y-64702371D02*
X85325638Y-64102371D01*
X85325638Y-64102371D02*
X85182781Y-64102371D01*
X85182781Y-64102371D02*
X85097067Y-64130942D01*
X85097067Y-64130942D02*
X85039924Y-64188085D01*
X85039924Y-64188085D02*
X85011353Y-64245228D01*
X85011353Y-64245228D02*
X84982781Y-64359514D01*
X84982781Y-64359514D02*
X84982781Y-64445228D01*
X84982781Y-64445228D02*
X85011353Y-64559514D01*
X85011353Y-64559514D02*
X85039924Y-64616657D01*
X85039924Y-64616657D02*
X85097067Y-64673800D01*
X85097067Y-64673800D02*
X85182781Y-64702371D01*
X85182781Y-64702371D02*
X85325638Y-64702371D01*
X88039923Y-67013800D02*
X87582781Y-67013800D01*
X87297066Y-67013800D02*
X86839924Y-67013800D01*
X86582781Y-67213800D02*
X86497067Y-67242371D01*
X86497067Y-67242371D02*
X86354209Y-67242371D01*
X86354209Y-67242371D02*
X86297067Y-67213800D01*
X86297067Y-67213800D02*
X86268495Y-67185228D01*
X86268495Y-67185228D02*
X86239924Y-67128085D01*
X86239924Y-67128085D02*
X86239924Y-67070942D01*
X86239924Y-67070942D02*
X86268495Y-67013800D01*
X86268495Y-67013800D02*
X86297067Y-66985228D01*
X86297067Y-66985228D02*
X86354209Y-66956657D01*
X86354209Y-66956657D02*
X86468495Y-66928085D01*
X86468495Y-66928085D02*
X86525638Y-66899514D01*
X86525638Y-66899514D02*
X86554209Y-66870942D01*
X86554209Y-66870942D02*
X86582781Y-66813800D01*
X86582781Y-66813800D02*
X86582781Y-66756657D01*
X86582781Y-66756657D02*
X86554209Y-66699514D01*
X86554209Y-66699514D02*
X86525638Y-66670942D01*
X86525638Y-66670942D02*
X86468495Y-66642371D01*
X86468495Y-66642371D02*
X86325638Y-66642371D01*
X86325638Y-66642371D02*
X86239924Y-66670942D01*
X85982780Y-67242371D02*
X85982780Y-66642371D01*
X85982780Y-66642371D02*
X85839923Y-66642371D01*
X85839923Y-66642371D02*
X85754209Y-66670942D01*
X85754209Y-66670942D02*
X85697066Y-66728085D01*
X85697066Y-66728085D02*
X85668495Y-66785228D01*
X85668495Y-66785228D02*
X85639923Y-66899514D01*
X85639923Y-66899514D02*
X85639923Y-66985228D01*
X85639923Y-66985228D02*
X85668495Y-67099514D01*
X85668495Y-67099514D02*
X85697066Y-67156657D01*
X85697066Y-67156657D02*
X85754209Y-67213800D01*
X85754209Y-67213800D02*
X85839923Y-67242371D01*
X85839923Y-67242371D02*
X85982780Y-67242371D01*
X85411352Y-67070942D02*
X85125638Y-67070942D01*
X85468495Y-67242371D02*
X85268495Y-66642371D01*
X85268495Y-66642371D02*
X85068495Y-67242371D01*
X88039923Y-69553800D02*
X87582781Y-69553800D01*
X87297066Y-69553800D02*
X86839924Y-69553800D01*
X86582781Y-69753800D02*
X86497067Y-69782371D01*
X86497067Y-69782371D02*
X86354209Y-69782371D01*
X86354209Y-69782371D02*
X86297067Y-69753800D01*
X86297067Y-69753800D02*
X86268495Y-69725228D01*
X86268495Y-69725228D02*
X86239924Y-69668085D01*
X86239924Y-69668085D02*
X86239924Y-69610942D01*
X86239924Y-69610942D02*
X86268495Y-69553800D01*
X86268495Y-69553800D02*
X86297067Y-69525228D01*
X86297067Y-69525228D02*
X86354209Y-69496657D01*
X86354209Y-69496657D02*
X86468495Y-69468085D01*
X86468495Y-69468085D02*
X86525638Y-69439514D01*
X86525638Y-69439514D02*
X86554209Y-69410942D01*
X86554209Y-69410942D02*
X86582781Y-69353800D01*
X86582781Y-69353800D02*
X86582781Y-69296657D01*
X86582781Y-69296657D02*
X86554209Y-69239514D01*
X86554209Y-69239514D02*
X86525638Y-69210942D01*
X86525638Y-69210942D02*
X86468495Y-69182371D01*
X86468495Y-69182371D02*
X86325638Y-69182371D01*
X86325638Y-69182371D02*
X86239924Y-69210942D01*
X85639923Y-69725228D02*
X85668495Y-69753800D01*
X85668495Y-69753800D02*
X85754209Y-69782371D01*
X85754209Y-69782371D02*
X85811352Y-69782371D01*
X85811352Y-69782371D02*
X85897066Y-69753800D01*
X85897066Y-69753800D02*
X85954209Y-69696657D01*
X85954209Y-69696657D02*
X85982780Y-69639514D01*
X85982780Y-69639514D02*
X86011352Y-69525228D01*
X86011352Y-69525228D02*
X86011352Y-69439514D01*
X86011352Y-69439514D02*
X85982780Y-69325228D01*
X85982780Y-69325228D02*
X85954209Y-69268085D01*
X85954209Y-69268085D02*
X85897066Y-69210942D01*
X85897066Y-69210942D02*
X85811352Y-69182371D01*
X85811352Y-69182371D02*
X85754209Y-69182371D01*
X85754209Y-69182371D02*
X85668495Y-69210942D01*
X85668495Y-69210942D02*
X85639923Y-69239514D01*
X85097066Y-69782371D02*
X85382780Y-69782371D01*
X85382780Y-69782371D02*
X85382780Y-69182371D01*
X88039923Y-72093800D02*
X87582781Y-72093800D01*
X87297066Y-72093800D02*
X86839924Y-72093800D01*
X86211352Y-72322371D02*
X86411352Y-72036657D01*
X86554209Y-72322371D02*
X86554209Y-71722371D01*
X86554209Y-71722371D02*
X86325638Y-71722371D01*
X86325638Y-71722371D02*
X86268495Y-71750942D01*
X86268495Y-71750942D02*
X86239924Y-71779514D01*
X86239924Y-71779514D02*
X86211352Y-71836657D01*
X86211352Y-71836657D02*
X86211352Y-71922371D01*
X86211352Y-71922371D02*
X86239924Y-71979514D01*
X86239924Y-71979514D02*
X86268495Y-72008085D01*
X86268495Y-72008085D02*
X86325638Y-72036657D01*
X86325638Y-72036657D02*
X86554209Y-72036657D01*
X86011352Y-71722371D02*
X85611352Y-72322371D01*
X85611352Y-71722371D02*
X86011352Y-72322371D01*
X88039923Y-74633800D02*
X87582781Y-74633800D01*
X87297066Y-74633800D02*
X86839924Y-74633800D01*
X86211352Y-74862371D02*
X86411352Y-74576657D01*
X86554209Y-74862371D02*
X86554209Y-74262371D01*
X86554209Y-74262371D02*
X86325638Y-74262371D01*
X86325638Y-74262371D02*
X86268495Y-74290942D01*
X86268495Y-74290942D02*
X86239924Y-74319514D01*
X86239924Y-74319514D02*
X86211352Y-74376657D01*
X86211352Y-74376657D02*
X86211352Y-74462371D01*
X86211352Y-74462371D02*
X86239924Y-74519514D01*
X86239924Y-74519514D02*
X86268495Y-74548085D01*
X86268495Y-74548085D02*
X86325638Y-74576657D01*
X86325638Y-74576657D02*
X86554209Y-74576657D01*
X85839924Y-74262371D02*
X85725638Y-74262371D01*
X85725638Y-74262371D02*
X85668495Y-74290942D01*
X85668495Y-74290942D02*
X85611352Y-74348085D01*
X85611352Y-74348085D02*
X85582781Y-74462371D01*
X85582781Y-74462371D02*
X85582781Y-74662371D01*
X85582781Y-74662371D02*
X85611352Y-74776657D01*
X85611352Y-74776657D02*
X85668495Y-74833800D01*
X85668495Y-74833800D02*
X85725638Y-74862371D01*
X85725638Y-74862371D02*
X85839924Y-74862371D01*
X85839924Y-74862371D02*
X85897067Y-74833800D01*
X85897067Y-74833800D02*
X85954209Y-74776657D01*
X85954209Y-74776657D02*
X85982781Y-74662371D01*
X85982781Y-74662371D02*
X85982781Y-74462371D01*
X85982781Y-74462371D02*
X85954209Y-74348085D01*
X85954209Y-74348085D02*
X85897067Y-74290942D01*
X85897067Y-74290942D02*
X85839924Y-74262371D01*
X85382781Y-74262371D02*
X85239924Y-74862371D01*
X85239924Y-74862371D02*
X85125638Y-74433800D01*
X85125638Y-74433800D02*
X85011353Y-74862371D01*
X85011353Y-74862371D02*
X84868496Y-74262371D01*
X84525639Y-74262371D02*
X84468496Y-74262371D01*
X84468496Y-74262371D02*
X84411353Y-74290942D01*
X84411353Y-74290942D02*
X84382782Y-74319514D01*
X84382782Y-74319514D02*
X84354210Y-74376657D01*
X84354210Y-74376657D02*
X84325639Y-74490942D01*
X84325639Y-74490942D02*
X84325639Y-74633800D01*
X84325639Y-74633800D02*
X84354210Y-74748085D01*
X84354210Y-74748085D02*
X84382782Y-74805228D01*
X84382782Y-74805228D02*
X84411353Y-74833800D01*
X84411353Y-74833800D02*
X84468496Y-74862371D01*
X84468496Y-74862371D02*
X84525639Y-74862371D01*
X84525639Y-74862371D02*
X84582782Y-74833800D01*
X84582782Y-74833800D02*
X84611353Y-74805228D01*
X84611353Y-74805228D02*
X84639924Y-74748085D01*
X84639924Y-74748085D02*
X84668496Y-74633800D01*
X84668496Y-74633800D02*
X84668496Y-74490942D01*
X84668496Y-74490942D02*
X84639924Y-74376657D01*
X84639924Y-74376657D02*
X84611353Y-74319514D01*
X84611353Y-74319514D02*
X84582782Y-74290942D01*
X84582782Y-74290942D02*
X84525639Y-74262371D01*
X88039923Y-77173800D02*
X87582781Y-77173800D01*
X87297066Y-77173800D02*
X86839924Y-77173800D01*
X86211352Y-77402371D02*
X86411352Y-77116657D01*
X86554209Y-77402371D02*
X86554209Y-76802371D01*
X86554209Y-76802371D02*
X86325638Y-76802371D01*
X86325638Y-76802371D02*
X86268495Y-76830942D01*
X86268495Y-76830942D02*
X86239924Y-76859514D01*
X86239924Y-76859514D02*
X86211352Y-76916657D01*
X86211352Y-76916657D02*
X86211352Y-77002371D01*
X86211352Y-77002371D02*
X86239924Y-77059514D01*
X86239924Y-77059514D02*
X86268495Y-77088085D01*
X86268495Y-77088085D02*
X86325638Y-77116657D01*
X86325638Y-77116657D02*
X86554209Y-77116657D01*
X85839924Y-76802371D02*
X85725638Y-76802371D01*
X85725638Y-76802371D02*
X85668495Y-76830942D01*
X85668495Y-76830942D02*
X85611352Y-76888085D01*
X85611352Y-76888085D02*
X85582781Y-77002371D01*
X85582781Y-77002371D02*
X85582781Y-77202371D01*
X85582781Y-77202371D02*
X85611352Y-77316657D01*
X85611352Y-77316657D02*
X85668495Y-77373800D01*
X85668495Y-77373800D02*
X85725638Y-77402371D01*
X85725638Y-77402371D02*
X85839924Y-77402371D01*
X85839924Y-77402371D02*
X85897067Y-77373800D01*
X85897067Y-77373800D02*
X85954209Y-77316657D01*
X85954209Y-77316657D02*
X85982781Y-77202371D01*
X85982781Y-77202371D02*
X85982781Y-77002371D01*
X85982781Y-77002371D02*
X85954209Y-76888085D01*
X85954209Y-76888085D02*
X85897067Y-76830942D01*
X85897067Y-76830942D02*
X85839924Y-76802371D01*
X85382781Y-76802371D02*
X85239924Y-77402371D01*
X85239924Y-77402371D02*
X85125638Y-76973800D01*
X85125638Y-76973800D02*
X85011353Y-77402371D01*
X85011353Y-77402371D02*
X84868496Y-76802371D01*
X84325639Y-77402371D02*
X84668496Y-77402371D01*
X84497067Y-77402371D02*
X84497067Y-76802371D01*
X84497067Y-76802371D02*
X84554210Y-76888085D01*
X84554210Y-76888085D02*
X84611353Y-76945228D01*
X84611353Y-76945228D02*
X84668496Y-76973800D01*
X88039923Y-79713800D02*
X87582781Y-79713800D01*
X87297066Y-79713800D02*
X86839924Y-79713800D01*
X86211352Y-79942371D02*
X86411352Y-79656657D01*
X86554209Y-79942371D02*
X86554209Y-79342371D01*
X86554209Y-79342371D02*
X86325638Y-79342371D01*
X86325638Y-79342371D02*
X86268495Y-79370942D01*
X86268495Y-79370942D02*
X86239924Y-79399514D01*
X86239924Y-79399514D02*
X86211352Y-79456657D01*
X86211352Y-79456657D02*
X86211352Y-79542371D01*
X86211352Y-79542371D02*
X86239924Y-79599514D01*
X86239924Y-79599514D02*
X86268495Y-79628085D01*
X86268495Y-79628085D02*
X86325638Y-79656657D01*
X86325638Y-79656657D02*
X86554209Y-79656657D01*
X85839924Y-79342371D02*
X85725638Y-79342371D01*
X85725638Y-79342371D02*
X85668495Y-79370942D01*
X85668495Y-79370942D02*
X85611352Y-79428085D01*
X85611352Y-79428085D02*
X85582781Y-79542371D01*
X85582781Y-79542371D02*
X85582781Y-79742371D01*
X85582781Y-79742371D02*
X85611352Y-79856657D01*
X85611352Y-79856657D02*
X85668495Y-79913800D01*
X85668495Y-79913800D02*
X85725638Y-79942371D01*
X85725638Y-79942371D02*
X85839924Y-79942371D01*
X85839924Y-79942371D02*
X85897067Y-79913800D01*
X85897067Y-79913800D02*
X85954209Y-79856657D01*
X85954209Y-79856657D02*
X85982781Y-79742371D01*
X85982781Y-79742371D02*
X85982781Y-79542371D01*
X85982781Y-79542371D02*
X85954209Y-79428085D01*
X85954209Y-79428085D02*
X85897067Y-79370942D01*
X85897067Y-79370942D02*
X85839924Y-79342371D01*
X85382781Y-79342371D02*
X85239924Y-79942371D01*
X85239924Y-79942371D02*
X85125638Y-79513800D01*
X85125638Y-79513800D02*
X85011353Y-79942371D01*
X85011353Y-79942371D02*
X84868496Y-79342371D01*
X84668496Y-79399514D02*
X84639924Y-79370942D01*
X84639924Y-79370942D02*
X84582782Y-79342371D01*
X84582782Y-79342371D02*
X84439924Y-79342371D01*
X84439924Y-79342371D02*
X84382782Y-79370942D01*
X84382782Y-79370942D02*
X84354210Y-79399514D01*
X84354210Y-79399514D02*
X84325639Y-79456657D01*
X84325639Y-79456657D02*
X84325639Y-79513800D01*
X84325639Y-79513800D02*
X84354210Y-79599514D01*
X84354210Y-79599514D02*
X84697067Y-79942371D01*
X84697067Y-79942371D02*
X84325639Y-79942371D01*
X88039923Y-82253800D02*
X87582781Y-82253800D01*
X87297066Y-82253800D02*
X86839924Y-82253800D01*
X86211352Y-82482371D02*
X86411352Y-82196657D01*
X86554209Y-82482371D02*
X86554209Y-81882371D01*
X86554209Y-81882371D02*
X86325638Y-81882371D01*
X86325638Y-81882371D02*
X86268495Y-81910942D01*
X86268495Y-81910942D02*
X86239924Y-81939514D01*
X86239924Y-81939514D02*
X86211352Y-81996657D01*
X86211352Y-81996657D02*
X86211352Y-82082371D01*
X86211352Y-82082371D02*
X86239924Y-82139514D01*
X86239924Y-82139514D02*
X86268495Y-82168085D01*
X86268495Y-82168085D02*
X86325638Y-82196657D01*
X86325638Y-82196657D02*
X86554209Y-82196657D01*
X85839924Y-81882371D02*
X85725638Y-81882371D01*
X85725638Y-81882371D02*
X85668495Y-81910942D01*
X85668495Y-81910942D02*
X85611352Y-81968085D01*
X85611352Y-81968085D02*
X85582781Y-82082371D01*
X85582781Y-82082371D02*
X85582781Y-82282371D01*
X85582781Y-82282371D02*
X85611352Y-82396657D01*
X85611352Y-82396657D02*
X85668495Y-82453800D01*
X85668495Y-82453800D02*
X85725638Y-82482371D01*
X85725638Y-82482371D02*
X85839924Y-82482371D01*
X85839924Y-82482371D02*
X85897067Y-82453800D01*
X85897067Y-82453800D02*
X85954209Y-82396657D01*
X85954209Y-82396657D02*
X85982781Y-82282371D01*
X85982781Y-82282371D02*
X85982781Y-82082371D01*
X85982781Y-82082371D02*
X85954209Y-81968085D01*
X85954209Y-81968085D02*
X85897067Y-81910942D01*
X85897067Y-81910942D02*
X85839924Y-81882371D01*
X85382781Y-81882371D02*
X85239924Y-82482371D01*
X85239924Y-82482371D02*
X85125638Y-82053800D01*
X85125638Y-82053800D02*
X85011353Y-82482371D01*
X85011353Y-82482371D02*
X84868496Y-81882371D01*
X84697067Y-81882371D02*
X84325639Y-81882371D01*
X84325639Y-81882371D02*
X84525639Y-82110942D01*
X84525639Y-82110942D02*
X84439924Y-82110942D01*
X84439924Y-82110942D02*
X84382782Y-82139514D01*
X84382782Y-82139514D02*
X84354210Y-82168085D01*
X84354210Y-82168085D02*
X84325639Y-82225228D01*
X84325639Y-82225228D02*
X84325639Y-82368085D01*
X84325639Y-82368085D02*
X84354210Y-82425228D01*
X84354210Y-82425228D02*
X84382782Y-82453800D01*
X84382782Y-82453800D02*
X84439924Y-82482371D01*
X84439924Y-82482371D02*
X84611353Y-82482371D01*
X84611353Y-82482371D02*
X84668496Y-82453800D01*
X84668496Y-82453800D02*
X84697067Y-82425228D01*
X88039923Y-84793800D02*
X87582781Y-84793800D01*
X87297066Y-84793800D02*
X86839924Y-84793800D01*
X86582781Y-84850942D02*
X86297067Y-84850942D01*
X86639924Y-85022371D02*
X86439924Y-84422371D01*
X86439924Y-84422371D02*
X86239924Y-85022371D01*
X86039923Y-84422371D02*
X86039923Y-84908085D01*
X86039923Y-84908085D02*
X86011352Y-84965228D01*
X86011352Y-84965228D02*
X85982781Y-84993800D01*
X85982781Y-84993800D02*
X85925638Y-85022371D01*
X85925638Y-85022371D02*
X85811352Y-85022371D01*
X85811352Y-85022371D02*
X85754209Y-84993800D01*
X85754209Y-84993800D02*
X85725638Y-84965228D01*
X85725638Y-84965228D02*
X85697066Y-84908085D01*
X85697066Y-84908085D02*
X85697066Y-84422371D01*
X85411352Y-85022371D02*
X85411352Y-84422371D01*
X85411352Y-84422371D02*
X85268495Y-84422371D01*
X85268495Y-84422371D02*
X85182781Y-84450942D01*
X85182781Y-84450942D02*
X85125638Y-84508085D01*
X85125638Y-84508085D02*
X85097067Y-84565228D01*
X85097067Y-84565228D02*
X85068495Y-84679514D01*
X85068495Y-84679514D02*
X85068495Y-84765228D01*
X85068495Y-84765228D02*
X85097067Y-84879514D01*
X85097067Y-84879514D02*
X85125638Y-84936657D01*
X85125638Y-84936657D02*
X85182781Y-84993800D01*
X85182781Y-84993800D02*
X85268495Y-85022371D01*
X85268495Y-85022371D02*
X85411352Y-85022371D01*
X84811352Y-85022371D02*
X84811352Y-84422371D01*
X84411353Y-84422371D02*
X84297067Y-84422371D01*
X84297067Y-84422371D02*
X84239924Y-84450942D01*
X84239924Y-84450942D02*
X84182781Y-84508085D01*
X84182781Y-84508085D02*
X84154210Y-84622371D01*
X84154210Y-84622371D02*
X84154210Y-84822371D01*
X84154210Y-84822371D02*
X84182781Y-84936657D01*
X84182781Y-84936657D02*
X84239924Y-84993800D01*
X84239924Y-84993800D02*
X84297067Y-85022371D01*
X84297067Y-85022371D02*
X84411353Y-85022371D01*
X84411353Y-85022371D02*
X84468496Y-84993800D01*
X84468496Y-84993800D02*
X84525638Y-84936657D01*
X84525638Y-84936657D02*
X84554210Y-84822371D01*
X84554210Y-84822371D02*
X84554210Y-84622371D01*
X84554210Y-84622371D02*
X84525638Y-84508085D01*
X84525638Y-84508085D02*
X84468496Y-84450942D01*
X84468496Y-84450942D02*
X84411353Y-84422371D01*
X108528644Y-56778085D02*
X108442930Y-56806657D01*
X108442930Y-56806657D02*
X108414359Y-56835228D01*
X108414359Y-56835228D02*
X108385787Y-56892371D01*
X108385787Y-56892371D02*
X108385787Y-56978085D01*
X108385787Y-56978085D02*
X108414359Y-57035228D01*
X108414359Y-57035228D02*
X108442930Y-57063800D01*
X108442930Y-57063800D02*
X108500073Y-57092371D01*
X108500073Y-57092371D02*
X108728644Y-57092371D01*
X108728644Y-57092371D02*
X108728644Y-56492371D01*
X108728644Y-56492371D02*
X108528644Y-56492371D01*
X108528644Y-56492371D02*
X108471502Y-56520942D01*
X108471502Y-56520942D02*
X108442930Y-56549514D01*
X108442930Y-56549514D02*
X108414359Y-56606657D01*
X108414359Y-56606657D02*
X108414359Y-56663800D01*
X108414359Y-56663800D02*
X108442930Y-56720942D01*
X108442930Y-56720942D02*
X108471502Y-56749514D01*
X108471502Y-56749514D02*
X108528644Y-56778085D01*
X108528644Y-56778085D02*
X108728644Y-56778085D01*
X108157216Y-56920942D02*
X107871502Y-56920942D01*
X108214359Y-57092371D02*
X108014359Y-56492371D01*
X108014359Y-56492371D02*
X107814359Y-57092371D01*
X107700073Y-56492371D02*
X107357216Y-56492371D01*
X107528644Y-57092371D02*
X107528644Y-56492371D01*
X107242930Y-56492371D02*
X106900073Y-56492371D01*
X107071501Y-57092371D02*
X107071501Y-56492371D01*
X106700072Y-56863800D02*
X106242930Y-56863800D01*
X106471501Y-57092371D02*
X106471501Y-56635228D01*
X105957215Y-56863800D02*
X105500073Y-56863800D01*
X105214358Y-56863800D02*
X104757216Y-56863800D01*
X107471501Y-59060942D02*
X107528644Y-59032371D01*
X107528644Y-59032371D02*
X107614358Y-59032371D01*
X107614358Y-59032371D02*
X107700072Y-59060942D01*
X107700072Y-59060942D02*
X107757215Y-59118085D01*
X107757215Y-59118085D02*
X107785786Y-59175228D01*
X107785786Y-59175228D02*
X107814358Y-59289514D01*
X107814358Y-59289514D02*
X107814358Y-59375228D01*
X107814358Y-59375228D02*
X107785786Y-59489514D01*
X107785786Y-59489514D02*
X107757215Y-59546657D01*
X107757215Y-59546657D02*
X107700072Y-59603800D01*
X107700072Y-59603800D02*
X107614358Y-59632371D01*
X107614358Y-59632371D02*
X107557215Y-59632371D01*
X107557215Y-59632371D02*
X107471501Y-59603800D01*
X107471501Y-59603800D02*
X107442929Y-59575228D01*
X107442929Y-59575228D02*
X107442929Y-59375228D01*
X107442929Y-59375228D02*
X107557215Y-59375228D01*
X107185786Y-59632371D02*
X107185786Y-59032371D01*
X107185786Y-59032371D02*
X106842929Y-59632371D01*
X106842929Y-59632371D02*
X106842929Y-59032371D01*
X106557215Y-59632371D02*
X106557215Y-59032371D01*
X106557215Y-59032371D02*
X106414358Y-59032371D01*
X106414358Y-59032371D02*
X106328644Y-59060942D01*
X106328644Y-59060942D02*
X106271501Y-59118085D01*
X106271501Y-59118085D02*
X106242930Y-59175228D01*
X106242930Y-59175228D02*
X106214358Y-59289514D01*
X106214358Y-59289514D02*
X106214358Y-59375228D01*
X106214358Y-59375228D02*
X106242930Y-59489514D01*
X106242930Y-59489514D02*
X106271501Y-59546657D01*
X106271501Y-59546657D02*
X106328644Y-59603800D01*
X106328644Y-59603800D02*
X106414358Y-59632371D01*
X106414358Y-59632371D02*
X106557215Y-59632371D01*
X105957215Y-59403800D02*
X105500073Y-59403800D01*
X105214358Y-59403800D02*
X104757216Y-59403800D01*
X107242930Y-62172371D02*
X107442930Y-61886657D01*
X107585787Y-62172371D02*
X107585787Y-61572371D01*
X107585787Y-61572371D02*
X107357216Y-61572371D01*
X107357216Y-61572371D02*
X107300073Y-61600942D01*
X107300073Y-61600942D02*
X107271502Y-61629514D01*
X107271502Y-61629514D02*
X107242930Y-61686657D01*
X107242930Y-61686657D02*
X107242930Y-61772371D01*
X107242930Y-61772371D02*
X107271502Y-61829514D01*
X107271502Y-61829514D02*
X107300073Y-61858085D01*
X107300073Y-61858085D02*
X107357216Y-61886657D01*
X107357216Y-61886657D02*
X107585787Y-61886657D01*
X107014359Y-62143800D02*
X106928645Y-62172371D01*
X106928645Y-62172371D02*
X106785787Y-62172371D01*
X106785787Y-62172371D02*
X106728645Y-62143800D01*
X106728645Y-62143800D02*
X106700073Y-62115228D01*
X106700073Y-62115228D02*
X106671502Y-62058085D01*
X106671502Y-62058085D02*
X106671502Y-62000942D01*
X106671502Y-62000942D02*
X106700073Y-61943800D01*
X106700073Y-61943800D02*
X106728645Y-61915228D01*
X106728645Y-61915228D02*
X106785787Y-61886657D01*
X106785787Y-61886657D02*
X106900073Y-61858085D01*
X106900073Y-61858085D02*
X106957216Y-61829514D01*
X106957216Y-61829514D02*
X106985787Y-61800942D01*
X106985787Y-61800942D02*
X107014359Y-61743800D01*
X107014359Y-61743800D02*
X107014359Y-61686657D01*
X107014359Y-61686657D02*
X106985787Y-61629514D01*
X106985787Y-61629514D02*
X106957216Y-61600942D01*
X106957216Y-61600942D02*
X106900073Y-61572371D01*
X106900073Y-61572371D02*
X106757216Y-61572371D01*
X106757216Y-61572371D02*
X106671502Y-61600942D01*
X106500073Y-61572371D02*
X106157216Y-61572371D01*
X106328644Y-62172371D02*
X106328644Y-61572371D01*
X105957215Y-61943800D02*
X105500073Y-61943800D01*
X105214358Y-61943800D02*
X104757216Y-61943800D01*
X107757216Y-64112371D02*
X107557216Y-64712371D01*
X107557216Y-64712371D02*
X107357216Y-64112371D01*
X106814358Y-64655228D02*
X106842930Y-64683800D01*
X106842930Y-64683800D02*
X106928644Y-64712371D01*
X106928644Y-64712371D02*
X106985787Y-64712371D01*
X106985787Y-64712371D02*
X107071501Y-64683800D01*
X107071501Y-64683800D02*
X107128644Y-64626657D01*
X107128644Y-64626657D02*
X107157215Y-64569514D01*
X107157215Y-64569514D02*
X107185787Y-64455228D01*
X107185787Y-64455228D02*
X107185787Y-64369514D01*
X107185787Y-64369514D02*
X107157215Y-64255228D01*
X107157215Y-64255228D02*
X107128644Y-64198085D01*
X107128644Y-64198085D02*
X107071501Y-64140942D01*
X107071501Y-64140942D02*
X106985787Y-64112371D01*
X106985787Y-64112371D02*
X106928644Y-64112371D01*
X106928644Y-64112371D02*
X106842930Y-64140942D01*
X106842930Y-64140942D02*
X106814358Y-64169514D01*
X106214358Y-64655228D02*
X106242930Y-64683800D01*
X106242930Y-64683800D02*
X106328644Y-64712371D01*
X106328644Y-64712371D02*
X106385787Y-64712371D01*
X106385787Y-64712371D02*
X106471501Y-64683800D01*
X106471501Y-64683800D02*
X106528644Y-64626657D01*
X106528644Y-64626657D02*
X106557215Y-64569514D01*
X106557215Y-64569514D02*
X106585787Y-64455228D01*
X106585787Y-64455228D02*
X106585787Y-64369514D01*
X106585787Y-64369514D02*
X106557215Y-64255228D01*
X106557215Y-64255228D02*
X106528644Y-64198085D01*
X106528644Y-64198085D02*
X106471501Y-64140942D01*
X106471501Y-64140942D02*
X106385787Y-64112371D01*
X106385787Y-64112371D02*
X106328644Y-64112371D01*
X106328644Y-64112371D02*
X106242930Y-64140942D01*
X106242930Y-64140942D02*
X106214358Y-64169514D01*
X105957215Y-64483800D02*
X105500073Y-64483800D01*
X105214358Y-64483800D02*
X104757216Y-64483800D01*
X108700072Y-66938085D02*
X108500072Y-66938085D01*
X108414358Y-67252371D02*
X108700072Y-67252371D01*
X108700072Y-67252371D02*
X108700072Y-66652371D01*
X108700072Y-66652371D02*
X108414358Y-66652371D01*
X108157215Y-67252371D02*
X108157215Y-66652371D01*
X108157215Y-66652371D02*
X107814358Y-67252371D01*
X107814358Y-67252371D02*
X107814358Y-66652371D01*
X107185787Y-67195228D02*
X107214359Y-67223800D01*
X107214359Y-67223800D02*
X107300073Y-67252371D01*
X107300073Y-67252371D02*
X107357216Y-67252371D01*
X107357216Y-67252371D02*
X107442930Y-67223800D01*
X107442930Y-67223800D02*
X107500073Y-67166657D01*
X107500073Y-67166657D02*
X107528644Y-67109514D01*
X107528644Y-67109514D02*
X107557216Y-66995228D01*
X107557216Y-66995228D02*
X107557216Y-66909514D01*
X107557216Y-66909514D02*
X107528644Y-66795228D01*
X107528644Y-66795228D02*
X107500073Y-66738085D01*
X107500073Y-66738085D02*
X107442930Y-66680942D01*
X107442930Y-66680942D02*
X107357216Y-66652371D01*
X107357216Y-66652371D02*
X107300073Y-66652371D01*
X107300073Y-66652371D02*
X107214359Y-66680942D01*
X107214359Y-66680942D02*
X107185787Y-66709514D01*
X106500073Y-67080942D02*
X106214359Y-67080942D01*
X106557216Y-67252371D02*
X106357216Y-66652371D01*
X106357216Y-66652371D02*
X106157216Y-67252371D01*
X105957215Y-67023800D02*
X105500073Y-67023800D01*
X105214358Y-67023800D02*
X104757216Y-67023800D01*
X108785786Y-69478085D02*
X108585786Y-69478085D01*
X108500072Y-69792371D02*
X108785786Y-69792371D01*
X108785786Y-69792371D02*
X108785786Y-69192371D01*
X108785786Y-69192371D02*
X108500072Y-69192371D01*
X108242929Y-69792371D02*
X108242929Y-69192371D01*
X108242929Y-69192371D02*
X107900072Y-69792371D01*
X107900072Y-69792371D02*
X107900072Y-69192371D01*
X107271501Y-69735228D02*
X107300073Y-69763800D01*
X107300073Y-69763800D02*
X107385787Y-69792371D01*
X107385787Y-69792371D02*
X107442930Y-69792371D01*
X107442930Y-69792371D02*
X107528644Y-69763800D01*
X107528644Y-69763800D02*
X107585787Y-69706657D01*
X107585787Y-69706657D02*
X107614358Y-69649514D01*
X107614358Y-69649514D02*
X107642930Y-69535228D01*
X107642930Y-69535228D02*
X107642930Y-69449514D01*
X107642930Y-69449514D02*
X107614358Y-69335228D01*
X107614358Y-69335228D02*
X107585787Y-69278085D01*
X107585787Y-69278085D02*
X107528644Y-69220942D01*
X107528644Y-69220942D02*
X107442930Y-69192371D01*
X107442930Y-69192371D02*
X107385787Y-69192371D01*
X107385787Y-69192371D02*
X107300073Y-69220942D01*
X107300073Y-69220942D02*
X107271501Y-69249514D01*
X106357215Y-69478085D02*
X106271501Y-69506657D01*
X106271501Y-69506657D02*
X106242930Y-69535228D01*
X106242930Y-69535228D02*
X106214358Y-69592371D01*
X106214358Y-69592371D02*
X106214358Y-69678085D01*
X106214358Y-69678085D02*
X106242930Y-69735228D01*
X106242930Y-69735228D02*
X106271501Y-69763800D01*
X106271501Y-69763800D02*
X106328644Y-69792371D01*
X106328644Y-69792371D02*
X106557215Y-69792371D01*
X106557215Y-69792371D02*
X106557215Y-69192371D01*
X106557215Y-69192371D02*
X106357215Y-69192371D01*
X106357215Y-69192371D02*
X106300073Y-69220942D01*
X106300073Y-69220942D02*
X106271501Y-69249514D01*
X106271501Y-69249514D02*
X106242930Y-69306657D01*
X106242930Y-69306657D02*
X106242930Y-69363800D01*
X106242930Y-69363800D02*
X106271501Y-69420942D01*
X106271501Y-69420942D02*
X106300073Y-69449514D01*
X106300073Y-69449514D02*
X106357215Y-69478085D01*
X106357215Y-69478085D02*
X106557215Y-69478085D01*
X105957215Y-69563800D02*
X105500073Y-69563800D01*
X105214358Y-69563800D02*
X104757216Y-69563800D01*
X107900072Y-72275228D02*
X107928644Y-72303800D01*
X107928644Y-72303800D02*
X108014358Y-72332371D01*
X108014358Y-72332371D02*
X108071501Y-72332371D01*
X108071501Y-72332371D02*
X108157215Y-72303800D01*
X108157215Y-72303800D02*
X108214358Y-72246657D01*
X108214358Y-72246657D02*
X108242929Y-72189514D01*
X108242929Y-72189514D02*
X108271501Y-72075228D01*
X108271501Y-72075228D02*
X108271501Y-71989514D01*
X108271501Y-71989514D02*
X108242929Y-71875228D01*
X108242929Y-71875228D02*
X108214358Y-71818085D01*
X108214358Y-71818085D02*
X108157215Y-71760942D01*
X108157215Y-71760942D02*
X108071501Y-71732371D01*
X108071501Y-71732371D02*
X108014358Y-71732371D01*
X108014358Y-71732371D02*
X107928644Y-71760942D01*
X107928644Y-71760942D02*
X107900072Y-71789514D01*
X107528644Y-71732371D02*
X107414358Y-71732371D01*
X107414358Y-71732371D02*
X107357215Y-71760942D01*
X107357215Y-71760942D02*
X107300072Y-71818085D01*
X107300072Y-71818085D02*
X107271501Y-71932371D01*
X107271501Y-71932371D02*
X107271501Y-72132371D01*
X107271501Y-72132371D02*
X107300072Y-72246657D01*
X107300072Y-72246657D02*
X107357215Y-72303800D01*
X107357215Y-72303800D02*
X107414358Y-72332371D01*
X107414358Y-72332371D02*
X107528644Y-72332371D01*
X107528644Y-72332371D02*
X107585787Y-72303800D01*
X107585787Y-72303800D02*
X107642929Y-72246657D01*
X107642929Y-72246657D02*
X107671501Y-72132371D01*
X107671501Y-72132371D02*
X107671501Y-71932371D01*
X107671501Y-71932371D02*
X107642929Y-71818085D01*
X107642929Y-71818085D02*
X107585787Y-71760942D01*
X107585787Y-71760942D02*
X107528644Y-71732371D01*
X106728644Y-72332371D02*
X107014358Y-72332371D01*
X107014358Y-72332371D02*
X107014358Y-71732371D01*
X106414359Y-71732371D02*
X106357216Y-71732371D01*
X106357216Y-71732371D02*
X106300073Y-71760942D01*
X106300073Y-71760942D02*
X106271502Y-71789514D01*
X106271502Y-71789514D02*
X106242930Y-71846657D01*
X106242930Y-71846657D02*
X106214359Y-71960942D01*
X106214359Y-71960942D02*
X106214359Y-72103800D01*
X106214359Y-72103800D02*
X106242930Y-72218085D01*
X106242930Y-72218085D02*
X106271502Y-72275228D01*
X106271502Y-72275228D02*
X106300073Y-72303800D01*
X106300073Y-72303800D02*
X106357216Y-72332371D01*
X106357216Y-72332371D02*
X106414359Y-72332371D01*
X106414359Y-72332371D02*
X106471502Y-72303800D01*
X106471502Y-72303800D02*
X106500073Y-72275228D01*
X106500073Y-72275228D02*
X106528644Y-72218085D01*
X106528644Y-72218085D02*
X106557216Y-72103800D01*
X106557216Y-72103800D02*
X106557216Y-71960942D01*
X106557216Y-71960942D02*
X106528644Y-71846657D01*
X106528644Y-71846657D02*
X106500073Y-71789514D01*
X106500073Y-71789514D02*
X106471502Y-71760942D01*
X106471502Y-71760942D02*
X106414359Y-71732371D01*
X105957215Y-72103800D02*
X105500073Y-72103800D01*
X105214358Y-72103800D02*
X104757216Y-72103800D01*
X107900072Y-77355228D02*
X107928644Y-77383800D01*
X107928644Y-77383800D02*
X108014358Y-77412371D01*
X108014358Y-77412371D02*
X108071501Y-77412371D01*
X108071501Y-77412371D02*
X108157215Y-77383800D01*
X108157215Y-77383800D02*
X108214358Y-77326657D01*
X108214358Y-77326657D02*
X108242929Y-77269514D01*
X108242929Y-77269514D02*
X108271501Y-77155228D01*
X108271501Y-77155228D02*
X108271501Y-77069514D01*
X108271501Y-77069514D02*
X108242929Y-76955228D01*
X108242929Y-76955228D02*
X108214358Y-76898085D01*
X108214358Y-76898085D02*
X108157215Y-76840942D01*
X108157215Y-76840942D02*
X108071501Y-76812371D01*
X108071501Y-76812371D02*
X108014358Y-76812371D01*
X108014358Y-76812371D02*
X107928644Y-76840942D01*
X107928644Y-76840942D02*
X107900072Y-76869514D01*
X107528644Y-76812371D02*
X107414358Y-76812371D01*
X107414358Y-76812371D02*
X107357215Y-76840942D01*
X107357215Y-76840942D02*
X107300072Y-76898085D01*
X107300072Y-76898085D02*
X107271501Y-77012371D01*
X107271501Y-77012371D02*
X107271501Y-77212371D01*
X107271501Y-77212371D02*
X107300072Y-77326657D01*
X107300072Y-77326657D02*
X107357215Y-77383800D01*
X107357215Y-77383800D02*
X107414358Y-77412371D01*
X107414358Y-77412371D02*
X107528644Y-77412371D01*
X107528644Y-77412371D02*
X107585787Y-77383800D01*
X107585787Y-77383800D02*
X107642929Y-77326657D01*
X107642929Y-77326657D02*
X107671501Y-77212371D01*
X107671501Y-77212371D02*
X107671501Y-77012371D01*
X107671501Y-77012371D02*
X107642929Y-76898085D01*
X107642929Y-76898085D02*
X107585787Y-76840942D01*
X107585787Y-76840942D02*
X107528644Y-76812371D01*
X106728644Y-77412371D02*
X107014358Y-77412371D01*
X107014358Y-77412371D02*
X107014358Y-76812371D01*
X106557216Y-76869514D02*
X106528644Y-76840942D01*
X106528644Y-76840942D02*
X106471502Y-76812371D01*
X106471502Y-76812371D02*
X106328644Y-76812371D01*
X106328644Y-76812371D02*
X106271502Y-76840942D01*
X106271502Y-76840942D02*
X106242930Y-76869514D01*
X106242930Y-76869514D02*
X106214359Y-76926657D01*
X106214359Y-76926657D02*
X106214359Y-76983800D01*
X106214359Y-76983800D02*
X106242930Y-77069514D01*
X106242930Y-77069514D02*
X106585787Y-77412371D01*
X106585787Y-77412371D02*
X106214359Y-77412371D01*
X105957215Y-77183800D02*
X105500073Y-77183800D01*
X105214358Y-77183800D02*
X104757216Y-77183800D01*
X107900072Y-79895228D02*
X107928644Y-79923800D01*
X107928644Y-79923800D02*
X108014358Y-79952371D01*
X108014358Y-79952371D02*
X108071501Y-79952371D01*
X108071501Y-79952371D02*
X108157215Y-79923800D01*
X108157215Y-79923800D02*
X108214358Y-79866657D01*
X108214358Y-79866657D02*
X108242929Y-79809514D01*
X108242929Y-79809514D02*
X108271501Y-79695228D01*
X108271501Y-79695228D02*
X108271501Y-79609514D01*
X108271501Y-79609514D02*
X108242929Y-79495228D01*
X108242929Y-79495228D02*
X108214358Y-79438085D01*
X108214358Y-79438085D02*
X108157215Y-79380942D01*
X108157215Y-79380942D02*
X108071501Y-79352371D01*
X108071501Y-79352371D02*
X108014358Y-79352371D01*
X108014358Y-79352371D02*
X107928644Y-79380942D01*
X107928644Y-79380942D02*
X107900072Y-79409514D01*
X107528644Y-79352371D02*
X107414358Y-79352371D01*
X107414358Y-79352371D02*
X107357215Y-79380942D01*
X107357215Y-79380942D02*
X107300072Y-79438085D01*
X107300072Y-79438085D02*
X107271501Y-79552371D01*
X107271501Y-79552371D02*
X107271501Y-79752371D01*
X107271501Y-79752371D02*
X107300072Y-79866657D01*
X107300072Y-79866657D02*
X107357215Y-79923800D01*
X107357215Y-79923800D02*
X107414358Y-79952371D01*
X107414358Y-79952371D02*
X107528644Y-79952371D01*
X107528644Y-79952371D02*
X107585787Y-79923800D01*
X107585787Y-79923800D02*
X107642929Y-79866657D01*
X107642929Y-79866657D02*
X107671501Y-79752371D01*
X107671501Y-79752371D02*
X107671501Y-79552371D01*
X107671501Y-79552371D02*
X107642929Y-79438085D01*
X107642929Y-79438085D02*
X107585787Y-79380942D01*
X107585787Y-79380942D02*
X107528644Y-79352371D01*
X106728644Y-79952371D02*
X107014358Y-79952371D01*
X107014358Y-79952371D02*
X107014358Y-79352371D01*
X106585787Y-79352371D02*
X106214359Y-79352371D01*
X106214359Y-79352371D02*
X106414359Y-79580942D01*
X106414359Y-79580942D02*
X106328644Y-79580942D01*
X106328644Y-79580942D02*
X106271502Y-79609514D01*
X106271502Y-79609514D02*
X106242930Y-79638085D01*
X106242930Y-79638085D02*
X106214359Y-79695228D01*
X106214359Y-79695228D02*
X106214359Y-79838085D01*
X106214359Y-79838085D02*
X106242930Y-79895228D01*
X106242930Y-79895228D02*
X106271502Y-79923800D01*
X106271502Y-79923800D02*
X106328644Y-79952371D01*
X106328644Y-79952371D02*
X106500073Y-79952371D01*
X106500073Y-79952371D02*
X106557216Y-79923800D01*
X106557216Y-79923800D02*
X106585787Y-79895228D01*
X105957215Y-79723800D02*
X105500073Y-79723800D01*
X105214358Y-79723800D02*
X104757216Y-79723800D01*
X107900072Y-82435228D02*
X107928644Y-82463800D01*
X107928644Y-82463800D02*
X108014358Y-82492371D01*
X108014358Y-82492371D02*
X108071501Y-82492371D01*
X108071501Y-82492371D02*
X108157215Y-82463800D01*
X108157215Y-82463800D02*
X108214358Y-82406657D01*
X108214358Y-82406657D02*
X108242929Y-82349514D01*
X108242929Y-82349514D02*
X108271501Y-82235228D01*
X108271501Y-82235228D02*
X108271501Y-82149514D01*
X108271501Y-82149514D02*
X108242929Y-82035228D01*
X108242929Y-82035228D02*
X108214358Y-81978085D01*
X108214358Y-81978085D02*
X108157215Y-81920942D01*
X108157215Y-81920942D02*
X108071501Y-81892371D01*
X108071501Y-81892371D02*
X108014358Y-81892371D01*
X108014358Y-81892371D02*
X107928644Y-81920942D01*
X107928644Y-81920942D02*
X107900072Y-81949514D01*
X107528644Y-81892371D02*
X107414358Y-81892371D01*
X107414358Y-81892371D02*
X107357215Y-81920942D01*
X107357215Y-81920942D02*
X107300072Y-81978085D01*
X107300072Y-81978085D02*
X107271501Y-82092371D01*
X107271501Y-82092371D02*
X107271501Y-82292371D01*
X107271501Y-82292371D02*
X107300072Y-82406657D01*
X107300072Y-82406657D02*
X107357215Y-82463800D01*
X107357215Y-82463800D02*
X107414358Y-82492371D01*
X107414358Y-82492371D02*
X107528644Y-82492371D01*
X107528644Y-82492371D02*
X107585787Y-82463800D01*
X107585787Y-82463800D02*
X107642929Y-82406657D01*
X107642929Y-82406657D02*
X107671501Y-82292371D01*
X107671501Y-82292371D02*
X107671501Y-82092371D01*
X107671501Y-82092371D02*
X107642929Y-81978085D01*
X107642929Y-81978085D02*
X107585787Y-81920942D01*
X107585787Y-81920942D02*
X107528644Y-81892371D01*
X106728644Y-82492371D02*
X107014358Y-82492371D01*
X107014358Y-82492371D02*
X107014358Y-81892371D01*
X106271502Y-82092371D02*
X106271502Y-82492371D01*
X106414359Y-81863800D02*
X106557216Y-82292371D01*
X106557216Y-82292371D02*
X106185787Y-82292371D01*
X105957215Y-82263800D02*
X105500073Y-82263800D01*
X105214358Y-82263800D02*
X104757216Y-82263800D01*
X107900072Y-84975228D02*
X107928644Y-85003800D01*
X107928644Y-85003800D02*
X108014358Y-85032371D01*
X108014358Y-85032371D02*
X108071501Y-85032371D01*
X108071501Y-85032371D02*
X108157215Y-85003800D01*
X108157215Y-85003800D02*
X108214358Y-84946657D01*
X108214358Y-84946657D02*
X108242929Y-84889514D01*
X108242929Y-84889514D02*
X108271501Y-84775228D01*
X108271501Y-84775228D02*
X108271501Y-84689514D01*
X108271501Y-84689514D02*
X108242929Y-84575228D01*
X108242929Y-84575228D02*
X108214358Y-84518085D01*
X108214358Y-84518085D02*
X108157215Y-84460942D01*
X108157215Y-84460942D02*
X108071501Y-84432371D01*
X108071501Y-84432371D02*
X108014358Y-84432371D01*
X108014358Y-84432371D02*
X107928644Y-84460942D01*
X107928644Y-84460942D02*
X107900072Y-84489514D01*
X107528644Y-84432371D02*
X107414358Y-84432371D01*
X107414358Y-84432371D02*
X107357215Y-84460942D01*
X107357215Y-84460942D02*
X107300072Y-84518085D01*
X107300072Y-84518085D02*
X107271501Y-84632371D01*
X107271501Y-84632371D02*
X107271501Y-84832371D01*
X107271501Y-84832371D02*
X107300072Y-84946657D01*
X107300072Y-84946657D02*
X107357215Y-85003800D01*
X107357215Y-85003800D02*
X107414358Y-85032371D01*
X107414358Y-85032371D02*
X107528644Y-85032371D01*
X107528644Y-85032371D02*
X107585787Y-85003800D01*
X107585787Y-85003800D02*
X107642929Y-84946657D01*
X107642929Y-84946657D02*
X107671501Y-84832371D01*
X107671501Y-84832371D02*
X107671501Y-84632371D01*
X107671501Y-84632371D02*
X107642929Y-84518085D01*
X107642929Y-84518085D02*
X107585787Y-84460942D01*
X107585787Y-84460942D02*
X107528644Y-84432371D01*
X106728644Y-85032371D02*
X107014358Y-85032371D01*
X107014358Y-85032371D02*
X107014358Y-84432371D01*
X106242930Y-84432371D02*
X106528644Y-84432371D01*
X106528644Y-84432371D02*
X106557216Y-84718085D01*
X106557216Y-84718085D02*
X106528644Y-84689514D01*
X106528644Y-84689514D02*
X106471502Y-84660942D01*
X106471502Y-84660942D02*
X106328644Y-84660942D01*
X106328644Y-84660942D02*
X106271502Y-84689514D01*
X106271502Y-84689514D02*
X106242930Y-84718085D01*
X106242930Y-84718085D02*
X106214359Y-84775228D01*
X106214359Y-84775228D02*
X106214359Y-84918085D01*
X106214359Y-84918085D02*
X106242930Y-84975228D01*
X106242930Y-84975228D02*
X106271502Y-85003800D01*
X106271502Y-85003800D02*
X106328644Y-85032371D01*
X106328644Y-85032371D02*
X106471502Y-85032371D01*
X106471502Y-85032371D02*
X106528644Y-85003800D01*
X106528644Y-85003800D02*
X106557216Y-84975228D01*
X105957215Y-84803800D02*
X105500073Y-84803800D01*
X105214358Y-84803800D02*
X104757216Y-84803800D01*
X107905072Y-74815228D02*
X107933644Y-74843800D01*
X107933644Y-74843800D02*
X108019358Y-74872371D01*
X108019358Y-74872371D02*
X108076501Y-74872371D01*
X108076501Y-74872371D02*
X108162215Y-74843800D01*
X108162215Y-74843800D02*
X108219358Y-74786657D01*
X108219358Y-74786657D02*
X108247929Y-74729514D01*
X108247929Y-74729514D02*
X108276501Y-74615228D01*
X108276501Y-74615228D02*
X108276501Y-74529514D01*
X108276501Y-74529514D02*
X108247929Y-74415228D01*
X108247929Y-74415228D02*
X108219358Y-74358085D01*
X108219358Y-74358085D02*
X108162215Y-74300942D01*
X108162215Y-74300942D02*
X108076501Y-74272371D01*
X108076501Y-74272371D02*
X108019358Y-74272371D01*
X108019358Y-74272371D02*
X107933644Y-74300942D01*
X107933644Y-74300942D02*
X107905072Y-74329514D01*
X107533644Y-74272371D02*
X107419358Y-74272371D01*
X107419358Y-74272371D02*
X107362215Y-74300942D01*
X107362215Y-74300942D02*
X107305072Y-74358085D01*
X107305072Y-74358085D02*
X107276501Y-74472371D01*
X107276501Y-74472371D02*
X107276501Y-74672371D01*
X107276501Y-74672371D02*
X107305072Y-74786657D01*
X107305072Y-74786657D02*
X107362215Y-74843800D01*
X107362215Y-74843800D02*
X107419358Y-74872371D01*
X107419358Y-74872371D02*
X107533644Y-74872371D01*
X107533644Y-74872371D02*
X107590787Y-74843800D01*
X107590787Y-74843800D02*
X107647929Y-74786657D01*
X107647929Y-74786657D02*
X107676501Y-74672371D01*
X107676501Y-74672371D02*
X107676501Y-74472371D01*
X107676501Y-74472371D02*
X107647929Y-74358085D01*
X107647929Y-74358085D02*
X107590787Y-74300942D01*
X107590787Y-74300942D02*
X107533644Y-74272371D01*
X106733644Y-74872371D02*
X107019358Y-74872371D01*
X107019358Y-74872371D02*
X107019358Y-74272371D01*
X106219359Y-74872371D02*
X106562216Y-74872371D01*
X106390787Y-74872371D02*
X106390787Y-74272371D01*
X106390787Y-74272371D02*
X106447930Y-74358085D01*
X106447930Y-74358085D02*
X106505073Y-74415228D01*
X106505073Y-74415228D02*
X106562216Y-74443800D01*
X105962215Y-74643800D02*
X105505073Y-74643800D01*
X105219358Y-74643800D02*
X104762216Y-74643800D01*
D11*
X93333458Y-105005485D02*
X93247744Y-105034057D01*
X93247744Y-105034057D02*
X93219173Y-105062628D01*
X93219173Y-105062628D02*
X93190601Y-105119771D01*
X93190601Y-105119771D02*
X93190601Y-105205485D01*
X93190601Y-105205485D02*
X93219173Y-105262628D01*
X93219173Y-105262628D02*
X93247744Y-105291200D01*
X93247744Y-105291200D02*
X93304887Y-105319771D01*
X93304887Y-105319771D02*
X93533458Y-105319771D01*
X93533458Y-105319771D02*
X93533458Y-104719771D01*
X93533458Y-104719771D02*
X93333458Y-104719771D01*
X93333458Y-104719771D02*
X93276316Y-104748342D01*
X93276316Y-104748342D02*
X93247744Y-104776914D01*
X93247744Y-104776914D02*
X93219173Y-104834057D01*
X93219173Y-104834057D02*
X93219173Y-104891200D01*
X93219173Y-104891200D02*
X93247744Y-104948342D01*
X93247744Y-104948342D02*
X93276316Y-104976914D01*
X93276316Y-104976914D02*
X93333458Y-105005485D01*
X93333458Y-105005485D02*
X93533458Y-105005485D01*
X92647744Y-105319771D02*
X92933458Y-105319771D01*
X92933458Y-105319771D02*
X92933458Y-104719771D01*
X92447744Y-105319771D02*
X92447744Y-104719771D01*
X92104887Y-105319771D02*
X92362030Y-104976914D01*
X92104887Y-104719771D02*
X92447744Y-105062628D01*
X93190601Y-106719771D02*
X93390601Y-106434057D01*
X93533458Y-106719771D02*
X93533458Y-106119771D01*
X93533458Y-106119771D02*
X93304887Y-106119771D01*
X93304887Y-106119771D02*
X93247744Y-106148342D01*
X93247744Y-106148342D02*
X93219173Y-106176914D01*
X93219173Y-106176914D02*
X93190601Y-106234057D01*
X93190601Y-106234057D02*
X93190601Y-106319771D01*
X93190601Y-106319771D02*
X93219173Y-106376914D01*
X93219173Y-106376914D02*
X93247744Y-106405485D01*
X93247744Y-106405485D02*
X93304887Y-106434057D01*
X93304887Y-106434057D02*
X93533458Y-106434057D01*
X92933458Y-106405485D02*
X92733458Y-106405485D01*
X92647744Y-106719771D02*
X92933458Y-106719771D01*
X92933458Y-106719771D02*
X92933458Y-106119771D01*
X92933458Y-106119771D02*
X92647744Y-106119771D01*
X92390601Y-106719771D02*
X92390601Y-106119771D01*
X92390601Y-106119771D02*
X92247744Y-106119771D01*
X92247744Y-106119771D02*
X92162030Y-106148342D01*
X92162030Y-106148342D02*
X92104887Y-106205485D01*
X92104887Y-106205485D02*
X92076316Y-106262628D01*
X92076316Y-106262628D02*
X92047744Y-106376914D01*
X92047744Y-106376914D02*
X92047744Y-106462628D01*
X92047744Y-106462628D02*
X92076316Y-106576914D01*
X92076316Y-106576914D02*
X92104887Y-106634057D01*
X92104887Y-106634057D02*
X92162030Y-106691200D01*
X92162030Y-106691200D02*
X92247744Y-106719771D01*
X92247744Y-106719771D02*
X92390601Y-106719771D01*
D12*
X136318876Y-118820523D02*
X135883448Y-118820523D01*
X136101162Y-119582523D02*
X136101162Y-118820523D01*
X135194019Y-119582523D02*
X135448019Y-119219666D01*
X135629448Y-119582523D02*
X135629448Y-118820523D01*
X135629448Y-118820523D02*
X135339162Y-118820523D01*
X135339162Y-118820523D02*
X135266591Y-118856809D01*
X135266591Y-118856809D02*
X135230305Y-118893095D01*
X135230305Y-118893095D02*
X135194019Y-118965666D01*
X135194019Y-118965666D02*
X135194019Y-119074523D01*
X135194019Y-119074523D02*
X135230305Y-119147095D01*
X135230305Y-119147095D02*
X135266591Y-119183380D01*
X135266591Y-119183380D02*
X135339162Y-119219666D01*
X135339162Y-119219666D02*
X135629448Y-119219666D01*
X134903734Y-119364809D02*
X134540877Y-119364809D01*
X134976305Y-119582523D02*
X134722305Y-118820523D01*
X134722305Y-118820523D02*
X134468305Y-119582523D01*
X133778876Y-119509952D02*
X133815162Y-119546238D01*
X133815162Y-119546238D02*
X133924019Y-119582523D01*
X133924019Y-119582523D02*
X133996591Y-119582523D01*
X133996591Y-119582523D02*
X134105448Y-119546238D01*
X134105448Y-119546238D02*
X134178019Y-119473666D01*
X134178019Y-119473666D02*
X134214305Y-119401095D01*
X134214305Y-119401095D02*
X134250591Y-119255952D01*
X134250591Y-119255952D02*
X134250591Y-119147095D01*
X134250591Y-119147095D02*
X134214305Y-119001952D01*
X134214305Y-119001952D02*
X134178019Y-118929380D01*
X134178019Y-118929380D02*
X134105448Y-118856809D01*
X134105448Y-118856809D02*
X133996591Y-118820523D01*
X133996591Y-118820523D02*
X133924019Y-118820523D01*
X133924019Y-118820523D02*
X133815162Y-118856809D01*
X133815162Y-118856809D02*
X133778876Y-118893095D01*
X133452305Y-119582523D02*
X133452305Y-118820523D01*
X133016876Y-119582523D02*
X133343448Y-119147095D01*
X133016876Y-118820523D02*
X133452305Y-119255952D01*
X135956019Y-120410157D02*
X135847162Y-120446443D01*
X135847162Y-120446443D02*
X135810876Y-120482729D01*
X135810876Y-120482729D02*
X135774590Y-120555300D01*
X135774590Y-120555300D02*
X135774590Y-120664157D01*
X135774590Y-120664157D02*
X135810876Y-120736729D01*
X135810876Y-120736729D02*
X135847162Y-120773015D01*
X135847162Y-120773015D02*
X135919733Y-120809300D01*
X135919733Y-120809300D02*
X136210019Y-120809300D01*
X136210019Y-120809300D02*
X136210019Y-120047300D01*
X136210019Y-120047300D02*
X135956019Y-120047300D01*
X135956019Y-120047300D02*
X135883448Y-120083586D01*
X135883448Y-120083586D02*
X135847162Y-120119872D01*
X135847162Y-120119872D02*
X135810876Y-120192443D01*
X135810876Y-120192443D02*
X135810876Y-120265015D01*
X135810876Y-120265015D02*
X135847162Y-120337586D01*
X135847162Y-120337586D02*
X135883448Y-120373872D01*
X135883448Y-120373872D02*
X135956019Y-120410157D01*
X135956019Y-120410157D02*
X136210019Y-120410157D01*
X135484305Y-120591586D02*
X135121448Y-120591586D01*
X135556876Y-120809300D02*
X135302876Y-120047300D01*
X135302876Y-120047300D02*
X135048876Y-120809300D01*
X134432019Y-120809300D02*
X134794876Y-120809300D01*
X134794876Y-120809300D02*
X134794876Y-120047300D01*
X133815162Y-120809300D02*
X134178019Y-120809300D01*
X134178019Y-120809300D02*
X134178019Y-120047300D01*
X93143198Y-103224197D02*
X93215770Y-103187911D01*
X93215770Y-103187911D02*
X93324627Y-103187911D01*
X93324627Y-103187911D02*
X93433484Y-103224197D01*
X93433484Y-103224197D02*
X93506055Y-103296768D01*
X93506055Y-103296768D02*
X93542341Y-103369340D01*
X93542341Y-103369340D02*
X93578627Y-103514483D01*
X93578627Y-103514483D02*
X93578627Y-103623340D01*
X93578627Y-103623340D02*
X93542341Y-103768483D01*
X93542341Y-103768483D02*
X93506055Y-103841054D01*
X93506055Y-103841054D02*
X93433484Y-103913626D01*
X93433484Y-103913626D02*
X93324627Y-103949911D01*
X93324627Y-103949911D02*
X93252055Y-103949911D01*
X93252055Y-103949911D02*
X93143198Y-103913626D01*
X93143198Y-103913626D02*
X93106912Y-103877340D01*
X93106912Y-103877340D02*
X93106912Y-103623340D01*
X93106912Y-103623340D02*
X93252055Y-103623340D01*
X92780341Y-103949911D02*
X92780341Y-103187911D01*
X92780341Y-103187911D02*
X92344912Y-103949911D01*
X92344912Y-103949911D02*
X92344912Y-103187911D01*
X91982055Y-103949911D02*
X91982055Y-103187911D01*
X91982055Y-103187911D02*
X91800626Y-103187911D01*
X91800626Y-103187911D02*
X91691769Y-103224197D01*
X91691769Y-103224197D02*
X91619198Y-103296768D01*
X91619198Y-103296768D02*
X91582912Y-103369340D01*
X91582912Y-103369340D02*
X91546626Y-103514483D01*
X91546626Y-103514483D02*
X91546626Y-103623340D01*
X91546626Y-103623340D02*
X91582912Y-103768483D01*
X91582912Y-103768483D02*
X91619198Y-103841054D01*
X91619198Y-103841054D02*
X91691769Y-103913626D01*
X91691769Y-103913626D02*
X91800626Y-103949911D01*
X91800626Y-103949911D02*
X91982055Y-103949911D01*
X96130659Y-103249911D02*
X95876659Y-104011911D01*
X95876659Y-104011911D02*
X95622659Y-103249911D01*
X94933230Y-103939340D02*
X94969516Y-103975626D01*
X94969516Y-103975626D02*
X95078373Y-104011911D01*
X95078373Y-104011911D02*
X95150945Y-104011911D01*
X95150945Y-104011911D02*
X95259802Y-103975626D01*
X95259802Y-103975626D02*
X95332373Y-103903054D01*
X95332373Y-103903054D02*
X95368659Y-103830483D01*
X95368659Y-103830483D02*
X95404945Y-103685340D01*
X95404945Y-103685340D02*
X95404945Y-103576483D01*
X95404945Y-103576483D02*
X95368659Y-103431340D01*
X95368659Y-103431340D02*
X95332373Y-103358768D01*
X95332373Y-103358768D02*
X95259802Y-103286197D01*
X95259802Y-103286197D02*
X95150945Y-103249911D01*
X95150945Y-103249911D02*
X95078373Y-103249911D01*
X95078373Y-103249911D02*
X94969516Y-103286197D01*
X94969516Y-103286197D02*
X94933230Y-103322483D01*
X94171230Y-103939340D02*
X94207516Y-103975626D01*
X94207516Y-103975626D02*
X94316373Y-104011911D01*
X94316373Y-104011911D02*
X94388945Y-104011911D01*
X94388945Y-104011911D02*
X94497802Y-103975626D01*
X94497802Y-103975626D02*
X94570373Y-103903054D01*
X94570373Y-103903054D02*
X94606659Y-103830483D01*
X94606659Y-103830483D02*
X94642945Y-103685340D01*
X94642945Y-103685340D02*
X94642945Y-103576483D01*
X94642945Y-103576483D02*
X94606659Y-103431340D01*
X94606659Y-103431340D02*
X94570373Y-103358768D01*
X94570373Y-103358768D02*
X94497802Y-103286197D01*
X94497802Y-103286197D02*
X94388945Y-103249911D01*
X94388945Y-103249911D02*
X94316373Y-103249911D01*
X94316373Y-103249911D02*
X94207516Y-103286197D01*
X94207516Y-103286197D02*
X94171230Y-103322483D01*
X98597143Y-103925626D02*
X98488286Y-103961911D01*
X98488286Y-103961911D02*
X98306857Y-103961911D01*
X98306857Y-103961911D02*
X98234286Y-103925626D01*
X98234286Y-103925626D02*
X98198000Y-103889340D01*
X98198000Y-103889340D02*
X98161714Y-103816768D01*
X98161714Y-103816768D02*
X98161714Y-103744197D01*
X98161714Y-103744197D02*
X98198000Y-103671626D01*
X98198000Y-103671626D02*
X98234286Y-103635340D01*
X98234286Y-103635340D02*
X98306857Y-103599054D01*
X98306857Y-103599054D02*
X98452000Y-103562768D01*
X98452000Y-103562768D02*
X98524571Y-103526483D01*
X98524571Y-103526483D02*
X98560857Y-103490197D01*
X98560857Y-103490197D02*
X98597143Y-103417626D01*
X98597143Y-103417626D02*
X98597143Y-103345054D01*
X98597143Y-103345054D02*
X98560857Y-103272483D01*
X98560857Y-103272483D02*
X98524571Y-103236197D01*
X98524571Y-103236197D02*
X98452000Y-103199911D01*
X98452000Y-103199911D02*
X98270571Y-103199911D01*
X98270571Y-103199911D02*
X98161714Y-103236197D01*
X97399714Y-103889340D02*
X97436000Y-103925626D01*
X97436000Y-103925626D02*
X97544857Y-103961911D01*
X97544857Y-103961911D02*
X97617429Y-103961911D01*
X97617429Y-103961911D02*
X97726286Y-103925626D01*
X97726286Y-103925626D02*
X97798857Y-103853054D01*
X97798857Y-103853054D02*
X97835143Y-103780483D01*
X97835143Y-103780483D02*
X97871429Y-103635340D01*
X97871429Y-103635340D02*
X97871429Y-103526483D01*
X97871429Y-103526483D02*
X97835143Y-103381340D01*
X97835143Y-103381340D02*
X97798857Y-103308768D01*
X97798857Y-103308768D02*
X97726286Y-103236197D01*
X97726286Y-103236197D02*
X97617429Y-103199911D01*
X97617429Y-103199911D02*
X97544857Y-103199911D01*
X97544857Y-103199911D02*
X97436000Y-103236197D01*
X97436000Y-103236197D02*
X97399714Y-103272483D01*
X96710286Y-103961911D02*
X97073143Y-103961911D01*
X97073143Y-103961911D02*
X97073143Y-103199911D01*
X101139945Y-103925626D02*
X101031088Y-103961911D01*
X101031088Y-103961911D02*
X100849659Y-103961911D01*
X100849659Y-103961911D02*
X100777088Y-103925626D01*
X100777088Y-103925626D02*
X100740802Y-103889340D01*
X100740802Y-103889340D02*
X100704516Y-103816768D01*
X100704516Y-103816768D02*
X100704516Y-103744197D01*
X100704516Y-103744197D02*
X100740802Y-103671626D01*
X100740802Y-103671626D02*
X100777088Y-103635340D01*
X100777088Y-103635340D02*
X100849659Y-103599054D01*
X100849659Y-103599054D02*
X100994802Y-103562768D01*
X100994802Y-103562768D02*
X101067373Y-103526483D01*
X101067373Y-103526483D02*
X101103659Y-103490197D01*
X101103659Y-103490197D02*
X101139945Y-103417626D01*
X101139945Y-103417626D02*
X101139945Y-103345054D01*
X101139945Y-103345054D02*
X101103659Y-103272483D01*
X101103659Y-103272483D02*
X101067373Y-103236197D01*
X101067373Y-103236197D02*
X100994802Y-103199911D01*
X100994802Y-103199911D02*
X100813373Y-103199911D01*
X100813373Y-103199911D02*
X100704516Y-103236197D01*
X100377945Y-103961911D02*
X100377945Y-103199911D01*
X100377945Y-103199911D02*
X100196516Y-103199911D01*
X100196516Y-103199911D02*
X100087659Y-103236197D01*
X100087659Y-103236197D02*
X100015088Y-103308768D01*
X100015088Y-103308768D02*
X99978802Y-103381340D01*
X99978802Y-103381340D02*
X99942516Y-103526483D01*
X99942516Y-103526483D02*
X99942516Y-103635340D01*
X99942516Y-103635340D02*
X99978802Y-103780483D01*
X99978802Y-103780483D02*
X100015088Y-103853054D01*
X100015088Y-103853054D02*
X100087659Y-103925626D01*
X100087659Y-103925626D02*
X100196516Y-103961911D01*
X100196516Y-103961911D02*
X100377945Y-103961911D01*
X99652231Y-103744197D02*
X99289374Y-103744197D01*
X99724802Y-103961911D02*
X99470802Y-103199911D01*
X99470802Y-103199911D02*
X99216802Y-103961911D01*
X140940571Y-115499197D02*
X141013143Y-115462911D01*
X141013143Y-115462911D02*
X141122000Y-115462911D01*
X141122000Y-115462911D02*
X141230857Y-115499197D01*
X141230857Y-115499197D02*
X141303428Y-115571768D01*
X141303428Y-115571768D02*
X141339714Y-115644340D01*
X141339714Y-115644340D02*
X141376000Y-115789483D01*
X141376000Y-115789483D02*
X141376000Y-115898340D01*
X141376000Y-115898340D02*
X141339714Y-116043483D01*
X141339714Y-116043483D02*
X141303428Y-116116054D01*
X141303428Y-116116054D02*
X141230857Y-116188626D01*
X141230857Y-116188626D02*
X141122000Y-116224911D01*
X141122000Y-116224911D02*
X141049428Y-116224911D01*
X141049428Y-116224911D02*
X140940571Y-116188626D01*
X140940571Y-116188626D02*
X140904285Y-116152340D01*
X140904285Y-116152340D02*
X140904285Y-115898340D01*
X140904285Y-115898340D02*
X141049428Y-115898340D01*
X140577714Y-116224911D02*
X140577714Y-115462911D01*
X140577714Y-115462911D02*
X140142285Y-116224911D01*
X140142285Y-116224911D02*
X140142285Y-115462911D01*
X139779428Y-116224911D02*
X139779428Y-115462911D01*
X139779428Y-115462911D02*
X139597999Y-115462911D01*
X139597999Y-115462911D02*
X139489142Y-115499197D01*
X139489142Y-115499197D02*
X139416571Y-115571768D01*
X139416571Y-115571768D02*
X139380285Y-115644340D01*
X139380285Y-115644340D02*
X139343999Y-115789483D01*
X139343999Y-115789483D02*
X139343999Y-115898340D01*
X139343999Y-115898340D02*
X139380285Y-116043483D01*
X139380285Y-116043483D02*
X139416571Y-116116054D01*
X139416571Y-116116054D02*
X139489142Y-116188626D01*
X139489142Y-116188626D02*
X139597999Y-116224911D01*
X139597999Y-116224911D02*
X139779428Y-116224911D01*
X144021286Y-115462911D02*
X143767286Y-116224911D01*
X143767286Y-116224911D02*
X143513286Y-115462911D01*
X142823857Y-116152340D02*
X142860143Y-116188626D01*
X142860143Y-116188626D02*
X142969000Y-116224911D01*
X142969000Y-116224911D02*
X143041572Y-116224911D01*
X143041572Y-116224911D02*
X143150429Y-116188626D01*
X143150429Y-116188626D02*
X143223000Y-116116054D01*
X143223000Y-116116054D02*
X143259286Y-116043483D01*
X143259286Y-116043483D02*
X143295572Y-115898340D01*
X143295572Y-115898340D02*
X143295572Y-115789483D01*
X143295572Y-115789483D02*
X143259286Y-115644340D01*
X143259286Y-115644340D02*
X143223000Y-115571768D01*
X143223000Y-115571768D02*
X143150429Y-115499197D01*
X143150429Y-115499197D02*
X143041572Y-115462911D01*
X143041572Y-115462911D02*
X142969000Y-115462911D01*
X142969000Y-115462911D02*
X142860143Y-115499197D01*
X142860143Y-115499197D02*
X142823857Y-115535483D01*
X142061857Y-116152340D02*
X142098143Y-116188626D01*
X142098143Y-116188626D02*
X142207000Y-116224911D01*
X142207000Y-116224911D02*
X142279572Y-116224911D01*
X142279572Y-116224911D02*
X142388429Y-116188626D01*
X142388429Y-116188626D02*
X142461000Y-116116054D01*
X142461000Y-116116054D02*
X142497286Y-116043483D01*
X142497286Y-116043483D02*
X142533572Y-115898340D01*
X142533572Y-115898340D02*
X142533572Y-115789483D01*
X142533572Y-115789483D02*
X142497286Y-115644340D01*
X142497286Y-115644340D02*
X142461000Y-115571768D01*
X142461000Y-115571768D02*
X142388429Y-115499197D01*
X142388429Y-115499197D02*
X142279572Y-115462911D01*
X142279572Y-115462911D02*
X142207000Y-115462911D01*
X142207000Y-115462911D02*
X142098143Y-115499197D01*
X142098143Y-115499197D02*
X142061857Y-115535483D01*
X146401769Y-116188626D02*
X146292912Y-116224911D01*
X146292912Y-116224911D02*
X146111483Y-116224911D01*
X146111483Y-116224911D02*
X146038912Y-116188626D01*
X146038912Y-116188626D02*
X146002626Y-116152340D01*
X146002626Y-116152340D02*
X145966340Y-116079768D01*
X145966340Y-116079768D02*
X145966340Y-116007197D01*
X145966340Y-116007197D02*
X146002626Y-115934626D01*
X146002626Y-115934626D02*
X146038912Y-115898340D01*
X146038912Y-115898340D02*
X146111483Y-115862054D01*
X146111483Y-115862054D02*
X146256626Y-115825768D01*
X146256626Y-115825768D02*
X146329197Y-115789483D01*
X146329197Y-115789483D02*
X146365483Y-115753197D01*
X146365483Y-115753197D02*
X146401769Y-115680626D01*
X146401769Y-115680626D02*
X146401769Y-115608054D01*
X146401769Y-115608054D02*
X146365483Y-115535483D01*
X146365483Y-115535483D02*
X146329197Y-115499197D01*
X146329197Y-115499197D02*
X146256626Y-115462911D01*
X146256626Y-115462911D02*
X146075197Y-115462911D01*
X146075197Y-115462911D02*
X145966340Y-115499197D01*
X145204340Y-116152340D02*
X145240626Y-116188626D01*
X145240626Y-116188626D02*
X145349483Y-116224911D01*
X145349483Y-116224911D02*
X145422055Y-116224911D01*
X145422055Y-116224911D02*
X145530912Y-116188626D01*
X145530912Y-116188626D02*
X145603483Y-116116054D01*
X145603483Y-116116054D02*
X145639769Y-116043483D01*
X145639769Y-116043483D02*
X145676055Y-115898340D01*
X145676055Y-115898340D02*
X145676055Y-115789483D01*
X145676055Y-115789483D02*
X145639769Y-115644340D01*
X145639769Y-115644340D02*
X145603483Y-115571768D01*
X145603483Y-115571768D02*
X145530912Y-115499197D01*
X145530912Y-115499197D02*
X145422055Y-115462911D01*
X145422055Y-115462911D02*
X145349483Y-115462911D01*
X145349483Y-115462911D02*
X145240626Y-115499197D01*
X145240626Y-115499197D02*
X145204340Y-115535483D01*
X144514912Y-116224911D02*
X144877769Y-116224911D01*
X144877769Y-116224911D02*
X144877769Y-115462911D01*
X148985285Y-116188626D02*
X148876428Y-116224911D01*
X148876428Y-116224911D02*
X148694999Y-116224911D01*
X148694999Y-116224911D02*
X148622428Y-116188626D01*
X148622428Y-116188626D02*
X148586142Y-116152340D01*
X148586142Y-116152340D02*
X148549856Y-116079768D01*
X148549856Y-116079768D02*
X148549856Y-116007197D01*
X148549856Y-116007197D02*
X148586142Y-115934626D01*
X148586142Y-115934626D02*
X148622428Y-115898340D01*
X148622428Y-115898340D02*
X148694999Y-115862054D01*
X148694999Y-115862054D02*
X148840142Y-115825768D01*
X148840142Y-115825768D02*
X148912713Y-115789483D01*
X148912713Y-115789483D02*
X148948999Y-115753197D01*
X148948999Y-115753197D02*
X148985285Y-115680626D01*
X148985285Y-115680626D02*
X148985285Y-115608054D01*
X148985285Y-115608054D02*
X148948999Y-115535483D01*
X148948999Y-115535483D02*
X148912713Y-115499197D01*
X148912713Y-115499197D02*
X148840142Y-115462911D01*
X148840142Y-115462911D02*
X148658713Y-115462911D01*
X148658713Y-115462911D02*
X148549856Y-115499197D01*
X148223285Y-116224911D02*
X148223285Y-115462911D01*
X148223285Y-115462911D02*
X148041856Y-115462911D01*
X148041856Y-115462911D02*
X147932999Y-115499197D01*
X147932999Y-115499197D02*
X147860428Y-115571768D01*
X147860428Y-115571768D02*
X147824142Y-115644340D01*
X147824142Y-115644340D02*
X147787856Y-115789483D01*
X147787856Y-115789483D02*
X147787856Y-115898340D01*
X147787856Y-115898340D02*
X147824142Y-116043483D01*
X147824142Y-116043483D02*
X147860428Y-116116054D01*
X147860428Y-116116054D02*
X147932999Y-116188626D01*
X147932999Y-116188626D02*
X148041856Y-116224911D01*
X148041856Y-116224911D02*
X148223285Y-116224911D01*
X147497571Y-116007197D02*
X147134714Y-116007197D01*
X147570142Y-116224911D02*
X147316142Y-115462911D01*
X147316142Y-115462911D02*
X147062142Y-116224911D01*
D11*
X97206681Y-78260839D02*
X98006681Y-78260839D01*
X98006681Y-78260839D02*
X97435253Y-77994173D01*
X97435253Y-77994173D02*
X98006681Y-77727506D01*
X98006681Y-77727506D02*
X97206681Y-77727506D01*
X98006681Y-77194172D02*
X98006681Y-77041791D01*
X98006681Y-77041791D02*
X97968586Y-76965601D01*
X97968586Y-76965601D02*
X97892396Y-76889410D01*
X97892396Y-76889410D02*
X97740015Y-76851315D01*
X97740015Y-76851315D02*
X97473348Y-76851315D01*
X97473348Y-76851315D02*
X97320967Y-76889410D01*
X97320967Y-76889410D02*
X97244777Y-76965601D01*
X97244777Y-76965601D02*
X97206681Y-77041791D01*
X97206681Y-77041791D02*
X97206681Y-77194172D01*
X97206681Y-77194172D02*
X97244777Y-77270363D01*
X97244777Y-77270363D02*
X97320967Y-77346553D01*
X97320967Y-77346553D02*
X97473348Y-77384649D01*
X97473348Y-77384649D02*
X97740015Y-77384649D01*
X97740015Y-77384649D02*
X97892396Y-77346553D01*
X97892396Y-77346553D02*
X97968586Y-77270363D01*
X97968586Y-77270363D02*
X98006681Y-77194172D01*
X98006681Y-76508458D02*
X97359062Y-76508458D01*
X97359062Y-76508458D02*
X97282872Y-76470363D01*
X97282872Y-76470363D02*
X97244777Y-76432268D01*
X97244777Y-76432268D02*
X97206681Y-76356077D01*
X97206681Y-76356077D02*
X97206681Y-76203696D01*
X97206681Y-76203696D02*
X97244777Y-76127506D01*
X97244777Y-76127506D02*
X97282872Y-76089411D01*
X97282872Y-76089411D02*
X97359062Y-76051315D01*
X97359062Y-76051315D02*
X98006681Y-76051315D01*
X97206681Y-75670363D02*
X98006681Y-75670363D01*
X98006681Y-75670363D02*
X97206681Y-75213220D01*
X97206681Y-75213220D02*
X98006681Y-75213220D01*
X98006681Y-74946554D02*
X98006681Y-74489411D01*
X97206681Y-74717983D02*
X98006681Y-74717983D01*
X97206681Y-73613220D02*
X98006681Y-73613220D01*
X98006681Y-73613220D02*
X97435253Y-73346554D01*
X97435253Y-73346554D02*
X98006681Y-73079887D01*
X98006681Y-73079887D02*
X97206681Y-73079887D01*
X97282872Y-72241791D02*
X97244777Y-72279887D01*
X97244777Y-72279887D02*
X97206681Y-72394172D01*
X97206681Y-72394172D02*
X97206681Y-72470363D01*
X97206681Y-72470363D02*
X97244777Y-72584649D01*
X97244777Y-72584649D02*
X97320967Y-72660839D01*
X97320967Y-72660839D02*
X97397157Y-72698934D01*
X97397157Y-72698934D02*
X97549538Y-72737030D01*
X97549538Y-72737030D02*
X97663824Y-72737030D01*
X97663824Y-72737030D02*
X97816205Y-72698934D01*
X97816205Y-72698934D02*
X97892396Y-72660839D01*
X97892396Y-72660839D02*
X97968586Y-72584649D01*
X97968586Y-72584649D02*
X98006681Y-72470363D01*
X98006681Y-72470363D02*
X98006681Y-72394172D01*
X98006681Y-72394172D02*
X97968586Y-72279887D01*
X97968586Y-72279887D02*
X97930491Y-72241791D01*
X98006681Y-71898934D02*
X97359062Y-71898934D01*
X97359062Y-71898934D02*
X97282872Y-71860839D01*
X97282872Y-71860839D02*
X97244777Y-71822744D01*
X97244777Y-71822744D02*
X97206681Y-71746553D01*
X97206681Y-71746553D02*
X97206681Y-71594172D01*
X97206681Y-71594172D02*
X97244777Y-71517982D01*
X97244777Y-71517982D02*
X97282872Y-71479887D01*
X97282872Y-71479887D02*
X97359062Y-71441791D01*
X97359062Y-71441791D02*
X98006681Y-71441791D01*
X98006681Y-70298934D02*
X98006681Y-70146553D01*
X98006681Y-70146553D02*
X97968586Y-70070363D01*
X97968586Y-70070363D02*
X97892396Y-69994172D01*
X97892396Y-69994172D02*
X97740015Y-69956077D01*
X97740015Y-69956077D02*
X97473348Y-69956077D01*
X97473348Y-69956077D02*
X97320967Y-69994172D01*
X97320967Y-69994172D02*
X97244777Y-70070363D01*
X97244777Y-70070363D02*
X97206681Y-70146553D01*
X97206681Y-70146553D02*
X97206681Y-70298934D01*
X97206681Y-70298934D02*
X97244777Y-70375125D01*
X97244777Y-70375125D02*
X97320967Y-70451315D01*
X97320967Y-70451315D02*
X97473348Y-70489411D01*
X97473348Y-70489411D02*
X97740015Y-70489411D01*
X97740015Y-70489411D02*
X97892396Y-70451315D01*
X97892396Y-70451315D02*
X97968586Y-70375125D01*
X97968586Y-70375125D02*
X98006681Y-70298934D01*
X97206681Y-69613220D02*
X98006681Y-69613220D01*
X98006681Y-69613220D02*
X97206681Y-69156077D01*
X97206681Y-69156077D02*
X98006681Y-69156077D01*
X97625729Y-67898935D02*
X97587634Y-67784649D01*
X97587634Y-67784649D02*
X97549538Y-67746554D01*
X97549538Y-67746554D02*
X97473348Y-67708458D01*
X97473348Y-67708458D02*
X97359062Y-67708458D01*
X97359062Y-67708458D02*
X97282872Y-67746554D01*
X97282872Y-67746554D02*
X97244777Y-67784649D01*
X97244777Y-67784649D02*
X97206681Y-67860839D01*
X97206681Y-67860839D02*
X97206681Y-68165601D01*
X97206681Y-68165601D02*
X98006681Y-68165601D01*
X98006681Y-68165601D02*
X98006681Y-67898935D01*
X98006681Y-67898935D02*
X97968586Y-67822744D01*
X97968586Y-67822744D02*
X97930491Y-67784649D01*
X97930491Y-67784649D02*
X97854300Y-67746554D01*
X97854300Y-67746554D02*
X97778110Y-67746554D01*
X97778110Y-67746554D02*
X97701919Y-67784649D01*
X97701919Y-67784649D02*
X97663824Y-67822744D01*
X97663824Y-67822744D02*
X97625729Y-67898935D01*
X97625729Y-67898935D02*
X97625729Y-68165601D01*
X98006681Y-67213220D02*
X98006681Y-67060839D01*
X98006681Y-67060839D02*
X97968586Y-66984649D01*
X97968586Y-66984649D02*
X97892396Y-66908458D01*
X97892396Y-66908458D02*
X97740015Y-66870363D01*
X97740015Y-66870363D02*
X97473348Y-66870363D01*
X97473348Y-66870363D02*
X97320967Y-66908458D01*
X97320967Y-66908458D02*
X97244777Y-66984649D01*
X97244777Y-66984649D02*
X97206681Y-67060839D01*
X97206681Y-67060839D02*
X97206681Y-67213220D01*
X97206681Y-67213220D02*
X97244777Y-67289411D01*
X97244777Y-67289411D02*
X97320967Y-67365601D01*
X97320967Y-67365601D02*
X97473348Y-67403697D01*
X97473348Y-67403697D02*
X97740015Y-67403697D01*
X97740015Y-67403697D02*
X97892396Y-67365601D01*
X97892396Y-67365601D02*
X97968586Y-67289411D01*
X97968586Y-67289411D02*
X98006681Y-67213220D01*
X98006681Y-66641792D02*
X98006681Y-66184649D01*
X97206681Y-66413221D02*
X98006681Y-66413221D01*
X98006681Y-66032268D02*
X98006681Y-65575125D01*
X97206681Y-65803697D02*
X98006681Y-65803697D01*
X98006681Y-65156077D02*
X98006681Y-65003696D01*
X98006681Y-65003696D02*
X97968586Y-64927506D01*
X97968586Y-64927506D02*
X97892396Y-64851315D01*
X97892396Y-64851315D02*
X97740015Y-64813220D01*
X97740015Y-64813220D02*
X97473348Y-64813220D01*
X97473348Y-64813220D02*
X97320967Y-64851315D01*
X97320967Y-64851315D02*
X97244777Y-64927506D01*
X97244777Y-64927506D02*
X97206681Y-65003696D01*
X97206681Y-65003696D02*
X97206681Y-65156077D01*
X97206681Y-65156077D02*
X97244777Y-65232268D01*
X97244777Y-65232268D02*
X97320967Y-65308458D01*
X97320967Y-65308458D02*
X97473348Y-65346554D01*
X97473348Y-65346554D02*
X97740015Y-65346554D01*
X97740015Y-65346554D02*
X97892396Y-65308458D01*
X97892396Y-65308458D02*
X97968586Y-65232268D01*
X97968586Y-65232268D02*
X98006681Y-65156077D01*
X97206681Y-64470363D02*
X98006681Y-64470363D01*
X98006681Y-64470363D02*
X97435253Y-64203697D01*
X97435253Y-64203697D02*
X98006681Y-63937030D01*
X98006681Y-63937030D02*
X97206681Y-63937030D01*
X95994917Y-77803696D02*
X95956822Y-77841792D01*
X95956822Y-77841792D02*
X95918726Y-77956077D01*
X95918726Y-77956077D02*
X95918726Y-78032268D01*
X95918726Y-78032268D02*
X95956822Y-78146554D01*
X95956822Y-78146554D02*
X96033012Y-78222744D01*
X96033012Y-78222744D02*
X96109202Y-78260839D01*
X96109202Y-78260839D02*
X96261583Y-78298935D01*
X96261583Y-78298935D02*
X96375869Y-78298935D01*
X96375869Y-78298935D02*
X96528250Y-78260839D01*
X96528250Y-78260839D02*
X96604441Y-78222744D01*
X96604441Y-78222744D02*
X96680631Y-78146554D01*
X96680631Y-78146554D02*
X96718726Y-78032268D01*
X96718726Y-78032268D02*
X96718726Y-77956077D01*
X96718726Y-77956077D02*
X96680631Y-77841792D01*
X96680631Y-77841792D02*
X96642536Y-77803696D01*
X96718726Y-77308458D02*
X96718726Y-77156077D01*
X96718726Y-77156077D02*
X96680631Y-77079887D01*
X96680631Y-77079887D02*
X96604441Y-77003696D01*
X96604441Y-77003696D02*
X96452060Y-76965601D01*
X96452060Y-76965601D02*
X96185393Y-76965601D01*
X96185393Y-76965601D02*
X96033012Y-77003696D01*
X96033012Y-77003696D02*
X95956822Y-77079887D01*
X95956822Y-77079887D02*
X95918726Y-77156077D01*
X95918726Y-77156077D02*
X95918726Y-77308458D01*
X95918726Y-77308458D02*
X95956822Y-77384649D01*
X95956822Y-77384649D02*
X96033012Y-77460839D01*
X96033012Y-77460839D02*
X96185393Y-77498935D01*
X96185393Y-77498935D02*
X96452060Y-77498935D01*
X96452060Y-77498935D02*
X96604441Y-77460839D01*
X96604441Y-77460839D02*
X96680631Y-77384649D01*
X96680631Y-77384649D02*
X96718726Y-77308458D01*
X95918726Y-76622744D02*
X96718726Y-76622744D01*
X96718726Y-76622744D02*
X96147298Y-76356078D01*
X96147298Y-76356078D02*
X96718726Y-76089411D01*
X96718726Y-76089411D02*
X95918726Y-76089411D01*
X95918726Y-75708458D02*
X96718726Y-75708458D01*
X96718726Y-75708458D02*
X96718726Y-75403696D01*
X96718726Y-75403696D02*
X96680631Y-75327506D01*
X96680631Y-75327506D02*
X96642536Y-75289411D01*
X96642536Y-75289411D02*
X96566345Y-75251315D01*
X96566345Y-75251315D02*
X96452060Y-75251315D01*
X96452060Y-75251315D02*
X96375869Y-75289411D01*
X96375869Y-75289411D02*
X96337774Y-75327506D01*
X96337774Y-75327506D02*
X96299679Y-75403696D01*
X96299679Y-75403696D02*
X96299679Y-75708458D01*
X96718726Y-74756077D02*
X96718726Y-74603696D01*
X96718726Y-74603696D02*
X96680631Y-74527506D01*
X96680631Y-74527506D02*
X96604441Y-74451315D01*
X96604441Y-74451315D02*
X96452060Y-74413220D01*
X96452060Y-74413220D02*
X96185393Y-74413220D01*
X96185393Y-74413220D02*
X96033012Y-74451315D01*
X96033012Y-74451315D02*
X95956822Y-74527506D01*
X95956822Y-74527506D02*
X95918726Y-74603696D01*
X95918726Y-74603696D02*
X95918726Y-74756077D01*
X95918726Y-74756077D02*
X95956822Y-74832268D01*
X95956822Y-74832268D02*
X96033012Y-74908458D01*
X96033012Y-74908458D02*
X96185393Y-74946554D01*
X96185393Y-74946554D02*
X96452060Y-74946554D01*
X96452060Y-74946554D02*
X96604441Y-74908458D01*
X96604441Y-74908458D02*
X96680631Y-74832268D01*
X96680631Y-74832268D02*
X96718726Y-74756077D01*
X95918726Y-74070363D02*
X96718726Y-74070363D01*
X96718726Y-74070363D02*
X95918726Y-73613220D01*
X95918726Y-73613220D02*
X96718726Y-73613220D01*
X96337774Y-73232268D02*
X96337774Y-72965602D01*
X95918726Y-72851316D02*
X95918726Y-73232268D01*
X95918726Y-73232268D02*
X96718726Y-73232268D01*
X96718726Y-73232268D02*
X96718726Y-72851316D01*
X95918726Y-72508458D02*
X96718726Y-72508458D01*
X96718726Y-72508458D02*
X95918726Y-72051315D01*
X95918726Y-72051315D02*
X96718726Y-72051315D01*
X96718726Y-71784649D02*
X96718726Y-71327506D01*
X95918726Y-71556078D02*
X96718726Y-71556078D01*
X95956822Y-71098935D02*
X95918726Y-70984649D01*
X95918726Y-70984649D02*
X95918726Y-70794173D01*
X95918726Y-70794173D02*
X95956822Y-70717982D01*
X95956822Y-70717982D02*
X95994917Y-70679887D01*
X95994917Y-70679887D02*
X96071107Y-70641792D01*
X96071107Y-70641792D02*
X96147298Y-70641792D01*
X96147298Y-70641792D02*
X96223488Y-70679887D01*
X96223488Y-70679887D02*
X96261583Y-70717982D01*
X96261583Y-70717982D02*
X96299679Y-70794173D01*
X96299679Y-70794173D02*
X96337774Y-70946554D01*
X96337774Y-70946554D02*
X96375869Y-71022744D01*
X96375869Y-71022744D02*
X96413964Y-71060839D01*
X96413964Y-71060839D02*
X96490155Y-71098935D01*
X96490155Y-71098935D02*
X96566345Y-71098935D01*
X96566345Y-71098935D02*
X96642536Y-71060839D01*
X96642536Y-71060839D02*
X96680631Y-71022744D01*
X96680631Y-71022744D02*
X96718726Y-70946554D01*
X96718726Y-70946554D02*
X96718726Y-70756077D01*
X96718726Y-70756077D02*
X96680631Y-70641792D01*
X96337774Y-69422744D02*
X96337774Y-69689410D01*
X95918726Y-69689410D02*
X96718726Y-69689410D01*
X96718726Y-69689410D02*
X96718726Y-69308458D01*
X96147298Y-69041792D02*
X96147298Y-68660839D01*
X95918726Y-69117982D02*
X96718726Y-68851315D01*
X96718726Y-68851315D02*
X95918726Y-68584649D01*
X95994917Y-67860839D02*
X95956822Y-67898935D01*
X95956822Y-67898935D02*
X95918726Y-68013220D01*
X95918726Y-68013220D02*
X95918726Y-68089411D01*
X95918726Y-68089411D02*
X95956822Y-68203697D01*
X95956822Y-68203697D02*
X96033012Y-68279887D01*
X96033012Y-68279887D02*
X96109202Y-68317982D01*
X96109202Y-68317982D02*
X96261583Y-68356078D01*
X96261583Y-68356078D02*
X96375869Y-68356078D01*
X96375869Y-68356078D02*
X96528250Y-68317982D01*
X96528250Y-68317982D02*
X96604441Y-68279887D01*
X96604441Y-68279887D02*
X96680631Y-68203697D01*
X96680631Y-68203697D02*
X96718726Y-68089411D01*
X96718726Y-68089411D02*
X96718726Y-68013220D01*
X96718726Y-68013220D02*
X96680631Y-67898935D01*
X96680631Y-67898935D02*
X96642536Y-67860839D01*
X95918726Y-67517982D02*
X96718726Y-67517982D01*
X95918726Y-67137030D02*
X96718726Y-67137030D01*
X96718726Y-67137030D02*
X95918726Y-66679887D01*
X95918726Y-66679887D02*
X96718726Y-66679887D01*
X96680631Y-65879888D02*
X96718726Y-65956078D01*
X96718726Y-65956078D02*
X96718726Y-66070364D01*
X96718726Y-66070364D02*
X96680631Y-66184650D01*
X96680631Y-66184650D02*
X96604441Y-66260840D01*
X96604441Y-66260840D02*
X96528250Y-66298935D01*
X96528250Y-66298935D02*
X96375869Y-66337031D01*
X96375869Y-66337031D02*
X96261583Y-66337031D01*
X96261583Y-66337031D02*
X96109202Y-66298935D01*
X96109202Y-66298935D02*
X96033012Y-66260840D01*
X96033012Y-66260840D02*
X95956822Y-66184650D01*
X95956822Y-66184650D02*
X95918726Y-66070364D01*
X95918726Y-66070364D02*
X95918726Y-65994173D01*
X95918726Y-65994173D02*
X95956822Y-65879888D01*
X95956822Y-65879888D02*
X95994917Y-65841792D01*
X95994917Y-65841792D02*
X96261583Y-65841792D01*
X96261583Y-65841792D02*
X96261583Y-65994173D01*
X95918726Y-64889411D02*
X96718726Y-64889411D01*
X96718726Y-64889411D02*
X96718726Y-64584649D01*
X96718726Y-64584649D02*
X96680631Y-64508459D01*
X96680631Y-64508459D02*
X96642536Y-64470364D01*
X96642536Y-64470364D02*
X96566345Y-64432268D01*
X96566345Y-64432268D02*
X96452060Y-64432268D01*
X96452060Y-64432268D02*
X96375869Y-64470364D01*
X96375869Y-64470364D02*
X96337774Y-64508459D01*
X96337774Y-64508459D02*
X96299679Y-64584649D01*
X96299679Y-64584649D02*
X96299679Y-64889411D01*
X95994917Y-63632268D02*
X95956822Y-63670364D01*
X95956822Y-63670364D02*
X95918726Y-63784649D01*
X95918726Y-63784649D02*
X95918726Y-63860840D01*
X95918726Y-63860840D02*
X95956822Y-63975126D01*
X95956822Y-63975126D02*
X96033012Y-64051316D01*
X96033012Y-64051316D02*
X96109202Y-64089411D01*
X96109202Y-64089411D02*
X96261583Y-64127507D01*
X96261583Y-64127507D02*
X96375869Y-64127507D01*
X96375869Y-64127507D02*
X96528250Y-64089411D01*
X96528250Y-64089411D02*
X96604441Y-64051316D01*
X96604441Y-64051316D02*
X96680631Y-63975126D01*
X96680631Y-63975126D02*
X96718726Y-63860840D01*
X96718726Y-63860840D02*
X96718726Y-63784649D01*
X96718726Y-63784649D02*
X96680631Y-63670364D01*
X96680631Y-63670364D02*
X96642536Y-63632268D01*
X96337774Y-63022745D02*
X96299679Y-62908459D01*
X96299679Y-62908459D02*
X96261583Y-62870364D01*
X96261583Y-62870364D02*
X96185393Y-62832268D01*
X96185393Y-62832268D02*
X96071107Y-62832268D01*
X96071107Y-62832268D02*
X95994917Y-62870364D01*
X95994917Y-62870364D02*
X95956822Y-62908459D01*
X95956822Y-62908459D02*
X95918726Y-62984649D01*
X95918726Y-62984649D02*
X95918726Y-63289411D01*
X95918726Y-63289411D02*
X96718726Y-63289411D01*
X96718726Y-63289411D02*
X96718726Y-63022745D01*
X96718726Y-63022745D02*
X96680631Y-62946554D01*
X96680631Y-62946554D02*
X96642536Y-62908459D01*
X96642536Y-62908459D02*
X96566345Y-62870364D01*
X96566345Y-62870364D02*
X96490155Y-62870364D01*
X96490155Y-62870364D02*
X96413964Y-62908459D01*
X96413964Y-62908459D02*
X96375869Y-62946554D01*
X96375869Y-62946554D02*
X96337774Y-63022745D01*
X96337774Y-63022745D02*
X96337774Y-63289411D01*
X105628696Y-123168318D02*
X105895363Y-122787365D01*
X106085839Y-123168318D02*
X106085839Y-122368318D01*
X106085839Y-122368318D02*
X105781077Y-122368318D01*
X105781077Y-122368318D02*
X105704887Y-122406413D01*
X105704887Y-122406413D02*
X105666792Y-122444508D01*
X105666792Y-122444508D02*
X105628696Y-122520699D01*
X105628696Y-122520699D02*
X105628696Y-122634984D01*
X105628696Y-122634984D02*
X105666792Y-122711175D01*
X105666792Y-122711175D02*
X105704887Y-122749270D01*
X105704887Y-122749270D02*
X105781077Y-122787365D01*
X105781077Y-122787365D02*
X106085839Y-122787365D01*
X105285839Y-122749270D02*
X105019173Y-122749270D01*
X104904887Y-123168318D02*
X105285839Y-123168318D01*
X105285839Y-123168318D02*
X105285839Y-122368318D01*
X105285839Y-122368318D02*
X104904887Y-122368318D01*
X104676315Y-122368318D02*
X104409648Y-123168318D01*
X104409648Y-123168318D02*
X104142982Y-122368318D01*
X103876315Y-123168318D02*
X103876315Y-122368318D01*
X103533459Y-123130223D02*
X103419173Y-123168318D01*
X103419173Y-123168318D02*
X103228697Y-123168318D01*
X103228697Y-123168318D02*
X103152506Y-123130223D01*
X103152506Y-123130223D02*
X103114411Y-123092127D01*
X103114411Y-123092127D02*
X103076316Y-123015937D01*
X103076316Y-123015937D02*
X103076316Y-122939746D01*
X103076316Y-122939746D02*
X103114411Y-122863556D01*
X103114411Y-122863556D02*
X103152506Y-122825461D01*
X103152506Y-122825461D02*
X103228697Y-122787365D01*
X103228697Y-122787365D02*
X103381078Y-122749270D01*
X103381078Y-122749270D02*
X103457268Y-122711175D01*
X103457268Y-122711175D02*
X103495363Y-122673080D01*
X103495363Y-122673080D02*
X103533459Y-122596889D01*
X103533459Y-122596889D02*
X103533459Y-122520699D01*
X103533459Y-122520699D02*
X103495363Y-122444508D01*
X103495363Y-122444508D02*
X103457268Y-122406413D01*
X103457268Y-122406413D02*
X103381078Y-122368318D01*
X103381078Y-122368318D02*
X103190601Y-122368318D01*
X103190601Y-122368318D02*
X103076316Y-122406413D01*
X102733458Y-123168318D02*
X102733458Y-122368318D01*
X102200125Y-122368318D02*
X102047744Y-122368318D01*
X102047744Y-122368318D02*
X101971554Y-122406413D01*
X101971554Y-122406413D02*
X101895363Y-122482603D01*
X101895363Y-122482603D02*
X101857268Y-122634984D01*
X101857268Y-122634984D02*
X101857268Y-122901651D01*
X101857268Y-122901651D02*
X101895363Y-123054032D01*
X101895363Y-123054032D02*
X101971554Y-123130223D01*
X101971554Y-123130223D02*
X102047744Y-123168318D01*
X102047744Y-123168318D02*
X102200125Y-123168318D01*
X102200125Y-123168318D02*
X102276316Y-123130223D01*
X102276316Y-123130223D02*
X102352506Y-123054032D01*
X102352506Y-123054032D02*
X102390602Y-122901651D01*
X102390602Y-122901651D02*
X102390602Y-122634984D01*
X102390602Y-122634984D02*
X102352506Y-122482603D01*
X102352506Y-122482603D02*
X102276316Y-122406413D01*
X102276316Y-122406413D02*
X102200125Y-122368318D01*
X101514411Y-123168318D02*
X101514411Y-122368318D01*
X101514411Y-122368318D02*
X101057268Y-123168318D01*
X101057268Y-123168318D02*
X101057268Y-122368318D01*
X99647745Y-123168318D02*
X100104888Y-123168318D01*
X99876316Y-123168318D02*
X99876316Y-122368318D01*
X99876316Y-122368318D02*
X99952507Y-122482603D01*
X99952507Y-122482603D02*
X100028697Y-122558794D01*
X100028697Y-122558794D02*
X100104888Y-122596889D01*
X106085839Y-124456273D02*
X106085839Y-123656273D01*
X106085839Y-123961035D02*
X106009649Y-123922939D01*
X106009649Y-123922939D02*
X105857268Y-123922939D01*
X105857268Y-123922939D02*
X105781077Y-123961035D01*
X105781077Y-123961035D02*
X105742982Y-123999130D01*
X105742982Y-123999130D02*
X105704887Y-124075320D01*
X105704887Y-124075320D02*
X105704887Y-124303892D01*
X105704887Y-124303892D02*
X105742982Y-124380082D01*
X105742982Y-124380082D02*
X105781077Y-124418178D01*
X105781077Y-124418178D02*
X105857268Y-124456273D01*
X105857268Y-124456273D02*
X106009649Y-124456273D01*
X106009649Y-124456273D02*
X106085839Y-124418178D01*
X105438220Y-123922939D02*
X105247744Y-124456273D01*
X105057267Y-123922939D02*
X105247744Y-124456273D01*
X105247744Y-124456273D02*
X105323934Y-124646749D01*
X105323934Y-124646749D02*
X105362029Y-124684844D01*
X105362029Y-124684844D02*
X105438220Y-124722939D01*
X104181077Y-124418178D02*
X104066791Y-124456273D01*
X104066791Y-124456273D02*
X103876315Y-124456273D01*
X103876315Y-124456273D02*
X103800124Y-124418178D01*
X103800124Y-124418178D02*
X103762029Y-124380082D01*
X103762029Y-124380082D02*
X103723934Y-124303892D01*
X103723934Y-124303892D02*
X103723934Y-124227701D01*
X103723934Y-124227701D02*
X103762029Y-124151511D01*
X103762029Y-124151511D02*
X103800124Y-124113416D01*
X103800124Y-124113416D02*
X103876315Y-124075320D01*
X103876315Y-124075320D02*
X104028696Y-124037225D01*
X104028696Y-124037225D02*
X104104886Y-123999130D01*
X104104886Y-123999130D02*
X104142981Y-123961035D01*
X104142981Y-123961035D02*
X104181077Y-123884844D01*
X104181077Y-123884844D02*
X104181077Y-123808654D01*
X104181077Y-123808654D02*
X104142981Y-123732463D01*
X104142981Y-123732463D02*
X104104886Y-123694368D01*
X104104886Y-123694368D02*
X104028696Y-123656273D01*
X104028696Y-123656273D02*
X103838219Y-123656273D01*
X103838219Y-123656273D02*
X103723934Y-123694368D01*
X103038219Y-124418178D02*
X103114410Y-124456273D01*
X103114410Y-124456273D02*
X103266791Y-124456273D01*
X103266791Y-124456273D02*
X103342981Y-124418178D01*
X103342981Y-124418178D02*
X103381076Y-124380082D01*
X103381076Y-124380082D02*
X103419172Y-124303892D01*
X103419172Y-124303892D02*
X103419172Y-124075320D01*
X103419172Y-124075320D02*
X103381076Y-123999130D01*
X103381076Y-123999130D02*
X103342981Y-123961035D01*
X103342981Y-123961035D02*
X103266791Y-123922939D01*
X103266791Y-123922939D02*
X103114410Y-123922939D01*
X103114410Y-123922939D02*
X103038219Y-123961035D01*
X102695362Y-124456273D02*
X102695362Y-123922939D01*
X102695362Y-124075320D02*
X102657267Y-123999130D01*
X102657267Y-123999130D02*
X102619172Y-123961035D01*
X102619172Y-123961035D02*
X102542981Y-123922939D01*
X102542981Y-123922939D02*
X102466791Y-123922939D01*
X101857267Y-124456273D02*
X101857267Y-124037225D01*
X101857267Y-124037225D02*
X101895362Y-123961035D01*
X101895362Y-123961035D02*
X101971553Y-123922939D01*
X101971553Y-123922939D02*
X102123934Y-123922939D01*
X102123934Y-123922939D02*
X102200124Y-123961035D01*
X101857267Y-124418178D02*
X101933458Y-124456273D01*
X101933458Y-124456273D02*
X102123934Y-124456273D01*
X102123934Y-124456273D02*
X102200124Y-124418178D01*
X102200124Y-124418178D02*
X102238220Y-124341987D01*
X102238220Y-124341987D02*
X102238220Y-124265797D01*
X102238220Y-124265797D02*
X102200124Y-124189606D01*
X102200124Y-124189606D02*
X102123934Y-124151511D01*
X102123934Y-124151511D02*
X101933458Y-124151511D01*
X101933458Y-124151511D02*
X101857267Y-124113416D01*
X101476314Y-124456273D02*
X101476314Y-123922939D01*
X101476314Y-123999130D02*
X101438219Y-123961035D01*
X101438219Y-123961035D02*
X101362029Y-123922939D01*
X101362029Y-123922939D02*
X101247743Y-123922939D01*
X101247743Y-123922939D02*
X101171552Y-123961035D01*
X101171552Y-123961035D02*
X101133457Y-124037225D01*
X101133457Y-124037225D02*
X101133457Y-124456273D01*
X101133457Y-124037225D02*
X101095362Y-123961035D01*
X101095362Y-123961035D02*
X101019171Y-123922939D01*
X101019171Y-123922939D02*
X100904886Y-123922939D01*
X100904886Y-123922939D02*
X100828695Y-123961035D01*
X100828695Y-123961035D02*
X100790600Y-124037225D01*
X100790600Y-124037225D02*
X100790600Y-124456273D01*
X100409647Y-124456273D02*
X100409647Y-123656273D01*
X100409647Y-123961035D02*
X100333457Y-123922939D01*
X100333457Y-123922939D02*
X100181076Y-123922939D01*
X100181076Y-123922939D02*
X100104885Y-123961035D01*
X100104885Y-123961035D02*
X100066790Y-123999130D01*
X100066790Y-123999130D02*
X100028695Y-124075320D01*
X100028695Y-124075320D02*
X100028695Y-124303892D01*
X100028695Y-124303892D02*
X100066790Y-124380082D01*
X100066790Y-124380082D02*
X100104885Y-124418178D01*
X100104885Y-124418178D02*
X100181076Y-124456273D01*
X100181076Y-124456273D02*
X100333457Y-124456273D01*
X100333457Y-124456273D02*
X100409647Y-124418178D01*
X99571552Y-124456273D02*
X99647742Y-124418178D01*
X99647742Y-124418178D02*
X99685837Y-124341987D01*
X99685837Y-124341987D02*
X99685837Y-123656273D01*
X98962027Y-124418178D02*
X99038218Y-124456273D01*
X99038218Y-124456273D02*
X99190599Y-124456273D01*
X99190599Y-124456273D02*
X99266789Y-124418178D01*
X99266789Y-124418178D02*
X99304885Y-124341987D01*
X99304885Y-124341987D02*
X99304885Y-124037225D01*
X99304885Y-124037225D02*
X99266789Y-123961035D01*
X99266789Y-123961035D02*
X99190599Y-123922939D01*
X99190599Y-123922939D02*
X99038218Y-123922939D01*
X99038218Y-123922939D02*
X98962027Y-123961035D01*
X98962027Y-123961035D02*
X98923932Y-124037225D01*
X98923932Y-124037225D02*
X98923932Y-124113416D01*
X98923932Y-124113416D02*
X99304885Y-124189606D01*
X146875125Y-77843318D02*
X146417982Y-77843318D01*
X146646554Y-78643318D02*
X146646554Y-77843318D01*
X146151315Y-78224270D02*
X145884649Y-78224270D01*
X145770363Y-78643318D02*
X146151315Y-78643318D01*
X146151315Y-78643318D02*
X146151315Y-77843318D01*
X146151315Y-77843318D02*
X145770363Y-77843318D01*
X145427505Y-78643318D02*
X145427505Y-77843318D01*
X145427505Y-77843318D02*
X144970362Y-78643318D01*
X144970362Y-78643318D02*
X144970362Y-77843318D01*
X144703696Y-77843318D02*
X144246553Y-77843318D01*
X144475125Y-78643318D02*
X144475125Y-77843318D01*
X143979886Y-78643318D02*
X143979886Y-77843318D01*
X143598934Y-78643318D02*
X143598934Y-77843318D01*
X143598934Y-77843318D02*
X143141791Y-78643318D01*
X143141791Y-78643318D02*
X143141791Y-77843318D01*
X142341792Y-77881413D02*
X142417982Y-77843318D01*
X142417982Y-77843318D02*
X142532268Y-77843318D01*
X142532268Y-77843318D02*
X142646554Y-77881413D01*
X142646554Y-77881413D02*
X142722744Y-77957603D01*
X142722744Y-77957603D02*
X142760839Y-78033794D01*
X142760839Y-78033794D02*
X142798935Y-78186175D01*
X142798935Y-78186175D02*
X142798935Y-78300461D01*
X142798935Y-78300461D02*
X142760839Y-78452842D01*
X142760839Y-78452842D02*
X142722744Y-78529032D01*
X142722744Y-78529032D02*
X142646554Y-78605223D01*
X142646554Y-78605223D02*
X142532268Y-78643318D01*
X142532268Y-78643318D02*
X142456077Y-78643318D01*
X142456077Y-78643318D02*
X142341792Y-78605223D01*
X142341792Y-78605223D02*
X142303696Y-78567127D01*
X142303696Y-78567127D02*
X142303696Y-78300461D01*
X142303696Y-78300461D02*
X142456077Y-78300461D01*
X146760839Y-79931273D02*
X146760839Y-79131273D01*
X146760839Y-79131273D02*
X146456077Y-79131273D01*
X146456077Y-79131273D02*
X146379887Y-79169368D01*
X146379887Y-79169368D02*
X146341792Y-79207463D01*
X146341792Y-79207463D02*
X146303696Y-79283654D01*
X146303696Y-79283654D02*
X146303696Y-79397939D01*
X146303696Y-79397939D02*
X146341792Y-79474130D01*
X146341792Y-79474130D02*
X146379887Y-79512225D01*
X146379887Y-79512225D02*
X146456077Y-79550320D01*
X146456077Y-79550320D02*
X146760839Y-79550320D01*
X145960839Y-79131273D02*
X145960839Y-79778892D01*
X145960839Y-79778892D02*
X145922744Y-79855082D01*
X145922744Y-79855082D02*
X145884649Y-79893178D01*
X145884649Y-79893178D02*
X145808458Y-79931273D01*
X145808458Y-79931273D02*
X145656077Y-79931273D01*
X145656077Y-79931273D02*
X145579887Y-79893178D01*
X145579887Y-79893178D02*
X145541792Y-79855082D01*
X145541792Y-79855082D02*
X145503696Y-79778892D01*
X145503696Y-79778892D02*
X145503696Y-79131273D01*
X144665601Y-79855082D02*
X144703697Y-79893178D01*
X144703697Y-79893178D02*
X144817982Y-79931273D01*
X144817982Y-79931273D02*
X144894173Y-79931273D01*
X144894173Y-79931273D02*
X145008459Y-79893178D01*
X145008459Y-79893178D02*
X145084649Y-79816987D01*
X145084649Y-79816987D02*
X145122744Y-79740797D01*
X145122744Y-79740797D02*
X145160840Y-79588416D01*
X145160840Y-79588416D02*
X145160840Y-79474130D01*
X145160840Y-79474130D02*
X145122744Y-79321749D01*
X145122744Y-79321749D02*
X145084649Y-79245558D01*
X145084649Y-79245558D02*
X145008459Y-79169368D01*
X145008459Y-79169368D02*
X144894173Y-79131273D01*
X144894173Y-79131273D02*
X144817982Y-79131273D01*
X144817982Y-79131273D02*
X144703697Y-79169368D01*
X144703697Y-79169368D02*
X144665601Y-79207463D01*
X144322744Y-79931273D02*
X144322744Y-79131273D01*
X143865601Y-79931273D02*
X144208459Y-79474130D01*
X143865601Y-79131273D02*
X144322744Y-79588416D01*
X85454036Y-112993296D02*
X85339750Y-113031391D01*
X85339750Y-113031391D02*
X85301655Y-113069487D01*
X85301655Y-113069487D02*
X85263559Y-113145677D01*
X85263559Y-113145677D02*
X85263559Y-113259963D01*
X85263559Y-113259963D02*
X85301655Y-113336153D01*
X85301655Y-113336153D02*
X85339750Y-113374249D01*
X85339750Y-113374249D02*
X85415940Y-113412344D01*
X85415940Y-113412344D02*
X85720702Y-113412344D01*
X85720702Y-113412344D02*
X85720702Y-112612344D01*
X85720702Y-112612344D02*
X85454036Y-112612344D01*
X85454036Y-112612344D02*
X85377845Y-112650439D01*
X85377845Y-112650439D02*
X85339750Y-112688534D01*
X85339750Y-112688534D02*
X85301655Y-112764725D01*
X85301655Y-112764725D02*
X85301655Y-112840915D01*
X85301655Y-112840915D02*
X85339750Y-112917106D01*
X85339750Y-112917106D02*
X85377845Y-112955201D01*
X85377845Y-112955201D02*
X85454036Y-112993296D01*
X85454036Y-112993296D02*
X85720702Y-112993296D01*
X84958798Y-113183772D02*
X84577845Y-113183772D01*
X85034988Y-113412344D02*
X84768321Y-112612344D01*
X84768321Y-112612344D02*
X84501655Y-113412344D01*
X84349274Y-112612344D02*
X83892131Y-112612344D01*
X84120703Y-113412344D02*
X84120703Y-112612344D01*
X83739750Y-112612344D02*
X83282607Y-112612344D01*
X83511179Y-113412344D02*
X83511179Y-112612344D01*
X87888094Y-123042061D02*
X88154761Y-122661108D01*
X88345237Y-123042061D02*
X88345237Y-122242061D01*
X88345237Y-122242061D02*
X88040475Y-122242061D01*
X88040475Y-122242061D02*
X87964285Y-122280156D01*
X87964285Y-122280156D02*
X87926190Y-122318251D01*
X87926190Y-122318251D02*
X87888094Y-122394442D01*
X87888094Y-122394442D02*
X87888094Y-122508727D01*
X87888094Y-122508727D02*
X87926190Y-122584918D01*
X87926190Y-122584918D02*
X87964285Y-122623013D01*
X87964285Y-122623013D02*
X88040475Y-122661108D01*
X88040475Y-122661108D02*
X88345237Y-122661108D01*
X87583333Y-123003966D02*
X87469047Y-123042061D01*
X87469047Y-123042061D02*
X87278571Y-123042061D01*
X87278571Y-123042061D02*
X87202380Y-123003966D01*
X87202380Y-123003966D02*
X87164285Y-122965870D01*
X87164285Y-122965870D02*
X87126190Y-122889680D01*
X87126190Y-122889680D02*
X87126190Y-122813489D01*
X87126190Y-122813489D02*
X87164285Y-122737299D01*
X87164285Y-122737299D02*
X87202380Y-122699204D01*
X87202380Y-122699204D02*
X87278571Y-122661108D01*
X87278571Y-122661108D02*
X87430952Y-122623013D01*
X87430952Y-122623013D02*
X87507142Y-122584918D01*
X87507142Y-122584918D02*
X87545237Y-122546823D01*
X87545237Y-122546823D02*
X87583333Y-122470632D01*
X87583333Y-122470632D02*
X87583333Y-122394442D01*
X87583333Y-122394442D02*
X87545237Y-122318251D01*
X87545237Y-122318251D02*
X87507142Y-122280156D01*
X87507142Y-122280156D02*
X87430952Y-122242061D01*
X87430952Y-122242061D02*
X87240475Y-122242061D01*
X87240475Y-122242061D02*
X87126190Y-122280156D01*
X86897618Y-122242061D02*
X86440475Y-122242061D01*
X86669047Y-123042061D02*
X86669047Y-122242061D01*
X90270238Y-107393247D02*
X90155952Y-107431342D01*
X90155952Y-107431342D02*
X90117857Y-107469438D01*
X90117857Y-107469438D02*
X90079761Y-107545628D01*
X90079761Y-107545628D02*
X90079761Y-107659914D01*
X90079761Y-107659914D02*
X90117857Y-107736104D01*
X90117857Y-107736104D02*
X90155952Y-107774200D01*
X90155952Y-107774200D02*
X90232142Y-107812295D01*
X90232142Y-107812295D02*
X90536904Y-107812295D01*
X90536904Y-107812295D02*
X90536904Y-107012295D01*
X90536904Y-107012295D02*
X90270238Y-107012295D01*
X90270238Y-107012295D02*
X90194047Y-107050390D01*
X90194047Y-107050390D02*
X90155952Y-107088485D01*
X90155952Y-107088485D02*
X90117857Y-107164676D01*
X90117857Y-107164676D02*
X90117857Y-107240866D01*
X90117857Y-107240866D02*
X90155952Y-107317057D01*
X90155952Y-107317057D02*
X90194047Y-107355152D01*
X90194047Y-107355152D02*
X90270238Y-107393247D01*
X90270238Y-107393247D02*
X90536904Y-107393247D01*
X89775000Y-107583723D02*
X89394047Y-107583723D01*
X89851190Y-107812295D02*
X89584523Y-107012295D01*
X89584523Y-107012295D02*
X89317857Y-107812295D01*
X89165476Y-107012295D02*
X88708333Y-107012295D01*
X88936905Y-107812295D02*
X88936905Y-107012295D01*
X88555952Y-107012295D02*
X88098809Y-107012295D01*
X88327381Y-107812295D02*
X88327381Y-107012295D01*
X101690475Y-120593247D02*
X101423809Y-120593247D01*
X101309523Y-121012295D02*
X101690475Y-121012295D01*
X101690475Y-121012295D02*
X101690475Y-120212295D01*
X101690475Y-120212295D02*
X101309523Y-120212295D01*
X100966665Y-121012295D02*
X100966665Y-120212295D01*
X100966665Y-120212295D02*
X100509522Y-121012295D01*
X100509522Y-121012295D02*
X100509522Y-120212295D01*
X99671427Y-120936104D02*
X99709523Y-120974200D01*
X99709523Y-120974200D02*
X99823808Y-121012295D01*
X99823808Y-121012295D02*
X99899999Y-121012295D01*
X99899999Y-121012295D02*
X100014285Y-120974200D01*
X100014285Y-120974200D02*
X100090475Y-120898009D01*
X100090475Y-120898009D02*
X100128570Y-120821819D01*
X100128570Y-120821819D02*
X100166666Y-120669438D01*
X100166666Y-120669438D02*
X100166666Y-120555152D01*
X100166666Y-120555152D02*
X100128570Y-120402771D01*
X100128570Y-120402771D02*
X100090475Y-120326580D01*
X100090475Y-120326580D02*
X100014285Y-120250390D01*
X100014285Y-120250390D02*
X99899999Y-120212295D01*
X99899999Y-120212295D02*
X99823808Y-120212295D01*
X99823808Y-120212295D02*
X99709523Y-120250390D01*
X99709523Y-120250390D02*
X99671427Y-120288485D01*
X109911904Y-100462295D02*
X109759523Y-100462295D01*
X109759523Y-100462295D02*
X109683333Y-100500390D01*
X109683333Y-100500390D02*
X109607142Y-100576580D01*
X109607142Y-100576580D02*
X109569047Y-100728961D01*
X109569047Y-100728961D02*
X109569047Y-100995628D01*
X109569047Y-100995628D02*
X109607142Y-101148009D01*
X109607142Y-101148009D02*
X109683333Y-101224200D01*
X109683333Y-101224200D02*
X109759523Y-101262295D01*
X109759523Y-101262295D02*
X109911904Y-101262295D01*
X109911904Y-101262295D02*
X109988095Y-101224200D01*
X109988095Y-101224200D02*
X110064285Y-101148009D01*
X110064285Y-101148009D02*
X110102381Y-100995628D01*
X110102381Y-100995628D02*
X110102381Y-100728961D01*
X110102381Y-100728961D02*
X110064285Y-100576580D01*
X110064285Y-100576580D02*
X109988095Y-100500390D01*
X109988095Y-100500390D02*
X109911904Y-100462295D01*
X108845238Y-101262295D02*
X109226190Y-101262295D01*
X109226190Y-101262295D02*
X109226190Y-100462295D01*
X108578571Y-100843247D02*
X108311905Y-100843247D01*
X108197619Y-101262295D02*
X108578571Y-101262295D01*
X108578571Y-101262295D02*
X108578571Y-100462295D01*
X108578571Y-100462295D02*
X108197619Y-100462295D01*
X107854761Y-101262295D02*
X107854761Y-100462295D01*
X107854761Y-100462295D02*
X107664285Y-100462295D01*
X107664285Y-100462295D02*
X107549999Y-100500390D01*
X107549999Y-100500390D02*
X107473809Y-100576580D01*
X107473809Y-100576580D02*
X107435714Y-100652771D01*
X107435714Y-100652771D02*
X107397618Y-100805152D01*
X107397618Y-100805152D02*
X107397618Y-100919438D01*
X107397618Y-100919438D02*
X107435714Y-101071819D01*
X107435714Y-101071819D02*
X107473809Y-101148009D01*
X107473809Y-101148009D02*
X107549999Y-101224200D01*
X107549999Y-101224200D02*
X107664285Y-101262295D01*
X107664285Y-101262295D02*
X107854761Y-101262295D01*
X156984283Y-108261992D02*
X156869997Y-108300087D01*
X156869997Y-108300087D02*
X156831902Y-108338183D01*
X156831902Y-108338183D02*
X156793806Y-108414373D01*
X156793806Y-108414373D02*
X156793806Y-108528659D01*
X156793806Y-108528659D02*
X156831902Y-108604849D01*
X156831902Y-108604849D02*
X156869997Y-108642945D01*
X156869997Y-108642945D02*
X156946187Y-108681040D01*
X156946187Y-108681040D02*
X157250949Y-108681040D01*
X157250949Y-108681040D02*
X157250949Y-107881040D01*
X157250949Y-107881040D02*
X156984283Y-107881040D01*
X156984283Y-107881040D02*
X156908092Y-107919135D01*
X156908092Y-107919135D02*
X156869997Y-107957230D01*
X156869997Y-107957230D02*
X156831902Y-108033421D01*
X156831902Y-108033421D02*
X156831902Y-108109611D01*
X156831902Y-108109611D02*
X156869997Y-108185802D01*
X156869997Y-108185802D02*
X156908092Y-108223897D01*
X156908092Y-108223897D02*
X156984283Y-108261992D01*
X156984283Y-108261992D02*
X157250949Y-108261992D01*
X156450949Y-107881040D02*
X156450949Y-108528659D01*
X156450949Y-108528659D02*
X156412854Y-108604849D01*
X156412854Y-108604849D02*
X156374759Y-108642945D01*
X156374759Y-108642945D02*
X156298568Y-108681040D01*
X156298568Y-108681040D02*
X156146187Y-108681040D01*
X156146187Y-108681040D02*
X156069997Y-108642945D01*
X156069997Y-108642945D02*
X156031902Y-108604849D01*
X156031902Y-108604849D02*
X155993806Y-108528659D01*
X155993806Y-108528659D02*
X155993806Y-107881040D01*
X155689045Y-107881040D02*
X155155711Y-107881040D01*
X155155711Y-107881040D02*
X155689045Y-108681040D01*
X155689045Y-108681040D02*
X155155711Y-108681040D01*
X154927140Y-107881040D02*
X154393806Y-107881040D01*
X154393806Y-107881040D02*
X154927140Y-108681040D01*
X154927140Y-108681040D02*
X154393806Y-108681040D01*
X154089044Y-108261992D02*
X153822378Y-108261992D01*
X153708092Y-108681040D02*
X154089044Y-108681040D01*
X154089044Y-108681040D02*
X154089044Y-107881040D01*
X154089044Y-107881040D02*
X153708092Y-107881040D01*
X152908091Y-108681040D02*
X153174758Y-108300087D01*
X153365234Y-108681040D02*
X153365234Y-107881040D01*
X153365234Y-107881040D02*
X153060472Y-107881040D01*
X153060472Y-107881040D02*
X152984282Y-107919135D01*
X152984282Y-107919135D02*
X152946187Y-107957230D01*
X152946187Y-107957230D02*
X152908091Y-108033421D01*
X152908091Y-108033421D02*
X152908091Y-108147706D01*
X152908091Y-108147706D02*
X152946187Y-108223897D01*
X152946187Y-108223897D02*
X152984282Y-108261992D01*
X152984282Y-108261992D02*
X153060472Y-108300087D01*
X153060472Y-108300087D02*
X153365234Y-108300087D01*
D14*
X110878006Y-124464838D02*
X110878006Y-122464838D01*
X110306578Y-124464838D02*
X110735149Y-123321980D01*
X110306578Y-122464838D02*
X110878006Y-123607695D01*
X109401816Y-124464838D02*
X109878006Y-124464838D01*
X109878006Y-124464838D02*
X109878006Y-122464838D01*
X109116101Y-123893409D02*
X108639911Y-123893409D01*
X109211339Y-124464838D02*
X108878006Y-122464838D01*
X108878006Y-122464838D02*
X108544673Y-124464838D01*
X108306577Y-122464838D02*
X108068482Y-124464838D01*
X108068482Y-124464838D02*
X107878006Y-123036266D01*
X107878006Y-123036266D02*
X107687530Y-124464838D01*
X107687530Y-124464838D02*
X107449435Y-122464838D01*
D11*
X94984523Y-122812295D02*
X94527380Y-122812295D01*
X94755952Y-123612295D02*
X94755952Y-122812295D01*
X93803570Y-123612295D02*
X94070237Y-123231342D01*
X94260713Y-123612295D02*
X94260713Y-122812295D01*
X94260713Y-122812295D02*
X93955951Y-122812295D01*
X93955951Y-122812295D02*
X93879761Y-122850390D01*
X93879761Y-122850390D02*
X93841666Y-122888485D01*
X93841666Y-122888485D02*
X93803570Y-122964676D01*
X93803570Y-122964676D02*
X93803570Y-123078961D01*
X93803570Y-123078961D02*
X93841666Y-123155152D01*
X93841666Y-123155152D02*
X93879761Y-123193247D01*
X93879761Y-123193247D02*
X93955951Y-123231342D01*
X93955951Y-123231342D02*
X94260713Y-123231342D01*
X93003570Y-123612295D02*
X93270237Y-123231342D01*
X93460713Y-123612295D02*
X93460713Y-122812295D01*
X93460713Y-122812295D02*
X93155951Y-122812295D01*
X93155951Y-122812295D02*
X93079761Y-122850390D01*
X93079761Y-122850390D02*
X93041666Y-122888485D01*
X93041666Y-122888485D02*
X93003570Y-122964676D01*
X93003570Y-122964676D02*
X93003570Y-123078961D01*
X93003570Y-123078961D02*
X93041666Y-123155152D01*
X93041666Y-123155152D02*
X93079761Y-123193247D01*
X93079761Y-123193247D02*
X93155951Y-123231342D01*
X93155951Y-123231342D02*
X93460713Y-123231342D01*
X92698809Y-123574200D02*
X92584523Y-123612295D01*
X92584523Y-123612295D02*
X92394047Y-123612295D01*
X92394047Y-123612295D02*
X92317856Y-123574200D01*
X92317856Y-123574200D02*
X92279761Y-123536104D01*
X92279761Y-123536104D02*
X92241666Y-123459914D01*
X92241666Y-123459914D02*
X92241666Y-123383723D01*
X92241666Y-123383723D02*
X92279761Y-123307533D01*
X92279761Y-123307533D02*
X92317856Y-123269438D01*
X92317856Y-123269438D02*
X92394047Y-123231342D01*
X92394047Y-123231342D02*
X92546428Y-123193247D01*
X92546428Y-123193247D02*
X92622618Y-123155152D01*
X92622618Y-123155152D02*
X92660713Y-123117057D01*
X92660713Y-123117057D02*
X92698809Y-123040866D01*
X92698809Y-123040866D02*
X92698809Y-122964676D01*
X92698809Y-122964676D02*
X92660713Y-122888485D01*
X92660713Y-122888485D02*
X92622618Y-122850390D01*
X92622618Y-122850390D02*
X92546428Y-122812295D01*
X92546428Y-122812295D02*
X92355951Y-122812295D01*
X92355951Y-122812295D02*
X92241666Y-122850390D01*
%TO.C,SW4*%
D13*
X175833841Y-76289925D02*
X184213380Y-76875879D01*
X175858255Y-75940778D02*
X175833841Y-76289925D01*
X176015206Y-73696258D02*
X176214720Y-73710210D01*
X176057768Y-75954729D02*
X175858255Y-75940778D01*
X176084964Y-72698694D02*
X176015206Y-73696258D01*
X176234672Y-73711605D02*
X176077719Y-75956124D01*
X181072784Y-73047477D02*
X176084964Y-72698694D01*
D15*
X182522340Y-66231990D02*
X182623486Y-64785523D01*
X182623486Y-64785523D02*
X184668493Y-64928523D01*
X184567346Y-66374991D02*
X182522340Y-66231990D01*
X184668493Y-64928523D02*
X184567346Y-66374991D01*
D13*
X186281117Y-74113388D02*
X186437372Y-71878845D01*
X186440800Y-75126996D02*
X186510557Y-74129432D01*
X186467299Y-71880937D02*
X186666811Y-71894889D01*
X186510557Y-74129432D02*
X186311044Y-74115481D01*
X186691924Y-71535766D02*
X183419914Y-71306964D01*
X186691924Y-71535766D02*
X186666811Y-71894889D01*
X183414743Y-71328126D02*
G75*
G02*
X181072784Y-73047477I-2125745J440828D01*
G01*
X186440801Y-75126995D02*
G75*
G02*
X184213380Y-76875881I-1988152J239266D01*
G01*
%TO.C,D10*%
D11*
X193133423Y-110917974D02*
X194141304Y-110384892D01*
X193254977Y-110228607D02*
X193011869Y-111607339D01*
X193898196Y-111763623D02*
X193133423Y-110917974D01*
X194141304Y-110384892D02*
X193898196Y-111763623D01*
%TO.C,D7*%
X136497000Y-95497000D02*
X136497000Y-96897000D01*
X136497000Y-96197000D02*
X137397000Y-95497000D01*
X137397000Y-95497000D02*
X137397000Y-96897000D01*
X137397000Y-96897000D02*
X136497000Y-96197000D01*
%TO.C,D15*%
X174097077Y-116283708D02*
X175043714Y-115648194D01*
X174145907Y-115585413D02*
X174048247Y-116982003D01*
X174946055Y-117044783D02*
X174097077Y-116283708D01*
X175043714Y-115648194D02*
X174946055Y-117044783D01*
%TO.C,SW21*%
D13*
X118230352Y-135667286D02*
X118489171Y-136633212D01*
X118489171Y-136633212D02*
X118682357Y-136581448D01*
X118701675Y-136576272D02*
X119284018Y-138749605D01*
X119071514Y-138806545D02*
X119162101Y-139144619D01*
X119162101Y-139144619D02*
X127275879Y-136970539D01*
X119264699Y-138754781D02*
X119071514Y-138806545D01*
D15*
X121836370Y-126056500D02*
X123816518Y-125525921D01*
X122211658Y-127457093D02*
X121836370Y-126056500D01*
D13*
X123059981Y-134373191D02*
X118230352Y-135667286D01*
D15*
X123816518Y-125525921D02*
X124191806Y-126926514D01*
X124191806Y-126926514D02*
X122211658Y-127457093D01*
D13*
X127780807Y-131513924D02*
X127973992Y-131462160D01*
X127880817Y-131114427D02*
X124712581Y-131963354D01*
X127880817Y-131114427D02*
X127973992Y-131462160D01*
X128331584Y-133685363D02*
X127751829Y-131521689D01*
X128553747Y-133625834D02*
X128360562Y-133677598D01*
X128812566Y-134591760D02*
X128553747Y-133625834D01*
X124714581Y-131985046D02*
G75*
G02*
X123059981Y-134373190I-2153450J-275263D01*
G01*
X128812566Y-134591759D02*
G75*
G02*
X127275879Y-136970540I-1957732J-421048D01*
G01*
%TO.C,SW8*%
X154511399Y-81675260D02*
X154511399Y-82675260D01*
X154511399Y-82675260D02*
X154711399Y-82675260D01*
X154511399Y-84925260D02*
X154511399Y-85275260D01*
X154511399Y-85275260D02*
X162911400Y-85275260D01*
X154711399Y-84925260D02*
X154511399Y-84925260D01*
X154731399Y-82675260D02*
X154731399Y-84925260D01*
X159511399Y-81675260D02*
X154511399Y-81675260D01*
D15*
X160481999Y-73325260D02*
X162531999Y-73325260D01*
X160481999Y-74775260D02*
X160481999Y-73325260D01*
X162531999Y-73325260D02*
X162531999Y-74775260D01*
X162531999Y-74775260D02*
X160481999Y-74775260D01*
D13*
X164781399Y-82375260D02*
X164781399Y-80135260D01*
X164811399Y-80135260D02*
X165011399Y-80135260D01*
X165011399Y-79775260D02*
X161731399Y-79775260D01*
X165011399Y-79775260D02*
X165011399Y-80135260D01*
X165011399Y-82375260D02*
X164811399Y-82375260D01*
X165011399Y-83375260D02*
X165011399Y-82375260D01*
X161727717Y-79796731D02*
G75*
G02*
X159511399Y-81675260I-2151317J291470D01*
G01*
X165011399Y-83375259D02*
G75*
G02*
X162911400Y-85275261I-1999999J99997D01*
G01*
%TO.C,D21*%
D11*
X128530380Y-125788544D02*
X128973590Y-124738037D01*
X128973590Y-124738037D02*
X129882676Y-125426197D01*
X129649739Y-124556864D02*
X128297442Y-124919209D01*
X129882676Y-125426197D02*
X128530380Y-125788544D01*
%TO.C,BZ1*%
D16*
X153291506Y-108797549D02*
X153291506Y-112047549D01*
X153291506Y-114747549D02*
X153291506Y-117997549D01*
X153291506Y-117997549D02*
X164491506Y-117997549D01*
X164491506Y-108797549D02*
X153291506Y-108797549D01*
X164491506Y-112047549D02*
X164491506Y-108797549D01*
X164491506Y-117997549D02*
X164491506Y-114747549D01*
%TO.C,SW15*%
D13*
X173172967Y-114342197D02*
X181552506Y-114928151D01*
X173197381Y-113993050D02*
X173172967Y-114342197D01*
X173354332Y-111748530D02*
X173553846Y-111762482D01*
X173396894Y-114007001D02*
X173197381Y-113993050D01*
X173424090Y-110750966D02*
X173354332Y-111748530D01*
X173573798Y-111763877D02*
X173416845Y-114008396D01*
X178411910Y-111099749D02*
X173424090Y-110750966D01*
D15*
X179861466Y-104284262D02*
X179962612Y-102837795D01*
X179962612Y-102837795D02*
X182007619Y-102980795D01*
X181906472Y-104427263D02*
X179861466Y-104284262D01*
X182007619Y-102980795D02*
X181906472Y-104427263D01*
D13*
X183620243Y-112165660D02*
X183776498Y-109931117D01*
X183779926Y-113179268D02*
X183849683Y-112181704D01*
X183806425Y-109933209D02*
X184005937Y-109947161D01*
X183849683Y-112181704D02*
X183650170Y-112167753D01*
X184031050Y-109588038D02*
X180759040Y-109359236D01*
X184031050Y-109588038D02*
X184005937Y-109947161D01*
X180753869Y-109380398D02*
G75*
G02*
X178411910Y-111099749I-2125745J440828D01*
G01*
X183779927Y-113179267D02*
G75*
G02*
X181552506Y-114928153I-1988152J239266D01*
G01*
%TO.C,SW6*%
X116467969Y-93675260D02*
X116467969Y-94675260D01*
X116467969Y-94675260D02*
X116667969Y-94675260D01*
X116467969Y-96925260D02*
X116467969Y-97275260D01*
X116467969Y-97275260D02*
X124867970Y-97275260D01*
X116667969Y-96925260D02*
X116467969Y-96925260D01*
X116687969Y-94675260D02*
X116687969Y-96925260D01*
X121467969Y-93675260D02*
X116467969Y-93675260D01*
D15*
X122438569Y-85325260D02*
X124488569Y-85325260D01*
X122438569Y-86775260D02*
X122438569Y-85325260D01*
X124488569Y-85325260D02*
X124488569Y-86775260D01*
X124488569Y-86775260D02*
X122438569Y-86775260D01*
D13*
X126737969Y-94375260D02*
X126737969Y-92135260D01*
X126767969Y-92135260D02*
X126967969Y-92135260D01*
X126967969Y-91775260D02*
X123687969Y-91775260D01*
X126967969Y-91775260D02*
X126967969Y-92135260D01*
X126967969Y-94375260D02*
X126767969Y-94375260D01*
X126967969Y-95375260D02*
X126967969Y-94375260D01*
X123684287Y-91796731D02*
G75*
G02*
X121467969Y-93675260I-2151317J291470D01*
G01*
X126967969Y-95375259D02*
G75*
G02*
X124867970Y-97275261I-1999999J99997D01*
G01*
%TO.C,D14*%
D11*
X154500000Y-105600000D02*
X154500000Y-107000000D01*
X154500000Y-106300000D02*
X155400000Y-105600000D01*
X155400000Y-105600000D02*
X155400000Y-107000000D01*
X155400000Y-107000000D02*
X154500000Y-106300000D01*
%TO.C,SW18*%
D16*
X89490000Y-108050000D02*
X89490000Y-119850000D01*
X93590000Y-108050000D02*
X89490000Y-108050000D01*
X93590000Y-119850000D02*
X89490000Y-119850000D01*
X95090000Y-113950000D02*
X96090000Y-113950000D01*
X95590000Y-113450000D02*
X95590000Y-114450000D01*
X97590000Y-108050000D02*
X101690000Y-108050000D01*
X101690000Y-108050000D02*
X101690000Y-110450000D01*
X101690000Y-112650000D02*
X101690000Y-115250000D01*
X101690000Y-117450000D02*
X101690000Y-119850000D01*
X101690000Y-119850000D02*
X97590000Y-119850000D01*
X98590000Y-113950000D02*
G75*
G02*
X92590000Y-113950000I-3000000J0D01*
G01*
X92590000Y-113950000D02*
G75*
G02*
X98590000Y-113950000I3000000J0D01*
G01*
%TO.C,OLED1*%
X91429110Y-97255000D02*
X101429110Y-97255000D01*
X101429110Y-99655000D01*
X91429110Y-99655000D01*
X91429110Y-97255000D01*
X83179110Y-80255000D02*
X109579110Y-80255000D01*
X109579110Y-96855000D01*
X83179110Y-96855000D01*
X83179110Y-80255000D01*
X82729110Y-72855000D02*
X110129110Y-72855000D01*
X110129110Y-100155000D01*
X82729110Y-100155000D01*
X82729110Y-72855000D01*
%TO.C,J1*%
D11*
X82775000Y-125850000D02*
X94775000Y-125850000D01*
X82775000Y-131850000D02*
X82775000Y-125850000D01*
X94775000Y-125850000D02*
X94775000Y-131850000D01*
X94775000Y-131850000D02*
X82775000Y-131850000D01*
%TO.C,D6*%
X116500000Y-98500000D02*
X116500000Y-99900000D01*
X116500000Y-99200000D02*
X117400000Y-98500000D01*
X117400000Y-98500000D02*
X117400000Y-99900000D01*
X117400000Y-99900000D02*
X116500000Y-99200000D01*
%TO.C,SW12*%
D13*
X116467969Y-112747857D02*
X116467969Y-113747857D01*
X116467969Y-113747857D02*
X116667969Y-113747857D01*
X116467969Y-115997857D02*
X116467969Y-116347857D01*
X116467969Y-116347857D02*
X124867970Y-116347857D01*
X116667969Y-115997857D02*
X116467969Y-115997857D01*
X116687969Y-113747857D02*
X116687969Y-115997857D01*
X121467969Y-112747857D02*
X116467969Y-112747857D01*
D15*
X122438569Y-104397857D02*
X124488569Y-104397857D01*
X122438569Y-105847857D02*
X122438569Y-104397857D01*
X124488569Y-104397857D02*
X124488569Y-105847857D01*
X124488569Y-105847857D02*
X122438569Y-105847857D01*
D13*
X126737969Y-113447857D02*
X126737969Y-111207857D01*
X126767969Y-111207857D02*
X126967969Y-111207857D01*
X126967969Y-110847857D02*
X123687969Y-110847857D01*
X126967969Y-110847857D02*
X126967969Y-111207857D01*
X126967969Y-113447857D02*
X126767969Y-113447857D01*
X126967969Y-114447857D02*
X126967969Y-113447857D01*
X123684287Y-110869328D02*
G75*
G02*
X121467969Y-112747857I-2151317J291470D01*
G01*
X126967969Y-114447856D02*
G75*
G02*
X124867970Y-116347858I-1999999J99997D01*
G01*
%TO.C,D5*%
D11*
X196433423Y-92117974D02*
X197441304Y-91584892D01*
X196554977Y-91428607D02*
X196311869Y-92807339D01*
X197198196Y-92963623D02*
X196433423Y-92117974D01*
X197441304Y-91584892D02*
X197198196Y-92963623D01*
%TO.C,D20*%
X107115782Y-132596167D02*
X107272000Y-131466744D01*
X107272000Y-131466744D02*
X108328218Y-131896167D01*
X107878218Y-131116744D02*
X106665782Y-131816744D01*
X108328218Y-131896167D02*
X107115782Y-132596167D01*
%TO.C,SW1*%
D13*
X116467969Y-74602664D02*
X116467969Y-75602664D01*
X116467969Y-75602664D02*
X116667969Y-75602664D01*
X116467969Y-77852664D02*
X116467969Y-78202664D01*
X116467969Y-78202664D02*
X124867970Y-78202664D01*
X116667969Y-77852664D02*
X116467969Y-77852664D01*
X116687969Y-75602664D02*
X116687969Y-77852664D01*
X121467969Y-74602664D02*
X116467969Y-74602664D01*
D15*
X122438569Y-66252664D02*
X124488569Y-66252664D01*
X122438569Y-67702664D02*
X122438569Y-66252664D01*
X124488569Y-66252664D02*
X124488569Y-67702664D01*
X124488569Y-67702664D02*
X122438569Y-67702664D01*
D13*
X126737969Y-75302664D02*
X126737969Y-73062664D01*
X126767969Y-73062664D02*
X126967969Y-73062664D01*
X126967969Y-72702664D02*
X123687969Y-72702664D01*
X126967969Y-72702664D02*
X126967969Y-73062664D01*
X126967969Y-75302664D02*
X126767969Y-75302664D01*
X126967969Y-76302664D02*
X126967969Y-75302664D01*
X123684287Y-72724135D02*
G75*
G02*
X121467969Y-74602664I-2151317J291470D01*
G01*
X126967969Y-76302663D02*
G75*
G02*
X124867970Y-78202665I-1999999J99997D01*
G01*
%TO.C,BT1*%
D16*
X82815000Y-100732660D02*
X90635000Y-100732660D01*
X82815000Y-101652660D02*
X82815000Y-100732660D01*
X82815000Y-105932660D02*
X84415000Y-105932660D01*
X82815000Y-106852660D02*
X82815000Y-105932660D01*
X84415000Y-100732660D02*
X84415000Y-101652660D01*
X84415000Y-101652660D02*
X82815000Y-101652660D01*
X84415000Y-101932660D02*
X83200000Y-101932660D01*
X84415000Y-101932660D02*
X84415000Y-101652660D01*
X84415000Y-105932660D02*
X84415000Y-105652660D01*
X84415000Y-106852660D02*
X84415000Y-105932660D01*
X86275000Y-103292660D02*
X86275000Y-104292660D01*
X86275000Y-104292660D02*
X90635000Y-104292660D01*
X86775000Y-101492660D02*
X88375000Y-101492660D01*
X86775000Y-102492660D02*
X86775000Y-101492660D01*
X86775000Y-105092660D02*
X86775000Y-106092660D01*
X86775000Y-106092660D02*
X88375000Y-106092660D01*
X88375000Y-101492660D02*
X88375000Y-102492660D01*
X88375000Y-101992660D02*
X90635000Y-101992660D01*
X88375000Y-102492660D02*
X86775000Y-102492660D01*
X88375000Y-102492660D02*
X90635000Y-102492660D01*
X88375000Y-105092660D02*
X86775000Y-105092660D01*
X88375000Y-106092660D02*
X88375000Y-105092660D01*
X90635000Y-100732660D02*
X90635000Y-106852660D01*
X90635000Y-103292660D02*
X86275000Y-103292660D01*
X90635000Y-106852660D02*
X82815000Y-106852660D01*
%TO.C,SW9*%
D13*
X174503404Y-95316060D02*
X182882943Y-95902014D01*
X174527818Y-94966913D02*
X174503404Y-95316060D01*
X174684769Y-92722393D02*
X174884283Y-92736345D01*
X174727331Y-94980864D02*
X174527818Y-94966913D01*
X174754527Y-91724829D02*
X174684769Y-92722393D01*
X174904235Y-92737740D02*
X174747282Y-94982259D01*
X179742347Y-92073612D02*
X174754527Y-91724829D01*
D15*
X181191903Y-85258125D02*
X181293049Y-83811658D01*
X181293049Y-83811658D02*
X183338056Y-83954658D01*
X183236909Y-85401126D02*
X181191903Y-85258125D01*
X183338056Y-83954658D02*
X183236909Y-85401126D01*
D13*
X184950680Y-93139523D02*
X185106935Y-90904980D01*
X185110363Y-94153131D02*
X185180120Y-93155567D01*
X185136862Y-90907072D02*
X185336374Y-90921024D01*
X185180120Y-93155567D02*
X184980607Y-93141616D01*
X185361487Y-90561901D02*
X182089477Y-90333099D01*
X185361487Y-90561901D02*
X185336374Y-90921024D01*
X182084306Y-90354261D02*
G75*
G02*
X179742347Y-92073612I-2125745J440828D01*
G01*
X185110364Y-94153130D02*
G75*
G02*
X182882943Y-95902016I-1988152J239266D01*
G01*
%TO.C,RSW1*%
D16*
X83100000Y-121254766D02*
X83100000Y-119254766D01*
X85900000Y-117854766D02*
X84900000Y-117854766D01*
X85900000Y-118454766D02*
X85900000Y-117854766D01*
X85900000Y-122054766D02*
X85900000Y-122654766D01*
X85900000Y-122654766D02*
X84900000Y-122654766D01*
%TO.C,D2*%
D11*
X135500000Y-76400000D02*
X135500000Y-77800000D01*
X135500000Y-77100000D02*
X136400000Y-76400000D01*
X136400000Y-76400000D02*
X136400000Y-77800000D01*
X136400000Y-77800000D02*
X135500000Y-77100000D01*
%TO.C,D3*%
X154600000Y-67400000D02*
X154600000Y-68800000D01*
X154600000Y-68100000D02*
X155500000Y-67400000D01*
X155500000Y-67400000D02*
X155500000Y-68800000D01*
X155500000Y-68800000D02*
X154600000Y-68100000D01*
%TO.C,D8*%
X154579000Y-86485000D02*
X154579000Y-87885000D01*
X154579000Y-87185000D02*
X155479000Y-86485000D01*
X155479000Y-86485000D02*
X155479000Y-87885000D01*
X155479000Y-87885000D02*
X154579000Y-87185000D01*
%TO.C,D16*%
X189807596Y-129613176D02*
X190815477Y-129080094D01*
X189929150Y-128923809D02*
X189686042Y-130302541D01*
X190572369Y-130458825D02*
X189807596Y-129613176D01*
X190815477Y-129080094D02*
X190572369Y-130458825D01*
%TO.C,D18*%
X100380000Y-106260000D02*
X100380000Y-107660000D01*
X100380000Y-106960000D02*
X101280000Y-106260000D01*
X101280000Y-106260000D02*
X101280000Y-107660000D01*
X101280000Y-107660000D02*
X100380000Y-106960000D01*
%TO.C,SW3*%
D13*
X154511399Y-62602664D02*
X154511399Y-63602664D01*
X154511399Y-63602664D02*
X154711399Y-63602664D01*
X154511399Y-65852664D02*
X154511399Y-66202664D01*
X154511399Y-66202664D02*
X162911400Y-66202664D01*
X154711399Y-65852664D02*
X154511399Y-65852664D01*
X154731399Y-63602664D02*
X154731399Y-65852664D01*
X159511399Y-62602664D02*
X154511399Y-62602664D01*
D15*
X160481999Y-54252664D02*
X162531999Y-54252664D01*
X160481999Y-55702664D02*
X160481999Y-54252664D01*
X162531999Y-54252664D02*
X162531999Y-55702664D01*
X162531999Y-55702664D02*
X160481999Y-55702664D01*
D13*
X164781399Y-63302664D02*
X164781399Y-61062664D01*
X164811399Y-61062664D02*
X165011399Y-61062664D01*
X165011399Y-60702664D02*
X161731399Y-60702664D01*
X165011399Y-60702664D02*
X165011399Y-61062664D01*
X165011399Y-63302664D02*
X164811399Y-63302664D01*
X165011399Y-64302664D02*
X165011399Y-63302664D01*
X161727717Y-60724135D02*
G75*
G02*
X159511399Y-62602664I-2151317J291470D01*
G01*
X165011399Y-64302663D02*
G75*
G02*
X162911400Y-66202665I-1999999J99997D01*
G01*
%TO.C,REF\u002A\u002A*%
D14*
X129828479Y-93281304D02*
G75*
G02*
X130862344Y-89130759I20320000J-2857500D01*
G01*
X130862344Y-103146849D02*
G75*
G02*
X129828479Y-98996304I19286154J7008051D01*
G01*
X143140433Y-76852669D02*
G75*
G02*
X147290979Y-75818804I7008046J-19286135D01*
G01*
X153005979Y-75818804D02*
G75*
G02*
X157156523Y-76852668I-2857530J-20320120D01*
G01*
X169434614Y-89130758D02*
G75*
G02*
X170468479Y-93281304I-19286135J-7008046D01*
G01*
X170468479Y-98996304D02*
G75*
G02*
X169434613Y-103146853I-20320000J2857500D01*
G01*
%TO.C,SW20*%
D13*
X99763437Y-144729812D02*
X100263437Y-145595838D01*
X100263437Y-145595838D02*
X100436642Y-145495838D01*
X100453963Y-145485838D02*
X101578963Y-147434395D01*
D15*
X100759128Y-134513200D02*
X102534480Y-133488200D01*
D13*
X101388437Y-147544395D02*
X101563437Y-147847504D01*
D15*
X101484128Y-135768937D02*
X100759128Y-134513200D01*
D13*
X101561642Y-147444395D02*
X101388437Y-147544395D01*
X101563437Y-147847504D02*
X108838051Y-143647503D01*
D15*
X102534480Y-133488200D02*
X103259480Y-134743937D01*
X103259480Y-134743937D02*
X101484128Y-135768937D01*
D13*
X104093564Y-142229812D02*
X99763437Y-144729812D01*
X107906704Y-137834364D02*
X105066141Y-139474364D01*
X107906704Y-137834364D02*
X108086704Y-138146133D01*
X107913499Y-138246133D02*
X108086704Y-138146133D01*
X109007518Y-140201030D02*
X107887518Y-138261133D01*
X109206704Y-140086030D02*
X109033499Y-140186030D01*
X109706704Y-140952055D02*
X109206704Y-140086030D01*
X105073687Y-139494799D02*
G75*
G02*
X104093564Y-142229811I-2008830J-823238D01*
G01*
X109706703Y-140952055D02*
G75*
G02*
X108838051Y-143647503I-1782047J-913399D01*
G01*
%TO.C,SW16*%
X190403949Y-127791347D02*
X198676334Y-129249990D01*
X190464726Y-127446663D02*
X190403949Y-127791347D01*
X190661688Y-127481391D02*
X190464726Y-127446663D01*
X190855435Y-125230845D02*
X191052396Y-125265575D01*
X191029083Y-124246038D02*
X190855435Y-125230845D01*
X191072092Y-125269048D02*
X190681384Y-127484865D01*
X195953123Y-125114279D02*
X191029083Y-124246038D01*
D15*
X198107148Y-118487648D02*
X198358938Y-117059677D01*
X198358938Y-117059677D02*
X200377794Y-117415655D01*
X200126004Y-118843627D02*
X198107148Y-118487648D01*
X200377794Y-117415655D02*
X200126004Y-118843627D01*
D13*
X201021505Y-126718770D02*
X201410477Y-124512800D01*
X201074362Y-127743517D02*
X201248010Y-126758709D01*
X201248010Y-126758709D02*
X201051049Y-126723979D01*
X201440021Y-124518010D02*
X201636982Y-124552740D01*
X201699496Y-124198209D02*
X198469326Y-123628643D01*
X201699496Y-124198209D02*
X201636982Y-124552740D01*
X198461972Y-123649148D02*
G75*
G02*
X195953123Y-125114279I-2068021J660614D01*
G01*
X201074362Y-127743516D02*
G75*
G02*
X198676334Y-129249990I-1952250J445775D01*
G01*
%TO.C,D9*%
D11*
X174566582Y-97269404D02*
X175513219Y-96633890D01*
X174615412Y-96571109D02*
X174517752Y-97967699D01*
X175415560Y-98030479D02*
X174566582Y-97269404D01*
X175513219Y-96633890D02*
X175415560Y-98030479D01*
%TO.C,SW13*%
D13*
X135461399Y-109747857D02*
X135461399Y-110747857D01*
X135461399Y-110747857D02*
X135661399Y-110747857D01*
X135461399Y-112997857D02*
X135461399Y-113347857D01*
X135461399Y-113347857D02*
X143861400Y-113347857D01*
X135661399Y-112997857D02*
X135461399Y-112997857D01*
X135681399Y-110747857D02*
X135681399Y-112997857D01*
X140461399Y-109747857D02*
X135461399Y-109747857D01*
D15*
X141431999Y-101397857D02*
X143481999Y-101397857D01*
X141431999Y-102847857D02*
X141431999Y-101397857D01*
X143481999Y-101397857D02*
X143481999Y-102847857D01*
X143481999Y-102847857D02*
X141431999Y-102847857D01*
D13*
X145731399Y-110447857D02*
X145731399Y-108207857D01*
X145761399Y-108207857D02*
X145961399Y-108207857D01*
X145961399Y-107847857D02*
X142681399Y-107847857D01*
X145961399Y-107847857D02*
X145961399Y-108207857D01*
X145961399Y-110447857D02*
X145761399Y-110447857D01*
X145961399Y-111447857D02*
X145961399Y-110447857D01*
X142677717Y-107869328D02*
G75*
G02*
X140461399Y-109747857I-2151317J291470D01*
G01*
X145961399Y-111447856D02*
G75*
G02*
X143861400Y-113347858I-1999999J99997D01*
G01*
%TO.C,SW7*%
X135461399Y-90675260D02*
X135461399Y-91675260D01*
X135461399Y-91675260D02*
X135661399Y-91675260D01*
X135461399Y-93925260D02*
X135461399Y-94275260D01*
X135461399Y-94275260D02*
X143861400Y-94275260D01*
X135661399Y-93925260D02*
X135461399Y-93925260D01*
X135681399Y-91675260D02*
X135681399Y-93925260D01*
X140461399Y-90675260D02*
X135461399Y-90675260D01*
D15*
X141431999Y-82325260D02*
X143481999Y-82325260D01*
X141431999Y-83775260D02*
X141431999Y-82325260D01*
X143481999Y-82325260D02*
X143481999Y-83775260D01*
X143481999Y-83775260D02*
X141431999Y-83775260D01*
D13*
X145731399Y-91375260D02*
X145731399Y-89135260D01*
X145761399Y-89135260D02*
X145961399Y-89135260D01*
X145961399Y-88775260D02*
X142681399Y-88775260D01*
X145961399Y-88775260D02*
X145961399Y-89135260D01*
X145961399Y-91375260D02*
X145761399Y-91375260D01*
X145961399Y-92375260D02*
X145961399Y-91375260D01*
X142677717Y-88796731D02*
G75*
G02*
X140461399Y-90675260I-2151317J291470D01*
G01*
X145961399Y-92375259D02*
G75*
G02*
X143861400Y-94275261I-1999999J99997D01*
G01*
%TO.C,D4*%
D11*
X175497077Y-78183708D02*
X176443714Y-77548194D01*
X175545907Y-77485413D02*
X175448247Y-78882003D01*
X176346055Y-78944783D02*
X175497077Y-78183708D01*
X176443714Y-77548194D02*
X176346055Y-78944783D01*
%TO.C,D13*%
X147500000Y-102800000D02*
X148900000Y-102800000D01*
X147500000Y-103700000D02*
X148900000Y-103700000D01*
X148200000Y-103700000D02*
X147500000Y-102800000D01*
X148900000Y-102800000D02*
X148200000Y-103700000D01*
%TO.C,SW5*%
D13*
X197027793Y-90225666D02*
X205300178Y-91684309D01*
X197088570Y-89880982D02*
X197027793Y-90225666D01*
X197285532Y-89915710D02*
X197088570Y-89880982D01*
X197479279Y-87665164D02*
X197676240Y-87699894D01*
X197652927Y-86680357D02*
X197479279Y-87665164D01*
X197695936Y-87703367D02*
X197305228Y-89919184D01*
X202576967Y-87548598D02*
X197652927Y-86680357D01*
D15*
X204730992Y-80921967D02*
X204982782Y-79493996D01*
X204982782Y-79493996D02*
X207001638Y-79849974D01*
X206749848Y-81277946D02*
X204730992Y-80921967D01*
X207001638Y-79849974D02*
X206749848Y-81277946D01*
D13*
X207645349Y-89153089D02*
X208034321Y-86947119D01*
X207698206Y-90177836D02*
X207871854Y-89193028D01*
X207871854Y-89193028D02*
X207674893Y-89158298D01*
X208063865Y-86952329D02*
X208260826Y-86987059D01*
X208323340Y-86632528D02*
X205093170Y-86062962D01*
X208323340Y-86632528D02*
X208260826Y-86987059D01*
X205085816Y-86083467D02*
G75*
G02*
X202576967Y-87548598I-2068021J660614D01*
G01*
X207698206Y-90177835D02*
G75*
G02*
X205300178Y-91684309I-1952250J445775D01*
G01*
%TO.C,D1*%
D11*
X116500000Y-79400000D02*
X116500000Y-80800000D01*
X116500000Y-80100000D02*
X117400000Y-79400000D01*
X117400000Y-79400000D02*
X117400000Y-80800000D01*
X117400000Y-80800000D02*
X116500000Y-80100000D01*
%TO.C,PSW1*%
X82695000Y-62500000D02*
X82695000Y-69250000D01*
X82695000Y-69250000D02*
X85545000Y-69250000D01*
X85545000Y-69250000D02*
X85595000Y-62500000D01*
X85595000Y-62500000D02*
X82695000Y-62500000D01*
%TO.C,D12*%
X116300000Y-117590000D02*
X116300000Y-118990000D01*
X116300000Y-118290000D02*
X117200000Y-117590000D01*
X117200000Y-117590000D02*
X117200000Y-118990000D01*
X117200000Y-118990000D02*
X116300000Y-118290000D01*
%TO.C,J3*%
D16*
X136700000Y-118850000D02*
X149350000Y-118850000D01*
X149350000Y-121350000D01*
X136700000Y-121350000D01*
X136700000Y-118850000D01*
%TO.C,SW14*%
D13*
X154511399Y-100747857D02*
X154511399Y-101747857D01*
X154511399Y-101747857D02*
X154711399Y-101747857D01*
X154511399Y-103997857D02*
X154511399Y-104347857D01*
X154511399Y-104347857D02*
X162911400Y-104347857D01*
X154711399Y-103997857D02*
X154511399Y-103997857D01*
X154731399Y-101747857D02*
X154731399Y-103997857D01*
X159511399Y-100747857D02*
X154511399Y-100747857D01*
D15*
X160481999Y-92397857D02*
X162531999Y-92397857D01*
X160481999Y-93847857D02*
X160481999Y-92397857D01*
X162531999Y-92397857D02*
X162531999Y-93847857D01*
X162531999Y-93847857D02*
X160481999Y-93847857D01*
D13*
X164781399Y-101447857D02*
X164781399Y-99207857D01*
X164811399Y-99207857D02*
X165011399Y-99207857D01*
X165011399Y-98847857D02*
X161731399Y-98847857D01*
X165011399Y-98847857D02*
X165011399Y-99207857D01*
X165011399Y-101447857D02*
X164811399Y-101447857D01*
X165011399Y-102447857D02*
X165011399Y-101447857D01*
X161727717Y-98869328D02*
G75*
G02*
X159511399Y-100747857I-2151317J291470D01*
G01*
X165011399Y-102447856D02*
G75*
G02*
X162911400Y-104347858I-1999999J99997D01*
G01*
%TO.C,SW10*%
X193715871Y-109008505D02*
X201988256Y-110467148D01*
X193776648Y-108663821D02*
X193715871Y-109008505D01*
X193973610Y-108698549D02*
X193776648Y-108663821D01*
X194167357Y-106448003D02*
X194364318Y-106482733D01*
X194341005Y-105463196D02*
X194167357Y-106448003D01*
X194384014Y-106486206D02*
X193993306Y-108702023D01*
X199265045Y-106331437D02*
X194341005Y-105463196D01*
D15*
X201419070Y-99704806D02*
X201670860Y-98276835D01*
X201670860Y-98276835D02*
X203689716Y-98632813D01*
X203437926Y-100060785D02*
X201419070Y-99704806D01*
X203689716Y-98632813D02*
X203437926Y-100060785D01*
D13*
X204333427Y-107935928D02*
X204722399Y-105729958D01*
X204386284Y-108960675D02*
X204559932Y-107975867D01*
X204559932Y-107975867D02*
X204362971Y-107941137D01*
X204751943Y-105735168D02*
X204948904Y-105769898D01*
X205011418Y-105415367D02*
X201781248Y-104845801D01*
X205011418Y-105415367D02*
X204948904Y-105769898D01*
X201773894Y-104866306D02*
G75*
G02*
X199265045Y-106331437I-2068021J660614D01*
G01*
X204386284Y-108960674D02*
G75*
G02*
X201988256Y-110467148I-1952250J445775D01*
G01*
%TO.C,U1*%
D11*
X87510000Y-53030000D02*
X105290000Y-53030000D01*
X87510000Y-55570000D02*
X90050000Y-55570000D01*
X87510000Y-86050000D02*
X87510000Y-53030000D01*
X87510000Y-86050000D02*
X87510000Y-55570000D01*
X90050000Y-55570000D02*
X90050000Y-86050000D01*
X90050000Y-86050000D02*
X87510000Y-86050000D01*
X102750000Y-55570000D02*
X105290000Y-55570000D01*
X102750000Y-86050000D02*
X102750000Y-55570000D01*
X105290000Y-53030000D02*
X105290000Y-86050000D01*
X105290000Y-55570000D02*
X105290000Y-86050000D01*
X105290000Y-86050000D02*
X102750000Y-86050000D01*
%TO.C,SW2*%
D13*
X135461399Y-71602664D02*
X135461399Y-72602664D01*
X135461399Y-72602664D02*
X135661399Y-72602664D01*
X135461399Y-74852664D02*
X135461399Y-75202664D01*
X135461399Y-75202664D02*
X143861400Y-75202664D01*
X135661399Y-74852664D02*
X135461399Y-74852664D01*
X135681399Y-72602664D02*
X135681399Y-74852664D01*
X140461399Y-71602664D02*
X135461399Y-71602664D01*
D15*
X141431999Y-63252664D02*
X143481999Y-63252664D01*
X141431999Y-64702664D02*
X141431999Y-63252664D01*
X143481999Y-63252664D02*
X143481999Y-64702664D01*
X143481999Y-64702664D02*
X141431999Y-64702664D01*
D13*
X145731399Y-72302664D02*
X145731399Y-70062664D01*
X145761399Y-70062664D02*
X145961399Y-70062664D01*
X145961399Y-69702664D02*
X142681399Y-69702664D01*
X145961399Y-69702664D02*
X145961399Y-70062664D01*
X145961399Y-72302664D02*
X145761399Y-72302664D01*
X145961399Y-73302664D02*
X145961399Y-72302664D01*
X142677717Y-69724135D02*
G75*
G02*
X140461399Y-71602664I-2151317J291470D01*
G01*
X145961399Y-73302663D02*
G75*
G02*
X143861400Y-75202665I-1999999J99997D01*
G01*
%TO.C,JP8*%
D11*
X91740450Y-100659000D02*
X91740450Y-102945000D01*
X91740450Y-102945000D02*
X93518450Y-102945000D01*
X93518450Y-100659000D02*
X91740450Y-100659000D01*
X93518450Y-102945000D02*
X93518450Y-100659000D01*
%TO.C,JP19*%
X139611000Y-116507000D02*
X139611000Y-118793000D01*
X139611000Y-118793000D02*
X141389000Y-118793000D01*
X141389000Y-116507000D02*
X139611000Y-116507000D01*
X141389000Y-118793000D02*
X141389000Y-116507000D01*
%TO.C,JP5*%
X99324450Y-100659000D02*
X99324450Y-102945000D01*
X99324450Y-102945000D02*
X101102450Y-102945000D01*
X101102450Y-100659000D02*
X99324450Y-100659000D01*
X101102450Y-102945000D02*
X101102450Y-100659000D01*
%TO.C,JP20*%
X144711000Y-116507380D02*
X144711000Y-118793380D01*
X144711000Y-118793380D02*
X146489000Y-118793380D01*
X146489000Y-116507380D02*
X144711000Y-116507380D01*
X146489000Y-118793380D02*
X146489000Y-116507380D01*
%TO.C,JP6*%
X96779450Y-100659000D02*
X96779450Y-102945000D01*
X96779450Y-102945000D02*
X98557450Y-102945000D01*
X98557450Y-100659000D02*
X96779450Y-100659000D01*
X98557450Y-102945000D02*
X98557450Y-100659000D01*
%TO.C,JP25*%
X82936000Y-107349660D02*
X82936000Y-109635660D01*
X82936000Y-109635660D02*
X84714000Y-109635660D01*
X84714000Y-107349660D02*
X82936000Y-107349660D01*
X84714000Y-109635660D02*
X84714000Y-107349660D01*
%TO.C,JP7*%
X94277000Y-100659000D02*
X94277000Y-102945000D01*
X94277000Y-102945000D02*
X96055000Y-102945000D01*
X96055000Y-100659000D02*
X94277000Y-100659000D01*
X96055000Y-102945000D02*
X96055000Y-100659000D01*
%TO.C,JP23*%
X84711000Y-107349660D02*
X84711000Y-109635660D01*
X84711000Y-109635660D02*
X86489000Y-109635660D01*
X86489000Y-107349660D02*
X84711000Y-107349660D01*
X86489000Y-109635660D02*
X86489000Y-107349660D01*
%TO.C,JP21*%
X147211000Y-116507000D02*
X147211000Y-118793000D01*
X147211000Y-118793000D02*
X148989000Y-118793000D01*
X148989000Y-116507000D02*
X147211000Y-116507000D01*
X148989000Y-118793000D02*
X148989000Y-116507000D01*
%TD*%
D17*
%TO.C,U1*%
X105318815Y-58035745D03*
X105318815Y-60575745D03*
X105318815Y-63115745D03*
X105318815Y-65655745D03*
X105318815Y-68195745D03*
X105318815Y-70735745D03*
X105318815Y-73275745D03*
X105318815Y-75815745D03*
X105318815Y-78355745D03*
X105318815Y-80895745D03*
X105318815Y-83435745D03*
X105318815Y-85975745D03*
X90078815Y-85975745D03*
X90078815Y-83435745D03*
X90078815Y-80895745D03*
X90078815Y-78355745D03*
X90078815Y-75815745D03*
X90078815Y-73275745D03*
X90078815Y-70735745D03*
X90078815Y-68195745D03*
X90078815Y-65655745D03*
X90078815Y-63115745D03*
X90078815Y-60575745D03*
X90078815Y-58035745D03*
%TD*%
M02*
