%TF.GenerationSoftware,KiCad,Pcbnew,10.0.5*%
%TF.CreationDate,2026-08-27T17:59:17-07:00*%
%TF.ProjectId,klaw_1,6b6c6177-5f31-42e6-9b69-6361645f7063,v1*%
%TF.SameCoordinates,Original*%
%TF.FileFunction,Paste,Top*%
%TF.FilePolarity,Positive*%
%FSLAX46Y46*%
G04 Gerber Fmt 4.6, Leading zero omitted, Abs format (unit mm)*
G04 Created by KiCad (PCBNEW 10.0.5) date 2026-08-27 17:59:17*
%MOMM*%
%LPD*%
G01*
G04 APERTURE LIST*
G04 Aperture macros list*
%AMRoundRect*
0 Rectangle with rounded corners*
0 $1 Rounding radius*
0 $2 $3 $4 $5 $6 $7 $8 $9 X,Y pos of 4 corners*
0 Add a 4 corners polygon primitive as box body*
4,1,4,$2,$3,$4,$5,$6,$7,$8,$9,$2,$3,0*
0 Add four circle primitives for the rounded corners*
1,1,$1+$1,$2,$3*
1,1,$1+$1,$4,$5*
1,1,$1+$1,$6,$7*
1,1,$1+$1,$8,$9*
0 Add four rect primitives between the rounded corners*
20,1,$1+$1,$2,$3,$4,$5,0*
20,1,$1+$1,$4,$5,$6,$7,0*
20,1,$1+$1,$6,$7,$8,$9,0*
20,1,$1+$1,$8,$9,$2,$3,0*%
%AMRotRect*
0 Rectangle, with rotation*
0 The origin of the aperture is its center*
0 $1 length*
0 $2 width*
0 $3 Rotation angle, in degrees counterclockwise*
0 Add horizontal line*
21,1,$1,$2,0,0,$3*%
G04 Aperture macros list end*
%ADD10RoundRect,0.200000X-0.275000X0.200000X-0.275000X-0.200000X0.275000X-0.200000X0.275000X0.200000X0*%
%ADD11RotRect,1.000000X0.900000X176.000000*%
%ADD12RotRect,2.300000X2.000000X356.000000*%
%ADD13RotRect,1.000000X0.900000X195.000000*%
%ADD14RotRect,2.300000X2.000000X15.000000*%
%ADD15R,1.000000X0.900000*%
%ADD16R,2.300000X2.000000*%
%ADD17RoundRect,0.200000X0.275000X-0.200000X0.275000X0.200000X-0.275000X0.200000X-0.275000X-0.200000X0*%
%ADD18RotRect,1.000000X0.900000X210.000000*%
%ADD19RotRect,2.300000X2.000000X30.000000*%
%ADD20RotRect,1.000000X0.900000X170.000000*%
%ADD21RotRect,2.300000X2.000000X350.000000*%
%ADD22R,1.000000X0.700000*%
%ADD23R,2.800000X1.000000*%
G04 APERTURE END LIST*
D10*
%TO.C,JP22*%
X83825000Y-107995692D03*
X83825000Y-109645692D03*
%TD*%
D11*
%TO.C,SW4*%
X183608176Y-65460856D03*
X178819869Y-65126025D03*
X178925201Y-63619703D03*
X183713508Y-63954534D03*
D12*
X173720108Y-72112302D03*
%TD*%
D10*
%TO.C,JP4*%
X92621000Y-100977000D03*
X92621000Y-102627000D03*
%TD*%
D13*
%TO.C,SW21*%
X122987280Y-126374457D03*
X118350836Y-127616789D03*
X117960019Y-126158241D03*
X122596463Y-124915909D03*
D14*
X115803426Y-135882763D03*
%TD*%
D15*
%TO.C,SW8*%
X161511399Y-73930260D03*
X156711399Y-73930260D03*
X156711399Y-72420260D03*
X161511399Y-72420260D03*
D16*
X152111399Y-81255260D03*
%TD*%
D17*
%TO.C,JP16*%
X137950000Y-118475000D03*
X137950000Y-116825000D03*
%TD*%
D11*
%TO.C,SW15*%
X180947302Y-103513128D03*
X176158995Y-103178297D03*
X176264327Y-101671975D03*
X181052634Y-102006806D03*
D12*
X171059234Y-110164574D03*
%TD*%
D15*
%TO.C,SW6*%
X123467969Y-85930260D03*
X118667969Y-85930260D03*
X118667969Y-84420260D03*
X123467969Y-84420260D03*
D16*
X114067969Y-93255260D03*
%TD*%
D17*
%TO.C,JP17*%
X140500000Y-118475000D03*
X140500000Y-116825000D03*
%TD*%
D10*
%TO.C,JP2*%
X97660000Y-100977000D03*
X97660000Y-102627000D03*
%TD*%
D15*
%TO.C,SW12*%
X123467969Y-105002857D03*
X118667969Y-105002857D03*
X118667969Y-103492857D03*
X123467969Y-103492857D03*
D16*
X114067969Y-112327857D03*
%TD*%
D10*
%TO.C,JP3*%
X95166000Y-100977000D03*
X95166000Y-102627000D03*
%TD*%
D17*
%TO.C,JP18*%
X145600000Y-118475000D03*
X145600000Y-116825000D03*
%TD*%
D15*
%TO.C,SW1*%
X123467969Y-66857664D03*
X118667969Y-66857664D03*
X118667969Y-65347664D03*
X123467969Y-65347664D03*
D16*
X114067969Y-74182664D03*
%TD*%
D11*
%TO.C,SW9*%
X182277739Y-84486991D03*
X177489432Y-84152160D03*
X177594764Y-82645838D03*
X182383071Y-82980669D03*
D12*
X172389671Y-91138437D03*
%TD*%
D15*
%TO.C,SW3*%
X161511399Y-54857664D03*
X156711399Y-54857664D03*
X156711399Y-53347664D03*
X161511399Y-53347664D03*
D16*
X152111399Y-62182664D03*
%TD*%
D18*
%TO.C,SW20*%
X101953115Y-134522445D03*
X97796193Y-136922445D03*
X97041193Y-135614747D03*
X101198115Y-133214747D03*
D19*
X97474976Y-145566082D03*
%TD*%
D10*
%TO.C,JP1*%
X100205000Y-100977000D03*
X100205000Y-102627000D03*
%TD*%
D20*
%TO.C,SW16*%
X199267642Y-117834239D03*
X194540565Y-117000728D03*
X194802774Y-115513668D03*
X199529851Y-116347179D03*
D21*
X188738476Y-123415663D03*
%TD*%
D15*
%TO.C,SW13*%
X142461399Y-102002857D03*
X137661399Y-102002857D03*
X137661399Y-100492857D03*
X142461399Y-100492857D03*
D16*
X133061399Y-109327857D03*
%TD*%
D15*
%TO.C,SW7*%
X142461399Y-82930260D03*
X137661399Y-82930260D03*
X137661399Y-81420260D03*
X142461399Y-81420260D03*
D16*
X133061399Y-90255260D03*
%TD*%
D20*
%TO.C,SW5*%
X205891486Y-80268558D03*
X201164409Y-79435047D03*
X201426618Y-77947987D03*
X206153695Y-78781498D03*
D21*
X195362320Y-85849982D03*
%TD*%
D22*
%TO.C,PSW1*%
X86075000Y-72774255D03*
X86075000Y-75774255D03*
X86075000Y-77274255D03*
D23*
X84175000Y-71174255D03*
X84175000Y-79124255D03*
%TD*%
D10*
%TO.C,JP24*%
X85605046Y-108000000D03*
X85605046Y-109650000D03*
%TD*%
D15*
%TO.C,SW14*%
X161511399Y-93002857D03*
X156711399Y-93002857D03*
X156711399Y-91492857D03*
X161511399Y-91492857D03*
D16*
X152111399Y-100327857D03*
%TD*%
D20*
%TO.C,SW10*%
X202579564Y-99051397D03*
X197852487Y-98217886D03*
X198114696Y-96730826D03*
X202841773Y-97564337D03*
D21*
X192050398Y-104632821D03*
%TD*%
D15*
%TO.C,SW2*%
X142461399Y-63857664D03*
X137661399Y-63857664D03*
X137661399Y-62347664D03*
X142461399Y-62347664D03*
D16*
X133061399Y-71182664D03*
%TD*%
M02*
